<svg width="160" height="160" viewBox="0 0 160 160" fill="none" xmlns="http://www.w3.org/2000/svg">
<circle cx="80" cy="80" r="70.5" fill="#F2F4F7" stroke="#2ABB7F" stroke-dasharray="2 2"/>
<mask id="mask0_7698_13187" style="mask-type:alpha" maskUnits="userSpaceOnUse" x="10" y="10" width="140" height="140">
<circle cx="80" cy="80" r="70" fill="#F2F4F7"/>
</mask>
<g mask="url(#mask0_7698_13187)">
<path d="M125.52 48C127.957 48 129.999 49.9168 129.999 52.3447V107.1C129.999 109.465 128.023 111.445 125.52 111.445H101.413C98.9755 111.445 96.9336 109.528 96.9336 107.1V52.3447C96.9336 49.9807 98.9097 48 101.413 48H125.52Z" fill="#5B7896"/>
<path d="M127.764 52.7187V106.396C127.764 107.336 127.167 108.087 126.238 108.338C126.039 108.4 125.84 108.4 125.575 108.4H101.291C101.158 108.4 101.026 108.4 100.959 108.4C99.8978 108.213 99.168 107.398 99.168 106.396V52.9066C99.168 51.8419 99.8978 51.0276 100.959 50.9023C101.092 50.9023 101.158 50.9023 101.291 50.9023H104.874C105.338 50.9023 105.67 51.2155 105.67 51.654C105.67 52.5308 106.466 53.2824 107.395 53.2824H119.736C120.665 53.2824 121.461 52.5308 121.461 51.654C121.461 51.2155 121.793 50.9023 122.257 50.9023H125.641L125.589 50.9107C125.788 50.9107 126.053 50.9107 126.252 50.9734C127.049 51.2239 127.764 51.7792 127.764 52.7187Z" fill="#D2DFFE"/>
<rect x="103.359" y="69.4688" width="20.3098" height="20.3098" rx="10.1549" fill="#7084FF"/>
<path d="M120.138 80.4636C120.664 79.2858 118.066 75.9951 115.584 74.6242C114.02 73.5621 112.39 73.708 112.06 74.1743C111.335 75.1977 114.459 76.0649 116.548 77.0768C116.099 77.2725 115.676 77.6237 115.427 78.0728C114.648 77.2197 112.939 76.4851 110.933 77.0768C109.581 77.4756 108.458 78.4157 108.024 79.8357C107.918 79.7887 107.802 79.7625 107.679 79.7625C107.209 79.7625 106.828 80.1447 106.828 80.6162C106.828 81.0877 107.209 81.4699 107.679 81.4699C107.766 81.4699 108.038 81.4113 108.038 81.4113L112.39 81.4429C110.65 84.2131 109.274 84.6181 109.274 85.098C109.274 85.5779 110.59 85.4479 111.084 85.269C113.45 84.4126 115.99 81.7436 116.426 80.9753C118.257 81.2045 119.796 81.2316 120.138 80.4636Z" fill="url(#paint0_linear_7698_13187)"/>
<path fill-rule="evenodd" clip-rule="evenodd" d="M116.485 77.0474C116.506 77.0565 116.527 77.0657 116.548 77.0748C116.645 77.0365 116.629 76.893 116.602 76.7804C116.541 76.5214 115.487 75.4767 114.497 75.0088C113.145 74.3701 112.151 74.4042 112.007 74.6994C112.28 75.2652 113.555 75.7963 114.887 76.3511C115.432 76.5779 115.986 76.8087 116.485 77.0474Z" fill="url(#paint1_linear_7698_13187)"/>
<path fill-rule="evenodd" clip-rule="evenodd" d="M114.837 82.7662C114.564 82.6613 114.255 82.565 113.904 82.4778C114.278 81.807 114.356 80.8139 114.003 80.1861C113.508 79.3049 112.886 78.8359 111.442 78.8359C110.647 78.8359 108.508 79.1044 108.47 80.8961C108.466 81.0851 108.47 81.2581 108.484 81.4172L112.39 81.4456C111.864 82.2827 111.372 82.9038 110.94 83.3763C111.458 83.5094 111.885 83.6212 112.277 83.7238C112.651 83.8215 112.993 83.9109 113.351 84.0025C113.889 83.6087 114.395 83.1795 114.837 82.7662Z" fill="url(#paint2_linear_7698_13187)"/>
<path d="M107.972 81.2335C108.131 82.5946 108.902 83.128 110.477 83.2858C112.053 83.4437 112.956 83.3378 114.159 83.4476C115.164 83.5393 116.061 84.0531 116.394 83.8755C116.694 83.7158 116.526 83.1385 116.125 82.7682C115.606 82.2881 114.887 81.9543 113.622 81.8359C113.874 81.1432 113.803 80.172 113.411 79.6436C112.845 78.8796 111.8 78.5342 110.477 78.6851C109.096 78.8428 107.771 79.5254 107.972 81.2335Z" fill="url(#paint3_linear_7698_13187)"/>
<path d="M116.526 52.1964H111.853C111.376 52.1964 111.186 51.7189 111.186 51.5279C111.186 51.0504 111.662 50.8594 111.853 50.8594H116.526C116.907 50.8594 117.193 51.3369 117.193 51.5279C117.193 52.0054 116.907 52.1964 116.526 52.1964Z" fill="#4E6781"/>
<path d="M109.167 52.1964H108.976C108.499 52.1964 108.309 51.7189 108.309 51.5279C108.309 51.0504 108.785 50.8594 108.976 50.8594H109.167C109.644 50.8594 109.834 51.3369 109.834 51.5279C109.834 52.0054 109.548 52.1964 109.167 52.1964Z" fill="#4E6781"/>
<path d="M89.7738 84.875L77.6035 84.875" stroke="#2ABB7F" stroke-width="1.73862" stroke-linecap="round" stroke-linejoin="round"/>
<path d="M85.7148 80.8161L89.7716 84.8729L85.7148 88.9297" stroke="#2ABB7F" stroke-width="1.73862" stroke-linecap="round" stroke-linejoin="round"/>
<path d="M75.4703 72.707L87.6406 72.707" stroke="#2ABB7F" stroke-width="1.73862" stroke-linecap="round" stroke-linejoin="round"/>
<path d="M79.5176 68.6482L75.4608 72.7049L79.5176 76.7617" stroke="#2ABB7F" stroke-width="1.73862" stroke-linecap="round" stroke-linejoin="round"/>
<rect x="30" y="50.5156" width="38.3163" height="59.673" rx="3.76882" fill="#2E2E30"/>
<rect x="30.0628" y="50.5784" width="38.1907" height="59.5473" rx="3.706" stroke="white" stroke-opacity="0.46" stroke-width="0.125627"/>
<mask id="mask1_7698_13187" style="mask-type:alpha" maskUnits="userSpaceOnUse" x="30" y="50" width="39" height="61">
<rect x="30" y="50.5234" width="38.3163" height="59.673" rx="3.76882" fill="#2E2E30"/>
</mask>
<g mask="url(#mask1_7698_13187)">
<path opacity="0.3" d="M76.4243 93.8799C75.5659 99.6235 76.4095 107.515 73.6629 109.526C72.4973 110.38 67.7884 108.15 66.8083 107.7C56.4229 102.931 64.026 100.391 65.2487 92.2096C66.4714 84.0284 62.8265 75.976 65.9126 76.4372C68.9986 76.8984 77.647 85.6987 76.4243 93.8799Z" fill="url(#paint4_linear_7698_13187)"/>
<path opacity="0.1" d="M36.3301 90.1472C36.1856 96.068 34.9938 103.457 32.5158 105.84C31.4642 106.851 29.2161 104.94 28.2867 104.918C25.1673 104.842 24.828 98.305 25.0337 89.8716C25.2395 81.4382 27.935 74.6633 31.0544 74.7394C34.1738 74.8155 36.5358 81.7138 36.3301 90.1472Z" fill="url(#paint5_linear_7698_13187)"/>
<path opacity="0.3" d="M48.2204 53.9572C41.0017 54.4865 32.8674 54.5474 27.9793 53.4527C26.6698 52.9159 29.68 51.1552 29.6382 50.5852C29.4979 48.672 37.4303 47.7831 47.7125 47.0291C57.9947 46.2752 66.4438 47.215 66.5841 49.1281C66.7243 51.0412 58.5026 53.2033 48.2204 53.9572Z" fill="url(#paint6_linear_7698_13187)"/>
<path opacity="0.3" d="M27.6211 72.5132C27.8338 65.2782 25.1959 56.3935 26.7702 53.4534C26.7703 53.4554 32.8124 54.0596 33.7187 54.3617C35.6362 54.4181 34.8678 62.412 34.5647 72.7174C34.2617 83.0228 32.4616 91.3312 30.5441 91.2748C28.6267 91.2184 27.318 82.8186 27.6211 72.5132Z" fill="url(#paint7_linear_7698_13187)"/>
</g>
<rect x="31.8848" y="52.3984" width="34.5475" height="55.9041" rx="2.51255" fill="#D2DFFE"/>
<rect x="31.915" y="52.4286" width="34.4871" height="55.8437" rx="2.48233" stroke="white" stroke-opacity="0.5" stroke-width="0.0604209"/>
<rect x="41" y="86" width="16" height="16" rx="8" fill="white"/>
<path d="M44.7523 89.5H49.8119L46.4388 96.6679H43.909L44.7523 89.5Z" fill="black"/>
<path d="M53.185 98.7733H48.1254L51.4985 91.6055H54.0283L53.185 98.7733Z" fill="#1F5AFF"/>
<path d="M38 59V66.6364H39.9091V68.5455H41.8182V66.6364H45.6364V59H38ZM45.6364 66.6364V68.5455H47.5455V70.4545H43.7273V72.3636H38V80H45.6364V72.3636H51.3636V70.4545H49.4545V68.5455H53.2727V66.6364H55.1818V68.5455H57.0909V66.6364H59V59H51.3636V66.6364H45.6364ZM57.0909 68.5455V70.4545H59V68.5455H57.0909ZM57.0909 70.4545H55.1818V72.3636H57.0909V70.4545ZM57.0909 72.3636V74.2727H59V72.3636H57.0909ZM57.0909 74.2727H55.1818V72.3636H53.2727V74.2727H48.5V80H50.4091V76.1818H54.2273V78.0909H56.1364V76.1818H57.0909V74.2727ZM54.2273 78.0909H52.3182V80H54.2273V78.0909ZM55.1818 70.4545V68.5455H53.2727V70.4545H55.1818ZM43.7273 70.4545V68.5455H41.8182V70.4545H43.7273ZM39.9091 68.5455H38V70.4545H39.9091V68.5455ZM47.5455 59V62.8182H46.5909V64.7273H47.5455V65.6818H49.4545V62.8182H50.4091V60.9091H49.4545V59H47.5455ZM39.9091 60.9091H43.7273V64.7273H39.9091V60.9091ZM53.2727 60.9091H57.0909V64.7273H53.2727V60.9091ZM40.8636 61.8636V63.7727H42.7727V61.8636H40.8636ZM54.2273 61.8636V63.7727H56.1364V61.8636H54.2273ZM39.9091 74.2727H43.7273V78.0909H39.9091V74.2727ZM40.8636 75.2273V77.1364H42.7727V75.2273H40.8636ZM57.0909 78.0909V80H59V78.0909H57.0909Z" fill="#3E495E"/>
</g>
<defs>
<linearGradient id="paint0_linear_7698_13187" x1="110.776" y1="79.4206" x2="120.03" y2="82.0361" gradientUnits="userSpaceOnUse">
<stop stop-color="white"/>
<stop offset="1" stop-color="white"/>
</linearGradient>
<linearGradient id="paint1_linear_7698_13187" x1="118.468" y1="79.2418" x2="111.771" y2="72.5504" gradientUnits="userSpaceOnUse">
<stop stop-color="#8697FF"/>
<stop offset="1" stop-color="#8697FF" stop-opacity="0"/>
</linearGradient>
<linearGradient id="paint2_linear_7698_13187" x1="115.023" y1="82.9998" x2="108.6" y2="79.3188" gradientUnits="userSpaceOnUse">
<stop stop-color="#8697FF"/>
<stop offset="1" stop-color="#8697FF" stop-opacity="0"/>
</linearGradient>
<linearGradient id="paint3_linear_7698_13187" x1="111.328" y1="79.3545" x2="115.679" y2="84.8649" gradientUnits="userSpaceOnUse">
<stop stop-color="white"/>
<stop offset="0.983895" stop-color="#D1D8FF"/>
</linearGradient>
<linearGradient id="paint4_linear_7698_13187" x1="72.6791" y1="78.4453" x2="69.6366" y2="111.199" gradientUnits="userSpaceOnUse">
<stop stop-color="white" stop-opacity="0"/>
<stop offset="1" stop-color="white"/>
</linearGradient>
<linearGradient id="paint5_linear_7698_13187" x1="30.7118" y1="75.0034" x2="31.7998" y2="108.53" gradientUnits="userSpaceOnUse">
<stop stop-color="white" stop-opacity="0"/>
<stop offset="1" stop-color="white"/>
</linearGradient>
<linearGradient id="paint6_linear_7698_13187" x1="66.4247" y1="48.9322" x2="26.3258" y2="56.47" gradientUnits="userSpaceOnUse">
<stop stop-color="white" stop-opacity="0"/>
<stop offset="1" stop-color="white"/>
</linearGradient>
<linearGradient id="paint7_linear_7698_13187" x1="30.7606" y1="90.9503" x2="27.369" y2="50.2902" gradientUnits="userSpaceOnUse">
<stop stop-color="white" stop-opacity="0"/>
<stop offset="1" stop-color="white"/>
</linearGradient>
</defs>
</svg>
