<svg width="160" height="160" viewBox="0 0 160 160" fill="none" xmlns="http://www.w3.org/2000/svg">
<circle cx="80" cy="80" r="70.5" fill="#F2F4F7" stroke="#2ABB7F" stroke-dasharray="2 2"/>
<mask id="mask0_6030_32012" style="mask-type:alpha" maskUnits="userSpaceOnUse" x="10" y="10" width="140" height="140">
<circle cx="80" cy="80" r="70" fill="#F2F4F7"/>
</mask>
<g mask="url(#mask0_6030_32012)">
<path d="M92.5341 87.6719C95.082 87.6719 97.2167 89.6758 97.2167 92.214V149.458C97.2167 151.93 95.1508 154 92.5341 154H67.331C64.7831 154 62.6484 151.996 62.6484 149.458V92.214C62.6484 89.7425 64.7143 87.6719 67.331 87.6719H92.5341Z" fill="#5B7896"/>
<path d="M94.8798 92.6021V148.719C94.8798 149.701 94.2555 150.487 93.2845 150.748C93.0764 150.814 92.8683 150.814 92.5909 150.814H67.204C67.0653 150.814 66.9266 150.814 66.8572 150.814C65.7474 150.618 64.9844 149.766 64.9844 148.719V92.7985C64.9844 91.6853 65.7474 90.8341 66.8572 90.7031C66.9959 90.7031 67.0653 90.7031 67.204 90.7031H70.9496C71.4352 90.7031 71.782 91.0305 71.782 91.4889C71.782 92.4056 72.6143 93.1914 73.5854 93.1914H86.4869C87.458 93.1914 88.2904 92.4056 88.2904 91.4889C88.2904 91.0305 88.6371 90.7031 89.1227 90.7031H92.6602L92.606 90.7119C92.814 90.7119 93.0915 90.7119 93.2996 90.7774C94.1319 91.0393 94.8798 91.6198 94.8798 92.6021Z" fill="#D2DFFE"/>
<rect x="68.7109" y="110.422" width="21.2327" height="21.2327" rx="10.6163" fill="#7084FF"/>
<path d="M86.2519 121.914C86.8013 120.683 84.0855 117.242 81.491 115.809C79.8556 114.699 78.1515 114.851 77.8063 115.339C77.0489 116.409 80.3144 117.315 82.4983 118.373C82.0288 118.578 81.5864 118.945 81.3263 119.414C80.5121 118.523 78.7251 117.755 76.6283 118.373C75.2153 118.79 74.0409 119.773 73.5871 121.257C73.4768 121.208 73.3547 121.181 73.2262 121.181C72.735 121.181 72.3367 121.581 72.3367 122.073C72.3367 122.566 72.735 122.966 73.2262 122.966C73.3173 122.966 73.602 122.905 73.602 122.905L78.1515 122.938C76.332 125.834 74.8941 126.257 74.8941 126.759C74.8941 127.261 76.2699 127.125 76.7865 126.938C79.2594 126.042 81.9155 123.252 82.3713 122.449C84.2852 122.688 85.8938 122.717 86.2519 121.914Z" fill="url(#paint0_linear_6030_32012)"/>
<path fill-rule="evenodd" clip-rule="evenodd" d="M82.4343 118.348C82.4557 118.357 82.4771 118.366 82.4983 118.376C82.5995 118.336 82.5831 118.186 82.5553 118.068C82.4914 117.797 81.3891 116.705 80.354 116.216C78.9415 115.548 77.9019 115.584 77.7508 115.892C78.0361 116.484 79.3695 117.039 80.7621 117.619C81.3322 117.856 81.9122 118.098 82.4343 118.348Z" fill="url(#paint1_linear_6030_32012)"/>
<path fill-rule="evenodd" clip-rule="evenodd" d="M80.7055 124.318C80.421 124.209 80.0997 124.109 79.7345 124.018C80.1251 123.317 80.2071 122.279 79.8382 121.622C79.3205 120.701 78.6706 120.211 77.1605 120.211C76.3299 120.211 74.0936 120.492 74.0539 122.365C74.0498 122.56 74.0538 122.739 74.0677 122.904L78.1514 122.933C77.5998 123.811 77.0833 124.462 76.6313 124.956C77.1745 125.096 77.6226 125.213 78.0339 125.321C78.4222 125.422 78.7778 125.515 79.1497 125.611C79.713 125.199 80.2427 124.75 80.7055 124.318Z" fill="url(#paint2_linear_6030_32012)"/>
<path d="M73.5329 122.715C73.6997 124.138 74.5056 124.695 76.1525 124.86C77.7994 125.025 78.7441 124.915 80.0017 125.029C81.0521 125.125 81.99 125.662 82.338 125.477C82.6511 125.31 82.4759 124.706 82.0569 124.319C81.5138 123.817 80.7621 123.468 79.4394 123.345C79.703 122.62 79.6292 121.605 79.2198 121.053C78.6279 120.254 77.5353 119.893 76.1525 120.051C74.7078 120.215 73.3235 120.929 73.5329 122.715Z" fill="url(#paint3_linear_6030_32012)"/>
<path d="M83.13 92.0696H78.2447C77.7463 92.0696 77.5469 91.5704 77.5469 91.3707C77.5469 90.8715 78.0453 90.6719 78.2447 90.6719H83.13C83.5287 90.6719 83.8278 91.1711 83.8278 91.3707C83.8278 91.8699 83.5287 92.0696 83.13 92.0696Z" fill="#4E6781"/>
<path d="M75.4402 92.0696H75.2408C74.7424 92.0696 74.543 91.5704 74.543 91.3707C74.543 90.8715 75.0414 90.6719 75.2408 90.6719H75.4402C75.9387 90.6719 76.1381 91.1711 76.1381 91.3707C76.1381 91.8699 75.8391 92.0696 75.4402 92.0696Z" fill="#4E6781"/>
<path d="M86.2969 66.6829L86.2969 79.4062" stroke="#2ABB7F" stroke-width="1.81762" stroke-linecap="round" stroke-linejoin="round"/>
<path d="M82.0568 70.9219L86.2979 66.6808L90.5391 70.9219" stroke="#2ABB7F" stroke-width="1.81762" stroke-linecap="round" stroke-linejoin="round"/>
<path d="M73.5625 81.6374L73.5625 68.9141" stroke="#2ABB7F" stroke-width="1.81762" stroke-linecap="round" stroke-linejoin="round"/>
<path d="M69.3225 77.4063L73.5636 81.6474L77.8047 77.4062" stroke="#2ABB7F" stroke-width="1.81762" stroke-linecap="round" stroke-linejoin="round"/>
<rect x="38" y="33" width="83.8651" height="26.6394" rx="2.95788" fill="#5B7896"/>
<rect x="41.8008" y="35.9531" width="76.2671" height="20.6405" rx="1.47894" fill="#D2DFFE"/>
<path d="M80.5271 53.598C84.795 53.598 87.7367 52.0336 87.7367 46.0646C87.7367 40.0927 84.795 38.5312 80.5271 38.5312C76.2592 38.5312 73.3164 40.0927 73.3164 46.0646C73.3164 52.0336 76.2592 53.598 80.5271 53.598Z" fill="#3B7EFF"/>
<path d="M83.7537 43.5374L79.9763 39.7344V44.781L77.8997 42.6566L77.1445 43.418L79.7514 46.0514L77.1445 48.6855L77.8993 49.4469L79.9763 47.3533V52.3684L83.7529 48.5649L81.2596 46.051L83.7537 43.5374ZM81.0788 42.1972L82.2444 43.4081L81.0788 44.627V42.1972ZM82.2444 48.5528L81.0788 49.7717V47.342L82.2444 48.5528Z" fill="white"/>
</g>
<defs>
<linearGradient id="paint0_linear_6030_32012" x1="76.4637" y1="120.824" x2="86.1385" y2="123.558" gradientUnits="userSpaceOnUse">
<stop stop-color="white"/>
<stop offset="1" stop-color="white"/>
</linearGradient>
<linearGradient id="paint1_linear_6030_32012" x1="84.5054" y1="120.641" x2="77.5046" y2="113.646" gradientUnits="userSpaceOnUse">
<stop stop-color="#8697FF"/>
<stop offset="1" stop-color="#8697FF" stop-opacity="0"/>
</linearGradient>
<linearGradient id="paint2_linear_6030_32012" x1="80.8996" y1="124.563" x2="74.188" y2="120.718" gradientUnits="userSpaceOnUse">
<stop stop-color="#8697FF"/>
<stop offset="1" stop-color="#8697FF" stop-opacity="0"/>
</linearGradient>
<linearGradient id="paint3_linear_6030_32012" x1="77.0413" y1="120.75" x2="81.5905" y2="126.511" gradientUnits="userSpaceOnUse">
<stop stop-color="white"/>
<stop offset="0.983895" stop-color="#D1D8FF"/>
</linearGradient>
</defs>
</svg>
