<svg width="160" height="160" viewBox="0 0 160 160" fill="none" xmlns="http://www.w3.org/2000/svg">
<circle cx="80" cy="80" r="70.5" fill="#F2F4F7" stroke="#2ABB7F" stroke-dasharray="2 2"/>
<mask id="mask0_6151_210103" style="mask-type:alpha" maskUnits="userSpaceOnUse" x="10" y="10" width="140" height="140">
<circle cx="80" cy="80" r="70" fill="#F2F4F7"/>
</mask>
<g mask="url(#mask0_6151_210103)">
<path d="M128.248 46C130.834 46 133 48.0337 133 50.6097V108.705C133 111.214 130.903 113.315 128.248 113.315H102.67C100.084 113.315 97.9175 111.281 97.9175 108.705V50.6097C97.9175 48.1015 100.014 46 102.67 46H128.248Z" fill="#5B7896"/>
<path d="M130.629 51.0034V107.955C130.629 108.952 129.996 109.749 129.01 110.015C128.799 110.081 128.588 110.081 128.306 110.081H102.541C102.401 110.081 102.26 110.081 102.189 110.081C101.063 109.882 100.289 109.018 100.289 107.955V51.2027C100.289 50.073 101.063 49.2091 102.189 49.0762C102.33 49.0762 102.401 49.0762 102.541 49.0762H106.343C106.836 49.0762 107.188 49.4084 107.188 49.8736C107.188 50.804 108.032 51.6014 109.018 51.6014H122.111C123.097 51.6014 123.942 50.804 123.942 49.8736C123.942 49.4084 124.294 49.0762 124.786 49.0762H128.377L128.321 49.0851C128.533 49.0851 128.814 49.0851 129.025 49.1515C129.87 49.4173 130.629 50.0065 130.629 51.0034Z" fill="#D2DFFE"/>
<rect x="104.734" y="68.7812" width="21.5486" height="21.5486" rx="10.7743" fill="#7084FF"/>
<path d="M122.538 80.4489C123.095 79.1993 120.339 75.7079 117.706 74.2533C116.046 73.1264 114.317 73.2812 113.966 73.776C113.198 74.8618 116.512 75.7819 118.728 76.8556C118.252 77.0632 117.803 77.4358 117.539 77.9123C116.712 77.0071 114.899 76.2277 112.771 76.8556C111.337 77.2787 110.145 78.2761 109.684 79.7827C109.572 79.7328 109.448 79.705 109.318 79.705C108.819 79.705 108.415 80.1106 108.415 80.6108C108.415 81.111 108.819 81.5166 109.318 81.5166C109.41 81.5166 109.699 81.4544 109.699 81.4544L114.317 81.4879C112.47 84.4271 111.011 84.8568 111.011 85.366C111.011 85.8752 112.407 85.7372 112.931 85.5474C115.441 84.6388 118.137 81.807 118.599 80.9918C120.542 81.235 122.174 81.2638 122.538 80.4489Z" fill="url(#paint0_linear_6151_210103)"/>
<path fill-rule="evenodd" clip-rule="evenodd" d="M118.67 76.8263C118.689 76.8346 118.708 76.8429 118.727 76.8512C118.83 76.8106 118.813 76.6584 118.785 76.5388C118.72 76.264 117.602 75.1556 116.551 74.6592C115.119 73.9823 114.064 74.0176 113.909 74.33C114.198 74.9306 115.552 75.4945 116.966 76.0833C117.547 76.3253 118.138 76.5716 118.67 76.8263Z" fill="url(#paint1_linear_6151_210103)"/>
<path fill-rule="evenodd" clip-rule="evenodd" d="M116.913 82.8888C116.623 82.7775 116.295 82.6754 115.922 82.5827C116.319 81.871 116.402 80.8174 116.027 80.1512C115.502 79.2164 114.843 78.7187 113.31 78.7188C112.467 78.7188 110.197 79.0036 110.157 80.9046C110.153 81.1051 110.157 81.2887 110.172 81.4575L114.316 81.4876C113.758 82.3758 113.236 83.0349 112.778 83.5362C113.327 83.6773 113.78 83.7959 114.196 83.9047C114.593 84.0084 114.956 84.1033 115.335 84.2006C115.907 83.7828 116.444 83.3273 116.913 82.8888Z" fill="url(#paint2_linear_6151_210103)"/>
<path d="M109.629 81.2645C109.798 82.7085 110.616 83.2745 112.287 83.4419C113.959 83.6094 114.917 83.4971 116.194 83.6136C117.26 83.7109 118.212 84.256 118.565 84.0676C118.882 83.8981 118.705 83.2856 118.279 82.8927C117.728 82.3834 116.965 82.0292 115.623 81.9036C115.891 81.1686 115.816 80.1382 115.4 79.5776C114.799 78.7669 113.691 78.4005 112.287 78.5606C110.821 78.7279 109.416 79.4522 109.629 81.2645Z" fill="url(#paint3_linear_6151_210103)"/>
<path d="M118.705 50.4615H113.747C113.241 50.4615 113.039 49.9549 113.039 49.7522C113.039 49.2456 113.545 49.043 113.747 49.043H118.705C119.11 49.043 119.413 49.5496 119.413 49.7522C119.413 50.2589 119.11 50.4615 118.705 50.4615Z" fill="#4E6781"/>
<path d="M110.897 50.4615H110.695C110.189 50.4615 109.987 49.9549 109.987 49.7522C109.987 49.2456 110.492 49.043 110.695 49.043H110.897C111.403 49.043 111.605 49.5496 111.605 49.7522C111.605 50.2589 111.302 50.4615 110.897 50.4615Z" fill="#4E6781"/>
<path d="M90.3184 85.1367L77.4058 85.1367" stroke="#2ABB7F" stroke-width="1.84467" stroke-linecap="round" stroke-linejoin="round"/>
<path d="M86.0129 80.8291L90.3172 85.1333L86.0129 89.4375" stroke="#2ABB7F" stroke-width="1.84467" stroke-linecap="round" stroke-linejoin="round"/>
<path d="M75.1425 72.209L88.0552 72.209" stroke="#2ABB7F" stroke-width="1.84467" stroke-linecap="round" stroke-linejoin="round"/>
<path d="M79.438 67.9013L75.1338 72.2055L79.438 76.5098" stroke="#2ABB7F" stroke-width="1.84467" stroke-linecap="round" stroke-linejoin="round"/>
<rect x="27" y="48.5527" width="42.9512" height="63.4652" rx="3.84638" fill="#2E2E30"/>
<mask id="mask1_6151_210103" style="mask-type:alpha" maskUnits="userSpaceOnUse" x="27" y="48" width="43" height="65">
<rect x="27" y="48.5469" width="42.9512" height="63.4652" rx="3.84638" fill="#2E2E30"/>
</mask>
<g mask="url(#mask1_6151_210103)">
<path opacity="0.3" d="M78.2306 92.8654C77.3199 98.9594 78.215 107.332 75.3009 109.466C74.0642 110.372 69.068 108.006 68.0282 107.529C57.0093 102.469 65.0761 99.7735 66.3734 91.0933C67.6707 82.4131 63.8035 73.8695 67.0778 74.3588C70.3521 74.8482 79.5279 84.1852 78.2306 92.8654Z" fill="url(#paint4_linear_6151_210103)"/>
<path opacity="0.1" d="M33.6165 90.6872C33.4632 96.9692 32.1987 104.809 29.5695 107.337C28.4538 108.41 26.0686 106.383 25.0825 106.359C21.7728 106.278 21.4128 99.3427 21.6311 90.3948C21.8494 81.447 24.7094 74.2588 28.0191 74.3396C31.3287 74.4203 33.8348 81.7394 33.6165 90.6872Z" fill="url(#paint5_linear_6151_210103)"/>
<path opacity="0.3" d="M46.2318 52.2834C38.5728 52.845 29.9423 52.9095 24.7561 51.7481C23.3666 51.1785 26.5604 49.3104 26.5161 48.7057C26.3673 46.6758 34.7835 45.7326 45.6928 44.9327C56.6022 44.1328 65.5667 45.1299 65.7155 47.1597C65.8644 49.1895 57.1412 51.4835 46.2318 52.2834Z" fill="url(#paint6_linear_6151_210103)"/>
<path opacity="0.3" d="M24.377 71.9738C24.6027 64.2975 21.8039 54.8708 23.4742 51.7514C23.4744 51.7535 29.885 52.3946 30.8466 52.7151C32.881 52.7749 32.0658 61.2565 31.7442 72.1904C31.4227 83.1244 29.5128 91.9396 27.4784 91.8798C25.444 91.82 24.0554 82.9077 24.377 71.9738Z" fill="url(#paint7_linear_6151_210103)"/>
</g>
<rect x="29.5642" y="51.1133" width="37.8227" height="56.4136" rx="1.28213" fill="#101010"/>
<rect x="29.5963" y="51.1453" width="37.7586" height="56.3494" rx="1.25007" stroke="white" stroke-opacity="0.5" stroke-width="0.0641063"/>
<rect x="33.5647" y="54.6543" width="29.9903" height="42.6528" fill="#D2DFFE"/>
<path d="M48.3069 83.192C52.0051 83.192 54.5541 81.8365 54.5541 76.6644C54.5541 71.4897 52.0051 70.1367 48.3069 70.1367C44.6087 70.1367 42.0588 71.4897 42.0588 76.6644C42.0588 81.8365 44.6087 83.192 48.3069 83.192Z" fill="#3B7EFF"/>
<path d="M51.1023 74.4711L47.8293 71.1758V75.5487L46.0298 73.7079L45.3755 74.3676L47.6344 76.6495L45.3755 78.9319L46.0295 79.5917L47.8293 77.7776V82.1231L51.1017 78.8275L48.9412 76.6491L51.1023 74.4711ZM48.7845 73.3098L49.7946 74.3591L48.7845 75.4153V73.3098ZM49.7946 78.817L48.7845 79.8732V77.7678L49.7946 78.817Z" fill="white"/>
<path d="M55.5716 105.174C55.532 105.174 55.4908 105.173 55.4481 105.171C55.4053 105.17 55.3634 105.168 55.3222 105.167V104.644C55.3459 104.647 55.3737 104.649 55.4053 104.649C55.4386 104.65 55.4711 104.651 55.5027 104.651C55.6263 104.651 55.7244 104.627 55.7973 104.578C55.8701 104.528 55.9184 104.453 55.9422 104.352L55.9659 104.252L55.0466 101.637H55.8092L56.4339 103.893L56.2748 103.618H56.4814L56.3294 103.893L56.9542 101.637H57.6858L56.795 104.25C56.719 104.479 56.6263 104.662 56.5171 104.796C56.4094 104.932 56.2787 105.029 56.1251 105.086C55.9715 105.145 55.787 105.174 55.5716 105.174Z" fill="white"/>
<path d="M53.5551 104.313C53.2906 104.313 53.0626 104.258 52.871 104.149C52.6809 104.038 52.5344 103.881 52.4315 103.679C52.3286 103.476 52.2771 103.235 52.2771 102.954V102.952C52.2771 102.675 52.3278 102.434 52.4291 102.23C52.5321 102.025 52.677 101.867 52.8638 101.755C53.0523 101.642 53.2732 101.586 53.5266 101.586C53.7816 101.586 54.0017 101.641 54.187 101.75C54.3723 101.859 54.5148 102.012 54.6146 102.208C54.7144 102.405 54.7642 102.635 54.7642 102.9V103.116H52.6239V102.681H54.4317L54.1062 103.092V102.814C54.1062 102.657 54.0817 102.527 54.0326 102.422C53.9851 102.318 53.9186 102.239 53.833 102.187C53.7491 102.133 53.6509 102.106 53.5385 102.106C53.4276 102.106 53.3287 102.134 53.2416 102.189C53.156 102.243 53.0879 102.323 53.0373 102.429C52.9882 102.534 52.9636 102.662 52.9636 102.814V103.094C52.9636 103.242 52.9882 103.368 53.0373 103.472C53.0864 103.577 53.156 103.657 53.2463 103.712C53.3366 103.767 53.4443 103.795 53.5694 103.795C53.6707 103.795 53.757 103.78 53.8283 103.75C53.8996 103.72 53.9566 103.685 53.9993 103.645C54.0437 103.604 54.0738 103.567 54.0896 103.534L54.0967 103.52H54.7429L54.7381 103.543C54.7175 103.626 54.6803 103.712 54.6265 103.802C54.5726 103.891 54.4982 103.974 54.4032 104.052C54.3097 104.129 54.1925 104.193 54.0516 104.242C53.9122 104.289 53.7467 104.313 53.5551 104.313Z" fill="white"/>
<path d="M49.6592 104.254V100.639H50.3528V104.254H49.6592ZM51.3054 104.254L50.5025 103.119L51.0203 102.703L52.1249 104.254H51.3054ZM50.3053 103.428L50.2816 102.672H50.3956L51.2698 101.639H52.0561L50.98 102.827L50.6094 103.104L50.3053 103.428Z" fill="white"/>
<path d="M47.8591 104.313C47.5946 104.313 47.3666 104.258 47.1749 104.149C46.9849 104.038 46.8384 103.881 46.7355 103.679C46.6325 103.476 46.5811 103.235 46.5811 102.954V102.952C46.5811 102.675 46.6317 102.434 46.7331 102.23C46.836 102.025 46.9809 101.867 47.1678 101.755C47.3563 101.642 47.5772 101.586 47.8306 101.586C48.0855 101.586 48.3057 101.641 48.491 101.75C48.6762 101.859 48.8188 102.012 48.9185 102.208C49.0183 102.405 49.0682 102.635 49.0682 102.9V103.116H46.9279V102.681H48.7356L48.4102 103.092V102.814C48.4102 102.657 48.3856 102.527 48.3365 102.422C48.289 102.318 48.2225 102.239 48.137 102.187C48.0531 102.133 47.9549 102.106 47.8424 102.106C47.7316 102.106 47.6326 102.134 47.5455 102.189C47.46 102.243 47.3919 102.323 47.3412 102.429C47.2921 102.534 47.2676 102.662 47.2676 102.814V103.094C47.2676 103.242 47.2921 103.368 47.3412 103.472C47.3903 103.577 47.46 103.657 47.5503 103.712C47.6405 103.767 47.7482 103.795 47.8733 103.795C47.9747 103.795 48.061 103.78 48.1323 103.75C48.2035 103.72 48.2605 103.685 48.3033 103.645C48.3476 103.604 48.3777 103.567 48.3936 103.534L48.4007 103.52H49.0468L49.0421 103.543C49.0215 103.626 48.9843 103.712 48.9304 103.802C48.8766 103.891 48.8021 103.974 48.7071 104.052C48.6137 104.129 48.4965 104.193 48.3555 104.242C48.2162 104.289 48.0507 104.313 47.8591 104.313Z" fill="white"/>
<path d="M43.6543 104.258V101.643H44.3479V102.047H44.3907C44.4509 101.904 44.5443 101.792 44.671 101.709C44.7977 101.627 44.9545 101.586 45.1414 101.586C45.4328 101.586 45.6545 101.671 45.8065 101.842C45.9601 102.012 46.0369 102.253 46.0369 102.567V104.258H45.3433V102.724C45.3433 102.539 45.3045 102.398 45.2269 102.303C45.1493 102.208 45.0281 102.161 44.8634 102.161C44.7573 102.161 44.6655 102.185 44.5879 102.234C44.5119 102.282 44.4525 102.349 44.4097 102.436C44.3685 102.523 44.3479 102.626 44.3479 102.745V104.258H43.6543Z" fill="white"/>
<path d="M41.3927 104.344C41.0538 104.344 40.7608 104.271 40.5137 104.125C40.2667 103.978 40.0759 103.77 39.9412 103.501C39.8082 103.231 39.7417 102.912 39.7417 102.543V102.538C39.7417 102.168 39.809 101.849 39.9436 101.581C40.0798 101.312 40.2714 101.104 40.5185 100.959C40.7655 100.813 41.0569 100.74 41.3927 100.74C41.73 100.74 42.0214 100.813 42.2668 100.959C42.5139 101.104 42.7047 101.312 42.8393 101.581C42.974 101.85 43.0413 102.169 43.0413 102.538V102.543C43.0413 102.912 42.974 103.231 42.8393 103.501C42.7063 103.77 42.5163 103.978 42.2692 104.125C42.0222 104.271 41.73 104.344 41.3927 104.344ZM41.3927 103.736C41.578 103.736 41.7395 103.687 41.8773 103.588C42.015 103.49 42.1212 103.352 42.1956 103.173C42.2716 102.994 42.3096 102.784 42.3096 102.543V102.538C42.3096 102.296 42.2716 102.086 42.1956 101.909C42.1212 101.73 42.015 101.592 41.8773 101.496C41.7395 101.397 41.578 101.348 41.3927 101.348C41.2074 101.348 41.0458 101.397 40.9081 101.496C40.7703 101.592 40.6634 101.73 40.5874 101.909C40.5114 102.086 40.4734 102.296 40.4734 102.538V102.543C40.4734 102.784 40.5106 102.994 40.585 103.173C40.661 103.352 40.7671 103.49 40.9033 103.588C41.0411 103.687 41.2042 103.736 41.3927 103.736Z" fill="white"/>
</g>
<defs>
<linearGradient id="paint0_linear_6151_210103" x1="112.604" y1="79.3423" x2="122.422" y2="82.1173" gradientUnits="userSpaceOnUse">
<stop stop-color="white"/>
<stop offset="1" stop-color="white"/>
</linearGradient>
<linearGradient id="paint1_linear_6151_210103" x1="120.764" y1="79.1505" x2="113.659" y2="72.0516" gradientUnits="userSpaceOnUse">
<stop stop-color="#8697FF"/>
<stop offset="1" stop-color="#8697FF" stop-opacity="0"/>
</linearGradient>
<linearGradient id="paint2_linear_6151_210103" x1="117.11" y1="83.1367" x2="110.295" y2="79.2308" gradientUnits="userSpaceOnUse">
<stop stop-color="#8697FF"/>
<stop offset="1" stop-color="#8697FF" stop-opacity="0"/>
</linearGradient>
<linearGradient id="paint3_linear_6151_210103" x1="113.189" y1="79.2708" x2="117.806" y2="85.1173" gradientUnits="userSpaceOnUse">
<stop stop-color="white"/>
<stop offset="0.983895" stop-color="#D1D8FF"/>
</linearGradient>
<linearGradient id="paint4_linear_6151_210103" x1="74.257" y1="76.4894" x2="71.029" y2="111.24" gradientUnits="userSpaceOnUse">
<stop stop-color="white" stop-opacity="0"/>
<stop offset="1" stop-color="white"/>
</linearGradient>
<linearGradient id="paint5_linear_6151_210103" x1="27.6556" y1="74.6197" x2="28.8099" y2="110.191" gradientUnits="userSpaceOnUse">
<stop stop-color="white" stop-opacity="0"/>
<stop offset="1" stop-color="white"/>
</linearGradient>
<linearGradient id="paint6_linear_6151_210103" x1="65.5465" y1="46.9519" x2="23.0017" y2="54.9495" gradientUnits="userSpaceOnUse">
<stop stop-color="white" stop-opacity="0"/>
<stop offset="1" stop-color="white"/>
</linearGradient>
<linearGradient id="paint7_linear_6151_210103" x1="27.708" y1="91.5354" x2="24.1095" y2="48.3953" gradientUnits="userSpaceOnUse">
<stop stop-color="white" stop-opacity="0"/>
<stop offset="1" stop-color="white"/>
</linearGradient>
</defs>
</svg>
