<svg width="160" height="160" viewBox="0 0 160 160" fill="none" xmlns="http://www.w3.org/2000/svg">
<circle cx="80" cy="80" r="70.5" fill="#F2F4F7" stroke="#2ABB7F" stroke-dasharray="2 2"/>
<mask id="mask0_6190_31804" style="mask-type:alpha" maskUnits="userSpaceOnUse" x="10" y="10" width="140" height="140">
<circle cx="80" cy="80" r="70" fill="#F2F4F7"/>
</mask>
<g mask="url(#mask0_6190_31804)">
<path d="M93.6462 103.078C96.2936 103.078 98.5117 105.16 98.5117 107.798V167.278C98.5117 169.847 96.3651 171.998 93.6462 171.998H67.4583C64.8109 171.998 62.5928 169.916 62.5928 167.278V107.798C62.5928 105.23 64.7393 103.078 67.4583 103.078H93.6462Z" fill="#5B7896"/>
<path d="M96.0841 108.195V166.504C96.0841 167.524 95.4354 168.341 94.4264 168.613C94.2102 168.681 93.9939 168.681 93.7056 168.681H67.3269C67.1827 168.681 67.0386 168.681 66.9665 168.681C65.8133 168.477 65.0205 167.593 65.0205 166.504V108.399C65.0205 107.242 65.8133 106.358 66.9665 106.222C67.1106 106.222 67.1827 106.222 67.3269 106.222H71.2188C71.7234 106.222 72.0837 106.562 72.0837 107.038C72.0837 107.991 72.9485 108.807 73.9576 108.807H87.3632C88.3723 108.807 89.2371 107.991 89.2371 107.038C89.2371 106.562 89.5975 106.222 90.102 106.222H93.7778L93.7213 106.231C93.9375 106.231 94.2258 106.231 94.4421 106.299C95.3069 106.571 96.0841 107.174 96.0841 108.195Z" fill="#D2DFFE"/>
<rect x="69.5732" y="118.312" width="22.0623" height="22.0623" rx="11.0311" fill="#7084FF"/>
<path d="M87.7992 130.257C88.3701 128.977 85.5481 125.403 82.8523 123.913C81.1529 122.76 79.3823 122.918 79.0237 123.425C78.2366 124.536 81.6297 125.478 83.8989 126.578C83.4111 126.79 82.9514 127.172 82.6811 127.659C81.8351 126.733 79.9783 125.935 77.7996 126.578C76.3313 127.011 75.1111 128.032 74.6395 129.574C74.5249 129.523 74.398 129.495 74.2646 129.495C73.7541 129.495 73.3403 129.91 73.3403 130.422C73.3403 130.934 73.7541 131.35 74.2646 131.35C74.3592 131.35 74.655 131.286 74.655 131.286L79.3823 131.32C77.4917 134.33 75.9977 134.77 75.9977 135.291C75.9977 135.812 77.4272 135.671 77.964 135.477C80.5335 134.546 83.2934 131.647 83.7669 130.812C85.7557 131.061 87.4271 131.091 87.7992 130.257Z" fill="url(#paint0_linear_6190_31804)"/>
<path fill-rule="evenodd" clip-rule="evenodd" d="M83.8983 126.577C83.8985 126.577 83.8988 126.577 83.899 126.578C84.0042 126.536 83.9872 126.38 83.9583 126.258C83.8919 125.976 82.7465 124.842 81.671 124.333C80.2056 123.641 79.1264 123.676 78.9668 123.996C79.2648 124.61 80.6492 125.186 82.095 125.788C82.7114 126.045 83.339 126.306 83.8983 126.577Z" fill="url(#paint1_linear_6190_31804)"/>
<path fill-rule="evenodd" clip-rule="evenodd" d="M82.0385 132.757C81.7423 132.643 81.4076 132.539 81.0272 132.444C81.4331 131.716 81.5183 130.637 81.135 129.955C80.597 128.998 79.9218 128.488 78.3526 128.488C77.4896 128.488 75.1659 128.78 75.1247 130.726C75.1203 130.93 75.1245 131.117 75.1392 131.289L79.3822 131.32C78.81 132.231 78.2742 132.906 77.805 133.42C78.3685 133.565 78.8334 133.686 79.2602 133.798C79.6648 133.904 80.0351 134.001 80.4227 134.1C81.0078 133.672 81.5578 133.206 82.0385 132.757Z" fill="url(#paint2_linear_6190_31804)"/>
<path d="M74.5831 131.09C74.7564 132.568 75.5939 133.148 77.3051 133.319C79.0163 133.491 79.9979 133.376 81.3047 133.495C82.3962 133.595 83.3707 134.153 83.7322 133.96C84.0576 133.786 83.8756 133.159 83.4402 132.757C82.8758 132.235 82.0948 131.873 80.7204 131.744C80.9943 130.992 80.9176 129.937 80.4922 129.363C79.8772 128.533 78.7419 128.158 77.3051 128.321C75.8039 128.493 74.3655 129.234 74.5831 131.09Z" fill="url(#paint3_linear_6190_31804)"/>
<path d="M83.8759 107.649H78.7998C78.2819 107.649 78.0747 107.13 78.0747 106.922C78.0747 106.404 78.5926 106.196 78.7998 106.196H83.8759C84.2903 106.196 84.601 106.715 84.601 106.922C84.601 107.441 84.2903 107.649 83.8759 107.649Z" fill="#4E6781"/>
<path d="M75.8815 107.649H75.6743C75.1564 107.649 74.9492 107.13 74.9492 106.922C74.9492 106.404 75.4671 106.196 75.6743 106.196H75.8815C76.3995 106.196 76.6067 106.715 76.6067 106.922C76.6067 107.441 76.296 107.649 75.8815 107.649Z" fill="#4E6781"/>
<path d="M87.1699 81.2561L87.1699 94.4766" stroke="#2ABB7F" stroke-width="1.88864" stroke-linecap="round" stroke-linejoin="round"/>
<path d="M82.7606 85.6631L87.1674 81.2563L91.5742 85.6631" stroke="#2ABB7F" stroke-width="1.88864" stroke-linecap="round" stroke-linejoin="round"/>
<path d="M73.9399 96.8045L73.9399 83.584" stroke="#2ABB7F" stroke-width="1.88864" stroke-linecap="round" stroke-linejoin="round"/>
<path d="M69.5306 92.4053L73.9374 96.8121L78.3442 92.4053" stroke="#2ABB7F" stroke-width="1.88864" stroke-linecap="round" stroke-linejoin="round"/>
<path d="M39 33.4096C39 30.9316 41.0088 28.9229 43.4867 28.9229H113.592C119.167 28.9229 123.687 33.4426 123.687 39.018C123.687 44.5934 119.167 49.1131 113.592 49.1131H43.4867C41.0088 49.1131 39 47.1044 39 44.6264V33.4096Z" fill="#242225"/>
<path d="M76.4919 44.3569C79.7737 44.3569 82.0357 43.154 82.0357 38.5642C82.0357 33.9721 79.7737 32.7715 76.4919 32.7715C73.2101 32.7715 70.9473 33.9721 70.9473 38.5642C70.9473 43.154 73.2101 44.3569 76.4919 44.3569Z" fill="#3B7EFF"/>
<path d="M78.9722 36.6148L76.0676 33.6904V37.571L74.4708 35.9374L73.8901 36.5229L75.8947 38.5478L73.8901 40.5733L74.4705 41.1588L76.0676 39.549V43.4052L78.9716 40.4806L77.0544 38.5476L78.9722 36.6148ZM76.9153 35.5842L77.8117 36.5153L76.9153 37.4526V35.5842ZM77.8117 40.4713L76.9153 41.4086V39.5402L77.8117 40.4713Z" fill="white"/>
<path d="M48.1777 74.9614C46.8259 72.8847 47.4135 70.1053 49.4902 68.7534L108.244 30.5074C112.916 27.4658 119.17 28.7879 122.212 33.4605C125.253 38.1331 123.931 44.3868 119.259 47.4284L60.5051 85.6744C58.4283 87.0263 55.6489 86.4387 54.2971 84.362L48.1777 74.9614Z" fill="#BCBAC2"/>
<circle opacity="0.5" cx="49.0942" cy="39.0234" r="5.32799" stroke="#BCBAC2" stroke-width="0.560841"/>
<circle opacity="0.5" cx="113.591" cy="39.0234" r="5.32799" stroke="#242225" stroke-width="0.560841"/>
</g>
<defs>
<linearGradient id="paint0_linear_6190_31804" x1="77.6286" y1="129.124" x2="87.6813" y2="131.965" gradientUnits="userSpaceOnUse">
<stop stop-color="white"/>
<stop offset="1" stop-color="white"/>
</linearGradient>
<linearGradient id="paint1_linear_6190_31804" x1="85.9843" y1="128.932" x2="78.71" y2="121.664" gradientUnits="userSpaceOnUse">
<stop stop-color="#8697FF"/>
<stop offset="1" stop-color="#8697FF" stop-opacity="0"/>
</linearGradient>
<linearGradient id="paint2_linear_6190_31804" x1="82.2402" y1="133.011" x2="75.2646" y2="129.014" gradientUnits="userSpaceOnUse">
<stop stop-color="#8697FF"/>
<stop offset="1" stop-color="#8697FF" stop-opacity="0"/>
</linearGradient>
<linearGradient id="paint3_linear_6190_31804" x1="78.2286" y1="129.049" x2="82.9556" y2="135.035" gradientUnits="userSpaceOnUse">
<stop stop-color="white"/>
<stop offset="0.983895" stop-color="#D1D8FF"/>
</linearGradient>
</defs>
</svg>
