<svg width="25" height="24" viewBox="0 0 25 24" fill="none" xmlns="http://www.w3.org/2000/svg">
<path d="M12.5001 21.3334C15.0774 21.3334 17.4107 20.2887 19.0997 18.5997C20.7887 16.9107 21.8334 14.5774 21.8334 12.0001C21.8334 9.42278 20.7887 7.08944 19.0997 5.40042C17.4107 3.71142 15.0774 2.66675 12.5001 2.66675C9.92278 2.66675 7.58944 3.71142 5.90042 5.40042C4.21142 7.08944 3.16675 9.42278 3.16675 12.0001C3.16675 14.5774 4.21142 16.9107 5.90042 18.5997C7.58944 20.2887 9.92278 21.3334 12.5001 21.3334Z" stroke="#FF564B" stroke-width="2.66667" stroke-linecap="round" stroke-linejoin="round"/>
<path d="M12.5 13.7732C12.0627 13.7732 11.6996 13.4354 11.6681 12.9993L11.3324 8.35892L11.3123 7.90846C11.2822 7.2318 11.8226 6.66675 12.5 6.66675C13.1773 6.66675 13.7177 7.2318 13.6876 7.90846L13.6676 8.35892L13.3318 12.9993C13.3003 13.4354 12.9372 13.7732 12.5 13.7732ZM12.5075 18.0001C11.7241 18.0001 11.1666 17.4143 11.1666 16.5911C11.1666 15.7679 11.7391 15.198 12.5075 15.198C13.2608 15.198 13.8333 15.7679 13.8333 16.5911C13.8333 17.4143 13.2608 18.0001 12.5075 18.0001Z" fill="#FF453A"/>
</svg>
