<svg width="70" height="70" viewBox="0 0 70 70" fill="none" xmlns="http://www.w3.org/2000/svg">
<rect width="70" height="70" rx="35" fill="#7084FF"/>
<path d="M57.8304 37.897C59.6415 33.8375 50.688 22.4957 42.1344 17.7705C36.7427 14.11 31.1247 14.6129 29.9868 16.2201C27.4898 19.7474 38.2554 22.7363 45.4552 26.224C43.9075 26.8985 42.4491 28.1088 41.5914 29.6567C38.9072 26.7165 33.0159 24.1844 26.103 26.224C21.4445 27.5984 17.573 30.8387 16.0767 35.7327C15.7131 35.5706 15.3105 35.4805 14.887 35.4805C13.2675 35.4805 11.9546 36.7978 11.9546 38.4228C11.9546 40.0478 13.2675 41.3651 14.887 41.3651C15.1872 41.3651 16.1258 41.1631 16.1258 41.1631L31.1247 41.2722C25.1263 50.82 20.3859 52.2158 20.3859 53.8699C20.3859 55.524 24.9216 55.0758 26.6247 54.4592C34.7775 51.5076 43.5339 42.3087 45.0365 39.6606C51.3465 40.4505 56.6495 40.544 57.8304 37.897Z" fill="url(#paint0_linear_21679_82614)"/>
<path fill-rule="evenodd" clip-rule="evenodd" d="M45.4547 26.2246C45.4551 26.2248 45.4555 26.2249 45.4558 26.2251C45.7895 26.0932 45.7355 25.5986 45.6439 25.2103C45.4333 24.3176 41.7993 20.717 38.3867 19.1043C33.7368 16.9068 30.3127 17.02 29.8066 18.0328C30.7537 19.9807 35.145 21.8096 39.7314 23.7197C41.688 24.5346 43.6802 25.3642 45.4555 26.2243C45.4552 26.2244 45.455 26.2245 45.4547 26.2246Z" fill="url(#paint1_linear_21679_82614)"/>
<path fill-rule="evenodd" clip-rule="evenodd" d="M39.5537 45.8293C38.6134 45.4687 37.5511 45.1379 36.3434 44.8377C37.6311 42.5257 37.9013 39.1031 36.6852 36.9391C34.9784 33.9022 32.8359 32.2858 27.8572 32.2858C25.119 32.2858 17.7464 33.2112 17.6155 39.3864C17.6017 40.0343 17.6151 40.6281 17.6619 41.1742L31.1249 41.2721C29.3098 44.1612 27.61 46.3039 26.1218 47.9331C27.9085 48.3925 29.383 48.7782 30.7367 49.1323C32.0212 49.4683 33.1969 49.7758 34.4274 50.0908C36.2837 48.7339 38.0288 47.2542 39.5537 45.8293Z" fill="url(#paint2_linear_21679_82614)"/>
<path d="M15.8973 40.5399C16.4473 45.2309 19.1043 47.0693 24.5338 47.6134C29.9632 48.1575 33.0776 47.7925 37.224 48.171C40.6869 48.4871 43.779 50.2578 44.9261 49.6459C45.9584 49.0952 45.3809 47.1057 43.9995 45.8292C42.2089 44.1746 39.7307 43.0243 35.3702 42.616C36.2392 40.2286 35.9957 36.8813 34.646 35.0601C32.6946 32.4268 29.0926 31.2363 24.5338 31.7564C19.7709 32.2999 15.2071 34.6527 15.8973 40.5399Z" fill="url(#paint3_linear_21679_82614)"/>
<defs>
<linearGradient id="paint0_linear_21679_82614" x1="25.5606" y1="34.3021" x2="57.4563" y2="43.3167" gradientUnits="userSpaceOnUse">
<stop stop-color="white"/>
<stop offset="1" stop-color="white"/>
</linearGradient>
<linearGradient id="paint1_linear_21679_82614" x1="52.0722" y1="33.6941" x2="28.9919" y2="10.6351" gradientUnits="userSpaceOnUse">
<stop stop-color="#8697FF"/>
<stop offset="1" stop-color="#8697FF" stop-opacity="0"/>
</linearGradient>
<linearGradient id="paint2_linear_21679_82614" x1="40.1937" y1="46.6353" x2="18.0602" y2="33.9528" gradientUnits="userSpaceOnUse">
<stop stop-color="#8697FF"/>
<stop offset="1" stop-color="#8697FF" stop-opacity="0"/>
</linearGradient>
<linearGradient id="paint3_linear_21679_82614" x1="27.4641" y1="34.0636" x2="42.4619" y2="53.0559" gradientUnits="userSpaceOnUse">
<stop stop-color="white"/>
<stop offset="0.983895" stop-color="#D1D8FF"/>
</linearGradient>
</defs>
</svg>
