<svg width="18" height="18" viewBox="0 0 18 18" fill="none" xmlns="http://www.w3.org/2000/svg">
<g id="help">
<path id="Subtract" fill-rule="evenodd" clip-rule="evenodd" d="M14.0919 14.0919C12.7889 15.3948 10.9889 16.2007 9.00074 16.2007C7.01255 16.2007 5.21256 15.3948 3.9096 14.0919C2.60667 12.7889 1.80078 10.9889 1.80078 9.00074C1.80078 7.01255 2.60667 5.21256 3.9096 3.9096C5.21256 2.60667 7.01255 1.80078 9.00074 1.80078C10.9889 1.80078 12.7889 2.60667 14.0919 3.9096C15.3948 5.21256 16.2007 7.01255 16.2007 9.00074C16.2007 10.9889 15.3948 12.7889 14.0919 14.0919ZM10.1314 5.42606C10.1314 4.91569 9.71768 4.50195 9.20731 4.50195C8.69694 4.50195 8.2832 4.91569 8.2832 5.42606C8.2832 5.93643 8.69694 6.35017 9.20731 6.35017C9.71768 6.35017 10.1314 5.93643 10.1314 5.42606ZM8.65603 7.27539C8.3498 7.27539 8.10156 7.52363 8.10156 7.82985C8.10156 8.13608 8.3498 8.38432 8.65603 8.38432H8.84085V12.4492H8.10134C7.79512 12.4492 7.54688 12.6975 7.54688 13.0037C7.54688 13.3099 7.79512 13.5581 8.10134 13.5581H9.35897C9.37098 13.5589 9.3831 13.5593 9.39531 13.5593C9.40752 13.5593 9.41964 13.5589 9.43166 13.5581H10.6888C10.9951 13.5581 11.2433 13.3099 11.2433 13.0037C11.2433 12.6975 10.9951 12.4492 10.6888 12.4492H9.94978V7.82985C9.94978 7.52363 9.70153 7.27539 9.39531 7.27539H8.65603Z" fill="currentColor"/>
</g>
</svg>
