<svg width="26" height="26" viewBox="0 0 26 26" fill="none" xmlns="http://www.w3.org/2000/svg">
<path d="M19.998 9.56752V5.9961C19.998 3.78696 18.2072 1.99609 15.998 1.99609H7.99805C5.78891 1.99609 3.99805 3.78695 3.99805 5.99609V18.5C3.99805 20.7091 5.78891 22.5 7.99805 22.5H11.5" stroke="currentColor" stroke-width="2" stroke-linecap="round" stroke-linejoin="round"/>
<path d="M13 13H8" stroke="currentColor" stroke-width="2" stroke-linecap="round"/>
<path d="M17 8H8" stroke="currentColor" stroke-width="2" stroke-linecap="round"/>
<path d="M18.9992 23.7992C21.6502 23.7992 23.7992 21.6502 23.7992 18.9992C23.7992 16.3483 21.6502 14.1992 18.9992 14.1992C16.3483 14.1992 14.1992 16.3483 14.1992 18.9992C14.1992 21.6502 16.3483 23.7992 18.9992 23.7992Z" stroke="currentColor" stroke-width="2"/>
<path d="M18.1426 17.2852V19.8566H20.714" stroke="currentColor" stroke-width="2" stroke-linecap="round" stroke-linejoin="round"/>
</svg>
