<svg xmlns="http://www.w3.org/2000/svg" width="16" height="16" viewBox="0 0 16 16" fill="none">
  <path
    d="M14.4629 8.06299C14.4636 11.593 11.5925 14.4634 8.06348 14.4634C4.53383 14.4632 1.66309 11.5923 1.66309 8.06299C1.66334 4.53384 4.53475 1.66375 8.06348 1.66357H8.06543C8.27568 1.66704 8.47656 1.75293 8.62402 1.90283C8.77145 2.05273 8.85352 2.25509 8.85352 2.46533C8.8534 2.6754 8.77132 2.87707 8.62402 3.02686C8.47656 3.17675 8.27568 3.26265 8.06543 3.26611H8.06348C5.41851 3.26629 3.26588 5.41834 3.26562 8.06299C3.26562 10.7078 5.41907 12.8597 8.06348 12.8599C10.7079 12.8599 12.8603 10.7079 12.8604 8.06299V8.06104C12.8638 7.85079 12.9497 7.64989 13.0996 7.50244C13.2495 7.35513 13.4519 7.27295 13.6621 7.27295C13.8721 7.27307 14.0739 7.35525 14.2236 7.50244C14.3735 7.64989 14.4594 7.85079 14.4629 8.06104V8.06299Z"
    fill="currentColor" stroke="currentColor" stroke-width="0.228571" />
</svg>
