<svg xmlns="http://www.w3.org/2000/svg" width="16" height="16" viewBox="0 0 16 16" fill="none">
  <path d="M5.39648 7.36693L7.55102 9.46087L12.254 4.88916" stroke="currentColor" stroke-width="1.71439"
    stroke-linecap="round" stroke-linejoin="round" />
  <path
    d="M8.00195 0.84375C8.21752 0.847342 8.42303 0.936157 8.57422 1.08984C8.72538 1.24356 8.81055 1.45043 8.81055 1.66602C8.81054 1.8816 8.72539 2.08848 8.57422 2.24219C8.42303 2.39587 8.21751 2.48371 8.00195 2.4873H8.00098C4.96139 2.48735 2.48834 4.96074 2.48828 8C2.48828 11.0393 4.96218 13.5117 8.00098 13.5117C11.0398 13.5117 13.5127 11.0384 13.5127 7.99902L13.5176 7.91797C13.539 7.73242 13.6236 7.55893 13.7578 7.42676C13.9115 7.27564 14.1185 7.19053 14.334 7.19043C14.5496 7.19043 14.7574 7.27555 14.9111 7.42676C15.0646 7.57793 15.1527 7.7836 15.1562 7.99902L15.1465 8.36719C14.9553 12.1438 11.8235 15.1562 8.00098 15.1562C4.05432 15.1562 0.84375 11.9463 0.84375 8C0.843811 4.05378 4.05521 0.843796 8.00098 0.84375H8.00195Z"
    fill="currentColor" stroke="currentColor" stroke-width="0.0888943" />
</svg>
