<svg width="26" height="26" viewBox="0 0 26 26" fill="none" xmlns="http://www.w3.org/2000/svg">
  <rect width="26" height="26" rx="13" transform="matrix(-1 0 0 1 26 0)" fill="#E0E5EC" />
  <path
    d="M4.70813 18.04C5.62813 17.7467 6.52146 17.38 7.38813 16.94C8.25479 16.4867 9.02813 15.9467 9.70813 15.32C10.3881 14.68 10.9281 13.94 11.3281 13.1C11.7415 12.26 11.9481 11.2933 11.9481 10.2C11.9481 9.66667 11.8948 9.25333 11.7881 8.96C11.6815 8.66667 11.4948 8.52 11.2281 8.52C10.9881 8.52 10.7615 8.63333 10.5481 8.86C10.3481 9.08667 10.1615 9.37333 9.98813 9.72C9.82813 10.0667 9.67479 10.4533 9.52813 10.88C9.39479 11.3067 9.28146 11.72 9.18813 12.12H5.56813L6.22813 9.12C6.97479 8.48 7.76146 7.98667 8.58813 7.64C9.41479 7.28 10.3481 7.1 11.3881 7.1C12.0281 7.1 12.6281 7.17333 13.1881 7.32C13.7615 7.46667 14.2548 7.7 14.6681 8.02C15.0948 8.32667 15.4281 8.72 15.6681 9.2C15.9215 9.66667 16.0481 10.2267 16.0481 10.88C16.0481 11.3733 15.9615 11.86 15.7881 12.34C15.6281 12.82 15.3348 13.32 14.9081 13.84C14.4948 14.3467 13.9281 14.88 13.2081 15.44C12.5015 15.9867 11.6015 16.58 10.5081 17.22H14.9681L14.5681 20H4.26812L4.70813 18.04ZM20.2436 18.24C20.2436 18.5467 20.1769 18.82 20.0436 19.06C19.9236 19.3 19.7569 19.5 19.5436 19.66C19.3436 19.82 19.1103 19.94 18.8436 20.02C18.5769 20.1133 18.2969 20.16 18.0036 20.16C17.4969 20.16 17.0636 20.0267 16.7036 19.76C16.3569 19.48 16.1836 19.0467 16.1836 18.46C16.1836 18.1533 16.2436 17.88 16.3636 17.64C16.4836 17.4 16.6436 17.2 16.8436 17.04C17.0436 16.88 17.2703 16.76 17.5236 16.68C17.7903 16.5867 18.0636 16.54 18.3436 16.54C18.8903 16.54 19.3436 16.68 19.7036 16.96C20.0636 17.2267 20.2436 17.6533 20.2436 18.24Z"
    fill="#192945" />
</svg>
