<svg xmlns="http://www.w3.org/2000/svg" width="16" height="16" viewBox="0 0 16 16" fill="none">
  <path
    d="M7.99957 14.2223C9.71777 14.2223 11.2733 13.5258 12.3993 12.3998C13.5253 11.2738 14.2218 9.71826 14.2218 8.00005C14.2218 6.28185 13.5253 4.72629 12.3993 3.60028C11.2733 2.47428 9.71777 1.77783 7.99957 1.77783C6.28136 1.77783 4.72581 2.47428 3.59979 3.60028C2.47379 4.72629 1.77734 6.28185 1.77734 8.00005C1.77734 9.71826 2.47379 11.2738 3.59979 12.3998C4.72581 13.5258 6.28136 14.2223 7.99957 14.2223Z"
    stroke="#FF564B" stroke-width="1.77778" stroke-linecap="round" stroke-linejoin="round" />
  <path
    d="M8.00022 9.18195C7.70869 9.18195 7.46666 8.9568 7.44563 8.66604L7.22181 5.57245L7.20844 5.27214C7.18836 4.82104 7.54867 4.44434 8.00022 4.44434C8.45177 4.44434 8.81207 4.82104 8.79199 5.27214L8.77862 5.57245L8.55481 8.66604C8.53377 8.9568 8.29174 9.18195 8.00022 9.18195ZM8.00524 11.9999C7.48295 11.9999 7.11133 11.6094 7.11133 11.0606C7.11133 10.5118 7.493 10.1318 8.00524 10.1318C8.50744 10.1318 8.88911 10.5118 8.88911 11.0606C8.88911 11.6094 8.50744 11.9999 8.00524 11.9999Z"
    fill="currentColor" />
</svg>
