<svg xmlns="http://www.w3.org/2000/svg" width="18" height="18" viewBox="0 0 18 18" fill="none">
  <path d="M13.4019 3H4.59817C4.26781 3 4 3.22496 4 3.50246C4 5.10161 4.75626 6.63526 6.10241 7.76602L6.97326 8.49756C7.05974 8.57016 7.10298 8.60652 7.13393 8.64138C7.32277 8.85414 7.32277 9.14586 7.13393 9.35862C7.10298 9.39348 7.05974 9.42984 6.97326 9.50244L6.10241 10.234C4.75626 11.3647 4 12.8984 4 14.4976C4 14.7751 4.26781 15 4.59817 15H13.4019C13.7322 15 14 14.7751 14 14.4976C14 12.8984 13.2437 11.3647 11.8976 10.234L11.0267 9.50244C10.9403 9.42984 10.897 9.39348 10.8661 9.35862C10.6772 9.14586 10.6772 8.85414 10.8661 8.64138C10.897 8.60652 10.9403 8.57016 11.0267 8.49756L11.8976 7.76602C13.2437 6.63526 14 5.10161 14 3.50246C14 3.22496 13.7322 3 13.4019 3Z" stroke="currentColor" stroke-width="1.5" stroke-linecap="round" stroke-linejoin="round"/>
</svg>