<svg width="26" height="26" viewBox="0 0 26 26" fill="none" xmlns="http://www.w3.org/2000/svg">
  <rect width="26" height="26" rx="13" transform="matrix(-1 0 0 1 26 0)" fill="#2F3135" />
  <path
    d="M7.72125 9.36C8.54792 9.24 9.29458 8.99333 9.96125 8.62C10.6413 8.24667 11.1813 7.80667 11.5813 7.3H14.6413L11.9213 20H7.60125L9.58125 10.7H7.42125L7.72125 9.36ZM18.2905 18.24C18.2905 18.5467 18.2238 18.82 18.0905 19.06C17.9705 19.3 17.8038 19.5 17.5905 19.66C17.3905 19.82 17.1571 19.94 16.8905 20.02C16.6238 20.1133 16.3438 20.16 16.0505 20.16C15.5438 20.16 15.1105 20.0267 14.7505 19.76C14.4038 19.48 14.2305 19.0467 14.2305 18.46C14.2305 18.1533 14.2905 17.88 14.4105 17.64C14.5305 17.4 14.6905 17.2 14.8905 17.04C15.0905 16.88 15.3171 16.76 15.5705 16.68C15.8371 16.5867 16.1105 16.54 16.3905 16.54C16.9371 16.54 17.3905 16.68 17.7505 16.96C18.1105 17.2267 18.2905 17.6533 18.2905 18.24Z"
    fill="#F7FAFC" />
</svg>
