<svg xmlns="http://www.w3.org/2000/svg" viewBox="0 0 41 40" fill="none">
  <circle cx="20.5" cy="20" r="20" fill="currentColor"/>
  <path d="M21.0044 8.3457H20.5842C19.7439 8.3457 19.3237 8.8086 19.3237 9.73439V24.4313C19.3237 25.3571 19.7439 25.82 20.5842 25.82H21.0044C21.8447 25.82 22.2649 25.3571 22.2649 24.4313V9.73439C22.2649 8.8086 21.8447 8.3457 21.0044 8.3457Z" fill="white"/>
  <path d="M21.0044 28.583H20.5842C19.7439 28.583 19.3237 29.0458 19.3237 29.9716V30.5646C19.3237 31.4904 19.7439 31.9533 20.5842 31.9533H21.0044C21.8447 31.9533 22.2649 31.4904 22.2649 30.5646V29.9716C22.2649 29.0458 21.8447 28.583 21.0044 28.583Z" fill="white"/>
</svg>
