<svg width="40" height="40" viewBox="0 0 40 40" fill="none" xmlns="http://www.w3.org/2000/svg">
<path d="M32.4961 22.3437V5.9375C32.4961 5.07455 31.7966 4.375 30.9336 4.375H9.05859C8.19565 4.375 7.49609 5.07455 7.49609 5.9375V34.0625C7.49609 34.9255 8.19565 35.625 9.05859 35.625H17.6523" stroke="currentColor" stroke-width="1.875" stroke-linecap="round" stroke-linejoin="round"/>
<path d="M14.5273 10.625H25.4648" stroke="currentColor" stroke-width="1.875" stroke-linecap="round" stroke-linejoin="round"/>
<path d="M14.5273 16.875H25.4648" stroke="currentColor" stroke-width="1.875" stroke-linecap="round" stroke-linejoin="round"/>
<path d="M14.5273 23.125H19.2148" stroke="currentColor" stroke-width="1.875" stroke-linecap="round" stroke-linejoin="round"/>
<path d="M31.7187 35.625L29.0121 32.9184M29.0121 32.9184C29.7191 32.2115 30.1562 31.2349 30.1562 30.1562C30.1562 27.9989 28.4073 26.25 26.25 26.25C24.0927 26.25 22.3438 27.9989 22.3438 30.1562C22.3438 32.3136 24.0927 34.0625 26.25 34.0625C27.3287 34.0625 28.3052 33.6253 29.0121 32.9184Z" stroke="currentColor" stroke-width="1.875" stroke-linecap="round" stroke-linejoin="round"/>
</svg>
