<svg width="28" height="28" viewBox="0 0 28 28" fill="none" xmlns="http://www.w3.org/2000/svg">
<path d="M13.9984 26.5984C17.4778 26.5984 20.6278 25.1881 22.908 22.908C25.1881 20.6278 26.5984 17.4778 26.5984 13.9984C26.5984 10.5191 25.1881 7.36907 22.908 5.08889C20.6278 2.80874 17.4778 1.39844 13.9984 1.39844C10.5191 1.39844 7.36907 2.80874 5.08889 5.08889C2.80874 7.36907 1.39844 10.5191 1.39844 13.9984C1.39844 17.4778 2.80874 20.6278 5.08889 22.908C7.36907 25.1881 10.5191 26.5984 13.9984 26.5984Z" fill="#FF453A"/>
<path d="M20 20.0547L8 8.05469" stroke="white" stroke-width="2" stroke-miterlimit="10" stroke-linecap="round"/>
<path d="M8 20.0547L20 8.05469" stroke="white" stroke-width="2" stroke-miterlimit="10" stroke-linecap="round"/>
</svg>
