<svg xmlns="http://www.w3.org/2000/svg" width="28" height="28" viewBox="0 0 28 28" fill="none">
  <path
    d="M21.251 2.42188C23.2583 2.42208 24.8904 4.05421 24.8906 6.06152V16.9932C23.8037 15.4486 22.0083 14.4365 19.9805 14.4365C16.6725 14.4367 13.9814 17.1255 13.9814 20.4355C13.9815 22.697 15.238 24.6686 17.0889 25.6914H6.69043C4.68307 25.6913 3.05104 24.0591 3.05078 22.0518V6.06152C3.05097 4.05414 4.68302 2.42197 6.69043 2.42188H21.251ZM8.68164 11.8936C7.94221 11.8936 7.34186 12.494 7.3418 13.2334C7.3418 13.9729 7.94217 14.5732 8.68164 14.5732H11.291C12.0303 14.573 12.6318 13.9728 12.6318 13.2334C12.6318 12.4941 12.0303 11.8938 11.291 11.8936H8.68164ZM12.1152 13.0703C12.1257 13.1231 12.1318 13.1776 12.1318 13.2334H12.1309C12.1309 13.1776 12.1256 13.1231 12.1152 13.0703ZM8.68164 6.21191C7.94222 6.212 7.34188 6.81234 7.3418 7.55176C7.3418 8.29125 7.94217 8.89152 8.68164 8.8916H18.5479C19.2871 8.8912 19.8877 8.29105 19.8877 7.55176C19.8876 6.81253 19.287 6.21232 18.5479 6.21191H8.68164ZM18.6338 8.3877L18.5479 8.3916H18.5469C18.5775 8.3916 18.6079 8.38992 18.6377 8.38672C18.6364 8.38686 18.6351 8.38756 18.6338 8.3877Z"
    fill="#7084FF" />
  <path
    d="M22.562 21.7075C22.8638 21.7116 23.152 21.8352 23.3628 22.0513L26.0073 24.7671C26.2179 24.9836 26.3345 25.2756 26.3306 25.5776C26.3266 25.8793 26.2026 26.1666 25.9868 26.3774C25.7746 26.5857 25.4892 26.7015 25.1919 26.7007V26.7017C24.8956 26.7016 24.5995 26.5856 24.3765 26.3589L24.3755 26.3579L21.731 23.6421C21.5202 23.4256 21.4038 23.1336 21.4077 22.8315C21.4117 22.5296 21.5353 22.2416 21.7515 22.0308C21.968 21.8201 22.26 21.7036 22.562 21.7075ZM25.7769 26.1636C25.7612 26.179 25.7447 26.1935 25.728 26.2075C25.7449 26.1934 25.762 26.1791 25.7778 26.1636C25.7824 26.1591 25.786 26.1535 25.7905 26.1489C25.7859 26.1537 25.7816 26.1589 25.7769 26.1636Z"
    fill="#7084FF" />
  <path
    d="M20.1157 17.6431C21.7217 17.6433 23.0298 18.9522 23.0298 20.5571C23.0295 22.1624 21.721 23.4709 20.1157 23.4712C18.5105 23.4712 17.2019 22.1642 17.2017 20.5571C17.2017 18.9504 18.5098 17.6431 20.1157 17.6431Z"
    stroke="#7084FF" stroke-width="2.5" />
</svg>