<svg xmlns="http://www.w3.org/2000/svg" width="18" height="18" viewBox="0 0 18 18" fill="none">
  <circle cx="9" cy="9" r="7" fill="#FF9F0A"/>
  <path d="M9.75 5.81666V5.81667V9.43333C9.75 9.66667 9.63333 9.84167 9.45833 10.0167C9.28333 10.1917 9.10833 10.25 8.875 10.25C8.64167 10.25 8.46667 10.1917 8.29167 10.0167C8.11667 9.84167 8 9.66667 8 9.43333V5.81667C8 5.58333 8.11667 5.40833 8.29167 5.23333C8.46667 5.05833 8.64167 5 8.875 5C8.99167 5 9.10833 5.05833 9.225 5.11667C9.34167 5.175 9.45833 5.23333 9.51667 5.29167L9.51667 5.29167C9.575 5.35 9.63333 5.40833 9.69167 5.525C9.75 5.58333 9.75 5.7 9.75 5.81666Z" fill="white"/>
  <path d="M8.29167 11.3C8.40833 11.125 8.64167 11.0667 8.875 11.0667C9.10833 11.0667 9.34167 11.125 9.45833 11.3C9.63333 11.4167 9.69167 11.65 9.69167 11.8833C9.69167 12.1167 9.63333 12.2917 9.45833 12.4667C9.34167 12.6417 9.10833 12.7 8.875 12.7C8.64167 12.7 8.46667 12.6417 8.29167 12.4667C8.11667 12.35 8.05833 12.1167 8.05833 11.8833C8.05833 11.65 8.175 11.475 8.29167 11.3Z" fill="white"/>
</svg>