<svg xmlns="http://www.w3.org/2000/svg" width="17" height="17" viewBox="0 0 17 17" fill="none">
  <path
    d="M4.87534 8.07912C4.78291 8.76337 4.78291 9.60487 4.78291 10.5218V12.1049C4.78291 12.3153 4.78291 12.4194 4.71491 12.4832C4.64691 12.5459 4.54491 12.5384 4.34091 12.5236C4.17256 12.5116 4.0046 12.4946 3.83728 12.4726C3.15728 12.3812 2.59309 12.1974 2.11709 11.8064C1.94677 11.6669 1.79055 11.511 1.65066 11.341C1.23841 10.8384 1.05778 10.2371 0.970656 9.50712C0.886719 8.79525 0.886719 7.89638 0.886719 6.76162V6.69256C0.886719 5.55781 0.886719 4.65788 0.971719 3.94706C1.05672 3.21606 1.23841 2.61575 1.65172 2.11319C1.78984 1.94319 1.94709 1.787 2.11709 1.64675C2.61966 1.2345 3.22103 1.05387 3.95097 0.96675C4.66284 0.882812 5.56172 0.882812 6.69541 0.882812H6.76447C7.89922 0.882812 8.79809 0.882812 9.50997 0.967812C10.2399 1.05281 10.8413 1.2345 11.3438 1.64781C11.5138 1.78594 11.67 1.94319 11.8092 2.11319C12.2002 2.58919 12.383 3.15444 12.4754 3.83444C12.4967 3.99169 12.5137 4.15956 12.5264 4.337C12.5413 4.541 12.5487 4.643 12.486 4.711C12.4223 4.779 12.3182 4.779 12.1078 4.779H10.5247C9.60772 4.779 8.76728 4.779 8.08091 4.87144C7.32653 4.97237 6.52753 5.21144 5.87091 5.86806C5.21428 6.52469 4.97522 7.32369 4.87428 8.07806L4.87534 8.07912Z"
    fill="#4C65FF" fill-opacity="0.4" />
  <path
    d="M11.3719 5.84375H10.5857C9.61775 5.84375 8.83681 5.84375 8.22269 5.92663C7.58519 6.01163 7.04862 6.19544 6.6215 6.6215C6.19544 7.04862 6.01163 7.58519 5.92663 8.22269C5.84375 8.83681 5.84375 9.61775 5.84375 10.5857V11.3719C5.84375 12.3409 5.84375 13.1219 5.92663 13.736C6.01163 14.3735 6.19544 14.9101 6.6215 15.3361C7.04862 15.7633 7.58519 15.946 8.22269 16.0321C8.83681 16.1149 9.61775 16.1149 10.5857 16.1149H11.3719C12.3409 16.1149 13.1219 16.1149 13.736 16.0321C14.3735 15.9471 14.9101 15.7633 15.3361 15.3361C15.7633 14.9111 15.946 14.3735 16.0321 13.736C16.1149 13.1219 16.1149 12.3409 16.1149 11.3719V10.5857C16.1149 9.61775 16.1149 8.83681 16.0321 8.22269C15.9471 7.58519 15.7633 7.04862 15.3361 6.6215C14.9111 6.19544 14.3735 6.01163 13.736 5.92663C13.1219 5.84375 12.3409 5.84375 11.3719 5.84375Z"
    fill="#4C65FF" />
</svg>