<svg xmlns="http://www.w3.org/2000/svg" width="24" height="24" viewBox="0 0 24 24" fill="none">
  <path d="M13.1308 14.5308C12.7824 14.1824 12.2176 14.1824 11.8692 14.5308L9.1 17.3C8.7134 17.6866 8.0866 17.6866 7.7 17.3C7.3134 16.9134 7.3134 16.2866 7.7 15.9L11.6538 11.9462C12.1212 11.4788 12.8788 11.4788 13.3462 11.9462L17.3 15.9C17.6866 16.2866 17.6866 16.9134 17.3 17.3C16.9134 17.6866 16.2866 17.6866 15.9 17.3L13.1308 14.5308ZM13.1136 8.49865C12.7735 8.16684 12.2298 8.17019 11.8938 8.50618L9.15043 11.2496C8.74023 11.6598 8.0717 11.6482 7.67588 11.2242C7.29889 10.8202 7.30975 10.1903 7.70043 9.79957L11.6538 5.84616C12.1212 5.37884 12.8788 5.37884 13.3462 5.84615L17.2957 9.79568C17.6847 10.1847 17.6847 10.8153 17.2957 11.2043C16.9101 11.5899 16.2861 11.5938 15.8958 11.213L13.1136 8.49865Z" fill="currentColor"/>
</svg>