<svg xmlns="http://www.w3.org/2000/svg" width="21" height="21" viewBox="0 0 21 21" fill="none">
<path fill-rule="evenodd" clip-rule="evenodd" d="M4.39921 17.0114C3.85719 17.0717 3.39922 16.6137 3.45944 16.0717L3.60865 14.7288C3.64123 14.4355 3.65752 14.289 3.70188 14.1519C3.74124 14.0303 3.79685 13.9147 3.86721 13.8079C3.94637 13.6879 4.05046 13.5838 4.25837 13.3758L4.25945 13.3748L11.1218 6.51238C11.1219 6.51249 11.122 6.51259 11.1221 6.51269L13.9585 9.34907L7.09613 16.2115C6.8875 16.4201 6.78318 16.5244 6.66294 16.6037C6.55625 16.674 6.44054 16.7296 6.31896 16.769C6.18191 16.8133 6.0353 16.8296 5.74207 16.8623L4.39921 17.0114ZM14.7107 8.59688L16.4616 6.84593C17.245 6.0626 17.245 4.79258 16.4616 4.00925C15.6783 3.22592 14.4083 3.22592 13.6249 4.00925L11.874 5.76019C11.8741 5.7603 11.8742 5.7604 11.8743 5.7605L14.7107 8.59688Z" fill="currentColor"/>
</svg>
