<svg width="24" height="24" viewBox="0 0 24 24" fill="none" xmlns="http://www.w3.org/2000/svg">
<path d="M6.99954 21.001H3.49954C3.19954 21.001 2.99954 20.801 2.99954 20.501V17.001C2.99954 16.401 2.59954 16.001 1.99954 16.001C1.39954 16.001 0.999542 16.401 0.999542 17.001V20.501C0.999542 21.901 2.09954 23.001 3.49954 23.001H6.99954C7.59954 23.001 7.99954 22.601 7.99954 22.001C7.99954 21.401 7.59954 21.001 6.99954 21.001ZM21.9995 16.001C21.3995 16.001 20.9995 16.401 20.9995 17.001V20.501C20.9995 20.801 20.7995 21.001 20.4995 21.001H16.9995C16.3995 21.001 15.9995 21.401 15.9995 22.001C15.9995 22.601 16.3995 23.001 16.9995 23.001H20.4995C21.8995 23.001 22.9995 21.901 22.9995 20.501V17.001C22.9995 16.401 22.5995 16.001 21.9995 16.001ZM20.4995 1.00098H16.9995C16.3995 1.00098 15.9995 1.40098 15.9995 2.00098C15.9995 2.60098 16.3995 3.00098 16.9995 3.00098H20.4995C20.7995 3.00098 20.9995 3.20098 20.9995 3.50098V7.00098C20.9995 7.60098 21.3995 8.00098 21.9995 8.00098C22.5995 8.00098 22.9995 7.60098 22.9995 7.00098V3.50098C22.9995 2.10098 21.8995 1.00098 20.4995 1.00098ZM1.99954 8.00098C2.59954 8.00098 2.99954 7.60098 2.99954 7.00098V3.50098C2.99954 3.20098 3.19954 3.00098 3.49954 3.00098H6.99954C7.59954 3.00098 7.99954 2.60098 7.99954 2.00098C7.99954 1.40098 7.59954 1.00098 6.99954 1.00098H3.49954C2.09954 1.00098 0.999542 2.10098 0.999542 3.50098V7.00098C0.999542 7.60098 1.39954 8.00098 1.99954 8.00098ZM16.8995 15.501C17.1995 15.001 16.9995 14.401 16.4995 14.101C15.9995 13.801 15.3995 14.001 15.0995 14.501C15.0995 14.501 14.1995 16.001 11.9995 16.001C9.79954 16.001 8.89954 14.601 8.89954 14.501C8.59954 14.001 7.99954 13.901 7.49954 14.101C6.99954 14.401 6.89954 15.001 7.09954 15.501C7.19954 15.601 8.59954 18.001 11.9995 18.001C15.3995 18.001 16.7995 15.601 16.8995 15.501ZM11.9995 12.001C12.5995 12.001 12.9995 11.601 12.9995 11.001V7.00098C12.9995 6.40098 12.5995 6.00098 11.9995 6.00098C11.3995 6.00098 10.9995 6.40098 10.9995 7.00098V11.001C10.9995 11.601 11.3995 12.001 11.9995 12.001ZM16.9995 9.00098C17.5995 9.00098 17.9995 8.60098 17.9995 8.00098V7.00098C17.9995 6.40098 17.5995 6.00098 16.9995 6.00098C16.3995 6.00098 15.9995 6.40098 15.9995 7.00098V8.00098C15.9995 8.60098 16.3995 9.00098 16.9995 9.00098ZM6.99954 6.00098C6.39954 6.00098 5.99954 6.40098 5.99954 7.00098V8.00098C5.99954 8.60098 6.39954 9.00098 6.99954 9.00098C7.59954 9.00098 7.99954 8.60098 7.99954 8.00098V7.00098C7.99954 6.40098 7.59954 6.00098 6.99954 6.00098Z" fill="currentColor"/>
</svg>
