<svg width="24" height="24" viewBox="0 0 24 24" fill="none" xmlns="http://www.w3.org/2000/svg">
<path d="M16.9999 12.9973V13.9973C16.9999 16.7673 16.3359 19.4423 15.0849 21.8433L14.8589 22.2633L13.1119 21.2893C14.2719 19.2093 14.9219 16.8793 14.9939 14.4533L14.9999 13.9973V12.9973H16.9999ZM10.9999 9.99732H12.9999V13.9973L12.9949 14.3763C12.9193 17.114 11.9771 19.7572 10.3039 21.9253L10.0729 22.2153L8.52387 20.9513C10.0499 19.0871 10.9181 16.7713 10.9939 14.3633L10.9999 13.9973V9.99732ZM11.9999 5.99732C13.326 5.99732 14.5977 6.52411 15.5354 7.46179C16.4731 8.39947 16.9999 9.67124 16.9999 10.9973H14.9999C14.9999 10.2017 14.6838 9.43861 14.1212 8.876C13.5586 8.3134 12.7955 7.99732 11.9999 7.99732C11.2042 7.99732 10.4412 8.3134 9.87855 8.876C9.31594 9.43861 8.99987 10.2017 8.99987 10.9973V13.9973C8.99987 16.2323 8.17987 18.3413 6.72987 19.9743L6.51787 20.2043L5.06987 18.8243C6.23938 17.6001 6.92329 15.992 6.99387 14.3003L6.99987 13.9973V10.9973C6.99987 9.67124 7.52665 8.39947 8.46433 7.46179C9.40202 6.52411 10.6738 5.99732 11.9999 5.99732ZM11.9999 1.99732C14.3868 1.99732 16.676 2.94554 18.3638 4.63336C20.0517 6.32119 20.9999 8.61038 20.9999 10.9973V13.9973C20.9999 15.6953 20.7989 17.3673 20.4039 18.9873L20.2639 19.5263L18.3339 19.0003C18.7259 17.5633 18.9479 16.0783 18.9919 14.5653L18.9999 13.9973V10.9973C18.9999 9.69819 18.6383 8.42468 17.9557 7.31933C17.2731 6.21397 16.2964 5.32038 15.1348 4.73856C13.9733 4.15674 12.6727 3.90965 11.3787 4.02493C10.0847 4.14021 8.84829 4.61333 7.80787 5.39132L6.38287 3.96532C7.97634 2.6886 9.95802 1.9943 11.9999 1.99732ZM4.96787 5.38032L6.39387 6.80532C5.5362 7.94855 5.05093 9.32792 5.00387 10.7563L4.99987 10.9973L5.00387 12.9973C5.00387 14.1173 4.73987 15.2003 4.24287 16.1743L4.08587 16.4643L2.34987 15.4723C2.72887 14.8073 2.94987 14.0653 2.99487 13.2893L3.00387 12.9973V10.9973C2.99794 8.95566 3.69102 6.97346 4.96787 5.38032Z" fill="currentColor"/>
</svg>
