<svg width="40" height="40" viewBox="0 0 40 40" fill="none" xmlns="http://www.w3.org/2000/svg">
<g clip-path="url(#clip0_17511_104001)">
<path d="M0 14C0 6.26801 6.26801 0 14 0H26C33.732 0 40 6.26801 40 14V26C40 33.732 33.732 40 26 40H14C6.26801 40 0 33.732 0 26V14Z" fill="#E0E5EC"/>
<path d="M18.0908 13H21.909V14.2727H18.0908V13Z" fill="#192945"/>
<path d="M25.0909 15.5454V9.81812H14.9091V15.5454H11.7273V21.909C11.7273 26.4781 15.4309 30.1818 20 30.1818C24.5691 30.1818 28.2728 26.4781 28.2728 21.909V15.5454H25.0909ZM16.8182 11.7272H23.1818V15.5454H16.8182V11.7272ZM26.3637 21.909C26.3663 22.7597 26.1963 23.602 25.8641 24.3851C25.5421 25.1462 25.0871 25.8208 24.4998 26.4088C23.9124 26.9967 23.2372 27.4511 22.4761 27.7731C21.6896 28.1059 20.8642 28.2727 20 28.2727C19.1358 28.2727 18.3105 28.1059 17.5233 27.7731C16.7666 27.454 16.0793 26.9906 15.4997 26.4088C14.9176 25.8293 14.4542 25.1419 14.1353 24.3851C13.8036 23.6019 13.6338 22.7596 13.6364 21.909V17.4545H26.3637V21.909Z" fill="#192945"/>
<path d="M0 14C0 6.26801 6.26801 0 14 0H26C33.732 0 40 6.26801 40 14V26C40 33.732 33.732 40 26 40H14C6.26801 40 0 33.732 0 26V14Z" fill="#9A9CA9"/>
<path d="M18.0908 13H21.909V14.2727H18.0908V13Z" fill="white"/>
<path d="M26.1937 21.909L26.1937 21.9095C26.1962 22.7372 26.0309 23.5568 25.7076 24.3187L25.7075 24.3189C25.3941 25.0597 24.9515 25.716 24.3795 26.2886C23.8076 26.8611 23.1508 27.3031 22.4099 27.6166L22.4761 27.7731L22.4099 27.6166C21.6445 27.9404 20.8417 28.1027 20 28.1027C19.1584 28.1027 18.3555 27.9404 17.5895 27.6165L17.5894 27.6165C16.853 27.3059 16.1841 26.8549 15.6201 26.2888L15.6196 26.2883C15.0532 25.7244 14.6023 25.0556 14.292 24.3191L14.2918 24.3188C13.9691 23.5567 13.8039 22.7372 13.8064 21.9095V21.909V17.6245H26.1937L26.1937 21.909ZM25.2609 15.3754V10.8181C25.2609 10.1719 24.7371 9.64812 24.0909 9.64812H15.9091C15.2629 9.64812 14.7391 10.1719 14.7391 10.8181V15.3754H12.7273C12.0811 15.3754 11.5573 15.8992 11.5573 16.5454V21.909C11.5573 26.572 15.337 30.3518 20 30.3518C24.663 30.3518 28.4428 26.572 28.4428 21.909V16.5454C28.4428 15.8992 27.9189 15.3754 27.2728 15.3754H25.2609ZM16.9882 11.8972H23.0118V15.3754H16.9882V11.8972Z" fill="white" stroke="white" stroke-width="0.34"/>
</g>
<defs>
<clipPath id="clip0_17511_104001">
<path d="M0 14C0 6.26801 6.26801 0 14 0H26C33.732 0 40 6.26801 40 14V26C40 33.732 33.732 40 26 40H14C6.26801 40 0 33.732 0 26V14Z" fill="white"/>
</clipPath>
</defs>
</svg>
