<svg width="21" height="20" viewBox="0 0 21 20" fill="none" xmlns="http://www.w3.org/2000/svg">
<path fill-rule="evenodd" clip-rule="evenodd" d="M10.5 17.9999C12.7091 17.9999 14.7091 17.1045 16.1568 15.6568C17.6045 14.2091 18.4999 12.2091 18.4999 9.99996C18.4999 7.79085 17.6045 5.79086 16.1568 4.34313C14.7091 2.89543 12.7091 2 10.5 2C8.29085 2 6.29086 2.89543 4.84313 4.34313C3.39543 5.79086 2.5 7.79085 2.5 9.99996C2.5 12.2091 3.39543 14.2091 4.84313 15.6568C6.29086 17.1045 8.29085 17.9999 10.5 17.9999ZM7.375 7.76038C7.375 6.03449 8.77411 4.63538 10.5 4.63538C12.2259 4.63538 13.625 6.03449 13.625 7.76038C13.625 9.27222 12.5514 10.5333 11.125 10.8229V11.927C11.125 12.2722 10.8452 12.552 10.5 12.552C10.1548 12.552 9.875 12.2722 9.875 11.927V10.2604C9.875 9.9152 10.1548 9.63538 10.5 9.63538C11.5355 9.63538 12.375 8.79591 12.375 7.76038C12.375 6.72485 11.5355 5.88538 10.5 5.88538C9.46447 5.88538 8.625 6.72485 8.625 7.76038C8.625 8.10555 8.34518 8.38538 8 8.38538C7.65482 8.38538 7.375 8.10555 7.375 7.76038ZM11.5413 14.6354C11.5413 15.2107 11.075 15.6771 10.4997 15.6771C9.92438 15.6771 9.45801 15.2107 9.45801 14.6354C9.45801 14.0601 9.92438 13.5938 10.4997 13.5938C11.075 13.5938 11.5413 14.0601 11.5413 14.6354Z" fill="currentColor"/>
</svg>
