<svg width="28" height="28" viewBox="0 0 28 28" fill="none" xmlns="http://www.w3.org/2000/svg">
<g clip-path="url(#clip0_16385_55967)">
<g filter="url(#filter0_d_16385_55967)">
<path d="M13.5379 5.25C16.5106 5.25 19.1461 6.9825 20.3349 9.57367L20.3485 9.6054C20.3889 9.6998 20.4787 9.76367 20.5811 9.77083C23.8256 10.0368 26.3993 12.656 26.5358 15.9005L26.5416 16.1723C26.5416 19.7237 23.6249 22.596 20.0293 22.596H16.6643C15.6503 22.596 14.8283 21.774 14.8283 20.7599V14.3442L17.0391 16.5538L17.1383 16.639C17.3164 16.7671 17.536 16.8239 17.7539 16.7981C17.9718 16.7722 18.172 16.6657 18.3153 16.4995C18.4585 16.3333 18.5342 16.1195 18.5276 15.9002C18.5209 15.6809 18.4323 15.472 18.2793 15.3148L14.6101 11.6515L14.5121 11.5663C14.3431 11.4413 14.1348 11.3812 13.9252 11.3968C13.7156 11.4125 13.5185 11.5028 13.3699 11.6515L9.62727 15.3907L9.54327 15.4887C9.4183 15.6572 9.35804 15.865 9.37346 16.0742C9.38887 16.2834 9.47895 16.4801 9.62727 16.6285L9.72643 16.7137C9.89535 16.8383 10.1034 16.8983 10.3127 16.8827C10.5221 16.867 10.7189 16.7769 10.8674 16.6285L13.0771 14.4188L13.078 20.7585C13.0781 21.7726 12.2561 22.5948 11.2419 22.5948H6.92993L6.7211 22.589C3.7811 22.4373 1.45827 20.034 1.45827 17.1092C1.45827 14.4223 3.41243 12.1905 5.9896 11.7157C6.07792 11.7004 6.14631 11.6299 6.15892 11.5411L6.16927 11.4683C6.7106 8.03017 9.66343 5.38533 13.2603 5.25467L13.5379 5.25Z" fill="url(#paint0_linear_16385_55967)"/>
</g>
</g>
<defs>
<filter id="filter0_d_16385_55967" x="-38.0171" y="-19.4221" width="104.034" height="96.2968" filterUnits="userSpaceOnUse" color-interpolation-filters="sRGB">
<feFlood flood-opacity="0" result="BackgroundImageFix"/>
<feColorMatrix in="SourceAlpha" type="matrix" values="0 0 0 0 0 0 0 0 0 0 0 0 0 0 0 0 0 0 127 0" result="hardAlpha"/>
<feOffset dy="14.8033"/>
<feGaussianBlur stdDeviation="19.7377"/>
<feColorMatrix type="matrix" values="0 0 0 0 0.168627 0 0 0 0 0.176471 0 0 0 0 0.2 0 0 0 0.08 0"/>
<feBlend mode="normal" in2="BackgroundImageFix" result="effect1_dropShadow_16385_55967"/>
<feBlend mode="normal" in="SourceGraphic" in2="effect1_dropShadow_16385_55967" result="shape"/>
</filter>
<linearGradient id="paint0_linear_16385_55967" x1="26.6228" y1="5.04918" x2="3.44248" y2="22.4918" gradientUnits="userSpaceOnUse">
<stop stop-color="#6EB6FF"/>
<stop offset="1" stop-color="#3298FF"/>
</linearGradient>
<clipPath id="clip0_16385_55967">
<rect width="28" height="28" fill="white"/>
</clipPath>
</defs>
</svg>
