<svg width="40" height="40" viewBox="0 0 40 40" fill="none" xmlns="http://www.w3.org/2000/svg">
<path d="M0 14C0 6.26801 6.26801 0 14 0H26C33.732 0 40 6.26801 40 14V26C40 33.732 33.732 40 26 40H14C6.26801 40 0 33.732 0 26V14Z" fill="#9A9CA9"/>
<path d="M27.767 16.9351V13.2264C27.767 10.9322 25.9073 9.07251 23.6132 9.07251H15.3055C13.0114 9.07251 11.1516 10.9323 11.1516 13.2264V26.2112C11.1516 28.5053 13.0114 30.365 15.3055 30.365H18.9421" stroke="white" stroke-width="2.5" stroke-linecap="round" stroke-linejoin="round"/>
<path d="M20.5009 20.5H15.3086" stroke="white" stroke-width="2.5" stroke-linecap="round"/>
<path d="M24.6547 15.3086H15.3086" stroke="white" stroke-width="2.5" stroke-linecap="round"/>
<path d="M26.7307 31.7134C29.4836 31.7134 31.7153 29.4817 31.7153 26.7288C31.7153 23.9758 29.4836 21.7441 26.7307 21.7441C23.9778 21.7441 21.7461 23.9758 21.7461 26.7288C21.7461 29.4817 23.9778 31.7134 26.7307 31.7134Z" stroke="white" stroke-width="2.5"/>
<path d="M25.8408 24.9512V27.6215H28.5111" stroke="white" stroke-width="2.5" stroke-linecap="round" stroke-linejoin="round"/>
</svg>
