<svg width="40" height="40" viewBox="0 0 40 40" fill="none" xmlns="http://www.w3.org/2000/svg">
<path d="M0 14C0 6.26801 6.26801 0 14 0H26C33.732 0 40 6.26801 40 14V26C40 33.732 33.732 40 26 40H14C6.26801 40 0 33.732 0 26V14Z" fill="#9A9CA9"/>
<path d="M18.5202 20.5L11.6604 16.2491L11.6604 16.2491C11.4173 16.0982 11.2439 15.8571 11.1783 15.5787C11.1284 15.3711 11.1413 15.1533 11.2154 14.953C11.2896 14.7525 11.4216 14.5786 11.5949 14.4534C11.7681 14.3282 11.9747 14.2573 12.1883 14.2497C12.4019 14.2422 12.6129 14.2983 12.7945 14.411C12.7945 14.411 12.7945 14.411 12.7946 14.411L19.42 18.5149V10.2062V10.2L19.4202 10.2L19.4212 10.1799C19.422 10.1233 19.4276 10.0669 19.4379 10.0113L19.438 10.0105C19.4616 9.88774 19.5051 9.76963 19.5668 9.66085L19.5678 9.65912L19.5678 9.65912L19.579 9.64L19.5826 9.63392L19.5828 9.63403L19.5913 9.62133C19.6027 9.60395 19.6146 9.58691 19.627 9.57025C19.627 9.5702 19.6271 9.57016 19.6271 9.57012L19.6528 9.53552L19.6584 9.5279L19.6587 9.52813L19.6879 9.49438L19.6887 9.49354L19.7224 9.4553L19.7294 9.44743L19.7297 9.44775L19.7567 9.42188L19.7571 9.42151C19.7727 9.40661 19.7889 9.39219 19.8054 9.37826L19.8063 9.3775L19.8063 9.3775L19.8322 9.35613L19.8351 9.35369L19.8352 9.35373C19.8514 9.34115 19.868 9.329 19.8848 9.31731C19.9014 9.3051 19.9228 9.29324 19.9259 9.29152L19.9259 9.29151L19.9693 9.26438L19.9782 9.25882L19.9784 9.25921L20.0177 9.23896L20.0227 9.23643L20.0227 9.23654L20.0613 9.21882C20.0831 9.20752 20.1048 9.1998 20.1184 9.19494L20.1191 9.1947L20.1206 9.19416L20.1585 9.18007L20.1683 9.17643L20.1684 9.17685L20.2168 9.16335L20.2201 9.16244L20.2201 9.16248C20.2202 9.16246 20.2206 9.16235 20.2212 9.16218C20.2266 9.16065 20.2503 9.15395 20.2696 9.15064L20.3125 9.14205L20.3153 9.1415L20.3153 9.14153C20.3698 9.13191 20.4249 9.12639 20.4802 9.12504L20.4833 9.12496V9.125H20.499H20.5193H20.5248L20.5248 9.12512C20.547 9.12609 20.5691 9.12776 20.5912 9.1301L20.6274 9.13339L20.632 9.13381L20.632 9.13389C20.7403 9.1478 20.8459 9.17774 20.9454 9.22272L20.9485 9.22411L20.9484 9.22415L20.9856 9.24215L20.9889 9.24378L20.9889 9.24383C21.0073 9.25345 21.0255 9.26358 21.0433 9.2742L21.0434 9.27426C21.0436 9.27435 21.0438 9.27445 21.044 9.27456L21.0441 9.27458C21.0461 9.27554 21.0508 9.27781 21.0561 9.28075C21.0596 9.28274 21.0642 9.28544 21.0692 9.28893L29.3361 14.4107C29.3362 14.4108 29.3363 14.4109 29.3365 14.411L29.3365 14.411L29.2707 14.5172C29.4096 14.6026 29.5243 14.7221 29.6039 14.8644C29.6834 15.0067 29.7252 15.167 29.7252 15.3301C29.7252 15.4931 29.6834 15.6534 29.6039 15.7957C29.5243 15.938 29.4096 16.0575 29.2707 16.1429L18.5202 20.5ZM18.5202 20.5L11.6605 24.7497L11.6604 24.7496L11.6551 24.7532C11.4275 24.9108 11.269 25.1497 11.2122 25.4207C11.1555 25.6917 11.2049 25.9741 11.3502 26.2097C11.4955 26.4454 11.7257 26.6164 11.9933 26.6873C12.2609 26.7583 12.5455 26.724 12.7885 26.5913L12.7886 26.5915L12.7945 26.5879L19.42 22.484V30.8151H19.42L19.4201 30.8194C19.4238 30.928 19.4429 31.0356 19.4769 31.1389L19.4769 31.1389L19.4778 31.1415C19.5019 31.2095 19.532 31.2751 19.5677 31.3377C19.5679 31.3379 19.568 31.3382 19.5681 31.3384L19.5786 31.3573L19.5786 31.3574L19.5807 31.3609L19.5875 31.3722L19.5874 31.3722L19.5894 31.3753C19.6094 31.4066 19.631 31.4368 19.6541 31.4659L19.6598 31.4741L19.6594 31.4743L19.6661 31.4824C19.6923 31.5138 19.7204 31.5431 19.7489 31.5703L19.7504 31.5717L19.7807 31.5998L19.7807 31.5999L19.7822 31.6012C19.8019 31.6189 19.8222 31.6358 19.8432 31.652L19.8431 31.6521L19.848 31.6555L19.8798 31.6778C19.9083 31.6993 19.9392 31.7174 19.9636 31.7316L19.9706 31.7365L19.9771 31.7411L19.9842 31.7448C20.0197 31.7635 20.0563 31.7801 20.0937 31.7947L20.1173 31.805L20.1172 31.8052L20.1235 31.8075C20.1937 31.8336 20.2664 31.8521 20.3405 31.8625C20.3407 31.8625 20.3409 31.8625 20.3411 31.8625L20.3705 31.8669L20.3705 31.867L20.3763 31.8676C20.4102 31.871 20.4456 31.8735 20.482 31.8738L20.4835 31.874L20.4913 31.875H20.499H20.5103V31.8751L20.5142 31.8749C20.5529 31.8737 20.5911 31.8713 20.6303 31.866L20.6303 31.8661L20.6331 31.8656L20.6684 31.8601C20.6686 31.8601 20.6687 31.8601 20.6689 31.86C20.7012 31.8551 20.7333 31.8488 20.765 31.8411L20.7667 31.8406L20.797 31.8327L20.7971 31.8328L20.8008 31.8317C20.8439 31.8191 20.886 31.8037 20.9271 31.7858L20.9272 31.7859L20.9329 31.7831L20.9422 31.7784C20.9779 31.7621 21.0128 31.7437 21.0465 31.7235L21.0556 31.7189L21.0558 31.7194L21.0655 31.7134L29.3363 26.5891C29.5733 26.4429 29.7446 26.2108 29.8145 25.9412C29.8844 25.6719 29.8476 25.386 29.7119 25.1431C29.6225 24.9817 29.4933 24.8459 29.3366 24.7487L29.1457 24.6302V24.6315L22.4767 20.5L29.3361 16.2494C29.3362 16.2493 29.3364 16.2492 29.3365 16.2491L18.5202 20.5ZM26.7181 15.3295L21.5769 18.5149V12.1452L26.7181 15.3295ZM26.718 25.6683L21.5769 28.8536V22.484L26.718 25.6683Z" fill="white" stroke="white" stroke-width="0.25"/>
</svg>
