<svg width="40" height="40" viewBox="0 0 40 40" fill="none" xmlns="http://www.w3.org/2000/svg">
<path d="M0 14C0 6.26801 6.26801 0 14 0H26C33.732 0 40 6.26801 40 14V26C40 33.732 33.732 40 26 40H14C6.26801 40 0 33.732 0 26V14Z" fill="url(#paint0_linear_118616_7545)"/>
<path d="M20.0406 10.3625C18.7486 10.3625 17.9075 11.723 18.485 12.8779L18.6774 13.2603C19.0967 14.0987 18.4876 15.0849 17.5489 15.0849H13.5437C12.8925 15.0849 12.3625 15.6148 12.3625 16.2661V17.6768C14.5141 17.5476 16.4969 19.2482 16.4969 21.5817C16.4969 23.9152 14.5141 25.6159 12.3625 25.4867V28.0786C12.3625 28.7299 12.8925 29.2599 13.5437 29.2599H16.1356C16.0064 27.1083 17.7071 25.1255 20.0406 25.1255C22.3741 25.1255 24.0748 27.1083 23.9456 29.2599H25.3563C26.0075 29.2599 26.5375 28.7299 26.5375 28.0786V24.0761C26.5375 23.14 27.5236 22.5283 28.3621 22.9476L28.7444 23.14C29.902 23.7175 31.2599 22.8764 31.2599 21.5844C31.2599 20.2924 29.8993 19.4513 28.7444 20.0287L28.3621 20.2212C27.5236 20.6404 26.5375 20.0313 26.5375 19.0927V16.2688C26.5375 15.6175 26.0075 15.0875 25.3563 15.0875H22.5323C21.5963 15.0875 20.9846 14.1014 21.4038 13.2629L21.5963 12.8806C22.1737 11.723 21.3326 10.3625 20.0406 10.3625ZM15.9827 12.725C15.6083 10.3414 17.4355 8 20.0406 8C22.6457 8 24.4729 10.3414 24.0985 12.725H25.3563C27.3127 12.725 28.9 14.3123 28.9 16.2688V17.5265C31.2836 17.1521 33.625 18.9793 33.625 21.5844C33.625 24.1895 31.2836 26.0167 28.9 25.6423V28.0812C28.9 30.0377 27.3127 31.625 25.3563 31.625H22.5139C21.6147 31.625 21.0083 30.7048 21.3616 29.8769L21.4618 29.6422C21.8995 28.6218 21.1507 27.488 20.0406 27.488C18.9306 27.488 18.1844 28.6218 18.6194 29.6422L18.7196 29.8769C19.0729 30.7048 18.4665 31.625 17.5674 31.625H13.5437C11.5873 31.625 10 30.0377 10 28.0812V24.0576C10 23.1585 10.9202 22.5521 11.7481 22.9054L11.9828 23.0056C13.0032 23.4433 14.137 22.6944 14.137 21.5844C14.137 20.4743 13.0032 19.7281 11.9828 20.1632L11.7481 20.2634C10.9202 20.6193 10 20.0129 10 19.1111V16.2688C10 14.3123 11.5873 12.725 13.5437 12.725H15.9827Z" fill="white"/>
<defs>
<linearGradient id="paint0_linear_118616_7545" x1="0" y1="0" x2="40" y2="40" gradientUnits="userSpaceOnUse">
<stop stop-color="#7084FF"/>
<stop offset="1" stop-color="#96A4FF"/>
</linearGradient>
</defs>
</svg>
