<svg width="19" height="18" viewBox="0 0 19 18" fill="none" xmlns="http://www.w3.org/2000/svg">
<path d="M6.84563 16.6271C5.48359 16.2216 4.2712 15.4687 3.3112 14.4712C3.66934 14.0467 3.88516 13.4983 3.88516 12.8995C3.88516 11.5527 2.79333 10.4608 1.44648 10.4608C1.36501 10.4608 1.28447 10.4648 1.20505 10.4726C1.09686 9.94366 1.04004 9.39601 1.04004 8.83504C1.04004 7.98532 1.17041 7.16605 1.41226 6.39612C1.42365 6.39628 1.43506 6.39636 1.44648 6.39636C2.79333 6.39636 3.88516 5.30453 3.88516 3.95769C3.88516 3.57104 3.79517 3.20544 3.63503 2.88061C4.5751 2.00651 5.7225 1.35234 6.99532 1C7.39864 1.79056 8.22059 2.33192 9.16895 2.33192C10.1173 2.33192 10.9393 1.79056 11.3426 1C12.6154 1.35234 13.7628 2.00651 14.7029 2.88061C14.5427 3.20544 14.4527 3.57104 14.4527 3.95769C14.4527 5.30453 15.5446 6.39636 16.8914 6.39636C16.9028 6.39636 16.9143 6.39628 16.9256 6.39612C17.1675 7.16605 17.2979 7.98532 17.2979 8.83504C17.2979 9.39601 17.241 9.94366 17.1329 10.4726C17.0534 10.4648 16.9729 10.4608 16.8914 10.4608C15.5446 10.4608 14.4527 11.5527 14.4527 12.8995C14.4527 13.4983 14.6686 14.0467 15.0267 14.4712C14.0667 15.4687 12.8543 16.2216 11.4923 16.6271C11.1779 15.6438 10.2566 14.9317 9.16895 14.9317C8.0813 14.9317 7.15997 15.6438 6.84563 16.6271Z" stroke="currentColor" stroke-width="2" stroke-linecap="round" stroke-linejoin="round"/>
<path d="M9.17715 11.6766C10.7485 11.6766 12.0223 10.4028 12.0223 8.83145C12.0223 7.26013 10.7485 5.98633 9.17715 5.98633C7.60583 5.98633 6.33203 7.26013 6.33203 8.83145C6.33203 10.4028 7.60583 11.6766 9.17715 11.6766Z" stroke="currentColor" stroke-width="2" stroke-linecap="round" stroke-linejoin="round"/>
</svg>
