<svg width="28" height="28" viewBox="0 0 28 28" fill="none" xmlns="http://www.w3.org/2000/svg">
<g clip-path="url(#clip0_16385_55910)">
<path d="M13.9984 26.5984C17.4778 26.5984 20.6278 25.1881 22.908 22.908C25.1881 20.6278 26.5984 17.4778 26.5984 13.9984C26.5984 10.5191 25.1881 7.36907 22.908 5.08889C20.6278 2.80874 17.4778 1.39844 13.9984 1.39844C10.5191 1.39844 7.36907 2.80874 5.08889 5.08889C2.80874 7.36907 1.39844 10.5191 1.39844 13.9984C1.39844 17.4778 2.80874 20.6278 5.08889 22.908C7.36907 25.1881 10.5191 26.5984 13.9984 26.5984Z" fill="#7084FF" stroke="#7084FF" stroke-width="2.8" stroke-linejoin="round"/>
<path d="M19.5994 13.3008H8.39923C8.01262 13.3008 7.69922 13.6142 7.69922 14.0008V20.3009C7.69922 20.6875 8.01262 21.0009 8.39923 21.0009H19.5994C19.986 21.0009 20.2994 20.6875 20.2994 20.3009V14.0008C20.2994 13.6142 19.986 13.3008 19.5994 13.3008Z" stroke="white" stroke-width="1.75" stroke-linejoin="round"/>
<path d="M10.5 13.3001V10.5C10.5 8.56702 12.067 7 14 7C15.933 7 17.5001 8.56702 17.5001 10.5V13.3001" stroke="white" stroke-width="1.75" stroke-linecap="round" stroke-linejoin="round"/>
<path d="M14 16.1016V18.2016" stroke="white" stroke-width="1.75" stroke-linecap="round" stroke-linejoin="round"/>
</g>
<defs>
<clipPath id="clip0_16385_55910">
<rect width="28" height="28" fill="white"/>
</clipPath>
</defs>
</svg>
