<svg width="24" height="24" viewBox="0 0 24 24" fill="none" xmlns="http://www.w3.org/2000/svg">
<path d="M18.9362 7.88405H18.6482C18.5282 6.32405 17.8562 4.87205 16.7282 3.74405C15.4682 2.49605 13.8122 1.80005 12.0602 1.80005C8.59217 1.80005 5.74817 4.48805 5.48417 7.87205H5.19617C3.34817 7.87205 1.83617 9.38405 1.83617 11.232V18.9C1.83617 20.748 3.34817 22.26 5.19617 22.26H18.9362C20.7842 22.26 22.2962 20.748 22.2962 18.9V11.244C22.2962 9.38405 20.7842 7.88405 18.9362 7.88405ZM12.0602 3.72005C13.3082 3.72005 14.4722 4.21205 15.3602 5.10005C16.1282 5.86805 16.5962 6.84005 16.7042 7.88405H7.40417C7.66817 5.54405 9.66017 3.72005 12.0602 3.72005ZM20.3762 18.9C20.3762 19.692 19.7282 20.34 18.9362 20.34H5.19617C4.40417 20.34 3.75617 19.692 3.75617 18.9V11.244C3.75617 10.452 4.40417 9.80405 5.19617 9.80405H18.9482C19.7402 9.80405 20.3882 10.452 20.3882 11.244V18.9H20.3762Z" fill="currentColor"/>
<path d="M12.06 11.9036C11.532 11.9036 11.1 12.3356 11.1 12.8636V16.5836C11.1 17.1116 11.532 17.5436 12.06 17.5436C12.588 17.5436 13.02 17.1116 13.02 16.5836V12.8636C13.02 12.3356 12.588 11.9036 12.06 11.9036Z" fill="currentColor"/>
</svg>
