<svg width="19" height="18" viewBox="0 0 19 18" fill="none" xmlns="http://www.w3.org/2000/svg">
<g clip-path="url(#clip0_45417_32095)">
<circle cx="9.09708" cy="14.7013" r="1" fill="currentColor" stroke="currentColor" stroke-width="0.753246" stroke-linecap="round"/>
<path d="M8.98988 11.8857C8.36724 11.9045 7.78521 12.0843 7.2848 12.3867C6.7987 12.6805 6.1445 12.714 5.74281 12.3125C5.36604 11.9357 5.35041 11.3189 5.77504 10.9971C6.24197 10.6434 6.76732 10.3622 7.33363 10.1709L8.98988 11.8857ZM9.55629 6.45312C11.7228 6.56287 13.6869 7.44374 15.1784 8.82617C15.561 9.18123 15.5378 9.77835 15.1686 10.1475C14.7584 10.5574 14.0878 10.5229 13.65 10.1426C13.0812 9.6484 12.4307 9.24669 11.7223 8.95703L9.2975 6.44629L9.55629 6.45312ZM6.25062 9.05078C5.73207 9.28433 5.24696 9.57907 4.80531 9.92676C4.36402 10.2742 3.72101 10.2897 3.32386 9.89258C2.94062 9.50912 2.93028 8.88494 3.34535 8.53613C3.79323 8.15975 4.27927 7.8278 4.79554 7.54395L6.25062 9.05078ZM9.41566 3.00391C12.5807 3.08399 15.4499 4.35299 17.5963 6.37891C17.9824 6.74352 17.965 7.35104 17.5895 7.72656C17.1855 8.13044 16.5276 8.10828 16.1061 7.72266C14.2584 6.0322 11.798 5.00001 9.09632 5C8.71276 5.00003 8.3343 5.02289 7.96156 5.06348L6.27992 3.32227C7.18462 3.11164 8.1274 3.00006 9.09632 3L9.41566 3.00391ZM3.76332 6.47461C3.26571 6.77327 2.7951 7.11228 2.35609 7.4873C1.93119 7.85025 1.29123 7.85996 0.89613 7.46484C0.510838 7.07929 0.50309 6.45235 0.911755 6.0918C1.36089 5.69601 1.84011 5.3331 2.3434 5.00488L3.76332 6.47461Z" fill="currentColor"/>
<path d="M2.05479 1.82787C2.42713 1.46822 3.00689 1.45513 3.39406 1.78207L3.46886 1.85237L14.9697 13.7575L15.0365 13.8346C15.3502 14.2329 15.3176 14.8117 14.9452 15.1715C14.5728 15.5312 13.9931 15.5443 13.6059 15.2173L13.5311 15.147L2.03029 3.24193L1.96344 3.16476C1.64979 2.76651 1.68236 2.18766 2.05479 1.82787Z" fill="currentColor"/>
</g>
<defs>
<clipPath id="clip0_45417_32095">
<rect width="18.0352" height="18" fill="white"/>
</clipPath>
</defs>
</svg>
