<svg width="17" height="18" viewBox="0 0 17 18" fill="none" xmlns="http://www.w3.org/2000/svg">
<path d="M4.87376 8.58136C4.78132 9.26561 4.78132 10.1071 4.78132 11.024V12.6072C4.78132 12.8175 4.78132 12.9217 4.71332 12.9854C4.64532 13.0481 4.54332 13.0407 4.33932 13.0258C4.17097 13.0139 4.00302 12.9969 3.83569 12.9748C3.15569 12.8834 2.59151 12.6996 2.11551 12.3086C1.94519 12.1691 1.78896 12.0132 1.64907 11.8432C1.23682 11.3407 1.05619 10.7393 0.969069 10.0094C0.885132 9.29748 0.885132 8.39861 0.885132 7.26386V7.1948C0.885132 6.06005 0.885132 5.16011 0.970132 4.4493C1.05513 3.7183 1.23682 3.11799 1.65013 2.61542C1.78826 2.44542 1.94551 2.28924 2.11551 2.14899C2.61807 1.73674 3.21944 1.55611 3.94938 1.46899C4.66126 1.38505 5.56013 1.38505 6.69382 1.38505H6.76288C7.89763 1.38505 8.79651 1.38505 9.50838 1.47005C10.2383 1.55505 10.8397 1.73674 11.3423 2.15005C11.5123 2.28817 11.6684 2.44542 11.8076 2.61542C12.1986 3.09142 12.3814 3.65667 12.4738 4.33667C12.4951 4.49392 12.5121 4.6618 12.5248 4.83924C12.5397 5.04324 12.5471 5.14524 12.4844 5.21324C12.4207 5.28124 12.3166 5.28124 12.1062 5.28124H10.5231C9.60613 5.28124 8.76569 5.28124 8.07932 5.37367C7.32494 5.47461 6.52594 5.71367 5.86932 6.3703C5.21269 7.02692 4.97363 7.82592 4.87269 8.5803L4.87376 8.58136Z" fill="#7084FF" fill-opacity="0.4"/>
<path d="M11.3719 6.34375H10.5857C9.61775 6.34375 8.83681 6.34375 8.22269 6.42663C7.58519 6.51163 7.04862 6.69544 6.6215 7.1215C6.19544 7.54862 6.01163 8.08519 5.92663 8.72269C5.84375 9.33681 5.84375 10.1178 5.84375 11.0857V11.8719C5.84375 12.8409 5.84375 13.6219 5.92663 14.236C6.01163 14.8735 6.19544 15.4101 6.6215 15.8361C7.04862 16.2633 7.58519 16.446 8.22269 16.5321C8.83681 16.6149 9.61775 16.6149 10.5857 16.6149H11.3719C12.3409 16.6149 13.1219 16.6149 13.736 16.5321C14.3735 16.4471 14.9101 16.2633 15.3361 15.8361C15.7633 15.4111 15.946 14.8735 16.0321 14.236C16.1149 13.6219 16.1149 12.8409 16.1149 11.8719V11.0857C16.1149 10.1178 16.1149 9.33681 16.0321 8.72269C15.9471 8.08519 15.7633 7.54862 15.3361 7.1215C14.9111 6.69544 14.3735 6.51163 13.736 6.42663C13.1219 6.34375 12.3409 6.34375 11.3719 6.34375Z" fill="#7084FF"/>
</svg>
