<svg xmlns="http://www.w3.org/2000/svg" width="16" height="16" viewBox="0 0 16 16" fill="none">
<path d="M13.1662 5.59429C13.1354 5.56353 10.1823 2.61333 9.8937 2.33062C9.88345 2.32036 9.87466 2.31157 9.86294 2.30278C9.32681 1.86626 8.55484 1.90581 8.06704 2.39507C7.65396 2.80669 7.67739 3.35894 7.69204 3.71782C7.69351 3.81011 7.69644 3.90532 7.69644 3.99321C7.69644 4.37554 7.33609 4.92925 6.77944 5.40386C6.1979 5.90044 5.52847 6.20366 5.14907 6.14214C5.05972 6.12749 4.97769 6.12017 4.90444 6.11431C4.86929 6.11138 4.83853 6.10845 4.80776 6.10552C3.01773 5.66167 2.21206 6.83648 2.11831 6.98443C1.98208 7.22173 2.0187 7.52056 2.2106 7.71099L4.16763 9.66802L1.67153 13.0474C1.49429 13.2847 1.51919 13.6114 1.73159 13.8252C1.84878 13.9424 2.00112 14.0025 2.15347 14.0025C2.27651 14.0025 2.39956 13.9644 2.50357 13.8853L5.91812 11.4185L7.85171 13.3521C8.04653 13.5469 8.34829 13.5835 8.58999 13.4371C8.72476 13.3521 9.89663 12.5523 9.4645 10.7989C9.46011 10.7696 9.43521 10.5572 9.42202 10.4371C9.39126 10.0621 9.75747 9.22564 10.3522 8.57818C10.7741 8.11968 11.2062 7.86626 11.568 7.86626C11.6559 7.86626 11.7511 7.86773 11.8376 7.87066C12.2038 7.88677 12.7575 7.91021 13.1691 7.49859C13.4225 7.24517 13.5631 6.90825 13.5617 6.5479C13.5602 6.18755 13.421 5.84917 13.1662 5.59429Z" fill="currentColor"/>
</svg>
