<svg width="40" height="40" viewBox="0 0 40 40" fill="none" xmlns="http://www.w3.org/2000/svg">
<path d="M0 14C0 6.26801 6.26801 0 14 0H26C33.732 0 40 6.26801 40 14V26C40 33.732 33.732 40 26 40H14C6.26801 40 0 33.732 0 26V14Z" fill="url(#paint0_linear_16385_56121)"/>
<path d="M28.5229 12.3568L28.523 12.3568C28.7322 12.1475 28.8497 11.8636 28.8497 11.5677C28.8497 11.296 28.7507 11.0346 28.5726 10.8316V10.8273L28.5229 10.7776C28.3136 10.5684 28.0298 10.4509 27.7338 10.4509C27.4379 10.4509 27.1541 10.5684 26.9448 10.7776L26.9448 10.7777L23.13 14.5924L23.13 14.5924L20.9207 16.8027L20.9207 16.8027L18.9573 18.766C17.7839 17.972 16.3604 17.63 14.9513 17.8068C13.4947 17.9895 12.16 18.7134 11.2124 19.8347C10.2647 20.9559 9.77332 22.3925 9.83581 23.8593C9.89831 25.326 10.5101 26.7156 11.5497 27.7522L11.5498 27.7523C12.588 28.7853 13.9759 29.3914 15.4392 29.4509C16.9026 29.5104 18.335 29.0188 19.4536 28.0734C20.5721 27.128 21.2955 25.7975 21.4807 24.3447C21.6598 22.9393 21.3228 21.5183 20.5351 20.3446L22.379 18.5007L24.2668 20.3885C24.3705 20.4922 24.4936 20.5746 24.629 20.6307C24.7645 20.6869 24.9098 20.7158 25.0564 20.7158C25.2031 20.7158 25.3483 20.6869 25.4838 20.6307C25.6193 20.5746 25.7424 20.4922 25.8461 20.3885L29.1922 17.0424L29.1922 17.0423C29.4014 16.833 29.519 16.5492 29.519 16.2533C29.519 15.9573 29.4014 15.6735 29.1922 15.4642L27.3043 13.5754L28.5229 12.3568ZM12.3261 22.2329C12.5129 21.7925 12.7852 21.3935 13.1273 21.0591C13.8082 20.3934 14.7241 20.0231 15.6763 20.0285C16.6285 20.0339 17.5402 20.4146 18.2135 21.088C18.8868 21.7614 19.2673 22.6732 19.2726 23.6254C19.2778 24.5776 18.9073 25.4935 18.2415 26.1742C17.907 26.5162 17.508 26.7885 17.0676 26.9752C16.6272 27.1619 16.1541 27.2594 15.6757 27.2621C15.1973 27.2647 14.7232 27.1724 14.2807 26.9906C13.8383 26.8087 13.4363 26.5409 13.098 26.2026C12.7598 25.8643 12.4921 25.4622 12.3103 25.0197C12.1285 24.5773 12.0363 24.1031 12.039 23.6247C12.0417 23.1464 12.1393 22.6733 12.3261 22.2329ZM26.8258 16.2523L25.0569 18.0205L23.9569 16.922L25.727 15.1535L26.8258 16.2523Z" fill="white" stroke="white" stroke-width="0.338983"/>
<defs>
<linearGradient id="paint0_linear_16385_56121" x1="2.72727" y1="0.909089" x2="47" y2="43.5" gradientUnits="userSpaceOnUse">
<stop stop-color="#FF9F0A"/>
<stop offset="1" stop-color="#FFC874"/>
</linearGradient>
</defs>
</svg>
