<svg xmlns="http://www.w3.org/2000/svg" width="18" height="18" viewBox="0 0 18 18" fill="none">
<path d="M12.668 12H15.3346V9.33333H18.0013V13.3333H15.3346V14.6667H12.668V13.3333H10.0013V9.33333H12.668V12ZM0.667969 9.33333H8.66797V17.3333H0.667969V9.33333ZM3.33464 12V14.6667H6.0013V12H3.33464ZM0.667969 0H8.66797V8H0.667969V0ZM3.33464 2.66667V5.33333H6.0013V2.66667H3.33464ZM10.0013 0H18.0013V8H10.0013V0ZM12.668 2.66667V5.33333H15.3346V2.66667H12.668ZM15.3346 14.6667H18.0013V17.3333H15.3346V14.6667ZM10.0013 14.6667H12.668V17.3333H10.0013V14.6667Z" fill="currentColor"/>
</svg>
