<svg width="18" height="18" viewBox="0 0 18 18" fill="none" xmlns="http://www.w3.org/2000/svg">
<g clip-path="url(#clip0_16385_55998)">
<path d="M17.25 6C17.6625 6 18 5.6625 18 5.25V1.875C18 0.825 17.175 0 16.125 0H12.75C12.3375 0 12 0.3375 12 0.75C12 1.1625 12.3375 1.5 12.75 1.5H16.125C16.3125 1.5 16.5 1.6875 16.5 1.875V5.25C16.5 5.6625 16.8375 6 17.25 6ZM0.75 6C1.1625 6 1.5 5.6625 1.5 5.25V1.875C1.5 1.6875 1.6875 1.5 1.875 1.5H5.25C5.6625 1.5 6 1.1625 6 0.75C6 0.3375 5.6625 0 5.25 0H1.875C0.825001 0 0 0.825 0 1.875V5.25C0 5.6625 0.3375 6 0.75 6ZM1.875 18H5.25C5.6625 18 6 17.6625 6 17.25C6 16.8375 5.6625 16.5 5.25 16.5H1.875C1.6875 16.5 1.5 16.3125 1.5 16.125V12.75C1.5 12.3375 1.1625 12 0.75 12C0.3375 12 0 12.3375 0 12.75V16.125C0 17.175 0.825001 18 1.875 18ZM12.75 18H16.125C17.175 18 18 17.175 18 16.125V12.75C18 12.3375 17.6625 12 17.25 12C16.8375 12 16.5 12.3375 16.5 12.75V16.125C16.5 16.3125 16.3125 16.5 16.125 16.5H12.75C12.3375 16.5 12 16.8375 12 17.25C12 17.6625 12.3375 18 12.75 18Z" fill="black"/>
<path d="M0.75 9.9375H17.25C17.6625 9.9375 18 9.6 18 9.1875C18 8.775 17.6625 8.4375 17.25 8.4375H0.75C0.3375 8.4375 0 8.775 0 9.1875C0 9.6 0.3375 9.9375 0.75 9.9375Z" fill="black"/>
</g>
<defs>
<clipPath id="clip0_16385_55998">
<rect width="18" height="18" fill="white" transform="matrix(-1 0 0 1 18 0)"/>
</clipPath>
</defs>
</svg>
