<svg width="40" height="40" viewBox="0 0 40 40" fill="none" xmlns="http://www.w3.org/2000/svg">
<rect width="40" height="40" rx="14" fill="url(#paint0_linear_16449_63359)"/>
<g clip-path="url(#clip0_16449_63359)">
<path d="M7.72727 27.2738C7.72727 30.0303 9.96345 32.2727 12.7135 32.2727H19.5493C20.1662 32.2727 20.6662 31.7727 20.6662 31.1559C20.6663 30.539 20.1662 30.0389 19.5493 30.0389H12.7135C11.1935 30.0389 9.956 28.7991 9.956 27.2736V13.332C9.956 11.8068 11.1935 10.5667 12.7135 10.5667L25.4681 10.5669C26.9885 10.5669 28.2261 11.8068 28.2261 13.3323V16.1995C28.2261 16.8149 28.7249 17.3138 29.3402 17.3138C29.9556 17.3138 30.4545 16.8149 30.4545 16.1995V13.3323C30.4545 10.5757 28.2184 8.33335 25.4679 8.33335H12.7132C9.96344 8.33335 7.72727 10.5758 7.72727 13.3323V27.2738Z" fill="white" stroke="white" stroke-width="0.30303"/>
<path d="M14.2423 15.0001C13.6566 15.0001 13.1817 15.4749 13.1817 16.0607C13.1817 16.6465 13.6566 17.1213 14.2423 17.1213H17.8787C18.4645 17.1213 18.9393 16.6465 18.9393 16.0607C18.9393 15.4749 18.4645 15.0001 17.8787 15.0001H14.2423Z" fill="white" stroke="white" stroke-width="0.30303"/>
<path d="M14.2423 20.4544C13.6566 20.4544 13.1817 20.9293 13.1817 21.515C13.1817 22.1008 13.6566 22.5757 14.2423 22.5757H17.8787C18.4645 22.5757 18.9393 22.1008 18.9393 21.515C18.9393 20.9293 18.4645 20.4544 17.8787 20.4544H14.2423Z" fill="white" stroke="white" stroke-width="0.30303"/>
<path d="M28.433 33.1781C25.7874 33.1781 24.0918 32.1216 23.5769 30.7189C23.4881 30.4881 23.4348 30.2395 23.4348 29.9998C23.4348 29.2896 23.9231 28.8191 24.6156 28.8191C25.166 28.8191 25.53 29.0322 25.8496 29.6003C26.2668 30.5769 27.27 31.0208 28.4952 31.0208C29.9334 31.0208 30.91 30.3283 30.91 29.3873C30.91 28.5439 30.3063 28.0645 28.6994 27.736L27.3411 27.4697C24.7842 26.9636 23.5325 25.7385 23.5325 23.8297C23.5325 21.486 25.5744 19.9324 28.4242 19.9324C30.7679 19.9324 32.5346 20.9178 33.1028 22.5868C33.1649 22.7644 33.2004 22.9508 33.2004 23.1817C33.2004 23.8209 32.7388 24.2559 32.0552 24.2559C31.4515 24.2559 31.0786 24.0162 30.7768 23.4658C30.3507 22.4981 29.525 22.0986 28.4242 22.0986C27.1014 22.0986 26.2225 22.72 26.2225 23.6611C26.2225 24.4512 26.835 24.9395 28.3531 25.2413L29.7026 25.5165C32.4192 26.0581 33.5911 27.1501 33.5911 29.0943C33.5911 31.5979 31.6291 33.1781 28.433 33.1781Z" fill="white"/>
</g>
<defs>
<linearGradient id="paint0_linear_16449_63359" x1="43.3333" y1="40" x2="-0.303029" y2="-4.28562e-07" gradientUnits="userSpaceOnUse">
<stop stop-color="#9BA9FF"/>
<stop offset="1" stop-color="#7084FF"/>
</linearGradient>
<clipPath id="clip0_16449_63359">
<rect width="27.8788" height="27.8788" fill="white" transform="translate(6.06055 6.06055)"/>
</clipPath>
</defs>
</svg>
