<svg width="18" height="18" viewBox="0 0 18 18" fill="none" xmlns="http://www.w3.org/2000/svg">
<path opacity="0.962" d="M13.242 11.122C13.2422 11.122 13.2423 11.1217 13.2422 11.1216L12.493 10.3716C12.3216 10.2 12.3216 9.92206 12.4929 9.75038L13.2415 9.00021C13.5317 8.72437 13.7638 8.39323 13.9241 8.02631C14.0843 7.65938 14.1695 7.26408 14.1747 6.86371C14.1798 6.46334 14.1047 6.06599 13.9539 5.69508C13.803 5.32417 13.5795 4.98721 13.2964 4.70404C13.0133 4.42088 12.6764 4.19724 12.3055 4.0463C11.9347 3.89537 11.5373 3.8202 11.137 3.82521C10.7366 3.83022 10.3413 3.91532 9.97429 4.07549C9.60732 4.23567 9.27612 4.46767 9.00021 4.75783L8.46879 5.28869C8.17571 5.58146 7.70083 5.58133 7.40791 5.28841C7.11488 4.99538 7.11488 4.52029 7.40791 4.22726L7.93821 3.69696C8.78215 2.85302 9.92677 2.37891 11.1203 2.37891C12.3138 2.37891 13.4584 2.85302 14.3023 3.69696C15.1463 4.54089 15.6204 5.68552 15.6204 6.87902C15.6204 8.07253 15.1463 9.21715 14.3023 10.0611L13.2419 11.1216C13.2417 11.1217 13.2418 11.122 13.242 11.122ZM11.122 13.242C11.122 13.2418 11.1217 13.2417 11.1216 13.2419L10.0611 14.3023C9.21715 15.1463 8.07253 15.6204 6.87902 15.6204C5.68552 15.6204 4.54089 15.1463 3.69696 14.3023C2.85302 13.4584 2.37891 12.3138 2.37891 11.1203C2.37891 9.92677 2.85302 8.78215 3.69696 7.93821L4.22726 7.40791C4.52029 7.11488 4.99538 7.11488 5.28841 7.40791C5.58133 7.70083 5.58146 8.17571 5.28869 8.46879L4.75783 9.00021C4.21314 9.56643 3.91227 10.3237 3.91988 11.1094C3.92749 11.895 4.24297 12.6463 4.79853 13.2019C5.35409 13.7575 6.10541 14.0729 6.89106 14.0805C7.6767 14.0881 8.43399 13.7873 9.00021 13.2426L9.75036 12.4924C9.92197 12.3208 10.2002 12.3208 10.3718 12.4924L11.1216 13.2422C11.1217 13.2423 11.122 13.2422 11.122 13.242ZM11.122 5.81742C11.122 5.81707 11.1224 5.81689 11.1226 5.81714L11.8721 6.56661C12.0437 6.73822 12.0437 7.01645 11.8721 7.18806L7.4089 11.6513C7.11599 11.9442 6.64106 11.9441 6.3483 11.651C6.05577 11.3581 6.0559 10.8836 6.34858 10.591L11.1218 5.8177C11.1219 5.81763 11.122 5.81753 11.122 5.81742Z" fill="currentColor"/>
<path d="M4.5263 2.44444C4.41911 2.04444 4.65633 1.63325 5.05627 1.52581C5.45658 1.41827 5.86824 1.65579 5.97549 2.05619L6.36344 3.50452C6.47062 3.90467 6.23312 4.31594 5.83297 4.42313C5.43285 4.5303 5.0216 4.29285 4.91438 3.89273L4.5263 2.44444ZM11.6387 14.4959C11.5314 14.0957 11.7689 13.6844 12.1691 13.5772C12.5692 13.4701 12.9804 13.7075 13.0876 14.1076L13.4756 15.5555C13.5828 15.9557 13.3453 16.367 12.9452 16.4741C12.5451 16.5813 12.1339 16.3439 12.0266 15.9438L11.6387 14.4959ZM1.72113 4.33133C1.72113 4.33139 1.72117 4.33144 1.72123 4.33146L3.89398 4.91367C4.29384 5.02081 4.53111 5.43184 4.42393 5.83169C4.31676 6.23148 3.9058 6.46871 3.506 6.36158L1.50151 5.82446C1.40845 5.79952 1.35322 5.70386 1.37814 5.6108L1.72087 4.33129C1.72091 4.33114 1.72113 4.33117 1.72113 4.33133ZM13.7721 11.4425C13.7721 11.4419 13.7726 11.4416 13.7731 11.4417L15.9452 12.0235C16.3456 12.1308 16.5833 12.5422 16.4761 12.9426C16.3689 13.3431 15.9573 13.5808 15.5568 13.4736L14.6645 13.2345C13.9573 13.0451 13.5376 12.3183 13.727 11.6111L13.7721 11.4427C13.7721 11.4426 13.7721 11.4425 13.7721 11.4425Z" fill="currentColor"/>
</svg>
