<svg xmlns="http://www.w3.org/2000/svg" width="28" height="28" viewBox="0 0 28 28" fill="none">
<path fill-rule="evenodd" clip-rule="evenodd" d="M7.56184 20.1953C8.6447 21.3205 10.0122 22.1697 11.5486 22.6271C11.9032 21.5179 12.9424 20.7147 14.1693 20.7147C15.3961 20.7147 16.4354 21.5179 16.7899 22.6271C18.3263 22.1697 19.6939 21.3205 20.7767 20.1953C20.3728 19.7165 20.1293 19.0979 20.1293 18.4224C20.1293 16.9032 21.3609 15.6716 22.8801 15.6716C22.972 15.6716 23.0628 15.6762 23.1524 15.685C23.2745 15.0883 23.3386 14.4706 23.3386 13.8378C23.3386 12.8793 23.1915 11.9552 22.9187 11.0867L22.8801 11.087C21.3609 11.087 20.1293 9.85543 20.1293 8.33622C20.1293 7.90009 20.2308 7.4877 20.4114 7.1213C19.3511 6.13532 18.0568 5.39743 16.6211 5C16.1662 5.89174 15.239 6.50238 14.1693 6.50238C13.0995 6.50238 12.1724 5.89174 11.7175 5C10.2817 5.39743 8.98749 6.13532 7.92711 7.1213C8.10774 7.4877 8.20925 7.90009 8.20925 8.33622C8.20925 9.85543 6.97768 11.087 5.45846 11.087L5.41986 11.0867C5.14706 11.9552 5 12.8793 5 13.8378C5 14.4706 5.06409 15.0883 5.18613 15.685C5.27572 15.6762 5.36656 15.6716 5.45846 15.6716C6.97768 15.6716 8.20925 16.9032 8.20925 18.4224C8.20925 19.0979 7.9658 19.7165 7.56184 20.1953ZM17.3853 13.8382C17.3853 15.6106 15.9485 17.0474 14.176 17.0474C12.4036 17.0474 10.9668 15.6106 10.9668 13.8382C10.9668 12.0657 12.4036 10.6289 14.176 10.6289C15.9485 10.6289 17.3853 12.0657 17.3853 13.8382Z" fill="currentColor"/>
</svg>
