<svg width="28" height="28" viewBox="0 0 28 28" fill="none" xmlns="http://www.w3.org/2000/svg">
<path d="M13.9984 26.6004C17.4778 26.6004 20.6278 25.1901 22.908 22.9099C25.1881 20.6298 26.5984 17.4798 26.5984 14.0004C26.5984 10.521 25.1881 7.37103 22.908 5.09084C20.6278 2.8107 17.4778 1.40039 13.9984 1.40039C10.5191 1.40039 7.36907 2.8107 5.08889 5.09084C2.80874 7.37103 1.39844 10.521 1.39844 14.0004C1.39844 17.4798 2.80874 20.6298 5.08889 22.9099C7.36907 25.1901 10.5191 26.6004 13.9984 26.6004Z" fill="#FF9F0A"/>
<path d="M14.4375 14.7308V8" stroke="white" stroke-width="2.40385" stroke-linecap="round" stroke-linejoin="round"/>
<path d="M15.8245 19.0575C15.8245 19.8209 15.2057 20.4398 14.4423 20.4398C13.6789 20.4398 13.0601 19.8209 13.0601 19.0575C13.0601 18.2942 13.6789 17.6753 14.4423 17.6753C15.2057 17.6753 15.8245 18.2942 15.8245 19.0575Z" fill="white" stroke="white" stroke-width="0.120192"/>
</svg>
