<svg width="15" height="15" viewBox="0 0 15 15" fill="none" xmlns="http://www.w3.org/2000/svg">
<path fill-rule="evenodd" clip-rule="evenodd" d="M12.8912 12.2911C11.5883 13.594 9.78826 14.3999 7.80006 14.3999C5.81186 14.3999 4.01187 13.594 2.70892 12.2911C1.40598 10.9882 0.600098 9.18816 0.600098 7.19996C0.600098 5.21177 1.40598 3.41177 2.70892 2.10882C4.01187 0.805885 5.81186 0 7.80006 0C9.78826 0 11.5883 0.805885 12.8912 2.10882C14.1941 3.41177 15 5.21177 15 7.19996C15 9.18816 14.1941 10.9882 12.8912 12.2911ZM8.93073 3.62333C8.93073 3.11296 8.51699 2.69922 8.00663 2.69922C7.49626 2.69922 7.08252 3.11296 7.08252 3.62333C7.08252 4.13369 7.49626 4.54743 8.00663 4.54743C8.51699 4.54743 8.93073 4.13369 8.93073 3.62333ZM7.45534 5.47266C7.14912 5.47266 6.90088 5.7209 6.90088 6.02712C6.90088 6.33334 7.14912 6.58158 7.45534 6.58158H7.64016V10.6445H6.90066C6.59443 10.6445 6.34619 10.8928 6.34619 11.199C6.34619 11.5052 6.59443 11.7535 6.90066 11.7535H8.13541C8.15487 11.7555 8.17462 11.7566 8.19463 11.7566C8.21463 11.7566 8.23439 11.7555 8.25385 11.7535H9.48816C9.79438 11.7535 10.0426 11.5052 10.0426 11.199C10.0426 10.8928 9.79438 10.6445 9.48816 10.6445H8.74909V6.02712C8.74909 5.7209 8.50085 5.47266 8.19463 5.47266H7.45534Z" fill="currentColor"/>
</svg>
