<svg width="12" height="12" viewBox="0 0 12 12" fill="none" xmlns="http://www.w3.org/2000/svg">
<path d="M6 0C7.65656 5.24363e-05 9.1565 0.671299 10.2422 1.75684C11.3279 2.8426 12 4.34321 12 6C11.9999 7.65671 11.3279 9.15648 10.2422 10.2422C9.15648 11.3279 7.65671 11.9999 6 12C4.34321 12 2.8426 11.3279 1.75684 10.2422C0.671299 9.1565 5.2436e-05 7.65656 0 6C0 4.34321 0.671087 2.8426 1.75684 1.75684C2.8426 0.671087 4.34321 0 6 0ZM5.71191 4.55957C5.45699 4.55974 5.25017 4.76656 5.25 5.02148C5.25011 5.27647 5.45695 5.48322 5.71191 5.4834H5.86621V8.87012H5.25C4.99506 8.8704 4.78809 9.07703 4.78809 9.33203C4.78823 9.58692 4.99515 9.79367 5.25 9.79395H6.30762C6.31437 9.79424 6.3213 9.79587 6.32812 9.7959C6.33496 9.7959 6.34188 9.79427 6.34863 9.79395H7.40625C7.66134 9.79395 7.86802 9.58709 7.86816 9.33203C7.86816 9.07685 7.66143 8.87012 7.40625 8.87012H6.79004V5.02148C6.78987 4.76646 6.58318 4.55959 6.32812 4.55957H5.71191ZM6.17285 2.24902C5.74776 2.24913 5.40253 2.59348 5.40234 3.01855C5.40245 3.44369 5.74771 3.78896 6.17285 3.78906C6.59788 3.78883 6.94228 3.44361 6.94238 3.01855C6.9422 2.59356 6.59783 2.24926 6.17285 2.24902Z" fill="currentColor"/>
</svg>
