<svg width="18" height="18" viewBox="0 0 18 18" fill="none" xmlns="http://www.w3.org/2000/svg">
<path d="M10.1521 3.525C10.1521 3.58333 10.2688 3.7 10.4438 3.99167C10.6188 4.28333 10.7938 4.575 11.0271 5.04167C11.2604 5.50833 11.5521 5.91667 11.8438 6.44167C12.1354 6.96667 12.4854 7.49167 12.7771 8.01667C13.0688 8.54167 13.4188 9.125 13.7104 9.65C14.0021 10.175 14.2938 10.7 14.5854 11.1083C14.8188 11.575 15.0521 11.925 15.2854 12.275C15.5188 12.625 15.5771 12.8 15.6938 12.9167C15.8104 13.15 15.9271 13.3833 15.9271 13.6167C15.9854 13.85 15.9271 14.025 15.8688 14.2583C15.8104 14.4917 15.6938 14.6083 15.5771 14.725C15.4021 14.8417 15.2271 14.9 14.9938 14.9H3.21042C2.86042 14.9 2.56875 14.8417 2.39375 14.725C2.21875 14.6083 2.10208 14.4333 2.04375 14.2583C1.98542 14.0833 1.98542 13.85 2.04375 13.675C2.10208 13.4417 2.16042 13.2667 2.33542 13.0333C2.39375 12.9167 2.51042 12.7417 2.68542 12.3917C2.86042 12.1 3.09375 11.6917 3.38542 11.2833C3.67708 10.8167 3.96875 10.35 4.26042 9.825C4.55208 9.3 4.90208 8.71667 5.25208 8.19167C5.60208 7.66667 5.89375 7.08333 6.18542 6.55833C6.47708 6.03333 6.76875 5.56667 7.00208 5.15833C7.23542 4.75 7.46875 4.4 7.64375 4.10833L7.93542 3.64167C8.05208 3.46667 8.22708 3.29167 8.46042 3.175C8.69375 3.05833 8.86875 3 9.10208 3C9.33542 3 9.51042 3.05833 9.74375 3.11667C9.86042 3.175 10.0354 3.35 10.1521 3.525ZM9.80208 6.20833C9.80208 6.09167 9.80208 5.975 9.74375 5.91667C9.68542 5.8 9.62708 5.74167 9.56875 5.68333C9.51042 5.625 9.39375 5.56667 9.27708 5.50833C9.16042 5.45 9.04375 5.39167 8.92708 5.39167C8.69375 5.39167 8.51875 5.45 8.34375 5.625C8.16875 5.8 8.05208 5.975 8.05208 6.20833V9.825C8.05208 10.0583 8.16875 10.2333 8.34375 10.4083C8.51875 10.5833 8.69375 10.6417 8.92708 10.6417C9.16042 10.6417 9.33542 10.5833 9.51042 10.4083C9.68542 10.2333 9.80208 10.0583 9.80208 9.825V6.20833ZM8.92708 11.4583C8.69375 11.4583 8.46042 11.5167 8.34375 11.6917C8.22708 11.8667 8.11042 12.0417 8.11042 12.275C8.11042 12.5083 8.16875 12.7417 8.34375 12.8583C8.51875 13.0333 8.69375 13.0917 8.92708 13.0917C9.16042 13.0917 9.39375 13.0333 9.51042 12.8583C9.68542 12.6833 9.74375 12.5083 9.74375 12.275C9.74375 12.0417 9.68542 11.8083 9.51042 11.6917C9.39375 11.5167 9.16042 11.4583 8.92708 11.4583Z" fill="currentColor"/>
</svg>
