<svg width="11" height="11" viewBox="0 0 11 11" fill="none" xmlns="http://www.w3.org/2000/svg">
<g clip-path="url(#clip0_21679_87733)">
<path d="M10.7633 8.96144L6.45229 1.49518C5.92499 0.582337 5.06323 0.582337 4.53607 1.49518L0.225015 8.96144C-0.302147 9.87521 0.129128 10.6206 1.18272 10.6206H9.80558C10.8592 10.6206 11.29 9.87516 10.7633 8.96144ZM4.90205 3.61365C5.05696 3.44616 5.25392 3.3624 5.49412 3.3624C5.73445 3.3624 5.93122 3.44528 6.0863 3.6103C6.24037 3.7757 6.31738 3.98254 6.31738 4.23127C6.31738 4.44528 5.99579 6.01894 5.88852 7.16378H5.11392C5.01984 6.01893 4.6709 4.44528 4.6709 4.23127C4.67092 3.98632 4.74805 3.78032 4.90205 3.61365ZM6.07545 9.05738C5.9125 9.21607 5.7186 9.29515 5.49417 9.29515C5.2698 9.29515 5.07584 9.21607 4.91293 9.05738C4.75046 8.89905 4.6697 8.70728 4.6697 8.48205C4.6697 8.258 4.75046 8.06415 4.91293 7.90168C5.07584 7.73915 5.2698 7.65789 5.49417 7.65789C5.7186 7.65789 5.9125 7.73915 6.07545 7.90168C6.23782 8.06415 6.31876 8.258 6.31876 8.48205C6.31876 8.70728 6.23782 8.89905 6.07545 9.05738Z" fill="#FF564B"/>
</g>
<defs>
<clipPath id="clip0_21679_87733">
<rect width="10.998" height="10.8917" fill="white"/>
</clipPath>
</defs>
</svg>
