<svg width="16" height="16" viewBox="0 0 16 16" fill="none" xmlns="http://www.w3.org/2000/svg">
<rect width="16" height="16" rx="8" fill="#102623"/>
<path d="M12.8697 7.96502C12.8785 8.80869 12.7112 9.61485 12.3825 10.3851C11.9132 11.4819 10.7879 12.3787 9.76027 11.4241C8.92224 10.646 8.76676 9.70413 7.51119 9.47291C5.84989 9.26043 5.80991 10.6554 4.7246 10.885C3.51491 11.1444 3.11365 8.99772 3.13142 8.02281C3.14919 7.0479 3.39498 5.67771 4.44624 5.67771C5.65593 5.67771 5.73736 6.97268 7.2728 6.868C8.79343 6.75864 8.82007 5.38555 9.81358 4.52469C10.6709 3.78101 11.6792 4.32627 12.1841 5.2215C12.652 6.04955 12.8578 7.02134 12.8682 7.96502H12.8697Z" fill="#AFFAE5"/>
</svg>
