<svg width="90" height="71" viewBox="0 0 90 71" fill="none" xmlns="http://www.w3.org/2000/svg">
<path opacity="0.15" d="M89.9969 35.0166C90.0789 42.813 88.5327 50.2629 85.4953 57.3807C81.1578 67.516 70.7589 75.8036 61.2629 66.9819C53.5185 59.7918 52.0818 51.0879 40.479 48.9512C25.1268 46.9876 24.7573 59.8784 14.7279 62.0008C3.54902 64.3976 -0.159006 44.5599 0.00518791 35.5507C0.169381 26.5415 2.44072 13.8794 12.1555 13.8794C23.3343 13.8794 24.0869 25.8463 38.276 24.879C52.3282 23.8684 52.5744 11.1795 61.7555 3.22429C69.6778 -3.64813 78.9959 1.39068 83.6616 9.66357C87.9855 17.3156 89.8874 26.296 89.983 35.0166H89.9969Z" fill="#E0E5EC" fill-opacity="0.5"/>
</svg>
