<svg width="18" height="18" viewBox="0 0 18 18" fill="none" xmlns="http://www.w3.org/2000/svg">
<path d="M9 2C10.933 2 12.6834 2.78306 13.9502 4.0498C15.2169 5.31657 16 7.06702 16 9C16 10.933 15.217 12.6834 13.9502 13.9502C12.6834 15.217 10.933 16 9 16C7.06702 16 5.31657 15.2169 4.0498 13.9502C2.78306 12.6834 2 10.933 2 9C2 7.06702 2.78306 5.31657 4.0498 4.0498C5.31657 2.78306 7.06702 2 9 2ZM8.60938 7.27344C8.30315 7.27344 8.05469 7.5219 8.05469 7.82812C8.05481 8.13424 8.30323 8.38281 8.60938 8.38281H8.79395V12.4453H8.05469C7.74847 12.4453 7.5 12.6938 7.5 13C7.50012 13.3061 7.74854 13.5547 8.05469 13.5547H9.32031C9.32966 13.5552 9.33917 13.5576 9.34863 13.5576C9.35783 13.5576 9.36689 13.5551 9.37598 13.5547H10.6416C10.9477 13.5547 11.1962 13.3061 11.1963 13C11.1963 12.6938 10.9478 12.4453 10.6416 12.4453H9.90332V7.82812C9.90332 7.52197 9.65477 7.27354 9.34863 7.27344H8.60938ZM9.16016 4.5C8.65001 4.50015 8.23648 4.91368 8.23633 5.42383C8.23633 5.9341 8.64992 6.34848 9.16016 6.34863C9.67052 6.34863 10.085 5.93419 10.085 5.42383C10.0848 4.91359 9.67043 4.5 9.16016 4.5Z" fill="currentColor"/>
</svg>
