<svg width="35" height="35" viewBox="0 0 35 35" fill="none" xmlns="http://www.w3.org/2000/svg">
<path d="M17.4984 9.67656C19.5328 9.67656 21.5016 10.4859 22.9453 11.9297C23.6612 12.6444 24.2287 13.4935 24.6154 14.4283C25.0021 15.3631 25.2002 16.365 25.1984 17.3766V25.3609C25.8328 25.7328 26.2484 26.3891 26.2922 27.1109V27.2641H8.70469C8.70469 26.4766 9.12031 25.7547 9.79844 25.3609V17.3766C9.79844 13.1109 13.2328 9.67656 17.4984 9.67656ZM16.4047 17.9234C15.5516 17.9234 14.8297 18.5797 14.7641 19.4328V23.9609H18.0672V19.4109C18.0238 19.001 17.8297 18.6218 17.5225 18.3469C17.2153 18.0721 16.8169 17.9211 16.4047 17.9234ZM9.18594 6.94219L10.7391 8.49531C11.0234 8.77969 11.1547 9.19531 11.0453 9.58906C10.9578 9.96094 10.6516 10.2672 10.2578 10.3766C10.0679 10.4214 9.86961 10.4167 9.68196 10.3631C9.49432 10.3095 9.32354 10.2087 9.18594 10.0703L7.63281 8.49531C7.19531 8.07969 7.19531 7.37969 7.63281 6.94219C8.04844 6.52656 8.74844 6.50469 9.18594 6.94219ZM25.8109 6.94219C26.2266 6.50469 26.9266 6.50469 27.3641 6.94219C27.8016 7.35781 27.8016 8.05781 27.3641 8.49531L25.8109 10.0703C25.5266 10.3547 25.1328 10.4859 24.7391 10.3766C24.5497 10.327 24.377 10.228 24.2386 10.0896C24.1002 9.95116 24.0011 9.77841 23.9516 9.58906C23.8422 9.19531 23.9734 8.80156 24.2578 8.51719L25.8109 6.94219ZM17.4984 3.07031C18.1109 3.07031 18.5922 3.55156 18.5922 4.16406V6.37344C18.5922 6.76719 18.3734 7.13906 18.0453 7.33594C17.7172 7.53281 17.2797 7.53281 16.9516 7.33594C16.7847 7.2368 16.6465 7.09591 16.5506 6.92714C16.4547 6.75837 16.4044 6.56754 16.4047 6.37344V4.16406C16.4047 3.57344 16.8859 3.07031 17.4984 3.07031Z" fill="currentColor"/>
</svg>
