<svg width="123" height="101" viewBox="0 0 123 101" fill="none" xmlns="http://www.w3.org/2000/svg">
<mask id="mask0_56810_238608" style="mask-type:alpha" maskUnits="userSpaceOnUse" x="0" y="29" width="123" height="72">
<rect width="53.7055" height="88.3256" transform="matrix(0.866025 0.5 -0.866025 0.5 76.4922 29.3589)" fill="#D9D9D9"/>
</mask>
<g mask="url(#mask0_56810_238608)">
<rect width="53.7055" height="11.54" transform="matrix(0.866025 0.5 0 1 76.4922 29.3589)" fill="#DEF2EF"/>
<rect width="88.3256" height="11.54" transform="matrix(0.866025 -0.5 0 1 -0.0078125 73.521)" fill="#DEF2EF"/>
<rect width="53.7055" height="88.3256" transform="matrix(0.866025 0.5 -0.866025 0.5 76.4922 40.8975)" fill="black"/>
</g>
<path d="M77.0664 1.10547C78.8491 0.798556 80.48 1.087 81.8779 1.82422L82.0264 1.90918C82.1239 1.96357 82.2212 2.01837 82.3164 2.07715L87.9395 5.32422C87.9343 5.3215 87.929 5.31911 87.9238 5.31641L87.9375 5.32422C89.0357 5.90346 89.991 6.75968 90.7637 7.82324L91.0498 8.23047C93.5777 11.9341 94.8535 17.0206 95.1875 22.5518L95.2656 22.5967L95.2891 25.0781C95.29 25.1669 95.2888 25.2567 95.2891 25.3457L95.2998 25.3516C95.3224 31.3395 94.224 37.7079 92.1113 44.3848L92.1104 44.3877C90.5198 49.4025 87.7608 54.9026 84.3037 58.8672C82.5465 60.8821 80.5703 62.5389 78.498 63.4424C76.4174 64.3492 74.3968 64.4276 72.5312 63.5947L71.3076 62.8887C71.3147 62.8937 71.322 62.8983 71.3291 62.9033L72.5264 63.5947C72.3431 63.513 72.1652 63.423 71.9922 63.3262L65.9297 59.8262C65.9412 59.8326 65.9532 59.8383 65.9648 59.8447L65.9326 59.8262C64.6636 59.1155 63.6613 58.022 62.7998 56.8887C62.3084 56.2422 61.8446 55.5575 61.4033 54.9043C61.1339 54.5055 60.8716 54.119 60.6104 53.7461C60.3547 53.8055 60.0893 53.8845 59.8135 53.9854C57.7549 54.8962 56.3403 56.1959 55.2295 57.6279C54.0395 59.1624 53.0447 61.0424 52.001 63.3066C51.0536 65.3618 49.8963 68.147 48.6963 70.4326C47.4157 72.8714 45.7545 75.436 43.4238 77.3262L43.4258 77.3271C40.8623 79.4109 38.6504 79.8559 36.9121 79.1973C36.7133 79.1219 36.5211 79.0327 36.3359 78.9307L36.2539 78.8828C36.2808 78.8983 36.3068 78.9157 36.334 78.9307L30.2715 75.4307C28.9129 74.6819 27.9145 73.2495 27.1787 71.6377C25.5059 67.9728 24.8822 62.681 24.9414 59.0645C24.9419 59.0358 24.9427 59.0064 24.9434 58.9775L24.9375 58.9736C25.0003 55.5169 25.4212 50.9536 26.7803 46.6025C28.1831 42.1118 30.7973 37.3042 35.2109 34.7559C37.7112 33.3125 39.6217 33.3425 41.1543 33.9609C41.3704 34.0481 41.5817 34.1481 41.7881 34.2588L41.9922 34.373L48.0547 37.873C48.3902 38.0665 48.7114 38.2869 49.0215 38.5176C49.9942 38.4742 51.1012 38.084 52.4531 37.2031L52.7744 36.9854C56.0539 34.6888 57.8708 31.1461 59.7129 26.1348C60.1855 24.8491 60.6351 23.5356 61.1143 22.1465C61.5862 20.7782 62.0841 19.3443 62.623 17.9189C63.6947 15.085 65.0083 12.0626 66.8428 9.25098C70.0953 4.26334 73.7752 1.67235 77.0664 1.10547ZM31.29 67.5352C31.6189 70.1806 32.2423 72.9493 33.2412 75.1377C33.35 75.376 33.4654 75.61 33.5859 75.8389C34.7322 75.5778 35.9965 74.9363 37.3604 73.8281H37.3594V73.8271C37.701 73.5502 38.0261 73.2565 38.3398 72.9531L33.208 69.9912C32.5076 69.5589 31.858 68.7282 31.29 67.5352ZM42.7461 42.7373C42.2938 42.8112 41.8122 42.993 41.2773 43.3018C39.2227 44.4881 37.8446 46.6318 36.8467 49.8262C35.8388 53.0531 35.4404 56.7781 35.375 59.9434L35.3818 59.9473L35.375 59.9502V59.9512L35.373 59.9502C35.3717 60.0131 35.3711 60.0762 35.3701 60.1387C35.3283 62.695 35.7124 66.3362 36.6533 69.248C37.5946 68.4351 38.4288 67.2614 39.3408 65.5244C40.3843 63.5371 41.1788 61.5463 42.4053 58.8857C43.5355 56.4339 44.9373 53.656 46.877 51.1553C48.0165 49.6862 49.2943 48.375 50.7373 47.2734C50.3619 47.1367 50.0075 46.9714 49.6719 46.7852L43.6094 43.2852C43.625 43.2938 43.6415 43.301 43.6572 43.3096L43.6143 43.2852C43.3104 43.1165 43.022 42.931 42.7461 42.7373ZM63.6104 47.9688C62.6913 47.9779 61.6667 48.1681 60.5166 48.5986L60.4609 48.6191L60.4033 48.6445L59.8438 48.9004C58.9221 49.3428 58.0571 49.8612 57.2432 50.4443C57.393 50.5104 57.5404 50.5856 57.6846 50.6699L57.7168 50.6885C57.7069 50.6826 57.6975 50.6758 57.6875 50.6699L63.75 54.1699C64.6091 54.6724 65.377 55.4896 66.1523 56.5234C66.5929 57.1109 67.018 57.7414 67.4658 58.4043C67.907 59.0574 68.37 59.7423 68.8613 60.3887C68.9333 60.4834 69.008 60.5769 69.082 60.6709C70.1713 60.6857 71.2944 60.4398 72.4355 59.9424C73.4476 59.5012 74.4359 58.8795 75.3877 58.125L75.2344 58.0527L75.2236 58.0469C75.111 57.9896 75 57.9274 74.8906 57.8604H74.8896L69.0303 54.4766C68.9625 54.4393 68.8947 54.4012 68.8281 54.3604L68.5225 54.1582C67.8186 53.6566 67.1741 52.9533 66.5303 52.1064C66.0865 51.5225 65.6597 50.8933 65.2139 50.2334C64.7747 49.5831 64.3148 48.899 63.8311 48.2539C63.7592 48.1581 63.6842 48.0639 63.6104 47.9688ZM81.6797 10.2021C79.7734 10.5306 77.7128 11.9272 75.6904 15.0283L75.6895 15.0293C74.468 16.901 73.4677 19.1099 72.4971 21.6768C72.015 22.9516 71.5598 24.2627 71.0869 25.6338C70.6211 26.9841 70.1337 28.4079 69.6191 29.8076C67.6915 35.0511 65.0193 40.9658 59.8154 44.8584C60.0214 44.936 60.2209 45.0242 60.4141 45.1211L60.6748 45.2588C60.8075 45.3331 60.9366 45.4127 61.0635 45.4951L66.4766 48.6211C67.8869 49.329 68.9688 50.5223 69.8926 51.7539C70.3764 52.3991 70.8372 53.0831 71.2764 53.7334C71.552 54.1413 71.8214 54.5369 72.0908 54.918C72.3909 54.8483 72.6837 54.7504 72.9668 54.627C74.0608 54.1499 75.1828 53.2468 76.3076 51.957C78.6151 49.3108 80.762 45.2169 82.0596 41.126C83.8691 35.4063 84.8224 29.9981 84.8643 24.9053L84.8594 24.3867L84.8516 24.3828L84.8535 24.3809V24.1621C84.7991 18.7375 83.8187 13.7833 81.6924 10.1992C81.6881 10.1999 81.684 10.2014 81.6797 10.2021ZM45.4365 37.0664C44.2565 37.0078 42.8874 37.3235 41.2725 38.2559C40.4851 38.7105 39.7553 39.2374 39.0791 39.8213L45.0029 43.2412C44.9869 43.2319 44.9701 43.224 44.9541 43.2148L45 43.2412C45.4114 43.4804 45.8121 43.7835 46.2354 44.1318C47.9508 44.3051 50.0581 43.8209 52.7412 42.0703L52.75 42.0645C52.9366 41.9419 53.1202 41.8169 53.3008 41.6895C53.0157 41.5705 52.7366 41.4248 52.4609 41.2539L46.7471 37.9541L46.3994 37.7539C46.0769 37.554 45.7589 37.321 45.4365 37.0664ZM84.8193 4.49121C84.2739 4.47003 83.7095 4.50552 83.1289 4.60547C81.5301 4.8808 79.8402 5.63491 78.1514 6.9082C78.4644 7.01767 78.7697 7.15753 79.0635 7.3291L79.1621 7.38574C79.1314 7.36696 79.1013 7.3472 79.0703 7.3291L85.1328 10.8291C85.8321 11.2376 86.4696 11.8198 87.0098 12.5635L87.0107 12.5654C87.7099 13.5256 88.3067 14.613 88.8096 15.8037C88.2312 11.5472 87.0112 7.69557 84.9873 4.73047L84.8193 4.49121Z" fill="#51D2C1"/>
<path d="M77.0664 1.10547L77.0458 0.985906L77.0458 0.985908L77.0664 1.10547ZM81.8779 1.82422L81.9382 1.71886L81.9345 1.71691L81.8779 1.82422ZM82.0264 1.90918L81.9661 2.01448L81.9673 2.01514L82.0264 1.90918ZM82.3164 2.07715L82.2526 2.18042L82.2557 2.18221L82.3164 2.07715ZM87.9395 5.32422L87.8829 5.43153C87.9413 5.46236 88.0137 5.44072 88.0457 5.38286C88.0776 5.325 88.0574 5.25221 88.0001 5.21916L87.9395 5.32422ZM87.9238 5.31641L87.9802 5.20896C87.9216 5.17824 87.8492 5.20011 87.8174 5.25813C87.7856 5.31615 87.8062 5.38892 87.8636 5.42174L87.9238 5.31641ZM87.9375 5.32422L87.8773 5.42962L87.8809 5.43153L87.9375 5.32422ZM90.7637 7.82324L90.863 7.75348L90.8618 7.75193L90.7637 7.82324ZM91.0498 8.23047L91.15 8.16207L91.1491 8.16072L91.0498 8.23047ZM95.1875 22.5518L95.0664 22.5591C95.0689 22.5998 95.0916 22.6366 95.127 22.6569L95.1875 22.5518ZM95.2656 22.5967L95.3869 22.5955C95.3865 22.5525 95.3634 22.5129 95.3261 22.4915L95.2656 22.5967ZM95.2891 25.0781L95.1677 25.0793V25.0794L95.2891 25.0781ZM95.2891 25.3457L95.1677 25.3461C95.1679 25.3903 95.1921 25.431 95.231 25.4522L95.2891 25.3457ZM95.2998 25.3516L95.4211 25.3511C95.421 25.3069 95.3967 25.2662 95.3579 25.2451L95.2998 25.3516ZM92.1113 44.3848L92.2264 44.4231L92.227 44.4214L92.1113 44.3848ZM92.1104 44.3877L91.9952 44.3493L91.9947 44.351L92.1104 44.3877ZM84.3037 58.8672L84.3951 58.9469L84.3951 58.9469L84.3037 58.8672ZM78.498 63.4424L78.5465 63.5536L78.5465 63.5536L78.498 63.4424ZM72.5312 63.5947L72.4703 63.7004L72.4818 63.7055L72.5312 63.5947ZM71.3076 62.8887L71.3683 62.7836C71.3122 62.7513 71.2407 62.7686 71.2057 62.8229C71.1706 62.8772 71.1843 62.9495 71.2369 62.9872L71.3076 62.8887ZM71.3291 62.9033L71.2584 63.0026L71.2684 63.0084L71.3291 62.9033ZM72.5264 63.5947L72.4769 63.7055C72.5359 63.7318 72.6051 63.7074 72.6344 63.6499C72.6638 63.5924 72.6429 63.5219 72.587 63.4897L72.5264 63.5947ZM71.9922 63.3262L71.9315 63.4313L71.9329 63.432L71.9922 63.3262ZM65.9297 59.8262L65.989 59.7203C65.9308 59.6877 65.8572 59.7082 65.8242 59.7662C65.7913 59.8242 65.8113 59.8979 65.869 59.9312L65.9297 59.8262ZM65.9648 59.8447L65.9062 59.9509C65.9645 59.9831 66.0378 59.9623 66.0705 59.9043C66.1032 59.8463 66.0831 59.7728 66.0254 59.7396L65.9648 59.8447ZM65.9326 59.8262L65.9932 59.721L65.9919 59.7203L65.9326 59.8262ZM62.7998 56.8887L62.7032 56.9621V56.9621L62.7998 56.8887ZM61.4033 54.9043L61.3028 54.9722V54.9722L61.4033 54.9043ZM60.6104 53.7461L60.7097 53.6765C60.6813 53.6359 60.6311 53.6167 60.5829 53.6279L60.6104 53.7461ZM59.8135 53.9854L59.7717 53.8712L59.7644 53.8744L59.8135 53.9854ZM55.2295 57.6279L55.1336 57.5536L55.1336 57.5536L55.2295 57.6279ZM52.001 63.3066L51.8908 63.2559H51.8908L52.001 63.3066ZM48.6963 70.4326L48.8037 70.489L48.8037 70.489L48.6963 70.4326ZM43.4238 77.3262L43.3474 77.2319C43.3154 77.2579 43.2987 77.2984 43.3032 77.3394C43.3077 77.3803 43.3327 77.4162 43.3696 77.4347L43.4238 77.3262ZM43.4258 77.3271L43.5023 77.4213C43.5343 77.3953 43.5509 77.3549 43.5464 77.3139C43.5419 77.2729 43.5169 77.2371 43.48 77.2186L43.4258 77.3271ZM36.9121 79.1973L36.8691 79.3107L36.8691 79.3107L36.9121 79.1973ZM36.3359 78.9307L36.2748 79.0355L36.2774 79.0369L36.3359 78.9307ZM36.2539 78.8828L36.3146 78.7777C36.2566 78.7443 36.1825 78.7641 36.149 78.8219C36.1154 78.8798 36.135 78.9539 36.1928 78.9876L36.2539 78.8828ZM36.334 78.9307L36.2754 79.0369C36.3337 79.069 36.407 79.0482 36.4397 78.9903C36.4723 78.9323 36.4523 78.8589 36.3946 78.8256L36.334 78.9307ZM30.2715 75.4307L30.3322 75.3256L30.33 75.3244L30.2715 75.4307ZM27.1787 71.6377L27.0683 71.6881H27.0683L27.1787 71.6377ZM24.9414 59.0645L24.8201 59.0625L24.8201 59.0625L24.9414 59.0645ZM24.9434 58.9775L25.0647 58.9802C25.0656 58.9387 25.0452 58.8996 25.0107 58.8766L24.9434 58.9775ZM24.9375 58.9736L24.8162 58.9714C24.8154 59.0128 24.8358 59.0516 24.8702 59.0746L24.9375 58.9736ZM26.7803 46.6025L26.6645 46.5664L26.6645 46.5664L26.7803 46.6025ZM35.2109 34.7559L35.1503 34.6508L35.1503 34.6508L35.2109 34.7559ZM41.1543 33.9609L41.1997 33.8484L41.1997 33.8484L41.1543 33.9609ZM41.7881 34.2588L41.8474 34.1529L41.8454 34.1519L41.7881 34.2588ZM41.9922 34.373L42.0529 34.268L42.0515 34.2672L41.9922 34.373ZM48.0547 37.873L47.994 37.9781L47.9941 37.9781L48.0547 37.873ZM49.0215 38.5176L48.9491 38.6149C48.9715 38.6316 48.999 38.64 49.0269 38.6388L49.0215 38.5176ZM52.4531 37.2031L52.5194 37.3048L52.5212 37.3036L52.4531 37.2031ZM52.7744 36.9854L52.8425 37.0858L52.844 37.0847L52.7744 36.9854ZM59.7129 26.1348L59.599 26.0929V26.0929L59.7129 26.1348ZM61.1143 22.1465L61.2289 22.186V22.186L61.1143 22.1465ZM62.623 17.9189L62.5096 17.876V17.876L62.623 17.9189ZM66.8428 9.25098L66.9444 9.31727L66.9444 9.31725L66.8428 9.25098ZM31.29 67.5352L31.3996 67.483C31.374 67.4293 31.3132 67.402 31.256 67.4187C31.1989 67.4354 31.1623 67.4911 31.1696 67.5501L31.29 67.5352ZM33.2412 75.1377L33.1308 75.1881H33.1308L33.2412 75.1377ZM33.5859 75.8389L33.4786 75.8954C33.5042 75.944 33.5593 75.9694 33.6129 75.9572L33.5859 75.8389ZM37.3604 73.8281L37.4369 73.9223C37.4767 73.8899 37.4919 73.8359 37.4747 73.7875C37.4575 73.7391 37.4117 73.7068 37.3604 73.7068V73.8281ZM37.3594 73.8281H37.2381C37.2381 73.8951 37.2924 73.9494 37.3594 73.9494V73.8281ZM37.3594 73.8271L37.283 73.7329C37.2546 73.7559 37.2381 73.7906 37.2381 73.8271H37.3594ZM38.3398 72.9531L38.4242 73.0403C38.4516 73.0139 38.4649 72.9761 38.4603 72.9383C38.4556 72.9005 38.4335 72.8671 38.4005 72.848L38.3398 72.9531ZM33.208 69.9912L33.1443 70.0945L33.1474 70.0963L33.208 69.9912ZM42.7461 42.7373L42.8158 42.638C42.7899 42.6198 42.7578 42.6125 42.7265 42.6176L42.7461 42.7373ZM41.2773 43.3018L41.2167 43.1967L41.2167 43.1967L41.2773 43.3018ZM36.8467 49.8262L36.7309 49.79L36.7309 49.79L36.8467 49.8262ZM35.375 59.9434L35.2537 59.9409C35.2528 59.9853 35.2762 60.0266 35.3148 60.0487L35.375 59.9434ZM35.3818 59.9473L35.4296 60.0588C35.4719 60.0406 35.5003 60.0001 35.503 59.9542C35.5056 59.9082 35.482 59.8648 35.442 59.8419L35.3818 59.9473ZM35.375 59.9502L35.3272 59.8387C35.2826 59.8578 35.2537 59.9017 35.2537 59.9502H35.375ZM35.375 59.9512L35.3207 60.0597C35.3584 60.0785 35.403 60.0765 35.4388 60.0544C35.4746 60.0323 35.4963 59.9932 35.4963 59.9512H35.375ZM35.373 59.9502L35.4273 59.8417C35.3901 59.8231 35.346 59.8248 35.3103 59.8463C35.2747 59.8678 35.2526 59.9061 35.2518 59.9477L35.373 59.9502ZM35.3701 60.1387L35.2488 60.1367L35.2488 60.1367L35.3701 60.1387ZM36.6533 69.248L36.5379 69.2854C36.5504 69.3241 36.5815 69.3539 36.6206 69.3649C36.6598 69.3758 36.7018 69.3664 36.7326 69.3399L36.6533 69.248ZM39.3408 65.5244L39.4482 65.5808L39.4482 65.5808L39.3408 65.5244ZM42.4053 58.8857L42.5155 58.9365V58.9365L42.4053 58.8857ZM46.877 51.1553L46.7811 51.0809L46.7811 51.0809L46.877 51.1553ZM50.7373 47.2734L50.8109 47.3699C50.8462 47.343 50.8639 47.299 50.8572 47.2551C50.8506 47.2113 50.8205 47.1746 50.7788 47.1594L50.7373 47.2734ZM49.6719 46.7852L49.6112 46.8902L49.613 46.8912L49.6719 46.7852ZM43.6094 43.2852L43.6682 43.1791C43.61 43.1468 43.5366 43.1674 43.5038 43.2254C43.471 43.2834 43.491 43.3569 43.5487 43.3902L43.6094 43.2852ZM43.6572 43.3096L43.599 43.416C43.6575 43.448 43.7308 43.4268 43.7632 43.3686C43.7956 43.3104 43.7751 43.237 43.7172 43.2041L43.6572 43.3096ZM43.6143 43.2852L43.6742 43.1797L43.6731 43.1791L43.6143 43.2852ZM63.6104 47.9688L63.7062 47.8944C63.6829 47.8644 63.647 47.8471 63.6091 47.8474L63.6104 47.9688ZM60.5166 48.5986L60.5585 48.7125L60.5591 48.7123L60.5166 48.5986ZM60.4609 48.6191L60.4189 48.5051L60.412 48.5081L60.4609 48.6191ZM60.4033 48.6445L60.3544 48.5335L60.3529 48.5342L60.4033 48.6445ZM59.8438 48.9004L59.7933 48.79L59.7912 48.791L59.8438 48.9004ZM57.2432 50.4443L57.1725 50.3457C57.1371 50.3711 57.118 50.4135 57.1225 50.4568C57.127 50.5001 57.1543 50.5377 57.1942 50.5553L57.2432 50.4443ZM57.6846 50.6699L57.6233 50.7747L57.624 50.7751L57.6846 50.6699ZM57.7168 50.6885L57.6563 50.7936C57.714 50.8269 57.7878 50.8073 57.8215 50.7498C57.8552 50.6922 57.8361 50.6183 57.7788 50.5842L57.7168 50.6885ZM57.6875 50.6699L57.7482 50.5649C57.6902 50.5314 57.6162 50.5512 57.5826 50.609C57.549 50.6668 57.5685 50.7409 57.6263 50.7747L57.6875 50.6699ZM63.75 54.1699L63.8113 54.0652L63.8107 54.0649L63.75 54.1699ZM66.1523 56.5234L66.2494 56.4506L66.1523 56.5234ZM67.4658 58.4043L67.3653 58.4722V58.4722L67.4658 58.4043ZM68.8613 60.3887L68.7647 60.4621L68.8613 60.3887ZM69.082 60.6709L68.9867 60.746C69.0094 60.7747 69.0438 60.7917 69.0804 60.7922L69.082 60.6709ZM72.4355 59.9424L72.484 60.0536L72.484 60.0536L72.4355 59.9424ZM75.3877 58.125L75.4631 58.2201C75.496 58.194 75.513 58.1528 75.5082 58.1111C75.5034 58.0694 75.4774 58.0331 75.4394 58.0153L75.3877 58.125ZM75.2344 58.0527L75.1762 58.1594L75.1826 58.1625L75.2344 58.0527ZM75.2236 58.0469L75.2818 57.9403L75.2786 57.9387L75.2236 58.0469ZM74.8906 57.8604L74.9541 57.7569C74.935 57.7452 74.913 57.739 74.8906 57.739V57.8604ZM74.8896 57.8604L74.829 57.9654C74.8474 57.9761 74.8683 57.9817 74.8896 57.9817V57.8604ZM69.0303 54.4766L69.091 54.3715L69.0887 54.3702L69.0303 54.4766ZM68.8281 54.3604L68.7612 54.4616L68.7647 54.4638L68.8281 54.3604ZM68.5225 54.1582L68.452 54.2571L68.4555 54.2594L68.5225 54.1582ZM66.5303 52.1064L66.4337 52.1799L66.4337 52.1799L66.5303 52.1064ZM65.2139 50.2334L65.1133 50.3013L65.1133 50.3013L65.2139 50.2334ZM63.8311 48.2539L63.9281 48.1811L63.9281 48.1811L63.8311 48.2539ZM81.6797 10.2021L81.6591 10.0826L81.6591 10.0826L81.6797 10.2021ZM75.6904 15.0283L75.7762 15.1141C75.7822 15.1082 75.7875 15.1016 75.7921 15.0946L75.6904 15.0283ZM75.6895 15.0293L75.6037 14.9435C75.5977 14.9494 75.5924 14.956 75.5879 14.963L75.6895 15.0293ZM72.4971 21.6768L72.6105 21.7197L72.4971 21.6768ZM71.0869 25.6338L71.2016 25.6734V25.6733L71.0869 25.6338ZM69.6191 29.8076L69.733 29.8495V29.8495L69.6191 29.8076ZM59.8154 44.8584L59.7428 44.7612C59.7073 44.7878 59.6891 44.8316 59.6953 44.8754C59.7015 44.9193 59.7312 44.9563 59.7727 44.9719L59.8154 44.8584ZM60.4141 45.1211L60.4707 45.0138L60.4685 45.0127L60.4141 45.1211ZM60.6748 45.2588L60.7341 45.1529L60.7315 45.1515L60.6748 45.2588ZM61.0635 45.4951L60.9973 45.597L61.0028 45.6002L61.0635 45.4951ZM66.4766 48.6211L66.4158 48.7263L66.4221 48.7295L66.4766 48.6211ZM69.8926 51.7539L69.9896 51.6811L69.9896 51.6811L69.8926 51.7539ZM71.2764 53.7334L71.1758 53.8013L71.1758 53.8013L71.2764 53.7334ZM72.0908 54.918L71.9918 54.988C72.0202 55.0283 72.0702 55.0473 72.1182 55.0362L72.0908 54.918ZM72.9668 54.627L73.0153 54.7382L73.0153 54.7382L72.9668 54.627ZM76.3076 51.957L76.3991 52.0368L76.3991 52.0368L76.3076 51.957ZM82.0596 41.126L82.1752 41.1627L82.1752 41.1626L82.0596 41.126ZM84.8643 24.9053L84.9856 24.9063L84.9856 24.9041L84.8643 24.9053ZM84.8594 24.3867L84.9807 24.3856C84.9803 24.34 84.9544 24.2986 84.9136 24.2782L84.8594 24.3867ZM84.8516 24.3828L84.7658 24.297C84.7382 24.3246 84.7256 24.3638 84.7318 24.4022C84.7381 24.4407 84.7624 24.4739 84.7973 24.4913L84.8516 24.3828ZM84.8535 24.3809L84.9393 24.4666C84.9621 24.4439 84.9748 24.413 84.9748 24.3809H84.8535ZM84.8535 24.1621H84.9748L84.9748 24.1609L84.8535 24.1621ZM81.6924 10.1992L81.7967 10.1373C81.7711 10.0942 81.7216 10.0712 81.6721 10.0796L81.6924 10.1992ZM45.4365 37.0664L45.5117 36.9712C45.4919 36.9556 45.4677 36.9465 45.4425 36.9452L45.4365 37.0664ZM41.2725 38.2559L41.2118 38.1508L41.2118 38.1508L41.2725 38.2559ZM39.0791 39.8213L38.9998 39.7295C38.9701 39.7551 38.9546 39.7936 38.9583 39.8327C38.962 39.8718 38.9844 39.9067 39.0184 39.9264L39.0791 39.8213ZM45.0029 43.2412L44.9423 43.3463C45.0002 43.3797 45.0744 43.3599 45.1079 43.302C45.1415 43.2441 45.1218 43.17 45.0639 43.1363L45.0029 43.2412ZM44.9541 43.2148L45.014 43.1094C44.9559 43.0763 44.8819 43.0966 44.8488 43.1547C44.8156 43.2127 44.8357 43.2867 44.8937 43.32L44.9541 43.2148ZM45 43.2412L45.061 43.1363L45.0604 43.136L45 43.2412ZM46.2354 44.1318L46.1583 44.2255C46.1767 44.2407 46.1993 44.2501 46.2232 44.2525L46.2354 44.1318ZM52.7412 42.0703L52.8075 42.1719L52.8085 42.1713L52.7412 42.0703ZM52.75 42.0645L52.6834 41.963L52.6827 41.9635L52.75 42.0645ZM53.3008 41.6895L53.3707 41.7886C53.4068 41.7631 53.4262 41.7201 53.4214 41.6762C53.4165 41.6323 53.3882 41.5945 53.3475 41.5775L53.3008 41.6895ZM52.4609 41.2539L52.5249 41.1507L52.5216 41.1488L52.4609 41.2539ZM46.7471 37.9541L46.8077 37.849L46.8076 37.849L46.7471 37.9541ZM46.3994 37.7539L46.3355 37.8571L46.3389 37.859L46.3994 37.7539ZM84.8193 4.49121L84.9186 4.4215C84.8969 4.39051 84.8619 4.37145 84.824 4.36998L84.8193 4.49121ZM83.1289 4.60547L83.1083 4.48591L83.1083 4.48591L83.1289 4.60547ZM78.1514 6.9082L78.0783 6.81133C78.0426 6.83827 78.0246 6.88269 78.0315 6.92691C78.0384 6.97112 78.0691 7.00795 78.1113 7.02272L78.1514 6.9082ZM79.0635 7.3291L79.0023 7.43387L79.0031 7.43431L79.0635 7.3291ZM79.1621 7.38574L79.1017 7.49095C79.1592 7.524 79.2327 7.50467 79.2665 7.44758C79.3003 7.39048 79.282 7.3168 79.2254 7.28221L79.1621 7.38574ZM79.0703 7.3291L79.131 7.22403C79.073 7.19059 78.999 7.21034 78.9654 7.26818C78.9318 7.32602 78.9514 7.40013 79.0091 7.43386L79.0703 7.3291ZM85.1328 10.8291L85.194 10.7243L85.1935 10.724L85.1328 10.8291ZM87.0098 12.5635L87.1183 12.5092C87.1153 12.5033 87.1118 12.4976 87.1079 12.4922L87.0098 12.5635ZM87.0107 12.5654L86.9022 12.6197C86.9052 12.6257 86.9087 12.6314 86.9127 12.6368L87.0107 12.5654ZM88.8096 15.8037L88.6978 15.8509C88.7215 15.9069 88.783 15.9368 88.8416 15.9207C88.9003 15.9047 88.938 15.8476 88.9298 15.7874L88.8096 15.8037ZM84.9873 4.73047L85.0875 4.66207L85.0866 4.66076L84.9873 4.73047ZM77.0664 1.10547L77.087 1.22503C78.8437 0.922591 80.4474 1.20698 81.8213 1.93153L81.8779 1.82422L81.9345 1.71691C80.5126 0.967017 78.8545 0.67452 77.0458 0.985906L77.0664 1.10547ZM81.8779 1.82422L81.8177 1.92951L81.9661 2.01447L82.0264 1.90918L82.0866 1.80389L81.9382 1.71892L81.8779 1.82422ZM82.0264 1.90918L81.9673 2.01514C82.0648 2.06952 82.16 2.12316 82.2527 2.18037L82.3164 2.07715L82.3802 1.97393C82.2825 1.91359 82.183 1.85763 82.0855 1.80322L82.0264 1.90918ZM82.3164 2.07715L82.2557 2.18221L87.8788 5.42928L87.9395 5.32422L88.0001 5.21916L82.3771 1.97209L82.3164 2.07715ZM87.9395 5.32422L87.996 5.2169C87.9915 5.21451 87.9872 5.21241 87.9848 5.21125C87.9818 5.20981 87.9809 5.20933 87.9802 5.20896L87.9238 5.31641L87.8675 5.42385C87.8719 5.42619 87.8762 5.42826 87.8785 5.42937C87.8813 5.43076 87.8823 5.43122 87.8829 5.43153L87.9395 5.32422ZM87.9238 5.31641L87.8636 5.42174L87.8773 5.42956L87.9375 5.32422L87.9977 5.21888L87.984 5.21107L87.9238 5.31641ZM87.9375 5.32422L87.8809 5.43153C88.961 6.00121 89.9025 6.84438 90.6655 7.89455L90.7637 7.82324L90.8618 7.75193C90.0794 6.67497 89.1104 5.80571 87.9941 5.21691L87.9375 5.32422ZM90.7637 7.82324L90.6644 7.89299L90.9505 8.30022L91.0498 8.23047L91.1491 8.16072L90.8629 7.75349L90.7637 7.82324ZM91.0498 8.23047L90.9496 8.29886C93.4603 11.9772 94.7331 17.0392 95.0664 22.5591L95.1875 22.5518L95.3086 22.5444C94.9739 17.0021 93.6952 11.8909 91.15 8.16207L91.0498 8.23047ZM95.1875 22.5518L95.127 22.6569L95.2051 22.7019L95.2656 22.5967L95.3261 22.4915L95.248 22.4466L95.1875 22.5518ZM95.2656 22.5967L95.1443 22.5978L95.1677 25.0793L95.2891 25.0781L95.4104 25.077L95.3869 22.5955L95.2656 22.5967ZM95.2891 25.0781L95.1677 25.0794C95.1687 25.1685 95.1674 25.2534 95.1677 25.3461L95.2891 25.3457L95.4104 25.3453C95.4101 25.2599 95.4113 25.1652 95.4104 25.0769L95.2891 25.0781ZM95.2891 25.3457L95.231 25.4522L95.2417 25.4581L95.2998 25.3516L95.3579 25.2451L95.3472 25.2392L95.2891 25.3457ZM95.2998 25.3516L95.1785 25.352C95.201 31.3249 94.1054 37.6807 91.9957 44.3482L92.1113 44.3848L92.227 44.4214C94.3426 37.7351 95.4438 31.3541 95.4211 25.3511L95.2998 25.3516ZM92.1113 44.3848L91.9962 44.3464L91.9953 44.3493L92.1104 44.3877L92.2254 44.4261L92.2264 44.4231L92.1113 44.3848ZM92.1104 44.3877L91.9947 44.351C90.4078 49.3542 87.6558 54.8385 84.2123 58.7875L84.3037 58.8672L84.3951 58.9469C87.8658 54.9668 90.6318 49.4507 92.226 44.4244L92.1104 44.3877ZM84.3037 58.8672L84.2123 58.7874C82.4618 60.7947 80.4995 62.4374 78.4496 63.3312L78.498 63.4424L78.5465 63.5536C80.6412 62.6403 82.6313 60.9695 84.3951 58.9469L84.3037 58.8672ZM78.498 63.4424L78.4496 63.3312C76.3946 64.2268 74.4099 64.3006 72.5807 63.4839L72.5312 63.5947L72.4818 63.7055C74.3836 64.5546 76.4403 64.4716 78.5465 63.5536L78.498 63.4424ZM72.5312 63.5947L72.5919 63.4896L71.3683 62.7836L71.3076 62.8887L71.247 62.9938L72.4706 63.6998L72.5312 63.5947ZM71.3076 62.8887L71.2369 62.9872C71.2424 62.9912 71.2477 62.9947 71.2511 62.997C71.2551 62.9996 71.257 63.0009 71.2587 63.0021L71.3291 62.9033L71.3995 62.8045C71.3941 62.8007 71.3888 62.7972 71.3856 62.795C71.3817 62.7925 71.3799 62.7912 71.3784 62.7901L71.3076 62.8887ZM71.3291 62.9033L71.2684 63.0084L72.4657 63.6998L72.5264 63.5947L72.587 63.4897L71.3898 62.7983L71.3291 62.9033ZM72.5264 63.5947L72.5758 63.4839C72.3961 63.4038 72.2214 63.3155 72.0515 63.2203L71.9922 63.3262L71.9329 63.432C72.1089 63.5306 72.2902 63.6222 72.4769 63.7055L72.5264 63.5947ZM71.9922 63.3262L72.0528 63.2211L65.9903 59.7211L65.9297 59.8262L65.869 59.9312L71.9315 63.4312L71.9922 63.3262ZM65.9297 59.8262L65.8704 59.932C65.8783 59.9365 65.8861 59.9404 65.8918 59.9434C65.8981 59.9466 65.9023 59.9488 65.9062 59.9509L65.9648 59.8447L66.0235 59.7385C66.0158 59.7343 66.0082 59.7304 66.0027 59.7276C65.9966 59.7244 65.9926 59.7223 65.989 59.7203L65.9297 59.8262ZM65.9648 59.8447L66.0254 59.7396L65.9932 59.721L65.9326 59.8262L65.8721 59.9313L65.9043 59.9499L65.9648 59.8447ZM65.9326 59.8262L65.9919 59.7203C64.7445 59.0218 63.7543 57.9439 62.8964 56.8153L62.7998 56.8887L62.7032 56.9621C63.5684 58.1002 64.5827 59.2093 65.8733 59.932L65.9326 59.8262ZM62.7998 56.8887L62.8964 56.8153C62.4074 56.1719 61.9453 55.4899 61.5039 54.8364L61.4033 54.9043L61.3028 54.9722C61.7438 55.6251 62.2095 56.3126 62.7032 56.9621L62.7998 56.8887ZM61.4033 54.9043L61.5039 54.8364C61.2344 54.4375 60.9716 54.0503 60.7097 53.6765L60.6104 53.7461L60.511 53.8157C60.7716 54.1877 61.0334 54.5735 61.3028 54.9722L61.4033 54.9043ZM60.6104 53.7461L60.5829 53.6279C60.3221 53.6885 60.052 53.7689 59.7718 53.8714L59.8135 53.9854L59.8552 54.0993C60.1265 54 60.3872 53.9225 60.6378 53.8643L60.6104 53.7461ZM59.8135 53.9854L59.7644 53.8744C57.6838 54.795 56.2541 56.1092 55.1336 57.5536L55.2295 57.6279L55.3254 57.7023C56.4266 56.2826 57.8261 54.9974 59.8626 54.0963L59.8135 53.9854ZM55.2295 57.6279L55.1336 57.5536C53.9349 59.0992 52.9355 60.9895 51.8908 63.2559L52.001 63.3066L52.1112 63.3574C53.1539 61.0954 54.1441 59.2255 55.3254 57.7023L55.2295 57.6279ZM52.001 63.3066L51.8908 63.2559C50.9404 65.3176 49.7871 68.0941 48.5889 70.3762L48.6963 70.4326L48.8037 70.489C50.0056 68.1999 51.1669 65.4059 52.1112 63.3574L52.001 63.3066ZM48.6963 70.4326L48.5889 70.3762C47.3113 72.8094 45.6593 75.357 43.3474 77.2319L43.4238 77.3262L43.5002 77.4204C45.8497 75.515 47.5202 72.9335 48.8037 70.489L48.6963 70.4326ZM43.4238 77.3262L43.3696 77.4347L43.3715 77.4357L43.4258 77.3271L43.48 77.2186L43.4781 77.2177L43.4238 77.3262ZM43.4258 77.3271L43.3493 77.233C40.8037 79.3021 38.6372 79.7212 36.9551 79.0838L36.9121 79.1973L36.8691 79.3107C38.6637 79.9907 40.9208 79.5196 43.5023 77.4213L43.4258 77.3271ZM36.9121 79.1973L36.9551 79.0838C36.7618 79.0105 36.5747 78.9237 36.3945 78.8244L36.3359 78.9307L36.2774 79.0369C36.4674 79.1416 36.6649 79.2333 36.8691 79.3107L36.9121 79.1973ZM36.3359 78.9307L36.3971 78.8259L36.315 78.778L36.2539 78.8828L36.1928 78.9876L36.2748 79.0355L36.3359 78.9307ZM36.2539 78.8828L36.1933 78.9879C36.2049 78.9946 36.2163 79.0017 36.2303 79.0103C36.2437 79.0185 36.2591 79.0279 36.2754 79.0369L36.334 78.9307L36.3925 78.8244C36.3817 78.8184 36.3706 78.8117 36.3574 78.8036C36.3449 78.7959 36.3298 78.7866 36.3146 78.7777L36.2539 78.8828ZM36.334 78.9307L36.3946 78.8256L30.3321 75.3256L30.2715 75.4307L30.2108 75.5357L36.2733 79.0357L36.334 78.9307ZM30.2715 75.4307L30.33 75.3244C29.0052 74.5942 28.0207 73.19 27.2891 71.5873L27.1787 71.6377L27.0683 71.6881C27.8083 73.3091 28.8207 74.7696 30.2129 75.5369L30.2715 75.4307ZM27.1787 71.6377L27.2891 71.5873C25.6267 67.9452 25.0037 62.6735 25.0627 59.0664L24.9414 59.0645L24.8201 59.0625C24.7607 62.6884 25.3852 68.0004 27.0683 71.6881L27.1787 71.6377ZM24.9414 59.0645L25.0627 59.0664C25.0632 59.0382 25.064 59.0102 25.0647 58.9802L24.9434 58.9775L24.8221 58.9748C24.8214 59.0026 24.8206 59.0334 24.8201 59.0625L24.9414 59.0645ZM24.9434 58.9775L25.0107 58.8766L25.0048 58.8727L24.9375 58.9736L24.8702 59.0746L24.8761 59.0785L24.9434 58.9775ZM24.9375 58.9736L25.0588 58.9758C25.1215 55.5257 25.5417 50.9748 26.8961 46.6387L26.7803 46.6025L26.6645 46.5664C25.3008 50.9323 24.8791 55.5081 24.8162 58.9714L24.9375 58.9736ZM26.7803 46.6025L26.8961 46.6387C28.295 42.1606 30.8962 37.3871 35.2716 34.8609L35.2109 34.7559L35.1503 34.6508C30.6984 37.2212 28.0712 42.063 26.6645 46.5664L26.7803 46.6025ZM35.2109 34.7559L35.2716 34.8609C37.7439 33.4337 39.6153 33.4708 41.1089 34.0734L41.1543 33.9609L41.1997 33.8484C39.6281 33.2143 37.6786 33.1913 35.1503 34.6508L35.2109 34.7559ZM41.1543 33.9609L41.1089 34.0734C41.3206 34.1589 41.528 34.257 41.7308 34.3657L41.7881 34.2588L41.8454 34.1519C41.6355 34.0393 41.4201 33.9374 41.1997 33.8484L41.1543 33.9609ZM41.7881 34.2588L41.7288 34.3647L41.9329 34.4789L41.9922 34.373L42.0515 34.2672L41.8473 34.1529L41.7881 34.2588ZM41.9922 34.373L41.9315 34.4781L47.994 37.9781L48.0547 37.873L48.1153 37.768L42.0528 34.268L41.9922 34.373ZM48.0547 37.873L47.9941 37.9781C48.3242 38.1685 48.6414 38.386 48.9491 38.6149L49.0215 38.5176L49.0939 38.4202C48.7815 38.1878 48.4562 37.9645 48.1153 37.7679L48.0547 37.873ZM49.0215 38.5176L49.0269 38.6388C50.0286 38.5941 51.1566 38.1927 52.5194 37.3048L52.4531 37.2031L52.3869 37.1015C51.0457 37.9753 49.9597 38.3543 49.0161 38.3964L49.0215 38.5176ZM52.4531 37.2031L52.5212 37.3036L52.8425 37.0858L52.7744 36.9854L52.7063 36.8849L52.3851 37.1027L52.4531 37.2031ZM52.7744 36.9854L52.844 37.0847C56.1563 34.7652 57.9836 31.1907 59.8268 26.1766L59.7129 26.1348L59.599 26.0929C57.7579 31.1014 55.9515 34.6124 52.7048 36.886L52.7744 36.9854ZM59.7129 26.1348L59.8268 26.1766C60.2999 24.8896 60.7499 23.5747 61.2289 22.186L61.1143 22.1465L60.9996 22.1069C60.5202 23.4965 60.0711 24.8087 59.599 26.0929L59.7129 26.1348ZM61.1143 22.1465L61.2289 22.186C61.7009 20.8177 62.1983 19.3853 62.7365 17.9619L62.623 17.9189L62.5096 17.876C61.9699 19.3032 61.4715 20.7387 60.9996 22.1069L61.1143 22.1465ZM62.623 17.9189L62.7365 17.9619C63.8068 15.1314 65.1168 12.1183 66.9444 9.31727L66.8428 9.25098L66.7412 9.18468C64.8998 12.007 63.5825 15.0387 62.5096 17.876L62.623 17.9189ZM66.8428 9.25098L66.9444 9.31725C70.1864 4.3457 73.8411 1.78412 77.087 1.22503L77.0664 1.10547L77.0458 0.985908C73.7094 1.56059 70.0042 4.18098 66.7411 9.18471L66.8428 9.25098ZM31.29 67.5352L31.1696 67.5501C31.4993 70.202 32.1249 72.9841 33.1308 75.1881L33.2412 75.1377L33.3516 75.0873C32.3598 72.9145 31.7385 70.1593 31.4104 67.5202L31.29 67.5352ZM33.2412 75.1377L33.1308 75.1881C33.2406 75.4286 33.357 75.6646 33.4786 75.8954L33.5859 75.8389L33.6933 75.7823C33.5737 75.5554 33.4594 75.3235 33.3516 75.0873L33.2412 75.1377ZM33.5859 75.8389L33.6129 75.9572C34.7821 75.6909 36.0629 75.0386 37.4369 73.9223L37.3604 73.8281L37.2838 73.734C35.9302 74.8339 34.6824 75.4647 33.559 75.7206L33.5859 75.8389ZM37.3604 73.8281V73.7068H37.3594V73.8281V73.9494H37.3604V73.8281ZM37.3594 73.8281H37.4807V73.8271H37.3594H37.2381V73.8281H37.3594ZM37.3594 73.8271L37.4358 73.9214C37.7807 73.6417 38.1084 73.3456 38.4242 73.0403L38.3398 72.9531L38.2555 72.8659C37.9437 73.1674 37.6213 73.4586 37.283 73.7329L37.3594 73.8271ZM38.3398 72.9531L38.4005 72.848L33.2687 69.8861L33.208 69.9912L33.1474 70.0963L38.2792 73.0582L38.3398 72.9531ZM33.208 69.9912L33.2717 69.888C32.5998 69.4733 31.963 68.6665 31.3996 67.483L31.29 67.5352L31.1805 67.5873C31.753 68.79 32.4154 69.6446 33.1443 70.0945L33.208 69.9912ZM42.7461 42.7373L42.7265 42.6176C42.2563 42.6944 41.7608 42.8826 41.2167 43.1967L41.2773 43.3018L41.338 43.4068C41.8636 43.1035 42.3312 42.928 42.7657 42.857L42.7461 42.7373ZM41.2773 43.3018L41.2167 43.1967C39.1243 44.4048 37.733 46.5821 36.7309 49.79L36.8467 49.8262L36.9625 49.8623C37.9561 46.6816 39.3211 44.5714 41.338 43.4068L41.2773 43.3018ZM36.8467 49.8262L36.7309 49.79C35.7184 53.0317 35.3192 56.7691 35.2537 59.9409L35.375 59.9434L35.4963 59.9459C35.5615 56.7871 35.9592 53.0745 36.9625 49.8623L36.8467 49.8262ZM35.375 59.9434L35.3148 60.0487L35.3216 60.0526L35.3818 59.9473L35.442 59.8419L35.4352 59.838L35.375 59.9434ZM35.3818 59.9473L35.334 59.8358L35.3272 59.8387L35.375 59.9502L35.4228 60.0617L35.4296 60.0588L35.3818 59.9473ZM35.375 59.9502H35.2537V59.9512H35.375H35.4963V59.9502H35.375ZM35.375 59.9512L35.4293 59.8427L35.4273 59.8417L35.373 59.9502L35.3188 60.0587L35.3207 60.0597L35.375 59.9512ZM35.373 59.9502L35.2518 59.9477C35.2504 60.0107 35.2498 60.0756 35.2488 60.1367L35.3701 60.1387L35.4914 60.1407C35.4925 60.0768 35.493 60.0155 35.4943 59.9527L35.373 59.9502ZM35.3701 60.1387L35.2488 60.1367C35.2068 62.7032 35.592 66.3582 36.5379 69.2854L36.6533 69.248L36.7688 69.2107C35.8328 66.3143 35.4498 62.6868 35.4914 60.1407L35.3701 60.1387ZM36.6533 69.248L36.7326 69.3399C37.6906 68.5125 38.5332 67.3235 39.4482 65.5808L39.3408 65.5244L39.2334 65.468C38.3243 67.1993 37.4986 68.3577 36.574 69.1562L36.6533 69.248ZM39.3408 65.5244L39.4482 65.5808C40.4934 63.5902 41.2924 61.5895 42.5155 58.9365L42.4053 58.8857L42.2951 58.8349C41.0651 61.503 40.2751 63.4841 39.2334 65.468L39.3408 65.5244ZM42.4053 58.8857L42.5155 58.9365C43.6447 56.4869 45.0419 53.7192 46.9728 51.2296L46.877 51.1553L46.7811 51.0809C44.8328 53.5929 43.4264 56.3809 42.2951 58.835L42.4053 58.8857ZM46.877 51.1553L46.9728 51.2296C48.1069 49.7676 49.3774 48.4642 50.8109 47.3699L50.7373 47.2734L50.6637 47.177C49.2112 48.2858 47.9261 49.6047 46.7811 51.0809L46.877 51.1553ZM50.7373 47.2734L50.7788 47.1594C50.4099 47.0251 50.0613 46.8625 49.7307 46.6791L49.6719 46.7852L49.613 46.8912C49.9537 47.0802 50.3139 47.2483 50.6958 47.3874L50.7373 47.2734ZM49.6719 46.7852L49.7325 46.6801L43.67 43.1801L43.6094 43.2852L43.5487 43.3902L49.6112 46.8902L49.6719 46.7852ZM43.6094 43.2852L43.5505 43.3912C43.5614 43.3973 43.5721 43.4025 43.5798 43.4063C43.5885 43.4105 43.594 43.4133 43.599 43.416L43.6572 43.3096L43.7154 43.2031C43.7048 43.1973 43.6942 43.1921 43.6867 43.1885C43.6784 43.1844 43.673 43.1817 43.6682 43.1791L43.6094 43.2852ZM43.6572 43.3096L43.7172 43.2041L43.6742 43.1797L43.6143 43.2852L43.5543 43.3906L43.5973 43.4151L43.6572 43.3096ZM43.6143 43.2852L43.6731 43.1791C43.3738 43.013 43.089 42.8298 42.8158 42.638L42.7461 42.7373L42.6764 42.8366C42.955 43.0322 43.247 43.2201 43.5554 43.3912L43.6143 43.2852ZM63.6104 47.9688L63.6091 47.8474C62.674 47.8567 61.6354 48.0503 60.4741 48.485L60.5166 48.5986L60.5591 48.7123C61.698 48.2859 62.7086 48.099 63.6116 48.0901L63.6104 47.9688ZM60.5166 48.5986L60.4747 48.4848L60.419 48.5053L60.4609 48.6191L60.5029 48.733L60.5585 48.7125L60.5166 48.5986ZM60.4609 48.6191L60.412 48.5081L60.3544 48.5335L60.4033 48.6445L60.4522 48.7556L60.5099 48.7302L60.4609 48.6191ZM60.4033 48.6445L60.3529 48.5342L59.7933 48.7901L59.8438 48.9004L59.8942 49.0107L60.4538 48.7549L60.4033 48.6445ZM59.8438 48.9004L59.7912 48.791C58.8629 49.2367 57.9919 49.7587 57.1725 50.3457L57.2432 50.4443L57.3138 50.543C58.1223 49.9637 58.9812 49.449 59.8963 49.0098L59.8438 48.9004ZM57.2432 50.4443L57.1942 50.5553C57.3398 50.6196 57.4831 50.6927 57.6233 50.7747L57.6846 50.6699L57.7458 50.5652C57.5976 50.4786 57.4462 50.4013 57.2921 50.3333L57.2432 50.4443ZM57.6846 50.6699L57.624 50.7751L57.6563 50.7936L57.7168 50.6885L57.7773 50.5833L57.7451 50.5648L57.6846 50.6699ZM57.7168 50.6885L57.7788 50.5842C57.7766 50.5829 57.7741 50.5812 57.7687 50.5777C57.7641 50.5747 57.7568 50.5699 57.7487 50.5652L57.6875 50.6699L57.6263 50.7747C57.6282 50.7758 57.6305 50.7773 57.6356 50.7806C57.6399 50.7834 57.6471 50.7882 57.6548 50.7927L57.7168 50.6885ZM57.6875 50.6699L57.6268 50.775L63.6893 54.275L63.75 54.1699L63.8107 54.0649L57.7482 50.5649L57.6875 50.6699ZM63.75 54.1699L63.6887 54.2746C64.5269 54.7649 65.2831 55.5667 66.0553 56.5962L66.1523 56.5234L66.2494 56.4506C65.4708 55.4125 64.6913 54.5799 63.8113 54.0652L63.75 54.1699ZM66.1523 56.5234L66.0553 56.5962C66.4937 57.1808 66.9171 57.8087 67.3653 58.4722L67.4658 58.4043L67.5664 58.3364C67.119 57.6741 66.6921 57.0409 66.2494 56.4506L66.1523 56.5234ZM67.4658 58.4043L67.3653 58.4722C67.8062 59.1249 68.2711 59.8126 68.7647 60.4621L68.8613 60.3887L68.9579 60.3153C68.469 59.6721 68.0078 58.9899 67.5664 58.3364L67.4658 58.4043ZM68.8613 60.3887L68.7647 60.4621C68.8376 60.5579 68.9133 60.6528 68.9867 60.746L69.082 60.6709L69.1773 60.5958C69.1026 60.501 69.0291 60.4089 68.9579 60.3153L68.8613 60.3887ZM69.082 60.6709L69.0804 60.7922C70.1894 60.8073 71.3295 60.5568 72.484 60.0536L72.4355 59.9424L72.3871 59.8312C71.2593 60.3227 70.1532 60.5641 69.0837 60.5496L69.082 60.6709ZM72.4355 59.9424L72.484 60.0536C73.5076 59.6074 74.5049 58.9797 75.4631 58.2201L75.3877 58.125L75.3123 58.0299C74.3669 58.7794 73.3875 59.395 72.3871 59.8312L72.4355 59.9424ZM75.3877 58.125L75.4394 58.0153L75.2861 57.943L75.2344 58.0527L75.1826 58.1625L75.336 58.2347L75.3877 58.125ZM75.2344 58.0527L75.2925 57.9462L75.2817 57.9404L75.2236 58.0469L75.1655 58.1534L75.1763 58.1592L75.2344 58.0527ZM75.2236 58.0469L75.2786 57.9387C75.1689 57.8829 75.0607 57.8224 74.9541 57.7569L74.8906 57.8604L74.8272 57.9638C74.9393 58.0325 75.0531 58.0963 75.1686 58.155L75.2236 58.0469ZM74.8906 57.8604V57.739H74.8896V57.8604V57.9817H74.8906V57.8604ZM74.8896 57.8604L74.9503 57.7553L69.0909 54.3715L69.0303 54.4766L68.9696 54.5816L74.829 57.9654L74.8896 57.8604ZM69.0303 54.4766L69.0887 54.3702C69.0214 54.3333 68.9557 54.2963 68.8916 54.2569L68.8281 54.3604L68.7647 54.4638C68.8338 54.5062 68.9035 54.5453 68.9718 54.5829L69.0303 54.4766ZM68.8281 54.3604L68.8951 54.2592L68.5894 54.057L68.5225 54.1582L68.4555 54.2594L68.7612 54.4615L68.8281 54.3604ZM68.5225 54.1582L68.5929 54.0594C67.9033 53.568 67.2674 52.8756 66.6269 52.033L66.5303 52.1064L66.4337 52.1799C67.0807 53.0309 67.7339 53.7452 68.4521 54.257L68.5225 54.1582ZM66.5303 52.1064L66.6269 52.033C66.1854 51.4522 65.7605 50.8257 65.3144 50.1655L65.2139 50.2334L65.1133 50.3013C65.5589 50.9608 65.9875 51.5928 66.4337 52.1799L66.5303 52.1064ZM65.2139 50.2334L65.3144 50.1655C64.8757 49.5159 64.414 48.8291 63.9281 48.1811L63.8311 48.2539L63.734 48.3267C64.2156 48.9689 64.6737 49.6504 65.1133 50.3013L65.2139 50.2334ZM63.8311 48.2539L63.9281 48.1811C63.8554 48.0842 63.7788 47.9879 63.7062 47.8944L63.6104 47.9688L63.5145 48.0431C63.5896 48.1399 63.6629 48.2319 63.734 48.3267L63.8311 48.2539ZM81.6797 10.2021L81.6591 10.0826C79.7075 10.4188 77.6216 11.8449 75.5888 14.962L75.6904 15.0283L75.7921 15.0946C77.804 12.0095 79.8393 10.6423 81.7003 10.3217L81.6797 10.2021ZM75.6904 15.0283L75.6046 14.9425L75.6037 14.9435L75.6895 15.0293L75.7752 15.1151L75.7762 15.1141L75.6904 15.0283ZM75.6895 15.0293L75.5879 14.963C74.3595 16.8454 73.3555 19.0636 72.3836 21.6338L72.4971 21.6768L72.6105 21.7197C73.5799 19.1563 74.5766 16.9567 75.7911 15.0956L75.6895 15.0293ZM72.4971 21.6768L72.3836 21.6338C71.9008 22.9106 71.4451 24.2233 70.9722 25.5942L71.0869 25.6338L71.2016 25.6733C71.6745 24.3022 72.1292 22.9927 72.6105 21.7197L72.4971 21.6768ZM71.0869 25.6338L70.9722 25.5942C70.5063 26.945 70.0193 28.3674 69.5053 29.7658L69.6191 29.8076L69.733 29.8495C70.2481 28.4483 70.736 27.0232 71.2016 25.6734L71.0869 25.6338ZM69.6191 29.8076L69.5053 29.7658C67.5787 35.0065 64.9163 40.8913 59.7428 44.7612L59.8154 44.8584L59.8881 44.9555C65.1223 41.0403 67.8044 35.0958 69.733 29.8495L69.6191 29.8076ZM59.8154 44.8584L59.7727 44.9719C59.9744 45.0479 60.1701 45.1344 60.3596 45.2295L60.4141 45.1211L60.4685 45.0127C60.2717 44.9139 60.0683 44.824 59.8582 44.7449L59.8154 44.8584ZM60.4141 45.1211L60.3574 45.2284L60.6181 45.3661L60.6748 45.2588L60.7315 45.1515L60.4707 45.0138L60.4141 45.1211ZM60.6748 45.2588L60.6156 45.3647C60.7453 45.4373 60.872 45.5154 60.9974 45.5968L61.0635 45.4951L61.1296 45.3934C61.0011 45.3099 60.8697 45.2288 60.7341 45.1529L60.6748 45.2588ZM61.0635 45.4951L61.0028 45.6002L66.4159 48.7262L66.4766 48.6211L66.5372 48.516L61.1241 45.3901L61.0635 45.4951ZM66.4766 48.6211L66.4221 48.7295C67.8069 49.4246 68.875 50.5995 69.7955 51.8267L69.8926 51.7539L69.9896 51.6811C69.0625 50.4451 67.9669 49.2334 66.531 48.5127L66.4766 48.6211ZM69.8926 51.7539L69.7955 51.8267C70.2772 52.469 70.7363 53.1504 71.1758 53.8013L71.2764 53.7334L71.3769 53.6655C70.9381 53.0157 70.4756 52.3291 69.9896 51.6811L69.8926 51.7539ZM71.2764 53.7334L71.1758 53.8013C71.4515 54.2094 71.7216 54.6059 71.9918 54.988L72.0908 54.918L72.1899 54.8479C71.9212 54.468 71.6524 54.0733 71.3769 53.6655L71.2764 53.7334ZM72.0908 54.918L72.1182 55.0362C72.4259 54.9648 72.7256 54.8644 73.0153 54.7382L72.9668 54.627L72.9183 54.5157C72.6417 54.6363 72.356 54.7319 72.0634 54.7998L72.0908 54.918ZM72.9668 54.627L73.0153 54.7382C74.1316 54.2513 75.2675 53.3343 76.3991 52.0368L76.3076 51.957L76.2162 51.8773C75.0981 53.1594 73.99 54.0484 72.9183 54.5157L72.9668 54.627ZM76.3076 51.957L76.3991 52.0368C78.7201 49.375 80.874 45.2652 82.1752 41.1627L82.0596 41.126L81.9439 41.0893C80.6501 45.1686 78.5102 49.2466 76.2162 51.8773L76.3076 51.957ZM82.0596 41.126L82.1752 41.1626C83.9877 35.4338 84.9436 30.0135 84.9856 24.9063L84.8643 24.9053L84.7429 24.9043C84.7012 29.9828 83.7506 35.3788 81.9439 41.0894L82.0596 41.126ZM84.8643 24.9053L84.9856 24.9041L84.9807 24.3856L84.8594 24.3867L84.7381 24.3879L84.7429 24.9064L84.8643 24.9053ZM84.8594 24.3867L84.9136 24.2782L84.9058 24.2743L84.8516 24.3828L84.7973 24.4913L84.8051 24.4952L84.8594 24.3867ZM84.8516 24.3828L84.9374 24.4686L84.9393 24.4666L84.8535 24.3809L84.7677 24.2951L84.7658 24.297L84.8516 24.3828ZM84.8535 24.3809H84.9748V24.1621H84.8535H84.7322V24.3809H84.8535ZM84.8535 24.1621L84.9748 24.1609C84.9204 18.7255 83.9383 13.7471 81.7967 10.1373L81.6924 10.1992L81.588 10.2611C83.6991 13.8194 84.6779 18.7495 84.7322 24.1633L84.8535 24.1621ZM81.6924 10.1992L81.6721 10.0796C81.6676 10.0804 81.6638 10.0812 81.6611 10.0818C81.6586 10.0825 81.6562 10.0831 81.6554 10.0833C81.6541 10.0836 81.6543 10.0836 81.6547 10.0835C81.6552 10.0834 81.6568 10.083 81.6591 10.0826L81.6797 10.2021L81.7003 10.3217C81.7047 10.321 81.7084 10.3201 81.7111 10.3195C81.7136 10.3189 81.7159 10.3183 81.7167 10.3181C81.7179 10.3177 81.7177 10.3178 81.7173 10.3179C81.7167 10.3181 81.715 10.3184 81.7127 10.3188L81.6924 10.1992ZM45.4365 37.0664L45.4425 36.9452C44.2347 36.8853 42.8426 37.2093 41.2118 38.1508L41.2725 38.2559L41.3331 38.3609C42.9322 37.4378 44.2784 37.1304 45.4305 37.1876L45.4365 37.0664ZM41.2725 38.2559L41.2118 38.1508C40.4173 38.6095 39.6813 39.141 38.9998 39.7295L39.0791 39.8213L39.1584 39.9131C39.8292 39.3339 40.5528 38.8115 41.3331 38.3609L41.2725 38.2559ZM39.0791 39.8213L39.0184 39.9264L44.9423 43.3463L45.0029 43.2412L45.0636 43.1361L39.1398 39.7162L39.0791 39.8213ZM45.0029 43.2412L45.0639 43.1363C45.0533 43.1301 45.0428 43.1247 45.0348 43.1205C45.026 43.1159 45.0198 43.1127 45.014 43.1094L44.9541 43.2148L44.8942 43.3203C44.9044 43.3262 44.9147 43.3315 44.9223 43.3355C44.9306 43.3398 44.9366 43.343 44.942 43.3461L45.0029 43.2412ZM44.9541 43.2148L44.8937 43.32L44.9396 43.3464L45 43.2412L45.0604 43.136L45.0145 43.1096L44.9541 43.2148ZM45 43.2412L44.939 43.3461C45.342 43.5804 45.7369 43.8787 46.1583 44.2255L46.2354 44.1318L46.3125 44.0382C45.8874 43.6883 45.4808 43.3804 45.061 43.1363L45 43.2412ZM46.2354 44.1318L46.2232 44.2525C47.9739 44.4294 50.1087 43.9327 52.8075 42.1719L52.7412 42.0703L52.6749 41.9687C50.0076 43.709 47.9277 44.1808 46.2475 44.0111L46.2354 44.1318ZM52.7412 42.0703L52.8085 42.1713L52.8173 42.1654L52.75 42.0645L52.6827 41.9635L52.6739 41.9694L52.7412 42.0703ZM52.75 42.0645L52.8166 42.1659C53.0043 42.0426 53.189 41.9168 53.3707 41.7886L53.3008 41.6895L53.2308 41.5903C53.0513 41.717 52.8689 41.8413 52.6834 41.963L52.75 42.0645ZM53.3008 41.6895L53.3475 41.5775C53.0689 41.4613 52.7956 41.3186 52.5249 41.1508L52.4609 41.2539L52.397 41.357C52.6776 41.5309 52.9624 41.6798 53.2541 41.8014L53.3008 41.6895ZM52.4609 41.2539L52.5216 41.1488L46.8077 37.849L46.7471 37.9541L46.6864 38.0592L52.4003 41.359L52.4609 41.2539ZM46.7471 37.9541L46.8076 37.849L46.46 37.6488L46.3994 37.7539L46.3389 37.859L46.6865 38.0592L46.7471 37.9541ZM46.3994 37.7539L46.4633 37.6508C46.1462 37.4542 45.8321 37.2242 45.5117 36.9712L45.4365 37.0664L45.3613 37.1616C45.6857 37.4178 46.0077 37.6538 46.3355 37.857L46.3994 37.7539ZM84.8193 4.49121L84.824 4.36998C84.27 4.34847 83.6972 4.38453 83.1083 4.48591L83.1289 4.60547L83.1495 4.72503C83.7218 4.6265 84.2777 4.5916 84.8146 4.61244L84.8193 4.49121ZM83.1289 4.60547L83.1083 4.48591C81.4871 4.7651 79.7796 5.52866 78.0783 6.81133L78.1514 6.9082L78.2244 7.00508C79.9008 5.74115 81.5731 4.9965 83.1495 4.72503L83.1289 4.60547ZM78.1514 6.9082L78.1113 7.02272C78.4171 7.12967 78.7154 7.26628 79.0023 7.43386L79.0635 7.3291L79.1247 7.22434C78.8241 7.04877 78.5116 6.90567 78.1914 6.79368L78.1514 6.9082ZM79.0635 7.3291L79.0031 7.43431L79.1017 7.49095L79.1621 7.38574L79.2225 7.28053L79.1239 7.22389L79.0635 7.3291ZM79.1621 7.38574L79.2254 7.28221C79.2001 7.2668 79.1629 7.24269 79.1315 7.22434L79.0703 7.3291L79.0091 7.43386C79.0397 7.45172 79.0626 7.46712 79.0989 7.48928L79.1621 7.38574ZM79.0703 7.3291L79.0097 7.43417L85.0722 10.9342L85.1328 10.8291L85.1935 10.724L79.131 7.22403L79.0703 7.3291ZM85.1328 10.8291L85.0716 10.9339C85.7552 11.3332 86.3805 11.9034 86.9116 12.6348L87.0098 12.5635L87.1079 12.4922C86.5588 11.7361 85.9091 11.142 85.194 10.7243L85.1328 10.8291ZM87.0098 12.5635L86.9013 12.6177L86.9022 12.6197L87.0107 12.5654L87.1193 12.5112L87.1183 12.5092L87.0098 12.5635ZM87.0107 12.5654L86.9127 12.6368C87.6055 13.5884 88.198 14.6674 88.6978 15.8509L88.8096 15.8037L88.9213 15.7565C88.4155 14.5586 87.8142 13.4628 87.1088 12.494L87.0107 12.5654ZM88.8096 15.8037L88.9298 15.7874C88.3499 11.5196 87.1256 7.64789 85.0875 4.66207L84.9873 4.73047L84.8871 4.79887C86.8969 7.74324 88.1126 11.5749 88.6894 15.82L88.8096 15.8037ZM84.9873 4.73047L85.0866 4.66076L84.9186 4.4215L84.8193 4.49121L84.72 4.56092L84.888 4.80018L84.9873 4.73047Z" fill="black"/>
<path fill-rule="evenodd" clip-rule="evenodd" d="M95.2982 25.3514C95.3208 31.3394 94.2224 37.7078 92.1098 44.3846L92.1089 44.388C90.5183 49.4029 87.7591 54.9025 84.302 58.8671C82.5447 60.8821 80.5686 62.5393 78.4961 63.4427C76.4154 64.3495 74.3951 64.4276 72.5295 63.5946C71.0019 62.913 69.8414 61.6765 68.8624 60.3885C68.3709 59.742 67.9074 59.057 67.4661 58.4037C67.0183 57.7407 66.5933 57.1108 66.1527 56.5233C64.3901 54.1732 62.669 52.9416 59.8173 53.9847C57.7587 54.8956 56.3443 56.1952 55.2335 57.6273C54.0433 59.1618 53.0491 61.0422 52.0053 63.3065C51.058 65.3617 49.9003 68.1468 48.7002 70.4325C47.4193 72.872 45.7572 75.4371 43.4254 77.3275L43.4246 77.327C40.8609 79.4109 38.6492 79.8559 36.9108 79.1971C35.2532 78.5686 34.0781 76.9692 33.242 75.1376C31.5692 71.4727 30.945 66.1809 31.0042 62.5643C31.0047 62.5332 31.0062 62.5014 31.0068 62.4701L31 62.474C31.0628 59.0172 31.4837 54.4536 32.8428 50.1024C34.2457 45.6116 36.8594 40.8041 41.2731 38.2557C43.7734 36.8122 45.6843 36.8423 47.2168 37.4608C48.6566 38.0419 49.8788 39.2093 50.9152 40.0882C53.1046 41.9449 54.9625 43.0192 58.5166 40.7035L58.838 40.4857C62.1177 38.1891 63.9341 34.6467 65.7763 29.6351C66.2489 28.3494 66.6985 27.0357 67.1777 25.6463C67.6497 24.278 68.1475 22.8441 68.6865 21.4188C69.7581 18.5849 71.0721 15.5625 72.9067 12.7508C76.1593 7.76307 79.8394 5.17263 83.1307 4.60582C86.314 4.05776 89.0113 5.40602 90.7676 7.82359L91.0543 8.23033C93.595 11.9527 94.8722 17.0721 95.1984 22.6356L95.2669 22.5961L95.2905 25.0775C95.2914 25.1698 95.291 25.2629 95.2914 25.3553L95.2982 25.3514ZM35.3733 60.1385C35.3232 63.1973 35.8792 67.8103 37.2745 70.8671C37.9723 72.3958 38.8031 73.3626 39.6983 73.702C40.5115 74.0101 41.399 73.8251 42.5543 72.8851L42.5594 72.8812C43.5663 72.0649 44.4409 70.8576 45.4036 69.0243C46.4471 67.037 47.242 65.0463 48.4685 62.3856C49.5987 59.9338 51.0003 57.1563 52.9399 54.6556C54.8229 52.2279 57.0805 50.2276 59.8444 48.9007L60.4043 48.6449L60.4618 48.6195L60.5176 48.599C65.3579 46.7871 67.9685 49.1878 69.8933 51.7543C70.3772 52.3995 70.8377 53.0834 71.2769 53.7337C71.7227 54.3937 72.149 55.0229 72.5929 55.6068C73.4289 56.7065 74.2667 57.5634 75.2333 58.0521L75.4286 58.1454C76.7243 58.7239 77.9421 58.6001 79.028 58.1268C80.1221 57.6498 81.2447 56.7472 82.3695 55.4574C84.677 52.8111 86.8238 48.7168 88.1213 44.6258C89.9309 38.9062 90.8839 33.498 90.9257 28.4051L90.9207 27.8788L90.9139 27.8827L90.9122 27.662C90.8519 21.6395 89.6518 16.1963 87.0075 12.5648L87.0066 12.5633C85.6561 10.7038 83.6975 9.85528 81.6836 10.202C79.7774 10.5304 77.7165 11.927 75.6942 15.0282L75.6933 15.0296C74.4719 16.9014 73.4722 19.1103 72.5016 21.6771C72.0195 22.9521 71.5639 24.2629 71.0909 25.6341C70.6251 26.9845 70.1373 28.408 69.6227 29.808C67.5748 35.3789 64.6882 41.7088 58.816 45.5648L58.8075 45.5707C52.9188 49.4127 49.8021 47.161 47.5196 45.2255C46.3195 44.2078 45.4305 43.3607 44.3879 42.9398C43.438 42.5565 42.494 42.5968 41.2731 43.3016C39.2184 44.488 37.8402 46.6312 36.8423 49.8255C35.8335 53.055 35.4356 56.7836 35.3707 59.9505L35.3775 59.9466C35.3762 60.0107 35.3743 60.075 35.3733 60.1385Z" fill="white" stroke="black" stroke-width="0.242643" stroke-linejoin="round"/>
</svg>
