<svg xmlns="http://www.w3.org/2000/svg" width="138" height="15" viewBox="0 0 138 15" fill="none">
  <path d="M134.861 8.05174C134.384 8.05174 134.187 7.75486 134.282 7.27529L135.552 1.36817C135.559 1.33772 135.566 1.30727 135.571 1.28443C135.689 0.774412 136.116 0.447084 136.624 0.447084C137.124 0.447084 137.4 0.774412 137.282 1.28443C137.277 1.30727 137.27 1.33772 137.263 1.36817L135.805 7.27529C135.679 7.75486 135.345 8.05174 134.861 8.05174ZM134.02 11.6904C133.45 11.6904 133.095 11.2641 133.224 10.7084C133.352 10.1527 133.904 9.72644 134.474 9.72644C135.06 9.72644 135.407 10.1527 135.278 10.7084C135.15 11.2641 134.606 11.6904 134.02 11.6904Z" fill="currentColor"/>
  <path d="M124.701 11.7209C124.201 11.7209 123.933 11.3935 124.058 10.8531L125.581 4.25322C125.697 3.75081 126.085 3.42348 126.578 3.42348C127.062 3.42348 127.322 3.75081 127.205 4.26083L127.059 4.89265H127.098C127.754 3.97918 128.74 3.43109 130.005 3.43109C131.818 3.43109 132.597 4.55771 132.173 6.39226L131.144 10.8531C131.019 11.3935 130.592 11.7209 130.092 11.7209C129.599 11.7209 129.323 11.3935 129.448 10.8531L130.404 6.71198C130.682 5.50924 130.257 4.84697 129.085 4.84697C127.897 4.84697 126.942 5.6691 126.655 6.9099L125.745 10.8531C125.62 11.3935 125.193 11.7209 124.701 11.7209Z" fill="currentColor"/>
  <path d="M118.652 11.7285C116.301 11.7285 115.118 10.1527 115.713 7.57217C116.307 4.99922 118.226 3.42348 120.57 3.42348C122.913 3.42348 124.104 4.99922 123.51 7.57217C122.915 10.1527 121.004 11.7285 118.652 11.7285ZM118.965 10.3735C120.293 10.3735 121.38 9.35344 121.792 7.57217C122.201 5.79851 121.577 4.77846 120.257 4.77846C118.937 4.77846 117.842 5.79851 117.432 7.57217C117.021 9.35344 117.645 10.3735 118.965 10.3735Z" fill="currentColor"/>
  <path d="M109.918 11.7285C107.566 11.7285 106.383 10.1527 106.979 7.57217C107.573 4.99922 109.492 3.42348 111.835 3.42348C114.179 3.42348 115.37 4.99922 114.776 7.57217C114.18 10.1527 112.27 11.7285 109.918 11.7285ZM110.231 10.3735C111.559 10.3735 112.646 9.35344 113.057 7.57217C113.467 5.79851 112.843 4.77846 111.523 4.77846C110.202 4.77846 109.107 5.79851 108.698 7.57217C108.287 9.35344 108.91 10.3735 110.231 10.3735Z" fill="currentColor"/>
  <path d="M101.684 11.7285C100.066 11.7285 99.0283 11.0814 98.8644 10.0994C98.8378 9.97764 98.8485 9.86346 98.8731 9.75689C98.968 9.34582 99.329 9.10223 99.7508 9.10223C100.032 9.10223 100.244 9.23164 100.385 9.53613C100.658 10.1832 101.083 10.4724 102.06 10.4724C103.02 10.4724 103.762 10.069 103.915 9.40672C104.036 8.88148 103.781 8.59982 102.946 8.39429L101.717 8.09741C100.208 7.73202 99.6023 6.9708 99.8659 5.82896C100.2 4.38263 101.71 3.42348 103.663 3.42348C105.148 3.42348 106.196 4.16187 106.213 5.10579C106.207 5.19714 106.205 5.27326 106.188 5.34938C106.103 5.71477 105.813 5.95837 105.391 5.95837C105.117 5.95837 104.896 5.86702 104.792 5.6082C104.565 4.99922 104.139 4.6795 103.311 4.6795C102.405 4.6795 101.68 5.1134 101.535 5.73761C101.419 6.24002 101.737 6.59018 102.559 6.7881L103.765 7.07737C105.402 7.46559 105.927 8.06696 105.653 9.25448C105.31 10.7389 103.715 11.7285 101.684 11.7285Z" fill="currentColor"/>
  <path d="M89.14 14.5907C87.6513 14.5755 86.6017 14.0121 86.2395 13.1443C86.1723 12.9617 86.1641 12.7942 86.2081 12.6039C86.2959 12.2233 86.6483 11.9492 87.0779 11.9492C87.3358 11.9492 87.4805 12.033 87.6561 12.2537C88.1698 12.9388 88.6794 13.2357 89.4805 13.2509C90.852 13.2661 91.8637 12.5049 92.1221 11.3859L92.4155 10.1147H92.3765C91.7152 10.9825 90.6146 11.5534 89.4428 11.5534C87.3725 11.5534 86.3925 9.97764 86.9637 7.50366C87.5419 4.99922 89.2302 3.43871 91.3552 3.43871C92.5193 3.43871 93.2938 4.00963 93.5846 4.91549H93.6159L93.7653 4.26844C93.8883 3.73558 94.3275 3.42348 94.8119 3.42348C95.2963 3.42348 95.5836 3.73558 95.4606 4.26844L93.8244 11.3555C93.3675 13.3347 91.58 14.6135 89.14 14.5907ZM90.2052 10.2136C91.5255 10.2136 92.643 9.16313 93.0226 7.51888C93.4022 5.87463 92.7768 4.79369 91.4565 4.79369C90.1596 4.79369 89.0733 5.84418 88.6885 7.51127C88.3018 9.18597 88.9083 10.2136 90.2052 10.2136Z" fill="currentColor"/>
  <path d="M78.4822 11.7209C77.9822 11.7209 77.714 11.3935 77.8388 10.8531L79.3625 4.25322C79.4785 3.75081 79.8666 3.42348 80.3588 3.42348C80.8431 3.42348 81.1035 3.75081 80.9858 4.26083L80.8399 4.89265H80.879C81.5352 3.97918 82.5211 3.43109 83.7867 3.43109C85.5992 3.43109 86.3782 4.55771 85.9546 6.39226L84.9248 10.8531C84.8 11.3935 84.3729 11.7209 83.8729 11.7209C83.3807 11.7209 83.1047 11.3935 83.2295 10.8531L84.1855 6.71198C84.4632 5.50924 84.0379 4.84697 82.8661 4.84697C81.6786 4.84697 80.7231 5.6691 80.4367 6.9099L79.5263 10.8531C79.4015 11.3935 78.9744 11.7209 78.4822 11.7209Z" fill="currentColor"/>
  <path d="M77.2297 2.35776C76.6907 2.35776 76.3516 1.93148 76.4711 1.41384C76.5924 0.888596 77.1248 0.477533 77.6638 0.477533C78.2107 0.477533 78.5533 0.888596 78.432 1.41384C78.3125 1.93148 77.7766 2.35776 77.2297 2.35776ZM75.0681 11.7209C74.5603 11.7209 74.3034 11.3783 74.4247 10.8531L75.9378 4.29889C76.0609 3.76603 76.4759 3.42348 76.9837 3.42348C77.4915 3.42348 77.7484 3.76603 77.6253 4.29889L76.1122 10.8531C75.9909 11.3783 75.5759 11.7209 75.0681 11.7209Z" fill="currentColor"/>
  <path d="M61.8104 11.7209C61.3025 11.7209 61.0457 11.3783 61.167 10.8531L62.6889 4.26083C62.8084 3.7432 63.2103 3.42348 63.6869 3.42348C64.1556 3.42348 64.4195 3.73558 64.2983 4.26083L64.1471 4.91549H64.1862C64.759 4.02485 65.7554 3.43109 66.8648 3.43109C68.0054 3.43109 68.7018 4.00201 68.7997 4.99922H68.8387C69.4856 4.02485 70.5914 3.43109 71.7633 3.43109C73.3883 3.43109 74.2082 4.48159 73.8409 6.07255L72.7373 10.8531C72.616 11.3783 72.1932 11.7209 71.6854 11.7209C71.1775 11.7209 70.9207 11.3783 71.042 10.8531L72.0542 6.46839C72.2932 5.43312 71.86 4.83936 70.86 4.83936C69.86 4.83936 68.9977 5.56253 68.764 6.57496L67.7763 10.8531C67.6551 11.3783 67.2557 11.7209 66.7479 11.7209C66.24 11.7209 65.9988 11.3783 66.1201 10.8531L67.1605 6.34659C67.3731 5.42551 66.9069 4.83936 65.9538 4.83936C64.9538 4.83936 64.0671 5.60059 63.8298 6.62825L62.8545 10.8531C62.7332 11.3783 62.3182 11.7209 61.8104 11.7209Z" fill="currentColor"/>
  <path d="M55.7617 11.7285C53.4102 11.7285 52.2271 10.1527 52.8228 7.57217C53.4169 4.99922 55.3353 3.42348 57.6791 3.42348C60.0228 3.42348 61.2137 4.99922 60.6197 7.57217C60.0239 10.1527 58.1133 11.7285 55.7617 11.7285ZM56.0745 10.3735C57.4027 10.3735 58.4897 9.35344 58.901 7.57217C59.3104 5.79851 58.6866 4.77846 57.3663 4.77846C56.0459 4.77846 54.9511 5.79851 54.5416 7.57217C54.1304 9.35344 54.7542 10.3735 56.0745 10.3735Z" fill="currentColor"/>
  <path d="M47.4805 11.7285C45.1289 11.7285 43.965 10.1375 44.5537 7.58739C45.1389 5.05251 47.0385 3.42348 49.3822 3.42348C50.9681 3.42348 52.1377 4.24561 52.2387 5.36461C52.2557 5.49402 52.2554 5.63104 52.229 5.74522C52.1323 6.1639 51.7679 6.42271 51.3538 6.42271C50.9945 6.42271 50.823 6.28569 50.7042 5.9203C50.4581 5.15908 49.9643 4.79369 49.0971 4.79369C47.7768 4.79369 46.6696 5.86702 46.276 7.57217C45.8735 9.31537 46.5095 10.3506 47.8142 10.3506C48.7283 10.3506 49.3743 9.95481 49.9327 9.26209C50.2585 8.86625 50.4698 8.72923 50.837 8.72923C51.251 8.72923 51.4924 9.00327 51.3975 9.41433C51.3677 9.54374 51.3048 9.68076 51.2054 9.84062C50.5209 10.9444 49.0039 11.7285 47.4805 11.7285Z" fill="currentColor"/>
  <path d="M28.3572 11.7209C27.8494 11.7209 27.5926 11.3783 27.7138 10.8531L29.2358 4.26083C29.3553 3.7432 29.7572 3.42348 30.2338 3.42348C30.7025 3.42348 30.9664 3.73558 30.8451 4.26083L30.694 4.91549H30.7331C31.3059 4.02485 32.3023 3.43109 33.4117 3.43109C34.5523 3.43109 35.2486 4.00201 35.3465 4.99922H35.3856C36.0324 4.02485 37.1383 3.43109 38.3101 3.43109C39.9351 3.43109 40.7551 4.48159 40.3878 6.07255L39.2841 10.8531C39.1629 11.3783 38.74 11.7209 38.2322 11.7209C37.7244 11.7209 37.4676 11.3783 37.5888 10.8531L38.6011 6.46839C38.8401 5.43312 38.4069 4.83936 37.4069 4.83936C36.4069 4.83936 35.5446 5.56253 35.3109 6.57496L34.3232 10.8531C34.2019 11.3783 33.8025 11.7209 33.2947 11.7209C32.7869 11.7209 32.5457 11.3783 32.667 10.8531L33.7073 6.34659C33.92 5.42551 33.4538 4.83936 32.5006 4.83936C31.5006 4.83936 30.614 5.60059 30.3767 6.62825L29.4013 10.8531C29.2801 11.3783 28.865 11.7209 28.3572 11.7209Z" fill="currentColor"/>
  <path d="M27.1047 2.35776C26.5657 2.35776 26.2266 1.93148 26.3461 1.41384C26.4674 0.888596 26.9998 0.477533 27.5388 0.477533C28.0857 0.477533 28.4283 0.888596 28.307 1.41384C28.1875 1.93148 27.6516 2.35776 27.1047 2.35776ZM24.9431 11.7209C24.4353 11.7209 24.1784 11.3783 24.2997 10.8531L25.8128 4.29889C25.9359 3.76603 26.3509 3.42348 26.8587 3.42348C27.3665 3.42348 27.6234 3.76603 27.5003 4.29889L25.9872 10.8531C25.8659 11.3783 25.4509 11.7209 24.9431 11.7209Z" fill="currentColor"/>
  <path d="M18.1559 11.7132C16.5465 11.7132 15.6386 10.7389 15.9708 9.30015C16.2941 7.89949 17.6021 7.03931 19.572 6.93274L21.8597 6.80333L22.0021 6.18673C22.2077 5.2961 21.7135 4.76324 20.6823 4.76324C19.8698 4.76324 19.2657 5.04489 18.6282 5.77567C18.4001 6.01926 18.1568 6.12584 17.8599 6.12584C17.438 6.12584 17.1966 5.85179 17.2915 5.44073C17.3301 5.27326 17.4192 5.09057 17.5629 4.90787C18.2018 4.00201 19.5775 3.42348 21.0541 3.42348C23.0463 3.42348 24.0824 4.45114 23.7116 6.05733L22.5957 10.8911C22.4762 11.4087 22.0682 11.7209 21.5916 11.7209C21.1229 11.7209 20.8711 11.424 20.9679 10.9368L21.1243 10.2593H21.0853C20.4031 11.1499 19.2262 11.7132 18.1559 11.7132ZM18.9173 10.4115C20.097 10.4115 21.2095 9.61987 21.4502 8.57699L21.5961 7.94517L19.5367 8.06696C18.5131 8.13547 17.8426 8.56937 17.6844 9.25448C17.5228 9.95481 18.0189 10.4115 18.9173 10.4115Z" fill="currentColor"/>
  <path d="M13.1697 11.7209C12.6775 11.7209 12.4015 11.3935 12.5263 10.8531L14.7284 1.31488C14.8531 0.774412 15.2803 0.447084 15.7725 0.447084C16.2646 0.447084 16.5406 0.774412 16.4159 1.31488L14.2138 10.8531C14.089 11.3935 13.6619 11.7209 13.1697 11.7209Z" fill="currentColor"/>
  <path d="M6.10623 11.7589C2.91873 11.7589 1.42917 9.5818 2.23759 6.08016C3.04074 2.60136 5.5625 0.409023 8.71094 0.409023C10.7812 0.409023 12.2108 1.39101 12.5396 3.01242C12.598 3.23317 12.6 3.46154 12.5525 3.66707C12.4471 4.12381 12.066 4.42069 11.5973 4.42069C11.1832 4.42069 10.9555 4.22277 10.8621 3.78126C10.6216 2.55568 9.66336 1.90103 8.36648 1.90103C6.31961 1.90103 4.61363 3.53766 4.02665 6.08016C3.4344 8.6455 4.37257 10.2669 6.44288 10.2669C7.81788 10.2669 9.00437 9.69599 9.80197 8.50847C10.0826 8.10502 10.3478 7.93755 10.7307 7.93755C11.2072 7.93755 11.4615 8.25727 11.3578 8.70639C11.3034 8.94237 11.1899 9.16313 11.0069 9.41433C9.93764 10.8987 8.19998 11.7589 6.10623 11.7589Z" fill="currentColor"/>
</svg>