<svg width="17" height="16" viewBox="0 0 17 16" fill="none" xmlns="http://www.w3.org/2000/svg">
<path fill-rule="evenodd" clip-rule="evenodd" d="M8.49996 15.9999C10.7091 15.9999 12.7091 15.1045 14.1568 13.6568C15.6045 12.2091 16.4999 10.2091 16.4999 7.99996C16.4999 5.79085 15.6045 3.79086 14.1568 2.34313C12.7091 0.895427 10.7091 0 8.49996 0C6.29085 0 4.29086 0.895427 2.84313 2.34313C1.39543 3.79086 0.5 5.79085 0.5 7.99996C0.5 10.2091 1.39543 12.2091 2.84313 13.6568C4.29086 15.1045 6.29085 15.9999 8.49996 15.9999ZM5.375 5.76038C5.375 4.03449 6.77411 2.63538 8.5 2.63538C10.2259 2.63538 11.625 4.03449 11.625 5.76038C11.625 7.27222 10.5514 8.53332 9.125 8.82286V9.92704C9.125 10.2722 8.84518 10.552 8.5 10.552C8.15482 10.552 7.875 10.2722 7.875 9.92704V8.26038C7.875 7.9152 8.15482 7.63538 8.5 7.63538C9.53553 7.63538 10.375 6.79591 10.375 5.76038C10.375 4.72485 9.53553 3.88538 8.5 3.88538C7.46447 3.88538 6.625 4.72485 6.625 5.76038C6.625 6.10555 6.34518 6.38538 6 6.38538C5.65482 6.38538 5.375 6.10555 5.375 5.76038ZM9.54134 12.6354C9.54134 13.2107 9.07497 13.6771 8.49967 13.6771C7.92438 13.6771 7.45801 13.2107 7.45801 12.6354C7.45801 12.0601 7.92438 11.5938 8.49967 11.5938C9.07497 11.5938 9.54134 12.0601 9.54134 12.6354Z" fill="#C5C5CF"/>
</svg>
