<svg width="40" height="40" viewBox="0 0 40 40" fill="none" xmlns="http://www.w3.org/2000/svg">
<path d="M0 14C0 6.26801 6.26801 0 14 0H26C33.732 0 40 6.26801 40 14V26C40 33.732 33.732 40 26 40H14C6.26801 40 0 33.732 0 26V14Z" fill="#EBEEF7"/>
<path d="M14.1087 28.25H26.8913C29.89 28.25 32.25 25.7976 32.25 22.8C32.25 20.5699 30.9621 18.6109 29.0051 17.773C28.6024 14.4092 25.7768 11.75 22.3261 11.75C20.0539 11.75 18.0284 12.8904 16.8103 14.7035C16.461 14.6045 16.0925 14.55 15.7065 14.55C13.6344 14.55 11.9492 16.0454 11.5694 17.9975C9.84552 18.9481 8.75 20.7858 8.75 22.8C8.75 25.7976 11.11 28.25 14.1087 28.25Z" stroke="#3E495E" stroke-width="2.5"/>
</svg>
