<svg width="54" height="54" viewBox="0 0 54 54" fill="none" xmlns="http://www.w3.org/2000/svg">
<g id="Frame 1244831019">
<g id="Group 427323190">
<path id="Vector" d="M21.959 27.016C21.959 28.48 22.5405 29.884 23.5757 30.9192C24.6109 31.9544 26.0149 32.5359 27.4789 32.5359C28.9429 32.5359 30.3469 31.9544 31.382 30.9192C32.4172 29.884 32.9988 28.48 32.9988 27.016C32.9988 25.5521 32.4172 24.148 31.382 23.1129C30.3469 22.0777 28.9429 21.4961 27.4789 21.4961C26.0149 21.4961 24.6109 22.0777 23.5757 23.1129C22.5405 24.148 21.959 25.5521 21.959 27.016Z" stroke="white" stroke-width="2.3" stroke-linecap="round" stroke-linejoin="round"/>
<path id="Vector_2" d="M47.3628 27C42.053 35.8496 35.4158 40.2744 27.4512 40.2744C19.4865 40.2744 12.8493 35.8496 7.53955 27C12.8493 18.1504 19.4865 13.7256 27.4512 13.7256C35.4158 13.7256 42.053 18.1504 47.3628 27Z" stroke="white" stroke-width="2.3" stroke-linecap="round" stroke-linejoin="round"/>
</g>
</g>
</svg>
