<svg width="156" height="156" viewBox="0 0 156 156" fill="none" xmlns="http://www.w3.org/2000/svg">
<g filter="url(#filter0_d_16449_63227)">
<rect x="45" y="28" width="66" height="66" rx="16" fill="url(#paint0_linear_16449_63227)"/>
<path d="M57.75 73.0018C57.75 77.55 61.4397 81.25 65.9772 81.25H77.2564C78.2742 81.25 79.0992 80.425 79.0993 79.4072C79.0994 78.3893 78.2742 77.5642 77.2564 77.5642H65.9772C63.4693 77.5642 61.4274 75.5184 61.4274 73.0014V49.9978C61.4274 47.4812 63.4694 45.435 65.9772 45.435L87.0224 45.4354C89.5311 45.4354 91.573 47.4812 91.573 49.9982V54.7292C91.573 55.7446 92.396 56.5677 93.4114 56.5677C94.4268 56.5678 95.25 55.7446 95.25 54.7292V49.9982C95.25 45.4499 91.5603 41.75 87.022 41.75H65.9768C61.4397 41.75 57.75 45.45 57.75 49.9982V73.0018Z" fill="white" stroke="white" stroke-width="0.5"/>
<path d="M68.5 52.75C67.5335 52.75 66.75 53.5335 66.75 54.5C66.75 55.4665 67.5335 56.25 68.5 56.25H74.5C75.4665 56.25 76.25 55.4665 76.25 54.5C76.25 53.5335 75.4665 52.75 74.5 52.75H68.5Z" fill="white" stroke="white" stroke-width="0.5"/>
<path d="M68.5 61.75C67.5335 61.75 66.75 62.5335 66.75 63.5C66.75 64.4665 67.5335 65.25 68.5 65.25H74.5C75.4665 65.25 76.25 64.4665 76.25 63.5C76.25 62.5335 75.4665 61.75 74.5 61.75H68.5Z" fill="white" stroke="white" stroke-width="0.5"/>
<path d="M91.5146 82.2937C87.1494 82.2937 84.3516 80.5505 83.502 78.2361C83.3555 77.8552 83.2676 77.4451 83.2676 77.0496C83.2676 75.8777 84.0732 75.1013 85.2158 75.1013C86.124 75.1013 86.7246 75.4529 87.252 76.3904C87.9404 78.0017 89.5957 78.7341 91.6172 78.7341C93.9902 78.7341 95.6016 77.5916 95.6016 76.0388C95.6016 74.6472 94.6055 73.8562 91.9541 73.3142L89.7129 72.8748C85.4941 72.0398 83.4287 70.0183 83.4287 66.8689C83.4287 63.0017 86.7979 60.4382 91.5 60.4382C95.3672 60.4382 98.2822 62.0642 99.2197 64.8181C99.3223 65.1111 99.3809 65.4187 99.3809 65.7996C99.3809 66.8542 98.6191 67.572 97.4912 67.572C96.4951 67.572 95.8799 67.1765 95.3818 66.2683C94.6787 64.6716 93.3164 64.0125 91.5 64.0125C89.3174 64.0125 87.8672 65.0378 87.8672 66.5906C87.8672 67.8943 88.8779 68.7 91.3828 69.198L93.6094 69.6521C98.0918 70.5457 100.025 72.3474 100.025 75.5554C100.025 79.6863 96.7881 82.2937 91.5146 82.2937Z" fill="white"/>
</g>
<defs>
<filter id="filter0_d_16449_63227" x="0.333332" y="0.0833321" width="155.333" height="155.333" filterUnits="userSpaceOnUse" color-interpolation-filters="sRGB">
<feFlood flood-opacity="0" result="BackgroundImageFix"/>
<feColorMatrix in="SourceAlpha" type="matrix" values="0 0 0 0 0 0 0 0 0 0 0 0 0 0 0 0 0 0 127 0" result="hardAlpha"/>
<feOffset dy="16.75"/>
<feGaussianBlur stdDeviation="22.3333"/>
<feColorMatrix type="matrix" values="0 0 0 0 0.168627 0 0 0 0 0.176471 0 0 0 0 0.2 0 0 0 0.08 0"/>
<feBlend mode="normal" in2="BackgroundImageFix" result="effect1_dropShadow_16449_63227"/>
<feBlend mode="normal" in="SourceGraphic" in2="effect1_dropShadow_16449_63227" result="shape"/>
</filter>
<linearGradient id="paint0_linear_16449_63227" x1="116.5" y1="94" x2="44.5" y2="28" gradientUnits="userSpaceOnUse">
<stop stop-color="#9BA9FF"/>
<stop offset="1" stop-color="#7084FF"/>
</linearGradient>
</defs>
</svg>
