<svg width="40" height="40" viewBox="0 0 40 40" fill="none" xmlns="http://www.w3.org/2000/svg">
<path d="M0 14C0 6.26801 6.26801 0 14 0H26C33.732 0 40 6.26801 40 14V26C40 33.732 33.732 40 26 40H14C6.26801 40 0 33.732 0 26V14Z" fill="#EBEEF7"/>
<path d="M25.9821 15.6465L25.9873 15.6256V15.6041C25.9873 14.9726 25.4777 14.5958 24.979 14.5958H16.1248C15.8295 14.5958 15.5764 14.6848 15.3951 14.8496C15.2129 15.0153 15.1165 15.2459 15.1165 15.4999C15.1165 15.7954 15.2058 16.0524 15.3891 16.2356C15.5724 16.4189 15.8293 16.5083 16.1248 16.5083H24.8748C25.1721 16.5083 25.4211 16.4183 25.6119 16.2594C25.8013 16.1015 25.9226 15.8846 25.9821 15.6465ZM16.0905 20.7757L16.1075 20.7791H16.1248H21.854C22.4855 20.7791 22.8623 20.2694 22.8623 19.7708C22.8623 19.1392 22.3527 18.7624 21.854 18.7624H16.1248C15.8295 18.7624 15.5764 18.8515 15.3951 19.0163C15.2129 19.182 15.1165 19.4125 15.1165 19.6666C15.1165 19.9641 15.2068 20.2167 15.3839 20.4098C15.5589 20.6008 15.8047 20.7185 16.0905 20.7757Z" fill="#3E495E" stroke="#3E495E" stroke-width="0.35"/>
<path d="M21.9895 30.0125H20.4662V28.4892L26.9774 21.978C26.9893 21.9661 27.0186 21.9511 27.062 21.9511C27.1054 21.9511 27.1348 21.9661 27.1466 21.978L28.5008 23.3321C28.5315 23.3628 28.5442 23.3906 28.5496 23.4069C28.5521 23.4145 28.5532 23.42 28.5537 23.4227C28.5537 23.4338 28.5536 23.4416 28.5535 23.4474C28.5427 23.4593 28.5272 23.4749 28.5008 23.5013L21.9895 30.0125ZM19.4578 31.925H22.2703C22.5266 31.925 22.7918 31.8003 22.9337 31.5425L29.7899 24.6863C30.1316 24.3446 30.362 23.8846 30.362 23.3125C30.362 22.85 30.1356 22.2845 29.7899 21.9388L28.4358 20.5846C27.6382 19.7871 26.3816 19.7871 25.5841 20.5846L18.7091 27.4596C18.5743 27.5944 18.4495 27.8464 18.4495 28.1042V30.9167C18.4495 31.5482 18.9592 31.925 19.4578 31.925Z" fill="#3E495E" stroke="#3E495E" stroke-width="0.35"/>
<path d="M12.1655 31.9251H16.853C17.3517 31.9251 17.8614 31.5483 17.8614 30.9167C17.8614 30.2852 17.3517 29.9084 16.853 29.9084H12.1669C12.1663 29.9082 12.165 29.9078 12.163 29.9069C12.1583 29.9047 12.1521 29.9007 12.146 29.8946C12.1399 29.8885 12.1359 29.8823 12.1337 29.8776C12.1328 29.8756 12.1324 29.8743 12.1322 29.8737V11.1264C12.1324 11.1258 12.1328 11.1245 12.1337 11.1226C12.1359 11.1179 12.1399 11.1117 12.146 11.1056C12.1521 11.0995 12.1583 11.0954 12.163 11.0932C12.165 11.0923 12.1663 11.0919 12.1669 11.0917H28.8308C28.8315 11.0919 28.8328 11.0923 28.8347 11.0932C28.8394 11.0954 28.8456 11.0995 28.8517 11.1056C28.8578 11.1117 28.8618 11.1179 28.864 11.1226C28.8649 11.1245 28.8654 11.1258 28.8655 11.1264V19.5626C28.8655 19.8581 28.9549 20.115 29.1381 20.2983C29.3214 20.4816 29.5784 20.5709 29.8739 20.5709C30.5054 20.5709 30.8822 20.0613 30.8822 19.5626V11.2292C30.8822 10.0909 29.9705 9.17925 28.8322 9.17925H12.1655C11.0407 9.17925 10.1155 9.97384 10.1155 11.1251V29.8751C10.1155 31.0134 11.0272 31.9251 12.1655 31.9251Z" fill="#3E495E" stroke="#3E495E" stroke-width="0.35"/>
</svg>
