<svg width="23" height="25" viewBox="0 0 23 25" fill="none" xmlns="http://www.w3.org/2000/svg">
<path d="M19.7333 5.31164L12.3444 2.1577C11.8167 1.94743 11.2361 1.94743 10.6556 2.1577L3.26667 5.31164C2.52778 5.6796 2 6.41552 2 7.25657V11.1464C2 16.6133 5.64167 21.4493 10.9194 22.9212C11.2889 23.0263 11.7111 23.0263 12.0806 22.9212C17.3583 21.4493 21 16.6133 21 11.1464V7.25657C21 6.41552 20.4722 5.6796 19.7333 5.31164Z" fill="#7084FF"/>
<path d="M19.7333 5.31164L20.2906 4.19271L20.2578 4.17638L20.2241 4.16199L19.7333 5.31164ZM12.3444 2.1577L12.8352 1.00805L12.8212 1.00208L12.8071 0.996459L12.3444 2.1577ZM10.6556 2.1577L10.2299 0.982405L10.197 0.994317L10.1648 1.00805L10.6556 2.1577ZM3.26667 5.31164L2.77594 4.16199L2.74224 4.17638L2.70945 4.19271L3.26667 5.31164ZM10.9194 22.9212L11.2616 21.7189L11.2552 21.7171L10.9194 22.9212ZM12.0806 22.9212L11.7448 21.7171L11.7384 21.7189L12.0806 22.9212ZM20.2241 4.16199L12.8352 1.00805L11.8537 3.30734L19.2426 6.46129L20.2241 4.16199ZM12.8071 0.996459C11.9693 0.662676 11.0712 0.677703 10.2299 0.982405L11.0812 3.33299C11.401 3.21717 11.6641 3.23219 11.8818 3.31894L12.8071 0.996459ZM10.1648 1.00805L2.77594 4.16199L3.75739 6.46129L11.1463 3.30734L10.1648 1.00805ZM2.70945 4.19271C1.61013 4.74016 0.75 5.87378 0.75 7.25657H3.25C3.25 6.95726 3.44543 6.61904 3.82388 6.43057L2.70945 4.19271ZM0.75 7.25657V11.1464H3.25V7.25657H0.75ZM0.75 11.1464C0.75 17.1702 4.76153 22.5016 10.5837 24.1252L11.2552 21.7171C6.5218 20.3971 3.25 16.0563 3.25 11.1464H0.75ZM10.5773 24.1234C11.1704 24.2922 11.8296 24.2922 12.4227 24.1234L11.7384 21.7189C11.5926 21.7604 11.4074 21.7604 11.2616 21.7189L10.5773 24.1234ZM12.4163 24.1252C18.2385 22.5016 22.25 17.1702 22.25 11.1464H19.75C19.75 16.0563 16.4782 20.3971 11.7448 21.7171L12.4163 24.1252ZM22.25 11.1464V7.25657H19.75V11.1464H22.25ZM22.25 7.25657C22.25 5.87378 21.3899 4.74016 20.2906 4.19271L19.1761 6.43057C19.5546 6.61904 19.75 6.95726 19.75 7.25657H22.25Z" fill="white"/>
<path d="M11.6193 7.27447C12.6561 7.27447 13.5104 8.0615 13.6401 9.08059H14.8617C14.7173 7.35551 13.3097 6 11.5924 6C9.87515 6 8.46879 7.35551 8.32436 9.08059H9.59976C9.72705 8.0615 10.5826 7.27447 11.6193 7.27447ZM14.6291 9.83078H8.36964C7.61322 9.83078 7 10.4459 7 11.2047V15.6261C7 16.3849 7.61322 17 8.36964 17H14.6304C15.388 17 16 16.3849 16 15.6261V11.2059C16 10.4471 15.3856 9.83078 14.6291 9.83078ZM12.082 13.5339V14.5321C12.082 14.8697 11.8091 15.1423 11.4737 15.1423C11.1371 15.1423 10.8654 14.8685 10.8654 14.5321V13.5486C10.7013 13.3902 10.5985 13.1692 10.5985 12.9224C10.5985 12.4423 10.9878 12.0519 11.4663 12.0519C11.9449 12.0519 12.3341 12.4423 12.3341 12.9224C12.3317 13.1606 12.2362 13.3767 12.082 13.5339Z" fill="white"/>
</svg>
