<svg xmlns="http://www.w3.org/2000/svg" width="18" height="18" viewBox="0 0 18 18" fill="none">
  <path d="M9 16C10.933 16 12.683 15.2165 13.9497 13.9497C15.2165 12.683 16 10.933 16 9C16 7.06702 15.2165 5.31702 13.9497 4.05025C12.683 2.7835 10.933 2 9 2C7.06702 2 5.31702 2.7835 4.05025 4.05025C2.7835 5.31702 2 7.06702 2 9C2 10.933 2.7835 12.683 4.05025 13.9497C5.31702 15.2165 7.06702 16 9 16Z" stroke="#FF564B" stroke-width="2" stroke-linecap="round" stroke-linejoin="round"/>
  <path d="M9 10.3298C8.67204 10.3298 8.39975 10.0765 8.37609 9.74941L8.12429 6.26913L8.10925 5.93128C8.08666 5.42379 8.492 5 9 5C9.508 5 9.91334 5.42379 9.89075 5.93128L9.87571 6.26913L9.62391 9.74941C9.60025 10.0765 9.32796 10.3298 9 10.3298ZM9.00565 13.5C8.41808 13.5 8 13.0607 8 12.4433C8 11.8259 8.42938 11.3984 9.00565 11.3984C9.57062 11.3984 10 11.8259 10 12.4433C10 13.0607 9.57062 13.5 9.00565 13.5Z" fill="#FF453A"/>
</svg>
