<svg xmlns="http://www.w3.org/2000/svg" width="18" height="18" viewBox="0 0 18 18" fill="none">
  <path d="M7.07129 8.78733L9.49499 11.1429L14.7856 6" stroke="#58C669" stroke-width="1.92857" stroke-linecap="round" stroke-linejoin="round"/>
  <path d="M16.833 10.0107C16.6407 13.8108 13.4898 16.8418 9.64355 16.8418C5.67254 16.8418 2.44238 13.6122 2.44238 9.6416C2.4424 5.67097 5.6734 2.44141 9.64355 2.44141H9.64551L9.7334 2.44727C9.93738 2.47061 10.1282 2.56336 10.2734 2.71094L10.332 2.77734C10.4608 2.93687 10.5321 3.13601 10.5322 3.34277C10.5322 3.54972 10.4609 3.74952 10.332 3.90918L10.2734 3.97559C10.1076 4.14414 9.88198 4.24122 9.64551 4.24512H9.64355C6.66764 4.24512 4.24611 6.66603 4.24609 9.6416C4.24609 12.6172 6.66843 15.0381 9.64355 15.0381C12.6186 15.0381 15.0391 12.6162 15.0391 9.64062V9.63867L15.168 9.64062L15.04 9.63867C15.044 9.40223 15.14 9.17657 15.3086 9.01074L15.375 8.95215C15.5346 8.82334 15.7345 8.75195 15.9414 8.75195C16.1778 8.75203 16.4047 8.84506 16.5732 9.01074L16.6328 9.07617C16.7643 9.23365 16.8393 9.43177 16.8428 9.63867V9.64062L16.833 10.0107Z" fill="#58C669" stroke="#58C669" stroke-width="0.257143"/>
</svg>
