<svg width="24" height="24" viewBox="0 0 24 24" fill="none" xmlns="http://www.w3.org/2000/svg">
<path d="M17.5932 7.40681C17.4713 7.28492 17.3266 7.18823 17.1674 7.12226C17.0081 7.05629 16.8374 7.02234 16.6651 7.02234C16.4927 7.02234 16.322 7.05629 16.1628 7.12226C16.0035 7.18823 15.8588 7.28492 15.7369 7.40681L7.38444 15.7593C7.13829 16.0055 7 16.3393 7 16.6874C7 17.0355 7.13829 17.3694 7.38444 17.6156C7.6306 17.8617 7.96445 18 8.31257 18C8.66068 18 8.99454 17.8617 9.24069 17.6156L17.5932 9.26306C17.7151 9.14118 17.8118 8.99648 17.8777 8.83724C17.9437 8.67799 17.9777 8.5073 17.9777 8.33493C17.9777 8.16256 17.9437 7.99188 17.8777 7.83263C17.8118 7.67338 17.7151 7.52869 17.5932 7.40681Z" fill="currentColor"/>
<path d="M17.5932 17.6155C17.7151 17.4937 17.8118 17.349 17.8777 17.1897C17.9437 17.0305 17.9777 16.8598 17.9777 16.6874C17.9777 16.515 17.9437 16.3444 17.8777 16.1851C17.8118 16.0259 17.7151 15.8812 17.5932 15.7593L9.24069 7.40678C8.99454 7.16063 8.66068 7.02234 8.31257 7.02234C7.96445 7.02234 7.6306 7.16063 7.38444 7.40678C7.13829 7.65294 7 7.98679 7 8.33491C7 8.68302 7.13829 9.01688 7.38444 9.26303L15.7369 17.6155C15.8588 17.7374 16.0035 17.8341 16.1628 17.9001C16.322 17.966 16.4927 18 16.6651 18C16.8374 18 17.0081 17.966 17.1674 17.9001C17.3266 17.8341 17.4713 17.7374 17.5932 17.6155Z" fill="currentColor"/>
</svg>
