<svg width="44" height="44" viewBox="0 0 44 44" fill="none" xmlns="http://www.w3.org/2000/svg">
<path d="M29 24C27.882 24 27 23.1056 27 22C27 20.882 27.882 20 29 20C30.1056 20 31 20.882 31 22C31 23.1056 30.1056 24 29 24Z" fill="currentColor"/>
<path d="M22 24C20.882 24 20 23.1056 20 22C20 20.882 20.882 20 22 20C23.1056 20 24 20.882 24 22C24 23.1056 23.1056 24 22 24Z" fill="currentColor"/>
<path d="M15 24C13.882 24 13 23.1056 13 22C13 20.882 13.882 20 15 20C16.1056 20 17 20.882 17 22C17 23.1056 16.1056 24 15 24Z" fill="currentColor"/>
</svg>
