<svg width="24" height="24" viewBox="0 0 24 24" fill="none" xmlns="http://www.w3.org/2000/svg">
<path d="M11.9219 9C13.5787 9 14.9219 10.3431 14.9219 12C14.9216 13.6566 13.5786 15 11.9219 15C10.2652 15 8.92214 13.6566 8.92188 12C8.92188 10.3431 10.265 9 11.9219 9ZM4.03906 9.91895C5.14363 9.91895 6.03906 10.8144 6.03906 11.9189C6.03906 13.0235 5.14363 13.9189 4.03906 13.9189C2.93449 13.9189 2.03906 13.0235 2.03906 11.9189C2.03906 10.8144 2.93449 9.91895 4.03906 9.91895ZM19.6406 9.91895C20.7452 9.91895 21.6406 10.8144 21.6406 11.9189C21.6406 13.0235 20.7452 13.9189 19.6406 13.9189C18.5361 13.9189 17.6406 13.0235 17.6406 11.9189C17.6406 10.8144 18.5361 9.91895 19.6406 9.91895Z" fill="currentColor"/>
</svg>
