<svg width="45" height="44" viewBox="0 0 45 44" fill="none" xmlns="http://www.w3.org/2000/svg">
<path d="M13.8799 25.8124C15.2531 29.4177 18.8218 32 23.0097 32C28.3803 32 32.75 27.7615 32.75 22.5519C32.75 17.3423 28.3804 13.1037 23.0098 13.1037C21.7139 13.1037 20.4788 13.3556 19.3468 13.8032L18.557 12.3342C18.4512 12.137 18.2448 12.0101 18.0165 12.0004C17.7887 11.9925 17.5709 12.1005 17.4483 12.2874L14.0097 17.5317C13.8871 17.7191 13.8765 17.9558 13.9822 18.1525C14.0879 18.3497 14.2944 18.4765 14.5227 18.4862L20.9238 18.7527C20.9332 18.7533 20.942 18.7533 20.9513 18.7533H20.9645C21.2604 18.7471 21.6177 18.479 21.6177 18.1318C21.6177 17.9686 21.5526 17.8199 21.4469 17.7095L20.5436 16.0294C21.3147 15.7536 22.1412 15.5895 23.0097 15.5895C26.9676 15.5895 30.1873 18.7126 30.1873 22.5518C30.1873 26.3911 26.9676 29.5142 23.0097 29.5142C19.8926 29.5142 17.2411 27.5736 16.2519 24.8751L16.2339 24.8822C16.0668 24.3842 15.6005 24.0181 15.0313 24.0181C14.3236 24.0181 13.75 24.5746 13.75 25.2611C13.75 25.4596 13.8085 25.6404 13.8938 25.8069L13.8799 25.8124Z" fill="currentColor"/>
</svg>
