<svg width="24" height="24" viewBox="0 0 24 24" fill="none" xmlns="http://www.w3.org/2000/svg">
<path d="M12.6698 18.9432C12.2501 18.722 11.7483 18.7218 11.3284 18.9426L7.4845 20.9635C6.42806 21.519 5.19331 20.6219 5.39511 19.4455L6.12945 15.1647C6.20964 14.6972 6.05448 14.2202 5.71459 13.8893L2.60142 10.859C1.74567 10.026 2.21742 8.57328 3.3993 8.40199L7.69289 7.77973C8.16213 7.71173 8.56782 7.41709 8.77765 6.99191L10.6999 3.09697C11.2281 2.02669 12.7543 2.02669 13.2825 3.09697L15.2047 6.99191C15.4146 7.41709 15.8203 7.71173 16.2895 7.77973L20.5831 8.40199C21.765 8.57328 22.2367 10.026 21.381 10.859L18.2678 13.8893C17.9279 14.2202 17.7728 14.6972 17.853 15.1647L18.5867 19.4421C18.7886 20.6191 17.5526 21.5162 16.4961 20.9595L12.6698 18.9432Z" fill="currentColor"/>
</svg>
