<svg width="118" height="62" viewBox="0 0 118 62" fill="none" xmlns="http://www.w3.org/2000/svg">
<g opacity="0.15">
<path d="M45.2582 61.3908C51.8008 60.3288 56.2436 54.1635 55.1821 47.6207C54.1198 41.0781 47.9545 36.6352 41.4119 37.6968C34.8691 38.759 30.4263 44.9237 31.4878 51.4669C32.55 58.0097 38.7154 62.4526 45.2582 61.3908ZM76.6274 61.3908C83.1699 60.3288 87.6128 54.1635 86.5508 47.6207C85.489 41.0781 79.3237 36.6352 72.7811 37.6968C66.2385 38.759 61.795 44.9237 62.8572 51.4669C63.9195 58.0097 70.0841 62.4526 76.6274 61.3908Z" fill="#E0E5EC" fill-opacity="0.5"/>
<path d="M58.9996 0C26.412 0 -0.00929671 26.924 2.45393e-06 60.1258H15.0725C15.0725 35.2438 34.5834 15.0697 58.9996 15.0697C83.4159 15.0697 102.927 35.2438 102.927 60.1258H118C118.005 26.924 91.5849 0 58.9996 0Z" fill="#E0E5EC" fill-opacity="0.5"/>
</g>
</svg>
