<svg width="18" height="18" viewBox="0 0 18 18" fill="none" xmlns="http://www.w3.org/2000/svg">
<g clip-path="url(#clip0_60035_224846)">
<g filter="url(#filter0_d_60035_224846)">
<path d="M9.26933 14.7253L13.4867 8.3993C13.6523 8.15074 13.5851 7.81482 13.3364 7.64924C13.2476 7.59005 13.1433 7.55849 13.0367 7.55854H9.72074V3.57603C9.72074 3.27738 9.47869 3.03516 9.18004 3.03516C8.99916 3.03516 8.83041 3.12551 8.73004 3.27598L4.51269 9.60199C4.34711 9.85055 4.41425 10.1863 4.66281 10.3521C4.7516 10.4113 4.85595 10.4429 4.96269 10.4429H8.27863V14.4253C8.27863 14.7239 8.52068 14.9661 8.81933 14.9661C9.00021 14.9661 9.16914 14.8758 9.26933 14.7253Z" fill="url(#paint0_linear_60035_224846)"/>
</g>
</g>
<defs>
<filter id="filter0_d_60035_224846" x="-19.5781" y="-12.9648" width="57.1553" height="59.931" filterUnits="userSpaceOnUse" color-interpolation-filters="sRGB">
<feFlood flood-opacity="0" result="BackgroundImageFix"/>
<feColorMatrix in="SourceAlpha" type="matrix" values="0 0 0 0 0 0 0 0 0 0 0 0 0 0 0 0 0 0 127 0" result="hardAlpha"/>
<feOffset dy="8"/>
<feGaussianBlur stdDeviation="12"/>
<feComposite in2="hardAlpha" operator="out"/>
<feColorMatrix type="matrix" values="0 0 0 0 0.439216 0 0 0 0 0.517647 0 0 0 0 1 0 0 0 0.1 0"/>
<feBlend mode="normal" in2="BackgroundImageFix" result="effect1_dropShadow_60035_224846"/>
<feBlend mode="normal" in="SourceGraphic" in2="effect1_dropShadow_60035_224846" result="shape"/>
</filter>
<linearGradient id="paint0_linear_60035_224846" x1="4.42188" y1="9.00064" x2="13.5775" y2="9.00064" gradientUnits="userSpaceOnUse">
<stop stop-color="#893FBB"/>
<stop offset="0.514423" stop-color="#435C9E"/>
<stop offset="1" stop-color="#037782"/>
</linearGradient>
<clipPath id="clip0_60035_224846">
<rect width="18" height="18" fill="white"/>
</clipPath>
</defs>
</svg>
