<svg width="14" height="14" viewBox="0 0 14 14" fill="none" xmlns="http://www.w3.org/2000/svg">
<path d="M11.7789 8.23263H2.54688C2.24473 8.23263 2 8.47736 2 8.7795C2 8.89435 2.03555 9.00099 2.0957 9.08849C2.12168 9.15001 2.16133 9.20743 2.21055 9.25802L4.6209 11.667C4.72754 11.7736 4.86699 11.827 5.00781 11.827C5.14863 11.827 5.28809 11.7736 5.39473 11.667C5.60801 11.4537 5.60801 11.1078 5.39473 10.8932L3.8252 9.32638H11.7775C12.0797 9.32638 12.3244 9.08165 12.3244 8.7795C12.3244 8.47736 12.0811 8.23263 11.7789 8.23263ZM2.54688 5.69513H11.7789C12.0811 5.69513 12.3258 5.4504 12.3258 5.14825C12.3258 5.03341 12.2902 4.92677 12.2301 4.83927C12.2109 4.79415 12.1836 4.7504 12.1508 4.70939L10.1793 2.3004C9.98789 2.06661 9.64336 2.03243 9.40957 2.22384C9.17578 2.41525 9.1416 2.75978 9.33301 2.99357L10.6496 4.60138H2.54688C2.24473 4.60138 2 4.84611 2 5.14825C2 5.4504 2.24473 5.69513 2.54688 5.69513Z" fill="currentColor"/>
</svg>
