<svg width="16" height="16" viewBox="0 0 16 16" fill="none" xmlns="http://www.w3.org/2000/svg">
<path d="M13.7147 12.5283C13.7147 12.6935 13.6874 12.8477 13.6329 12.9911C13.5784 13.1345 13.5007 13.2606 13.4 13.3692C13.2993 13.4779 13.1819 13.5626 13.0476 13.6234C12.9134 13.6843 12.7665 13.7147 12.6071 13.7147H3.46927C3.30984 13.7147 3.1588 13.6843 3.01615 13.6234C2.8735 13.5626 2.74764 13.4779 2.63856 13.3692C2.52947 13.2606 2.44346 13.1345 2.38053 12.9911C2.3176 12.8477 2.28613 12.6935 2.28613 12.5283V6.02273C2.28613 5.69246 2.39731 5.41216 2.61968 5.18183C2.84204 4.95151 3.11265 4.83634 3.43151 4.83634H12.5693C12.8882 4.83634 13.1588 4.95151 13.3812 5.18183C13.6035 5.41216 13.7147 5.69246 13.7147 6.02273V7.7958H10.8576C10.5387 7.7958 10.2681 7.90879 10.0457 8.13477C9.82337 8.36074 9.71219 8.63887 9.71219 8.96915C9.72058 9.19513 9.76673 9.39503 9.85064 9.56886C9.91777 9.71662 10.0289 9.85134 10.1842 9.97302C10.3394 10.0947 10.5639 10.1555 10.8576 10.1555H13.7147V12.5283ZM12.0029 4.23663H6.28865C6.74177 3.99327 7.16971 3.7586 7.57248 3.53262C7.9249 3.34141 8.27313 3.15019 8.61716 2.95898C8.96119 2.76777 9.2297 2.62001 9.4227 2.51572C9.71638 2.35058 9.9786 2.27453 10.2094 2.28756C10.4401 2.3006 10.6352 2.34189 10.7946 2.41142C10.9792 2.50702 11.1387 2.63305 11.2729 2.7895L12.0029 4.23663ZM10.2912 8.96915C10.2912 8.80401 10.3457 8.66495 10.4548 8.55196C10.5639 8.43897 10.6981 8.38247 10.8576 8.38247C11.017 8.38247 11.1512 8.43897 11.2603 8.55196C11.3694 8.66495 11.424 8.80401 11.424 8.96915C11.424 9.13429 11.3694 9.27552 11.2603 9.39286C11.1512 9.51019 11.017 9.56886 10.8576 9.56886C10.6981 9.56886 10.5639 9.51019 10.4548 9.39286C10.3457 9.27552 10.2912 9.13429 10.2912 8.96915Z" fill="currentColor"/>
</svg>
