<svg xmlns="http://www.w3.org/2000/svg" width="24" height="24" viewBox="0 0 24 24" fill="none">
  <path
    d="M13.2534 10.998H7.23193C6.83268 10.998 6.44979 10.8394 6.16748 10.5571C5.88516 10.2748 5.72656 9.89193 5.72656 9.49268V6.48193C5.72656 6.08268 5.88516 5.69979 6.16748 5.41748C6.44979 5.13516 6.83268 4.97656 7.23193 4.97656H13.2534C13.6527 4.97656 14.0356 5.13516 14.3179 5.41748C14.6002 5.69979 14.7588 6.08268 14.7588 6.48193V9.49268C14.7588 9.89193 14.6002 10.2748 14.3179 10.5571C14.0356 10.8394 13.6527 10.998 13.2534 10.998V10.998ZM7.23193 5.98014C7.09885 5.98014 6.97122 6.03301 6.87711 6.12711C6.78301 6.22122 6.73014 6.34885 6.73014 6.48193V9.49268C6.73014 9.62576 6.78301 9.75339 6.87711 9.8475C6.97122 9.9416 7.09885 9.99447 7.23193 9.99447H13.2534C13.3865 9.99447 13.5141 9.9416 13.6082 9.8475C13.7023 9.75339 13.7552 9.62576 13.7552 9.49268V6.48193C13.7552 6.34885 13.7023 6.22122 13.6082 6.12711C13.5141 6.03301 13.3865 5.98014 13.2534 5.98014H7.23193Z"
    fill="currentColor" stroke="currentColor" stroke-width="0.5" />
  <path
    d="M20.4818 6.22974L22.0875 8.98959C22.2228 9.22441 22.2921 9.49139 22.2883 9.76234V13.8008C21.985 13.4914 21.6486 13.2146 21.2847 12.9764V9.74227C21.2853 9.65437 21.2628 9.56785 21.2194 9.49138L19.6137 6.73153C19.5774 6.67442 19.553 6.61055 19.542 6.54377C19.5311 6.47699 19.5337 6.40868 19.5498 6.34295C19.5659 6.27722 19.5951 6.21542 19.6357 6.16128C19.6763 6.10713 19.7275 6.06176 19.7861 6.0279C19.8447 5.99403 19.9095 5.97236 19.9767 5.9642C20.0439 5.95604 20.112 5.96155 20.177 5.98041C20.242 5.99927 20.3025 6.03108 20.3549 6.07392C20.4073 6.11677 20.4504 6.16977 20.4818 6.22974Z"
    fill="currentColor" />
  <path
    d="M19.2775 12.1357V9.49138C19.2775 9.09213 19.1189 8.70923 18.8366 8.42692C18.5543 8.14461 18.1714 7.98601 17.7721 7.98601H16.7686V4.47347C16.7686 3.54189 16.3985 2.64846 15.7398 1.98974C15.081 1.33101 14.1876 0.960938 13.256 0.960938H7.23454C6.30296 0.960938 5.40953 1.33101 4.7508 1.98974C4.09208 2.64846 3.72201 3.54189 3.72201 4.47347V22.0361H2.21663C2.08355 22.0361 1.95592 22.089 1.86181 22.1831C1.76771 22.2772 1.71484 22.4049 1.71484 22.5379C1.71484 22.671 1.76771 22.7986 1.86181 22.8928C1.95592 22.9869 2.08355 23.0397 2.21663 23.0397H14.7454C14.3089 22.7571 13.9115 22.4192 13.563 22.0361H4.72559V4.47347C4.72559 3.80806 4.98992 3.16989 5.46044 2.69937C5.93096 2.22885 6.56912 1.96452 7.23454 1.96452H13.256C13.5855 1.96452 13.9118 2.02941 14.2162 2.1555C14.5206 2.28159 14.7971 2.4664 15.0301 2.69937C15.2631 2.93235 15.4479 3.20894 15.574 3.51334C15.7001 3.81774 15.765 4.14399 15.765 4.47347V12.4312C16.0866 12.3018 16.4221 12.1995 16.7686 12.127V8.98959H17.7721C17.838 8.98959 17.9033 9.00257 17.9642 9.02778C18.025 9.053 18.0804 9.08996 18.127 9.13656C18.1736 9.18315 18.2105 9.23847 18.2357 9.29935C18.261 9.36023 18.2739 9.42548 18.2739 9.49138V12.006C18.6167 12.0213 18.952 12.0653 19.2775 12.1357Z"
    fill="currentColor" />
  <path
    d="M20.4818 6.22974L22.0875 8.98959C22.2228 9.22441 22.2921 9.49139 22.2883 9.76234V13.8008C21.985 13.4914 21.6486 13.2146 21.2847 12.9764V9.74227C21.2853 9.65437 21.2628 9.56785 21.2194 9.49138L19.6137 6.73153C19.5774 6.67442 19.553 6.61055 19.542 6.54377C19.5311 6.47699 19.5337 6.40868 19.5498 6.34295C19.5659 6.27722 19.5951 6.21542 19.6357 6.16128C19.6763 6.10713 19.7275 6.06176 19.7861 6.0279C19.8447 5.99403 19.9095 5.97236 19.9767 5.9642C20.0439 5.95604 20.112 5.96155 20.177 5.98041C20.242 5.99927 20.3025 6.03108 20.3549 6.07392C20.4073 6.11677 20.4504 6.16977 20.4818 6.22974Z"
    stroke="currentColor" stroke-width="0.5" />
  <path
    d="M19.2775 12.1357V9.49138C19.2775 9.09213 19.1189 8.70923 18.8366 8.42692C18.5543 8.14461 18.1714 7.98601 17.7721 7.98601H16.7686V4.47347C16.7686 3.54189 16.3985 2.64846 15.7398 1.98974C15.081 1.33101 14.1876 0.960938 13.256 0.960938H7.23454C6.30296 0.960938 5.40953 1.33101 4.7508 1.98974C4.09208 2.64846 3.72201 3.54189 3.72201 4.47347V22.0361H2.21663C2.08355 22.0361 1.95592 22.089 1.86181 22.1831C1.76771 22.2772 1.71484 22.4049 1.71484 22.5379C1.71484 22.671 1.76771 22.7986 1.86181 22.8928C1.95592 22.9869 2.08355 23.0397 2.21663 23.0397H14.7454C14.3089 22.7571 13.9115 22.4192 13.563 22.0361H4.72559V4.47347C4.72559 3.80806 4.98992 3.16989 5.46044 2.69937C5.93096 2.22885 6.56912 1.96452 7.23454 1.96452H13.256C13.5855 1.96452 13.9118 2.02941 14.2162 2.1555C14.5206 2.28159 14.7971 2.4664 15.0301 2.69937C15.2631 2.93235 15.4479 3.20894 15.574 3.51334C15.7001 3.81774 15.765 4.14399 15.765 4.47347V12.4312C16.0866 12.3018 16.4221 12.1995 16.7686 12.127V8.98959H17.7721C17.838 8.98959 17.9033 9.00257 17.9642 9.02778C18.025 9.053 18.0804 9.08996 18.127 9.13656C18.1736 9.18315 18.2105 9.23847 18.2357 9.29935C18.261 9.36023 18.2739 9.42548 18.2739 9.49138V12.006C18.6167 12.0213 18.952 12.0653 19.2775 12.1357Z"
    stroke="currentColor" stroke-width="0.5" />
  <path d="M13.7148 18H22.2863" stroke="currentColor" stroke-width="1.5" stroke-linecap="round"
    stroke-linejoin="round" />
  <path d="M18 13.7109V22.2824" stroke="currentColor" stroke-width="1.5" stroke-linecap="round"
    stroke-linejoin="round" />
</svg>
