<svg width="24" height="24" viewBox="0 0 24 24" fill="none" xmlns="http://www.w3.org/2000/svg">
  <path d="M18.4305 9.81546V3.67457C18.4305 3.24161 18.0795 2.89062 17.6465 2.89062H4.71148C4.20636 2.89062 3.79688 3.30011 3.79688 3.80523V20.268C3.79688 20.7732 4.20636 21.1826 4.71148 21.1826H9.41514" stroke="currentColor" stroke-width="1.5" stroke-linecap="round" stroke-linejoin="round"/>
  <path d="M11.5694 11.25H6.53906" stroke="currentColor" stroke-width="1.5" stroke-linecap="round"/>
  <path d="M15.6851 7.33594H6.53906" stroke="currentColor" stroke-width="1.5" stroke-linecap="round"/>
  <path d="M16.6088 21.913C19.0334 21.913 20.9989 19.9475 20.9989 17.5229C20.9989 15.0983 19.0334 13.1328 16.6088 13.1328C14.1843 13.1328 12.2188 15.0983 12.2188 17.5229C12.2188 19.9475 14.1843 21.913 16.6088 21.913Z" stroke="currentColor" stroke-width="1.5"/>
  <path d="M15.8203 15.9531V18.305H18.1721" stroke="currentColor" stroke-width="1.5" stroke-linecap="round" stroke-linejoin="round"/>
</svg>
