<svg width="24" height="24" viewBox="0 0 24 24" fill="none" xmlns="http://www.w3.org/2000/svg">
<path d="M9.2459 21.2398C7.63026 20.7588 6.19214 19.8657 5.0534 18.6825C5.47822 18.179 5.73422 17.5285 5.73422 16.8182C5.73422 15.2206 4.43911 13.9254 2.8415 13.9254C2.74485 13.9254 2.64932 13.9302 2.55511 13.9395C2.42677 13.312 2.35938 12.6624 2.35938 11.997C2.35938 10.989 2.51403 10.0172 2.8009 9.10394C2.81441 9.10413 2.82794 9.10423 2.8415 9.10423C4.43911 9.10423 5.73422 7.80911 5.73422 6.2115C5.73422 5.75286 5.62748 5.31919 5.43753 4.93389C6.55262 3.89703 7.91365 3.12107 9.42346 2.70312C9.90187 3.64087 10.8769 4.28303 12.0018 4.28303C13.1267 4.28303 14.1017 3.64087 14.5801 2.70312C16.0899 3.12107 17.451 3.89703 18.5661 4.93389C18.3761 5.31919 18.2694 5.75286 18.2694 6.2115C18.2694 7.80911 19.5645 9.10423 21.1621 9.10423C21.1756 9.10423 21.1892 9.10413 21.2027 9.10394C21.4896 10.0172 21.6442 10.989 21.6442 11.997C21.6442 12.6624 21.5768 13.312 21.4485 13.9395C21.3543 13.9302 21.2588 13.9254 21.1621 13.9254C19.5645 13.9254 18.2694 15.2206 18.2694 16.8182C18.2694 17.5285 18.5254 18.179 18.9502 18.6825C17.8115 19.8657 16.3733 20.7588 14.7577 21.2398C14.3848 20.0734 13.292 19.2288 12.0018 19.2288C10.7116 19.2288 9.61877 20.0734 9.2459 21.2398Z" stroke="currentColor" stroke-width="1.5" stroke-linejoin="round"/>
<path d="M11.9998 15.3747C13.8637 15.3747 15.3747 13.8637 15.3747 11.9998C15.3747 10.136 13.8637 8.625 11.9998 8.625C10.136 8.625 8.625 10.136 8.625 11.9998C8.625 13.8637 10.136 15.3747 11.9998 15.3747Z" stroke="currentColor" stroke-width="1.5" stroke-linejoin="round"/>
</svg>
