<svg width="24" height="24" viewBox="0 0 24 24" fill="none" xmlns="http://www.w3.org/2000/svg">
  <path
    d="M5 14C4.42095 14 3.94095 13.8073 3.56 13.422C3.18667 13.0366 3 12.5626 3 12C3 11.422 3.18667 10.9441 3.56 10.5665C3.94095 10.1888 4.42095 10 5 10C5.58667 10 6.06667 10.1888 6.44 10.5665C6.81333 10.9441 7 11.422 7 12C7 12.5626 6.81333 13.0366 6.44 13.422C6.06667 13.8073 5.58667 14 5 14Z"
    fill="currentColor" />
  <path
    d="M12 14C11.421 14 10.941 13.8073 10.56 13.422C10.1867 13.0366 10 12.5626 10 12C10 11.422 10.1867 10.9441 10.56 10.5665C10.941 10.1888 11.421 10 12 10C12.5867 10 13.0667 10.1888 13.44 10.5665C13.8133 10.9441 14 11.422 14 12C14 12.5626 13.8133 13.0366 13.44 13.422C13.0667 13.8073 12.5867 14 12 14Z"
    fill="currentColor" />
  <path
    d="M19 14C18.421 14 17.941 13.8073 17.56 13.422C17.1867 13.0366 17 12.5626 17 12C17 11.422 17.1867 10.9441 17.56 10.5665C17.941 10.1888 18.421 10 19 10C19.5867 10 20.0667 10.1888 20.44 10.5665C20.8133 10.9441 21 11.422 21 12C21 12.5626 20.8133 13.0366 20.44 13.422C20.0667 13.8073 19.5867 14 19 14Z"
    fill="currentColor" />
</svg>