<svg width="14" height="14" viewBox="0 0 14 14" fill="none" xmlns="http://www.w3.org/2000/svg">
<circle cx="7" cy="7" r="7" fill="#9A9CA9"/>
<path d="M7.75 3.81666V3.81667V7.43333C7.75 7.66667 7.63333 7.84167 7.45833 8.01667C7.28333 8.19167 7.10833 8.25 6.875 8.25C6.64167 8.25 6.46667 8.19167 6.29167 8.01667C6.11667 7.84167 6 7.66667 6 7.43333V3.81667C6 3.58333 6.11667 3.40833 6.29167 3.23333C6.46667 3.05833 6.64167 3 6.875 3C6.99167 3 7.10833 3.05833 7.225 3.11667C7.34167 3.175 7.45833 3.23333 7.51667 3.29167L7.51667 3.29167C7.575 3.35 7.63333 3.40833 7.69167 3.525C7.75 3.58333 7.75 3.7 7.75 3.81666Z" fill="white"/>
<path d="M6.29167 9.3C6.40833 9.125 6.64167 9.06667 6.875 9.06667C7.10833 9.06667 7.34167 9.125 7.45833 9.3C7.63333 9.41667 7.69167 9.65 7.69167 9.88333C7.69167 10.1167 7.63333 10.2917 7.45833 10.4667C7.34167 10.6417 7.10833 10.7 6.875 10.7C6.64167 10.7 6.46667 10.6417 6.29167 10.4667C6.11667 10.35 6.05833 10.1167 6.05833 9.88333C6.05833 9.65 6.175 9.475 6.29167 9.3Z" fill="white"/>
</svg>
