<svg width="20" height="20" viewBox="0 0 20 20" fill="none" xmlns="http://www.w3.org/2000/svg">
<g id="Frame 1244831630">
<g id="Group 1244831032">
<g id="Subtract">
<mask id="path-1-outside-1_28978_11760" maskUnits="userSpaceOnUse" x="2" y="1" width="16" height="18" fill="black">
<rect fill="white" x="2" y="1" width="16" height="18"/>
<path fill-rule="evenodd" clip-rule="evenodd" d="M6.07407 3C4.92859 3 4 3.92859 4 5.07407V14.9259C4 16.0714 4.9286 17 6.07408 17H12.1991L14.1867 15.069L15.9259 13.3793V5.07407C15.9259 3.92859 14.9973 3 13.8519 3H6.07407ZM6.72221 5.59277C6.36425 5.59277 6.07407 5.88296 6.07407 6.24092C6.07407 6.59888 6.36425 6.88907 6.72221 6.88907H13.2037C13.5617 6.88907 13.8518 6.59888 13.8518 6.24092C13.8518 5.88296 13.5617 5.59277 13.2037 5.59277H6.72221ZM6.07407 9.35176C6.07407 8.9938 6.36425 8.70361 6.72221 8.70361H13.2037C13.5617 8.70361 13.8518 8.9938 13.8518 9.35176C13.8518 9.70972 13.5617 9.99991 13.2037 9.99991H6.72221C6.36425 9.99991 6.07407 9.70972 6.07407 9.35176ZM6.72221 11.8149C6.36425 11.8149 6.07407 12.1051 6.07407 12.4631C6.07407 12.8211 6.36425 13.1112 6.72221 13.1112H9.57407C9.93203 13.1112 10.2222 12.8211 10.2222 12.4631C10.2222 12.1051 9.93203 11.8149 9.57407 11.8149H6.72221Z"/>
</mask>
<path fill-rule="evenodd" clip-rule="evenodd" d="M6.07407 3C4.92859 3 4 3.92859 4 5.07407V14.9259C4 16.0714 4.9286 17 6.07408 17H12.1991L14.1867 15.069L15.9259 13.3793V5.07407C15.9259 3.92859 14.9973 3 13.8519 3H6.07407ZM6.72221 5.59277C6.36425 5.59277 6.07407 5.88296 6.07407 6.24092C6.07407 6.59888 6.36425 6.88907 6.72221 6.88907H13.2037C13.5617 6.88907 13.8518 6.59888 13.8518 6.24092C13.8518 5.88296 13.5617 5.59277 13.2037 5.59277H6.72221ZM6.07407 9.35176C6.07407 8.9938 6.36425 8.70361 6.72221 8.70361H13.2037C13.5617 8.70361 13.8518 8.9938 13.8518 9.35176C13.8518 9.70972 13.5617 9.99991 13.2037 9.99991H6.72221C6.36425 9.99991 6.07407 9.70972 6.07407 9.35176ZM6.72221 11.8149C6.36425 11.8149 6.07407 12.1051 6.07407 12.4631C6.07407 12.8211 6.36425 13.1112 6.72221 13.1112H9.57407C9.93203 13.1112 10.2222 12.8211 10.2222 12.4631C10.2222 12.1051 9.93203 11.8149 9.57407 11.8149H6.72221Z" fill="#7084FF"/>
<path d="M12.1991 17V19H13.0106L13.5927 18.4345L12.1991 17ZM14.1867 15.069L12.7931 13.6345L12.7931 13.6345L14.1867 15.069ZM15.9259 13.3793L17.3196 14.8138L17.9259 14.2247V13.3793H15.9259ZM6 5.07407C6 5.03316 6.03316 5 6.07407 5V1C3.82403 1 2 2.82402 2 5.07407H6ZM6 14.9259V5.07407H2V14.9259H6ZM6.07408 15C6.03316 15 6 14.9668 6 14.9259H2C2 17.176 3.82403 19 6.07408 19V15ZM12.1991 15H6.07408V19H12.1991V15ZM12.7931 13.6345L10.8054 15.5655L13.5927 18.4345L15.5804 16.5035L12.7931 13.6345ZM14.5323 11.9448L12.7931 13.6345L15.5804 16.5035L17.3196 14.8138L14.5323 11.9448ZM13.9259 5.07407V13.3793H17.9259V5.07407H13.9259ZM13.8519 5C13.8928 5 13.9259 5.03316 13.9259 5.07407H17.9259C17.9259 2.82403 16.1019 1 13.8519 1V5ZM6.07407 5H13.8519V1H6.07407V5ZM8.07407 6.24092C8.07407 6.98753 7.46882 7.59277 6.72221 7.59277V3.59277C5.25968 3.59277 4.07407 4.77839 4.07407 6.24092H8.07407ZM6.72221 4.88907C7.46882 4.88907 8.07407 5.49431 8.07407 6.24092H4.07407C4.07407 7.70346 5.25968 8.88907 6.72221 8.88907V4.88907ZM13.2037 4.88907H6.72221V8.88907H13.2037V4.88907ZM11.8518 6.24092C11.8518 5.49431 12.4571 4.88907 13.2037 4.88907V8.88907C14.6662 8.88907 15.8518 7.70345 15.8518 6.24092H11.8518ZM13.2037 7.59277C12.4571 7.59277 11.8518 6.98753 11.8518 6.24092H15.8518C15.8518 4.77839 14.6662 3.59277 13.2037 3.59277V7.59277ZM6.72221 7.59277H13.2037V3.59277H6.72221V7.59277ZM6.72221 6.70361C5.25968 6.70361 4.07407 7.88923 4.07407 9.35176H8.07407C8.07407 10.0984 7.46882 10.7036 6.72221 10.7036V6.70361ZM13.2037 6.70361H6.72221V10.7036H13.2037V6.70361ZM15.8518 9.35176C15.8518 7.88923 14.6662 6.70361 13.2037 6.70361V10.7036C12.4571 10.7036 11.8518 10.0984 11.8518 9.35176H15.8518ZM13.2037 11.9999C14.6662 11.9999 15.8518 10.8143 15.8518 9.35176H11.8518C11.8518 8.60515 12.4571 7.99991 13.2037 7.99991V11.9999ZM6.72221 11.9999H13.2037V7.99991H6.72221V11.9999ZM4.07407 9.35176C4.07407 10.8143 5.25969 11.9999 6.72221 11.9999V7.99991C7.46882 7.99991 8.07407 8.60515 8.07407 9.35176H4.07407ZM8.07407 12.4631C8.07407 13.2097 7.46882 13.8149 6.72221 13.8149V9.81494C5.25968 9.81494 4.07407 11.0006 4.07407 12.4631H8.07407ZM6.72221 11.1112C7.46882 11.1112 8.07407 11.7165 8.07407 12.4631H4.07407C4.07407 13.9256 5.25968 15.1112 6.72221 15.1112V11.1112ZM9.57407 11.1112H6.72221V15.1112H9.57407V11.1112ZM8.22221 12.4631C8.22221 11.7165 8.82746 11.1112 9.57407 11.1112V15.1112C11.0366 15.1112 12.2222 13.9256 12.2222 12.4631H8.22221ZM9.57407 13.8149C8.82746 13.8149 8.22221 13.2097 8.22221 12.4631H12.2222C12.2222 11.0006 11.0366 9.81494 9.57407 9.81494V13.8149ZM6.72221 13.8149H9.57407V9.81494H6.72221V13.8149Z" fill="#232428" mask="url(#path-1-outside-1_28978_11760)"/>
</g>
<path id="Polygon 4" d="M16.7963 12.4262L12.463 12.4262C12.1766 12.4262 11.9444 12.6583 11.9444 12.9447L11.9444 17.3151" stroke="#232428" stroke-width="2"/>
</g>
</g>
</svg>
