<svg width="23" height="24" viewBox="0 0 23 24" fill="none" xmlns="http://www.w3.org/2000/svg">
<mask id="path-1-outside-1_30284_223934" maskUnits="userSpaceOnUse" x="1" y="0" width="21" height="24" fill="black">
<rect fill="white" x="1" width="21" height="24"/>
<path fill-rule="evenodd" clip-rule="evenodd" d="M6.60798 3C5.16763 3 4 4.16763 4 5.60798V17.9959C4 19.4362 5.16763 20.6039 6.60798 20.6039H14.3097L16.809 18.1757L18.9959 16.0511V5.60798C18.9959 4.16763 17.8282 3 16.3879 3H6.60798ZM7 6C6.44772 6 6 6.44772 6 7C6 7.55228 6.44772 8 7 8H15C15.5523 8 16 7.55228 16 7C16 6.44772 15.5523 6 15 6H7ZM6 11C6 10.4477 6.44772 10 7 10H15C15.5523 10 16 10.4477 16 11C16 11.5523 15.5523 12 15 12H7C6.44772 12 6 11.5523 6 11ZM7 14C6.44772 14 6 14.4477 6 15C6 15.5523 6.44772 16 7 16H10C10.5523 16 11 15.5523 11 15C11 14.4477 10.5523 14 10 14H7Z"/>
</mask>
<path fill-rule="evenodd" clip-rule="evenodd" d="M6.60798 3C5.16763 3 4 4.16763 4 5.60798V17.9959C4 19.4362 5.16763 20.6039 6.60798 20.6039H14.3097L16.809 18.1757L18.9959 16.0511V5.60798C18.9959 4.16763 17.8282 3 16.3879 3H6.60798ZM7 6C6.44772 6 6 6.44772 6 7C6 7.55228 6.44772 8 7 8H15C15.5523 8 16 7.55228 16 7C16 6.44772 15.5523 6 15 6H7ZM6 11C6 10.4477 6.44772 10 7 10H15C15.5523 10 16 10.4477 16 11C16 11.5523 15.5523 12 15 12H7C6.44772 12 6 11.5523 6 11ZM7 14C6.44772 14 6 14.4477 6 15C6 15.5523 6.44772 16 7 16H10C10.5523 16 11 15.5523 11 15C11 14.4477 10.5523 14 10 14H7Z" fill="#7084FF"/>
<path d="M14.3097 20.6039V23.1187H15.3301L16.062 22.4076L14.3097 20.6039ZM16.809 18.1757L15.0566 16.372L15.0566 16.372L16.809 18.1757ZM18.9959 16.0511L20.7483 17.8549L21.5107 17.1142V16.0511H18.9959ZM6.51484 5.60798C6.51484 5.55654 6.55654 5.51484 6.60798 5.51484V0.485164C3.77872 0.485164 1.48516 2.77873 1.48516 5.60798H6.51484ZM6.51484 17.9959V5.60798H1.48516V17.9959H6.51484ZM6.60798 18.089C6.55654 18.089 6.51484 18.0473 6.51484 17.9959H1.48516C1.48516 20.8251 3.77873 23.1187 6.60798 23.1187V18.089ZM14.3097 18.089H6.60798V23.1187H14.3097V18.089ZM15.0566 16.372L12.5573 18.8001L16.062 22.4076L18.5614 19.9795L15.0566 16.372ZM17.2435 14.2474L15.0566 16.372L18.5614 19.9795L20.7483 17.8549L17.2435 14.2474ZM16.481 5.60798V16.0511H21.5107V5.60798H16.481ZM16.3879 5.51484C16.4393 5.51484 16.481 5.55654 16.481 5.60798H21.5107C21.5107 2.77873 19.2171 0.485164 16.3879 0.485164V5.51484ZM6.60798 5.51484H16.3879V0.485164H6.60798V5.51484ZM8.51484 7C8.51484 7.83662 7.83662 8.51484 7 8.51484V3.48516C5.05881 3.48516 3.48516 5.05881 3.48516 7H8.51484ZM7 5.48516C7.83662 5.48516 8.51484 6.16338 8.51484 7H3.48516C3.48516 8.94119 5.05881 10.5148 7 10.5148V5.48516ZM15 5.48516H7V10.5148H15V5.48516ZM13.4852 7C13.4852 6.16338 14.1634 5.48516 15 5.48516V10.5148C16.9412 10.5148 18.5148 8.94119 18.5148 7H13.4852ZM15 8.51484C14.1634 8.51484 13.4852 7.83662 13.4852 7H18.5148C18.5148 5.05881 16.9412 3.48516 15 3.48516V8.51484ZM7 8.51484H15V3.48516H7V8.51484ZM7 7.48516C5.05881 7.48516 3.48516 9.05881 3.48516 11H8.51484C8.51484 11.8366 7.83662 12.5148 7 12.5148V7.48516ZM15 7.48516H7V12.5148H15V7.48516ZM18.5148 11C18.5148 9.05881 16.9412 7.48516 15 7.48516V12.5148C14.1634 12.5148 13.4852 11.8366 13.4852 11H18.5148ZM15 14.5148C16.9412 14.5148 18.5148 12.9412 18.5148 11H13.4852C13.4852 10.1634 14.1634 9.48516 15 9.48516V14.5148ZM7 14.5148H15V9.48516H7V14.5148ZM3.48516 11C3.48516 12.9412 5.05881 14.5148 7 14.5148V9.48516C7.83662 9.48516 8.51484 10.1634 8.51484 11H3.48516ZM8.51484 15C8.51484 15.8366 7.83662 16.5148 7 16.5148V11.4852C5.05881 11.4852 3.48516 13.0588 3.48516 15H8.51484ZM7 13.4852C7.83662 13.4852 8.51484 14.1634 8.51484 15H3.48516C3.48516 16.9412 5.05881 18.5148 7 18.5148V13.4852ZM10 13.4852H7V18.5148H10V13.4852ZM8.48516 15C8.48516 14.1634 9.16338 13.4852 10 13.4852V18.5148C11.9412 18.5148 13.5148 16.9412 13.5148 15H8.48516ZM10 16.5148C9.16338 16.5148 8.48516 15.8366 8.48516 15H13.5148C13.5148 13.0588 11.9412 11.4852 10 11.4852V16.5148ZM7 16.5148H10V11.4852H7V16.5148Z" fill="#232428" mask="url(#path-1-outside-1_30284_223934)"/>
<path d="M20.0903 14.8526L14.6415 14.8526C14.2814 14.8526 13.9895 15.1445 13.9895 15.5046L13.9895 21" stroke="#232428" stroke-width="2.51484"/>
</svg>
