<svg xmlns="http://www.w3.org/2000/svg" width="12" height="12" viewBox="0 0 12 12" fill="none">
  <g clip-path="url(#clip0_27244_12814)">
    <path
      d="M5.93444 0.60002L5.93444 0.6H5.93197C2.99215 0.6 0.6 2.99134 0.6 5.93181C0.6 8.87226 2.99151 11.2638 5.93197 11.2638C8.87182 11.2638 11.2633 8.87224 11.2627 5.93132L11.2627 5.92888C11.2596 5.74093 11.1827 5.56172 11.0487 5.4299C10.9147 5.29808 10.7343 5.22421 10.5463 5.22421C10.3583 5.22421 10.1779 5.29808 10.0439 5.4299C9.90986 5.56172 9.83302 5.74093 9.82992 5.92888H9.8299V5.93135C9.8299 8.08108 8.081 9.83036 5.93197 9.83036C3.78285 9.83036 2.03295 8.08146 2.03295 5.93181C2.03295 3.78212 3.78228 2.0328 5.93197 2.03282L5.93444 2.03278C6.12239 2.02968 6.30159 1.95284 6.43341 1.81883C6.56523 1.68482 6.63911 1.50438 6.63911 1.3164C6.63911 1.12842 6.56523 0.947975 6.43341 0.813966C6.30159 0.679955 6.12239 0.603118 5.93444 0.60002Z"
      fill="#FF9F0A" stroke="#FF9F0A" stroke-width="0.3" />
  </g>
  <defs>
    <clipPath id="clip0_27244_12814">
      <rect width="12" height="12" fill="white" />
    </clipPath>
  </defs>
</svg>