<svg width="24" height="24" viewBox="0 0 24 24" fill="none" xmlns="http://www.w3.org/2000/svg">
<mask id="path-2-inside-1_27699_53811" fill="white">
<path d="M21.28 3.78473L12.4133 0.180225C11.78 -0.0600751 11.0833 -0.0600751 10.3867 0.180225L1.52 3.78473C0.633333 4.20526 0 5.04631 0 6.00751V10.4531C0 16.7009 4.37 22.2278 10.7033 23.9099C11.1467 24.03 11.6533 24.03 12.0967 23.9099C18.43 22.2278 22.8 16.7009 22.8 10.4531V6.00751C22.8 5.04631 22.1667 4.20526 21.28 3.78473Z"/>
</mask>
<path d="M21.28 3.78473L12.4133 0.180225C11.78 -0.0600751 11.0833 -0.0600751 10.3867 0.180225L1.52 3.78473C0.633333 4.20526 0 5.04631 0 6.00751V10.4531C0 16.7009 4.37 22.2278 10.7033 23.9099C11.1467 24.03 11.6533 24.03 12.0967 23.9099C18.43 22.2278 22.8 16.7009 22.8 10.4531V6.00751C22.8 5.04631 22.1667 4.20526 21.28 3.78473Z" fill="#7084FF"/>
<path d="M21.28 3.78473L22.3085 1.61626L22.2469 1.58707L22.1838 1.56142L21.28 3.78473ZM12.4133 0.180225L13.3172 -2.04308L13.2911 -2.05369L13.2647 -2.06369L12.4133 0.180225ZM10.3867 0.180225L9.60408 -2.0886L9.54285 -2.06748L9.48284 -2.04308L10.3867 0.180225ZM1.52 3.78473L0.616174 1.56142L0.55308 1.58707L0.491543 1.61626L1.52 3.78473ZM10.7033 23.9099L11.3311 21.5934L11.3194 21.5903L10.7033 23.9099ZM12.0967 23.9099L11.4806 21.5903L11.4689 21.5935L12.0967 23.9099ZM22.1838 1.56142L13.3172 -2.04308L11.5095 2.40353L20.3762 6.00804L22.1838 1.56142ZM13.2647 -2.06369C12.0589 -2.52119 10.7815 -2.49471 9.60408 -2.0886L11.1693 2.44905C11.3852 2.37456 11.5011 2.40104 11.5619 2.42414L13.2647 -2.06369ZM9.48284 -2.04308L0.616174 1.56142L2.42383 6.00804L11.2905 2.40353L9.48284 -2.04308ZM0.491543 1.61626C-1.05998 2.35211 -2.4 3.9422 -2.4 6.00751H2.4C2.4 6.03308 2.39546 6.05528 2.39058 6.06999C2.38609 6.0835 2.38364 6.08393 2.39105 6.0734C2.39869 6.06252 2.41478 6.04304 2.44262 6.01989C2.4704 5.9968 2.50599 5.97334 2.54846 5.9532L0.491543 1.61626ZM-2.4 6.00751V10.4531H2.4V6.00751H-2.4ZM-2.4 10.4531C-2.4 17.851 2.76319 24.2842 10.0873 26.2295L11.3194 21.5903C5.97681 20.1713 2.4 15.5508 2.4 10.4531H-2.4ZM10.0755 26.2263C10.93 26.4579 11.87 26.4579 12.7245 26.2263L11.4689 21.5935C11.4691 21.5934 11.4673 21.5939 11.4636 21.5946C11.4599 21.5953 11.4547 21.5962 11.4481 21.5971C11.4346 21.5988 11.4181 21.6 11.4 21.6C11.3819 21.6 11.3654 21.5988 11.3519 21.5971C11.3453 21.5962 11.3401 21.5953 11.3364 21.5946C11.3327 21.5939 11.3309 21.5934 11.3311 21.5935L10.0755 26.2263ZM12.7127 26.2295C20.0368 24.2842 25.2 17.851 25.2 10.4531H20.4C20.4 15.5508 16.8232 20.1713 11.4806 21.5903L12.7127 26.2295ZM25.2 10.4531V6.00751H20.4V10.4531H25.2ZM25.2 6.00751C25.2 3.9422 23.86 2.35211 22.3085 1.61626L20.2515 5.9532C20.294 5.97334 20.3296 5.9968 20.3574 6.01989C20.3852 6.04304 20.4013 6.06252 20.409 6.0734C20.4164 6.08394 20.4139 6.08351 20.4094 6.06999C20.4045 6.05528 20.4 6.03308 20.4 6.00751H25.2Z" fill="#232428" mask="url(#path-2-inside-1_27699_53811)"/>
<path d="M11.4684 15.4344L11.4684 15.4344L11.4705 15.4319L16.4257 9.61632C16.8309 9.14085 16.8325 8.44205 16.4295 7.96471C15.9204 7.36159 14.9915 7.36026 14.4807 7.96192L10.5731 12.5641L8.52129 10.958C7.98132 10.5353 7.20654 10.6017 6.74627 11.11C6.25129 11.6566 6.30608 12.5042 6.86732 12.9826L9.74921 15.4389C9.95687 15.7258 10.321 15.8492 10.6082 15.8492C10.9284 15.8492 11.2345 15.7019 11.4684 15.4344Z" fill="#232428" stroke="#232428" stroke-width="0.5"/>
</svg>
