<svg width="18" height="18" viewBox="0 0 18 18" fill="none" xmlns="http://www.w3.org/2000/svg">
<g id="&#229;&#138;&#160;&#232;&#189;&#189; 1">
<path id="Vector" d="M7.07129 8.78733L9.49499 11.1429L14.7856 6" stroke="#58C669" stroke-width="1.92857" stroke-linecap="round" stroke-linejoin="round"/>
<path id="Vector_2" d="M9.64568 2.44174L9.64568 2.44176C9.88221 2.44566 10.1077 2.54234 10.2736 2.71098M9.64568 2.44174L10.2736 2.71098M9.64568 2.44174H9.64356M9.64568 2.44174H9.64356M10.2736 2.71098C10.4395 2.87962 10.5325 3.10669 10.5325 3.34325C10.5325 3.5798 10.4395 3.80688 10.2736 3.97551C10.1077 4.14415 9.88221 4.24084 9.64568 4.24473M10.2736 2.71098L9.64568 4.24473M9.64356 2.44174C5.67339 2.44174 2.44272 5.67098 2.44272 9.64164C2.44272 13.6123 5.67254 16.8417 9.64356 16.8417C13.6137 16.8417 16.8436 13.6123 16.8427 9.64098L16.8427 9.63889C16.8388 9.40237 16.7421 9.17685 16.5734 9.01097C16.4048 8.84509 16.1777 8.75213 15.9411 8.75213C15.7046 8.75213 15.4775 8.84509 15.3088 9.01097C15.1402 9.17685 15.0435 9.40237 15.0396 9.63889H15.0395V9.64101C15.0395 12.6166 12.6186 15.0379 9.64356 15.0379C6.66844 15.0379 4.2461 12.6172 4.2461 9.64164C4.2461 6.66605 6.66763 4.24475 9.64356 4.24477L9.64568 4.24473M9.64356 2.44174L9.64568 4.24473" fill="#58C669" stroke="#58C669" stroke-width="0.257143"/>
</g>
</svg>
