<svg width="24" height="24" viewBox="0 0 24 24" fill="none" xmlns="http://www.w3.org/2000/svg">
<rect x="1.2" y="1.2" width="21.6" height="21.6" rx="10.8" fill="#7084FF"/>
<rect x="1.2" y="1.2" width="21.6" height="21.6" rx="10.8" stroke="#232428" stroke-width="2.4"/>
<path d="M16.2658 6.64003L6.01832 9.79197C5.30524 10.0113 5.17556 10.9647 5.80421 11.3666L8.83189 13.302C8.98934 13.4027 9.17484 13.4503 9.36129 13.4379C9.54773 13.4256 9.72534 13.3539 9.86814 13.2334L13.647 10.0446C13.8518 9.87176 14.1283 10.148 13.9554 10.353L10.7669 14.1326C10.6464 14.2754 10.5748 14.453 10.5625 14.6394C10.5501 14.8258 10.5978 15.0113 10.6985 15.1686L12.6335 18.1959C13.0352 18.8244 13.9887 18.6947 14.2081 17.9818L17.36 7.7344C17.5665 7.06258 16.9374 6.43349 16.2658 6.64003Z" fill="#232428"/>
</svg>
