<svg width="20" height="20" viewBox="0 0 20 20" fill="none" xmlns="http://www.w3.org/2000/svg">
<g id="Frame 1244831456">
<g id="Subtract">
<mask id="path-2-inside-1_27244_13782" fill="white">
<path d="M17.7333 3.15394L10.3444 0.150188C9.81667 -0.0500626 9.23611 -0.0500626 8.65556 0.150188L1.26667 3.15394C0.527778 3.50438 0 4.20526 0 5.00626V8.71089C0 13.9174 3.64167 18.5232 8.91944 19.9249C9.28889 20.025 9.71111 20.025 10.0806 19.9249C15.3583 18.5232 19 13.9174 19 8.71089V5.00626C19 4.20526 18.4722 3.50438 17.7333 3.15394Z"/>
</mask>
<path d="M17.7333 3.15394L10.3444 0.150188C9.81667 -0.0500626 9.23611 -0.0500626 8.65556 0.150188L1.26667 3.15394C0.527778 3.50438 0 4.20526 0 5.00626V8.71089C0 13.9174 3.64167 18.5232 8.91944 19.9249C9.28889 20.025 9.71111 20.025 10.0806 19.9249C15.3583 18.5232 19 13.9174 19 8.71089V5.00626C19 4.20526 18.4722 3.50438 17.7333 3.15394Z" fill="#7084FF"/>
<path d="M17.7333 3.15394L18.5904 1.34688L18.5391 1.32256L18.4865 1.30119L17.7333 3.15394ZM10.3444 0.150188L11.0976 -1.70257L11.0759 -1.71141L11.0539 -1.71974L10.3444 0.150188ZM8.65556 0.150188L8.0034 -1.7405L7.95237 -1.7229L7.90237 -1.70257L8.65556 0.150188ZM1.26667 3.15394L0.513478 1.30119L0.4609 1.32256L0.409619 1.34688L1.26667 3.15394ZM8.91944 19.9249L9.44261 17.9945L9.43284 17.9919L8.91944 19.9249ZM10.0806 19.9249L9.56716 17.9919L9.5574 17.9945L10.0806 19.9249ZM18.4865 1.30119L11.0976 -1.70257L9.59126 2.00294L16.9801 5.0067L18.4865 1.30119ZM11.0539 -1.71974C10.0491 -2.10099 8.98456 -2.07893 8.0034 -1.7405L9.30771 2.04087C9.48766 1.9788 9.58423 2.00087 9.63495 2.02011L11.0539 -1.71974ZM7.90237 -1.70257L0.513478 1.30119L2.01986 5.0067L9.40874 2.00294L7.90237 -1.70257ZM0.409619 1.34688C-0.883313 1.96009 -2 3.28517 -2 5.00626H2C2 5.02756 1.99622 5.04607 1.99215 5.05832C1.98841 5.06959 1.98637 5.06995 1.99254 5.06116C1.99891 5.0521 2.01231 5.03587 2.03552 5.01658C2.05867 4.99733 2.08833 4.97779 2.12371 4.961L0.409619 1.34688ZM-2 5.00626V8.71089H2V5.00626H-2ZM-2 8.71089C-2 14.8758 2.30266 20.2369 8.40605 21.8579L9.43284 17.9919C4.98067 16.8094 2 12.959 2 8.71089H-2ZM8.39629 21.8553C9.10832 22.0482 9.89168 22.0482 10.6037 21.8553L9.5574 17.9945C9.55756 17.9945 9.55609 17.9949 9.55298 17.9955C9.54989 17.9961 9.54556 17.9969 9.54009 17.9976C9.52882 17.999 9.51511 18 9.5 18C9.48489 18 9.47118 17.999 9.45991 17.9976C9.45444 17.9969 9.45011 17.9961 9.44702 17.9955C9.44391 17.9949 9.44244 17.9945 9.4426 17.9945L8.39629 21.8553ZM10.5939 21.8579C16.6973 20.2369 21 14.8758 21 8.71089H17C17 12.959 14.0193 16.8094 9.56716 17.9919L10.5939 21.8579ZM21 8.71089V5.00626H17V8.71089H21ZM21 5.00626C21 3.28517 19.8833 1.96009 18.5904 1.34688L16.8763 4.961C16.9117 4.97779 16.9413 4.99733 16.9645 5.01658C16.9877 5.03587 17.0011 5.0521 17.0075 5.06116C17.0136 5.06995 17.0116 5.06959 17.0078 5.05832C17.0038 5.04607 17 5.02756 17 5.00626H21Z" fill="currentColor" mask="url(#path-2-inside-1_27244_13782)"/>
</g>
<path id="Vector" d="M9.51293 12.8242L9.51294 12.8242L9.51417 12.8228L13.6435 7.97642C13.9627 7.60191 13.9639 7.05151 13.6465 6.67554C13.2455 6.20049 12.5139 6.19944 12.1115 6.67334L8.83967 10.5268L7.90608 9.43355C7.51218 8.97228 6.80269 8.96197 6.39555 9.41159C6.05525 9.7874 6.04783 10.3577 6.37823 10.7423L8.16032 12.8164C8.31722 13.0474 8.60825 13.15 8.84 13.15C9.08812 13.15 9.3278 13.036 9.51293 12.8242Z" fill="white" stroke="white" stroke-width="0.3"/>
</g>
</svg>
