<svg width="46" height="46" viewBox="0 0 46 46" fill="none" xmlns="http://www.w3.org/2000/svg">
<path d="M23.0002 0C10.2896 0 0 10.2896 0 23.0002C0 35.7109 10.2896 46.0005 23.0002 46.0005C35.7109 46.0005 46.0005 35.7109 46.0005 23.0002C46.0005 10.2896 35.7109 0 23.0002 0Z" fill="#7084FF" fill-opacity="0.12"/>
<g clip-path="url(#clip0_27458_7707)">
<path d="M28.9386 25.6609L25.1029 29.3409L29.5064 33.7492C29.9592 34.1709 30.5534 34.4105 31.1715 34.4225C31.7824 34.4057 32.5467 33.9553 33.0163 33.5624C33.4356 33.1095 34.0513 32.4171 34.0609 31.799C34.0585 31.1761 33.8165 30.5771 33.3805 30.1315L28.9386 25.6609ZM13.9047 17.8193C14.3072 18.1811 14.8271 18.3871 15.3686 18.3943C15.6321 18.3919 15.9412 18.217 16.1904 18.1284L19.1037 21.0441L20.6131 19.7264L17.6207 16.7125C17.9154 15.9338 17.9202 15.0114 17.326 14.4268L15.9244 13.0468C15.601 12.7617 15.1146 12.7617 14.7912 13.0468L12.4984 15.2486C12.3427 15.4019 12.254 15.608 12.2468 15.8236C12.2492 16.0464 12.3403 16.2573 12.4984 16.413L13.9047 17.8193Z" fill="#7084FF"/>
<path d="M34.5856 17.2563C34.4874 16.9664 34.2574 16.7388 33.9627 16.6478C33.6656 16.5759 33.3517 16.6622 33.1313 16.8754L32.0819 17.9176C31.2769 18.6124 30.0623 18.5213 29.3699 17.7163C28.7493 16.9952 28.7469 15.929 29.3675 15.2055L30.4216 14.1561C30.6588 13.9453 30.7451 13.6123 30.642 13.3104C30.5654 13.0061 30.3258 12.7713 30.0191 12.6995C27.9563 12.1939 25.7761 12.8097 24.2811 14.3238C22.731 15.8164 22.1033 18.0278 22.6376 20.1122L22.0626 20.5602L20.2226 22.1606L20.2274 22.1654L13.6244 28.0807C12.9081 28.7204 12.4984 29.6356 12.496 30.5963C12.4816 31.5547 12.853 32.4795 13.5238 33.1623C14.1899 33.8307 15.0979 34.2021 16.0394 34.1901H16.1401C17.0888 34.1805 17.9944 33.7924 18.6557 33.112L23.7564 28.0328L23.7516 28.028L27.6808 24.3959C30.9918 25.0524 33.9818 23.174 34.6359 19.863C34.806 19.0005 34.7892 18.1116 34.5856 17.2563Z" fill="#7084FF"/>
</g>
<defs>
<clipPath id="clip0_27458_7707">
<rect width="23" height="23" fill="white" transform="translate(12 12)"/>
</clipPath>
</defs>
</svg>
