<svg width="20" height="20" viewBox="0 0 20 20" fill="none" xmlns="http://www.w3.org/2000/svg">
<g id="Frame 1244831456">
<rect x="1" y="1" width="18" height="18" rx="9" fill="#7084FF"/>
<rect x="1" y="1" width="18" height="18" rx="9" stroke="currentColor" stroke-width="2"/>
<path id="Vector" d="M13.5549 5.53328L5.01535 8.15989C4.42112 8.34271 4.31304 9.13713 4.83692 9.47206L7.35999 11.0849C7.49119 11.1688 7.64578 11.2085 7.80115 11.1982C7.95652 11.1879 8.10453 11.1282 8.22353 11.0277L11.3726 8.37043C11.5433 8.22639 11.7736 8.45657 11.6296 8.62746L8.9725 11.7771C8.87209 11.8961 8.81239 12.044 8.80213 12.1994C8.79187 12.3547 8.83159 12.5093 8.91548 12.6405L10.528 15.1632C10.8627 15.6869 11.6573 15.5788 11.8401 14.9848L14.4667 6.44525C14.6388 5.8854 14.1146 5.36116 13.5549 5.53328Z" fill="white"/>
</g>
</svg>
