<svg width="46" height="46" viewBox="0 0 46 46" fill="none" xmlns="http://www.w3.org/2000/svg">
<g id="Group 1244831031">
<path id="Vector" d="M23.0002 0C10.2896 0 0 10.2896 0 23.0002C0 35.7109 10.2896 46.0005 23.0002 46.0005C35.7109 46.0005 46.0005 35.7109 46.0005 23.0002C46.0005 10.2896 35.7109 0 23.0002 0Z" fill="#7084FF" fill-opacity="0.12"/>
<g id="Group 1244831032">
<path id="Polygon 4" d="M29 30.5C29 29.9477 29.4477 29.5 30 29.5L34.5 29.5L29 37L29 30.5Z" fill="#7084FF"/>
<path id="Subtract" fill-rule="evenodd" clip-rule="evenodd" d="M11.5 14C11.5 11.7909 13.2909 10 15.5 10H30.5C32.7091 10 34.5 11.7909 34.5 14V27.6001H28.8999C27.7953 27.6001 26.8999 28.4955 26.8999 29.6001L26.8999 37H15.5C13.2909 37 11.5 35.2091 11.5 33V14ZM16.75 15C16.0596 15 15.5 15.5596 15.5 16.25C15.5 16.9404 16.0596 17.5 16.75 17.5H29.25C29.9404 17.5 30.5 16.9404 30.5 16.25C30.5 15.5596 29.9404 15 29.25 15H16.75ZM15.5 22.25C15.5 21.5596 16.0596 21 16.75 21H29.25C29.9404 21 30.5 21.5596 30.5 22.25C30.5 22.9404 29.9404 23.5 29.25 23.5H16.75C16.0596 23.5 15.5 22.9404 15.5 22.25ZM16.75 27C16.0596 27 15.5 27.5596 15.5 28.25C15.5 28.9404 16.0596 29.5 16.75 29.5H22.25C22.9404 29.5 23.5 28.9404 23.5 28.25C23.5 27.5596 22.9404 27 22.25 27H16.75Z" fill="#7084FF"/>
</g>
</g>
</svg>
