<svg width="12" height="12" viewBox="0 0 12 12" fill="none" xmlns="http://www.w3.org/2000/svg">
<g id="&#229;&#138;&#160;&#232;&#189;&#189; 1" clip-path="url(#clip0_27244_19678)">
<path id="Vector" d="M5.99967 10.6654C7.28833 10.6654 8.455 10.143 9.2995 9.29852C10.144 8.45402 10.6663 7.28735 10.6663 5.9987C10.6663 4.71004 10.144 3.54338 9.2995 2.69887C8.455 1.85437 7.28833 1.33203 5.99967 1.33203C4.71102 1.33203 3.54435 1.85437 2.69984 2.69887C1.85534 3.54338 1.33301 4.71004 1.33301 5.9987C1.33301 7.28735 1.85534 8.45402 2.69984 9.29852C3.54435 10.143 4.71102 10.6654 5.99967 10.6654Z" stroke="#FF564B" stroke-width="1.33333" stroke-linecap="round" stroke-linejoin="round"/>
<path id="&#239;&#188;&#129;" d="M6.00065 6.88915C5.78201 6.88915 5.60049 6.72028 5.58471 6.50221L5.41685 4.18202L5.40682 3.95679C5.39176 3.61846 5.66199 3.33594 6.00065 3.33594C6.33931 3.33594 6.60954 3.61846 6.59448 3.95679L6.58446 4.18202L6.41659 6.50221C6.40082 6.72028 6.21929 6.88915 6.00065 6.88915ZM6.00442 9.0026C5.6127 9.0026 5.33398 8.70973 5.33398 8.29812C5.33398 7.88651 5.62024 7.60155 6.00442 7.60155C6.38107 7.60155 6.66732 7.88651 6.66732 8.29812C6.66732 8.70973 6.38107 9.0026 6.00442 9.0026Z" fill="#FF453A"/>
</g>
<defs>
<clipPath id="clip0_27244_19678">
<rect width="12" height="12" fill="white"/>
</clipPath>
</defs>
</svg>
