<svg xmlns="http://www.w3.org/2000/svg" width="52" height="52" viewBox="0 0 52 52" fill="none">
  <path d="M43.3327 29.2487V6.4987C43.3327 5.30208 42.3627 4.33203 41.166 4.33203H10.8327C9.63606 4.33203 8.66602 5.30208 8.66602 6.4987V45.4987C8.66602 46.6953 9.63606 47.6654 10.8327 47.6654H22.7493" stroke="currentColor" stroke-width="2" stroke-linecap="round" stroke-linejoin="round"/>
  <path d="M18.4158 13H33.5824" stroke="currentColor" stroke-width="2" stroke-linecap="round" stroke-linejoin="round"/>
  <path d="M18.416 21.668H33.5827" stroke="currentColor" stroke-width="2" stroke-linecap="round" stroke-linejoin="round"/>
  <path d="M18.416 30.332H24.916" stroke="currentColor" stroke-width="2" stroke-linecap="round" stroke-linejoin="round"/>
  <path d="M42.25 47.668L38.4968 43.9148M38.4968 43.9148C39.4771 42.9346 40.0833 41.5804 40.0833 40.0846C40.0833 37.0931 37.6582 34.668 34.6667 34.668C31.6752 34.668 29.25 37.0931 29.25 40.0846C29.25 43.0762 31.6752 45.5013 34.6667 45.5013C36.1624 45.5013 37.5166 44.8951 38.4968 43.9148Z" stroke="currentColor" stroke-width="2" stroke-linecap="round" stroke-linejoin="round"/>
</svg>
