<svg xmlns="http://www.w3.org/2000/svg" viewBox="0 0 18 18" fill="none">
  <path d="M3.28124 15.174C3.29774 15.1461 3.31463 15.1184 3.33193 15.0908C4.59347 13.0796 5.32377 10.7013 5.32377 8.1403C5.32377 6.07687 6.99173 4.40414 9.04925 4.40414C11.1067 4.40414 12.7747 6.07687 12.7747 8.1403C12.7747 9.09022 12.7103 10.0258 12.5854 10.9424M10.6133 17.3346C11.183 16.1942 11.6501 14.9933 12.0024 13.7446M15.578 14.8019C16.1787 12.6851 16.5003 10.4504 16.5003 8.1403C16.5003 4.01344 13.1644 0.667969 9.04935 0.667969C7.69224 0.667969 6.41979 1.03185 5.32386 1.66764M0.666992 12.2166C1.26369 10.9848 1.59836 9.6017 1.59836 8.1403C1.59836 6.77926 1.96121 5.50321 2.59518 4.40414M9.04925 8.1403C9.04925 11.4255 8.10968 14.4907 6.48534 17.0802" stroke="currentColor" stroke-width="1.25" stroke-linecap="round" stroke-linejoin="round"/>
</svg>
