<svg width="54" height="76" viewBox="0 0 54 76" fill="none" xmlns="http://www.w3.org/2000/svg">
<path d="M12.645 33.1935C12.645 30.5744 10.5222 28.4516 7.90307 28.4516C5.28394 28.4516 3.16113 30.5744 3.16113 33.1935V49C3.16113 62.094 13.7767 72.7096 26.8708 72.7096C39.9649 72.7096 50.5805 62.094 50.5805 49V36.3548C50.5805 33.7357 48.4577 31.6129 45.8386 31.6129C43.2194 31.6129 41.0966 33.7357 41.0966 36.3548V33.1935C41.0966 30.5744 38.9738 28.4516 36.3547 28.4516C33.7356 28.4516 31.6127 30.5744 31.6127 33.1935V30.0322C31.6127 27.4131 29.4899 25.2903 26.8708 25.2903C24.2517 25.2903 22.1289 27.4131 22.1289 30.0322V7.90319C22.1289 5.28406 20.0061 3.16125 17.3869 3.16125C14.7678 3.16125 12.645 5.28406 12.645 7.90319V44.258V33.1935Z" stroke="currentColor" stroke-width="6.32258" stroke-miterlimit="10" stroke-linecap="round" stroke-linejoin="round"/>
</svg>
