<svg width="14" height="14" viewBox="0 0 14 14" fill="none" xmlns="http://www.w3.org/2000/svg">
<g clip-path="url(#clip0_4408_20971)">
<path d="M12.6004 7.00039C12.6004 10.0932 10.0932 12.6004 7.00039 12.6004C3.90759 12.6004 1.40039 10.0932 1.40039 7.00039C1.40039 3.90759 3.90759 1.40039 7.00039 1.40039C10.0932 1.40039 12.6004 3.90759 12.6004 7.00039Z" stroke="currentColor" stroke-width="0.875" stroke-linecap="round" stroke-linejoin="round"/>
<path fill-rule="evenodd" clip-rule="evenodd" d="M6.99967 3.20898C7.40238 3.20898 7.72884 3.53545 7.72884 3.93815C7.72884 4.34086 7.40238 4.66732 6.99967 4.66732C6.59697 4.66732 6.27051 4.34086 6.27051 3.93815C6.27051 3.53545 6.59697 3.20898 6.99967 3.20898Z" fill="currentColor"/>
<path d="M7.14583 9.91732V5.83398H6.85417H6.5625" fill="currentColor"/>
<path d="M7.14583 9.91732V5.83398H6.85417H6.5625" stroke="currentColor" stroke-width="0.875" stroke-linecap="round" stroke-linejoin="round"/>
<path d="M6.125 9.91602H8.16667H6.125Z" fill="currentColor"/>
<path d="M6.125 9.91602H8.16667" stroke="currentColor" stroke-width="0.875" stroke-linecap="round" stroke-linejoin="round"/>
</g>
<defs>
<clipPath id="clip0_4408_20971">
<rect width="14" height="14" fill="white"/>
</clipPath>
</defs>
</svg>
