<svg width="10" height="10" viewBox="0 0 10 10" fill="none" xmlns="http://www.w3.org/2000/svg">
<path fill-rule="evenodd" clip-rule="evenodd" d="M0.208008 5.00065C0.208008 7.64702 2.35331 9.79232 4.99967 9.79232C7.64604 9.79232 9.79134 7.64702 9.79134 5.00065C9.79134 2.35429 7.64604 0.208984 4.99967 0.208984C2.35331 0.208984 0.208008 2.35429 0.208008 5.00065ZM6.35782 2.50134C6.03637 2.21203 5.61044 2.07542 5.08807 2.07542C4.49338 2.07542 4.02728 2.24418 3.68171 2.58171C3.32811 2.91923 3.15935 3.38534 3.15935 3.98003H4.07549C4.07549 3.64251 4.13978 3.37731 4.2764 3.19247C4.42909 2.96745 4.67822 2.86298 5.03182 2.86298C5.30506 2.86298 5.52204 2.93531 5.67473 3.088C5.81938 3.24069 5.89975 3.44963 5.89975 3.71483C5.89975 3.91574 5.82742 4.10862 5.68277 4.28542L5.58633 4.39792C5.06397 4.86403 4.75055 5.20156 4.64607 5.41854C4.53357 5.63552 4.48535 5.90072 4.48535 6.20611V6.31861H5.40953V6.20611C5.40953 6.01323 5.44971 5.84447 5.53007 5.68374C5.6024 5.53909 5.70687 5.40247 5.85153 5.28192C6.23727 4.9444 6.47033 4.72742 6.54266 4.64705C6.73553 4.38989 6.84 4.0604 6.84 3.65858C6.84 3.16836 6.67927 2.78262 6.35782 2.50134ZM5.39346 6.88116C5.27291 6.76865 5.12022 6.7124 4.94342 6.7124C4.76662 6.7124 4.62197 6.76865 4.50142 6.88116C4.38088 6.99367 4.32462 7.13832 4.32462 7.31512C4.32462 7.49192 4.38088 7.63658 4.50142 7.74909C4.62197 7.8616 4.76662 7.92589 4.94342 7.92589C5.12022 7.92589 5.26487 7.86963 5.38542 7.75712C5.50597 7.64461 5.57026 7.49192 5.57026 7.31512C5.57026 7.13832 5.50596 6.99367 5.39346 6.88116Z" fill="currentColor"/>
</svg>
