<svg width="19" height="21" viewBox="0 0 19 21" fill="none" xmlns="http://www.w3.org/2000/svg">
<path fill-rule="evenodd" clip-rule="evenodd" d="M12.8528 20.3703H2.05936C0.929224 20.3703 0 19.4411 0 18.3109C0 14.6192 2.98858 11.6055 6.70548 11.6055H9.79452C10.7526 11.6055 11.6651 11.8067 12.491 12.1698C12.3365 12.4948 12.25 12.8584 12.25 13.2422V13.4922H12C10.6193 13.4922 9.5 14.6115 9.5 15.9922C9.5 17.3729 10.6193 18.4922 12 18.4922H12.25V18.7422C12.25 19.364 12.477 19.9329 12.8528 20.3703ZM8.26256 11.0781C5.42466 11.0781 3.11416 8.76755 3.11416 5.92965C3.08904 3.09175 5.39954 0.78125 8.23744 0.78125C11.0753 0.78125 13.3858 3.09175 13.3858 5.92965C13.411 8.79267 11.0753 11.0781 8.26256 11.0781Z" fill="#9A9CA9"/>
<path d="M12 15.9922H17.5" stroke="#9A9CA9" stroke-width="2" stroke-linecap="round"/>
<path d="M14.75 18.7422V13.2422" stroke="#9A9CA9" stroke-width="2" stroke-linecap="round"/>
</svg>
