<svg width="19" height="21" viewBox="0 0 19 21" fill="none" xmlns="http://www.w3.org/2000/svg">
<rect x="2.70117" y="3.13477" width="12" height="12" rx="6" fill="#C6CEFF"/>
<path fill-rule="evenodd" clip-rule="evenodd" d="M12.2046 6.61734C12.5927 7.17182 12.5141 7.9809 12.0289 8.42448L8.27893 11.853C7.83131 12.2623 7.18601 12.2214 6.78067 11.7582L5.28067 10.0439C4.84134 9.54182 4.84134 8.72775 5.28067 8.22566C5.72001 7.72356 6.43232 7.72356 6.87166 8.22566L7.65965 9.12622L10.6234 6.41655C11.1085 5.97297 11.8165 6.06287 12.2046 6.61734Z" fill="white"/>
<path d="M16.1456 4.52776L10.1001 1.94726C9.66829 1.77523 9.19329 1.77523 8.71829 1.94726L2.67284 4.52776C2.06829 4.82882 1.63647 5.43093 1.63647 6.11907V9.30168C1.63647 13.7745 4.61602 17.7313 8.9342 18.9355C9.23647 19.0216 9.58193 19.0216 9.8842 18.9355C14.2024 17.7313 17.1819 13.7745 17.1819 9.30168V6.11907C17.1819 5.43093 16.7501 4.82882 16.1456 4.52776Z" fill="#C6CEFF"/>
<path d="M16.1456 4.52776L16.6015 3.61227L16.5746 3.59891L16.5471 3.58714L16.1456 4.52776ZM10.1001 1.94726L10.5016 1.00664L10.4902 1.00176L10.4786 0.997158L10.1001 1.94726ZM8.71829 1.94726L8.37002 0.985659L8.34311 0.995406L8.31679 1.00664L8.71829 1.94726ZM2.67284 4.52776L2.27134 3.58714L2.24377 3.59891L2.21693 3.61227L2.67284 4.52776ZM8.9342 18.9355L9.21413 17.9519L9.20893 17.9504L8.9342 18.9355ZM9.8842 18.9355L9.60947 17.9504L9.60428 17.9519L9.8842 18.9355ZM16.5471 3.58714L10.5016 1.00664L9.69861 2.88788L15.7441 5.46838L16.5471 3.58714ZM10.4786 0.997158C9.79313 0.724063 9.05837 0.736358 8.37002 0.985659L9.06656 2.90886C9.32822 2.8141 9.54345 2.82639 9.7216 2.89737L10.4786 0.997158ZM8.31679 1.00664L2.27134 3.58714L3.07434 5.46838L9.1198 2.88788L8.31679 1.00664ZM2.21693 3.61227C1.31749 4.06019 0.613747 4.98769 0.613747 6.11907H2.6592C2.6592 5.87418 2.8191 5.59745 3.12874 5.44325L2.21693 3.61227ZM0.613747 6.11907V9.30168H2.6592V6.11907H0.613747ZM0.613747 9.30168C0.613747 14.2302 3.89591 18.5922 8.65947 19.9207L9.20893 17.9504C5.33613 16.8704 2.6592 13.3189 2.6592 9.30168H0.613747ZM8.65428 19.9192C9.13954 20.0573 9.67887 20.0573 10.1641 19.9192L9.60428 17.9519C9.48499 17.9858 9.33341 17.9858 9.21412 17.9519L8.65428 19.9192ZM10.1589 19.9207C14.9225 18.5922 18.2047 14.2302 18.2047 9.30168H16.1592C16.1592 13.3189 13.4823 16.8704 9.60947 17.9504L10.1589 19.9207ZM18.2047 9.30168V6.11907H16.1592V9.30168H18.2047ZM18.2047 6.11907C18.2047 4.98769 17.5009 4.06019 16.6015 3.61227L15.6897 5.44325C15.9993 5.59745 16.1592 5.87418 16.1592 6.11907H18.2047Z" fill="white"/>
<path d="M9.50675 6.13369C10.355 6.13369 11.054 6.77763 11.1601 7.61142H12.1596C12.0414 6.19999 10.8898 5.09094 9.48472 5.09094C8.07969 5.09094 6.92903 6.19999 6.81086 7.61142H7.85437C7.95852 6.77763 8.65853 6.13369 9.50675 6.13369ZM11.9693 8.22522H6.84791C6.22902 8.22522 5.72729 8.72851 5.72729 9.34934V12.9668C5.72729 13.5876 6.22902 14.0909 6.84791 14.0909H11.9703C12.5902 14.0909 13.0909 13.5876 13.0909 12.9668V9.35035C13.0909 8.72952 12.5882 8.22522 11.9693 8.22522ZM9.8853 11.255V12.0717C9.8853 12.348 9.66198 12.571 9.38758 12.571C9.11218 12.571 8.88986 12.347 8.88986 12.0717V11.2671C8.75567 11.1375 8.67155 10.9567 8.67155 10.7547C8.67155 10.362 8.99001 10.0425 9.38157 10.0425C9.77314 10.0425 10.0916 10.362 10.0916 10.7547C10.0896 10.9496 10.0115 11.1264 9.8853 11.255Z" fill="white"/>
</svg>
