<svg width="20" height="20" viewBox="0 0 20 20" fill="none" xmlns="http://www.w3.org/2000/svg">
<path d="M2.75058 7.7502H6.0003C6.09883 7.75022 6.19639 7.73082 6.28742 7.69313C6.37845 7.65544 6.46116 7.60018 6.53084 7.53051C6.60051 7.46085 6.65578 7.37814 6.69349 7.28712C6.73119 7.19609 6.7506 7.09853 6.7506 7C6.7506 6.90147 6.73119 6.80391 6.69349 6.71288C6.65578 6.62186 6.60051 6.53915 6.53084 6.46949C6.46116 6.39982 6.37845 6.34457 6.28742 6.30687C6.19639 6.26918 6.09883 6.24978 6.0003 6.2498H4.69511C5.29416 5.39973 6.08884 4.70619 7.01214 4.22768C7.93544 3.74918 8.96028 3.49974 10.0002 3.5004C11.2856 3.50056 12.5422 3.88189 13.6109 4.59617C14.6796 5.31045 15.5125 6.32561 16.0043 7.51327C16.4961 8.70093 16.6247 10.0078 16.3739 11.2685C16.123 12.5292 15.5039 13.6873 14.5949 14.5962C13.6859 15.5051 12.5278 16.124 11.2671 16.3748C10.0063 16.6255 8.69956 16.4967 7.51199 16.0048C6.32442 15.5128 5.30939 14.6797 4.59526 13.6109C3.88113 12.5421 3.49996 11.2855 3.49996 10C3.50325 9.89947 3.4863 9.79931 3.4501 9.70546C3.4139 9.61162 3.3592 9.52601 3.28925 9.45373C3.2193 9.38146 3.13553 9.32398 3.04292 9.28473C2.95032 9.24548 2.85076 9.22526 2.75018 9.22526C2.6496 9.22526 2.55005 9.24548 2.45744 9.28473C2.36483 9.32398 2.28106 9.38146 2.21112 9.45373C2.14117 9.52601 2.08647 9.61162 2.05027 9.70546C2.01407 9.79931 1.99711 9.89947 2.0004 10C2.0004 14.4177 5.58264 18 10.0002 18C14.4178 18 18 14.4177 18 10C18 5.58233 14.4178 2 10.0002 2C8.72831 1.9994 7.4747 2.30294 6.34396 2.88531C5.21321 3.46767 4.2381 4.31197 3.49996 5.34779V4C3.50325 3.89947 3.4863 3.79931 3.4501 3.70546C3.4139 3.61162 3.3592 3.52601 3.28925 3.45373C3.2193 3.38146 3.13553 3.32398 3.04292 3.28473C2.95032 3.24548 2.85076 3.22526 2.75018 3.22526C2.6496 3.22526 2.55005 3.24548 2.45744 3.28473C2.36483 3.32398 2.28106 3.38146 2.21112 3.45373C2.14117 3.52601 2.08647 3.61162 2.05027 3.70546C2.01407 3.79931 1.99711 3.89947 2.0004 4V7C2.0004 7.19897 2.07944 7.38978 2.22013 7.53047C2.36081 7.67116 2.55162 7.7502 2.75058 7.7502Z" fill="#9A9CA9"/>
</svg>
