<svg width="20" height="20" viewBox="0 0 20 20" fill="none" xmlns="http://www.w3.org/2000/svg">
<path fill-rule="evenodd" clip-rule="evenodd" d="M4.35038 16.5897C3.80837 16.6499 3.35039 16.1919 3.41061 15.6499L3.55982 14.307C3.5924 14.0138 3.60869 13.8672 3.65305 13.7302C3.69241 13.6086 3.74803 13.4929 3.81838 13.3862C3.89755 13.2661 4.00163 13.162 4.20954 12.9541L4.21062 12.953L11.073 6.09063C11.0731 6.09073 11.0732 6.09084 11.0733 6.09094L13.9097 8.92731L7.0473 15.7897C6.83868 15.9983 6.73436 16.1027 6.61411 16.1819C6.50742 16.2523 6.39171 16.3079 6.27013 16.3472C6.13309 16.3916 5.98647 16.4079 5.69324 16.4405L4.35038 16.5897ZM14.6619 8.17512L16.4128 6.42418C17.1961 5.64085 17.1961 4.37083 16.4128 3.5875C15.6295 2.80417 14.3595 2.80417 13.5761 3.5875L11.8252 5.33844C11.8253 5.33854 11.8254 5.33865 11.8255 5.33875L14.6619 8.17512Z" fill="#f7fafc"/>
</svg>
