<svg width="20" height="20" viewBox="0 0 20 20" fill="none" xmlns="http://www.w3.org/2000/svg">
<path fill-rule="evenodd" clip-rule="evenodd" d="M8.25 3C8.25 2.44771 8.69772 2 9.25 2H10.5833C11.1356 2 11.5833 2.44772 11.5833 3V4.33335H16.8333C17.3856 4.33335 17.8333 4.78107 17.8333 5.33335V7.66668C17.8333 8.21897 17.3856 8.66668 16.8333 8.66668H3C2.44771 8.66668 2 8.21897 2 7.66668V5.33335C2 4.78107 2.44772 4.33335 3 4.33335H8.25V3Z" stroke="#3E495E" stroke-width="1.5" stroke-linecap="round" stroke-linejoin="round"/>
<path d="M3.25 15.2031C3.25 16.3077 4.14543 17.2031 5.25 17.2031H14.5833C15.6879 17.2031 16.5833 16.3077 16.5833 15.2031V8.70312H3.25V15.2031Z" stroke="#3E495E" stroke-width="1.5" stroke-linecap="round" stroke-linejoin="round"/>
<path d="M6.57812 17.165V14.6719" stroke="#3E495E" stroke-width="1.5" stroke-linecap="round" stroke-linejoin="round"/>
<path d="M9.91406 17.1641V14.6641" stroke="#3E495E" stroke-width="1.5" stroke-linecap="round" stroke-linejoin="round"/>
<path d="M13.25 17.165V14.6719" stroke="#3E495E" stroke-width="1.5" stroke-linecap="round" stroke-linejoin="round"/>
</svg>
