<svg width="15" height="15" viewBox="0 0 15 15" fill="none" xmlns="http://www.w3.org/2000/svg">
<path fill-rule="evenodd" clip-rule="evenodd" d="M15 7.5C15 11.6421 11.6421 15 7.5 15C3.35786 15 0 11.6421 0 7.5C0 3.35786 3.35786 0 7.5 0C11.6421 0 15 3.35786 15 7.5ZM3 8C3 7.44772 3.44772 7 4 7H6.5V4.5C6.5 3.94772 6.94772 3.5 7.5 3.5C8.05229 3.5 8.5 3.94772 8.5 4.5V7H11C11.5523 7 12 7.44772 12 8C12 8.55229 11.5523 9 11 9H8.5V11.5C8.5 12.0523 8.05229 12.5 7.5 12.5C6.94772 12.5 6.5 12.0523 6.5 11.5V9H4C3.44772 9 3 8.55229 3 8Z" fill="#3E495E"/>
</svg>
