<svg xmlns="http://www.w3.org/2000/svg" width="20" height="20" viewBox="0 0 20 20" fill="none">
  <path d="M12.1592 13.5869C12.4592 13.8869 12.4643 14.3699 12.1745 14.676L12.1592 14.6917L9.7543 17.0967C7.87533 18.9756 4.81941 18.9625 2.9289 17.072C1.05727 15.2004 1.02562 12.1866 2.84841 10.3033L2.9042 10.2466L5.30914 7.84164C5.61425 7.53654 6.10889 7.53654 6.41399 7.84164C6.71396 8.14161 6.71904 8.62465 6.42924 8.93081L6.41399 8.9465L4.00906 11.3514C2.74234 12.6181 2.75129 14.6847 4.03375 15.9671C5.30339 17.2368 7.34152 17.2582 8.61122 16.0294L8.64945 15.9918L11.0544 13.5869C11.3595 13.2818 11.8541 13.2818 12.1592 13.5869ZM9.66845 11.4372L7.54973 13.556C7.24468 13.8611 6.74998 13.8611 6.44487 13.556C6.14491 13.256 6.13988 12.7729 6.42963 12.4668L6.44487 12.4511L8.5636 10.3323L9.66845 11.4372ZM13.5159 6.48494C13.8159 6.7849 13.821 7.26795 13.5312 7.5741L13.5159 7.58979L10.7733 10.3323L9.66845 9.22746L12.4111 6.48494C12.7162 6.17983 13.2108 6.17983 13.5159 6.48494ZM17.071 2.92985C18.9427 4.80147 18.9743 7.81524 17.1515 9.69857L17.0957 9.75525L14.6908 12.1602C14.3857 12.4653 13.891 12.4653 13.5859 12.1602C13.286 11.8602 13.2809 11.3772 13.5707 11.071L13.5859 11.0553L15.9909 8.65039C17.2576 7.38368 17.2486 5.31716 15.9662 4.0347C14.6965 2.76506 12.6584 2.74362 11.3887 3.97244L11.3505 4.01001L8.94555 6.41494C8.64044 6.72005 8.1458 6.72005 7.84069 6.41494C7.54072 6.11498 7.53564 5.63193 7.82545 5.32578L7.84069 5.31009L10.2456 2.90515C12.1246 1.02618 15.1805 1.03933 17.071 2.92985Z" fill="#FF453A"/>
  <path d="M4.40802 3.29865C4.70677 2.99826 5.18904 2.99162 5.49599 3.27943L5.51286 3.29568L16.8008 14.5235C17.1067 14.8278 17.108 15.3225 16.8037 15.6283C16.505 15.9287 16.0227 15.9354 15.7158 15.6476L15.6989 15.6313L4.41099 4.4035C4.10505 4.0992 4.10372 3.60459 4.40802 3.29865Z" fill="#FF453A"/>
</svg>
