<svg width="20" height="20" viewBox="0 0 20 20" fill="none" xmlns="http://www.w3.org/2000/svg">
<path d="M10.5341 15.6096C10.1987 15.4328 9.79782 15.4327 9.46228 15.6091L6.39094 17.2239C5.54682 17.6677 4.56023 16.9509 4.72147 16.0109L5.30822 12.5904C5.3723 12.2169 5.24832 11.8358 4.97675 11.5714L2.48925 9.15008C1.80548 8.4845 2.18242 7.32376 3.12677 7.1869L6.55745 6.6897C6.93238 6.63536 7.25654 6.39994 7.4242 6.06021L8.96012 2.94806C9.38217 2.09288 10.6016 2.09288 11.0237 2.94807L12.5596 6.06021C12.7273 6.39994 13.0514 6.63536 13.4263 6.6897L16.857 7.1869C17.8014 7.32376 18.1783 8.4845 17.4945 9.15008L15.007 11.5714C14.7355 11.8358 14.6115 12.2169 14.6756 12.5904L15.2619 16.0082C15.4232 16.9486 14.4356 17.6655 13.5914 17.2207L10.5341 15.6096Z" stroke="white" stroke-linecap="round" stroke-linejoin="round"/>
</svg>
