<svg width="20" height="20" viewBox="0 0 20 20" fill="none" xmlns="http://www.w3.org/2000/svg">
<path d="M16.5389 7.19247C16.503 7.15659 13.06 3.7154 12.7235 3.38564C12.7116 3.37368 12.7013 3.36343 12.6877 3.35318C12.0626 2.844 11.1626 2.89014 10.5938 3.46082C10.1122 3.94094 10.1396 4.5851 10.1566 5.00371C10.1583 5.11136 10.1618 5.22242 10.1618 5.32493C10.1618 5.77089 9.74162 6.41675 9.09264 6.97034C8.41463 7.54957 7.63414 7.90326 7.1918 7.83149C7.08763 7.81441 6.99199 7.80586 6.90659 7.79903C6.86561 7.79561 6.82974 7.7922 6.79388 7.78878C4.70688 7.27106 3.76757 8.64138 3.65826 8.81396C3.49943 9.09075 3.54213 9.43931 3.76586 9.66144L6.04755 11.9442L3.13737 15.886C2.93072 16.1628 2.95975 16.5438 3.20739 16.7933C3.34402 16.9299 3.52164 17 3.69925 17C3.84271 17 3.98617 16.9556 4.10743 16.8633L8.08843 13.986L10.3428 16.2414C10.5699 16.4686 10.9217 16.5113 11.2035 16.3405C11.3607 16.2414 12.7269 15.3085 12.2231 13.2632C12.218 13.2291 12.189 12.9813 12.1736 12.8412C12.1377 12.4038 12.5647 11.4282 13.2581 10.6729C13.7499 10.1381 14.2538 9.84255 14.6756 9.84255C14.7781 9.84255 14.8891 9.84426 14.9898 9.84768C15.4168 9.86647 16.0624 9.89381 16.5423 9.41368C16.8377 9.11809 17.0017 8.72511 17 8.30478C16.9983 7.88446 16.836 7.48977 16.5389 7.19247Z" fill="#192945"/>
</svg>
