<svg width="20" height="20" viewBox="0 0 20 20" fill="none" xmlns="http://www.w3.org/2000/svg">
<path d="M4.24219 12.2197C3.3457 12.2197 2.69531 11.5605 2.69531 10.6904C2.69531 9.82031 3.3457 9.16992 4.24219 9.16992C5.14746 9.16992 5.78906 9.82031 5.78906 10.6904C5.78906 11.5605 5.14746 12.2197 4.24219 12.2197ZM10.5 12.2197C9.60352 12.2197 8.95312 11.5605 8.95312 10.6904C8.95312 9.82031 9.60352 9.16992 10.5 9.16992C11.4053 9.16992 12.0469 9.82031 12.0469 10.6904C12.0469 11.5605 11.4053 12.2197 10.5 12.2197ZM16.7578 12.2197C15.8613 12.2197 15.2109 11.5605 15.2109 10.6904C15.2109 9.82031 15.8613 9.16992 16.7578 9.16992C17.6631 9.16992 18.3047 9.82031 18.3047 10.6904C18.3047 11.5605 17.6631 12.2197 16.7578 12.2197Z" fill="#717380"/>
</svg>
