<svg width="17" height="18" viewBox="0 0 17 18" fill="none" xmlns="http://www.w3.org/2000/svg">
<g id="&#229;&#164;&#141;&#229;&#136;&#182;-F 1">
<path id="Vector" d="M4.87339 8.58108C4.78095 9.26533 4.78095 10.1068 4.78095 11.0238V12.6069C4.78095 12.8173 4.78095 12.9214 4.71295 12.9851C4.64495 13.0478 4.54295 13.0404 4.33895 13.0255C4.1706 13.0136 4.00265 12.9966 3.83533 12.9745C3.15533 12.8831 2.59114 12.6993 2.11514 12.3083C1.94482 12.1688 1.78859 12.013 1.6487 11.843C1.23645 11.3404 1.05583 10.739 0.968703 10.0091C0.884766 9.2972 0.884766 8.39833 0.884766 7.26358V7.19452C0.884766 6.05977 0.884766 5.15983 0.969766 4.44902C1.05477 3.71802 1.23645 3.1177 1.64977 2.61514C1.78789 2.44514 1.94514 2.28895 2.11514 2.1487C2.6177 1.73645 3.21908 1.55583 3.94902 1.4687C4.66089 1.38477 5.55977 1.38477 6.69345 1.38477H6.76252C7.89726 1.38477 8.79614 1.38477 9.50802 1.46977C10.238 1.55477 10.8393 1.73645 11.3419 2.14977C11.5119 2.28789 11.6681 2.44514 11.8073 2.61514C12.1983 3.09114 12.381 3.65639 12.4735 4.33639C12.4947 4.49364 12.5117 4.66152 12.5245 4.83895C12.5393 5.04295 12.5468 5.14495 12.4841 5.21295C12.4203 5.28095 12.3162 5.28095 12.1058 5.28095H10.5227C9.60577 5.28095 8.76533 5.28095 8.07895 5.37339C7.32458 5.47433 6.52558 5.71339 5.86895 6.37002C5.21233 7.02664 4.97327 7.82564 4.87233 8.58002L4.87339 8.58108Z" fill="#192945" fill-opacity="0.4"/>
<path id="Vector_2" d="M11.3719 6.34375H10.5857C9.61775 6.34375 8.83681 6.34375 8.22269 6.42663C7.58519 6.51163 7.04862 6.69544 6.6215 7.1215C6.19544 7.54862 6.01163 8.08519 5.92663 8.72269C5.84375 9.33681 5.84375 10.1178 5.84375 11.0857V11.8719C5.84375 12.8409 5.84375 13.6219 5.92663 14.236C6.01163 14.8735 6.19544 15.4101 6.6215 15.8361C7.04862 16.2633 7.58519 16.446 8.22269 16.5321C8.83681 16.6149 9.61775 16.6149 10.5857 16.6149H11.3719C12.3409 16.6149 13.1219 16.6149 13.736 16.5321C14.3735 16.4471 14.9101 16.2633 15.3361 15.8361C15.7633 15.4111 15.946 14.8735 16.0321 14.236C16.1149 13.6219 16.1149 12.8409 16.1149 11.8719V11.0857C16.1149 10.1178 16.1149 9.33681 16.0321 8.72269C15.9471 8.08519 15.7633 7.54862 15.3361 7.1215C14.9111 6.69544 14.3735 6.51163 13.736 6.42663C13.1219 6.34375 12.3409 6.34375 11.3719 6.34375Z" fill="#192945"/>
</g>
</svg>
