<svg width="20" height="20" viewBox="0 0 20 20" fill="none" xmlns="http://www.w3.org/2000/svg">
<path d="M10.5549 15.786C10.2051 15.6017 9.787 15.6015 9.43705 15.7855L6.23383 17.4696C5.35346 17.9325 4.3245 17.1849 4.49267 16.2046L5.10462 12.6372C5.17145 12.2476 5.04214 11.8501 4.75891 11.5744L2.1646 9.04914C1.45147 8.35498 1.84459 7.1444 2.8295 7.00166L6.40749 6.48311C6.79852 6.42644 7.13659 6.18091 7.31146 5.82659L8.91333 2.58081C9.3535 1.68891 10.6253 1.68891 11.0655 2.58081L12.6674 5.82659C12.8422 6.18091 13.1803 6.42644 13.5713 6.48311L17.1493 7.00166C18.1342 7.1444 18.5274 8.35498 17.8142 9.04914L15.2199 11.5744C14.9367 11.8501 14.8074 12.2476 14.8742 12.6372L15.4857 16.2018C15.6539 17.1826 14.6239 17.9302 13.7435 17.4663L10.5549 15.786Z" stroke="#9A9CA9" stroke-width="1.5" stroke-linecap="round" stroke-linejoin="round"/>
</svg>
