<svg width="20" height="20" viewBox="0 0 20 20" fill="none" xmlns="http://www.w3.org/2000/svg">
<path d="M16.4 3.59375V16.4062H3.59375V3.59375H16.4ZM17.1812 2.1875H2.8125C2.64674 2.1875 2.48777 2.25335 2.37056 2.37056C2.25335 2.48777 2.1875 2.64674 2.1875 2.8125V17.1875C2.1875 17.3533 2.25335 17.5122 2.37056 17.6294C2.48777 17.7467 2.64674 17.8125 2.8125 17.8125H17.1812C17.347 17.8125 17.506 17.7467 17.6232 17.6294C17.7404 17.5122 17.8062 17.3533 17.8062 17.1875V2.8125C17.8062 2.64674 17.7404 2.48777 17.6232 2.37056C17.506 2.25335 17.347 2.1875 17.1812 2.1875Z" fill="#fff"/>
<path d="M14.9226 4.92285H10.1551C10.1139 4.92318 10.0744 4.93979 10.0454 4.96906C10.0164 4.99832 10.0001 5.03788 10.0001 5.0791V6.17285C10.0001 6.21429 10.0166 6.25403 10.0459 6.28334C10.0752 6.31264 10.1149 6.3291 10.1563 6.3291H13.6726V9.8441C13.6726 9.88533 13.6889 9.92488 13.7179 9.95415C13.7469 9.98342 13.7864 10 13.8276 10.0004H14.9226C14.9638 10 15.0032 9.98342 15.0323 9.95415C15.0613 9.92488 15.0776 9.88533 15.0776 9.8441V5.0791C15.0776 5.03788 15.0613 4.99832 15.0323 4.96906C15.0032 4.93979 14.9638 4.92318 14.9226 4.92285ZM9.92134 13.4954H6.49634V10.1566C6.49634 10.1152 6.47988 10.0754 6.45058 10.0461C6.42128 10.0168 6.38153 10.0004 6.34009 10.0004H5.24634C5.2049 10.0004 5.16516 10.0168 5.13586 10.0461C5.10655 10.0754 5.09009 10.1152 5.09009 10.1566V14.7441C5.08993 14.7647 5.09385 14.7852 5.10163 14.8043C5.1094 14.8234 5.12089 14.8408 5.13541 14.8554C5.14994 14.87 5.16722 14.8817 5.18626 14.8896C5.2053 14.8975 5.22572 14.9016 5.24634 14.9016H9.92134C9.94186 14.9016 9.96218 14.8976 9.98114 14.8897C10.0001 14.8819 10.0173 14.8703 10.0318 14.8558C10.0463 14.8413 10.0578 14.8241 10.0657 14.8051C10.0736 14.7862 10.0776 14.7659 10.0776 14.7454V13.6516C10.0776 13.6102 10.0611 13.5704 10.0318 13.5411C10.0025 13.5118 9.96278 13.4954 9.92134 13.4954Z" fill="#fff"/>
</svg>
