<svg width="20" height="20" viewBox="0 0 20 20" fill="none" xmlns="http://www.w3.org/2000/svg">
<path d="M14.6617 11.9131L17.9475 7.42483C17.9744 7.38773 17.9919 7.3422 17.9978 7.29362C18.0037 7.24504 17.9978 7.19545 17.9808 7.15073C17.9639 7.10602 17.9366 7.06806 17.9021 7.04134C17.8676 7.01462 17.8275 7.00028 17.7864 7H11.2136C11.1725 7.00028 11.1324 7.01462 11.0979 7.04134C11.0634 7.06806 11.0361 7.10602 11.0192 7.15073C11.0022 7.19545 10.9963 7.24504 11.0022 7.29362C11.0081 7.3422 11.0256 7.38773 11.0525 7.42483L14.3373 11.9131C14.3574 11.9404 14.3822 11.9623 14.41 11.9773C14.4378 11.9923 14.4679 12 14.4984 12C14.5289 12 14.559 11.9923 14.5868 11.9773C14.6146 11.9623 14.6394 11.9404 14.6595 11.9131H14.6617Z" fill="#FFF"/>
<path d="M3.33333 3.16797H16.6667C17.2222 3.16797 17.5 3.5013 17.5 4.16797C17.5 4.83464 17.2222 5.16797 16.6667 5.16797H3.33333C2.77778 5.16797 2.5 4.83464 2.5 4.16797C2.5 3.5013 2.77778 3.16797 3.33333 3.16797Z" fill="#FFF"/>
<path d="M3.33333 14.168H16.6667C17.2222 14.168 17.5 14.5013 17.5 15.168C17.5 15.8346 17.2222 16.168 16.6667 16.168H3.33333C2.77778 16.168 2.5 15.8346 2.5 15.168C2.5 14.5013 2.77778 14.168 3.33333 14.168Z" fill="#FFF"/>
<path d="M3.58333 9H9.41667C9.80556 9 10 9.33333 10 10C10 10.6667 9.80556 11 9.41667 11H3.58333C3.19444 11 3 10.6667 3 10C3 9.33333 3.19444 9 3.58333 9Z" fill="#FFF"/>
</svg>
