<svg width="15" height="15" viewBox="0 0 15 15" fill="none" xmlns="http://www.w3.org/2000/svg">
<path d="M10.6704 14.4747H1.5217C0.686619 14.4747 0 13.7881 0 12.953C0 10.2251 2.20832 7.99818 4.95479 7.99818H7.23733C9.96525 7.99818 12.1921 10.2065 12.1921 12.953C12.1921 13.7881 11.5241 14.4747 10.6704 14.4747ZM6.10534 7.60848C4.00837 7.60848 2.3011 5.90121 2.3011 3.80424C2.28254 1.70727 3.98981 0 6.08678 0C8.18375 0 9.89102 1.70727 9.89102 3.80424C9.90958 5.91977 8.18375 7.60848 6.10534 7.60848Z" fill="red"/>
<path d="M10.6906 10.6445C9.86212 10.6445 9.1905 11.316 9.19043 12.1444C9.19036 12.9728 9.86188 13.6445 10.6903 13.6445L12.9999 13.6447C13.8283 13.6448 14.4999 12.9733 14.5 12.1448C14.5001 11.3164 13.8285 10.6448 13.0001 10.6447L10.6906 10.6445Z" fill="red" stroke="#192945" stroke-linecap="round" stroke-linejoin="round"/>
</svg>
