<svg width="17" height="17" viewBox="0 0 17 17" fill="none" xmlns="http://www.w3.org/2000/svg">
<g id="&#229;&#164;&#141;&#229;&#136;&#182;-F 2" clip-path="url(#clip0_38031_46089)">
<path id="Vector" d="M4.87339 8.08108C4.78095 8.76533 4.78095 9.60683 4.78095 10.5238V12.1069C4.78095 12.3173 4.78095 12.4214 4.71295 12.4851C4.64495 12.5478 4.54295 12.5404 4.33895 12.5255C4.1706 12.5136 4.00265 12.4966 3.83533 12.4745C3.15533 12.3831 2.59114 12.1993 2.11514 11.8083C1.94482 11.6688 1.78859 11.513 1.6487 11.343C1.23645 10.8404 1.05583 10.239 0.968703 9.50908C0.884766 8.7972 0.884766 7.89833 0.884766 6.76358V6.69452C0.884766 5.55977 0.884766 4.65983 0.969766 3.94902C1.05477 3.21802 1.23645 2.6177 1.64977 2.11514C1.78789 1.94514 1.94514 1.78895 2.11514 1.6487C2.6177 1.23645 3.21908 1.05583 3.94902 0.968703C4.66089 0.884766 5.55977 0.884766 6.69345 0.884766H6.76252C7.89726 0.884766 8.79614 0.884766 9.50802 0.969766C10.238 1.05477 10.8393 1.23645 11.3419 1.64977C11.5119 1.78789 11.6681 1.94514 11.8073 2.11514C12.1983 2.59114 12.381 3.15639 12.4735 3.83639C12.4947 3.99364 12.5117 4.16152 12.5245 4.33895C12.5393 4.54295 12.5468 4.64495 12.4841 4.71295C12.4203 4.78095 12.3162 4.78095 12.1058 4.78095H10.5227C9.60577 4.78095 8.76533 4.78095 8.07895 4.87339C7.32458 4.97433 6.52558 5.21339 5.86895 5.87002C5.21233 6.52664 4.97327 7.32564 4.87233 8.08002L4.87339 8.08108Z" fill="#F7FAFC" fill-opacity="0.4"/>
<path id="Vector_2" d="M11.3719 5.84375H10.5857C9.61775 5.84375 8.83681 5.84375 8.22269 5.92663C7.58519 6.01163 7.04862 6.19544 6.6215 6.6215C6.19544 7.04862 6.01163 7.58519 5.92663 8.22269C5.84375 8.83681 5.84375 9.61775 5.84375 10.5857V11.3719C5.84375 12.3409 5.84375 13.1219 5.92663 13.736C6.01163 14.3735 6.19544 14.9101 6.6215 15.3361C7.04862 15.7633 7.58519 15.946 8.22269 16.0321C8.83681 16.1149 9.61775 16.1149 10.5857 16.1149H11.3719C12.3409 16.1149 13.1219 16.1149 13.736 16.0321C14.3735 15.9471 14.9101 15.7633 15.3361 15.3361C15.7633 14.9111 15.946 14.3735 16.0321 13.736C16.1149 13.1219 16.1149 12.3409 16.1149 11.3719V10.5857C16.1149 9.61775 16.1149 8.83681 16.0321 8.22269C15.9471 7.58519 15.7633 7.04862 15.3361 6.6215C14.9111 6.19544 14.3735 6.01163 13.736 5.92663C13.1219 5.84375 12.3409 5.84375 11.3719 5.84375Z" fill="#F7FAFC"/>
</g>
<defs>
<clipPath id="clip0_38031_46089">
<rect width="17" height="17" fill="white"/>
</clipPath>
</defs>
</svg>
