<svg width="20" height="20" viewBox="0 0 20 20" fill="none" xmlns="http://www.w3.org/2000/svg">
<path fill-rule="evenodd" clip-rule="evenodd" d="M13.649 10.3C14.0106 10.0025 14.3653 9.84255 14.6756 9.84255C14.7781 9.84255 14.8891 9.84426 14.9898 9.84768C15.4168 9.86647 16.0624 9.89381 16.5423 9.41368C16.8377 9.11809 17.0017 8.72511 17 8.30478C16.9983 7.88446 16.836 7.48977 16.5389 7.19247C16.503 7.15658 13.06 3.7154 12.7235 3.38564C12.7116 3.37368 12.7013 3.36343 12.6877 3.35317C12.0626 2.844 11.1626 2.89014 10.5938 3.46082C10.1132 3.93995 10.1394 4.58242 10.1565 5.0011L10.1566 5.00371C10.1572 5.03985 10.158 5.07638 10.1587 5.11284C10.1602 5.18497 10.1618 5.25684 10.1618 5.32493C10.1618 5.55856 10.0465 5.84704 9.84335 6.14839L13.649 10.3ZM6.5505 7.73581C4.63354 7.37808 3.76322 8.64824 3.65826 8.81396C3.49943 9.09075 3.54213 9.43931 3.76586 9.66144L6.04755 11.9442L3.13737 15.886C2.93072 16.1628 2.95975 16.5438 3.20739 16.7933C3.34402 16.9299 3.52164 17 3.69925 17C3.84271 17 3.98617 16.9556 4.10743 16.8633L8.08843 13.986L10.3428 16.2414C10.5699 16.4686 10.9217 16.5113 11.2035 16.3405C11.3391 16.255 12.3744 15.549 12.3329 14.0439L6.5505 7.73581Z" fill="#f7fafc"/>
<path d="M5.5 4L16.5 16" stroke="#f7fafc" stroke-width="1.5" stroke-linecap="round" stroke-linejoin="round"/>
</svg>
