<svg width="393" height="220" viewBox="0 0 393 220" fill="none" xmlns="http://www.w3.org/2000/svg">
  <g clip-path="url(#clip0_1883_7709)">
    <g opacity="0.5">
      <circle opacity="0.5" cx="198" cy="-1" r="199.5" stroke="#F2F4F7" />
      <circle opacity="0.5" cx="198" cy="-1" r="139.5" stroke="#F2F4F7" />
      <path
        d="M93.1071 116.448C93.5486 116.576 94.2486 115.512 94.6705 114.073C95.0925 112.634 95.0766 111.364 94.6351 111.236C94.1936 111.108 93.4936 112.171 93.0716 113.61C92.6497 115.05 92.6656 116.32 93.1071 116.448Z"
        fill="#D3CDD4" />
      <path
        d="M91.2289 113.265C91.3264 112.816 92.5951 112.706 94.0627 113.02C95.5303 113.333 96.641 113.951 96.5435 114.4C96.4461 114.849 95.1774 114.959 93.7098 114.645C92.2422 114.332 91.1315 113.714 91.2289 113.265Z"
        fill="#D3CDD4" />
      <path
        d="M104.107 70.4517C104.549 70.5795 105.249 69.5163 105.671 68.077C106.092 66.6378 106.077 65.3674 105.635 65.2397C105.194 65.1119 104.494 66.1751 104.072 67.6143C103.65 69.0536 103.666 70.3239 104.107 70.4517Z"
        fill="#7084FF" />
      <path
        d="M102.229 67.2689C102.326 66.82 103.595 66.7101 105.063 67.0234C106.53 67.3368 107.641 67.9548 107.544 68.4037C107.446 68.8526 106.177 68.9625 104.71 68.6492C103.242 68.3358 102.131 67.7178 102.229 67.2689Z"
        fill="#7084FF" />
      <path
        d="M283.324 92.5376C283.425 92.986 284.694 93.0863 286.158 92.7618C287.622 92.4372 288.727 91.8106 288.626 91.3622C288.525 90.9138 287.256 90.8134 285.792 91.138C284.328 91.4625 283.223 92.0892 283.324 92.5376Z"
        fill="#D3CDD4" />
      <path
        d="M285.206 89.3572C285.646 89.226 286.354 90.2844 286.788 91.7211C287.221 93.1579 287.215 94.4289 286.775 94.5601C286.335 94.6912 285.627 93.6328 285.193 92.1961C284.76 90.7593 284.766 89.4883 285.206 89.3572Z"
        fill="#D3CDD4" />
    </g>
  </g>
  <defs>
    <clipPath id="clip0_1883_7709">
      <rect width="393" height="220" fill="white" />
    </clipPath>
  </defs>
</svg>
