<svg width="28" height="28" viewBox="0 0 28 28" fill="none" xmlns="http://www.w3.org/2000/svg">
<g id="find">
<path id="Vector" d="M23.3337 15.7507V3.50065C23.3337 2.85632 22.8113 2.33398 22.167 2.33398H5.83366C5.18933 2.33398 4.66699 2.85632 4.66699 3.50065V24.5007C4.66699 25.145 5.18933 25.6673 5.83366 25.6673H12.2503" stroke="#6A7587" stroke-width="1.5" stroke-linecap="round" stroke-linejoin="round"/>
<path id="Vector_2" d="M9.91699 7H18.0837" stroke="#6A7587" stroke-width="1.5" stroke-linecap="round" stroke-linejoin="round"/>
<path id="Vector_3" d="M9.91699 11.666H18.0837" stroke="#6A7587" stroke-width="1.5" stroke-linecap="round" stroke-linejoin="round"/>
<path id="Vector_4" d="M9.91699 16.334H13.417" stroke="#6A7587" stroke-width="1.5" stroke-linecap="round" stroke-linejoin="round"/>
<path id="Vector_5" d="M22.75 25.666L20.729 23.6451M20.729 23.6451C21.2569 23.1173 21.5833 22.3881 21.5833 21.5827C21.5833 19.9719 20.2775 18.666 18.6667 18.666C17.0558 18.666 15.75 19.9719 15.75 21.5827C15.75 23.1935 17.0558 24.4993 18.6667 24.4993C19.4721 24.4993 20.2012 24.1729 20.729 23.6451Z" stroke="#6A7587" stroke-width="1.5" stroke-linecap="round" stroke-linejoin="round"/>
</g>
</svg>
