<svg xmlns="http://www.w3.org/2000/svg" width="24" height="24" viewBox="0 0 24 24" fill="none">
  <path
    d="M22.581 11.5638C22.581 17.4547 17.781 22.2547 11.8901 22.2547C5.99922 22.2547 1.19922 17.4547 1.19922 11.5638C1.19922 5.67288 5.99922 0.872878 11.8901 0.872878C17.781 0.763787 22.581 5.67288 22.581 11.5638Z"
    fill="#FAFAFA" />
  <path d="M11.8918 0.765625C5.8918 0.765625 1.0918 5.56562 1.0918 11.4565V12.3293H11.7827V0.765625H11.8918Z"
    fill="#233CAF" />
  <path
    d="M8.83558 5.56342L8.72649 5.99979L9.05376 5.7816L9.38104 5.99979L9.27194 5.56342L9.59922 5.23615L9.16285 5.12706L8.94467 4.79979L8.72649 5.12706L8.29013 5.23615L8.83558 5.56342ZM9.27194 2.94524L9.05376 2.61797L8.83558 2.94524L8.39922 3.05433L8.72649 3.3816L8.6174 3.81797L8.94467 3.59979L9.27194 3.81797L9.16285 3.3816L9.49013 3.05433L9.27194 2.94524ZM2.50831 11.1271L2.29013 10.7998L2.07195 11.1271L1.63558 11.2361L1.96285 11.5634L1.85376 11.9998L2.18104 11.7816L2.50831 11.9998L2.39922 11.5634L2.72649 11.2361L2.50831 11.1271ZM1.30831 10.2543L1.63558 9.92706H1.30831C1.30831 10.1452 1.19922 10.3634 1.19922 10.5816L1.4174 10.6907L1.30831 10.2543ZM8.83558 7.96342L8.72649 8.39979L9.05376 8.1816L9.38104 8.39979L9.27194 7.96342L9.59922 7.63615L9.16285 7.52706L8.94467 7.19979L8.72649 7.52706L8.29013 7.63615L8.83558 7.96342ZM2.6174 7.19979L2.50831 6.76342L2.83558 6.43615L2.39922 6.32706V6.21797C2.29013 6.43615 2.18104 6.65433 2.07195 6.9816L2.29013 6.87251L2.6174 7.19979ZM2.50831 8.72706L2.29013 8.39979L2.07195 8.72706L1.63558 8.83615L1.96285 9.16342L1.85376 9.59979L2.18104 9.3816L2.50831 9.59979L2.39922 9.16342L2.72649 8.83615L2.50831 8.72706ZM8.83558 10.2543L8.72649 10.6907L9.05376 10.4725L9.38104 10.6907L9.27194 10.2543L9.59922 9.92706L9.16285 9.81797L8.94467 9.4907L8.72649 9.81797L8.29013 9.92706L8.83558 10.2543ZM10.3629 1.41797L10.1447 1.74524L9.70831 1.85433L10.0356 2.18161L9.92649 2.61797L10.2538 2.39979L10.581 2.61797L10.4719 2.18161L10.7992 1.85433L10.3629 1.74524V1.41797ZM7.52649 1.74524H7.4174C7.30831 1.74524 7.30831 1.74524 7.19922 1.85433L7.4174 2.07251L7.30831 2.50888L7.63558 2.2907L7.96285 2.50888L7.85376 2.07251L8.18104 1.74524L7.74467 1.63615L7.63558 1.41797C7.74467 1.63615 7.63558 1.63615 7.52649 1.74524ZM10.1447 11.4543L10.0356 11.8907L10.3629 11.6725L10.6901 11.8907L10.581 11.4543L10.9083 11.1271L10.4719 11.018L10.2538 10.6907L10.0356 11.018L9.59922 11.1271L10.1447 11.4543ZM10.1447 9.05433L10.0356 9.4907L10.3629 9.27251L10.6901 9.4907L10.581 9.05433L10.9083 8.72706L10.4719 8.61797L10.2538 8.2907L10.0356 8.61797L9.59922 8.72706L10.1447 9.05433ZM10.581 4.14524L10.3629 3.81797L10.1447 4.14524L9.70831 4.25433L10.0356 4.5816L9.92649 5.01797L10.2538 4.79979L10.581 5.01797L10.4719 4.5816L10.7992 4.25433L10.581 4.14524ZM10.1447 6.76342L10.0356 7.19979L10.3629 6.9816L10.6901 7.19979L10.581 6.76342L10.9083 6.43615L10.4719 6.32706L10.2538 5.99979L10.0356 6.32706L9.59922 6.43615L10.1447 6.76342ZM3.8174 5.23615L3.59922 4.90888L3.38104 5.23615L2.94467 5.34524L3.27195 5.67251L3.16285 6.10888L3.49013 5.8907L3.8174 6.10888L3.70831 5.67251L4.03558 5.34524L3.8174 5.23615ZM6.54467 9.92706L6.32649 9.59979L6.10831 9.92706L5.67195 10.0361L5.99922 10.3634L5.89013 10.7998L6.2174 10.5816L6.54467 10.7998L6.43558 10.3634L6.76285 10.0361L6.54467 9.92706ZM6.54467 7.63615L6.32649 7.30888L6.10831 7.63615L5.67195 7.74524L5.99922 8.07251L5.89013 8.50888L6.2174 8.2907L6.54467 8.50888L6.43558 8.07251L6.76285 7.74524L6.54467 7.63615ZM7.85376 6.43615L7.63558 6.10888L7.4174 6.43615L6.98104 6.54524L7.30831 6.87251L7.19922 7.30888L7.52649 7.0907L7.85376 7.30888L7.74467 6.87251L8.07195 6.54524L7.85376 6.43615ZM3.8174 9.92706L3.59922 9.59979L3.38104 9.92706L2.94467 10.0361L3.27195 10.3634L3.16285 10.7998L3.49013 10.5816L3.8174 10.7998L3.70831 10.3634L4.03558 10.0361L3.8174 9.92706ZM7.85376 8.72706L7.63558 8.39979L7.4174 8.72706L6.98104 8.83615L7.30831 9.16342L7.19922 9.59979L7.52649 9.3816L7.85376 9.59979L7.74467 9.16342L8.07195 8.83615L7.85376 8.72706ZM7.85376 11.1271L7.63558 10.7998L7.4174 11.1271L6.98104 11.2361L7.30831 11.5634L7.19922 11.9998L7.52649 11.7816L7.85376 11.9998L7.74467 11.5634L8.07195 11.2361L7.85376 11.1271ZM7.85376 4.14524L7.63558 3.81797L7.4174 4.14524L6.98104 4.25433L7.30831 4.5816L7.19922 5.01797L7.52649 4.79979L7.85376 5.01797L7.74467 4.5816L8.07195 4.25433L7.85376 4.14524ZM5.12649 4.14524L4.90831 3.81797L4.69013 4.14524L4.25376 4.25433L4.58104 4.5816L4.47195 5.01797L4.79922 4.79979L5.12649 5.01797L5.0174 4.5816L5.34467 4.25433L5.12649 4.14524ZM3.8174 7.63615L3.59922 7.30888L3.38104 7.63615L2.94467 7.74524L3.27195 8.07251L3.16285 8.50888L3.49013 8.2907L3.8174 8.50888L3.70831 8.07251L4.03558 7.74524L3.8174 7.63615ZM5.12649 6.43615L4.90831 6.10888L4.69013 6.43615L4.25376 6.54524L4.58104 6.87251L4.47195 7.30888L4.79922 7.0907L5.12649 7.30888L5.0174 6.87251L5.34467 6.54524L5.12649 6.43615ZM5.12649 8.72706L4.90831 8.39979L4.69013 8.72706L4.25376 8.83615L4.58104 9.16342L4.47195 9.59979L4.79922 9.3816L5.12649 9.59979L5.0174 9.16342L5.34467 8.83615L5.12649 8.72706ZM6.54467 2.94524L6.32649 2.61797L6.10831 2.94524L5.67195 3.05433L5.99922 3.3816L5.89013 3.81797L6.2174 3.59979L6.54467 3.81797L6.43558 3.3816L6.76285 3.05433L6.54467 2.94524ZM6.54467 5.23615L6.32649 4.90888L6.10831 5.23615L5.67195 5.34524L5.99922 5.67251L5.89013 6.10888L6.2174 5.8907L6.54467 6.10888L6.43558 5.67251L6.76285 5.34524L6.54467 5.23615ZM5.56285 11.1271L5.23558 11.4543L5.34467 11.8907L5.0174 11.6725L4.69013 11.8907L4.79922 11.4543L4.47195 11.1271L4.90831 11.018L5.12649 10.6907L5.34467 11.018L5.56285 11.1271Z"
    fill="#FAFAFA" />
  <path
    d="M4.14524 18.9838H19.6362C20.1816 18.4384 20.618 17.8929 20.9452 17.2384H2.83615C3.16342 17.8929 3.59979 18.4384 4.14524 18.9838ZM11.7816 22.2565C13.9634 22.2565 15.9271 21.602 17.5634 20.5111H5.99979C7.74524 21.602 9.70888 22.2565 11.7816 22.2565ZM22.4725 10.6929H11.7816V12.4384H22.4725V11.5656C22.5816 11.2384 22.5816 11.0202 22.4725 10.6929ZM1.96342 15.7111H21.818C22.0362 15.1656 22.2543 14.6202 22.3634 13.9656H1.41797C1.52706 14.6202 1.74524 15.1656 1.96342 15.7111ZM11.8907 5.78381H20.9452C20.5089 5.12926 20.0725 4.58381 19.6362 4.03835H11.8907V5.78381ZM11.8907 9.05653H22.3634C22.2543 8.51108 22.0362 7.85653 21.818 7.31108H11.8907V9.05653ZM11.8907 2.51108H17.6725C16.0362 1.42017 14.0725 0.765625 11.8907 0.765625V2.51108Z"
    fill="#EB0000" />
</svg>