<svg width="210" height="210" viewBox="0 0 210 210" fill="none" xmlns="http://www.w3.org/2000/svg">
<rect width="210" height="210" rx="105" fill="#F2F4F7"/>
<path d="M34.8838 77.0908C34.8838 72.9309 38.2561 69.5586 42.416 69.5586H160.107C169.467 69.5586 177.054 77.1462 177.054 86.5061C177.054 95.8659 169.467 103.454 160.107 103.454H42.416C38.2561 103.454 34.8838 100.081 34.8838 95.9213V77.0908Z" fill="#242225"/>
<path d="M59.3502 160.935C56.6516 157.769 57.0302 153.015 60.196 150.317L149.761 73.9671C156.884 67.8951 167.581 68.7471 173.653 75.8701C179.725 82.9931 178.873 93.6897 171.75 99.7617L82.1847 176.111C79.019 178.81 74.2649 178.431 71.5662 175.266L59.3502 160.935Z" fill="#BCBAC2"/>
<circle opacity="0.5" cx="51.8313" cy="86.5129" r="8.9445" stroke="#BCBAC2" stroke-width="0.941527"/>
<circle opacity="0.3" cx="51.8306" cy="86.5103" r="25.4673" stroke="#9C99A6" stroke-width="0.75"/>
<circle opacity="0.2" cx="51.5862" cy="86.5862" r="38.2112" stroke="#9C99A6" stroke-width="0.75"/>
<circle opacity="0.5" cx="160.104" cy="86.5129" r="8.9445" stroke="#242225" stroke-width="0.941527"/>
<path d="M104.075 74.4922V83.0025L111.268 86.2167L104.075 74.4922Z" fill="white" fill-opacity="0.602"/>
<path d="M104.073 74.4922L96.8789 86.2167L104.073 83.0025V74.4922Z" fill="white"/>
<path d="M104.075 91.7341V97.5167L111.273 87.5586L104.075 91.7341Z" fill="white" fill-opacity="0.602"/>
<path d="M104.073 97.5167V91.7332L96.8789 87.5586L104.073 97.5167Z" fill="white"/>
<path d="M104.075 90.3926L111.268 86.2161L104.075 83.0039V90.3926Z" fill="white" fill-opacity="0.2"/>
<path d="M96.8789 86.2161L104.073 90.3926V83.0039L96.8789 86.2161Z" fill="white" fill-opacity="0.602"/>
<circle opacity="0.3" cx="158.944" cy="86.5103" r="25.4673" stroke="#9C99A6" stroke-width="0.75"/>
<circle opacity="0.2" cx="158.707" cy="86.5862" r="38.2112" stroke="#9C99A6" stroke-width="0.75"/>
</svg>
