<svg width="20" height="21" viewBox="0 0 20 21" fill="none" xmlns="http://www.w3.org/2000/svg">
  <path fill-rule="evenodd" clip-rule="evenodd"
    d="M9.99996 18.4257C12.2091 18.4257 14.2091 17.5303 15.6568 16.0826C17.1045 14.6348 17.9999 12.6348 17.9999 10.4257C17.9999 8.21663 17.1045 6.21664 15.6568 4.76891C14.2091 3.32121 12.2091 2.42578 9.99996 2.42578C7.79085 2.42578 5.79086 3.32121 4.34313 4.76891C2.89543 6.21664 2 8.21663 2 10.4257C2 12.6348 2.89543 14.6348 4.34313 16.0826C5.79086 17.5303 7.79085 18.4257 9.99996 18.4257ZM6.875 8.18555C6.875 6.45966 8.27411 5.06055 10 5.06055C11.7259 5.06055 13.125 6.45966 13.125 8.18555C13.125 9.69739 12.0514 10.9585 10.625 11.248V12.3522C10.625 12.6974 10.3452 12.9772 10 12.9772C9.65482 12.9772 9.375 12.6974 9.375 12.3522V10.6855C9.375 10.3404 9.65482 10.0605 10 10.0605C11.0355 10.0605 11.875 9.22108 11.875 8.18555C11.875 7.15002 11.0355 6.31055 10 6.31055C8.96447 6.31055 8.125 7.15002 8.125 8.18555C8.125 8.53072 7.84518 8.81055 7.5 8.81055C7.15482 8.81055 6.875 8.53072 6.875 8.18555ZM11.0404 15.0612C11.0404 15.6365 10.574 16.1029 9.9987 16.1029C9.42341 16.1029 8.95703 15.6365 8.95703 15.0612C8.95703 14.4859 9.42341 14.0195 9.9987 14.0195C10.574 14.0195 11.0404 14.4859 11.0404 15.0612Z"
    fill="currentColor" />
</svg>