<svg width="210" height="210" viewBox="0 0 210 210" fill="none" xmlns="http://www.w3.org/2000/svg">
<rect width="210" height="210" rx="105" fill="#F2F4F7"/>
<path d="M177.071 54C180.951 54 184.202 57.0515 184.202 60.9168V148.089C184.202 151.853 181.056 155.006 177.071 155.006H138.691C134.811 155.006 131.561 151.954 131.561 148.089V60.9168C131.561 57.1533 134.706 54 138.691 54H177.071Z" fill="#5B7896"/>
<path d="M180.643 61.5089V146.964C180.643 148.46 179.693 149.656 178.214 150.055C177.897 150.155 177.58 150.155 177.158 150.155H138.498C138.287 150.155 138.076 150.155 137.97 150.155C136.28 149.856 135.118 148.559 135.118 146.964V61.808C135.118 60.1129 136.28 58.8166 137.97 58.6172C138.181 58.6172 138.287 58.6172 138.498 58.6172H144.202C144.942 58.6172 145.47 59.1158 145.47 59.8138C145.47 61.2098 146.737 62.4063 148.216 62.4063H167.862C169.341 62.4063 170.609 61.2098 170.609 59.8138C170.609 59.1158 171.137 58.6172 171.876 58.6172H177.263L177.181 58.6305C177.498 58.6305 177.92 58.6305 178.237 58.7302C179.504 59.1291 180.643 60.0132 180.643 61.5089Z" fill="#D2DFFE"/>
<rect x="141.789" y="88.1875" width="32.3334" height="32.3334" rx="16.1667" fill="#7084FF"/>
<path d="M168.5 105.693C169.336 103.818 165.201 98.5795 161.25 96.3969C158.759 94.7061 156.164 94.9384 155.639 95.6808C154.485 97.3101 159.458 98.6906 162.784 100.302C162.069 100.613 161.395 101.172 160.999 101.887C159.759 100.529 157.038 99.3595 153.845 100.302C151.693 100.936 149.905 102.433 149.214 104.694C149.046 104.619 148.86 104.577 148.664 104.577C147.916 104.577 147.31 105.186 147.31 105.936C147.31 106.687 147.916 107.295 148.664 107.295C148.803 107.295 149.236 107.202 149.236 107.202L156.164 107.252C153.394 111.663 151.204 112.307 151.204 113.071C151.204 113.835 153.299 113.628 154.086 113.344C157.852 111.98 161.896 107.731 162.59 106.508C165.505 106.873 167.954 106.916 168.5 105.693Z" fill="url(#paint0_linear_6151_213361)"/>
<path fill-rule="evenodd" clip-rule="evenodd" d="M162.697 100.263C162.726 100.276 162.754 100.288 162.783 100.301C162.937 100.24 162.912 100.011 162.87 99.8319C162.772 99.4196 161.094 97.7564 159.517 97.0115C157.368 95.9958 155.786 96.0489 155.554 96.5175C155.987 97.4188 158.018 98.2648 160.14 99.1484C161.012 99.5115 161.899 99.881 162.697 100.263Z" fill="url(#paint1_linear_6151_213361)"/>
<path fill-rule="evenodd" clip-rule="evenodd" d="M160.061 109.359C159.626 109.192 159.134 109.038 158.575 108.899C159.17 107.831 159.294 106.251 158.733 105.251C157.944 103.848 156.955 103.102 154.655 103.102C153.39 103.102 149.985 103.529 149.924 106.381C149.918 106.682 149.924 106.958 149.946 107.211L156.165 107.256C155.328 108.589 154.544 109.578 153.857 110.33C154.681 110.542 155.361 110.72 155.985 110.883C156.58 111.039 157.124 111.181 157.694 111.327C158.551 110.7 159.357 110.017 160.061 109.359Z" fill="url(#paint2_linear_6151_213361)"/>
<path d="M149.128 106.916C149.382 109.083 150.609 109.932 153.117 110.183C155.625 110.434 157.063 110.266 158.979 110.441C160.578 110.587 162.006 111.405 162.536 111.122C163.013 110.868 162.746 109.949 162.108 109.359C161.281 108.595 160.136 108.063 158.122 107.875C158.524 106.772 158.411 105.226 157.788 104.385C156.886 103.168 155.223 102.618 153.117 102.859C150.917 103.11 148.809 104.196 149.128 106.916Z" fill="url(#paint3_linear_6151_213361)"/>
<path d="M162.752 60.691H155.313C154.554 60.691 154.25 59.9308 154.25 59.6268C154.25 58.8666 155.009 58.5625 155.313 58.5625H162.752C163.359 58.5625 163.815 59.3227 163.815 59.6268C163.815 60.3869 163.359 60.691 162.752 60.691Z" fill="#4E6781"/>
<path d="M151.036 60.691H150.733C149.974 60.691 149.67 59.9308 149.67 59.6268C149.67 58.8666 150.429 58.5625 150.733 58.5625H151.036C151.795 58.5625 152.099 59.3227 152.099 59.6268C152.099 60.3869 151.644 60.691 151.036 60.691Z" fill="#4E6781"/>
<path d="M120.158 112.719L100.783 112.719" stroke="#2ABB7F" stroke-width="2.7679" stroke-linecap="round" stroke-linejoin="round"/>
<path d="M113.698 106.255L120.157 112.713L113.698 119.172" stroke="#2ABB7F" stroke-width="2.7679" stroke-linecap="round" stroke-linejoin="round"/>
<path d="M97.3864 93.3359L116.762 93.3359" stroke="#2ABB7F" stroke-width="2.7679" stroke-linecap="round" stroke-linejoin="round"/>
<path d="M103.831 86.8722L97.3726 93.3306L103.831 99.7891" stroke="#2ABB7F" stroke-width="2.7679" stroke-linecap="round" stroke-linejoin="round"/>
<rect x="84" y="74" width="4" height="13" rx="1" fill="#2E2E30"/>
<rect x="25" y="58" width="61" height="95" rx="6" fill="#2E2E30"/>
<rect x="25.1" y="58.1" width="60.8" height="94.8" rx="5.9" stroke="white" stroke-opacity="0.46" stroke-width="0.2"/>
<mask id="mask0_6151_213361" style="mask-type:alpha" maskUnits="userSpaceOnUse" x="25" y="58" width="61" height="95">
<rect x="25" y="58" width="61" height="95" rx="6" fill="#2E2E30"/>
</mask>
<g mask="url(#mask0_6151_213361)">
<path opacity="0.3" d="M98.9086 127.017C97.542 136.161 98.8851 148.725 94.5125 151.926C92.6569 153.285 85.1602 149.736 83.5999 149.019C67.0662 141.427 79.1703 137.383 81.1169 124.358C83.0635 111.334 77.2608 98.514 82.1738 99.2483C87.0869 99.9825 100.855 113.993 98.9086 127.017Z" fill="url(#paint4_linear_6151_213361)"/>
<path opacity="0.1" d="M35.0774 121.085C34.8474 130.511 32.95 142.274 29.005 146.068C27.3308 147.678 23.7518 144.636 22.2722 144.6C17.3061 144.478 16.7659 134.072 17.0934 120.646C17.421 107.22 21.7124 96.4342 26.6785 96.5553C31.6446 96.6765 35.4049 107.659 35.0774 121.085Z" fill="url(#paint5_linear_6151_213361)"/>
<path opacity="0.3" d="M54.0072 63.4684C42.5149 64.3111 29.5649 64.408 21.7831 62.6652C19.6983 61.8106 24.4906 59.0076 24.424 58.1001C24.2007 55.0544 36.8291 53.6391 53.1984 52.4388C69.5678 51.2386 83.0189 52.7347 83.2422 55.7804C83.4656 58.8262 70.3765 62.2682 54.0072 63.4684Z" fill="url(#paint6_linear_6151_213361)"/>
<path opacity="0.3" d="M21.2129 93.0124C21.5516 81.4942 17.352 67.3497 19.8583 62.669C19.8586 62.6722 29.4776 63.6341 30.9205 64.1151C33.9731 64.2048 32.7498 76.9313 32.2673 93.3375C31.7848 109.744 28.9191 122.971 25.8665 122.881C22.8139 122.791 20.7304 109.419 21.2129 93.0124Z" fill="url(#paint7_linear_6151_213361)"/>
</g>
<rect x="28" y="61" width="55" height="89" rx="4" fill="#D2DFFE"/>
<rect x="28.0481" y="61.0481" width="54.9038" height="88.9038" rx="3.9519" stroke="white" stroke-opacity="0.5" stroke-width="0.0961907"/>
<rect x="46" y="119" width="20" height="20" rx="10" fill="white"/>
<path d="M50.6898 123.375H57.0144L52.798 132.335H49.6357L50.6898 123.375Z" fill="black"/>
<path d="M61.2308 134.968H54.9062L59.1226 126.008H62.2849L61.2308 134.968Z" fill="#1F5AFF"/>
<path d="M40 75V86.6364H42.9091V89.5455H45.8182V86.6364H51.6364V75H40ZM51.6364 86.6364V89.5455H54.5455V92.4545H48.7273V95.3636H40V107H51.6364V95.3636H60.3636V92.4545H57.4545V89.5455H63.2727V86.6364H66.1818V89.5455H69.0909V86.6364H72V75H60.3636V86.6364H51.6364ZM69.0909 89.5455V92.4545H72V89.5455H69.0909ZM69.0909 92.4545H66.1818V95.3636H69.0909V92.4545ZM69.0909 95.3636V98.2727H72V95.3636H69.0909ZM69.0909 98.2727H66.1818V95.3636H63.2727V98.2727H56V107H58.9091V101.182H64.7273V104.091H67.6364V101.182H69.0909V98.2727ZM64.7273 104.091H61.8182V107H64.7273V104.091ZM66.1818 92.4545V89.5455H63.2727V92.4545H66.1818ZM48.7273 92.4545V89.5455H45.8182V92.4545H48.7273ZM42.9091 89.5455H40V92.4545H42.9091V89.5455ZM54.5455 75V80.8182H53.0909V83.7273H54.5455V85.1818H57.4545V80.8182H58.9091V77.9091H57.4545V75H54.5455ZM42.9091 77.9091H48.7273V83.7273H42.9091V77.9091ZM63.2727 77.9091H69.0909V83.7273H63.2727V77.9091ZM44.3636 79.3636V82.2727H47.2727V79.3636H44.3636ZM64.7273 79.3636V82.2727H67.6364V79.3636H64.7273ZM42.9091 98.2727H48.7273V104.091H42.9091V98.2727ZM44.3636 99.7273V102.636H47.2727V99.7273H44.3636ZM69.0909 104.091V107H72V104.091H69.0909Z" fill="#3E495E"/>
<defs>
<linearGradient id="paint0_linear_6151_213361" x1="153.594" y1="104.033" x2="168.327" y2="108.197" gradientUnits="userSpaceOnUse">
<stop stop-color="white"/>
<stop offset="1" stop-color="white"/>
</linearGradient>
<linearGradient id="paint1_linear_6151_213361" x1="165.839" y1="103.751" x2="155.178" y2="93.0988" gradientUnits="userSpaceOnUse">
<stop stop-color="#8697FF"/>
<stop offset="1" stop-color="#8697FF" stop-opacity="0"/>
</linearGradient>
<linearGradient id="paint2_linear_6151_213361" x1="160.357" y1="109.731" x2="150.131" y2="103.87" gradientUnits="userSpaceOnUse">
<stop stop-color="#8697FF"/>
<stop offset="1" stop-color="#8697FF" stop-opacity="0"/>
</linearGradient>
<linearGradient id="paint3_linear_6151_213361" x1="154.47" y1="103.924" x2="161.398" y2="112.697" gradientUnits="userSpaceOnUse">
<stop stop-color="white"/>
<stop offset="0.983895" stop-color="#D1D8FF"/>
</linearGradient>
<linearGradient id="paint4_linear_6151_213361" x1="92.9462" y1="102.445" x2="88.1026" y2="154.589" gradientUnits="userSpaceOnUse">
<stop stop-color="white" stop-opacity="0"/>
<stop offset="1" stop-color="white"/>
</linearGradient>
<linearGradient id="paint5_linear_6151_213361" x1="26.1331" y1="96.9756" x2="27.8651" y2="150.35" gradientUnits="userSpaceOnUse">
<stop stop-color="white" stop-opacity="0"/>
<stop offset="1" stop-color="white"/>
</linearGradient>
<linearGradient id="paint6_linear_6151_213361" x1="82.9886" y1="55.4686" x2="19.1507" y2="67.4689" gradientUnits="userSpaceOnUse">
<stop stop-color="white" stop-opacity="0"/>
<stop offset="1" stop-color="white"/>
</linearGradient>
<linearGradient id="paint7_linear_6151_213361" x1="26.2111" y1="122.364" x2="20.8116" y2="57.6333" gradientUnits="userSpaceOnUse">
<stop stop-color="white" stop-opacity="0"/>
<stop offset="1" stop-color="white"/>
</linearGradient>
</defs>
</svg>
