<svg width="210" height="210" viewBox="0 0 210 210" fill="none" xmlns="http://www.w3.org/2000/svg">
<rect width="210" height="210" rx="105" fill="#F2F4F7"/>
<path d="M177.071 54C180.951 54 184.202 57.0515 184.202 60.9168V148.089C184.202 151.853 181.056 155.006 177.071 155.006H138.691C134.811 155.006 131.561 151.954 131.561 148.089V60.9168C131.561 57.1533 134.706 54 138.691 54H177.071Z" fill="#5B7896"/>
<path d="M180.644 61.505V146.96C180.644 148.456 179.693 149.652 178.214 150.051C177.898 150.151 177.581 150.151 177.158 150.151H138.499C138.287 150.151 138.076 150.151 137.971 150.151C136.281 149.852 135.119 148.556 135.119 146.96V61.8041C135.119 60.109 136.281 58.8127 137.971 58.6133C138.182 58.6133 138.287 58.6133 138.499 58.6133H144.203C144.942 58.6133 145.47 59.1119 145.47 59.8099C145.47 61.2059 146.738 62.4024 148.216 62.4024H167.863C169.342 62.4024 170.609 61.2059 170.609 59.8099C170.609 59.1119 171.137 58.6133 171.877 58.6133H177.264L177.181 58.6266C177.498 58.6266 177.921 58.6266 178.237 58.7263C179.505 59.1252 180.644 60.0093 180.644 61.505Z" fill="#D2DFFE"/>
<rect x="141.789" y="88.1875" width="32.3334" height="32.3334" rx="16.1667" fill="#7084FF"/>
<path d="M168.503 105.693C169.339 103.818 165.203 98.5795 161.252 96.3969C158.762 94.7061 156.167 94.9384 155.641 95.6808C154.488 97.3101 159.461 98.6906 162.786 100.302C162.071 100.613 161.398 101.172 161.002 101.887C159.762 100.529 157.041 99.3595 153.847 100.302C151.696 100.936 149.907 102.433 149.216 104.694C149.048 104.619 148.862 104.577 148.667 104.577C147.919 104.577 147.312 105.186 147.312 105.936C147.312 106.687 147.919 107.295 148.667 107.295C148.805 107.295 149.239 107.202 149.239 107.202L156.167 107.252C153.396 111.663 151.207 112.307 151.207 113.071C151.207 113.835 153.302 113.628 154.088 113.344C157.854 111.98 161.899 107.731 162.593 106.508C165.508 106.873 167.957 106.916 168.503 105.693Z" fill="url(#paint0_linear_6151_208153)"/>
<path fill-rule="evenodd" clip-rule="evenodd" d="M162.699 100.259C162.728 100.272 162.757 100.284 162.785 100.297C162.939 100.236 162.914 100.007 162.872 99.828C162.775 99.4157 161.096 97.7525 159.52 97.0076C157.371 95.9919 155.788 96.0449 155.556 96.5136C155.989 97.4149 158.021 98.2609 160.142 99.1445C161.014 99.5076 161.901 99.8771 162.699 100.259Z" fill="url(#paint1_linear_6151_208153)"/>
<path fill-rule="evenodd" clip-rule="evenodd" d="M160.063 109.357C159.628 109.19 159.136 109.036 158.577 108.897C159.172 107.83 159.296 106.249 158.735 105.249C157.946 103.846 156.957 103.1 154.657 103.1C153.392 103.1 149.987 103.527 149.926 106.379C149.92 106.68 149.926 106.956 149.948 107.209L156.167 107.254C155.33 108.587 154.545 109.576 153.859 110.328C154.682 110.54 155.363 110.718 155.987 110.881C156.582 111.037 157.126 111.179 157.696 111.325C158.553 110.698 159.359 110.015 160.063 109.357Z" fill="url(#paint2_linear_6151_208153)"/>
<path d="M149.133 106.916C149.387 109.083 150.614 109.932 153.122 110.183C155.63 110.434 157.068 110.266 158.983 110.441C160.583 110.587 162.011 111.405 162.541 111.122C163.018 110.868 162.751 109.949 162.113 109.359C161.286 108.595 160.141 108.063 158.127 107.875C158.529 106.772 158.416 105.226 157.793 104.385C156.891 103.168 155.227 102.618 153.122 102.859C150.922 103.11 148.814 104.196 149.133 106.916Z" fill="url(#paint3_linear_6151_208153)"/>
<path d="M162.752 60.691H155.313C154.554 60.691 154.25 59.9308 154.25 59.6268C154.25 58.8666 155.009 58.5625 155.313 58.5625H162.752C163.36 58.5625 163.815 59.3227 163.815 59.6268C163.815 60.3869 163.36 60.691 162.752 60.691Z" fill="#4E6781"/>
<path d="M151.036 60.691H150.733C149.974 60.691 149.67 59.9308 149.67 59.6268C149.67 58.8666 150.429 58.5625 150.733 58.5625H151.036C151.796 58.5625 152.099 59.3227 152.099 59.6268C152.099 60.3869 151.644 60.691 151.036 60.691Z" fill="#4E6781"/>
<path d="M120.158 112.717L100.783 112.717" stroke="#2ABB7F" stroke-width="2.7679" stroke-linecap="round" stroke-linejoin="round"/>
<path d="M113.698 106.255L120.156 112.713L113.698 119.172" stroke="#2ABB7F" stroke-width="2.7679" stroke-linecap="round" stroke-linejoin="round"/>
<path d="M97.3862 93.3301L116.761 93.3301" stroke="#2ABB7F" stroke-width="2.7679" stroke-linecap="round" stroke-linejoin="round"/>
<path d="M103.831 86.8683L97.3726 93.3267L103.831 99.7852" stroke="#2ABB7F" stroke-width="2.7679" stroke-linecap="round" stroke-linejoin="round"/>
<rect x="25.1494" y="57.8516" width="64.4478" height="95.2288" rx="5.77144" fill="#2E2E30"/>
<mask id="mask0_6151_208153" style="mask-type:alpha" maskUnits="userSpaceOnUse" x="25" y="57" width="65" height="97">
<rect x="25.1494" y="57.8594" width="64.4478" height="95.2288" rx="5.77144" fill="#2E2E30"/>
</mask>
<g mask="url(#mask0_6151_208153)">
<path opacity="0.3" d="M102.02 124.353C100.654 133.497 101.997 146.06 97.6241 149.262C95.7684 150.621 88.2718 147.072 86.7115 146.355C70.1777 138.763 82.2819 134.719 84.2285 121.694C86.175 108.67 80.3724 95.8499 85.2854 96.5842C90.1984 97.3185 103.967 111.329 102.02 124.353Z" fill="url(#paint4_linear_6151_208153)"/>
<path opacity="0.1" d="M35.0776 121.085C34.8476 130.511 32.9502 142.274 29.0052 146.068C27.331 147.678 23.7521 144.636 22.2725 144.6C17.3063 144.478 16.7661 134.072 17.0937 120.646C17.4212 107.22 21.7126 96.4342 26.6787 96.5553C31.6449 96.6765 35.4052 107.659 35.0776 121.085Z" fill="url(#paint5_linear_6151_208153)"/>
<path opacity="0.3" d="M54.0067 63.4723C42.5144 64.315 29.5645 64.4119 21.7826 62.6691C19.6978 61.8145 24.4901 59.0115 24.4235 58.104C24.2002 55.0583 36.8286 53.643 53.198 52.4428C69.5673 51.2425 83.0184 52.7386 83.2418 55.7843C83.4651 58.8301 70.376 62.2721 54.0067 63.4723Z" fill="url(#paint6_linear_6151_208153)"/>
<path opacity="0.3" d="M21.2134 93.0085C21.5521 81.4903 17.3525 67.3458 19.8588 62.6651C19.859 62.6683 29.4781 63.6302 30.921 64.1111C33.9736 64.2009 32.7503 76.9274 32.2678 93.3336C31.7853 109.74 28.9196 122.967 25.867 122.877C22.8144 122.787 20.7309 109.415 21.2134 93.0085Z" fill="url(#paint7_linear_6151_208153)"/>
</g>
<rect x="28.9971" y="61.6953" width="56.7525" height="84.6478" rx="1.92381" fill="#101010"/>
<rect x="29.0452" y="61.7434" width="56.6563" height="84.5516" rx="1.87572" stroke="white" stroke-opacity="0.5" stroke-width="0.0961907"/>
<rect x="35" y="67" width="45" height="64" fill="#D2DFFE"/>
<path d="M57.1198 109.826C62.6688 109.826 66.4936 107.792 66.4936 100.031C66.4936 92.2665 62.6688 90.2363 57.1198 90.2363C51.5707 90.2363 47.7446 92.2665 47.7446 100.031C47.7446 107.792 51.5707 109.826 57.1198 109.826Z" fill="#3B7EFF"/>
<path d="M61.3145 96.7357L56.4033 91.791V98.3525L53.7033 95.5904L52.7214 96.5804L56.1109 100.004L52.7214 103.429L53.7028 104.419L56.4033 101.697V108.217L61.3135 103.272L58.0717 100.004L61.3145 96.7357ZM57.8366 94.9932L59.3522 96.5675L57.8366 98.1523V94.9932ZM59.3522 103.257L57.8366 104.841V101.682L59.3522 103.257Z" fill="white"/>
<path d="M68.0219 142.811C67.9625 142.811 67.9007 142.81 67.8365 142.808C67.7724 142.805 67.7094 142.803 67.6476 142.801V142.016C67.6832 142.021 67.7248 142.024 67.7724 142.024C67.8223 142.026 67.871 142.027 67.9185 142.027C68.1038 142.027 68.2512 141.99 68.3605 141.917C68.4698 141.843 68.5423 141.73 68.5779 141.578L68.6136 141.428L67.2341 137.504H68.3783L69.3157 140.89L69.0769 140.477H69.387L69.1589 140.89L70.0963 137.504H71.1942L69.8575 141.425C69.7435 141.769 69.6045 142.043 69.4405 142.245C69.2789 142.449 69.0829 142.594 68.8524 142.679C68.6219 142.767 68.345 142.811 68.0219 142.811Z" fill="white"/>
<path d="M64.9955 141.504C64.5987 141.504 64.2565 141.422 63.969 141.258C63.6838 141.092 63.464 140.857 63.3096 140.552C63.1551 140.248 63.0779 139.886 63.0779 139.465V139.462C63.0779 139.046 63.1539 138.685 63.306 138.378C63.4605 138.072 63.6779 137.834 63.9583 137.665C64.2411 137.496 64.5726 137.412 64.9528 137.412C65.3353 137.412 65.6656 137.494 65.9437 137.658C66.2217 137.822 66.4355 138.051 66.5852 138.346C66.735 138.641 66.8098 138.986 66.8098 139.383V139.708H63.5983V139.055H66.3108L65.8225 139.672V139.255C65.8225 139.02 65.7856 138.824 65.712 138.667C65.6407 138.51 65.5409 138.392 65.4126 138.314C65.2866 138.233 65.1393 138.193 64.9706 138.193C64.8042 138.193 64.6557 138.234 64.525 138.317C64.3967 138.398 64.2945 138.518 64.2185 138.677C64.1448 138.834 64.108 139.027 64.108 139.255V139.676C64.108 139.896 64.1448 140.085 64.2185 140.242C64.2922 140.399 64.3967 140.519 64.5322 140.602C64.6676 140.685 64.8292 140.727 65.0169 140.727C65.169 140.727 65.2985 140.704 65.4054 140.659C65.5124 140.614 65.5979 140.562 65.6621 140.502C65.7286 140.441 65.7738 140.385 65.7975 140.335L65.8082 140.314H66.7777L66.7706 140.349C66.7397 140.473 66.6839 140.602 66.6031 140.738C66.5223 140.871 66.4106 140.996 66.268 141.112C66.1278 141.228 65.952 141.323 65.7405 141.397C65.5314 141.468 65.2831 141.504 64.9955 141.504Z" fill="white"/>
<path d="M59.1499 141.425V136H60.1907V141.425H59.1499ZM61.62 141.425L60.4153 139.721L61.1923 139.097L62.8497 141.425H61.62ZM60.1194 140.185L60.0838 139.051H60.2549L61.5666 137.501H62.7464L61.1317 139.283L60.5757 139.7L60.1194 140.185Z" fill="white"/>
<path d="M56.4482 141.504C56.0513 141.504 55.7091 141.422 55.4216 141.258C55.1365 141.092 54.9167 140.857 54.7622 140.552C54.6077 140.248 54.5305 139.886 54.5305 139.465V139.462C54.5305 139.046 54.6066 138.685 54.7586 138.378C54.9131 138.072 55.1305 137.834 55.4109 137.665C55.6937 137.496 56.0252 137.412 56.4054 137.412C56.788 137.412 57.1183 137.494 57.3963 137.658C57.6743 137.822 57.8882 138.051 58.0379 138.346C58.1876 138.641 58.2624 138.986 58.2624 139.383V139.708H55.0509V139.055H57.7634L57.2751 139.672V139.255C57.2751 139.02 57.2383 138.824 57.1646 138.667C57.0933 138.51 56.9935 138.392 56.8652 138.314C56.7393 138.233 56.5919 138.193 56.4232 138.193C56.2569 138.193 56.1084 138.234 55.9777 138.317C55.8493 138.398 55.7472 138.518 55.6711 138.677C55.5975 138.834 55.5606 139.027 55.5606 139.255V139.676C55.5606 139.896 55.5975 140.085 55.6711 140.242C55.7448 140.399 55.8493 140.519 55.9848 140.602C56.1202 140.685 56.2818 140.727 56.4696 140.727C56.6216 140.727 56.7511 140.704 56.8581 140.659C56.965 140.614 57.0505 140.562 57.1147 140.502C57.1812 140.441 57.2264 140.385 57.2502 140.335L57.2608 140.314H58.2304L58.2232 140.349C58.1923 140.473 58.1365 140.602 58.0557 140.738C57.9749 140.871 57.8632 140.996 57.7207 141.112C57.5805 141.228 57.4046 141.323 57.1931 141.397C56.984 141.468 56.7357 141.504 56.4482 141.504Z" fill="white"/>
<path d="M50.1392 141.422V137.498H51.18V138.104H51.2441C51.3344 137.89 51.4746 137.721 51.6647 137.597C51.8548 137.474 52.0901 137.412 52.3705 137.412C52.8077 137.412 53.1404 137.54 53.3685 137.797C53.599 138.051 53.7143 138.414 53.7143 138.884V141.422H52.6734V139.119C52.6734 138.841 52.6152 138.631 52.4988 138.489C52.3824 138.346 52.2006 138.275 51.9534 138.275C51.7942 138.275 51.6564 138.312 51.54 138.385C51.4259 138.456 51.3368 138.557 51.2726 138.688C51.2109 138.819 51.18 138.973 51.18 139.152V141.422H50.1392Z" fill="white"/>
<path d="M46.7458 141.558C46.2373 141.558 45.7977 141.448 45.427 141.23C45.0563 141.009 44.7699 140.696 44.568 140.292C44.3684 139.888 44.2686 139.409 44.2686 138.856V138.849C44.2686 138.293 44.3695 137.814 44.5715 137.412C44.7759 137.008 45.0634 136.697 45.4341 136.478C45.8048 136.26 46.242 136.15 46.7458 136.15C47.252 136.15 47.6892 136.26 48.0575 136.478C48.4282 136.697 48.7145 137.008 48.9165 137.412C49.1185 137.816 49.2195 138.295 49.2195 138.849V138.856C49.2195 139.409 49.1185 139.888 48.9165 140.292C48.7169 140.696 48.4318 141.009 48.0611 141.23C47.6904 141.448 47.252 141.558 46.7458 141.558ZM46.7458 140.645C47.0238 140.645 47.2662 140.571 47.4729 140.424C47.6797 140.277 47.8389 140.069 47.9506 139.8C48.0646 139.532 48.1217 139.217 48.1217 138.856V138.849C48.1217 138.485 48.0646 138.17 47.9506 137.904C47.8389 137.636 47.6797 137.429 47.4729 137.284C47.2662 137.137 47.0238 137.063 46.7458 137.063C46.4678 137.063 46.2254 137.137 46.0187 137.284C45.8119 137.429 45.6515 137.636 45.5375 137.904C45.4234 138.17 45.3664 138.485 45.3664 138.849V138.856C45.3664 139.217 45.4222 139.532 45.5339 139.8C45.648 140.069 45.8072 140.277 46.0115 140.424C46.2183 140.571 46.463 140.645 46.7458 140.645Z" fill="white"/>
<defs>
<linearGradient id="paint0_linear_6151_208153" x1="153.597" y1="104.033" x2="168.33" y2="108.197" gradientUnits="userSpaceOnUse">
<stop stop-color="white"/>
<stop offset="1" stop-color="white"/>
</linearGradient>
<linearGradient id="paint1_linear_6151_208153" x1="165.841" y1="103.747" x2="155.18" y2="93.0949" gradientUnits="userSpaceOnUse">
<stop stop-color="#8697FF"/>
<stop offset="1" stop-color="#8697FF" stop-opacity="0"/>
</linearGradient>
<linearGradient id="paint2_linear_6151_208153" x1="160.359" y1="109.729" x2="150.133" y2="103.868" gradientUnits="userSpaceOnUse">
<stop stop-color="#8697FF"/>
<stop offset="1" stop-color="#8697FF" stop-opacity="0"/>
</linearGradient>
<linearGradient id="paint3_linear_6151_208153" x1="154.475" y1="103.924" x2="161.403" y2="112.697" gradientUnits="userSpaceOnUse">
<stop stop-color="white"/>
<stop offset="0.983895" stop-color="#D1D8FF"/>
</linearGradient>
<linearGradient id="paint4_linear_6151_208153" x1="96.0578" y1="99.7811" x2="91.2141" y2="151.925" gradientUnits="userSpaceOnUse">
<stop stop-color="white" stop-opacity="0"/>
<stop offset="1" stop-color="white"/>
</linearGradient>
<linearGradient id="paint5_linear_6151_208153" x1="26.1333" y1="96.9756" x2="27.8653" y2="150.35" gradientUnits="userSpaceOnUse">
<stop stop-color="white" stop-opacity="0"/>
<stop offset="1" stop-color="white"/>
</linearGradient>
<linearGradient id="paint6_linear_6151_208153" x1="82.9881" y1="55.4725" x2="19.1502" y2="67.4728" gradientUnits="userSpaceOnUse">
<stop stop-color="white" stop-opacity="0"/>
<stop offset="1" stop-color="white"/>
</linearGradient>
<linearGradient id="paint7_linear_6151_208153" x1="26.2115" y1="122.361" x2="20.8121" y2="57.6294" gradientUnits="userSpaceOnUse">
<stop stop-color="white" stop-opacity="0"/>
<stop offset="1" stop-color="white"/>
</linearGradient>
</defs>
</svg>
