<svg width="210" height="210" viewBox="0 0 210 210" fill="none" xmlns="http://www.w3.org/2000/svg">
<g clip-path="url(#clip0_6190_27803)">
<rect width="210" height="210" rx="105" fill="#F2F4F7"/>
<path d="M124.084 138.797C127.943 138.797 131.176 141.832 131.176 145.676V232.368C131.176 236.111 128.047 239.247 124.084 239.247H85.9157C82.0571 239.247 78.8242 236.212 78.8242 232.368V145.676C78.8242 141.933 81.9528 138.797 85.9157 138.797H124.084Z" fill="#5B7896"/>
<path d="M127.637 146.259V231.244C127.637 232.731 126.692 233.921 125.221 234.318C124.906 234.417 124.591 234.417 124.171 234.417H85.7238C85.5137 234.417 85.3036 234.417 85.1985 234.417C83.5178 234.12 82.3623 232.83 82.3623 231.244V146.556C82.3623 144.87 83.5178 143.581 85.1985 143.383C85.4086 143.383 85.5137 143.383 85.7238 143.383H91.3963C92.1316 143.383 92.6568 143.879 92.6568 144.573C92.6568 145.961 93.9173 147.151 95.3881 147.151H114.927C116.397 147.151 117.658 145.961 117.658 144.573C117.658 143.879 118.183 143.383 118.918 143.383H124.276L124.194 143.396C124.509 143.396 124.929 143.396 125.244 143.495C126.504 143.892 127.637 144.771 127.637 146.259Z" fill="#D2DFFE"/>
<rect x="88.9961" y="161" width="32.1556" height="32.1556" rx="16.0778" fill="#7084FF"/>
<path d="M115.562 178.408C116.394 176.543 112.281 171.333 108.352 169.163C105.875 167.481 103.294 167.712 102.772 168.451C101.625 170.071 106.57 171.444 109.877 173.046C109.166 173.356 108.496 173.912 108.102 174.623C106.869 173.272 104.163 172.109 100.988 173.046C98.8476 173.677 97.0692 175.166 96.3818 177.414C96.2148 177.34 96.0299 177.298 95.8353 177.298C95.0914 177.298 94.4883 177.903 94.4883 178.65C94.4883 179.396 95.0914 180.001 95.8353 180.001C95.9732 180.001 96.4044 179.909 96.4044 179.909L103.294 179.959C100.539 184.345 98.3613 184.986 98.3613 185.746C98.3613 186.505 100.445 186.3 101.227 186.016C104.972 184.66 108.995 180.435 109.685 179.218C112.584 179.581 115.02 179.624 115.562 178.408Z" fill="url(#paint0_linear_6190_27803)"/>
<path fill-rule="evenodd" clip-rule="evenodd" d="M109.876 173.044C110.029 172.984 110.004 172.757 109.962 172.578C109.865 172.168 108.196 170.514 106.628 169.774C104.494 168.765 102.922 168.816 102.688 169.28C103.121 170.176 105.139 171.016 107.247 171.894C108.146 172.269 109.061 172.65 109.876 173.044Z" fill="url(#paint1_linear_6190_27803)"/>
<path fill-rule="evenodd" clip-rule="evenodd" d="M107.166 182.052C106.734 181.886 106.246 181.734 105.691 181.596C106.283 180.534 106.407 178.962 105.848 177.968C105.064 176.573 104.08 175.831 101.793 175.831C100.535 175.831 97.1484 176.256 97.0883 179.092C97.082 179.39 97.0881 179.662 97.1095 179.913L103.295 179.958C102.461 181.285 101.68 182.27 100.996 183.018C101.817 183.229 102.494 183.407 103.116 183.569C103.706 183.724 104.246 183.865 104.811 184.01C105.664 183.386 106.465 182.707 107.166 182.052Z" fill="url(#paint2_linear_6190_27803)"/>
<path d="M96.2989 179.622C96.5515 181.777 97.7721 182.622 100.266 182.872C102.76 183.122 104.191 182.954 106.096 183.128C107.686 183.273 109.107 184.087 109.634 183.805C110.108 183.552 109.843 182.639 109.208 182.052C108.386 181.292 107.247 180.764 105.244 180.576C105.643 179.479 105.531 177.942 104.911 177.105C104.015 175.896 102.36 175.349 100.266 175.588C98.0783 175.837 95.9818 176.918 96.2989 179.622Z" fill="url(#paint3_linear_6190_27803)"/>
<path d="M109.844 145.453H102.445C101.691 145.453 101.389 144.697 101.389 144.394C101.389 143.638 102.144 143.336 102.445 143.336H109.844C110.448 143.336 110.901 144.092 110.901 144.394C110.901 145.15 110.448 145.453 109.844 145.453Z" fill="#4E6781"/>
<path d="M98.1928 145.453H97.8908C97.136 145.453 96.834 144.697 96.834 144.394C96.834 143.638 97.5888 143.336 97.8908 143.336H98.1928C98.9478 143.336 99.2497 144.092 99.2497 144.394C99.2497 145.15 98.7968 145.453 98.1928 145.453Z" fill="#4E6781"/>
<path d="M114.643 107.005L114.643 126.273" stroke="#2ABB7F" stroke-width="2.75267" stroke-linecap="round" stroke-linejoin="round"/>
<path d="M108.217 113.43L114.64 107.007L121.062 113.43" stroke="#2ABB7F" stroke-width="2.75267" stroke-linecap="round" stroke-linejoin="round"/>
<path d="M95.3594 129.652L95.3594 110.383" stroke="#2ABB7F" stroke-width="2.75267" stroke-linecap="round" stroke-linejoin="round"/>
<path d="M88.9335 123.242L95.3564 129.665L101.779 123.242" stroke="#2ABB7F" stroke-width="2.75267" stroke-linecap="round" stroke-linejoin="round"/>
<path d="M44.4375 37.2581C44.4375 33.6465 47.3653 30.7188 50.9769 30.7188H153.154C161.281 30.7188 167.868 37.3062 167.868 45.4323C167.868 53.5584 161.281 60.1459 153.154 60.1459H50.9769C47.3653 60.1459 44.4375 57.2181 44.4375 53.6065V37.2581Z" fill="#242225"/>
<path d="M99.0812 53.2216C103.864 53.2216 107.161 51.4684 107.161 44.7788C107.161 38.0859 103.864 36.3359 99.0812 36.3359C94.298 36.3359 91 38.0859 91 44.7788C91 51.4684 94.298 53.2216 99.0812 53.2216Z" fill="#3B7EFF"/>
<path d="M102.697 41.9419L98.4637 37.6797V43.3356L96.1364 40.9547L95.29 41.808L98.2117 44.7593L95.29 47.7114L96.136 48.5648L98.4637 46.2185V51.8389L102.696 47.5763L99.9019 44.7589L102.697 41.9419ZM99.6993 40.4399L101.006 41.7969L99.6993 43.163V40.4399ZM101.006 47.5627L99.6993 48.9288V46.2057L101.006 47.5627Z" fill="white"/>
<path d="M57.8146 97.8164C55.8443 94.7896 56.7008 90.7387 59.7276 88.7684L145.36 33.0252C152.17 28.592 161.285 30.519 165.718 37.3292C170.152 44.1395 168.225 53.2542 161.414 57.6874L75.7816 113.431C72.7548 115.401 68.7039 114.544 66.7335 111.518L57.8146 97.8164Z" fill="#BCBAC2"/>
<circle opacity="0.5" cx="59.1498" cy="45.4398" r="7.7655" stroke="#BCBAC2" stroke-width="0.817421"/>
<circle opacity="0.5" cx="153.153" cy="45.4398" r="7.7655" stroke="#242225" stroke-width="0.817421"/>
</g>
<defs>
<linearGradient id="paint0_linear_6190_27803" x1="100.738" y1="176.757" x2="115.39" y2="180.898" gradientUnits="userSpaceOnUse">
<stop stop-color="white"/>
<stop offset="1" stop-color="white"/>
</linearGradient>
<linearGradient id="paint1_linear_6190_27803" x1="112.915" y1="176.475" x2="102.313" y2="165.884" gradientUnits="userSpaceOnUse">
<stop stop-color="#8697FF"/>
<stop offset="1" stop-color="#8697FF" stop-opacity="0"/>
</linearGradient>
<linearGradient id="paint2_linear_6190_27803" x1="107.46" y1="182.422" x2="97.2926" y2="176.596" gradientUnits="userSpaceOnUse">
<stop stop-color="#8697FF"/>
<stop offset="1" stop-color="#8697FF" stop-opacity="0"/>
</linearGradient>
<linearGradient id="paint3_linear_6190_27803" x1="101.612" y1="176.647" x2="108.502" y2="185.372" gradientUnits="userSpaceOnUse">
<stop stop-color="white"/>
<stop offset="0.983895" stop-color="#D1D8FF"/>
</linearGradient>
<clipPath id="clip0_6190_27803">
<rect width="210" height="210" rx="105" fill="white"/>
</clipPath>
</defs>
</svg>
