<svg width="15" height="15" viewBox="0 0 15 15" fill="none" xmlns="http://www.w3.org/2000/svg">
<path d="M7.4121 7.78444C7.24702 7.78444 7.08207 7.75485 6.92504 7.69582L6.90688 7.68894L1.61748 5.12619C1.40713 5.03669 1.27016 4.8344 1.26636 4.60398C1.26255 4.37429 1.39189 4.16789 1.59814 4.07107L6.86264 1.25461L6.88183 1.2467C7.21874 1.10681 7.60532 1.10681 7.94223 1.2467L7.96142 1.25461L7.97973 1.26443L13.2259 4.07107C13.4322 4.16789 13.5615 4.37429 13.5577 4.60398C13.5539 4.8344 13.4169 5.03669 13.2066 5.12619L7.91733 7.68908L7.89916 7.69597C7.74345 7.7545 7.57846 7.78447 7.4121 7.78444V7.78444ZM7.23984 6.90627C7.35161 6.94436 7.4726 6.94436 7.58437 6.90627L12.3807 4.5823L7.60004 2.02483C7.47963 1.97956 7.34443 1.97956 7.22402 2.02483L2.4435 4.58244L7.23984 6.90627V6.90627Z" fill="currentColor"/>
<path d="M7.41212 10.7414C7.24703 10.7414 7.08209 10.7118 6.92506 10.6528L6.90338 10.6446L1.55845 7.9371C1.34912 7.83104 1.26548 7.57543 1.37139 7.36625C1.47744 7.15692 1.73306 7.07328 1.94224 7.17919L7.24293 9.86425C7.35279 9.90102 7.47144 9.90102 7.58131 9.86425L12.8819 7.17919C13.0912 7.07313 13.3468 7.15692 13.4527 7.36625C13.5588 7.57557 13.475 7.83119 13.2656 7.9371L7.92086 10.6446L7.89918 10.6528C7.74347 10.7114 7.57848 10.7414 7.41212 10.7414Z" fill="currentColor"/>
<path d="M7.41212 13.859C7.24703 13.859 7.08209 13.8294 6.92506 13.7704L6.90338 13.7622L1.55845 11.0547C1.34912 10.9487 1.26548 10.693 1.37139 10.4839C1.4773 10.2747 1.73306 10.1909 1.94224 10.2968L7.24278 12.9817C7.35265 13.0185 7.4713 13.0185 7.58116 12.9817L12.8819 10.2968C13.0912 10.1907 13.3468 10.2745 13.4527 10.4839C13.5588 10.6932 13.475 10.9488 13.2656 11.0547L7.92086 13.7622L7.89918 13.7704C7.74347 13.829 7.57848 13.859 7.41212 13.859V13.859Z" fill="currentColor"/>
</svg>
