<svg xmlns="http://www.w3.org/2000/svg" width="77" height="88" viewBox="0 0 77 88" fill="none">
  <g opacity="0.1">
    <g opacity="0.16">
      <path d="M70.5726 59.3727C74.3279 50.9552 55.7628 27.438 38.0268 17.6403C26.8472 10.0501 15.1981 11.0928 12.8388 14.4255C7.66105 21.7394 29.9837 27.9367 44.9126 35.1686C41.7035 36.5671 38.6793 39.0768 36.9009 42.2864C31.3353 36.1897 19.1195 30.9395 4.78553 35.1686C-4.87379 38.0185 -12.9015 44.7372 -16.0041 54.885C-16.758 54.5488 -17.5927 54.362 -18.4709 54.362C-21.829 54.362 -24.5513 57.0935 -24.5513 60.463C-24.5513 63.8324 -21.829 66.5639 -18.4709 66.5639C-17.8484 66.5639 -15.9022 66.145 -15.9022 66.145L15.1981 66.3711C2.7604 86.1687 -7.0689 89.0628 -7.0689 92.4926C-7.0689 95.9225 2.33598 94.9931 5.86731 93.7146C22.7721 87.5944 40.9288 68.5203 44.0444 63.0295C57.1283 64.6674 68.124 64.8612 70.5726 59.3727Z" fill="url(#paint0_linear_47149_100137)"/>
      <path d="M12.4667 18.1817C13.5212 16.0845 20.6187 15.852 30.2557 20.4063C37.3317 23.7503 44.8669 31.2165 45.3036 33.0674C45.4935 33.8725 45.6054 34.8973 44.9139 35.1709C44.913 35.1705 44.9119 35.1703 44.911 35.1699L44.9139 35.169C32.6031 29.2053 15.2661 23.9445 12.4667 18.1817Z" fill="url(#paint1_linear_47149_100137)"/>
      <path d="M8.42796 47.7397C18.7511 47.7397 23.1937 51.0913 26.7326 57.3882C29.2543 61.8752 28.6946 68.9723 26.0246 73.7661C28.5271 74.3882 30.7281 75.0746 32.677 75.8218C29.5149 78.7763 25.8954 81.8431 22.0461 84.6567C16.8062 83.3151 12.0441 82.0407 4.82249 80.1841C7.909 76.8054 11.4377 72.364 15.2024 66.3716L-12.7107 66.1675C-12.8075 65.036 -12.8368 63.8057 -12.8084 62.4634C-12.537 49.6591 2.75004 47.7398 8.42796 47.7397Z" fill="url(#paint2_linear_47149_100137)"/>
      <path d="M-16.3745 64.8534C-15.2341 74.5803 -9.72463 78.3923 1.53338 79.5204C12.7914 80.6485 19.2492 79.8917 27.8466 80.6766C35.0271 81.3321 41.4385 85.0035 43.817 83.7348C45.9576 82.5929 44.76 78.4675 41.8957 75.8208C38.1829 72.39 33.0444 70.0047 24.0027 69.1582C25.8046 64.208 25.2997 57.2672 22.5012 53.4909C18.4549 48.0308 10.9861 45.5622 1.53339 46.6408C-8.34256 47.7676 -17.8056 52.6462 -16.3745 64.8534Z" fill="url(#paint3_linear_47149_100137)"/>
    </g>
  </g>
  <defs>
    <linearGradient id="paint0_linear_47149_100137" x1="3.66081" y1="51.9185" x2="69.797" y2="70.6105" gradientUnits="userSpaceOnUse">
      <stop stop-color="#8697FF"/>
      <stop offset="1" stop-color="#ABB7FF"/>
    </linearGradient>
    <linearGradient id="paint1_linear_47149_100137" x1="58.632" y1="50.6575" x2="10.776" y2="2.84712" gradientUnits="userSpaceOnUse">
      <stop stop-color="#8697FF"/>
      <stop offset="1" stop-color="#5156D8" stop-opacity="0"/>
    </linearGradient>
    <linearGradient id="paint2_linear_47149_100137" x1="34.0039" y1="77.4919" x2="-11.8868" y2="51.1977" gradientUnits="userSpaceOnUse">
      <stop stop-color="#465EED"/>
      <stop offset="1" stop-color="#8697FF" stop-opacity="0"/>
    </linearGradient>
    <linearGradient id="paint3_linear_47149_100137" x1="7.60939" y1="51.4247" x2="38.7076" y2="90.8053" gradientUnits="userSpaceOnUse">
      <stop stop-color="#8898FF"/>
      <stop offset="0.983895" stop-color="#6277F1"/>
    </linearGradient>
  </defs>
</svg>
