<svg viewBox="0 0 39 38" fill="none">
  <path d="M18.6732 4.73148C19.0155 4.16278 19.8399 4.16278 20.1822 4.73148L23.8729 10.8642C23.9959 11.0685 24.1964 11.2143 24.4287 11.2681L31.4019 12.883C32.0485 13.0328 32.3033 13.8169 31.8682 14.3182L27.1761 19.7234C27.0197 19.9035 26.9431 20.1392 26.9638 20.3768L27.5826 27.5077C27.64 28.1689 26.973 28.6535 26.3618 28.3946L19.7712 25.6025C19.5517 25.5095 19.3038 25.5095 19.0842 25.6025L12.4936 28.3946C11.8824 28.6535 11.2154 28.1689 11.2728 27.5077L11.8917 20.3768C11.9123 20.1392 11.8357 19.9035 11.6794 19.7234L6.98726 14.3182C6.55216 13.8169 6.80694 13.0328 7.45356 12.883L14.4267 11.2681C14.659 11.2143 14.8595 11.0685 14.9825 10.8642L18.6732 4.73148Z" fill="currentColor" />
</svg>
