<svg xmlns="http://www.w3.org/2000/svg" width="24" height="24" viewBox="0 0 24 24" fill="none">
  <path d="M19.998 9.56752V2.85324C19.998 2.37985 19.6143 1.99609 19.1409 1.99609H4.99805C4.44576 1.99609 3.99805 2.44381 3.99805 2.99609V20.9961C3.99805 21.5484 4.44576 21.9961 4.99805 21.9961H10.1409" stroke="currentColor" stroke-width="1.5" stroke-linecap="round" stroke-linejoin="round"/>
  <path d="M12.498 11.1367H6.99805" stroke="currentColor" stroke-width="1.5" stroke-linecap="round"/>
  <path d="M16.998 6.86328H6.99805" stroke="currentColor" stroke-width="1.5" stroke-linecap="round"/>
  <path d="M18.0002 22.7992C20.6512 22.7992 22.8002 20.6502 22.8002 17.9992C22.8002 15.3483 20.6512 13.1992 18.0002 13.1992C15.3492 13.1992 13.2002 15.3483 13.2002 17.9992C13.2002 20.6502 15.3492 22.7992 18.0002 22.7992Z" stroke="currentColor" stroke-width="1.5"/>
  <path d="M17.1426 16.2852V18.8566H19.714" stroke="currentColor" stroke-width="1.5" stroke-linecap="round" stroke-linejoin="round"/>
</svg>
