<svg xmlns="http://www.w3.org/2000/svg" width="16" height="16" viewBox="0 0 16 16" fill="none">
  <path
    d="M14.4 7.99998C14.4 11.5346 11.5346 14.4 7.99998 14.4C4.46535 14.4 1.59998 11.5346 1.59998 7.99998C1.59998 4.46535 4.46535 1.59998 7.99998 1.59998C11.5346 1.59998 14.4 4.46535 14.4 7.99998Z"
    stroke="currentColor" stroke-linecap="round" stroke-linejoin="round" />
  <path fill-rule="evenodd" clip-rule="evenodd"
    d="M7.99996 3.66669C8.46019 3.66669 8.83329 4.03979 8.83329 4.50002C8.83329 4.96025 8.46019 5.33335 7.99996 5.33335C7.53973 5.33335 7.16663 4.96025 7.16663 4.50002C7.16663 4.03979 7.53973 3.66669 7.99996 3.66669Z"
    fill="currentColor" />
  <path d="M8.16667 11.3334V6.66669H7.83333H7.5" fill="currentColor" />
  <path d="M8.16667 11.3334V6.66669H7.83333H7.5" stroke="currentColor" stroke-linecap="round" stroke-linejoin="round" />
  <path d="M7 11.3333H9.33333H7Z" fill="currentColor" />
  <path d="M7 11.3333H9.33333" stroke="currentColor" stroke-linecap="round" stroke-linejoin="round" />
</svg>
