<svg width="16" height="17" viewBox="0 0 16 17" fill="none" xmlns="http://www.w3.org/2000/svg">
  <g clip-path="url(#clip0_1777_9630)">
  <path d="M12.3831 9.33833C12.3831 9.33833 13.0223 10.0678 12.2055 7.01958C11.913 5.92791 11.3034 4.9475 10.4536 4.20232C9.60393 3.45714 8.55233 2.98066 7.43182 2.83315C6.31131 2.68563 5.17222 2.87369 4.15859 3.37356C3.14496 3.87342 2.30233 4.66264 1.73724 5.6414C1.17215 6.62017 0.909985 7.74452 0.983903 8.87228C1.05782 10 1.4645 11.0806 2.15251 11.9772C2.84052 12.8738 3.77896 13.5463 4.84916 13.9096C5.91936 14.2729 7.07325 14.3106 8.16492 14.0181" stroke="#7084FF" stroke-width="1.25" stroke-miterlimit="10" stroke-linecap="round"/>
  <path d="M14.8281 6.3125L12.8078 9.81177L9.30855 7.79147" stroke="#7084FF" stroke-width="1.25" stroke-linecap="round" stroke-linejoin="round"/>
  </g>
  <defs>
  <clipPath id="clip0_1777_9630">
  <rect width="16" height="16" fill="white" transform="translate(0 0.5)"/>
  </clipPath>
  </defs>
  </svg>
