<svg xmlns="http://www.w3.org/2000/svg" width="24" height="24" viewBox="0 0 24 24" fill="none">
  <path d="M3 6.79688H6M21 6.79688H12M3 16.1969H14.3257M22.2 16.1969H20.4" stroke="currentColor" stroke-width="1.5" stroke-linecap="round"/>
  <path d="M9 9.59961C10.6569 9.59961 12 8.25646 12 6.59961C12 4.94275 10.6569 3.59961 9 3.59961C7.34315 3.59961 6 4.94275 6 6.59961C6 8.25646 7.34315 9.59961 9 9.59961Z" stroke="currentColor" stroke-width="1.5" stroke-linecap="round"/>
  <path d="M17.4004 19.1992C19.0572 19.1992 20.4004 17.8561 20.4004 16.1992C20.4004 14.5424 19.0572 13.1992 17.4004 13.1992C15.7435 13.1992 14.4004 14.5424 14.4004 16.1992C14.4004 17.8561 15.7435 19.1992 17.4004 19.1992Z" stroke="currentColor" stroke-width="1.5" stroke-linecap="round"/>
</svg>
