<svg xmlns="http://www.w3.org/2000/svg" width="20" height="20" viewBox="0 0 20 20" fill="none">
  <g clip-path="url(#clip0_50014_4449)">
    <path d="M10 0C4.47688 0 0 4.47688 0 10C0 15.5231 4.47688 20 10 20C15.5231 20 20 15.5231 20 10C20 4.47688 15.5231 0 10 0ZM17.2475 5.10687C18.1088 6.37396 18.6191 7.84664 18.7262 9.375H13.7231C13.6919 8.21313 13.5944 7.07812 13.4094 5.995C14.7128 5.81479 15.9974 5.51754 17.2475 5.10687ZM16.3869 4.02875C15.3663 4.35125 14.2894 4.5975 13.1656 4.76312C12.9164 3.65751 12.5754 2.5746 12.1462 1.52562C13.7699 1.93766 15.2416 2.80632 16.3869 4.02875ZM7.52938 9.375C7.56313 8.27437 7.6625 7.19187 7.85125 6.1525C8.55437 6.21375 9.27 6.25 10 6.25C10.73 6.25 11.4456 6.21375 12.1488 6.1525C12.3375 7.19187 12.4375 8.27437 12.4706 9.375H7.52938ZM12.4706 10.625C12.4375 11.7256 12.3375 12.8081 12.1488 13.8475C11.4456 13.7863 10.73 13.75 10 13.75C9.27 13.75 8.55437 13.7863 7.85125 13.8475C7.6625 12.8081 7.56313 11.725 7.52938 10.625H12.4706ZM9.39313 1.28062C9.595 1.26688 9.795 1.25 10 1.25C10.205 1.25 10.405 1.26688 10.6069 1.28062C11.1394 2.38812 11.5694 3.62125 11.8888 4.92875C11.2669 4.98313 10.6375 5.015 10 5.015C9.3625 5.015 8.73312 4.9825 8.11188 4.92813C8.43062 3.62125 8.86125 2.38812 9.39313 1.28062ZM7.85375 1.52562C7.42452 2.57457 7.08355 3.65749 6.83438 4.76312C5.74281 4.60434 4.66565 4.35877 3.61313 4.02875C4.75845 2.80632 6.23007 1.93766 7.85375 1.52562ZM2.7525 5.10687C4.00262 5.51754 5.28718 5.81479 6.59062 5.995C6.40562 7.07812 6.30875 8.21313 6.27688 9.375H1.27375C1.38124 7.8467 1.89144 6.37409 2.7525 5.10687ZM2.7525 14.8931C1.89144 13.6259 1.38124 12.1533 1.27375 10.625H6.27688C6.30875 11.7869 6.40562 12.9219 6.59062 14.005C5.28724 14.1855 4.0027 14.4828 2.7525 14.8931ZM3.61313 15.9713C4.66571 15.6415 5.74286 15.3959 6.83438 15.2369C7.09688 16.3819 7.4375 17.4688 7.85375 18.4744C6.23007 18.0623 4.75845 17.1937 3.61313 15.9713ZM10.6069 18.7194C10.405 18.7337 10.205 18.75 10 18.75C9.795 18.75 9.595 18.7337 9.39313 18.7194C8.86063 17.6119 8.43062 16.3794 8.11125 15.0712C8.7325 15.0169 9.3625 14.9844 9.99937 14.9844C10.6362 14.9844 11.2663 15.0169 11.8875 15.0712C11.5694 16.3794 11.1388 17.6119 10.6069 18.7194ZM12.1462 18.4744C12.5755 17.4254 12.9165 16.3425 13.1656 15.2369C14.2888 15.4031 15.3663 15.6488 16.3869 15.9713C15.2416 17.1937 13.7699 18.0623 12.1462 18.4744ZM17.2475 14.8931C15.9973 14.4828 14.7128 14.1855 13.4094 14.005C13.5944 12.9219 13.6919 11.7869 13.7231 10.625H18.7262C18.6188 12.1533 18.1086 13.6259 17.2475 14.8931Z" fill="currentColor"/>
  </g>
  <defs>
    <clipPath id="clip0_50014_4449">
      <rect width="20" height="20" fill="white"/>
    </clipPath>
  </defs>
</svg>