<svg width="159" height="117" viewBox="0 0 159 117" fill="none" xmlns="http://www.w3.org/2000/svg">
<path d="M74.834 116.928C107.123 116.928 133.298 90.7528 133.298 58.464C133.298 26.1752 107.123 0 74.834 0C42.5452 0 16.3699 26.1752 16.3699 58.464C16.3699 90.7528 42.5452 116.928 74.834 116.928Z" fill="url(#paint0_linear_19486_56713)" fill-opacity="0.12"/>
<rect y="51.3145" width="113.03" height="33.5194" rx="12.4723" fill="white"/>
<rect x="0.5" y="51.8145" width="112.03" height="32.5194" rx="11.9723" stroke="#7084FF" stroke-opacity="0.12"/>
<path d="M56.1253 60.6697H35.8578C34.5662 60.6697 33.5192 61.7167 33.5192 63.0082C33.5192 64.2998 34.5662 65.3468 35.8578 65.3468H56.1253C57.4169 65.3468 58.4639 64.2998 58.4639 63.0082C58.4639 61.7167 57.4169 60.6697 56.1253 60.6697Z" fill="#7084FF" fill-opacity="0.25"/>
<path d="M70.1567 70.8035H35.8578C34.5662 70.8035 33.5192 71.8505 33.5192 73.142C33.5192 74.4336 34.5662 75.4806 35.8578 75.4806H70.1567C71.4482 75.4806 72.4953 74.4336 72.4953 73.142C72.4953 71.8505 71.4482 70.8035 70.1567 70.8035Z" fill="#7084FF" fill-opacity="0.12"/>
<path d="M28.8421 68.074C28.8421 61.8315 23.7816 56.771 17.5391 56.771C11.2966 56.771 6.23602 61.8315 6.23602 68.074C6.23602 74.3165 11.2966 79.3771 17.5391 79.3771C23.7816 79.3771 28.8421 74.3165 28.8421 68.074Z" fill="#7084FF" fill-opacity="0.4"/>
<path d="M64.9925 31.0466H26.9909C24.5692 31.0466 22.6061 32.9661 22.6061 35.334C22.6061 37.7018 24.5692 39.6214 26.9909 39.6214H64.9925C67.4142 39.6214 69.3773 37.7018 69.3773 35.334C69.3773 32.9661 67.4142 31.0466 64.9925 31.0466Z" fill="#7084FF" fill-opacity="0.12"/>
<rect y="24.8105" width="113.03" height="21.0471" rx="10.5235" fill="white"/>
<path fill-rule="evenodd" clip-rule="evenodd" d="M12.2126 29.4871C9.34251 29.4871 7.01581 31.8138 7.01581 34.6839C7.01581 37.554 9.34251 39.8807 12.2126 39.8807C13.3647 39.8807 14.4292 39.5058 15.2908 38.8713L17.0424 40.6229C17.3468 40.9274 17.8404 40.9274 18.1448 40.6229C18.4493 40.3185 18.4493 39.8249 18.1448 39.5205L16.3943 37.77C17.0322 36.907 17.4094 35.8395 17.4094 34.6839C17.4094 31.8138 15.0827 29.4871 12.2126 29.4871ZM8.57485 34.6839C8.57485 32.6748 10.2035 31.0461 12.2126 31.0461C14.2217 31.0461 15.8504 32.6748 15.8504 34.6839C15.8504 36.6929 14.2217 38.3216 12.2126 38.3216C10.2035 38.3216 8.57485 36.6929 8.57485 34.6839Z" fill="#7084FF" fill-opacity="0.12"/>
<path d="M135.568 89.2297L133.807 90.8726L128.578 85.2662L126.721 83.2748L128.483 81.632L130.339 83.6233L135.568 89.2297Z" fill="#B7C2FF"/>
<path d="M130.339 83.6249C130.058 83.9092 129.769 84.1886 129.475 84.4632C129.181 84.7379 128.881 85.0077 128.578 85.2662L126.721 83.2748L128.488 81.632L130.339 83.6249ZM135.851 89.4947C135.57 89.7789 135.281 90.0584 134.987 90.333C134.693 90.6076 134.393 90.8774 134.089 91.136L132.233 89.1446L133.999 87.5017L135.851 89.4947Z" fill="#7084FF" fill-opacity="0.7"/>
<path fill-rule="evenodd" clip-rule="evenodd" d="M132.183 79.0503C135.543 74.3851 137.445 68.8289 137.65 63.0833C137.793 59.2656 137.178 55.4575 135.84 51.8792C134.501 48.301 132.467 45.0238 129.853 42.2373C118.917 30.5112 100.478 29.8705 88.7553 40.8065C83.1163 46.0673 79.7977 53.3525 79.5293 61.0598C79.261 68.7672 82.065 76.2655 87.3245 81.9058C91.2491 86.1072 96.3307 89.0513 101.928 90.3663C107.524 91.6813 113.385 91.3082 118.77 89.2941C124.155 87.2801 128.823 83.7154 132.183 79.0503ZM125.026 79.0803C129.429 74.8236 132.009 69.0241 132.221 62.9032C132.293 60.8847 132.108 58.8653 131.669 56.8937C131.06 54.1638 129.966 51.5654 128.439 49.2221C127.683 48.0613 126.828 46.9683 125.883 45.9556C121.594 41.4185 115.685 38.7619 109.445 38.5656C103.205 38.3692 97.14 40.649 92.5745 44.9074C88.009 49.1659 85.3132 55.0573 85.0754 61.296C84.8375 67.5347 87.077 73.6142 91.305 78.2079C92.6238 79.6238 94.1101 80.8738 95.731 81.9305C98.0763 83.456 100.676 84.5482 103.407 85.1553C104.842 85.4733 106.302 85.6588 107.771 85.7093C108.053 85.7189 108.334 85.7238 108.614 85.7238C114.738 85.7187 120.622 83.337 125.026 79.0803Z" fill="#7084FF" fill-opacity="0.25"/>
<path d="M132.221 62.9036C132.008 69.0244 129.429 74.824 125.025 79.0807C120.622 83.3374 114.738 85.7191 108.614 85.7241C108.334 85.7241 108.053 85.7193 107.77 85.7097C106.302 85.6591 104.841 85.4737 103.407 85.1556C100.676 84.5485 98.076 83.4563 95.7307 81.9309C94.1098 80.8742 92.6235 79.6241 91.3047 78.2083C87.0766 73.6146 84.8372 67.535 85.075 61.2963C85.3129 55.0576 88.0087 49.1662 92.5742 44.9078C97.1397 40.6493 103.204 38.3695 109.444 38.5659C115.684 38.7623 121.594 41.4189 125.882 45.956C126.828 46.9687 127.683 48.0616 128.439 49.2225C129.966 51.5658 131.06 54.1642 131.669 56.8941C132.107 58.8656 132.293 60.8851 132.221 62.9036Z" fill="url(#paint1_linear_19486_56713)" fill-opacity="0.6"/>
<path d="M100.06 47.8651C103.881 45.6964 108.407 45.1339 112.642 46.3011C116.878 47.4684 120.477 50.2699 122.648 54.0897" stroke="white" stroke-width="3.8976" stroke-linecap="round" stroke-linejoin="round"/>
<path d="M157.292 113.57C156.298 114.501 154.986 115.018 153.624 115.015H153.433C152.728 114.993 152.035 114.831 151.392 114.54C150.75 114.248 150.172 113.832 149.691 113.316L129.909 92.8644L137.778 85.5204L157.557 105.961C158.529 107.006 159.046 108.394 158.997 109.82C158.947 111.246 158.334 112.595 157.292 113.57Z" fill="#7084FF" fill-opacity="0.4"/>
<path d="M157.992 112.772C157.495 113.466 156.84 114.033 156.08 114.424C155.32 114.815 154.479 115.019 153.624 115.02H153.433C152.728 114.997 152.034 114.835 151.392 114.542C150.749 114.249 150.171 113.832 149.691 113.315L129.909 92.8629L131.184 91.6729L150.925 112.078C151.405 112.595 151.983 113.011 152.625 113.303C153.268 113.595 153.961 113.756 154.667 113.779H154.858C155.983 113.781 157.08 113.429 157.992 112.772Z" fill="white" fill-opacity="0.2"/>
<path d="M137.666 87.9426L156.294 106.57" stroke="white" stroke-width="1.57179" stroke-linecap="round" stroke-linejoin="round"/>
<defs>
<linearGradient id="paint0_linear_19486_56713" x1="74.834" y1="0" x2="74.834" y2="116.928" gradientUnits="userSpaceOnUse">
<stop stop-color="#7084FF"/>
<stop offset="1" stop-color="#7084FF" stop-opacity="0.2"/>
</linearGradient>
<linearGradient id="paint1_linear_19486_56713" x1="108.647" y1="38.5542" x2="108.647" y2="85.7241" gradientUnits="userSpaceOnUse">
<stop stop-color="#EFF2FF"/>
<stop offset="1" stop-color="white"/>
</linearGradient>
</defs>
</svg>
