<svg width="32" height="32" viewBox="0 0 32 32" fill="none" xmlns="http://www.w3.org/2000/svg">
<g clip-path="url(#clip0_19486_57246)">
<path d="M16 0C7.13846 0 0 7.13846 0 16C0 24.8615 7.13846 32 16 32C24.8615 32 32 24.8615 32 16C32 7.13846 24.8615 0 16 0ZM2.09231 16C2.09231 12.6769 3.32308 9.6 5.29231 7.13846C5.53846 7.38462 5.66154 7.75385 5.78462 8.12308C5.90769 8.98462 5.29231 11.8154 6.15385 12.4308C7.38462 13.4154 9.23077 12.5538 10.0923 13.1692C11.0769 13.7846 13.4154 16.4923 14.4 15.8769C16 14.8923 13.2923 11.2 13.1692 10.2154C13.0462 8.73846 13.9077 7.01538 15.6308 7.63077C16.7385 8 16.8615 9.47692 17.9692 9.47692C18.9538 9.47692 18.4615 6.4 18.4615 5.90769C18.4615 4.55385 19.8154 3.44615 21.2923 2.95385C26.3385 5.04615 29.9077 9.96923 29.9077 15.7538C29.9077 18.0923 29.2923 20.3077 28.3077 22.1538C28.1846 20.9231 27.9385 19.5692 27.0769 19.0769C25.6 18.2154 24 19.0769 22.7692 17.7231C22.2769 17.2308 22.8923 14.7692 21.4154 14.1538C18.5846 13.0462 16.2462 15.3846 15.5077 17.2308C15.2615 17.9692 15.1385 18.9538 15.2615 19.9385C15.2615 22.8923 13.7846 22.8923 14.2769 24.1231C14.8923 25.4769 17.2308 24.9846 16.7385 27.6923C16.6154 28.0615 16.4923 28.4308 16.1231 28.8C15.8769 28.9231 15.6308 29.1692 15.2615 29.2923C15.1385 29.2923 14.8923 29.4154 14.7692 29.4154C7.87692 29.2923 2.09231 23.2615 2.09231 16Z" fill="#C5C5CF"/>
</g>
<defs>
<clipPath id="clip0_19486_57246">
<rect width="32" height="32" fill="currentColor"/>
</clipPath>
</defs>
</svg>
