<svg xmlns="http://www.w3.org/2000/svg" width="12" height="12" viewBox="0 0 12 12" fill="none">
  <path d="M6.01723 10.1041C5.82772 10.0072 5.60321 10.0071 5.41361 10.1038L2.8847 11.3944C2.3969 11.6434 1.83461 11.2274 1.92991 10.6881L2.40327 8.00964C2.44211 7.78986 2.36784 7.56529 2.20561 7.41201L0.213215 5.52952C-0.190928 5.14767 0.0258042 4.4679 0.576387 4.39045L3.35996 3.99887C3.57445 3.96869 3.7607 3.8357 3.85887 3.64262L5.11962 1.163C5.36551 0.679388 6.05637 0.679388 6.30226 1.163L7.563 3.64262C7.66117 3.8357 7.84742 3.96869 8.06191 3.99887L10.8455 4.39045C11.3961 4.4679 11.6128 5.14767 11.2087 5.52952L9.21626 7.41201C9.05404 7.56529 8.97976 7.78986 9.0186 8.00964L9.49169 10.6866C9.58705 11.2262 9.02419 11.6422 8.53637 11.3926L6.01723 10.1041Z" fill="#FF9F0A"/>
</svg>