<svg xmlns="http://www.w3.org/2000/svg" width="24" height="24" viewBox="0 0 24 24" fill="none">
  <path d="M3.75 12C3.75 16.5564 7.44364 20.25 12 20.25C16.5564 20.25 20.25 16.5564 20.25 12C20.25 7.44364 16.5564 3.75 12 3.75C7.44364 3.75 3.75 7.44364 3.75 12ZM18.3214 12C18.3214 15.4912 15.4912 18.3214 12 18.3214C8.50879 18.3214 5.67857 15.4912 5.67857 12C5.67857 8.50879 8.50879 5.67857 12 5.67857C15.4912 5.67857 18.3214 8.50879 18.3214 12ZM15.199 15.7321C15.6033 15.3855 15.6501 14.7768 15.3036 14.3724L12.9643 11.6433V8.71429C12.9643 8.18173 12.5326 7.75 12 7.75C11.4674 7.75 11.0357 8.18173 11.0357 8.71429V12C11.0357 12.2302 11.1181 12.4528 11.2679 12.6276L13.8393 15.6276C14.1859 16.0319 14.7946 16.0787 15.199 15.7321Z" fill="#0A84FF" stroke="#0A84FF" stroke-width="0.5"/>
</svg>