<svg width="16" height="16" viewBox="0 0 16 16" fill="none" xmlns="http://www.w3.org/2000/svg">
<rect width="16" height="16" rx="8" fill="#6A7587"/>
<path d="M11.818 4.18508C10.8109 3.17789 9.18119 3.17789 8.17529 4.18508L7.02177 5.33871L7.62889 5.94588L8.7824 4.79225C9.42285 4.15175 10.5037 4.08389 11.2109 4.79225C11.9192 5.50062 11.8513 6.58044 11.2109 7.22094L10.0573 8.37457L10.6656 8.98294L11.8192 7.82931C12.8239 6.82212 12.8239 5.19227 11.818 4.18508ZM7.22176 11.2116C6.58132 11.8521 5.50042 11.92 4.79331 11.2116C4.08501 10.5032 4.15287 9.42343 4.79331 8.78293L5.94683 7.6293L5.33852 7.02093L4.18501 8.17456C3.17791 9.18175 3.17791 10.8116 4.18501 11.8176C5.1921 12.8236 6.82178 12.8248 7.82769 11.8176L8.9812 10.664L8.37409 10.0568L7.22176 11.2116ZM5.00521 4.39938C4.9683 4.36247 4.90759 4.36247 4.87069 4.39938L4.39928 4.87083C4.36238 4.90774 4.36238 4.96845 4.39928 5.00536L10.999 11.6057C11.0359 11.6426 11.0966 11.6426 11.1335 11.6057L11.6049 11.1342C11.6418 11.0973 11.6418 11.0366 11.6049 10.9997L5.00521 4.39938Z" fill="white"/>
</svg>
