<svg width="20" height="20" viewBox="0 0 20 20" fill="none" xmlns="http://www.w3.org/2000/svg">
<g clip-path="url(#clip0_38848_45937)">
<path d="M4.164 10.0689C4.164 9.41488 4.274 8.78787 4.469 8.19988L1.044 5.60938C0.355049 6.99487 -0.00235394 8.52156 1.1667e-05 10.0689C1.1667e-05 11.6714 0.375012 13.1829 1.042 14.5249L4.46601 11.9299C4.26601 11.3299 4.1645 10.7014 4.164 10.0689Z" fill="#FBBC05"/>
<path d="M10.1795 4.12045C11.5441 4.11771 12.8678 4.58609 13.927 5.44644L16.8885 2.51846C15.084 0.963457 12.7704 0.00195312 10.1795 0.00195312C6.15648 0.00195312 2.69848 2.28045 1.04297 5.60894L4.47047 8.19947C5.25947 5.82646 7.50947 4.11998 10.1805 4.11998" fill="#EA4335"/>
<path d="M10.2255 15.8821C7.54047 15.8821 5.27947 14.1866 4.48547 11.8281L1.04297 14.4031C2.70648 17.7111 6.18148 19.9746 10.2255 19.9746C12.72 19.9746 15.102 19.1076 16.8905 17.4816L13.622 15.0076C12.7005 15.5761 11.539 15.8826 10.2245 15.8826" fill="#34A853"/>
<path d="M19.9887 9.97135C19.9887 9.38033 19.8952 8.74334 19.7562 8.15234H10.2227V12.0173H15.7097C15.4362 13.3353 14.6897 14.3483 13.6207 15.0073L16.8887 17.4813C18.7672 15.7748 19.9887 13.2323 19.9887 9.97135Z" fill="#4285F4"/>
</g>
<defs>
<clipPath id="clip0_38848_45937">
<rect width="20" height="20" fill="white"/>
</clipPath>
</defs>
</svg>
