<svg width="24" height="24" viewBox="0 0 24 24" fill="none" xmlns="http://www.w3.org/2000/svg">
<path d="M19.5144 4.48718C17.5317 2.50427 14.3233 2.50427 12.3429 4.48718L10.0719 6.75839L11.2672 7.95376L13.5382 5.68255C14.799 4.42155 16.9271 4.28795 18.3192 5.68255C19.7136 7.07715 19.58 9.20304 18.3192 10.464L16.0482 12.7352L17.2458 13.933L19.5168 11.6618C21.4948 9.67884 21.4948 6.47009 19.5144 4.48718V4.48718ZM10.4657 18.3207C9.20478 19.5817 7.07675 19.7153 5.68463 18.3207C4.29017 16.9261 4.42376 14.8002 5.68463 13.5392L7.95562 11.268L6.75802 10.0703L4.48704 12.3415C2.50432 14.3244 2.50432 17.5331 4.48704 19.5137C6.46975 21.4943 9.67819 21.4966 11.6586 19.5137L13.9295 17.2425L12.7343 16.0471L10.4657 18.3207V18.3207ZM6.1018 4.90908C6.02915 4.83642 5.90962 4.83642 5.83697 4.90908L4.90889 5.83725C4.83624 5.90991 4.83624 6.02944 4.90889 6.1021L17.902 19.0965C17.9747 19.1691 18.0942 19.1691 18.1668 19.0965L19.0949 18.1683C19.1676 18.0957 19.1676 17.9761 19.0949 17.9035L6.1018 4.90908Z" fill="white"/>
</svg>
