<svg xmlns="http://www.w3.org/2000/svg" width="24" height="24" viewBox="0 0 24 24" fill="none">
  <path d="M12.5549 17.786C12.2051 17.6017 11.787 17.6015 11.4371 17.7855L8.23383 19.4696C7.35346 19.9325 6.3245 19.1849 6.49267 18.2046L7.10462 14.6372C7.17145 14.2476 7.04214 13.8501 6.75891 13.5744L4.1646 11.0491C3.45147 10.355 3.84459 9.1444 4.8295 9.00166L8.40749 8.48311C8.79852 8.42644 9.13659 8.18091 9.31146 7.82659L10.9133 4.58081C11.3535 3.68891 12.6253 3.68891 13.0655 4.58081L14.6674 7.82659C14.8422 8.18091 15.1803 8.42644 15.5713 8.48311L19.1493 9.00166C20.1342 9.1444 20.5274 10.355 19.8142 11.0491L17.2199 13.5744C16.9367 13.8501 16.8074 14.2476 16.8742 14.6372L17.4857 18.2018C17.6539 19.1826 16.6239 19.9302 15.7435 19.4663L12.5549 17.786Z" stroke="#9A9CA9" stroke-linecap="round" stroke-linejoin="round"/>
</svg>