<svg xmlns="http://www.w3.org/2000/svg" width="20" height="20" viewBox="0 0 20 20" fill="none">
  <path d="M16.262 3.73932C14.6098 2.08689 11.9361 2.08689 10.2858 3.73932L8.39327 5.63199L9.38931 6.62813L11.2818 4.73546C12.3325 3.68463 14.1059 3.57329 15.266 4.73546C16.428 5.89763 16.3167 7.6692 15.266 8.72003L13.3735 10.6127L14.3715 11.6108L16.264 9.71813C17.9123 8.0657 17.9123 5.39174 16.262 3.73932ZM8.72138 15.2672C7.67065 16.3181 5.8973 16.4294 4.7372 15.2672C3.57514 14.1051 3.68647 12.3335 4.7372 11.2827L6.62968 9.38999L5.63168 8.39189L3.7392 10.2846C2.08693 11.937 2.08693 14.6109 3.7392 16.2614C5.39146 17.9119 8.06516 17.9138 9.71547 16.2614L11.608 14.3687L10.6119 13.3726L8.72138 15.2672ZM5.08483 4.0909C5.02429 4.03035 4.92469 4.03035 4.86414 4.0909L4.09074 4.86437C4.0302 4.92492 4.0302 5.02454 4.09074 5.08509L14.9183 15.9137C14.9789 15.9743 15.0785 15.9743 15.139 15.9137L15.9124 15.1403C15.973 15.0797 15.973 14.9801 15.9124 14.9196L5.08483 4.0909Z" fill="currentColor"/>
</svg>
