<svg width="16" height="17" viewBox="0 0 16 17" fill="none" xmlns="http://www.w3.org/2000/svg">
<path d="M14.1666 8.49838C14.1666 10.045 13.5933 11.4717 12.6466 12.545C11.6999 13.6317 10.3799 14.385 8.88658 14.5917C8.59992 14.6384 8.30658 14.6584 7.99992 14.6584C7.69325 14.6584 7.40659 14.6384 7.11325 14.5917C5.61992 14.385 4.29992 13.6317 3.35325 12.545C2.40659 11.4717 1.83325 10.045 1.83325 8.49838C1.83325 6.95171 2.40659 5.52505 3.35325 4.45171C4.29992 3.36505 5.61992 2.61171 7.11325 2.40505C7.39992 2.35838 7.69325 2.33838 7.99992 2.33838C8.30658 2.33838 8.59325 2.35838 8.88658 2.40505C10.3799 2.61171 11.6999 3.36505 12.6466 4.45171C13.5933 5.52505 14.1666 6.95171 14.1666 8.49838Z" stroke="#6A7587" stroke-linecap="round" stroke-linejoin="round"/>
<path d="M7.77992 14.6009C7.35325 14.1542 5.33325 11.9475 5.33325 8.50088C5.33325 5.05421 7.35325 2.84755 7.77992 2.40088" stroke="#6A7587" stroke-linecap="round" stroke-linejoin="round"/>
<path d="M8.21875 14.6009C8.64542 14.1542 10.6654 11.9475 10.6654 8.50088C10.6654 5.05421 8.64542 2.84755 8.21875 2.40088" stroke="#6A7587" stroke-linecap="round" stroke-linejoin="round"/>
<path d="M1.83325 8.5H14.1666" stroke="#6A7587" stroke-linecap="round" stroke-linejoin="round"/>
</svg>
