<svg width="17" height="14" viewBox="0 0 17 14" fill="none" xmlns="http://www.w3.org/2000/svg">
<path fill-rule="evenodd" clip-rule="evenodd" d="M0.798828 3.26589C0.798828 1.84836 1.94796 0.699219 3.36549 0.699219H13.6322C15.0497 0.699219 16.1988 1.84835 16.1988 3.26589V3.90625H0.798828V3.26589ZM0.798828 5.44625H16.1988V11.2226C16.1988 12.6401 15.0497 13.7892 13.6322 13.7892H3.3655C1.94797 13.7892 0.798828 12.6401 0.798828 11.2226V5.44625ZM2.98094 7.88672C2.55568 7.88672 2.21094 8.23146 2.21094 8.65672C2.21094 9.08198 2.55568 9.42672 2.98094 9.42672H6.06094C6.4862 9.42672 6.83094 9.08198 6.83094 8.65672C6.83094 8.23146 6.4862 7.88672 6.06094 7.88672H2.98094Z" fill="currentColor"/>
</svg>
