<svg xmlns="http://www.w3.org/2000/svg" width="18" height="18" viewBox="0 0 18 18" fill="none">
  <path
    d="M3.9463 13.582C4.16428 13.582 4.37333 13.4954 4.52746 13.3413C4.68159 13.1872 4.76819 12.9781 4.76819 12.7601C4.76819 12.5422 4.68159 12.3331 4.52746 12.179C4.37333 12.0248 4.16428 11.9383 3.9463 11.9383C3.73553 11.9383 3.53339 11.8545 3.38435 11.7055C3.23532 11.5565 3.15159 11.3543 3.15159 11.1435V4.02052C3.15159 3.80975 3.23532 3.60761 3.38435 3.45857C3.53339 3.30954 3.73553 3.22581 3.9463 3.22581H11.0693C11.2801 3.22581 11.4822 3.30954 11.6313 3.45857C11.7803 3.60761 11.864 3.80975 11.864 4.02052C11.864 4.23849 11.9506 4.44755 12.1048 4.60168C12.2589 4.75581 12.4679 4.8424 12.6859 4.8424C12.9039 4.8424 13.113 4.75581 13.2671 4.60168C13.4212 4.44755 13.5078 4.23849 13.5078 4.02052C13.5064 3.37423 13.249 2.75483 12.792 2.29783C12.335 1.84084 11.7156 1.58347 11.0693 1.58203H3.9463C3.30001 1.58347 2.68061 1.84084 2.22361 2.29783C1.76662 2.75483 1.50925 3.37423 1.50781 4.02052V11.1435C1.50925 11.7898 1.76662 12.4092 2.22361 12.8662C2.68061 13.3232 3.30001 13.5806 3.9463 13.582Z"
    fill="#9A9CA9" />
  <path
    d="M7.67813 16.582H14.0879C14.4058 16.5824 14.7207 16.5203 15.0144 16.3991C15.3082 16.2779 15.5752 16.1001 15.7999 15.8758C16.0247 15.6515 16.203 15.3852 16.3244 15.0921C16.4459 14.799 16.5082 14.4849 16.5078 14.1677V7.74733C16.5083 7.43009 16.4461 7.11585 16.3247 6.82264C16.2033 6.52943 16.0251 6.263 15.8003 6.03862C15.5755 5.81425 15.3085 5.63634 15.0147 5.51509C14.7208 5.39384 14.4059 5.33163 14.0879 5.33203H7.67813C7.36024 5.33163 7.04538 5.3938 6.75161 5.51499C6.45783 5.63618 6.1909 5.814 5.96611 6.03826C5.74133 6.26253 5.5631 6.52884 5.44163 6.82193C5.32016 7.11503 5.25784 7.42915 5.25825 7.74631V14.1667C5.23271 15.5028 6.33897 16.582 7.67813 16.582ZM14.0879 6.87293C14.2031 6.87198 14.3174 6.89392 14.4241 6.93748C14.5307 6.98103 14.6276 7.04533 14.7091 7.12662C14.7905 7.20791 14.855 7.30457 14.8986 7.41096C14.9423 7.51736 14.9643 7.63136 14.9633 7.74631V14.1667C14.9643 14.2817 14.9423 14.3957 14.8986 14.5021C14.855 14.6085 14.7905 14.7051 14.7091 14.7864C14.6276 14.8677 14.5307 14.932 14.4241 14.9756C14.3174 15.0191 14.2031 15.0411 14.0879 15.0401H7.67813C7.56291 15.0411 7.44864 15.0191 7.342 14.9756C7.23536 14.932 7.13848 14.8677 7.057 14.7864C6.97552 14.7051 6.91108 14.6085 6.86742 14.5021C6.82376 14.3957 6.80177 14.2817 6.80272 14.1667V7.74631C6.80177 7.63136 6.82376 7.51736 6.86742 7.41096C6.91108 7.30457 6.97552 7.20791 7.057 7.12662C7.13848 7.04533 7.23536 6.98103 7.342 6.93748C7.44864 6.89392 7.56291 6.87198 7.67813 6.87293H14.0879Z"
    fill="#9A9CA9" />
</svg>