<svg width="48" height="48" viewBox="0 0 48 48" fill="none" xmlns="http://www.w3.org/2000/svg">
  <path
    d="M1.05372 17.0059C1.72605 8.48978 8.48978 1.72605 17.0059 1.05372C21.6614 0.686182 26.3386 0.686182 30.9941 1.05372C39.5102 1.72605 46.274 8.48978 46.9463 17.0059C47.3138 21.6614 47.3138 26.3386 46.9463 30.9941C46.274 39.5102 39.5102 46.274 30.9941 46.9463C26.3386 47.3138 21.6614 47.3138 17.0059 46.9463C8.48977 46.274 1.72605 39.5102 1.05372 30.9941C0.686182 26.3386 0.686182 21.6614 1.05372 17.0059Z"
    fill="currentColor" fill-opacity="0.96" stroke="currentColor" />
  <path
    d="M32.5347 26.8587C31.1065 26.8587 30.0703 25.8086 30.0703 24.4224C30.0703 23.0362 31.1065 22 32.5347 22C33.9769 22 34.999 23.0362 34.999 24.4224C34.999 25.8086 33.9769 26.8587 32.5347 26.8587Z"
    fill="white" />
  <path
    d="M24.0034 26.8587C22.5752 26.8587 21.5391 25.8086 21.5391 24.4224C21.5391 23.0362 22.5752 22 24.0034 22C25.4456 22 26.4678 23.0362 26.4678 24.4224C26.4678 25.8086 25.4456 26.8587 24.0034 26.8587Z"
    fill="white" />
  <path
    d="M15.4644 26.8587C14.0362 26.8587 13 25.8086 13 24.4224C13 23.0362 14.0362 22 15.4644 22C16.9066 22 17.9287 23.0362 17.9287 24.4224C17.9287 25.8086 16.9066 26.8587 15.4644 26.8587Z"
    fill="white" />
</svg>
