<svg width="25" height="24" viewBox="0 0 25 24" fill="none" xmlns="http://www.w3.org/2000/svg">
<path fill-rule="evenodd" clip-rule="evenodd" d="M8.09784 7.98343L11.8303 11.7095C12.2198 12.0958 12.8456 12.0958 13.2351 11.7095L16.9675 7.98343C17.5965 7.35444 17.1527 6.27846 16.2651 6.27846H14.525V2.53327C14.525 1.9841 14.078 1.53711 13.5288 1.53711H11.5365C10.9873 1.53711 10.5404 1.9841 10.5404 2.53327V6.27846H8.80026C7.91266 6.27846 7.46885 7.35444 8.09784 7.98343ZM23 19.9726V12.4982C23 11.1221 21.8857 10.0078 20.1552 10.0078H18.3289C17.6616 10.0078 17.0518 10.442 16.8921 11.087C16.4068 13.041 14.6476 14.4905 12.5403 14.4905C10.433 14.4905 8.6674 13.041 8.18529 11.087C8.02565 10.442 7.41262 10.0078 6.74852 10.0078H4.56462C3.18852 10.0078 2.07422 11.1221 2.07422 12.4982V19.9726C2.07422 21.3487 3.18852 22.463 4.56462 22.463H20.5096C21.8857 22.463 23 21.3487 23 19.9726Z" fill="#5267E8"/>
</svg>