<svg width="49" height="48" viewBox="0 0 49 48" fill="none" xmlns="http://www.w3.org/2000/svg">
  <path
    d="M1.55372 17.0059C2.22605 8.48978 8.98978 1.72605 17.5059 1.05372C22.1614 0.686182 26.8386 0.686182 31.4941 1.05372C40.0102 1.72605 46.774 8.48978 47.4463 17.0059C47.8138 21.6614 47.8138 26.3386 47.4463 30.9941C46.774 39.5102 40.0102 46.274 31.4941 46.9463C26.8386 47.3138 22.1614 47.3138 17.5059 46.9463C8.98977 46.274 2.22605 39.5102 1.55372 30.9941C1.18618 26.3386 1.18618 21.6614 1.55372 17.0059Z"
    fill="currentColor" fill-opacity="0.96" stroke="currentColor" />
  <path
    d="M14.2778 24.5421L17.1064 17.4546C17.698 15.9723 19.1329 15 20.7289 15H29.1071C30.7655 15 32.2425 16.0487 32.7893 17.6144L35.2335 24.6138C35.3779 25.0272 35.4516 25.4619 35.4516 25.8997V29.6261C35.4516 31.7801 33.7054 33.5264 31.5513 33.5264H17.9003C15.7462 33.5264 14 31.7802 14 29.6261V25.9878C14 25.4926 14.0943 25.002 14.2778 24.5421Z"
    fill="currentColor" stroke="white" stroke-width="2.43768" />
  <path
    d="M27.9817 27.8664V27.0967H31.6051C32.2372 27.0967 32.7496 26.5843 32.7496 25.9523C32.7496 25.3202 32.2372 24.8078 31.6051 24.8078H27.151L27.0169 24.8161C26.6225 24.8669 26.3214 25.1377 26.3214 25.4647L26.3203 26.4164H23.2206L23.2228 25.4647L23.2118 25.3576C23.147 25.0453 22.8042 24.8078 22.3921 24.8078L18.2935 24.8071C17.6611 24.807 17.1484 25.3196 17.1484 25.9519C17.1484 26.5842 17.661 27.0967 18.2933 27.0967H21.5625L21.5636 27.8664L21.5724 27.981C21.6427 28.3912 22.0878 28.7072 22.6251 28.7072H26.9213L27.0642 28.6979C27.5817 28.6425 27.9817 28.2923 27.9817 27.8664Z"
    fill="white" />
  <rect x="20.8242" y="19.8752" width="7.80058" height="1.95014" rx="0.975072" fill="white" />
</svg>
