<svg width="20" height="20" viewBox="0 0 20 20" fill="none" xmlns="http://www.w3.org/2000/svg">
<path d="M10.7949 10.8242C11.7537 10.8243 12.6658 11.028 13.4922 11.3916C13.3382 11.7161 13.25 12.0779 13.25 12.4609V12.7109H13C11.6193 12.7109 10.5 13.8302 10.5 15.2109C10.5 16.5917 11.6193 17.7109 13 17.7109H13.25V17.9609C13.25 18.5834 13.4791 19.1513 13.8555 19.5889H3.05957C1.92943 19.5889 1 18.6594 1 17.5293C1.00021 13.8378 3.9885 10.8244 7.70508 10.8242H10.7949ZM9.2373 0C12.0752 0 14.3857 2.31054 14.3857 5.14844C14.4108 8.01139 12.0754 10.2968 9.2627 10.2969C6.42481 10.2969 4.11428 7.98632 4.11426 5.14844C4.08914 2.31058 6.39947 7.53796e-05 9.2373 0Z" fill="currentColor"/>
<path d="M13 15.2109H18.5" stroke="currentColor" stroke-width="2" stroke-linecap="round"/>
<path d="M15.75 17.9609V12.4609" stroke="currentColor" stroke-width="2" stroke-linecap="round"/>
</svg>
