<svg width="61" height="60" viewBox="0 0 61 60" fill="none" xmlns="http://www.w3.org/2000/svg">
  <g clip-path="url(#clip0_118898_6451)">
    <rect x="0.93457" width="59.1304" height="59.1304" rx="29.5652" fill="#EEF1FF" />
    <g clip-path="url(#clip1_118898_6451)">
      <path
        d="M42.7281 10.3438C45.1536 10.3438 47.1858 12.013 47.1858 14.1273V61.8108C47.1858 63.8698 45.2192 65.5945 42.7281 65.5945H18.7351C16.3095 65.5945 14.2773 63.925 14.2773 61.8108V14.1273C14.2773 12.0686 16.244 10.3438 18.7351 10.3438H42.7281Z"
        fill="#3E495E" />
      <path
        d="M44.5749 14.449V60.6404C44.5749 61.4584 43.9806 62.113 43.0561 62.3311C42.858 62.3857 42.6599 62.3857 42.3958 62.3857H19.076C18.9439 62.3857 18.8118 62.3857 18.7458 62.3857C17.6893 62.2223 16.9629 61.513 16.9629 60.6404V14.6126C16.9629 13.6854 17.6893 12.9763 18.7458 12.8672C18.8778 12.8672 18.9439 12.8672 19.076 12.8672H22.1812C22.6434 12.8672 22.9735 13.1399 22.9735 13.5217C22.9735 14.2853 23.7659 14.9399 24.6904 14.9399H36.9725C37.897 14.9399 38.6893 14.2853 38.6893 13.5217C38.6893 13.1399 39.0195 12.8672 39.4817 12.8672H42.4619L42.4102 12.8745C42.6082 12.8745 42.8724 12.8745 43.0705 12.929C43.8629 13.1472 44.5749 13.6308 44.5749 14.449Z"
        fill="#F2F4F7" />
      <path
        d="M33.0572 14.0002H28.4065C27.932 14.0002 27.7422 13.5844 27.7422 13.4181C27.7422 13.0023 28.2167 12.8359 28.4065 12.8359H33.0572C33.4368 12.8359 33.7215 13.2518 33.7215 13.4181C33.7215 13.8339 33.4368 14.0002 33.0572 14.0002Z"
        fill="#192945" />
      <path
        d="M23.3229 28.4699H23.8513L23.7965 29.57H23.3807L23.3229 28.4699ZM23.3229 30.67L23.3778 29.57H23.7965L23.8513 30.67H23.3229ZM22.5203 29.2264L22.783 28.8135L23.6925 29.4054L23.4817 29.7345L22.5203 29.2264ZM24.654 29.2235L23.6925 29.7317L23.4817 29.4054L24.3883 28.8135L24.654 29.2235ZM24.654 29.9164L24.3883 30.3264L23.4817 29.7345L23.6925 29.4054L24.654 29.9164ZM22.5203 29.9164L23.4817 29.4054L23.6925 29.7345L22.783 30.3264L22.5203 29.9164ZM26.1582 28.4699H26.6866L26.6317 29.57H26.2159L26.1582 28.4699ZM26.1582 30.67L26.2131 29.57H26.6317L26.6866 30.67H26.1582ZM25.3556 29.2264L25.6183 28.8135L26.5278 29.4054L26.317 29.7345L25.3556 29.2264ZM27.4892 29.2235L26.5278 29.7317L26.317 29.4054L27.2236 28.8135L27.4892 29.2235ZM27.4892 29.9164L27.2236 30.3264L26.317 29.7345L26.5278 29.4054L27.4892 29.9164ZM25.3556 29.9164L26.317 29.4054L26.5278 29.7345L25.6183 30.3264L25.3556 29.9164ZM28.9935 28.4699H29.5218L29.467 29.57H29.0512L28.9935 28.4699ZM28.9935 30.67L29.0483 29.57H29.467L29.5218 30.67H28.9935ZM28.1908 29.2264L28.4535 28.8135L29.363 29.4054L29.1523 29.7345L28.1908 29.2264ZM30.3245 29.2235L29.363 29.7317L29.1523 29.4054L30.0588 28.8135L30.3245 29.2235ZM30.3245 29.9164L30.0588 30.3264L29.1523 29.7345L29.363 29.4054L30.3245 29.9164ZM28.1908 29.9164L29.1523 29.4054L29.363 29.7345L28.4535 30.3264L28.1908 29.9164ZM31.8287 28.4699H32.3571L32.3022 29.57H31.8865L31.8287 28.4699ZM31.8287 30.67L31.8836 29.57H32.3022L32.3571 30.67H31.8287ZM31.0261 29.2264L31.2888 28.8135L32.1983 29.4054L31.9875 29.7345L31.0261 29.2264ZM33.1597 29.2235L32.1983 29.7317L31.9875 29.4054L32.8941 28.8135L33.1597 29.2235ZM33.1597 29.9164L32.8941 30.3264L31.9875 29.7345L32.1983 29.4054L33.1597 29.9164ZM31.0261 29.9164L31.9875 29.4054L32.1983 29.7345L31.2888 30.3264L31.0261 29.9164ZM34.664 28.4699H35.1923L35.1375 29.57H34.7217L34.664 28.4699ZM34.664 30.67L34.7188 29.57H35.1375L35.1923 30.67H34.664ZM33.8613 29.2264L34.1241 28.8135L35.0335 29.4054L34.8228 29.7345L33.8613 29.2264ZM35.995 29.2235L35.0335 29.7317L34.8228 29.4054L35.7294 28.8135L35.995 29.2235ZM35.995 29.9164L35.7294 30.3264L34.8228 29.7345L35.0335 29.4054L35.995 29.9164ZM33.8613 29.9164L34.8228 29.4054L35.0335 29.7345L34.1241 30.3264L33.8613 29.9164ZM37.4992 28.4699H38.0276L37.9727 29.57H37.557L37.4992 28.4699ZM37.4992 30.67L37.5541 29.57H37.9727L38.0276 30.67H37.4992ZM36.6966 29.2264L36.9593 28.8135L37.8688 29.4054L37.658 29.7345L36.6966 29.2264ZM38.8302 29.2235L37.8688 29.7317L37.658 29.4054L38.5646 28.8135L38.8302 29.2235ZM38.8302 29.9164L38.5646 30.3264L37.658 29.7345L37.8688 29.4054L38.8302 29.9164ZM36.6966 29.9164L37.658 29.4054L37.8688 29.7345L36.9593 30.3264L36.6966 29.9164Z"
        fill="#192945" />
      <rect x="19.4131" y="35.4766" width="22.1739" height="1.47826" rx="0.73913" fill="#BCC6FF" />
      <rect x="19.4131" y="35.4766" width="16.2609" height="1.47826" rx="0.73913" fill="#7084FF" />
    </g>
  </g>
  <defs>
    <clipPath id="clip0_118898_6451">
      <rect x="0.93457" width="59.1304" height="59.1304" rx="29.5652" fill="white" />
    </clipPath>
    <clipPath id="clip1_118898_6451">
      <rect width="41.4375" height="55.25" fill="white" transform="translate(10.0127 10.3438)" />
    </clipPath>
  </defs>
</svg>