<svg xmlns="http://www.w3.org/2000/svg" width="92" height="79" viewBox="0 0 92 79" fill="none">
  <path d="M90.9257 45.2025C94.5011 37.1883 76.8255 14.7978 59.9392 5.46951C49.2953 -1.75702 38.2043 -0.764211 35.958 2.40878C31.0284 9.37222 52.2815 15.2727 66.4952 22.1581C63.4398 23.4896 60.5605 25.879 58.8673 28.9348C53.5683 23.1302 41.9378 18.1316 28.2906 22.1581C19.0941 24.8714 11.451 31.2682 8.49704 40.9298C7.77926 40.6097 6.98456 40.4319 6.14846 40.4319C2.95124 40.4319 0.359375 43.0325 0.359375 46.2405C0.359375 49.4485 2.95124 52.0491 6.14846 52.0491C6.74109 52.0491 8.59403 51.6503 8.59403 51.6503L38.2043 51.8656C26.3625 70.7147 17.0041 73.4701 17.0041 76.7356C17.0041 80.0011 25.9584 79.1163 29.3206 77.899C45.4155 72.0721 62.7022 53.9119 65.6686 48.6841C78.1256 50.2436 88.5945 50.428 90.9257 45.2025Z" fill="url(#paint0_linear_1152_25239)"/>
  <path fill-rule="evenodd" clip-rule="evenodd" d="M66.492 22.1543C66.4928 22.1547 66.4937 22.155 66.4945 22.1554C67.1533 21.895 67.0467 20.9187 66.8658 20.152C66.45 18.3898 59.2759 11.2816 52.5389 8.09778C43.3597 3.75986 36.6003 3.98306 35.6006 5.98209C37.4678 9.82857 46.1387 13.4398 55.1948 17.2114C59.0564 18.8196 62.988 20.4571 66.492 22.1543Z" fill="url(#paint1_linear_1152_25239)"/>
  <path fill-rule="evenodd" clip-rule="evenodd" d="M54.844 60.8672C52.9883 60.1558 50.8922 59.5031 48.5094 58.9108C51.0516 54.3466 51.5851 47.5898 49.1842 43.3177C45.8147 37.3223 41.5851 34.1312 31.7564 34.1312C26.3506 34.1312 11.7958 35.9582 11.5374 48.1491C11.5104 49.4275 11.5367 50.5992 11.6289 51.6768L38.2045 51.87C34.621 57.574 31.2649 61.8043 28.3267 65.0208C31.8558 65.9281 34.7678 66.6898 37.4411 67.3891C39.9755 68.052 42.2955 68.6588 44.7232 69.2804C48.3881 66.6014 51.8334 63.6802 54.844 60.8672Z" fill="url(#paint2_linear_1152_25239)"/>
  <path d="M8.13783 50.4222C9.22358 59.6831 14.4691 63.3124 25.1877 64.3865C35.9063 65.4605 42.0547 64.74 50.2402 65.4873C57.0767 66.1114 63.1809 69.6069 65.4454 68.3989C67.4835 67.3118 66.3433 63.3841 63.6162 60.8642C60.0813 57.5978 55.1889 55.3267 46.5805 54.5208C48.2961 49.8077 47.8153 43.1994 45.1509 39.6041C41.2985 34.4056 34.1875 32.0553 25.1877 33.0822C15.7849 34.155 6.77523 38.7999 8.13783 50.4222Z" fill="url(#paint3_linear_1152_25239)"/>
  <defs>
    <linearGradient id="paint0_linear_1152_25239" x1="27.2198" y1="38.1055" x2="90.1873" y2="55.9019" gradientUnits="userSpaceOnUse">
      <stop stop-color="#FFFFFF"/>
      <stop offset="1" stop-color="#FFFFFF"/>
    </linearGradient>
    <linearGradient id="paint1_linear_1152_25239" x1="79.5564" y1="36.9004" x2="33.992" y2="-8.62174" gradientUnits="userSpaceOnUse">
      <stop stop-color="#8697FF"/>
      <stop offset="1" stop-color="#8697FF" stop-opacity="0"/>
    </linearGradient>
    <linearGradient id="paint2_linear_1152_25239" x1="56.1073" y1="62.4587" x2="12.4143" y2="37.424" gradientUnits="userSpaceOnUse">
      <stop stop-color="#8697FF"/>
      <stop offset="1" stop-color="#8697FF" stop-opacity="0"/>
    </linearGradient>
    <linearGradient id="paint3_linear_1152_25239" x1="30.9726" y1="37.6369" x2="60.5808" y2="75.1308" gradientUnits="userSpaceOnUse">
      <stop stop-color="#FFFFFF"/>
      <stop offset="0.983895" stop-color="#D1D8FF"/>
    </linearGradient>
  </defs>
</svg>
