<svg width="83" height="72" viewBox="0 0 83 72" fill="none" xmlns="http://www.w3.org/2000/svg">
<path d="M82.2063 41.1624C85.4438 33.9055 69.4385 13.6309 54.148 5.18411C44.5098 -1.35954 34.4669 -0.46055 32.4329 2.4126C27.9691 8.71802 47.2139 14.0609 60.0844 20.2956C57.3177 21.5013 54.7105 23.665 53.1774 26.432C48.3791 21.1759 37.8476 16.6497 25.4901 20.2956C17.1626 22.7526 10.2418 28.5449 7.56692 37.2935C6.91697 37.0037 6.19737 36.8426 5.44028 36.8426C2.54518 36.8426 0.198242 39.1975 0.198242 42.1024C0.198242 45.0072 2.54518 47.3621 5.44028 47.3621C5.9769 47.3621 7.65475 47.0009 7.65475 47.0009L34.4669 47.1959C23.7442 64.2638 15.2701 66.7588 15.2701 69.7158C15.2701 72.6727 23.3783 71.8715 26.4227 70.7692C40.9967 65.4929 56.6498 49.0488 59.3359 44.3151C70.6157 45.7271 80.0954 45.8941 82.2063 41.1624Z" fill="url(#paint0_linear_16385_60864)"/>
<path fill-rule="evenodd" clip-rule="evenodd" d="M60.0819 20.2966C60.0823 20.2968 60.0828 20.297 60.0832 20.2972C60.6797 20.0614 60.5832 19.1773 60.4194 18.4831C60.0429 16.8874 53.5467 10.4509 47.4463 7.56794C39.1354 3.64032 33.015 3.84201 32.1089 5.65166C33.8008 9.13423 41.6515 12.4039 49.851 15.8187C53.3487 17.2754 56.9099 18.7586 60.0835 20.2959C60.083 20.2962 60.0825 20.2964 60.0819 20.2966Z" fill="url(#paint1_linear_16385_60864)"/>
<path fill-rule="evenodd" clip-rule="evenodd" d="M49.5371 55.3422C47.8561 54.6975 45.9572 54.1062 43.7984 53.5696C46.1004 49.4367 46.5834 43.3184 44.4094 39.45C41.3584 34.0212 37.5284 31.1316 28.6285 31.1316C23.7335 31.1316 10.5542 32.7859 10.3202 43.8249C10.2956 44.9832 10.3196 46.0449 10.4032 47.0212L34.469 47.1961C31.2246 52.3604 28.1861 56.1905 25.5258 59.103C28.72 59.9242 31.356 60.6137 33.776 61.2467C36.0721 61.8472 38.1738 62.397 40.3734 62.9601C43.6917 60.5343 46.8112 57.8893 49.5371 55.3422Z" fill="url(#paint2_linear_16385_60864)"/>
<path d="M7.24661 45.887C8.22976 54.2727 12.9796 57.5591 22.6853 58.5317C32.391 59.5042 37.9584 58.8518 45.3704 59.5284C51.5609 60.0935 57.0883 63.2588 59.1388 62.165C60.9843 61.1805 59.9518 57.624 57.4825 55.3422C54.2816 52.3845 49.8515 50.328 42.0566 49.5983C43.61 45.3306 43.1747 39.3467 40.7621 36.0911C37.2737 31.3839 30.8347 29.2557 22.6853 30.1855C14.1711 31.157 6.01277 35.3629 7.24661 45.887Z" fill="url(#paint3_linear_16385_60864)"/>
<defs>
<linearGradient id="paint0_linear_16385_60864" x1="24.5204" y1="34.7361" x2="81.5377" y2="50.8507" gradientUnits="userSpaceOnUse">
<stop stop-color="#8697FF"/>
<stop offset="1" stop-color="#ABB7FF"/>
</linearGradient>
<linearGradient id="paint1_linear_16385_60864" x1="71.9106" y1="33.6488" x2="30.6519" y2="-7.5712" gradientUnits="userSpaceOnUse">
<stop stop-color="#8697FF"/>
<stop offset="1" stop-color="#5156D8" stop-opacity="0"/>
</linearGradient>
<linearGradient id="paint2_linear_16385_60864" x1="50.6812" y1="56.7829" x2="11.1151" y2="34.1118" gradientUnits="userSpaceOnUse">
<stop stop-color="#465EED"/>
<stop offset="1" stop-color="#8697FF" stop-opacity="0"/>
</linearGradient>
<linearGradient id="paint3_linear_16385_60864" x1="27.9235" y1="34.3098" x2="54.7339" y2="68.2606" gradientUnits="userSpaceOnUse">
<stop stop-color="#8898FF"/>
<stop offset="0.983895" stop-color="#6277F1"/>
</linearGradient>
</defs>
</svg>
