<svg width="22" height="22" viewBox="0 0 22 22" fill="none" xmlns="http://www.w3.org/2000/svg">
<path d="M11 1.09961C16.4674 1.09982 20.8994 5.53256 20.8994 11C20.8994 16.4675 16.4674 20.9002 11 20.9004C7.758 20.9004 4.87909 19.3421 3.07324 16.9336C3.42899 17.0082 3.81414 16.9062 4.08691 16.627L2.5127 15.0908C2.37034 15.2368 2.27652 15.412 2.23145 15.5967C1.50976 14.2229 1.09961 12.6595 1.09961 11C1.09966 5.53243 5.53241 1.09961 11 1.09961ZM12.0996 6.05078C11.4921 6.05078 11 6.54288 11 7.15039C11.0003 7.75768 11.4923 8.25 12.0996 8.25H14.0771L10.3545 12.8193L7.17676 11.3594C6.80711 11.1895 6.37848 11.2387 6.05957 11.4766L5.92969 11.5908L2.5127 15.0908L3.2998 15.8584L4.08691 16.627L6.96191 13.6816L10.21 15.1748C10.6655 15.3841 11.2057 15.2587 11.5225 14.8701L15.3994 10.1094V11.5508C15.3999 12.1579 15.8928 12.6504 16.5 12.6504C17.107 12.6502 17.5991 12.1578 17.5996 11.5508V7.15039C17.5996 6.54301 17.1073 6.05099 16.5 6.05078H12.0996Z" fill="currentColor"/>
</svg>
