<svg width="22" height="22" viewBox="0 0 22 22" fill="none" xmlns="http://www.w3.org/2000/svg">
<path d="M11 1.09961C16.4674 1.09982 20.8994 5.53256 20.8994 11C20.8994 16.4675 16.4674 20.9002 11 20.9004C5.53238 20.9004 1.09961 16.4676 1.09961 11C1.09966 5.53243 5.53241 1.09961 11 1.09961ZM11 5.5C10.3928 5.50021 9.9006 5.99241 9.90039 6.59961V12.0996C9.90039 12.6691 10.3331 13.1379 10.8877 13.1943C10.9246 13.1981 10.9621 13.2002 11 13.2002H15.4004C16.0079 13.2002 16.5 12.7071 16.5 12.0996C16.4998 11.4923 16.0078 11 15.4004 11H12.1006V6.59961C12.1004 5.99228 11.6074 5.5 11 5.5Z" fill="currentColor"/>
</svg>
