<svg width="22" height="22" viewBox="0 0 22 22" fill="none" xmlns="http://www.w3.org/2000/svg">
<path d="M11 1.09961C16.4674 1.09982 20.8994 5.53256 20.8994 11C20.8994 16.4675 16.4674 20.9002 11 20.9004C5.53238 20.9004 1.09961 16.4676 1.09961 11C1.09966 5.53243 5.53241 1.09961 11 1.09961ZM11.8232 3.85059C11.6312 3.85065 11.472 3.9089 11.3457 4.02637C11.2249 4.13882 11.1584 4.26703 11.1475 4.41016L11.0576 5.26074C10.4205 5.29141 9.85468 5.40714 9.36035 5.60645C8.86597 5.80069 8.448 6.05072 8.10742 6.35742C7.77236 6.66411 7.51659 7.00922 7.34082 7.39258C7.16511 7.77587 7.07716 8.16951 7.07715 8.57324C7.07715 9.1202 7.17395 9.57555 7.36621 9.93848C7.56386 10.3011 7.81901 10.5999 8.13184 10.835C8.44482 11.07 8.79669 11.2565 9.18652 11.3945C9.58188 11.5325 9.97769 11.6527 10.373 11.7549L10.0684 14.6465C9.82128 14.5852 9.59905 14.508 9.40137 14.416C9.20911 14.3189 9.03003 14.2265 8.86523 14.1396C8.7062 14.0478 8.55803 13.9714 8.4209 13.9102C8.28357 13.8437 8.14844 13.8105 8.0166 13.8105C7.89035 13.8106 7.76958 13.841 7.6543 13.9023C7.54445 13.9586 7.45654 14.0303 7.39062 14.1172L6.59961 15.1826C6.99511 15.5251 7.47853 15.8191 8.0498 16.0645C8.6265 16.3047 9.23069 16.4732 9.8623 16.5703L9.69727 18.1504H10.6367C10.8289 18.1504 10.9856 18.0911 11.1064 17.9736C11.2326 17.8613 11.3014 17.7338 11.3125 17.5908L11.4111 16.6396C12.0483 16.5936 12.615 16.4681 13.1094 16.2637C13.6035 16.0541 14.0209 15.786 14.3613 15.459C14.7018 15.1268 14.96 14.7484 15.1357 14.3242C15.3115 13.8948 15.3994 13.4368 15.3994 12.9512C15.3994 12.6242 15.3554 12.3354 15.2676 12.085C15.1797 11.8346 15.0566 11.6121 14.8975 11.418C14.7437 11.2237 14.559 11.0552 14.3447 10.9121C14.136 10.769 13.9083 10.6435 13.6611 10.5361C13.4196 10.4237 13.1669 10.3269 12.9033 10.2451C12.6397 10.1582 12.3759 10.0784 12.1123 10.0068L12.4004 7.28516C12.5706 7.33113 12.7297 7.38499 12.8779 7.44629C13.0317 7.50252 13.1748 7.55901 13.3066 7.61523C13.4383 7.6663 13.5592 7.71207 13.6689 7.75293C13.7843 7.7887 13.8834 7.80663 13.9658 7.80664C14.0976 7.80664 14.2104 7.7788 14.3037 7.72266C14.4026 7.66134 14.4984 7.5662 14.5918 7.43848L15.2188 6.58789C14.9222 6.32724 14.5592 6.08155 14.1309 5.85156C13.7079 5.62154 13.1997 5.45477 12.6064 5.35254L12.7627 3.85059H11.8232ZM11.8809 12.1689C12.2103 12.2865 12.4741 12.4327 12.6719 12.6064C12.875 12.775 12.9774 13.0075 12.9775 13.3037C12.9775 14.0909 12.5236 14.5544 11.6172 14.6924L11.8809 12.1689ZM10.6045 9.54688C10.2749 9.41908 10.0056 9.26312 9.79688 9.0791C9.58824 8.89007 9.48351 8.64513 9.4834 8.34375C9.4834 8.21091 9.50823 8.08529 9.55762 7.96777C9.60705 7.84512 9.68375 7.7348 9.78809 7.6377C9.89795 7.54057 10.0387 7.45633 10.209 7.38477C10.3847 7.31327 10.599 7.25939 10.8516 7.22363L10.6045 9.54688Z" fill="currentColor"/>
</svg>
