<svg xmlns="http://www.w3.org/2000/svg" width="52" height="52" viewBox="0 0 52 52" fill="none">
  <path d="M43.3327 29.2448V6.49479C43.3327 5.29817 42.3627 4.32812 41.166 4.32812H10.8327C9.63606 4.32812 8.66602 5.29817 8.66602 6.49479V45.4948C8.66602 46.6914 9.63606 47.6615 10.8327 47.6615H22.7493" stroke="currentColor" stroke-width="2" stroke-linecap="round" stroke-linejoin="round"/>
  <path d="M18.416 13H33.5827" stroke="currentColor" stroke-width="2" stroke-linecap="round" stroke-linejoin="round"/>
  <path d="M18.416 21.6719H33.5827" stroke="currentColor" stroke-width="2" stroke-linecap="round" stroke-linejoin="round"/>
  <path d="M18.416 30.3281H24.916" stroke="currentColor" stroke-width="2" stroke-linecap="round" stroke-linejoin="round"/>
  <path d="M42.25 47.6719L38.4968 43.9187M38.4968 43.9187C39.4771 42.9385 40.0833 41.5843 40.0833 40.0885C40.0833 37.097 37.6582 34.6719 34.6667 34.6719C31.6752 34.6719 29.25 37.097 29.25 40.0885C29.25 43.0801 31.6752 45.5052 34.6667 45.5052C36.1624 45.5052 37.5166 44.899 38.4968 43.9187Z" stroke="currentColor" stroke-width="2" stroke-linecap="round" stroke-linejoin="round"/>
</svg>
