<svg width="135" height="145" viewBox="0 0 135 145" fill="none" xmlns="http://www.w3.org/2000/svg">
<path d="M111.353 68.4557C114.861 60.5905 97.5145 38.6164 80.9422 29.4616C70.4961 22.3694 59.6114 23.3437 57.4069 26.4577C52.5689 33.2917 73.4268 39.0824 87.3762 45.8398C84.3777 47.1465 81.5519 49.4915 79.8902 52.4905C74.6898 46.7939 63.2755 41.8882 49.8821 45.8398C40.8566 48.5027 33.3556 54.7805 30.4566 64.2625C29.7521 63.9484 28.9722 63.7738 28.1517 63.7738C25.0139 63.7738 22.4702 66.3261 22.4702 69.4744C22.4702 72.6228 25.0139 75.175 28.1517 75.175C28.7333 75.175 30.5518 74.7836 30.5518 74.7836L59.6114 74.9949C47.9898 93.4935 38.8055 96.1977 38.8055 99.4025C38.8055 102.607 47.5933 101.739 50.8929 100.544C66.6885 94.8257 83.6538 77.0031 86.565 71.8726C98.7904 73.403 109.065 73.5841 111.353 68.4557Z" fill="url(#paint0_linear_29641_121411)"/>
<path fill-rule="evenodd" clip-rule="evenodd" d="M87.3724 45.8402C87.3729 45.8404 87.3734 45.8406 87.3739 45.8409C88.0205 45.5853 87.9159 44.6271 87.7384 43.8747C87.3303 42.1452 80.2895 35.1692 73.6778 32.0446C64.67 27.7877 58.0365 28.0064 57.0547 29.9679C58.8887 33.7423 67.3973 37.2859 76.2839 40.9869C80.0748 42.5658 83.9345 44.1732 87.3741 45.8395C87.3736 45.8397 87.373 45.84 87.3724 45.8402Z" fill="url(#paint1_linear_29641_121411)"/>
<path fill-rule="evenodd" clip-rule="evenodd" d="M75.9459 83.8238C74.1241 83.1252 72.0662 82.4844 69.7266 81.9028C72.2214 77.4235 72.745 70.7923 70.3887 66.5997C67.082 60.7158 62.9309 57.584 53.285 57.584C47.9798 57.584 33.6956 59.377 33.442 71.3412C33.4154 72.5968 33.4414 73.7475 33.532 74.8056L59.6144 74.9953C56.0982 80.5923 52.805 84.7434 49.9219 87.8999C53.384 88.79 56.2411 89.5373 58.864 90.2234C61.3525 90.8743 63.6302 91.4701 66.0141 92.0804C69.6106 89.4513 72.9916 86.5844 75.9459 83.8238Z" fill="url(#paint2_linear_29641_121411)"/>
<path d="M30.1096 73.5755C31.1752 82.6642 36.3231 86.2261 46.8424 87.2802C57.3618 88.3343 63.3958 87.6271 71.4291 88.3605C78.1385 88.973 84.1292 92.4035 86.3516 91.218C88.3518 90.1511 87.2328 86.2964 84.5564 83.8234C81.0872 80.6177 76.2858 78.3889 67.8375 77.5979C69.5211 72.9725 69.0493 66.4871 66.4345 62.9586C62.6537 57.8568 55.6749 55.5502 46.8425 56.558C37.6145 57.6109 28.7724 62.1694 30.1096 73.5755Z" fill="url(#paint3_linear_29641_121411)"/>
<path d="M128.629 137.005V131.285H128.212C127.368 131.285 126.812 130.729 126.812 129.884C126.812 129.029 127.368 128.483 128.212 128.483H128.629V127.553C128.629 126.324 129.324 125.586 130.532 125.586C131.73 125.586 132.425 126.324 132.425 127.553V128.483H133.344C134.189 128.483 134.745 129.039 134.745 129.884C134.745 130.729 134.189 131.285 133.344 131.285H132.425V136.171C132.425 136.898 132.671 137.187 133.205 137.24L133.441 137.272C134.285 137.369 134.777 137.743 134.777 138.62C134.777 139.721 133.58 140.277 132.115 140.277H132.019C129.773 140.277 128.629 139.165 128.629 137.005Z" fill="#7084FF"/>
<path d="M120.61 140.405C116.879 140.405 114.666 138.149 114.666 134.364C114.666 130.589 116.911 128.205 120.461 128.205C123.925 128.205 126.202 130.493 126.202 133.637C126.202 134.599 125.657 135.134 124.673 135.134H118.344V135.347C118.344 136.759 119.274 137.721 120.642 137.721C121.68 137.721 122.396 137.39 123.241 136.534C123.636 136.16 123.946 136.032 124.417 136.032C125.187 136.032 125.839 136.524 125.839 137.358C125.839 137.646 125.753 137.935 125.582 138.213C124.812 139.581 122.931 140.405 120.61 140.405ZM118.397 132.974H122.631C122.567 131.712 121.722 130.899 120.535 130.899C119.359 130.899 118.493 131.755 118.397 132.974Z" fill="#7084FF"/>
<path d="M111.233 140.374C110.121 140.374 109.33 139.732 109.33 138.406V126.42C109.33 125.095 110.121 124.453 111.233 124.453C112.335 124.453 113.126 125.095 113.126 126.42V138.406C113.126 139.732 112.335 140.374 111.233 140.374Z" fill="#7084FF"/>
<path d="M105.481 140.374C104.369 140.374 103.578 139.732 103.578 138.406V126.42C103.578 125.095 104.369 124.453 105.481 124.453C106.582 124.453 107.373 125.095 107.373 126.42V138.406C107.373 139.732 106.582 140.374 105.481 140.374Z" fill="#7084FF"/>
<path d="M94.4787 140.298C92.3082 140.298 90.5654 138.865 90.5654 136.759C90.5654 134.578 92.2441 133.359 95.2593 133.177L97.9858 133.017V132.354C97.9858 131.423 97.3228 130.91 96.3285 130.91C95.5159 130.91 95.0668 131.145 94.3397 131.937C93.9014 132.375 93.4202 132.589 92.8428 132.589C91.934 132.589 91.2925 132.022 91.2925 131.21C91.2925 130.942 91.3246 130.75 91.4101 130.525C91.9019 129.082 93.8479 128.205 96.5209 128.205C99.6323 128.205 101.696 129.798 101.696 132.14V138.47C101.696 139.763 100.915 140.373 99.8355 140.373C98.8304 140.373 98.1141 139.849 98.0071 138.737V138.47H97.9323C97.3015 139.646 95.8794 140.298 94.4787 140.298ZM95.8259 137.689C96.9807 137.689 97.9858 136.983 97.9858 135.946V135.144L95.8687 135.283C94.8743 135.358 94.3077 135.818 94.3077 136.502C94.3077 137.24 94.9171 137.689 95.8259 137.689Z" fill="#7084FF"/>
<path d="M76.1951 140.362C74.9441 140.362 74.2705 139.763 73.8856 138.331L70.9453 127.574C70.817 127.082 70.7314 126.559 70.7314 126.206C70.7314 125.104 71.4585 124.463 72.6667 124.463C73.6932 124.463 74.3026 125.019 74.5378 126.174L76.4624 135.123H76.548L78.7933 126.088C79.0713 124.965 79.6594 124.463 80.6965 124.463C81.7015 124.463 82.3324 125.008 82.589 126.077L84.845 135.123H84.9306L86.8551 126.174C87.0904 125.019 87.6998 124.463 88.7263 124.463C89.9345 124.463 90.6615 125.104 90.6615 126.206C90.6615 126.548 90.576 127.061 90.4477 127.574L87.4967 138.363C87.1118 139.763 86.4382 140.362 85.2193 140.362C83.9469 140.362 83.2519 139.774 82.8777 138.341L80.7393 130.493H80.6537L78.5153 138.341C78.1518 139.742 77.4354 140.362 76.1951 140.362Z" fill="#7084FF"/>
<path d="M56.3826 144.415C54.7788 144.415 53.902 143.795 53.902 142.673C53.902 141.924 54.426 141.464 55.2599 141.464C55.4417 141.464 55.5807 141.475 55.7625 141.475C56.2222 141.475 56.7675 141.347 57.1097 140.834L57.2059 140.609L53.6561 131.147C53.5064 130.762 53.4209 130.323 53.4209 130.002C53.4209 128.987 54.2763 128.238 55.3989 128.238C56.4147 128.238 56.9279 128.666 57.238 129.799L59.4192 137.284H59.4833L61.6645 129.757C61.9639 128.709 62.5306 128.238 63.5036 128.238C64.5942 128.238 65.3533 128.944 65.3533 129.928C65.3533 130.248 65.2571 130.719 65.1288 131.082L61.9211 140.021C60.7985 143.197 59.2481 144.415 56.3826 144.415Z" fill="#7084FF"/>
<path d="M42.5898 140.374C41.4885 140.374 40.708 139.743 40.708 138.428V126.42C40.708 125.095 41.4992 124.453 42.6112 124.453C43.7125 124.453 44.5037 125.095 44.5037 126.42V130.548H44.5786C45.1666 129.147 46.439 128.313 48.0963 128.313C51.0366 128.313 52.7473 130.505 52.7473 134.311C52.7473 138.107 51.0473 140.299 48.1283 140.299C46.4283 140.299 45.1452 139.476 44.5572 138.128H44.4823V138.428C44.4823 139.743 43.7018 140.374 42.5898 140.374ZM46.6849 137.337C48.0214 137.337 48.8661 136.161 48.8661 134.311C48.8661 132.462 48.0107 131.275 46.6849 131.275C45.3591 131.275 44.493 132.472 44.4823 134.311C44.493 136.172 45.3591 137.337 46.6849 137.337Z" fill="#7084FF"/>
<path d="M29.0107 140.374C27.9094 140.374 27.1289 139.743 27.1289 138.428V126.42C27.1289 125.095 27.9201 124.453 29.0321 124.453C30.1334 124.453 30.9246 125.095 30.9246 126.42V130.548H30.9994C31.5875 129.147 32.8599 128.313 34.5172 128.313C37.4575 128.313 39.1682 130.505 39.1682 134.311C39.1682 138.107 37.4682 140.299 34.5492 140.299C32.8492 140.299 31.5661 139.476 30.9781 138.128H30.9032V138.428C30.9032 139.743 30.1227 140.374 29.0107 140.374ZM33.1058 137.337C34.4423 137.337 35.287 136.161 35.287 134.311C35.287 132.462 34.4316 131.275 33.1058 131.275C31.78 131.275 30.9139 132.472 30.9032 134.311C30.9139 136.172 31.78 137.337 33.1058 137.337Z" fill="#7084FF"/>
<path d="M18.03 140.298C15.8595 140.298 14.1167 138.865 14.1167 136.759C14.1167 134.578 15.7954 133.359 18.8105 133.177L21.537 133.017V132.354C21.537 131.423 20.8741 130.91 19.8797 130.91C19.0671 130.91 18.6181 131.145 17.891 131.937C17.4526 132.375 16.9715 132.589 16.3941 132.589C15.4853 132.589 14.8438 132.022 14.8438 131.21C14.8438 130.942 14.8758 130.75 14.9614 130.525C15.4532 129.082 17.3992 128.205 20.0722 128.205C23.1836 128.205 25.2472 129.798 25.2472 132.14V138.47C25.2472 139.763 24.4667 140.373 23.3868 140.373C22.3817 140.373 21.6653 139.849 21.5584 138.737V138.47H21.4836C20.8527 139.646 19.4307 140.298 18.03 140.298ZM19.3772 137.689C20.532 137.689 21.537 136.983 21.537 135.946V135.144L19.42 135.283C18.4256 135.358 17.8589 135.818 17.8589 136.502C17.8589 137.24 18.4684 137.689 19.3772 137.689Z" fill="#7084FF"/>
<path d="M2.36627 140.374C1.12599 140.374 0.398926 139.625 0.398926 138.332V126.752C0.398926 125.448 1.12599 124.699 2.36627 124.699H7.00665C10.8558 124.699 12.9301 126.602 12.9301 129.789C12.9301 131.606 12.0961 133.232 10.5244 134.023L12.4169 137.241C12.759 137.808 12.8338 138.129 12.8338 138.588C12.8338 139.625 12.0212 140.374 10.8772 140.374C9.92559 140.374 9.51929 140.042 8.85638 138.845L6.56827 134.728H4.32293V138.332C4.32293 139.625 3.60656 140.374 2.36627 140.374ZM4.32293 132.045H6.62173C8.06517 132.045 8.92054 131.2 8.92054 129.864C8.92054 128.548 8.01171 127.661 6.61104 127.661H4.32293V132.045Z" fill="#7084FF"/>
<defs>
<linearGradient id="paint0_linear_29641_121411" x1="48.8312" y1="61.4907" x2="110.628" y2="78.9561" gradientUnits="userSpaceOnUse">
<stop stop-color="#8697FF"/>
<stop offset="1" stop-color="#ABB7FF"/>
</linearGradient>
<linearGradient id="paint1_linear_29641_121411" x1="100.193" y1="60.3116" x2="55.4754" y2="15.6367" gradientUnits="userSpaceOnUse">
<stop stop-color="#8697FF"/>
<stop offset="1" stop-color="#5156D8" stop-opacity="0"/>
</linearGradient>
<linearGradient id="paint2_linear_29641_121411" x1="77.1858" y1="85.3854" x2="34.3035" y2="60.8143" gradientUnits="userSpaceOnUse">
<stop stop-color="#465EED"/>
<stop offset="1" stop-color="#8697FF" stop-opacity="0"/>
</linearGradient>
<linearGradient id="paint3_linear_29641_121411" x1="52.5198" y1="61.028" x2="81.5775" y2="97.8247" gradientUnits="userSpaceOnUse">
<stop stop-color="#8898FF"/>
<stop offset="0.983895" stop-color="#6277F1"/>
</linearGradient>
</defs>
</svg>
