<svg width="135" height="145" viewBox="0 0 135 145" fill="none" xmlns="http://www.w3.org/2000/svg">
<path d="M111.353 68.4567C114.861 60.5915 97.5145 38.6174 80.9422 29.4625C70.4961 22.3704 59.6114 23.3447 57.4069 26.4587C52.5689 33.2927 73.4268 39.0834 87.3762 45.8408C84.3777 47.1475 81.5519 49.4925 79.8902 52.4915C74.6898 46.7948 63.2755 41.8892 49.8821 45.8408C40.8566 48.5037 33.3556 54.7815 30.4566 64.2634C29.7521 63.9493 28.9722 63.7748 28.1517 63.7748C25.0139 63.7748 22.4702 66.3271 22.4702 69.4754C22.4702 72.6238 25.0139 75.176 28.1517 75.176C28.7333 75.176 30.5518 74.7846 30.5518 74.7846L59.6114 74.9959C47.9898 93.4945 38.8055 96.1987 38.8055 99.4035C38.8055 102.608 47.5933 101.74 50.8929 100.545C66.6885 94.8267 83.6538 77.0041 86.565 71.8736C98.7904 73.404 109.065 73.585 111.353 68.4567Z" fill="url(#paint0_linear_29641_121243)"/>
<path fill-rule="evenodd" clip-rule="evenodd" d="M87.3724 45.8412C87.3729 45.8414 87.3734 45.8416 87.3739 45.8418C88.0205 45.5863 87.9159 44.6281 87.7384 43.8757C87.3303 42.1462 80.2895 35.1702 73.6778 32.0456C64.67 27.7886 58.0365 28.0074 57.0547 29.9689C58.8887 33.7433 67.3973 37.2869 76.2839 40.9879C80.0748 42.5667 83.9345 44.1742 87.3741 45.8404C87.3736 45.8407 87.373 45.8409 87.3724 45.8412Z" fill="url(#paint1_linear_29641_121243)"/>
<path fill-rule="evenodd" clip-rule="evenodd" d="M75.9459 83.8238C74.1241 83.1252 72.0662 82.4844 69.7266 81.9028C72.2214 77.4235 72.745 70.7923 70.3887 66.5997C67.082 60.7158 62.9309 57.584 53.285 57.584C47.9798 57.584 33.6956 59.377 33.442 71.3412C33.4154 72.5968 33.4414 73.7475 33.532 74.8056L59.6144 74.9953C56.0982 80.5923 52.805 84.7434 49.9219 87.8999C53.384 88.79 56.2411 89.5373 58.864 90.2234C61.3525 90.8743 63.6302 91.4701 66.0141 92.0804C69.6106 89.4513 72.9916 86.5844 75.9459 83.8238Z" fill="url(#paint2_linear_29641_121243)"/>
<path d="M30.1096 73.5775C31.1752 82.6662 36.3231 86.228 46.8424 87.2821C57.3618 88.3362 63.3958 87.6291 71.4291 88.3624C78.1385 88.9749 84.1292 92.4055 86.3516 91.22C88.3518 90.153 87.2328 86.2984 84.5564 83.8253C81.0872 80.6197 76.2858 78.3908 67.8375 77.5999C69.5211 72.9745 69.0493 66.4891 66.4345 62.9606C62.6537 57.8588 55.6749 55.5521 46.8425 56.5599C37.6145 57.6128 28.7724 62.1713 30.1096 73.5775Z" fill="url(#paint3_linear_29641_121243)"/>
<path d="M128.629 137.006V131.286H128.212C127.368 131.286 126.812 130.73 126.812 129.885C126.812 129.03 127.368 128.484 128.212 128.484H128.629V127.554C128.629 126.325 129.324 125.587 130.532 125.587C131.73 125.587 132.425 126.325 132.425 127.554V128.484H133.344C134.189 128.484 134.745 129.04 134.745 129.885C134.745 130.73 134.189 131.286 133.344 131.286H132.425V136.172C132.425 136.899 132.671 137.188 133.205 137.241L133.441 137.273C134.285 137.37 134.777 137.744 134.777 138.621C134.777 139.722 133.58 140.278 132.115 140.278H132.019C129.773 140.278 128.629 139.166 128.629 137.006Z" fill="#192945"/>
<path d="M120.61 140.406C116.879 140.406 114.666 138.15 114.666 134.365C114.666 130.59 116.911 128.206 120.461 128.206C123.925 128.206 126.202 130.494 126.202 133.638C126.202 134.6 125.657 135.135 124.673 135.135H118.344V135.348C118.344 136.76 119.274 137.722 120.642 137.722C121.68 137.722 122.396 137.391 123.241 136.535C123.636 136.161 123.946 136.033 124.417 136.033C125.187 136.033 125.839 136.525 125.839 137.358C125.839 137.647 125.753 137.936 125.582 138.214C124.812 139.582 122.931 140.406 120.61 140.406ZM118.397 132.975H122.631C122.567 131.713 121.722 130.9 120.535 130.9C119.359 130.9 118.493 131.756 118.397 132.975Z" fill="#192945"/>
<path d="M111.233 140.374C110.121 140.374 109.33 139.732 109.33 138.406V126.42C109.33 125.095 110.121 124.453 111.233 124.453C112.335 124.453 113.126 125.095 113.126 126.42V138.406C113.126 139.732 112.335 140.374 111.233 140.374Z" fill="#192945"/>
<path d="M105.481 140.374C104.369 140.374 103.578 139.732 103.578 138.406V126.42C103.578 125.095 104.369 124.453 105.481 124.453C106.582 124.453 107.373 125.095 107.373 126.42V138.406C107.373 139.732 106.582 140.374 105.481 140.374Z" fill="#192945"/>
<path d="M94.4787 140.299C92.3082 140.299 90.5654 138.866 90.5654 136.76C90.5654 134.579 92.2441 133.36 95.2593 133.178L97.9858 133.018V132.355C97.9858 131.424 97.3228 130.911 96.3285 130.911C95.5159 130.911 95.0668 131.146 94.3397 131.938C93.9014 132.376 93.4202 132.59 92.8428 132.59C91.934 132.59 91.2925 132.023 91.2925 131.211C91.2925 130.943 91.3246 130.751 91.4101 130.526C91.9019 129.083 93.8479 128.206 96.5209 128.206C99.6323 128.206 101.696 129.799 101.696 132.141V138.47C101.696 139.764 100.915 140.374 99.8355 140.374C98.8304 140.374 98.1141 139.85 98.0071 138.738V138.47H97.9323C97.3015 139.647 95.8794 140.299 94.4787 140.299ZM95.8259 137.69C96.9807 137.69 97.9858 136.984 97.9858 135.947V135.145L95.8687 135.284C94.8743 135.359 94.3077 135.819 94.3077 136.503C94.3077 137.241 94.9171 137.69 95.8259 137.69Z" fill="#192945"/>
<path d="M76.1951 140.363C74.9441 140.363 74.2705 139.764 73.8856 138.332L70.9453 127.575C70.817 127.083 70.7314 126.56 70.7314 126.207C70.7314 125.105 71.4585 124.464 72.6667 124.464C73.6932 124.464 74.3026 125.02 74.5378 126.175L76.4624 135.124H76.548L78.7933 126.089C79.0713 124.966 79.6594 124.464 80.6965 124.464C81.7015 124.464 82.3324 125.009 82.589 126.078L84.845 135.124H84.9306L86.8551 126.175C87.0904 125.02 87.6998 124.464 88.7263 124.464C89.9345 124.464 90.6615 125.105 90.6615 126.207C90.6615 126.549 90.576 127.062 90.4477 127.575L87.4967 138.364C87.1118 139.764 86.4382 140.363 85.2193 140.363C83.9469 140.363 83.2519 139.775 82.8777 138.342L80.7393 130.494H80.6537L78.5153 138.342C78.1518 139.743 77.4354 140.363 76.1951 140.363Z" fill="#192945"/>
<path d="M56.3826 144.415C54.7788 144.415 53.902 143.795 53.902 142.673C53.902 141.924 54.426 141.464 55.2599 141.464C55.4417 141.464 55.5807 141.475 55.7625 141.475C56.2222 141.475 56.7675 141.347 57.1097 140.834L57.2059 140.609L53.6561 131.147C53.5064 130.762 53.4209 130.323 53.4209 130.002C53.4209 128.987 54.2763 128.238 55.3989 128.238C56.4147 128.238 56.9279 128.666 57.238 129.799L59.4192 137.284H59.4833L61.6645 129.757C61.9639 128.709 62.5306 128.238 63.5036 128.238C64.5942 128.238 65.3533 128.944 65.3533 129.928C65.3533 130.248 65.2571 130.719 65.1288 131.082L61.9211 140.021C60.7985 143.197 59.2481 144.415 56.3826 144.415Z" fill="#192945"/>
<path d="M42.5898 140.374C41.4885 140.374 40.708 139.743 40.708 138.428V126.42C40.708 125.095 41.4992 124.453 42.6112 124.453C43.7125 124.453 44.5037 125.095 44.5037 126.42V130.548H44.5786C45.1666 129.147 46.439 128.313 48.0963 128.313C51.0366 128.313 52.7473 130.505 52.7473 134.311C52.7473 138.107 51.0473 140.299 48.1283 140.299C46.4283 140.299 45.1452 139.476 44.5572 138.128H44.4823V138.428C44.4823 139.743 43.7018 140.374 42.5898 140.374ZM46.6849 137.337C48.0214 137.337 48.8661 136.161 48.8661 134.311C48.8661 132.462 48.0107 131.275 46.6849 131.275C45.3591 131.275 44.493 132.472 44.4823 134.311C44.493 136.172 45.3591 137.337 46.6849 137.337Z" fill="#192945"/>
<path d="M29.0107 140.374C27.9094 140.374 27.1289 139.743 27.1289 138.428V126.42C27.1289 125.095 27.9201 124.453 29.0321 124.453C30.1334 124.453 30.9246 125.095 30.9246 126.42V130.548H30.9994C31.5875 129.147 32.8599 128.313 34.5172 128.313C37.4575 128.313 39.1682 130.505 39.1682 134.311C39.1682 138.107 37.4682 140.299 34.5492 140.299C32.8492 140.299 31.5661 139.476 30.9781 138.128H30.9032V138.428C30.9032 139.743 30.1227 140.374 29.0107 140.374ZM33.1058 137.337C34.4423 137.337 35.287 136.161 35.287 134.311C35.287 132.462 34.4316 131.275 33.1058 131.275C31.78 131.275 30.9139 132.472 30.9032 134.311C30.9139 136.172 31.78 137.337 33.1058 137.337Z" fill="#192945"/>
<path d="M18.03 140.299C15.8595 140.299 14.1167 138.866 14.1167 136.76C14.1167 134.579 15.7954 133.36 18.8105 133.178L21.537 133.018V132.355C21.537 131.424 20.8741 130.911 19.8797 130.911C19.0671 130.911 18.6181 131.146 17.891 131.938C17.4526 132.376 16.9715 132.59 16.3941 132.59C15.4853 132.59 14.8438 132.023 14.8438 131.211C14.8438 130.943 14.8758 130.751 14.9614 130.526C15.4532 129.083 17.3992 128.206 20.0722 128.206C23.1836 128.206 25.2472 129.799 25.2472 132.141V138.47C25.2472 139.764 24.4667 140.374 23.3868 140.374C22.3817 140.374 21.6653 139.85 21.5584 138.738V138.47H21.4836C20.8527 139.647 19.4307 140.299 18.03 140.299ZM19.3772 137.69C20.532 137.69 21.537 136.984 21.537 135.947V135.145L19.42 135.284C18.4256 135.359 17.8589 135.819 17.8589 136.503C17.8589 137.241 18.4684 137.69 19.3772 137.69Z" fill="#192945"/>
<path d="M2.36627 140.374C1.12599 140.374 0.398926 139.625 0.398926 138.332V126.752C0.398926 125.448 1.12599 124.699 2.36627 124.699H7.00665C10.8558 124.699 12.9301 126.602 12.9301 129.789C12.9301 131.606 12.0961 133.232 10.5244 134.023L12.4169 137.241C12.759 137.808 12.8338 138.129 12.8338 138.588C12.8338 139.625 12.0212 140.374 10.8772 140.374C9.92559 140.374 9.51929 140.042 8.85638 138.845L6.56827 134.728H4.32293V138.332C4.32293 139.625 3.60656 140.374 2.36627 140.374ZM4.32293 132.045H6.62173C8.06517 132.045 8.92054 131.2 8.92054 129.864C8.92054 128.548 8.01171 127.661 6.61104 127.661H4.32293V132.045Z" fill="#192945"/>
<defs>
<linearGradient id="paint0_linear_29641_121243" x1="48.8312" y1="61.4916" x2="110.628" y2="78.9571" gradientUnits="userSpaceOnUse">
<stop stop-color="#8697FF"/>
<stop offset="1" stop-color="#ABB7FF"/>
</linearGradient>
<linearGradient id="paint1_linear_29641_121243" x1="100.193" y1="60.3126" x2="55.4754" y2="15.6376" gradientUnits="userSpaceOnUse">
<stop stop-color="#8697FF"/>
<stop offset="1" stop-color="#5156D8" stop-opacity="0"/>
</linearGradient>
<linearGradient id="paint2_linear_29641_121243" x1="77.1858" y1="85.3854" x2="34.3035" y2="60.8143" gradientUnits="userSpaceOnUse">
<stop stop-color="#465EED"/>
<stop offset="1" stop-color="#8697FF" stop-opacity="0"/>
</linearGradient>
<linearGradient id="paint3_linear_29641_121243" x1="52.5198" y1="61.0299" x2="81.5775" y2="97.8266" gradientUnits="userSpaceOnUse">
<stop stop-color="#8898FF"/>
<stop offset="0.983895" stop-color="#6277F1"/>
</linearGradient>
</defs>
</svg>
