<svg viewBox="0 0 40 40" fill="none" xmlns="http://www.w3.org/2000/svg">
<path d="M13.3333 5H13C10.1997 5 8.7996 5 7.73005 5.54497C6.78923 6.02433 6.02433 6.78923 5.54497 7.73005C5 8.7996 5 10.1997 5 13V13.3333M13.3333 35H13C10.1997 35 8.7996 35 7.73005 34.455C6.78923 33.9757 6.02433 33.2108 5.54497 32.27C5 31.2003 5 29.8003 5 27V26.6667M35 13.3333V13C35 10.1997 35 8.7996 34.455 7.73005C33.9757 6.78923 33.2108 6.02433 32.27 5.54497C31.2003 5 29.8003 5 27 5H26.6667M35 26.6667V27C35 29.8003 35 31.2003 34.455 32.27C33.9757 33.2108 33.2108 33.9757 32.27 34.455C31.2003 35 29.8003 35 27 35H26.6667M12.5 13.3333V15.8333M27.5 13.3333V15.8333M18.3333 21.0002C19.6667 21.0002 20.8333 19.8335 20.8333 18.5002V13.3333M25.3337 25.3333C22.3337 28.3333 17.5003 28.3333 14.5003 25.3333" stroke="currentColor" stroke-width="2" stroke-linecap="round" stroke-linejoin="round"/>
</svg>
