<svg xmlns="http://www.w3.org/2000/svg" width="100" height="100" viewBox="0 0 100 100" fill="none">
  <g clip-path="url(#clip0_9621_73279)">
    <g filter="url(#filter0_d_9621_73279)">
      <path d="M35.3597 41.0613H66.6648C74.5693 41.0613 81 47.57 81 55.5703V73.3186C81 81.3189 74.5693 87.8276 66.6648 87.8276H33.3352C25.4307 87.8276 19 81.3189 19 73.3186V55.5703C19 48.361 24.2324 42.357 31.0576 41.2496V31.7653C31.0576 21.4146 39.3789 12.9925 49.5981 13H50.3945C60.6137 13 68.9349 21.4146 68.9349 31.7653C68.9349 32.9706 67.9748 33.9424 66.7839 33.9424C65.593 33.9424 64.6329 32.9631 64.6329 31.7653C64.6329 27.9309 63.1517 24.3149 60.4499 21.5804C57.7556 18.8533 54.183 17.3467 50.3945 17.3467H49.5981C45.817 17.3467 42.2444 18.8458 39.5426 21.5804C36.8483 24.3149 35.3597 27.9309 35.3597 31.7653V41.0613Z" fill="currentColor"/>
    </g>
    <mask id="mask0_9621_73279" style="mask-type:alpha" maskUnits="userSpaceOnUse" x="19" y="13" width="62" height="75">
      <path d="M35.3597 41.0613H66.6648C74.5693 41.0613 81 47.57 81 55.5703V73.3186C81 81.3189 74.5693 87.8276 66.6648 87.8276H33.3352C25.4307 87.8276 19 81.3189 19 73.3186V55.5703C19 48.361 24.2324 42.357 31.0576 41.2496V31.7653C31.0576 21.4146 39.3789 12.9925 49.5981 13H50.3945C60.6137 13 68.9349 21.4146 68.9349 31.7653C68.9349 32.9706 67.9748 33.9424 66.7839 33.9424C65.593 33.9424 64.6329 32.9631 64.6329 31.7653C64.6329 27.9309 63.1517 24.3149 60.4499 21.5804C57.7556 18.8533 54.183 17.3467 50.3945 17.3467H49.5981C45.817 17.3467 42.2444 18.8458 39.5426 21.5804C36.8483 24.3149 35.3597 27.9309 35.3597 31.7653V41.0613Z" fill="currentColor"/>
    </mask>
    <g mask="url(#mask0_9621_73279)">
      <circle opacity="0.1" cx="38.6552" cy="87.6552" r="25.6552" fill="#D2DAFF"/>
    </g>
    <path opacity="0.6" d="M53.7739 66.1907L54.5554 65.5353C55.9547 64.3677 56.7585 62.6501 56.7585 60.812C56.7585 57.4371 54.0418 54.6875 50.7074 54.6875C47.3729 54.6875 44.6562 57.4371 44.6562 60.812C44.6562 62.6426 45.4601 64.3677 46.8594 65.5353L47.6409 66.1907V75.2984C47.6409 77.0085 49.0178 78.4021 50.7074 78.4021C52.3969 78.4021 53.7739 77.0085 53.7739 75.2984V66.1907Z" fill="#B4C1FF"/>
  </g>
  <defs>
    <filter id="filter0_d_9621_73279" x="3" y="1" width="94" height="106.828" filterUnits="userSpaceOnUse" color-interpolation-filters="sRGB">
      <feFlood flood-opacity="0" result="BackgroundImageFix"/>
      <feColorMatrix in="SourceAlpha" type="matrix" values="0 0 0 0 0 0 0 0 0 0 0 0 0 0 0 0 0 0 127 0" result="hardAlpha"/>
      <feOffset dy="4"/>
      <feGaussianBlur stdDeviation="8"/>
      <feColorMatrix type="matrix" values="0 0 0 0 0.148542 0 0 0 0 0.199467 0 0 0 0 0.3875 0 0 0 0.08 0"/>
      <feBlend mode="normal" in2="BackgroundImageFix" result="effect1_dropShadow_9621_73279"/>
      <feBlend mode="normal" in="SourceGraphic" in2="effect1_dropShadow_9621_73279" result="shape"/>
    </filter>
    <clipPath id="clip0_9621_73279">
      <rect width="100" height="100" fill="currentColor"/>
    </clipPath>
  </defs>
</svg>
