<svg xmlns="http://www.w3.org/2000/svg" viewBox="0 0 35 35">
  <path d="M23.2252 4.36447L27.6351 8.77144C27.7507 8.88645 27.8424 9.02358 27.9051 9.17485C27.9677 9.32611 28 9.48849 28 9.6525C28 9.81652 27.9677 9.97889 27.9051 10.1302C27.8424 10.2814 27.7507 10.4186 27.6351 10.5336L24.1072 14.0578L17.9333 7.89037L21.4612 4.36447C21.6967 4.13085 22.0134 4 22.3432 4C22.673 4 22.9896 4.13085 23.2252 4.36447ZM22.3432 7.00931L21.4612 7.89037L24.1072 10.5336L24.9891 9.65087L22.3432 7.00931ZM27.0003 26.5072V29H7.04251V26.5088H27.0003V26.5072ZM17.048 8.77307L23.2236 14.9405L13.5217 24.6339L8.32995 24.9804C8.15375 24.9931 7.97692 24.9675 7.81125 24.9055C7.64558 24.8435 7.49489 24.7464 7.36923 24.6208C7.24356 24.4952 7.14582 24.3439 7.08251 24.177C7.01921 24.0102 6.9918 23.8316 7.00212 23.6531L7.34942 18.4664L17.0513 8.77307H17.048ZM17.048 12.2973L9.77731 19.5649L9.58831 22.3961L12.4233 22.2081L19.6972 14.9389L17.0513 12.2957L17.048 12.2973Z" fill="currentColor"/>
</svg>
