<svg viewBox="0 0 20 20" fill="none" xmlns="http://www.w3.org/2000/svg">
<path d="M14.195 2.6605H13.8C13.7542 2.20998 13.5243 1.79077 13.1549 1.48402C12.7854 1.17728 12.3026 1.00481 11.8 1L8 1C7.49736 1.00481 7.01458 1.17728 6.64512 1.48402C6.27565 1.79077 6.04578 2.20998 6 2.6605H5.605C5.068 2.65634 4.5354 2.74787 4.03788 2.92981C3.54037 3.11175 3.08778 3.3805 2.7062 3.72058C2.32461 4.06066 2.02158 4.46534 1.81457 4.9113C1.60755 5.35726 1.50064 5.83568 1.5 6.319V15.3415C1.50066 15.8225 1.60658 16.2987 1.81172 16.7429C2.01687 17.1871 2.31721 17.5906 2.69561 17.9303C3.07401 18.27 3.52305 18.5394 4.0171 18.7229C4.51114 18.9064 5.04052 19.0006 5.575 19H14.195C15.2727 18.9988 16.3059 18.613 17.0679 17.9271C17.83 17.2413 18.2587 16.3114 18.26 15.3415V6.3415C18.2633 5.85917 18.1606 5.38101 17.9578 4.93454C17.755 4.48807 17.4561 4.0821 17.0783 3.73999C16.7005 3.39788 16.2512 3.12638 15.7564 2.94112C15.2616 2.75586 14.7309 2.66049 14.195 2.6605ZM8 2.8L11.835 2.8315V4.3525H7.985L8 2.8ZM16.26 15.337C16.2607 15.5814 16.2077 15.8236 16.1042 16.0496C16.0008 16.2756 15.8488 16.481 15.6569 16.6541C15.4651 16.8271 15.2373 16.9644 14.9864 17.0581C14.7355 17.1518 14.4666 17.2 14.195 17.2H5.575C5.30256 17.2012 5.03255 17.1538 4.78053 17.0607C4.52851 16.9675 4.29946 16.8304 4.10658 16.6573C3.9137 16.4841 3.7608 16.2783 3.6567 16.0517C3.55259 15.8251 3.49934 15.5822 3.5 15.337V6.337C3.5 5.84409 3.71756 5.37138 4.10482 5.02284C4.49209 4.6743 5.01733 4.4785 5.565 4.4785H5.955C5.98192 4.93932 6.20446 5.37324 6.57665 5.69063C6.94885 6.00802 7.44227 6.18464 7.955 6.184H11.795C12.3077 6.18464 12.8012 6.00802 13.1733 5.69063C13.5455 5.37324 13.7681 4.93932 13.795 4.4785H14.18C14.7277 4.4785 15.2529 4.6743 15.6402 5.02284C16.0274 5.37138 16.245 5.84409 16.245 6.337L16.26 15.337Z" fill="currentColor"/>
<path d="M13.7453 8.65039H6.03027C5.76506 8.65039 5.5107 8.74521 5.32317 8.91399C5.13563 9.08278 5.03027 9.3117 5.03027 9.55039C5.03027 9.78909 5.13563 10.018 5.32317 10.1868C5.5107 10.3556 5.76506 10.4504 6.03027 10.4504H13.7453C14.0105 10.4504 14.2648 10.3556 14.4524 10.1868C14.6399 10.018 14.7453 9.78909 14.7453 9.55039C14.7453 9.3117 14.6399 9.08278 14.4524 8.91399C14.2648 8.74521 14.0105 8.65039 13.7453 8.65039ZM10.2903 12.7589H6.03027C5.76506 12.7589 5.5107 12.8537 5.32317 13.0225C5.13563 13.1913 5.03027 13.4202 5.03027 13.6589C5.03027 13.8976 5.13563 14.1265 5.32317 14.2953C5.5107 14.4641 5.76506 14.5589 6.03027 14.5589H10.2853C10.5505 14.5589 10.8048 14.4641 10.9924 14.2953C11.1799 14.1265 11.2853 13.8976 11.2853 13.6589C11.2853 13.4202 11.1799 13.1913 10.9924 13.0225C10.8048 12.8537 10.5505 12.7589 10.2853 12.7589H10.2903Z" fill="currentColor"/>
<circle cx="17" cy="3" r="3" fill="#FF453A"/>
</svg>
