<svg xmlns="http://www.w3.org/2000/svg" width="80" height="76" viewBox="0 0 80 76" fill="none">
  <g opacity="0.4" clip-path="url(#clip0_53909_363320)">
    <path d="M58.0763 22.11L52.8098 26.7213L46.4209 19.4245L47.0022 12.9424C47.0227 12.7134 46.998 12.4827 46.9294 12.2633C46.8608 12.044 46.7496 11.8403 46.6023 11.6639C46.455 11.4875 46.2743 11.3418 46.0707 11.2352C45.8671 11.1286 45.6445 11.0632 45.4155 11.0426C45.1866 11.022 44.9559 11.0468 44.7365 11.1154C44.5172 11.184 44.3135 11.2951 44.1371 11.4425C43.9606 11.5898 43.815 11.7704 43.7084 11.9741C43.6018 12.1777 43.5363 12.4003 43.5158 12.6292L42.901 19.5036L23.2648 36.6967L16.3693 36.4005C16.1399 36.3906 15.9107 36.4261 15.6949 36.5048C15.4792 36.5835 15.281 36.7039 15.1118 36.8592C14.9426 37.0145 14.8056 37.2016 14.7087 37.4099C14.6118 37.6181 14.5568 37.8434 14.547 38.0728C14.5371 38.3023 14.5726 38.5315 14.6513 38.7472C14.73 38.963 14.8504 39.1611 15.0057 39.3304C15.161 39.4996 15.3481 39.6366 15.5564 39.7335C15.7646 39.8304 15.9899 39.8853 16.2194 39.8952L22.7227 40.1765L29.1116 47.4733L23.8451 52.0846C23.4959 52.3903 23.2824 52.8222 23.2517 53.2854C23.221 53.7485 23.3755 54.2048 23.6812 54.554C23.987 54.9032 24.4189 55.1166 24.882 55.1474C25.3451 55.1781 25.8015 55.0236 26.1507 54.7178L31.4172 50.1066L32.7614 51.6418C34.6693 53.8208 37.0459 55.3476 39.6071 56.2033L38.7615 65.6406C38.72 66.1029 38.8638 66.5628 39.1614 66.9191C39.4589 67.2753 39.8858 67.4988 40.3481 67.5403C40.8105 67.5819 41.2704 67.438 41.6266 67.1405C41.9829 66.8429 42.2064 66.416 42.2479 65.9537L43.0567 56.9393C46.7886 57.3142 50.5313 56.3408 53.6077 54.1953L39.8373 38.4682C39.5316 38.119 39.377 37.6626 39.4078 37.1995C39.4385 36.7364 39.6519 36.3045 40.0011 35.9987C40.3503 35.693 40.8067 35.5385 41.2698 35.5692C41.7329 35.5999 42.1648 35.8134 42.4706 36.1626L56.2409 51.8897C58.7727 49.1229 60.2317 45.542 60.3546 41.7936L69.3968 42.1826C69.8487 42.1831 70.2833 42.0089 70.6098 41.6965C70.9362 41.384 71.1293 40.9575 71.1487 40.506C71.1681 40.0546 71.0123 39.6131 70.7138 39.2738C70.4153 38.9345 69.9972 38.7237 69.547 38.6854L60.0793 38.2781C59.5512 35.5379 58.3021 32.988 56.4607 30.8911L55.1154 29.3546L60.3819 24.7433C60.7311 24.4376 60.9446 24.0056 60.9753 23.5425C61.006 23.0794 60.8515 22.623 60.5457 22.2739C60.24 21.9247 59.8081 21.7112 59.3449 21.6805C58.8818 21.6498 58.4255 21.8043 58.0763 22.11Z" fill="#4C65FF" fill-opacity="0.12"/>
    <path d="M36.7839 19.0445C35.2552 17.2985 33.0955 16.2314 30.7799 16.0778C28.4644 15.9242 26.1826 16.6967 24.4367 18.2254C22.6907 19.7542 21.6235 21.9138 21.4699 24.2294C21.3163 26.545 22.0889 28.8267 23.6176 30.5727L24.3865 31.4508L37.5528 19.9227L36.7839 19.0445Z" fill="#4C65FF" fill-opacity="0.12"/>
  </g>
  <defs>
    <clipPath id="clip0_53909_363320">
      <rect width="56" height="56" fill="white" transform="translate(0.48877 33.3789) rotate(-41.2048)"/>
    </clipPath>
  </defs>
</svg>
