<svg xmlns="http://www.w3.org/2000/svg" viewBox="0 0 16 16" fill="none">
  <path d="M8 0C3.58174 4.43255e-05 4.3869e-05 3.58174 0 8C0 12.4183 3.58171 16 8 16C12.4183 16 16 12.4183 16 8C16 3.58171 12.4183 0 8 0Z" fill="#58C669"/>
  <path d="M10.9839 5.31226C11.3054 5.00028 11.8189 5.00689 12.1313 5.32788C12.4437 5.64925 12.4367 6.16368 12.1157 6.47632L7.66064 10.8074C7.34553 11.1137 6.843 11.1136 6.52783 10.8074L4.48682 8.82397C4.16538 8.51139 4.15868 7.99709 4.47119 7.67554C4.78381 7.3545 5.29821 7.34656 5.61963 7.65894L7.09424 9.09253L10.9839 5.31226Z" fill="currentColor"/>
</svg>
