<svg width="53" height="52" viewBox="0 0 53 52" fill="none" xmlns="http://www.w3.org/2000/svg">
<path d="M26.491 47.6615C32.4741 47.6615 37.8907 45.2363 41.8116 41.3154C45.7326 37.3945 48.1577 31.9778 48.1577 25.9948C48.1577 20.0118 45.7326 14.5951 41.8116 10.6741C37.8907 6.75325 32.4741 4.32812 26.491 4.32812C20.508 4.32812 15.0913 6.75325 11.1704 10.6741C7.2495 14.5951 4.82437 20.0118 4.82437 25.9948C4.82437 31.9778 7.2495 37.3945 11.1704 41.3154C15.0913 45.2363 20.508 47.6615 26.491 47.6615Z" stroke="#EC5151" stroke-width="2.47687" stroke-linejoin="round"/>
<path fill-rule="evenodd" clip-rule="evenodd" d="M26.5098 39.8296C27.8597 39.8296 28.9539 38.7354 28.9539 37.3855C28.9539 36.0357 27.8597 34.9414 26.5098 34.9414C25.16 34.9414 24.0657 36.0357 24.0657 37.3855C24.0657 38.7354 25.16 39.8296 26.5098 39.8296Z" fill="#EC5151"/>
<path d="M26.5 13.0039V30.3372" stroke="#EC5151" stroke-width="2.47687" stroke-linecap="round" stroke-linejoin="round"/>
</svg>
