<svg width="28" height="28" viewBox="0 0 28 28" fill="none" xmlns="http://www.w3.org/2000/svg">
<g clip-path="url(#clip0_12571_22797)">
<path d="M14.0004 26.5984C17.4798 26.5984 20.6298 25.1881 22.9099 22.908C25.1901 20.6278 26.6004 17.4778 26.6004 13.9984C26.6004 10.5191 25.1901 7.36907 22.9099 5.08889C20.6298 2.80874 17.4798 1.39844 14.0004 1.39844C10.521 1.39844 7.37103 2.80874 5.09084 5.08889C2.8107 7.36907 1.40039 10.5191 1.40039 13.9984C1.40039 17.4778 2.8107 20.6278 5.09084 22.908C7.37103 25.1881 10.521 26.5984 14.0004 26.5984Z" fill="#7084FF" stroke="#7084FF" stroke-width="2.8" stroke-linejoin="round"/>
<path d="M14.0033 8.33442L13.998 19.668" stroke="white" stroke-width="2" stroke-linecap="round" stroke-linejoin="round"/>
<path d="M9.18376 13.1484L14.0001 8.33212L18.8164 13.1484" stroke="white" stroke-width="2" stroke-linecap="round" stroke-linejoin="round"/>
</g>
<defs>
<clipPath id="clip0_12571_22797">
<rect width="28" height="28" fill="white"/>
</clipPath>
</defs>
</svg>
