<svg width="28" height="28" viewBox="0 0 28 28" fill="none" xmlns="http://www.w3.org/2000/svg">
<g clip-path="url(#clip0_12571_22900)">
<path d="M14.0004 26.6004C17.4798 26.6004 20.6298 25.1901 22.9099 22.9099C25.1901 20.6298 26.6004 17.4798 26.6004 14.0004C26.6004 10.521 25.1901 7.37103 22.9099 5.09084C20.6298 2.8107 17.4798 1.40039 14.0004 1.40039C10.521 1.40039 7.37103 2.8107 5.09084 5.09084C2.8107 7.37103 1.40039 10.521 1.40039 14.0004C1.40039 17.4798 2.8107 20.6298 5.09084 22.9099C7.37103 25.1901 10.521 26.6004 14.0004 26.6004Z" fill="#2ABB7F" stroke="#2ABB7F" stroke-width="2.8" stroke-linejoin="round"/>
<path d="M8.16797 13.9985L12.4457 18.2763L21.0013 9.7207" stroke="white" stroke-width="2.5" stroke-linecap="round" stroke-linejoin="round"/>
</g>
<defs>
<clipPath id="clip0_12571_22900">
<rect width="28" height="28" fill="white"/>
</clipPath>
</defs>
</svg>
