<svg width="28" height="28" viewBox="0 0 28 28" fill="none" xmlns="http://www.w3.org/2000/svg">
<g clip-path="url(#clip0_12536_41934)">
<path d="M14.0004 26.6004C17.4798 26.6004 20.6298 25.1901 22.9099 22.9099C25.1901 20.6298 26.6004 17.4798 26.6004 14.0004C26.6004 10.521 25.1901 7.37103 22.9099 5.09084C20.6298 2.8107 17.4798 1.40039 14.0004 1.40039C10.521 1.40039 7.37103 2.8107 5.09084 5.09084C2.8107 7.37103 1.40039 10.521 1.40039 14.0004C1.40039 17.4798 2.8107 20.6298 5.09084 22.9099C7.37103 25.1901 10.521 26.6004 14.0004 26.6004Z" fill="#6A7587" stroke="#6A7587" stroke-width="2.8" stroke-linejoin="round"/>
<path d="M14.4414 14.7308V8" stroke="white" stroke-width="2.40385" stroke-linecap="round" stroke-linejoin="round"/>
<path d="M15.8245 19.0575C15.8245 19.8209 15.2057 20.4398 14.4423 20.4398C13.6789 20.4398 13.0601 19.8209 13.0601 19.0575C13.0601 18.2942 13.6789 17.6753 14.4423 17.6753C15.2057 17.6753 15.8245 18.2942 15.8245 19.0575Z" fill="white" stroke="white" stroke-width="0.120192"/>
</g>
<defs>
<clipPath id="clip0_12536_41934">
<rect width="28" height="28" fill="white"/>
</clipPath>
</defs>
</svg>
