<svg xmlns="http://www.w3.org/2000/svg" width="14" height="15" viewBox="0 0 14 15" fill="none">
  <path
    d="M4.60722 13.0999H1.88698C1.75783 13.0999 1.63397 13.0486 1.54265 12.9573C1.45133 12.866 1.40002 12.7421 1.40002 12.6129V9.89271C1.40008 9.76373 1.45131 9.64005 1.54246 9.5488L9.04884 2.04241C9.14015 1.95116 9.26396 1.8999 9.39306 1.8999C9.52215 1.8999 9.64596 1.95116 9.73727 2.04241L12.4575 4.76083C12.5488 4.85214 12.6 4.97595 12.6 5.10505C12.6 5.23414 12.5488 5.35795 12.4575 5.44926L4.95113 12.9575C4.85988 13.0486 4.7362 13.0998 4.60722 13.0999Z"
    stroke="#7084FF" stroke-linecap="round" stroke-linejoin="round" />
  <path d="M7.69995 4L10.5 6.8" stroke="#7084FF" stroke-linecap="round" stroke-linejoin="round" />
</svg>