<svg width="28" height="28" viewBox="0 0 28 28" fill="none" xmlns="http://www.w3.org/2000/svg">
<circle cx="14" cy="14" r="14" fill="#68FF7A"/>
<path d="M20.9703 14.25H19.2606C18.75 14.25 18.3363 14.6765 18.3363 15.2028V17.7607C18.3363 18.287 17.9225 18.7135 17.412 18.7135H10.6104C10.0998 18.7135 9.68604 19.14 9.68604 19.6663V21.4286C9.68604 21.9549 10.0998 22.3814 10.6104 22.3814H17.8056C18.3163 22.3814 18.7241 21.9549 18.7241 21.4286V20.0147C18.7241 19.4884 19.1378 19.115 19.6485 19.115H20.97C21.4805 19.115 21.8943 18.6885 21.8943 18.1622V15.1917C21.8943 14.6654 21.4809 14.25 20.9703 14.25Z" fill="black"/>
<path d="M9.68333 10.7458C9.68333 10.2194 10.0971 9.79292 10.6077 9.79292H17.4051C17.9157 9.79292 18.3294 9.36643 18.3294 8.84013V7.07782C18.3294 6.55148 17.9157 6.125 17.4051 6.125H10.2137C9.70308 6.125 9.28932 6.55148 9.28932 7.07782V8.43575C9.28932 8.96205 8.8756 9.38854 8.36498 9.38854H7.04935C6.53874 9.38854 6.125 9.81504 6.125 10.3414V13.315C6.125 13.8413 6.54047 14.2464 7.05109 14.2464H8.76071C9.27133 14.2464 9.6851 13.82 9.6851 13.2936L9.68333 10.7458Z" fill="black"/>
<path d="M13.2032 12.3984H14.8454C15.3806 12.3984 15.8147 12.8463 15.8147 13.3976V15.0904C15.8147 15.642 15.3802 16.0895 14.8454 16.0895H13.2032C12.668 16.0895 12.2339 15.6416 12.2339 15.0904V13.3976C12.2339 12.846 12.6684 12.3984 13.2032 12.3984Z" fill="black"/>
</svg>
