<svg width="35" height="17" viewBox="0 0 35 17" fill="none" xmlns="http://www.w3.org/2000/svg">
<rect x="0.25" y="0.25" width="34.5" height="16.5" rx="8.25" stroke="#7084FF" stroke-width="0.5"/>
<path d="M10.4043 13V9.36133L7.4043 4.54492H8.60547L10.8848 8.30078H10.9785L13.2578 4.54492H14.459L11.459 9.36133V13H10.4043ZM17.4121 13.1113C16.8145 13.1113 16.2969 12.9805 15.8594 12.7188C15.4258 12.4531 15.0898 12.0762 14.8516 11.5879C14.6172 11.0996 14.5 10.5195 14.5 9.84766V9.83594C14.5 9.16016 14.6172 8.57812 14.8516 8.08984C15.0898 7.60156 15.4258 7.22656 15.8594 6.96484C16.2969 6.70312 16.8145 6.57227 17.4121 6.57227C18.0137 6.57227 18.5312 6.70312 18.9648 6.96484C19.3984 7.22656 19.7324 7.60156 19.9668 8.08984C20.2051 8.57812 20.3242 9.16016 20.3242 9.83594V9.84766C20.3242 10.5195 20.2051 11.0996 19.9668 11.5879C19.7324 12.0762 19.3984 12.4531 18.9648 12.7188C18.5312 12.9805 18.0137 13.1113 17.4121 13.1113ZM17.4121 12.209C17.8105 12.209 18.1484 12.1152 18.4258 11.9277C18.7031 11.7402 18.9141 11.4707 19.0586 11.1191C19.207 10.7676 19.2812 10.3438 19.2812 9.84766V9.83594C19.2812 9.33594 19.207 8.91016 19.0586 8.55859C18.9141 8.20703 18.7031 7.93945 18.4258 7.75586C18.1484 7.56836 17.8105 7.47461 17.4121 7.47461C17.0137 7.47461 16.6758 7.56836 16.3984 7.75586C16.1211 7.93945 15.9082 8.20703 15.7598 8.55859C15.6152 8.91016 15.543 9.33594 15.543 9.83594V9.84766C15.543 10.3438 15.6152 10.7676 15.7598 11.1191C15.9082 11.4707 16.1211 11.7402 16.3984 11.9277C16.6758 12.1152 17.0137 12.209 17.4121 12.209ZM24.0215 13.1113C23.5449 13.1113 23.1445 13.0215 22.8203 12.8418C22.4961 12.6582 22.252 12.3926 22.0879 12.0449C21.9277 11.6934 21.8477 11.2695 21.8477 10.7734V6.68359H22.8672V10.5273C22.8672 11.0938 22.9766 11.5156 23.1953 11.793C23.418 12.0703 23.7812 12.209 24.2852 12.209C24.5625 12.209 24.8066 12.168 25.0176 12.0859C25.2324 12.0039 25.4121 11.8867 25.5566 11.7344C25.7012 11.5781 25.8086 11.3906 25.8789 11.1719C25.9531 10.9492 25.9902 10.6992 25.9902 10.4219V6.68359H27.0098V13H25.9902V12.0566H25.8965C25.7949 12.2793 25.6562 12.4707 25.4805 12.6309C25.3047 12.7871 25.0938 12.9062 24.8477 12.9883C24.6055 13.0703 24.3301 13.1113 24.0215 13.1113Z" fill="#7084FF"/>
</svg>
