<svg viewBox="0 0 14 14" fill="none" xmlns="http://www.w3.org/2000/svg">
<path d="M4.27775 11.9H3.40664C3.06009 11.9 2.72774 11.7623 2.48269 11.5173C2.23764 11.2722 2.09998 10.9399 2.09998 10.5933V9.72223M9.7222 11.9H10.5933C10.9399 11.9 11.2722 11.7623 11.5173 11.5173C11.7623 11.2722 11.9 10.9399 11.9 10.5933V9.72223M11.9 4.27778V3.40667C11.9 3.06012 11.7623 2.72777 11.5173 2.48272C11.2722 2.23767 10.9399 2.10001 10.5933 2.10001H9.7222M4.27775 2.10001H3.40664C3.23505 2.10001 3.06513 2.1338 2.9066 2.19947C2.74807 2.26514 2.60402 2.36138 2.48269 2.48272C2.36135 2.60406 2.26511 2.7481 2.19944 2.90663C2.13377 3.06517 2.09998 3.23508 2.09998 3.40667V4.27778" stroke="#6A7587" stroke-miterlimit="10" stroke-linecap="round" stroke-linejoin="round"/>
<path d="M2.80005 7L11.2 7" stroke="#6A7587" stroke-miterlimit="10" stroke-linecap="round"/>
</svg>
