<svg width="80" height="80" viewBox="0 0 80 80" fill="none" xmlns="http://www.w3.org/2000/svg">
  <g clip-path="url(#clip0_4007_50604)">
    <rect width="80" height="80" rx="40" fill="#F2F4F7" />
    <path
      d="M55.8831 21.332C59.1116 21.332 61.8166 23.8713 61.8166 27.0877V99.6256C61.8166 102.758 59.1988 105.382 55.8831 105.382H23.9463C20.7177 105.382 18.0127 102.842 18.0127 99.6256V27.0877C18.0127 23.9559 20.6305 21.332 23.9463 21.332H55.8831Z"
      fill="#5B7896" />
    <path
      d="M58.8563 27.5781V98.6876C58.8563 99.932 58.0653 100.928 56.8347 101.26C56.5711 101.343 56.3074 101.343 55.9558 101.343H23.7863C23.6105 101.343 23.4347 101.343 23.3468 101.343C21.9405 101.094 20.9736 100.015 20.9736 98.6876V27.8271C20.9736 26.4165 21.9405 25.3378 23.3468 25.1719C23.5226 25.1719 23.6105 25.1719 23.7863 25.1719H28.5326C29.1479 25.1719 29.5873 25.5867 29.5873 26.1676C29.5873 27.3292 30.6421 28.3249 31.8726 28.3249H48.221C49.4516 28.3249 50.5064 27.3292 50.5064 26.1676C50.5064 25.5867 50.9458 25.1719 51.5611 25.1719H56.0437L55.975 25.183C56.2386 25.183 56.5902 25.183 56.8539 25.2659C57.9086 25.5978 58.8563 26.3335 58.8563 27.5781Z"
      fill="#F2F4F7" />
    <g filter="url(#filter0_d_4007_50604)">
      <path
        d="M27.1877 47.375V62.1277C27.1877 63.4856 28.2887 64.5865 29.6465 64.5865C29.6465 64.5865 49.3168 64.5865 49.9315 64.5865C50.5462 64.5865 50.5462 63.9743 50.5462 63.9743V47.375H27.1877Z"
        fill="#7084FF" />
      <path
        d="M49.9315 44.918H29.6465C28.2887 44.918 27.1877 46.0183 27.1877 47.3761C27.1877 48.734 28.2887 49.8355 29.6465 49.8355C29.6465 49.8355 49.3168 49.8355 49.9315 49.8355C50.5462 49.8355 50.5462 50.4502 50.5462 50.4502V45.5327C50.5462 45.1934 50.2715 44.918 49.9315 44.918Z"
        fill="#293AA2" />
      <path
        d="M29.6436 47.375V49.8338C34.1327 49.8338 49.4042 49.8338 49.9286 49.8338C50.5432 49.8338 50.5432 50.4497 50.5432 50.4497V63.3571H51.7726V49.8338V47.9897V47.375H29.6436Z"
        fill="#4CAF50" />
      <path
        d="M29.6436 48.6016V49.831C33.0299 49.831 42.5842 49.831 47.2749 49.831C47.093 49.4486 46.9694 49.0349 46.9055 48.6016H29.6436Z"
        fill="#C8E6C9" />
      <path
        d="M53.0042 54.1406H47.472C46.1141 54.1406 45.0132 55.2415 45.0132 56.5994C45.0132 57.9573 46.1141 59.0582 47.472 59.0582H53.0042V54.1406Z"
        fill="#293AA2" />
      <path
        d="M47.4718 55.3672C47.1458 55.3672 46.8331 55.4967 46.6025 55.7273C46.372 55.9578 46.2424 56.2705 46.2424 56.5966C46.2424 56.9226 46.372 57.2353 46.6025 57.4659C46.8331 57.6964 47.1458 57.826 47.4718 57.826C47.7979 57.826 48.1106 57.6964 48.3411 57.4659C48.5717 57.2353 48.7012 56.9226 48.7012 56.5966C48.7012 56.2705 48.5717 55.9578 48.3411 55.7273C48.1106 55.4967 47.7979 55.3672 47.4718 55.3672Z"
        fill="#FFECB3" />
    </g>
    <g opacity="0.1" filter="url(#filter1_f_4007_50604)">
      <circle cx="30.6731" cy="50.6547" r="10.6547" fill="#7BF500" />
    </g>
    <g opacity="0.1" filter="url(#filter2_f_4007_50604)">
      <circle cx="48.8236" cy="59.0592" r="12.7037" fill="#0500F5" />
    </g>
    <path
      d="M43.9702 26.904H37.7798C37.1482 26.904 36.8955 26.2714 36.8955 26.0184C36.8955 25.3858 37.5271 25.1328 37.7798 25.1328H43.9702C44.4756 25.1328 44.8545 25.7654 44.8545 26.0184C44.8545 26.651 44.4756 26.904 43.9702 26.904Z"
      fill="#4E6781" />
    <path
      d="M34.2226 26.904H33.97C33.3384 26.904 33.0857 26.2714 33.0857 26.0184C33.0857 25.3858 33.7173 25.1328 33.97 25.1328H34.2226C34.8543 25.1328 35.107 25.7654 35.107 26.0184C35.107 26.651 34.7281 26.904 34.2226 26.904Z"
      fill="#4E6781" />
  </g>
  <defs>
    <filter id="filter0_d_4007_50604" x="19.226" y="37.9514" width="41.7401" height="35.592"
      filterUnits="userSpaceOnUse" color-interpolation-filters="sRGB">
      <feFlood flood-opacity="0" result="BackgroundImageFix" />
      <feColorMatrix in="SourceAlpha" type="matrix"
        values="0 0 0 0 0 0 0 0 0 0 0 0 0 0 0 0 0 0 127 0" result="hardAlpha" />
      <feOffset dy="0.995224" />
      <feGaussianBlur stdDeviation="3.98089" />
      <feComposite in2="hardAlpha" operator="out" />
      <feColorMatrix type="matrix"
        values="0 0 0 0 0.134528 0 0 0 0 0.281314 0 0 0 0 0.566251 0 0 0 0.11 0" />
      <feBlend mode="normal" in2="BackgroundImageFix" result="effect1_dropShadow_4007_50604" />
      <feBlend mode="normal" in="SourceGraphic" in2="effect1_dropShadow_4007_50604" result="shape" />
    </filter>
    <filter id="filter1_f_4007_50604" x="5.73393" y="25.7156" width="49.8783" height="49.8783"
      filterUnits="userSpaceOnUse" color-interpolation-filters="sRGB">
      <feFlood flood-opacity="0" result="BackgroundImageFix" />
      <feBlend mode="normal" in="SourceGraphic" in2="BackgroundImageFix" result="shape" />
      <feGaussianBlur stdDeviation="7.14219" result="effect1_foregroundBlur_4007_50604" />
    </filter>
    <filter id="filter2_f_4007_50604" x="-3.68907" y="6.54653" width="105.025" height="105.025"
      filterUnits="userSpaceOnUse" color-interpolation-filters="sRGB">
      <feFlood flood-opacity="0" result="BackgroundImageFix" />
      <feBlend mode="normal" in="SourceGraphic" in2="BackgroundImageFix" result="shape" />
      <feGaussianBlur stdDeviation="19.9045" result="effect1_foregroundBlur_4007_50604" />
    </filter>
    <clipPath id="clip0_4007_50604">
      <rect width="80" height="80" rx="40" fill="white" />
    </clipPath>
  </defs>
</svg>