<svg xmlns="http://www.w3.org/2000/svg" viewBox="0 0 14 14" fill="none">
  <path d="M1.52973 4.66931C1.19865 4.66931 1 4.47197 1 4.20883V2.03799C1 1.11703 1.72838 0.39342 2.65541 0.39342H4.77432C5.03919 0.39342 5.30405 0.590769 5.30405 0.919684C5.30405 1.2486 5.03919 1.38016 4.77432 1.38016H2.65541C2.25811 1.38016 1.99324 1.70908 1.99324 2.03799V4.20883C1.99324 4.47197 1.79459 4.66931 1.52973 4.66931ZM11.5284 12.5633H9.40946C9.14459 12.5633 8.87973 12.3659 8.87973 12.037C8.87973 11.7739 9.07838 11.5107 9.40946 11.5107H11.5284C11.9257 11.5107 12.1905 11.1818 12.1905 10.8529V8.68208C12.1905 8.41895 12.3892 8.15581 12.7203 8.15581C13.0514 8.15581 13.25 8.35316 13.25 8.68208V10.8529C13.1838 11.7739 12.4554 12.5633 11.5284 12.5633ZM12.7203 4.66931C12.4554 4.66931 12.1905 4.47197 12.1905 4.14305V2.03799C12.1905 1.6433 11.8595 1.38016 11.5284 1.38016H9.34324C9.07838 1.38016 8.81351 1.18282 8.81351 0.853901C8.81351 0.524986 9.01216 0.327637 9.34324 0.327637H11.5284C12.4554 0.327637 13.1838 1.05125 13.1838 1.97221V4.07727C13.1838 4.40618 12.9851 4.66931 12.7203 4.66931ZM4.84054 12.4975H2.65541C1.72838 12.4975 1 11.7739 1 10.8529V8.74786C1 8.48473 1.19865 8.2216 1.52973 8.2216C1.86081 8.2216 2.05946 8.41895 2.05946 8.74786V10.8529C2.05946 11.2476 2.39054 11.5107 2.72162 11.5107H4.90676C5.17162 11.5107 5.43649 11.7081 5.43649 12.037C5.30405 12.3001 5.10541 12.4975 4.84054 12.4975ZM12.7203 6.97172H1.46351C1.19865 6.97172 1.06622 6.77437 1.06622 6.57702V6.44546C1.06622 6.18232 1.26486 6.05076 1.46351 6.05076H12.7203C12.9851 6.05076 13.1176 6.24811 13.1176 6.44546V6.57702C13.1176 6.77437 12.9189 6.97172 12.7203 6.97172Z" fill="currentColor"/>
</svg>
