<svg width="56" height="56" viewBox="0 0 56 56" fill="none" xmlns="http://www.w3.org/2000/svg">
<rect width="56" height="56" rx="28" fill="#2ABB7F"/>
<path d="M37.8867 16.1016H17.4141C16.302 16.1016 15.4004 16.9242 15.4004 17.9391V38.7641C15.4004 39.7789 16.302 40.6016 17.4141 40.6016H37.8867C38.9988 40.6016 39.9004 39.7789 39.9004 38.7641V17.9391C39.9004 16.9242 38.9988 16.1016 37.8867 16.1016Z" stroke="white" stroke-width="2.1" stroke-linecap="round" stroke-linejoin="round"/>
<ellipse cx="36.0508" cy="37.4516" rx="8.75" ry="7.35" fill="#2ABB7F"/>
<path d="M31.9396 39.3538L35.7675 41.4991L41.665 34.9998" stroke="white" stroke-width="2.1" stroke-linecap="round" stroke-linejoin="round"/>
<path d="M28.1141 23.1752L24.4303 33.793H22.2031L26.8438 21.543H28.2665L28.1141 23.1752ZM31.1966 33.793L27.5044 23.1752L27.3435 21.543H28.7746L33.4323 33.793H31.1966ZM31.0188 29.2497V30.924H24.3118V29.2497H31.0188Z" fill="white" stroke="white" stroke-width="0.7" stroke-linecap="round" stroke-linejoin="round"/>
</svg>
