<svg xmlns="http://www.w3.org/2000/svg" width="52" height="52" viewBox="0 0 52 52" fill="none">
  <path d="M24.4346 1.72413C25.4605 1.43571 26.546 1.43571 27.5719 1.72413L43.1719 6.10947C44.3884 6.45147 45.4597 7.18166 46.2229 8.18884C46.986 9.19602 47.399 10.425 47.3991 11.6886V28.5139C47.3992 30.5335 46.9886 32.5321 46.1923 34.3881C45.3959 36.2441 44.2305 37.9188 42.7668 39.3104L42.341 39.7134L41.5025 40.4966L40.6824 41.2495L39.8808 41.971L39.0964 42.6622L38.3294 43.323L37.5798 43.9535C36.6608 44.7196 35.7186 45.4573 34.7544 46.1657L34.0893 46.6424C30.8068 48.9477 28.1418 50.1025 26.0033 50.1025C23.8648 50.1025 21.1998 48.9477 17.9173 46.6424L17.2521 46.1657C16.2879 45.4573 15.3457 44.7196 14.4268 43.9535L13.6771 43.323L12.9101 42.6622L12.1258 41.971L11.3241 41.2495L10.504 40.4966L10.0869 40.1088L9.23976 39.3104C7.77603 37.9188 6.61058 36.2441 5.81424 34.3881C5.0179 32.5321 4.60731 30.5335 4.60742 28.5139V11.6886C4.6075 10.425 5.02054 9.19602 5.78365 8.18884C6.54676 7.18166 7.61812 6.45147 8.83459 6.10947L24.4346 1.72413ZM26.546 5.37388C26.1911 5.27403 25.8155 5.27403 25.4605 5.37388L9.86159 9.75922C9.44097 9.87754 9.07055 10.1301 8.80673 10.4784C8.54291 10.8267 8.40014 11.2517 8.40017 11.6886V28.5139C8.40003 30.0196 8.70613 31.5096 9.29985 32.8934C9.89357 34.2771 10.7625 35.5256 11.8538 36.563L12.246 36.9335L13.0184 37.655L13.7724 38.3484L14.5091 39.0114L15.2273 39.6462L15.9272 40.2529L16.2706 40.5443L16.9433 41.1076L17.5977 41.6406L18.2336 42.1455C18.4427 42.308 18.6474 42.4672 18.8511 42.621L19.4469 43.0674L19.7394 43.2808L20.3082 43.6838L20.8563 44.0586C20.9463 44.1193 21.0362 44.1778 21.1239 44.2352L21.6439 44.5667C23.5116 45.7291 24.9784 46.3109 26.0043 46.3109C27.0303 46.3109 28.496 45.7291 30.3648 44.5667L30.8848 44.2352C30.9725 44.1778 31.0624 44.1193 31.1523 44.0586L31.7005 43.6838C31.7937 43.6188 31.8879 43.5538 31.9822 43.4855L32.5607 43.0674L32.8575 42.8475L33.4642 42.386L33.7751 42.1455L34.411 41.6406L35.0653 41.1065L35.399 40.8292L36.0815 40.2518C36.1963 40.1543 36.3123 40.0535 36.4282 39.9528L37.1388 39.332L37.8658 38.6831L38.6111 38.005L39.3748 37.2975L40.1548 36.562C41.246 35.5247 42.1149 34.2763 42.7086 32.8928C43.3023 31.5093 43.6085 30.0194 43.6085 28.5139V11.6886C43.6082 11.2517 43.4652 10.8269 43.2012 10.4788C42.9372 10.1307 42.5666 9.87838 42.146 9.7603L26.546 5.37388ZM26.0033 16.685C26.8791 16.6841 27.7297 16.9781 28.4181 17.5195C29.1064 18.0609 29.5926 18.8183 29.7981 19.6696C30.0037 20.521 29.9167 21.4167 29.5512 22.2126C29.1856 23.0085 28.5629 23.6582 27.7832 24.057V31.1215C27.7853 31.5689 27.6144 31.9999 27.3061 32.3242C26.9978 32.6485 26.576 32.841 26.129 32.8614C25.682 32.8819 25.2444 32.7286 24.9078 32.4338C24.5712 32.139 24.3617 31.7254 24.323 31.2796L24.3154 31.1215V24.1036C23.517 23.722 22.8721 23.0801 22.4866 22.2834C22.1012 21.4868 21.9982 20.5827 22.1945 19.7198C22.3909 18.8568 22.8749 18.0863 23.567 17.5348C24.2591 16.9833 25.1183 16.6836 26.0033 16.685Z" fill="currentColor"/>
</svg>
