<svg width="80" height="80" viewBox="0 0 80 80" fill="none" xmlns="http://www.w3.org/2000/svg">
<path d="M19.6587 5.33331C18.4091 6.23023 17.3966 7.41785 16.7087 8.79361C16.0209 10.1694 15.6782 11.6919 15.7105 13.2297C15.6782 14.7675 16.0209 16.2901 16.7087 17.6658C17.3966 19.0416 18.4091 20.2292 19.6587 21.1261" stroke="white" stroke-width="5.41556" stroke-linecap="round" stroke-linejoin="round"/>
<path d="M34.4425 5.33331C33.1929 6.23023 32.1804 7.41785 31.4926 8.79361C30.8047 10.1694 30.4621 11.6919 30.4943 13.2297C30.4624 14.7675 30.8052 16.2899 31.493 17.6656C32.1809 19.0413 33.1931 20.229 34.4425 21.1261" stroke="white" stroke-width="5.41556" stroke-linecap="round" stroke-linejoin="round"/>
<path d="M49.7107 5.33331C48.4611 6.23023 47.4486 7.41785 46.7608 8.79361C46.0729 10.1694 45.7302 11.6919 45.7625 13.2297C45.7306 14.7675 46.0734 16.2899 46.7612 17.6656C47.4491 19.0413 48.4613 20.229 49.7107 21.1261" stroke="white" stroke-width="5.41556" stroke-linecap="round" stroke-linejoin="round"/>
<path d="M60.3177 59.5232C62.081 60.3326 64.0161 60.6965 65.953 60.5829C67.8898 60.4693 69.7691 59.8817 71.4256 58.8716C73.0821 57.8616 74.4652 56.4601 75.4532 54.7903C76.4412 53.1205 77.0039 51.2336 77.0918 49.2954C77.1797 47.3573 76.7902 45.4271 75.9574 43.6748C75.1247 41.9224 73.8742 40.4014 72.3159 39.2455C70.7577 38.0897 68.9393 37.3343 67.0207 37.0458C65.1021 36.7572 63.142 36.9445 61.3127 37.5909" stroke="white" stroke-width="5.41556" stroke-linecap="round" stroke-linejoin="round"/>
<path d="M6.02087 32.9844H61.2957V52.7254C61.2957 59.0081 58.7998 65.0336 54.3573 69.4762C49.9147 73.9187 43.8892 76.4146 37.6065 76.4146H29.7101C23.4273 76.4146 17.4019 73.9187 12.9593 69.4762C8.51669 65.0336 6.02087 59.0081 6.02087 52.7254V32.9844Z" fill="white" stroke="white" stroke-width="5.41556" stroke-linecap="round" stroke-linejoin="round"/>
</svg>
