<svg xmlns="http://www.w3.org/2000/svg" width="20" height="20" viewBox="0 0 20 20" fill="none">
  <path d="M17.7959 5.84277C17.975 5.8122 18.1581 5.85467 18.3164 5.96777L18.3828 6.02051L18.3896 6.02734L18.4902 6.14746C18.69 6.43199 18.7251 6.82783 18.5605 7.15039V7.16895L18.5283 7.21191V7.21387C18.5279 7.21442 18.527 7.21491 18.5264 7.21582C18.5248 7.21798 18.5225 7.22155 18.5195 7.22559C18.5136 7.23357 18.5045 7.24483 18.4932 7.25977C18.4701 7.29015 18.4353 7.33455 18.3906 7.39062C18.3011 7.50296 18.1693 7.66377 17.998 7.85645C17.6792 8.21512 17.221 8.68443 16.6504 9.17188L18.0957 10.8799L18.1006 10.8857V10.8867C18.3598 11.2242 18.361 11.7276 18.0635 12.0664C17.9139 12.2367 17.7176 12.3309 17.5127 12.3311C17.3077 12.3311 17.1115 12.2365 16.9619 12.0664L16.96 12.0645L15.4189 10.2471C14.6807 10.8135 13.8186 11.3461 12.876 11.7412L13.4775 14.0234L13.4785 14.0273C13.5825 14.4616 13.3873 14.9263 12.9756 15.0762C12.9318 15.1077 12.8856 15.1207 12.8535 15.126C12.8111 15.1329 12.7662 15.1318 12.7393 15.1318C12.4142 15.1318 12.0799 14.8676 12.001 14.4883L12 14.4893L11.4014 12.2178C10.9521 12.3056 10.4787 12.3652 10.0029 12.3652C9.52699 12.3652 9.05369 12.3055 8.60449 12.2178L8.00586 14.5234L8.00488 14.5225C7.92758 14.8968 7.62701 15.167 7.2666 15.167H7.05859L7.03516 15.1592C6.5994 15.0239 6.38925 14.5432 6.49609 14.0967L6.49707 14.0938L7.09961 11.7754C6.15659 11.3803 5.29313 10.8489 4.55469 10.2822L2.98535 12.1328L2.9834 12.1357C2.83372 12.306 2.63759 12.3994 2.43262 12.3994C2.24857 12.3994 2.03486 12.3187 1.93164 12.123C1.64602 11.8171 1.61565 11.2849 1.91211 10.9473L3.35742 9.2373C2.82922 8.75401 2.39438 8.29981 2.08008 7.94629C1.91124 7.75638 1.7765 7.59521 1.67969 7.47461C1.59817 7.37306 1.53862 7.2931 1.50977 7.24902V7.25C1.37499 7.07456 1.32141 6.85121 1.33496 6.64062C1.34852 6.43007 1.43077 6.21681 1.58594 6.0625C1.90178 5.74801 2.40743 5.79553 2.67969 6.13965L2.85059 6.34863C3.17015 6.73156 3.91834 7.58346 4.9375 8.43457C6.30144 9.5736 8.11764 10.6826 10.0029 10.6826C11.9497 10.6826 13.7582 9.58102 15.0977 8.45215C16.3591 7.389 17.1758 6.32779 17.2842 6.18848C17.4123 6.00176 17.5937 5.87731 17.7959 5.84277Z" fill="currentColor" stroke="currentColor" stroke-width="0.333333"/>
</svg>