<svg xmlns="http://www.w3.org/2000/svg" width="20" height="20" viewBox="0 0 20 20" fill="none">
  <path d="M18.1525 8.75C18.2723 9.15609 18.3341 9.57725 18.3341 10.002C18.3341 10.6797 18.1769 11.3479 17.8771 11.9609C16.4627 14.8522 13.3656 16.6678 10.0001 16.668C6.63498 16.6679 3.53875 14.8526 2.12415 11.9619C1.82451 11.3523 1.66804 10.6822 1.66711 10.0029L2.50012 10.002H1.66711C1.66711 9.57723 1.72826 9.15613 1.84778 8.75H3.63293C3.62887 8.75822 3.62427 8.76617 3.62024 8.77441C3.43032 9.1627 3.33421 9.58088 3.33411 10.001C3.33475 10.4262 3.43262 10.846 3.62024 11.2275V11.2285C4.7308 13.4986 7.21429 15.0018 10.0001 15.002C12.786 15.0018 15.2695 13.4987 16.38 11.2285C16.5699 10.8402 16.6671 10.4221 16.6671 10.002C16.6671 9.58164 16.57 9.1629 16.38 8.77441C16.376 8.76622 16.3714 8.75817 16.3673 8.75H18.1525ZM13.089 8.75C13.2462 9.1369 13.3341 9.55962 13.3341 10.0029C13.3341 11.8438 11.8409 13.3367 10.0001 13.3369C8.15934 13.3367 6.66712 11.8438 6.66711 10.0029C6.66716 9.55965 6.75413 9.13688 6.91125 8.75H8.90442C8.55543 9.05535 8.3342 9.50268 8.33411 10.0029C8.33411 10.9233 9.07981 11.6697 10.0001 11.6699C10.9204 11.6697 11.6671 10.9233 11.6671 10.0029C11.667 9.50269 11.445 9.05535 11.0958 8.75H13.089Z" fill="currentColor"/>
  <rect y="6.25" width="20" height="1.875" rx="0.9375" fill="currentColor"/>
</svg>