<svg xmlns="http://www.w3.org/2000/svg" width="20" height="20" viewBox="0 0 20 20" fill="none">
  <path d="M9.99976 3.00195C13.6347 3.00195 16.98 4.90836 18.5076 7.94434C18.8314 8.58805 18.9998 9.29021 18.9998 10.002C18.9997 10.7137 18.8315 11.4159 18.5076 12.0596C16.9799 15.0954 13.6346 17.002 9.99976 17.002C6.36531 17.0018 3.02162 15.095 1.4939 12.0596C1.17032 11.4195 1.00075 10.7162 0.999756 10.0029L1.90015 10.002H0.999756C0.999756 9.29016 1.16905 8.58808 1.49292 7.94434C3.02045 4.90845 6.36498 3.00207 9.99976 3.00195ZM9.99976 4.75195C6.99109 4.75207 4.30955 6.32934 3.11011 8.71289C2.90495 9.12064 2.80064 9.55982 2.80054 10.001C2.80124 10.4473 2.90661 10.8875 3.10913 11.2881L3.11011 11.29C4.30948 13.6737 6.99098 15.2518 9.99976 15.252C13.0087 15.252 15.691 13.6738 16.8904 11.29C17.0955 10.8822 17.1999 10.4432 17.2 10.002C17.2 9.56057 17.0956 9.12084 16.8904 8.71289C15.6909 6.32918 13.0086 4.75195 9.99976 4.75195ZM9.99976 6.66992C11.8406 6.66992 13.3336 8.16213 13.3337 10.0029C13.3337 11.8439 11.8407 13.3369 9.99976 13.3369C8.15896 13.3367 6.66675 11.8438 6.66675 10.0029C6.66692 8.16224 8.15907 6.6701 9.99976 6.66992ZM9.99976 8.33691C9.07954 8.33709 8.33392 9.08271 8.33374 10.0029C8.33374 10.9233 9.07943 11.6697 9.99976 11.6699C10.9202 11.6699 11.6667 10.9234 11.6667 10.0029C11.6666 9.08261 10.9201 8.33691 9.99976 8.33691Z" fill="currentColor"/>
</svg>