<svg xmlns="http://www.w3.org/2000/svg" viewBox="0 0 28 28" fill="none">
  <path fill-rule="evenodd" clip-rule="evenodd"
    d="M14 28C21.732 28 28 21.732 28 14C28 6.26801 21.732 0 14 0C6.26801 0 0 6.26801 0 14C0 21.732 6.26801 28 14 28ZM14.6667 8.82834C14.6668 7.86184 13.8834 7.07824 12.9169 7.07812C11.9504 7.07801 11.1668 7.86141 11.1667 8.82791L11.166 14.0933C11.166 14.6148 11.3984 15.1091 11.8002 15.4416L16.2918 19.1595C17.0364 19.7758 18.1395 19.6718 18.7558 18.9273C19.372 18.1828 19.2681 17.0796 18.5235 16.4634L14.6661 13.2704L14.6667 8.82834Z"
    fill="currentColor" />
</svg>
