<svg width="28" height="28" viewBox="0 0 28 28" fill="none" xmlns="http://www.w3.org/2000/svg">
<g clip-path="url(#clip0_56895_248640)">
<path d="M14 0C21.732 0 28 6.26802 28 14C28 21.732 21.732 28 14 28C6.26802 28 0 21.732 0 14C0 6.26802 6.26802 0 14 0ZM13.2188 12.1562C13.0238 10.9558 11.8919 10.1402 10.6914 10.335C9.49104 10.53 8.67633 11.6618 8.87109 12.8623C9.06616 14.0626 10.1971 14.8774 11.3975 14.6826C12.5979 14.4877 13.4135 13.3567 13.2188 12.1562ZM18.9736 12.1562C18.7788 10.9558 17.6477 10.1402 16.4473 10.335C15.2469 10.5299 14.4321 11.6618 14.627 12.8623C14.822 14.0626 15.9528 14.8774 17.1533 14.6826C18.3537 14.4877 19.1685 13.3567 18.9736 12.1562ZM13.9189 3.41797C7.9399 3.41814 3.09225 8.35847 3.09375 14.4502H5.85938C5.85958 9.88504 9.43922 6.18376 13.9189 6.18359C18.3988 6.18359 21.9793 9.88493 21.9795 14.4502H24.7451C24.7459 8.35836 19.8977 3.41797 13.9189 3.41797Z" fill="currentColor"/>
</g>
<defs>
<clipPath id="clip0_56895_248640">
<rect width="28" height="28" fill="white"/>
</clipPath>
</defs>
</svg>
