<svg xmlns="http://www.w3.org/2000/svg" width="28" height="22" viewBox="0 0 28 22" fill="none">
  <path d="M27.999 10.894C28.0246 13.3196 27.5435 15.6373 26.5985 17.8518C25.2491 21.005 22.0139 23.5833 19.0596 20.8388C16.6502 18.6019 16.2032 15.894 12.5935 15.2292C7.81721 14.6184 7.70228 18.6288 4.582 19.2891C1.10414 20.0348 -0.0494684 13.8631 0.00161402 11.0602C0.0526964 8.25734 0.759336 4.31805 3.78171 4.31805C7.25957 4.31805 7.49369 8.04108 11.9081 7.74014C16.2799 7.42572 16.3565 3.47808 19.2128 1.00311C21.6775 -1.13497 24.5765 0.432655 26.028 3.00645C27.3733 5.38709 27.965 8.18097 27.9947 10.894H27.999Z" fill="currentColor"/>
</svg>