<svg width="28" height="28" viewBox="0 0 28 28" fill="none" xmlns="http://www.w3.org/2000/svg">
<g clip-path="url(#clip0_41997_130743)">
<path fill-rule="evenodd" clip-rule="evenodd" d="M28 14C28 15.8385 27.6378 17.659 26.9343 19.3576C26.2307 21.0561 25.1995 22.5995 23.8995 23.8995C22.5994 25.1995 21.0561 26.2307 19.3575 26.9343C17.659 27.6379 15.8385 28 14 28C12.1615 28 10.341 27.6379 8.64239 26.9343C6.94384 26.2307 5.40049 25.1995 4.10047 23.8995C2.80045 22.5995 1.76921 21.0561 1.06565 19.3576C0.362083 17.659 -3.73426e-05 15.8385 -3.73426e-05 14C-3.73426e-05 10.287 1.47496 6.72601 4.10047 4.10051C6.72598 1.475 10.2869 9.84962e-07 14 1.32214e-06C17.713 6.47787e-07 21.2739 1.475 23.8995 4.10051C26.525 6.72601 28 10.287 28 14ZM20.5002 7.50019C20.3036 7.30354 20.0562 7.16552 19.7857 7.10161C19.5151 7.03769 19.2321 7.05041 18.9684 7.13833L10.8062 9.85906C10.5857 9.93251 10.3853 10.0563 10.221 10.2207C10.0566 10.385 9.93284 10.5854 9.85939 10.8059L7.13866 18.9681C7.05049 19.2318 7.03756 19.515 7.10135 19.7857C7.16513 20.0564 7.30309 20.3039 7.49975 20.5006C7.69641 20.6973 7.94398 20.8352 8.21469 20.899C8.48539 20.9628 8.76852 20.9499 9.03229 20.8617L17.1945 18.141C17.415 18.0675 17.6153 17.9437 17.7797 17.7794C17.944 17.615 18.0678 17.4146 18.1413 17.1941L20.862 9.03196C20.9499 8.76823 20.9627 8.48521 20.8987 8.21466C20.8348 7.9441 20.6968 7.6967 20.5002 7.50019ZM12.7176 15.2824C12.0092 14.5741 12.0092 13.4257 12.7176 12.7173C13.4259 12.009 14.5744 12.009 15.2827 12.7173C15.991 13.4257 15.991 14.5741 15.2827 15.2824C14.5744 15.9908 13.4259 15.9908 12.7176 15.2824Z" fill="#5267E8"/>
</g>
<defs>
<clipPath id="clip0_41997_130743">
<rect width="28" height="28" fill="white"/>
</clipPath>
</defs>
</svg>
