<svg xmlns="http://www.w3.org/2000/svg" width="23" height="23" viewBox="0 0 23 23" fill="none">
  <path d="M17.9505 16.2406C17.9505 16.479 17.9098 16.7017 17.8282 16.9088C17.7466 17.1158 17.6306 17.2978 17.48 17.4546C17.3294 17.6115 17.1537 17.7338 16.9529 17.8217C16.7522 17.9095 16.5326 17.9534 16.2941 17.9534H2.62873C2.3903 17.9534 2.16443 17.9095 1.9511 17.8217C1.73778 17.7338 1.54955 17.6115 1.38642 17.4546C1.22328 17.2978 1.09466 17.1158 1.00055 16.9088C0.906432 16.7017 0.859375 16.479 0.859375 16.2406V6.84794C0.859375 6.3711 1.02564 5.96641 1.35818 5.63387C1.69072 5.30133 2.09541 5.13506 2.57226 5.13506H16.2377C16.7145 5.13506 17.1192 5.30133 17.4517 5.63387C17.7843 5.96641 17.9505 6.3711 17.9505 6.84794V9.40786H13.6778C13.2009 9.40786 12.7962 9.57099 12.4637 9.89725C12.1311 10.2235 11.9649 10.6251 11.9649 11.1019C11.9774 11.4282 12.0464 11.7168 12.1719 11.9678C12.2723 12.1811 12.4386 12.3756 12.6707 12.5513C12.9029 12.727 13.2386 12.8148 13.6778 12.8148H17.9505V16.2406ZM15.3906 4.26921H6.84505C7.52267 3.91785 8.16265 3.57904 8.76498 3.25278C9.29202 2.97671 9.81279 2.70064 10.3273 2.42457C10.8418 2.1485 11.2433 1.93517 11.5319 1.78459C11.9711 1.54617 12.3633 1.43637 12.7084 1.45519C13.0535 1.47401 13.3452 1.53362 13.5836 1.63401C13.8597 1.77204 14.0981 1.954 14.2989 2.17987L15.3906 4.26921ZM12.8307 11.1019C12.8307 10.8635 12.9123 10.6627 13.0754 10.4996C13.2386 10.3365 13.4393 10.2549 13.6778 10.2549C13.9162 10.2549 14.117 10.3365 14.2801 10.4996C14.4432 10.6627 14.5248 10.8635 14.5248 11.1019C14.5248 11.3403 14.4432 11.5443 14.2801 11.7137C14.117 11.8831 13.9162 11.9678 13.6778 11.9678C13.4393 11.9678 13.2386 11.8831 13.0754 11.7137C12.9123 11.5443 12.8307 11.3403 12.8307 11.1019Z" fill="currentColor"/>
</svg>