<svg xmlns="http://www.w3.org/2000/svg" width="22" height="22" viewBox="0 0 22 22" fill="none">
  <path d="M13.5122 17.5006H7.60891C6.50575 17.5007 5.42118 17.2164 4.45991 16.6752C3.49864 16.134 2.69315 15.354 2.1212 14.4107C1.54924 13.4674 1.23015 12.3926 1.19472 11.29C1.17418 10.6508 1.24937 10.0148 1.41559 9.40261C1.60927 8.68925 2.45549 8.4739 3.07053 8.88393C3.57326 9.21908 3.74018 9.86689 3.64701 10.4639C3.59849 10.7748 3.58653 11.0915 3.61225 11.4075C3.66636 12.0726 3.88559 12.7137 4.25008 13.2727C4.61456 13.8317 5.11278 14.2909 5.69957 14.6087C6.28637 14.9265 6.94319 15.0929 7.61052 15.0927H13.0555C13.3086 15.0927 13.5139 14.8875 13.5139 14.6344V13.8621C13.5139 13.496 13.9218 13.2777 14.2264 13.4807L17.7543 15.8327C18.0264 16.0141 18.0264 16.414 17.7543 16.5954L14.2264 18.9473C13.9218 19.1504 13.5139 18.932 13.5139 18.566V17.5022C13.5139 17.5013 13.5131 17.5006 13.5122 17.5006ZM8.64956 7.07349C8.39643 7.07349 8.19123 7.27869 8.19123 7.53182V8.15011C8.19123 8.51618 7.78324 8.73452 7.47865 8.53146L3.95076 6.17953C3.67863 5.99812 3.67863 5.59824 3.95076 5.41682L7.47865 3.06489C7.78324 2.86183 8.19123 3.08018 8.19123 3.44625V4.20891C8.19123 4.46204 8.39643 4.66724 8.64956 4.66724H14.0256C15.1276 4.66686 16.2112 4.95033 17.1719 5.49033C18.1326 6.03033 18.938 6.80866 19.5105 7.75032C20.0831 8.69198 20.4034 9.76522 20.4408 10.8666C20.4623 11.5036 20.3888 12.1375 20.2249 12.7481C20.0328 13.4631 19.1853 13.6799 18.5693 13.2693C18.0678 12.9349 17.9003 12.2892 17.992 11.6934C18.0398 11.3823 18.051 11.0656 18.0246 10.7496C17.969 10.0856 17.7489 9.44595 17.3842 8.88838C17.0194 8.33082 16.5215 7.87291 15.9354 7.55605C15.3493 7.23918 14.6935 7.07333 14.0272 7.07349H8.64956Z" fill="currentColor"/>
  <path d="M7.81836 2.77539C8.11549 2.57753 8.51367 2.79041 8.51367 3.14746V8.76758C8.51367 9.12469 8.11551 9.33769 7.81836 9.13965L3.60254 6.33008C3.33713 6.15314 3.33727 5.763 3.60254 5.58594L7.81836 2.77539Z" fill="currentColor" stroke="currentColor" stroke-width="0.0223796"/>
  <path d="M13.8145 19.2246C13.5173 19.4225 13.1191 19.2096 13.1191 18.8525V13.2324C13.1191 12.8753 13.5173 12.6623 13.8145 12.8604L18.0303 15.6699C18.2957 15.8469 18.2955 16.237 18.0303 16.4141L13.8145 19.2246Z" fill="currentColor" stroke="currentColor" stroke-width="0.0223796"/>
</svg>