<svg xmlns="http://www.w3.org/2000/svg" viewBox="0 0 28 28" fill="none">
  <path fill-rule="evenodd" clip-rule="evenodd"
    d="M28 14C28 15.9677 27.5941 17.8405 26.8614 19.5394C26.1502 18.5525 25.4476 17.6648 24.9442 17.0483C24.5598 16.5774 23.8562 16.5774 23.4718 17.0483C21.973 18.8839 18.708 23.1242 18.708 25.2268C18.708 25.8688 18.8443 26.4823 19.0923 27.045C17.5141 27.6616 15.7966 28 14 28C6.26801 28 0 21.732 0 14C0 6.26801 6.26801 0 14 0C21.732 0 28 6.26801 28 14ZM11.5006 17.7722L11.4972 17.7638L11.4932 17.7556C11.3442 17.447 11.1481 17.1871 10.8883 17.0049C10.6254 16.8206 10.3162 16.7291 9.96625 16.7291C9.51622 16.7291 9.12496 16.8645 8.84383 17.13C8.56125 17.3969 8.41895 17.7681 8.41895 18.1812C8.41895 18.4032 8.46541 18.6364 8.54932 18.8781C9.04913 20.3648 10.6607 21.5098 13.0273 21.7V22.5801C13.0273 22.7983 13.0946 23.004 13.2446 23.1561C13.3947 23.3084 13.5964 23.3752 13.8034 23.3752C14.0103 23.3752 14.212 23.3084 14.3621 23.1561C14.5121 23.004 14.5794 22.7983 14.5794 22.5801V21.6967C15.8786 21.5768 17.0179 21.1658 17.8546 20.4793C18.7586 19.7375 19.2925 18.6864 19.2925 17.391C19.2925 16.2731 18.923 15.405 18.1857 14.7454C17.4629 14.0988 16.4114 13.6749 15.0883 13.3755L14.5794 13.2646V10.5197C15.1981 10.6866 15.6133 11.065 15.8938 11.6546L15.8976 11.6628L15.902 11.6707C16.0713 11.9775 16.2805 12.2273 16.5473 12.3992C16.8164 12.5727 17.1246 12.6541 17.4691 12.6541C17.8858 12.6541 18.2608 12.536 18.5364 12.2979C18.8163 12.0562 18.9688 11.7116 18.9688 11.3163C18.9688 11.0778 18.9233 10.857 18.8609 10.6493L18.86 10.6462C18.3746 9.08908 16.78 7.95546 14.5794 7.72741V6.81269C14.5794 6.59452 14.5121 6.38881 14.3621 6.23668C14.212 6.08442 14.0103 6.01758 13.8034 6.01758C13.5964 6.01758 13.3947 6.08442 13.2446 6.23668C13.0946 6.38881 13.0273 6.59452 13.0273 6.81269V7.72276C11.7683 7.83238 10.6669 8.2436 9.85846 8.91873C8.98387 9.64906 8.46655 10.6776 8.46655 11.9162C8.46655 13.0196 8.83585 13.8948 9.55499 14.5627C10.2625 15.2199 11.2859 15.6549 12.5568 15.9412L13.0273 16.0493V18.9347C12.6355 18.8648 12.3401 18.7379 12.114 18.5763C11.8303 18.3735 11.6358 18.1017 11.5006 17.7722ZM13.3273 10.1452V13.2872C13.2226 13.2603 13.1226 13.2324 13.0273 13.2034C11.9095 12.8635 11.4325 12.3792 11.4325 11.6686C11.4325 10.9618 11.9763 10.3669 13.0273 10.1845C13.1231 10.1679 13.2231 10.1547 13.3273 10.1452ZM14.2794 19.2762V16.0294C14.3841 16.0555 14.484 16.0819 14.5794 16.1087C15.8736 16.4711 16.3361 16.8969 16.3361 17.6861C16.3361 18.4957 15.7505 19.0775 14.5794 19.2438C14.4834 19.2574 14.3834 19.2682 14.2794 19.2762Z"
    fill="currentColor" />
  <path
    d="M26.9166 25.3248C26.9166 26.8029 25.7041 28.0012 24.2083 28.0012C22.7125 28.0012 21.5 26.8029 21.5 25.3248C21.5 23.8466 24.2083 20.418 24.2083 20.418C24.2083 20.418 26.9166 23.8466 26.9166 25.3248Z"
    fill="currentColor" />
</svg>
