<svg width="24" height="24" viewBox="0 0 24 24" fill="none" xmlns="http://www.w3.org/2000/svg">
<rect width="24" height="24" rx="6" fill="#58C669" fill-opacity="0.14"/>
<path d="M12 8.4V18M12 8.4H9.87857C9.56599 8.4 9.26622 8.27357 9.0452 8.04853C8.82417 7.82348 8.7 7.51826 8.7 7.2C8.7 6.88174 8.82417 6.57652 9.0452 6.35147C9.26622 6.12643 9.56599 6 9.87857 6C11.5286 6 12 8.4 12 8.4ZM12 8.4H14.1214C14.434 8.4 14.7338 8.27357 14.9548 8.04853C15.1758 7.82348 15.3 7.51826 15.3 7.2C15.3 6.88174 15.1758 6.57652 14.9548 6.35147C14.7338 6.12643 14.434 6 14.1214 6C12.4714 6 12 8.4 12 8.4ZM16.8 11.4V16.08C16.8 16.7521 16.8 17.0881 16.6692 17.3448C16.5542 17.5706 16.3706 17.7542 16.1448 17.8692C15.8881 18 15.5521 18 14.88 18H9.12C8.44793 18 8.1119 18 7.85521 17.8692C7.62941 17.7542 7.44584 17.5706 7.33079 17.3448C7.2 17.0881 7.2 16.7521 7.2 16.08V11.4M6 9.36V10.44C6 10.776 6 10.9441 6.06539 11.0724C6.12292 11.1853 6.21471 11.2771 6.32761 11.3346C6.45595 11.4 6.62397 11.4 6.96 11.4H17.04C17.3761 11.4 17.5441 11.4 17.6724 11.3346C17.7853 11.2771 17.8771 11.1853 17.9346 11.0724C18 10.9441 18 10.776 18 10.44V9.36C18 9.02397 18 8.85595 17.9346 8.72761C17.8771 8.61471 17.7853 8.52292 17.6724 8.46539C17.5441 8.4 17.3761 8.4 17.04 8.4H6.96C6.62397 8.4 6.45595 8.4 6.32761 8.46539C6.21471 8.52292 6.12292 8.61471 6.06539 8.72761C6 8.85595 6 9.02397 6 9.36Z" stroke="#58C669" stroke-width="1.5" stroke-linecap="round" stroke-linejoin="round"/>
</svg>
