<svg xmlns="http://www.w3.org/2000/svg" viewBox="0 0 28 28" fill="none">
  <path fill-rule="evenodd" clip-rule="evenodd"
    d="M8.35182 0.447926C4.13086 0.781159 0.778474 4.13354 0.44524 8.35451C0.148462 12.1137 0.148462 15.8904 0.44524 19.6496C0.778474 23.8706 4.13086 27.223 8.35182 27.5562C12.111 27.853 15.8877 27.853 19.6469 27.5562C23.8679 27.223 27.2203 23.8706 27.5535 19.6496C27.8503 15.8904 27.8503 12.1137 27.5535 8.35451C27.2203 4.13354 23.8679 0.781159 19.6469 0.447926C15.8877 0.151147 12.111 0.151147 8.35182 0.447926ZM13.9986 5.69933C11.7267 5.69933 9.65211 6.42591 8.14164 7.77818C6.62741 9.13381 5.6986 11.1024 5.6986 13.5429C5.6986 14.4941 6.42521 15.2993 7.36235 15.2993C8.29948 15.2993 9.0261 14.4941 9.0261 13.5429C9.0261 12.072 9.58026 11.0029 10.4586 10.295C11.3456 9.58015 12.5909 9.21216 13.9986 9.21216C15.4063 9.21216 16.6516 9.58015 17.5386 10.295C18.4169 11.0029 18.9711 12.072 18.9711 13.5429C18.9711 14.4941 19.6977 15.2993 20.6348 15.2993C21.572 15.2993 22.2986 14.4941 22.2986 13.5429C22.2986 11.1024 21.3698 9.13381 19.8556 7.77818C18.3451 6.42591 16.2705 5.69933 13.9986 5.69933ZM7.3252 21.64C8.61025 21.64 9.652 20.5983 9.652 19.3132C9.652 18.0282 8.61025 16.9864 7.3252 16.9864C6.04015 16.9864 4.9984 18.0282 4.9984 19.3132C4.9984 20.5983 6.04015 21.64 7.3252 21.64ZM20.7256 21.64C22.0106 21.64 23.0524 20.5983 23.0524 19.3132C23.0524 18.0282 22.0106 16.9864 20.7256 16.9864C19.4405 16.9864 18.3988 18.0282 18.3988 19.3132C18.3988 20.5983 19.4405 21.64 20.7256 21.64Z"
    fill="currentColor" />
</svg>
