<svg xmlns="http://www.w3.org/2000/svg" viewBox="0 0 27 26" fill="none">
  <path
    d="M24.4725 0.0865204L2.26959 6.91572C0.724594 7.39104 0.443602 9.45654 1.80568 10.3274L7.70906 13.8642C8.05019 14.0823 8.45212 14.1854 8.85609 14.1587C9.26005 14.1319 9.64486 13.9766 9.95426 13.7155L16.8286 9.43291C17.2724 9.0584 17.8714 9.65689 17.4969 10.1012L13.2148 16.977C12.9537 17.2864 12.7985 17.6711 12.7718 18.075C12.7452 18.4789 12.8484 18.8808 13.0665 19.2218L16.6025 25.1243C17.4728 26.486 19.5387 26.205 20.0141 24.6604L26.8432 2.45765C27.2907 1.00204 25.9277 -0.360974 24.4725 0.0865204Z"
    fill="currentColor" />
</svg>
