<svg width="14" height="14" viewBox="0 0 14 14" fill="none" xmlns="http://www.w3.org/2000/svg">
<g id="&#233;&#146;&#137;&#229;&#173;&#144;(&#229;&#174;&#158;&#229;&#191;&#131;) 2">
<path id="Subtract" fill-rule="evenodd" clip-rule="evenodd" d="M9.85904 7.19469C10.0949 7.00069 10.3262 6.89637 10.5286 6.89637C10.5954 6.89637 10.6678 6.89749 10.7335 6.89971C11.012 6.91197 11.433 6.9298 11.746 6.61668C11.9387 6.4239 12.0456 6.1676 12.0445 5.89348C12.0434 5.61936 11.9376 5.36195 11.7438 5.16806C11.7204 5.14465 9.47492 2.90041 9.2555 2.68534C9.2477 2.67754 9.24102 2.67086 9.23211 2.66417C8.82445 2.3321 8.23747 2.36219 7.86657 2.73437C7.55312 3.04685 7.57022 3.46585 7.58136 3.73891L7.58143 3.74061C7.58181 3.76419 7.58231 3.78802 7.5828 3.8118C7.58379 3.85884 7.58477 3.9057 7.58477 3.9501C7.58477 4.10246 7.50958 4.29061 7.37712 4.48713L9.85904 7.19469ZM5.2296 5.52241C3.97942 5.28911 3.41182 6.11747 3.34336 6.22555C3.23978 6.40607 3.26763 6.63339 3.41354 6.77825L4.90159 8.26699L3.00365 10.8377C2.86888 11.0183 2.88781 11.2667 3.04932 11.4294C3.13842 11.5186 3.25426 11.5643 3.3701 11.5643C3.46366 11.5643 3.55722 11.5353 3.6363 11.4751L6.2326 9.59861L7.70284 11.0695C7.85097 11.2177 8.08042 11.2456 8.2642 11.1341C8.35259 11.0784 9.02779 10.618 9.00072 9.63635L5.2296 5.52241Z" fill="currentColor"/>
<path id="Vector 164" d="M4.54431 3.08667L11.7182 10.9128" stroke="currentColor" stroke-width="0.978261" stroke-linecap="round" stroke-linejoin="round"/>
</g>
</svg>
