<svg xmlns="http://www.w3.org/2000/svg" width="26" height="26" viewBox="0 0 26 26" fill="none">
  <path fill-rule="evenodd" clip-rule="evenodd"
    d="M0 19.9328V10.1843H26V19.9328C26 22.326 24.0599 24.2661 21.6667 24.2661H4.33333C1.9401 24.2661 0 22.326 0 19.9328ZM4.78418 13.8985C3.95575 13.8985 3.28418 14.5701 3.28418 15.3985C3.28418 16.2269 3.95575 16.8985 4.78418 16.8985H9.78418C10.6126 16.8985 11.2842 16.2269 11.2842 15.3985C11.2842 14.5701 10.6126 13.8985 9.78418 13.8985H4.78418Z"
    fill="currentColor" />
  <path fill-rule="evenodd" clip-rule="evenodd"
    d="M4.33333 2.16797C1.9401 2.16797 0 4.10807 0 6.50131V7H26V6.5013C26 4.10807 24.0599 2.16797 21.6667 2.16797H4.33333Z"
    fill="currentColor" />
</svg>
