<svg width="24" height="24" viewBox="0 0 24 24" fill="none" xmlns="http://www.w3.org/2000/svg">
<g id="&#231;&#144;&#134;&#232;&#180;&#162; 1">
<path id="Vector" d="M18.4169 16.7738C18.4169 17.0122 18.3761 17.2349 18.2945 17.442C18.2129 17.649 18.0969 17.831 17.9463 17.9878C17.7957 18.1447 17.62 18.267 17.4192 18.3549C17.2185 18.4427 16.9989 18.4866 16.7604 18.4866H3.09503C2.85661 18.4866 2.63074 18.4427 2.41741 18.3549C2.20408 18.267 2.01586 18.1447 1.85272 17.9878C1.68959 17.831 1.56097 17.649 1.46686 17.442C1.37274 17.2349 1.32568 17.0122 1.32568 16.7738V7.38115C1.32568 6.9043 1.49195 6.49961 1.82449 6.16707C2.15703 5.83453 2.56172 5.66827 3.03857 5.66827H16.704C17.1808 5.66827 17.5855 5.83453 17.9181 6.16707C18.2506 6.49961 18.4169 6.9043 18.4169 7.38115V9.94106H14.1441C13.6672 9.94106 13.2625 10.1042 12.93 10.4305C12.5975 10.7567 12.4312 11.1583 12.4312 11.6351C12.4437 11.9614 12.5127 12.25 12.6382 12.501C12.7386 12.7143 12.9049 12.9088 13.137 13.0845C13.3692 13.2602 13.7049 13.348 14.1441 13.348H18.4169V16.7738ZM15.8569 4.80241H7.31136C7.98898 4.45105 8.62896 4.11224 9.23129 3.78598C9.75833 3.50991 10.2791 3.23384 10.7936 2.95777C11.3081 2.6817 11.7096 2.46838 11.9983 2.31779C12.4375 2.07937 12.8296 1.96957 13.1747 1.98839C13.5198 2.00722 13.8115 2.06682 14.0499 2.16721C14.326 2.30525 14.5644 2.4872 14.7652 2.71307L15.8569 4.80241ZM13.297 11.6351C13.297 11.3967 13.3786 11.1959 13.5417 11.0328C13.7049 10.8697 13.9056 10.7881 14.1441 10.7881C14.3825 10.7881 14.5833 10.8697 14.7464 11.0328C14.9095 11.1959 14.9911 11.3967 14.9911 11.6351C14.9911 11.8735 14.9095 12.0775 14.7464 12.2469C14.5833 12.4163 14.3825 12.501 14.1441 12.501C13.9056 12.501 13.7049 12.4163 13.5417 12.2469C13.3786 12.0775 13.297 11.8735 13.297 11.6351Z" fill="white"/>
</g>
</svg>
