<svg width="16" height="16" viewBox="0 0 16 16" fill="none" xmlns="http://www.w3.org/2000/svg">
<path id="Vector" d="M14.7091 4.9512C14.6701 4.91224 10.9295 1.17532 10.564 0.817218C10.551 0.80423 10.5399 0.793097 10.525 0.781964C9.84592 0.229035 8.86809 0.279132 8.25022 0.898859C7.72698 1.42025 7.75667 2.11976 7.77522 2.57435C7.77708 2.69124 7.78079 2.81185 7.78079 2.92318C7.78079 3.40745 7.32434 4.10882 6.61926 4.70999C5.88264 5.339 5.03469 5.72308 4.55413 5.64515C4.44094 5.62659 4.33704 5.61732 4.24426 5.60989C4.19973 5.60618 4.16077 5.60247 4.1218 5.59876C1.85442 5.03655 0.833911 6.52464 0.715161 6.71204C0.542602 7.01263 0.588989 7.39114 0.832055 7.63236L3.31096 10.1113L0.149243 14.3918C-0.075269 14.6924 -0.0437259 15.1062 0.225317 15.3771C0.373755 15.5255 0.566723 15.6016 0.759692 15.6016C0.915552 15.6016 1.07141 15.5534 1.20315 15.4532L5.52825 12.3285L7.97747 14.7778C8.22424 15.0245 8.60647 15.0709 8.91262 14.8854C9.08333 14.7778 10.5677 13.7647 10.0203 11.5437C10.0148 11.5066 9.98323 11.2375 9.96653 11.0854C9.92756 10.6104 10.3914 9.55091 11.1448 8.73079C11.6791 8.15003 12.2265 7.82903 12.6848 7.82903C12.7961 7.82903 12.9167 7.83089 13.0262 7.8346C13.4901 7.85501 14.1914 7.8847 14.7128 7.36331C15.0338 7.04232 15.2119 6.61556 15.2101 6.15911C15.2082 5.70267 15.032 5.27405 14.7091 4.9512Z" fill="currentColor"/>
</svg>
