<svg width="24" height="24" viewBox="0 0 24 24" fill="none" xmlns="http://www.w3.org/2000/svg">
<g id="Frame 1244831097">
<path id="Subtract" fill-rule="evenodd" clip-rule="evenodd" d="M11.1631 20.584C11.6774 20.3164 12.2899 20.3166 12.8039 20.5847L16.844 22.6917C18.1478 23.3717 19.6659 22.2629 19.4148 20.8139L18.6488 16.3949C18.5482 15.8143 18.7421 15.2216 19.1665 14.8127L22.4029 11.6949C23.4674 10.6694 22.8862 8.86814 21.423 8.65827L16.9274 8.01345C16.3503 7.93067 15.8506 7.56988 15.5904 7.04813L13.5637 2.9838C12.9099 1.67272 11.0392 1.67272 10.3854 2.9838L8.35868 7.04813C8.0985 7.56988 7.59879 7.93067 7.02167 8.01345L2.52607 8.65827C1.0629 8.86814 0.481667 10.6694 1.54619 11.6949L4.08038 14.1362L13.506 12.0744L5.22939 16.8039L4.53362 20.8181C4.28261 22.2663 5.79913 23.375 7.10296 22.6966L11.1631 20.584Z" fill="#7084FF"/>
</g>
</svg>
