<svg width="28" height="28" viewBox="0 0 28 28" fill="none" xmlns="http://www.w3.org/2000/svg">
<path d="M14 0C18.6402 0.0637224 22.4825 0.869187 24.7744 3.22559C27.1306 5.51715 27.9373 9.35971 28.001 14C27.9373 18.6403 27.1306 22.4825 24.7744 24.7744C22.4825 27.1305 18.6405 27.9363 14 28C9.35955 27.9362 5.51709 27.1309 3.22559 24.7744C0.869503 22.4828 0.0637223 18.6402 0 14C0.0637233 9.35951 0.869185 5.51717 3.22559 3.22559C5.51709 0.86942 9.35955 0.06376 14 0ZM15.6475 8.625L15.6465 8.62402L15.6455 8.625C15.1327 8.61327 14.696 8.87529 14.4453 9.27148L14.3496 9.45117L11.8262 15.04L9.48828 13.5225H9.4873C9.03003 13.2266 8.44433 13.2214 7.98438 13.5068L7.89355 13.5674L4.60449 15.9746C3.97865 16.4323 3.84163 17.3117 4.2998 17.9375L4.41016 18.0703C4.68269 18.3608 5.05797 18.5127 5.43457 18.5127V18.5117C5.73238 18.5117 6.02264 18.4175 6.2627 18.2412L8.77148 16.4053L11.6689 18.2852V18.2861C11.8388 18.3965 12.031 18.4688 12.2314 18.498C12.4317 18.5272 12.636 18.5123 12.8301 18.4551L12.9727 18.4053C13.1122 18.3473 13.242 18.2666 13.3564 18.167C13.509 18.0341 13.6317 17.8699 13.7148 17.6855L13.7139 17.6846L15.5879 13.5312L16.7695 16.3223L16.8555 16.4912C16.9521 16.6538 17.0806 16.7959 17.2344 16.9082C17.4395 17.058 17.6816 17.1497 17.9346 17.1729L22.4414 17.583L22.4473 17.584C23.2093 17.6455 23.8967 17.0898 23.9678 16.3125V16.3115C24.0329 15.5879 23.5373 14.9425 22.8389 14.8066L22.6963 14.7861L19.0264 14.4512L16.9229 9.48047C16.7063 8.96923 16.2083 8.63524 15.6543 8.625L15.6553 8.62402C15.6527 8.62395 15.65 8.62502 15.6475 8.625ZM5.82812 17.8789C5.79632 17.8952 5.76313 17.9082 5.72949 17.9199L5.82812 17.8789ZM4.86621 16.4541L4.92188 16.4092L6.82129 15.0186L4.92188 16.4102C4.90261 16.4243 4.88381 16.4386 4.86621 16.4541ZM14.8398 9.67285L12.0596 15.834L9.19434 13.9746C9.15681 13.9503 9.11804 13.9291 9.07812 13.9111C9.11829 13.9291 9.15756 13.9502 9.19531 13.9746L12.0596 15.833L14.8398 9.67188C14.8566 9.63486 14.8755 9.59931 14.8965 9.56543C14.8754 9.59955 14.8567 9.63557 14.8398 9.67285ZM22.6475 15.3223L22.7354 15.335C22.7416 15.3362 22.7477 15.3385 22.7539 15.3398C22.7192 15.3325 22.6837 15.3265 22.6475 15.3232L18.6572 14.96L22.6475 15.3223ZM16.377 9.59082L16.4268 9.69043C16.4104 9.65179 16.3905 9.61529 16.3691 9.58008C16.3714 9.58385 16.3747 9.58701 16.377 9.59082ZM14.9072 9.55078C14.9241 9.52473 14.9417 9.49948 14.9609 9.47559C14.9417 9.49948 14.9241 9.52474 14.9072 9.55078ZM15.0605 9.37012C15.0329 9.39462 15.0069 9.42112 14.9824 9.44922C15.0069 9.42113 15.0329 9.3946 15.0605 9.37012ZM15.3828 9.19434C15.4199 9.18379 15.458 9.17628 15.4971 9.1709C15.4583 9.17624 15.4205 9.18398 15.3838 9.19434H15.3828ZM15.7666 9.17383C15.8044 9.17992 15.8417 9.18835 15.8779 9.19922C15.8407 9.18804 15.8026 9.17888 15.7637 9.17285L15.7666 9.17383ZM15.7227 9.16895C15.6952 9.16601 15.6676 9.16345 15.6396 9.16309C15.5975 9.16183 15.5561 9.1633 15.5156 9.16797C15.5561 9.16331 15.5974 9.16086 15.6396 9.16211L15.7227 9.16895ZM15.2666 9.23633C15.3039 9.21935 15.3428 9.20573 15.3828 9.19434L15.2666 9.23633Z" fill="#5267E8"/>
</svg>
