<svg xmlns="http://www.w3.org/2000/svg" viewBox="0 0 28 28" fill="none">
  <path fill-rule="evenodd" clip-rule="evenodd"
    d="M15.1556 0.210263L25.2667 4.41552C26.2778 4.90613 27 5.88736 27 7.00876V12.1952C27 19.4844 22.0167 25.9324 14.7944 27.8949C14.2889 28.035 13.7111 28.035 13.2056 27.8949C5.98333 25.9324 1 19.4844 1 12.1952V7.00876C1 5.88736 1.72222 4.90613 2.73333 4.41552L12.8444 0.210263C13.6389 -0.0700876 14.4333 -0.0700876 15.1556 0.210263ZM21.4271 11.1969C22.0881 10.4918 22.0524 9.38434 21.3473 8.72331C20.6422 8.06228 19.5347 8.09801 18.8737 8.8031L12.5393 15.5598L9.31303 12.692C8.59066 12.0499 7.48453 12.115 6.84242 12.8374C6.20032 13.5597 6.26538 14.6659 6.98775 15.308L10.7599 18.661C11.8738 19.6511 13.5738 19.5737 14.5931 18.4864L21.4271 11.1969Z"
    fill="currentColor" />
</svg>
