<svg xmlns="http://www.w3.org/2000/svg" viewBox="0 0 28 28" fill="none">
  <path
    d="M27 15.6177V22.9046C27 24.6144 25.6155 25.9989 23.9057 25.9989H4.09429C2.3845 25.9989 1 24.6144 1 22.9046V15.6177C1 13.9079 2.3845 12.5234 4.09429 12.5234H5.80775C7.51243 12.5234 8.65214 14.2815 9.81328 15.5295L12.2366 18.1343C13.1912 19.1603 14.8162 19.1598 15.77 18.1331L18.1855 15.5334C19.3474 14.2828 20.4891 12.5234 22.1962 12.5234H23.4654C25.6155 12.5234 27 13.9079 27 15.6177Z"
    fill="currentColor" />
  <path
    d="M13.1211 14.639L8.48362 10.0095C7.70211 9.22795 8.25353 7.89106 9.35637 7.89106H11.5184V1.23772C11.5184 0.555386 12.0738 0 12.7561 0H15.2316C15.9139 0 16.4693 0.555386 16.4693 1.23772V7.89106H18.6313C19.7342 7.89106 20.2856 9.22795 19.5041 10.0095L14.8666 14.639C14.3826 15.119 13.6051 15.119 13.1211 14.639Z"
    fill="currentColor" />
</svg>
