<svg xmlns="http://www.w3.org/2000/svg" viewBox="0 0 28 28" fill="none">
  <path fill-rule="evenodd" clip-rule="evenodd"
    d="M8.35182 0.445972C4.13086 0.779206 0.778474 4.13159 0.44524 8.35255C0.148462 12.1117 0.148462 15.8885 0.44524 19.6477C0.778474 23.8686 4.13086 27.221 8.35182 27.5543C12.111 27.851 15.8877 27.851 19.6469 27.5543C23.8679 27.221 27.2203 23.8686 27.5535 19.6477C27.8503 15.8885 27.8503 12.1117 27.5535 8.35256C27.2203 4.13159 23.8679 0.779206 19.6469 0.445972C15.8877 0.149194 12.111 0.149194 8.35182 0.445972ZM20.9797 8.52915C20.0424 7.99033 18.9846 7.70721 17.9085 7.70757H13.419V5.79202C13.419 5.04136 12.5538 4.62087 11.9636 5.08464L7.84619 8.31972C7.38778 8.6799 7.38778 9.37429 7.84619 9.73448L11.9636 12.9696C12.5538 13.4333 13.419 13.0128 13.419 12.2622V10.5927H17.9101C18.4777 10.5926 19.0367 10.7371 19.5368 11.0135C20.0369 11.29 20.4624 11.69 20.7746 12.1779C21.0867 12.6659 21.2753 13.2262 21.3229 13.8083C21.3465 14.096 21.3352 14.3845 21.2901 14.6672C21.1915 15.2854 21.356 16.0136 21.9411 16.4125C22.6475 16.8942 23.7147 16.6771 23.9566 15.7528C24.1153 15.1465 24.1863 14.5173 24.1654 13.8851C24.1291 12.7888 23.8173 11.7202 23.2596 10.7822C22.702 9.84412 21.9169 9.06797 20.9797 8.52915ZM6.87628 19.6712C7.81417 20.2113 8.87287 20.4952 9.9501 20.4951H13.444V22.2114C13.444 22.9621 14.3091 23.3825 14.8994 22.9188L19.0168 19.6837C19.4752 19.3235 19.4752 18.6291 19.0168 18.2689L14.8994 15.0339C14.3091 14.5701 13.444 14.9906 13.444 15.7412V17.6084H9.95151C9.383 17.6085 8.8231 17.4636 8.32247 17.1863C7.82181 16.909 7.39598 16.5079 7.0841 16.0187C6.9383 15.79 6.81958 15.5455 6.72975 15.2904C6.51377 14.6769 5.98619 14.0957 5.24906 14.0591C4.42804 14.0182 3.65512 14.7063 3.86401 15.5947C4.01417 16.2334 4.26039 16.8472 4.59623 17.4137C5.15335 18.3534 5.93843 19.1312 6.87628 19.6712Z"
    fill="currentColor" />
</svg>
