<svg viewBox="0 0 29 29" fill="none" xmlns="http://www.w3.org/2000/svg">
<path d="M21.0482 12.6156C20.7554 12.4613 20.4053 12.4611 20.1124 12.6152L17.4306 14.0252C16.6935 14.4127 15.8321 13.7868 15.9728 12.9661L16.4852 9.97941C16.5411 9.65325 16.4329 9.32046 16.1957 9.08964L14.0237 6.97542C13.4267 6.39426 13.7558 5.38074 14.5804 5.26124L17.576 4.8271C17.9033 4.77965 18.1864 4.57409 18.3328 4.27745L19.6739 1.56004C20.0424 0.813322 21.1072 0.813321 21.4757 1.56003L22.8168 4.27745C22.9632 4.57409 23.2463 4.77965 23.5736 4.8271L26.5692 5.26124C27.3938 5.38074 27.7229 6.39426 27.1258 6.97542L24.9539 9.08964C24.7167 9.32046 24.6085 9.65325 24.6644 9.97941L25.1763 12.9637C25.3172 13.7849 24.4549 14.4108 23.7178 14.0224L21.0482 12.6156Z" fill="currentColor"/>
<path fill-rule="evenodd" clip-rule="evenodd" d="M18.8399 19.6308C19.8723 18.7139 21.4524 18.8076 22.3693 19.8399L26.338 24.3087C27.2549 25.341 27.1612 26.9212 26.1289 27.838C25.0965 28.7549 23.5164 28.6612 22.5995 27.6289L18.6308 23.1601C17.7139 22.1278 17.8076 20.5476 18.8399 19.6308Z" fill="currentColor"/>
<path d="M11.3179 3.20814C10.3833 3.39965 9.50392 3.71093 8.69237 4.12268C4.61558 6.19108 2.25167 10.795 3.21374 15.4898C4.36731 21.1192 9.866 24.7476 15.4954 23.594C18.9 22.8963 21.5727 20.6094 22.8983 17.6654" stroke="currentColor" stroke-width="5" stroke-linecap="round"/>
</svg>
