<svg width="28" height="28" viewBox="0 0 28 28" fill="none" xmlns="http://www.w3.org/2000/svg">
<path opacity="0.4" d="M6.65848 3.0039L5.39648 2.58068L4.97492 1.30834C4.83885 0.897219 4.16249 0.897219 4.02641 1.30834L3.60486 2.58068L2.34285 3.0039C2.13874 3.07242 2 3.26454 2 3.4822C2 3.69985 2.13874 3.89198 2.34285 3.9605L3.60486 4.38372L4.02641 5.65605C4.09445 5.86162 4.28522 6 4.5 6C4.71478 6 4.90688 5.86027 4.97359 5.65605L5.39514 4.38372L6.65715 3.9605C6.86126 3.89198 7 3.69985 7 3.4822C7 3.26454 6.86259 3.07242 6.65848 3.0039Z" fill="#4056DD"/>
<path opacity="0.7" d="M25.3828 20.608L23.1104 19.8447L22.3529 17.5548C22.1064 16.8151 20.8918 16.8151 20.6453 17.5548L19.8878 19.8447L17.6154 20.608C17.2483 20.7313 17 21.0776 17 21.4674C17 21.8572 17.2483 22.2035 17.6154 22.3268L19.8878 23.09L20.6453 25.3799C20.7677 25.7498 21.1132 26 21.5 26C21.8868 26 22.2305 25.7498 22.3547 25.3799L23.1122 23.09L25.3846 22.3268C25.7517 22.2035 26 21.8572 26 21.4674C26 21.0776 25.7517 20.7313 25.3846 20.608H25.3828Z" fill="#4C65FF"/>
<path d="M17.7534 7.82368L13.9503 1.56408C13.5396 0.888202 12.544 0.933916 12.197 1.64458L9.21339 7.75561C9.06858 8.0522 8.78676 8.25824 8.46021 8.30624L1.9868 9.25784C1.17003 9.37791 0.842316 10.38 1.43031 10.9595L6.12887 15.5899C6.36145 15.8191 6.46747 16.1474 6.41287 16.4693L5.32307 22.8947C5.18129 23.7307 6.07889 24.3527 6.8118 23.9263L16.9347 18.038C16.9782 18.0127 17.0197 17.9842 17.0589 17.9526L25.6971 11.0008C26.3798 10.4514 26.0758 9.35196 25.2078 9.23132L18.4704 8.29491C18.1727 8.25354 17.9095 8.08051 17.7534 7.82368Z" fill="#4056DD"/>
</svg>
