<svg width="28" height="28" viewBox="0 0 28 28" fill="none" xmlns="http://www.w3.org/2000/svg">
  <path fill-rule="evenodd" clip-rule="evenodd"
    d="M21 12.5C21 16.6421 17.6421 20 13.5 20C9.35789 20 6 16.6421 6 12.5C6 8.35789 9.35789 5 13.5 5C17.6421 5 21 8.35789 21 12.5ZM23.6561 19.7889C25.1312 17.737 26 15.22 26 12.5C26 5.59647 20.4035 0 13.5 0C6.59647 0 1 5.59647 1 12.5C1 19.4035 6.59647 25 13.5 25C15.8753 25 18.0958 24.3375 19.9869 23.1871L22.5995 26.1289C23.5164 27.1612 25.0965 27.2549 26.1289 26.338C27.1612 25.4212 27.2549 23.841 26.338 22.8087L23.6561 19.7889Z"
    fill="#5267E8" />
</svg>