<svg width="51" height="62" viewBox="0 0 51 62" fill="none" xmlns="http://www.w3.org/2000/svg">
<path fill-rule="evenodd" clip-rule="evenodd" d="M29.7016 52.2247L34.9753 53.8371L29.7016 52.2247Z" fill="#AAAAAA"/>
<path fill-rule="evenodd" clip-rule="evenodd" d="M38.9082 19.3507C37.046 14.2346 32.7412 11.33 28.6052 9.95668L34.1199 11.3353C38.2261 12.5907 42.3185 15.8459 44.181 20.9606L44.1826 20.9611C47.9069 31.1933 43.7846 44.6769 34.9752 51.0773L34.9744 51.0771C30.4819 54.3408 25.874 55.4178 21.7116 54.0525C21.7116 54.0525 17.5756 52.6738 16.1969 51.2952C15.6786 50.7769 16.8236 50.8508 18.6932 50.9715C21.7969 51.1719 26.8978 51.5012 29.7016 49.4641L29.7023 49.4643C38.5104 43.0642 42.6323 29.5828 38.9098 19.3512L38.9082 19.3507Z" fill="#FEC27C"/>
<path d="M28.6052 9.95668L28.5128 10.3955L28.6748 9.51122L28.6052 9.95668ZM38.9082 19.3507L38.8229 19.7919L38.647 19.738L38.5726 19.5336L38.9082 19.3507ZM34.1199 11.3353L34.1895 10.8899L34.1973 10.8918L34.205 10.8942L34.1199 11.3353ZM44.181 20.9606L44.0958 21.4017L43.9199 21.3479L43.8455 21.1436L44.181 20.9606ZM44.1826 20.9611L44.2679 20.52L44.4438 20.5738L44.5182 20.7782L44.1826 20.9611ZM34.9752 51.0773L35.1642 51.4697L35.0359 51.5629L34.8904 51.5186L34.9752 51.0773ZM34.9744 51.0771L34.7854 50.6848L34.9137 50.5916L35.0591 50.6358L34.9744 51.0771ZM21.7116 54.0525L21.6204 54.4917L21.6189 54.4913L21.7116 54.0525ZM16.1969 51.2952L15.9669 51.6473L15.9669 51.6473L16.1969 51.2952ZM18.6932 50.9715L18.7088 50.5176L18.6932 50.9715ZM29.7016 49.4641L29.5125 49.0718L29.6412 48.9783L29.787 49.023L29.7016 49.4641ZM29.7023 49.4643L29.8914 49.8566L29.7627 49.9501L29.6169 49.9054L29.7023 49.4643ZM38.9098 19.3512L38.995 18.9101L39.171 18.9639L39.2454 19.1684L38.9098 19.3512ZM28.6052 9.95668L28.6975 9.51782C32.878 10.9059 37.3143 13.8666 39.2437 19.1678L38.9082 19.3507L38.5726 19.5336C36.7778 14.6025 32.6044 11.7541 28.5128 10.3955L28.6052 9.95668ZM34.1199 11.3353L34.0502 11.7808L28.5355 10.4021L28.6052 9.95668L28.6748 9.51122L34.1895 10.8899L34.1199 11.3353ZM44.181 20.9606L43.8455 21.1436C42.0428 16.1932 38.0645 13.0085 34.0347 11.7765L34.1199 11.3353L34.205 10.8942C38.3876 12.1729 42.5941 15.4985 44.5165 20.7776L44.181 20.9606ZM44.181 20.9606L44.2662 20.5195L44.2679 20.52L44.1826 20.9611L44.0974 21.4022L44.0958 21.4017L44.181 20.9606ZM44.1826 20.9611L44.5182 20.7782C48.334 31.2619 44.1015 44.9763 35.1642 51.4697L34.9752 51.0773L34.7861 50.685C43.4676 44.3776 47.4798 31.1248 43.8471 21.144L44.1826 20.9611ZM34.9752 51.0773L34.8904 51.5186L34.8897 51.5184L34.9744 51.0771L35.0591 50.6358L35.0599 50.6361L34.9752 51.0773ZM21.7116 54.0525L21.8029 53.6133C25.8474 54.94 30.3546 53.9036 34.7854 50.6848L34.9744 51.0771L35.1634 51.4694C30.6093 54.7779 25.9006 55.8957 21.6204 54.4917L21.7116 54.0525ZM16.1969 51.2952L16.4269 50.9431C16.7332 51.2494 17.2146 51.5746 17.7885 51.8934C18.3565 52.209 18.9916 52.5056 19.5889 52.7616C20.1856 53.0173 20.7402 53.2306 21.1459 53.3801C21.3486 53.4548 21.5138 53.5134 21.6281 53.5533C21.6852 53.5732 21.7296 53.5884 21.7595 53.5986C21.7745 53.6037 21.7858 53.6076 21.7934 53.6101C21.7971 53.6114 21.8 53.6123 21.8018 53.6129C21.8027 53.6132 21.8034 53.6135 21.8038 53.6136C21.804 53.6137 21.8042 53.6137 21.8042 53.6138C21.8043 53.6138 21.8043 53.6138 21.8043 53.6138C21.8043 53.6138 21.8043 53.6138 21.7116 54.0525C21.6189 54.4913 21.6189 54.4912 21.6188 54.4912C21.6188 54.4912 21.6187 54.4912 21.6186 54.4912C21.6184 54.4911 21.6182 54.491 21.6179 54.4909C21.6173 54.4907 21.6165 54.4905 21.6154 54.4901C21.6133 54.4894 21.6101 54.4883 21.606 54.4869C21.5978 54.4842 21.5858 54.4801 21.5702 54.4748C21.5388 54.4641 21.493 54.4484 21.4343 54.4279C21.317 54.387 21.1483 54.3271 20.9417 54.251C20.5288 54.0989 19.9633 53.8814 19.3536 53.6201C18.7446 53.3591 18.0872 53.0525 17.4919 52.7218C16.9026 52.3944 16.3499 52.0303 15.9669 51.6473L16.1969 51.2952ZM18.6932 50.9715L18.6776 51.4254C17.7316 51.3643 17.0037 51.318 16.5736 51.3475C16.4682 51.3548 16.393 51.3659 16.3432 51.3785C16.281 51.3942 16.3002 51.4021 16.3397 51.3624C16.366 51.3359 16.4082 51.2806 16.4289 51.1905C16.4501 51.098 16.4375 51.0178 16.4225 50.969C16.4002 50.8972 16.3724 50.8886 16.4269 50.9431L16.1969 51.2952L15.9669 51.6473C15.8918 51.5722 15.7864 51.4525 15.7349 51.286C15.7052 51.1899 15.69 51.0665 15.7203 50.9345C15.7501 50.8049 15.813 50.714 15.8711 50.6555C15.9742 50.5518 16.1018 50.5098 16.1888 50.4878C16.2883 50.4627 16.4034 50.4483 16.5256 50.4399C17.0058 50.4069 17.7852 50.458 18.7088 50.5176L18.6932 50.9715ZM29.7016 49.4641L29.8906 49.8564C28.4112 50.9313 26.3623 51.3624 24.3352 51.5106C22.2981 51.6596 20.2271 51.5254 18.6776 51.4254L18.6932 50.9715L18.7088 50.5176C20.2631 50.6179 22.2944 50.7487 24.2845 50.6031C26.2848 50.4568 28.1881 50.034 29.5125 49.0718L29.7016 49.4641ZM29.7023 49.4643L29.6169 49.9054L29.6162 49.9052L29.7016 49.4641L29.787 49.023L29.7877 49.0233L29.7023 49.4643ZM29.7023 49.4643L29.5133 49.072C38.1934 42.7648 42.2053 29.5142 38.5742 19.5341L38.9098 19.3512L39.2454 19.1684C43.0594 29.6514 38.8274 43.3635 29.8914 49.8566L29.7023 49.4643ZM38.9082 19.3507L38.9934 18.9096L38.995 18.9101L38.9098 19.3512L38.8246 19.7924L38.8229 19.7919L38.9082 19.3507Z" fill="#FD9E2E"/>
<path fill-rule="evenodd" clip-rule="evenodd" d="M38.9082 19.3556C37.0461 14.2394 32.7412 11.3348 28.6052 9.96155L34.1199 11.3402C38.2267 12.5958 42.3198 15.8518 44.1819 20.968L38.9082 19.3556Z" fill="white" stroke="#FDB82E" stroke-width="0.827206"/>
<path fill-rule="evenodd" clip-rule="evenodd" d="M16.1969 51.3019C14.8183 49.9232 25.2089 52.735 29.7016 49.4708L34.9753 51.0832C30.4826 54.3473 25.8743 55.4246 21.7116 54.0592C21.7116 54.0592 17.5756 52.6806 16.1969 51.3019Z" fill="#FDB82E" stroke="#FDB82E" stroke-width="0.827206"/>
<path fill-rule="evenodd" clip-rule="evenodd" d="M29.7014 49.4723C38.5108 43.0719 42.6331 29.5883 38.9089 19.3561L44.1826 20.9684C47.9069 31.2006 43.7846 44.6842 34.9752 51.0847L29.7014 49.4723Z" fill="#FFEBB6" stroke="#FDB82E" stroke-width="0.827206"/>
<path fill-rule="evenodd" clip-rule="evenodd" d="M38.9082 22.1075L44.1819 23.7199L38.9082 22.1075Z" fill="#AAAAAA"/>
<path d="M16.3554 12.8015C7.73103 19.0677 3.69497 32.2684 7.34106 42.286C10.9873 52.3031 20.9348 55.3444 29.5592 49.0787C38.1837 42.8127 42.2194 29.6119 38.5735 19.5942C34.9274 9.57654 24.98 6.53531 16.3554 12.8015Z" fill="url(#paint0_linear_46380_14254)"/>
<path d="M16.3554 12.8015C7.73103 19.0677 3.69497 32.2684 7.34106 42.286C10.9873 52.3031 20.9348 55.3444 29.5592 49.0787C38.1837 42.8127 42.2194 29.6119 38.5735 19.5942C34.9274 9.57654 24.98 6.53531 16.3554 12.8015Z" stroke="url(#paint1_linear_46380_14254)" stroke-width="0.827206"/>
<path d="M36.5986 21.0291C33.414 12.2793 24.7255 9.62296 17.1925 15.096C9.65947 20.5691 6.13442 32.099 9.31908 40.8488C12.5038 49.5986 21.1922 52.255 28.7252 46.7819C36.2582 41.3088 39.7833 29.7789 36.5986 21.0291Z" fill="url(#paint2_linear_46380_14254)"/>
<path d="M23.6526 38.0962C25.1207 37.6572 25.9018 36.5568 25.996 34.7949C26.0315 34.1313 25.8966 33.6253 25.5913 33.277C25.2954 32.9164 24.8906 32.6282 24.3769 32.4123L23.6526 38.0962ZM23.3194 21.4912C22.9105 21.6076 22.561 21.7584 22.2709 21.9438C21.9897 22.1285 21.7552 22.3373 21.5677 22.5705C21.3889 22.8028 21.2526 23.0599 21.1587 23.3415C21.0655 23.6118 21.0109 23.8956 20.995 24.1931C20.9589 24.8681 21.0967 25.4023 21.4083 25.7956C21.7206 26.1775 22.133 26.4878 22.6455 26.7265L23.3194 21.4912ZM25.0052 27.5398C25.4188 27.6621 25.8316 27.8016 26.2435 27.9582C26.6559 28.1034 27.049 28.2845 27.4226 28.5015C27.8056 28.7063 28.1557 28.9539 28.4728 29.2442C28.7988 29.5338 29.0733 29.885 29.2963 30.2976C29.5282 30.7095 29.6995 31.1894 29.8103 31.7374C29.921 32.2854 29.9568 32.9255 29.9177 33.6577C29.8595 34.7446 29.664 35.7812 29.3311 36.7674C28.9988 37.7422 28.5401 38.6259 27.9549 39.4185C27.3704 40.1996 26.6697 40.8601 25.8529 41.4002C25.0367 41.9288 24.1156 42.2903 23.0896 42.4847L22.8175 44.6269C22.7828 44.9489 22.6575 45.2447 22.4417 45.5146C22.2341 45.795 21.9763 45.9491 21.6685 45.9767L20.1642 46.1115L20.6172 42.5527C19.6171 42.426 18.6697 42.1352 17.7748 41.6802C16.8892 41.2131 16.1503 40.6246 15.5579 39.9149L16.9523 37.4159C17.0682 37.212 17.2175 37.0392 17.4002 36.8976C17.5923 36.7437 17.7895 36.6577 17.9918 36.6396C18.2029 36.6206 18.4145 36.6757 18.6265 36.8047C18.839 36.9223 19.0674 37.0726 19.3115 37.2557C19.565 37.4265 19.8399 37.6068 20.1361 37.7966C20.4418 37.9741 20.7889 38.1138 21.1774 38.2156L22.0117 31.7021C21.3905 31.53 20.7715 31.318 20.1547 31.0658C19.5466 30.8129 19.0059 30.4458 18.5327 29.9645C18.0594 29.4831 17.6861 28.8505 17.4129 28.0666C17.1484 27.2819 17.0489 26.2775 17.1144 25.0533C17.1628 24.1495 17.3506 23.2559 17.678 22.3726C18.0054 21.4893 18.4558 20.6804 19.0291 19.9459C19.6112 19.2105 20.3098 18.59 21.1247 18.0843C21.9403 17.5671 22.8602 17.2285 23.8843 17.0684L24.1313 15.1505C24.166 14.8285 24.2869 14.533 24.4939 14.264C24.7103 13.9827 24.9724 13.8283 25.2803 13.8007L26.7846 13.6659L26.354 17.0519C27.2918 17.1956 28.0857 17.4945 28.7355 17.9486C29.3941 18.4019 29.9453 18.899 30.3892 19.4399L29.2844 21.4347C29.1196 21.7341 28.9543 21.9596 28.7886 22.1111C28.6324 22.2503 28.4487 22.3294 28.2375 22.3484C28.1056 22.3602 27.9494 22.3343 27.7689 22.2708C27.5979 22.195 27.4099 22.1094 27.2049 22.0139C27.0005 21.907 26.7785 21.8017 26.5389 21.6979C26.3087 21.5819 26.06 21.4846 25.7928 21.4061L25.0052 27.5398Z" fill="#EE970A"/>
<defs>
<linearGradient id="paint0_linear_46380_14254" x1="29.7009" y1="49.4667" x2="7.42084" y2="18.8008" gradientUnits="userSpaceOnUse">
<stop stop-color="#FFBA3B"/>
<stop offset="1" stop-color="#FFD489"/>
</linearGradient>
<linearGradient id="paint1_linear_46380_14254" x1="29.7009" y1="49.4667" x2="7.42084" y2="18.8008" gradientUnits="userSpaceOnUse">
<stop stop-color="white"/>
<stop offset="1" stop-color="#FDB82E"/>
</linearGradient>
<linearGradient id="paint2_linear_46380_14254" x1="16.198" y1="14.0722" x2="36.4304" y2="41.3588" gradientUnits="userSpaceOnUse">
<stop stop-color="#FFF2D1"/>
<stop offset="1" stop-color="#FFE8A9"/>
</linearGradient>
</defs>
</svg>
