<svg width="26" height="26" viewBox="0 0 26 26" fill="none" xmlns="http://www.w3.org/2000/svg">
<g id="pushpin-line 3">
<path id="Vector" d="M14.2142 2.59794C14.6372 2.17494 15.323 2.17491 15.746 2.59788L23.407 10.2579C23.8302 10.6811 23.8301 11.3673 23.4069 11.7904C22.9837 12.2137 22.2973 12.2135 21.8744 11.79L17.2789 16.3866L16.616 19.7023C16.5488 20.0381 16.3837 20.3465 16.1415 20.5885L15.593 21.1367C15.2544 21.4749 14.7058 21.4748 14.3675 21.1364L10.3846 17.1525L5.78798 21.7491C5.36498 22.1721 4.67915 22.1721 4.25615 21.7491C3.83315 21.3261 3.83315 20.6403 4.25615 20.2173L8.85273 15.6207L4.86898 11.6369C4.53052 11.2985 4.53052 10.7497 4.86898 10.4113L5.41685 9.86342C5.65885 9.62142 5.96707 9.45648 6.30266 9.38938L9.61865 8.72636L14.2142 4.12978C13.7911 3.70678 13.7912 3.02094 14.2142 2.59794ZM16.0524 5.96911C15.8832 5.79988 15.6088 5.79988 15.4396 5.96911L10.6868 10.7219L8.42339 11.175C8.08406 11.243 7.95735 11.6616 8.20205 11.9063L14.0987 17.803C14.3434 18.0477 14.7622 17.9209 14.83 17.5815L15.2823 15.3184L20.0361 10.5657C20.2053 10.3965 20.2054 10.1221 20.0361 9.95284L16.0524 5.96911Z" fill="#9A9CA9"/>
</g>
</svg>
