<svg width="26" height="26" viewBox="0 0 26 26" fill="none" xmlns="http://www.w3.org/2000/svg">
<g id="pushpin-line 3">
<path id="Vector" d="M14.2142 2.59598C14.6372 2.17298 15.323 2.17295 15.746 2.59593L23.407 10.256C23.8302 10.6791 23.8301 11.3653 23.4069 11.7885C22.9837 12.2117 22.2973 12.2116 21.8744 11.7881L17.2789 16.3847L16.616 19.7003C16.5488 20.0361 16.3837 20.3445 16.1415 20.5866L15.593 21.1347C15.2544 21.473 14.7058 21.4728 14.3675 21.1344L10.3846 17.1506L5.78798 21.7472C5.36498 22.1702 4.67915 22.1702 4.25615 21.7472C3.83315 21.3242 3.83315 20.6383 4.25615 20.2153L8.85273 15.6187L4.86898 11.635C4.53052 11.2965 4.53052 10.7478 4.86898 10.4093L5.41685 9.86146C5.65885 9.61947 5.96707 9.45452 6.30266 9.38742L9.61865 8.72441L14.2142 4.12783C13.7911 3.70482 13.7912 3.01899 14.2142 2.59598Z" fill="#7084FF"/>
</g>
</svg>
