<svg width="16" height="16" viewBox="0 0 16 16" fill="none" xmlns="http://www.w3.org/2000/svg">
<path d="M15 6.5V7.25C15.4142 7.25 15.75 6.91421 15.75 6.5H15ZM15 9.5H15.75C15.75 9.08579 15.4142 8.75 15 8.75V9.5ZM15 13V13.75C15.4142 13.75 15.75 13.4142 15.75 13H15ZM1 13H0.25C0.25 13.4142 0.585786 13.75 1 13.75L1 13ZM1 9.5V8.75C0.585786 8.75 0.25 9.08579 0.25 9.5H1ZM1 6.5H0.25C0.25 6.91421 0.585786 7.25 1 7.25L1 6.5ZM1 3V2.25C0.585786 2.25 0.25 2.58579 0.25 3H1ZM15 3H15.75C15.75 2.58579 15.4142 2.25 15 2.25V3ZM15 6.5V5.75C13.7574 5.75 12.75 6.75736 12.75 8H13.5H14.25C14.25 7.58579 14.5858 7.25 15 7.25V6.5ZM13.5 8H12.75C12.75 9.24264 13.7574 10.25 15 10.25V9.5V8.75C14.5858 8.75 14.25 8.41421 14.25 8H13.5ZM15 9.5H14.25V13H15H15.75V9.5H15ZM15 13V12.25H1V13V13.75H15V13ZM1 13H1.75V9.5H1H0.25V13H1ZM1 9.5V10.25C2.24264 10.25 3.25 9.24264 3.25 8H2.5H1.75C1.75 8.41421 1.41421 8.75 1 8.75V9.5ZM2.5 8H3.25C3.25 6.75736 2.24264 5.75 1 5.75V6.5V7.25C1.41421 7.25 1.75 7.58579 1.75 8H2.5ZM1 6.5H1.75V3H1H0.25V6.5H1ZM1 3V3.75H15V3V2.25H1V3ZM15 3H14.25V6.5H15H15.75V3H15Z" fill="currentColor"/>
<line x1="5.75" y1="8.25" x2="10.25" y2="8.25" stroke="currentColor" stroke-width="1.5" stroke-linecap="round"/>
</svg>
