<svg width="15" height="12" viewBox="0 0 15 12" fill="none" xmlns="http://www.w3.org/2000/svg">
<path d="M14.2227 5.62793C14.2227 5.92676 14.0996 6.22559 13.8975 6.42773L9.43262 10.875C9.2041 11.0947 8.94043 11.209 8.68555 11.209C8.05273 11.209 7.62207 10.7695 7.62207 10.1895C7.62207 9.87305 7.7627 9.61816 7.96484 9.4248L9.3623 8.01855L10.8916 6.62109L9.38867 6.70898H1.87402C1.20605 6.70898 0.757812 6.26953 0.757812 5.62793C0.757812 4.98633 1.20605 4.55566 1.87402 4.55566H9.38867L10.8916 4.64355L9.3623 3.24609L7.96484 1.83984C7.7627 1.6377 7.62207 1.3916 7.62207 1.06641C7.62207 0.486328 8.05273 0.046875 8.68555 0.046875C8.94043 0.046875 9.2041 0.161133 9.43262 0.389648L13.8975 4.83691C14.0996 5.03906 14.2227 5.33789 14.2227 5.62793Z" fill="currentColor"/>
</svg>
