<svg width="240" height="240" viewBox="0 0 240 240" fill="none" xmlns="http://www.w3.org/2000/svg">
<path d="M213.565 131.848C220.991 115.197 184.28 68.6755 149.209 49.2939C127.103 34.2791 104.068 36.3419 99.4032 42.9345C89.1648 57.4026 133.305 69.6621 162.825 83.9681C156.48 86.7346 150.5 91.6992 146.983 98.0484C135.978 85.988 111.823 75.6023 83.4788 83.9681C64.3787 89.6057 48.5049 102.896 42.3698 122.971C40.879 122.306 39.2285 121.936 37.492 121.936C30.8518 121.936 25.4688 127.34 25.4688 134.005C25.4688 140.67 30.8518 146.074 37.492 146.074C38.7229 146.074 42.5712 145.245 42.5712 145.245L104.068 145.692C79.4744 184.856 60.0381 190.581 60.0381 197.365C60.0381 204.15 78.6352 202.312 85.6179 199.783C119.045 187.676 154.948 149.944 161.109 139.082C186.981 142.322 208.723 142.705 213.565 131.848Z" fill="url(#paint0_linear_129235_8317)"/>
<path d="M98.665 50.3695C100.74 46.2156 114.778 45.7508 133.843 54.764C147.835 61.379 162.735 76.1485 163.599 79.8099C163.974 81.4028 164.195 83.431 162.827 83.972C162.826 83.9713 162.824 83.9707 162.822 83.97C162.823 83.9696 162.824 83.9685 162.825 83.9681C138.485 72.1725 104.207 61.7677 98.665 50.3695Z" fill="url(#paint1_linear_129235_8317)"/>
<path d="M90.6701 108.832C111.083 108.832 119.868 115.462 126.866 127.919C131.853 136.795 130.745 150.834 125.465 160.317C130.416 161.549 134.77 162.909 138.625 164.388C132.373 170.231 125.219 176.299 117.609 181.864C107.246 179.21 97.8302 176.689 83.5519 173.017C89.6543 166.333 96.6256 157.544 104.069 145.692L48.8703 145.291C48.6786 143.051 48.6216 140.616 48.6779 137.958C49.2145 112.629 79.4425 108.832 90.6701 108.832Z" fill="url(#paint2_linear_129235_8317)"/>
<path d="M41.634 142.688C43.889 161.929 54.7832 169.47 77.0446 171.702C99.306 173.933 112.076 172.436 129.076 173.989C143.275 175.286 155.952 182.548 160.656 180.038C164.888 177.78 162.52 169.619 156.856 164.383C149.515 157.597 139.354 152.878 121.475 151.203C125.038 141.411 124.04 127.681 118.506 120.211C110.505 109.41 95.7363 104.526 77.0447 106.66C57.5161 108.889 38.804 118.54 41.634 142.688Z" fill="url(#paint3_linear_129235_8317)"/>
<defs>
<linearGradient id="paint0_linear_129235_8317" x1="81.2548" y1="117.103" x2="212.039" y2="154.051" gradientUnits="userSpaceOnUse">
<stop stop-color="#4C65FE"/>
<stop offset="1" stop-color="#8F9FFF"/>
</linearGradient>
<linearGradient id="paint1_linear_129235_8317" x1="189.955" y1="114.608" x2="95.2857" y2="20.0649" gradientUnits="userSpaceOnUse">
<stop stop-color="#4C65FE"/>
<stop offset="1" stop-color="#5156D8" stop-opacity="0"/>
</linearGradient>
<linearGradient id="paint2_linear_129235_8317" x1="141.249" y1="167.69" x2="50.4824" y2="115.704" gradientUnits="userSpaceOnUse">
<stop stop-color="#2D46E2"/>
<stop offset="1" stop-color="#8697FF" stop-opacity="0"/>
</linearGradient>
<linearGradient id="paint3_linear_129235_8317" x1="89.0592" y1="116.123" x2="150.583" y2="194.001" gradientUnits="userSpaceOnUse">
<stop stop-color="#4C65FE"/>
<stop offset="1" stop-color="#4C65FE"/>
</linearGradient>
</defs>
</svg>
