<svg xmlns="http://www.w3.org/2000/svg" width="20" height="20" viewBox="0 0 20 20" fill="none">
  <path
    d="M7.5 16.5H5.5C4.39543 16.5 3.5 15.6046 3.5 14.5V8C3.5 6.89543 4.39543 6 5.5 6H14.5C15.6046 6 16.5 6.89543 16.5 8V8"
    stroke="currentColor" stroke-width="2" stroke-linecap="round" />
  <path d="M14 13V15H16" stroke="currentColor" stroke-width="1.5" stroke-linecap="round"
    stroke-linejoin="round" />
  <path
    d="M14.5 19C16.9853 19 19 16.9853 19 14.5C19 12.0147 16.9853 10 14.5 10C12.0147 10 10 12.0147 10 14.5C10 16.9853 12.0147 19 14.5 19Z"
    stroke="currentColor" stroke-width="2" stroke-linecap="round" stroke-linejoin="round" />
  <path
    d="M5.83594 5.6875V5.35417C5.83594 3.05298 7.70144 1.1875 10.0026 1.1875C12.3038 1.1875 14.1693 3.05298 14.1693 5.35417V5.6875"
    stroke="currentColor" stroke-width="2" stroke-linecap="round" stroke-linejoin="round" />
</svg>