<svg xmlns="http://www.w3.org/2000/svg" width="20" height="20" viewBox="0 0 20 20" fill="none">
  <path
    d="M7.9016 3.22217L3.8775 5.54562C3.3206 5.86716 2.97754 6.46138 2.97754 7.10444L2.97754 11.0613M11.8982 3.22217L15.9223 5.54562C16.4792 5.86716 16.8223 6.46138 16.8223 7.10444V11.5609M5.40323 15.4595L7.9016 16.9021L8.99988 17.5362C9.55683 17.8577 10.243 17.8577 10.8 17.5362L11.8982 16.9021L15.0919 15.0581"
    stroke="currentColor" stroke-width="2" stroke-linecap="round" />
  <circle cx="9.90001" cy="10.6388" r="2.47228" stroke="currentColor" stroke-width="2"
    stroke-linecap="round" />
  <path d="M9.89941 7.67223V5.19995" stroke="currentColor" stroke-width="2" stroke-linecap="round" />
  <path d="M12.3721 11.6279L14.8444 13.1113" stroke="currentColor" stroke-width="2"
    stroke-linecap="round" />
  <path d="M7.42736 11.6279L4.95508 13.1113" stroke="currentColor" stroke-width="2"
    stroke-linecap="round" />
  <circle cx="9.8997" cy="3.22196" r="1.97782" stroke="currentColor" stroke-width="2"
    stroke-linecap="round" />
  <circle cx="2.97782" cy="14.1001" r="1.97782" stroke="currentColor" stroke-width="2"
    stroke-linecap="round" />
  <circle cx="16.8225" cy="14.1001" r="1.97782" stroke="currentColor" stroke-width="2"
    stroke-linecap="round" />
</svg>