<svg xmlns="http://www.w3.org/2000/svg" width="20" height="20" viewBox="0 0 20 20" fill="none">
  <g clip-path="url(#clip0_127_636)">
    <path d="M10 19C14.9705 19 19 14.9705 19 10C19 5.02944 14.9705 1 10 1C5.02944 1 1 5.02944 1 10C1 14.9705 5.02944 19 10 19Z" stroke="currentColor" stroke-width="1.25" stroke-linecap="round" stroke-linejoin="round"/>
    <path d="M12.2919 1.30994C12.2356 1.76543 12.0185 2.17993 11.7114 2.49513C11.394 2.82015 10.9463 2.9183 10.6385 3.2439C10.4225 3.48117 10.3539 3.8212 10.3919 4.14679C10.4459 4.52549 10.6683 4.82048 10.7229 5.18879C10.7769 5.5675 10.6778 5.93696 10.6737 6.3226C10.6672 6.74979 10.6792 7.18853 10.6343 7.61342C10.5567 8.42221 10.0344 9.12074 9.33544 9.40189C9.04018 9.51967 8.70021 9.5826 8.48294 9.84065C8.27649 10.0785 8.23605 10.4306 8.04812 10.68C7.83791 10.9802 7.43612 11.1124 7.10805 10.9779C6.78892 10.8544 6.5876 10.5294 6.32134 10.3256C6.01806 10.0987 5.64026 9.99253 5.26765 9.95963C4.87589 9.92558 4.46956 9.97408 4.07342 10.0128C3.29964 10.1017 2.40081 10.1935 1.77304 9.61332" stroke="currentColor" stroke-width="1.25" stroke-linecap="round" stroke-linejoin="round"/>
    <path d="M9.24372 18.3927C9.19235 18.0475 9.12022 17.6956 9.10886 17.3467C9.07919 16.6837 9.52565 16.0459 10.2119 15.7193C10.502 15.5822 10.8459 15.4828 11.036 15.2437C11.2176 15.0225 11.2116 14.7329 11.3725 14.505C11.5496 14.2329 11.9481 14.0689 12.3065 14.1304C12.6542 14.1843 12.9071 14.4175 13.2109 14.5437C13.5562 14.6832 13.9623 14.7147 14.3531 14.6879C14.7639 14.6594 15.1785 14.5621 15.5839 14.4743C16.374 14.292 17.1413 13.9922 17.871 14.37" stroke="currentColor" stroke-width="1.25" stroke-linecap="round" stroke-linejoin="round"/>
  </g>
  <defs>
    <clipPath id="clip0_127_636">
      <rect width="20" height="20" fill="white"/>
    </clipPath>
  </defs>
</svg>
