<svg xmlns="http://www.w3.org/2000/svg" width="20" height="20" viewBox="0 0 20 20" fill="none">
  <path
    d="M6.44444 13.4172L5.23029 16C4.09998 15.5306 3.02758 14.897 2.0397 14.1148C1.83028 10.7877 2.4241 7.42982 4.42613 3.96803C5.27102 3.54414 6.15174 3.21978 7.05455 3C7.1104 3.13253 7.16252 3.26295 7.20533 3.37746L7.45943 4.05921L8.1035 3.95212C9.36568 3.74148 10.6481 3.74148 11.9102 3.95212L12.5525 4.05815L12.8056 3.37746C12.8494 3.25871 12.9006 3.12935 12.9545 3C13.8639 3.22266 14.7444 3.55134 15.5867 3.97015C17.3318 6.96012 18.2123 10.2957 17.9564 14.1138C16.9686 14.8977 15.8954 15.5318 14.7639 16L13.5556 14M14.9882 12.1046C14.8365 12.2784 14.5014 12.5499 14.0789 12.8277C13.6656 13.0991 13.2552 13.3186 12.9927 13.4172C11.1284 14.1201 8.87137 14.1201 7.00615 13.4172C6.74461 13.3186 6.33416 13.0991 5.92091 12.8277C5.49835 12.5509 5.16328 12.2784 5.01064 12.1046"
    stroke="currentColor" stroke-width="2.2" stroke-linecap="round" stroke-linejoin="round" />
  <path
    d="M6 9.50036C6 10.3255 6.63093 11 7.40472 11C8.18669 11 8.81092 10.3255 8.81092 9.50036C8.82655 8.67452 8.18669 8 7.40546 8C6.61531 8 6 8.67452 6 9.50036Z"
    fill="currentColor" />
  <path
    d="M11.1873 9.50036C11.1873 10.3255 11.8198 11 12.5935 11C13.3829 11 13.9997 10.3255 13.9997 9.50036C14.0146 8.67452 13.3748 8 12.5935 8C11.8041 8 11.1873 8.67452 11.1873 9.50036Z"
    fill="currentColor" />
</svg>