<svg xmlns="http://www.w3.org/2000/svg" width="20" height="20" viewBox="0 0 20 20" fill="none">
  <path
    d="M13.9657 10.7701C14.4562 10.7701 14.8539 11.1677 14.8539 11.6582V11.6582C14.8539 14.1185 14.2486 16.4944 13.1083 18.627V18.627C12.9943 18.8334 12.7351 18.9092 12.5279 18.7966L12.1177 18.5737C11.6745 18.333 11.519 17.7759 11.7384 17.3217C12.5273 15.6885 12.9692 13.9071 13.0254 12.0633L13.0308 11.6582V11.6582C13.0308 11.1677 13.4285 10.7701 13.919 10.7701H13.9657ZM9.38472 9.01703C9.38472 8.51361 9.79282 8.1055 10.2962 8.1055V8.1055C10.7997 8.1055 11.2078 8.51361 11.2078 9.01703V11.6582L11.2032 11.9949C11.1344 14.4265 10.2755 16.7741 8.7503 18.6998V18.6998C8.63355 18.8426 8.42371 18.8651 8.27933 18.7503L7.84805 18.4074C7.45343 18.0936 7.3992 17.5181 7.68563 17.1032C8.7297 15.5909 9.32004 13.8173 9.37925 11.9833L9.38472 11.6582V9.01703ZM10.2962 4.55276C11.505 4.55276 12.6643 5.02064 13.519 5.85347C14.1514 6.4697 14.5788 7.24838 14.7583 8.08884C14.8635 8.58116 14.4458 8.99369 13.9424 8.99369V8.99369C13.4389 8.99369 13.0453 8.57358 12.8727 8.10068C12.7379 7.73137 12.5198 7.39202 12.2299 7.10956C11.7171 6.60986 11.0215 6.32913 10.2962 6.32913C9.57099 6.32913 8.87544 6.60986 8.3626 7.10956C7.84977 7.60926 7.56166 8.287 7.56166 8.99369V11.6582C7.56166 13.6433 6.81421 15.5165 5.49249 16.9669V16.9669C5.38548 17.0801 5.2073 17.0858 5.09319 16.9799L4.65128 16.5695C4.28317 16.2277 4.27575 15.6524 4.571 15.246C5.27474 14.2773 5.68182 13.1259 5.73314 11.9274L5.73861 11.6582V8.99369C5.73861 7.81588 6.21878 6.68631 7.07351 5.85347C7.92823 5.02064 9.08748 4.55276 10.2962 4.55276ZM10.2962 1.00001C12.472 1.00001 14.5587 1.8422 16.0972 3.3413C17.6357 4.84041 18.5 6.87363 18.5 8.99369V11.6582C18.5 13.1664 18.3168 14.6514 17.9567 16.0903V16.0903C17.8862 16.3548 17.6148 16.5121 17.3503 16.4419L16.9558 16.3371C16.4684 16.2077 16.1836 15.7051 16.2922 15.2127C16.5119 14.2162 16.6388 13.1968 16.6697 12.1627L16.6769 11.6582V8.99369C16.6769 7.83981 16.3474 6.7087 15.7252 5.72694C15.103 4.74518 14.2127 3.95151 13.1539 3.43474C12.0951 2.91798 10.9096 2.69851 9.73003 2.8009C8.80906 2.88085 7.92011 3.15455 7.12321 3.59963C6.735 3.81645 6.24221 3.7874 5.92385 3.47698V3.47698C5.52832 3.09131 5.56292 2.44138 6.03812 2.15966C7.31534 1.40249 8.78778 0.997829 10.2962 1.00001ZM3.30255 4.81285C3.58899 4.35875 4.21643 4.32611 4.60109 4.70067V4.70067C4.93466 5.02546 4.96498 5.54537 4.7321 5.94851C4.23361 6.81143 3.95292 7.78207 3.9192 8.77964L3.91555 8.99369L3.9192 10.7701C3.9192 11.7648 3.67855 12.7267 3.22552 13.5918V13.5918C3.14651 13.734 2.96711 13.7852 2.82497 13.7061L2.29923 13.4133C1.8606 13.1691 1.71862 12.613 1.87625 12.1363C1.99382 11.7808 2.0653 11.4097 2.08794 11.0294L2.09614 10.7701V8.99369C2.09172 7.5115 2.51298 6.06461 3.30255 4.81285Z"
    fill="currentColor" />
</svg>