<svg width="100" height="29" viewBox="0 0 100 29" fill="none" xmlns="http://www.w3.org/2000/svg">
<g opacity="0.6">
<path d="M26.8273 16.0137C27.6908 14.0781 23.4218 8.67044 19.3435 6.41748C16.7728 4.67215 14.0941 4.91193 13.5516 5.67826C12.361 7.36006 17.494 8.78512 20.9269 10.4481C20.1889 10.7697 19.4935 11.3468 19.0846 12.0848C17.8048 10.6829 14.9958 9.47562 11.6998 10.4481C9.47863 11.1034 7.63269 12.6483 6.91925 14.9818C6.7459 14.9045 6.55396 14.8615 6.35203 14.8615C5.57984 14.8615 4.95386 15.4896 4.95386 16.2644C4.95386 17.0392 5.57984 17.6673 6.35203 17.6673C6.49516 17.6673 6.94268 17.571 6.94268 17.571L14.0941 17.623C11.2341 22.1754 8.97388 22.8409 8.97388 23.6296C8.97388 24.4182 11.1365 24.2045 11.9485 23.9106C15.8357 22.5032 20.0108 18.1172 20.7272 16.8546C23.7358 17.2312 26.2643 17.2758 26.8273 16.0137Z" fill="url(#paint0_linear_421_23925)"/>
<path fill-rule="evenodd" clip-rule="evenodd" d="M20.9265 10.4481C20.9267 10.4482 20.927 10.4483 20.9272 10.4484C21.0863 10.3855 21.0605 10.1497 21.0168 9.96452C20.9164 9.53891 19.1837 7.82215 17.5566 7.05321C15.3395 6.00543 13.7068 6.05944 13.4656 6.54236C13.9173 7.4711 16.011 8.34307 18.1977 9.25377C19.1306 9.6423 20.0805 10.0379 20.9269 10.4479C20.9268 10.448 20.9267 10.4481 20.9265 10.4481Z" fill="url(#paint1_linear_421_23925)"/>
<path fill-rule="evenodd" clip-rule="evenodd" d="M18.1131 19.796C17.6647 19.624 17.1582 19.4663 16.5824 19.3232C17.1963 18.2208 17.3252 16.5889 16.7453 15.5572C15.9315 14.1092 14.91 13.3384 12.5362 13.3384C11.2306 13.3384 7.71536 13.7797 7.65295 16.724C7.6464 17.033 7.65279 17.3161 7.67508 17.5765L14.0942 17.6232C13.2288 19.0006 12.4183 20.0223 11.7088 20.7991C12.5607 21.0181 13.2637 21.202 13.9092 21.3708C14.5216 21.531 15.0822 21.6777 15.6689 21.8279C16.554 21.1809 17.386 20.4754 18.1131 19.796Z" fill="url(#paint2_linear_421_23925)"/>
<path d="M6.83365 17.2736C7.09588 19.5103 8.36276 20.3868 10.9515 20.6463C13.5403 20.9057 15.0252 20.7316 17.0022 20.9121C18.6533 21.0628 20.1276 21.9071 20.6745 21.6153C21.1667 21.3528 20.8913 20.4042 20.2327 19.7956C19.379 19.0067 18.1974 18.4582 16.1183 18.2635C16.5326 17.1252 16.4165 15.5292 15.773 14.6609C14.8426 13.4053 13.1251 12.8377 10.9515 13.0857C8.68056 13.3448 6.50456 14.4666 6.83365 17.2736Z" fill="url(#paint3_linear_421_23925)"/>
<path d="M33.745 14.8666H34.1121C34.4958 14.8666 34.7901 14.7795 34.9951 14.6051C35.2002 14.4308 35.3027 14.1802 35.3027 13.8534C35.3027 13.5266 35.2002 13.276 34.9951 13.1017C34.7901 12.9273 34.4958 12.8402 34.1121 12.8402H33.745V14.8666ZM38.0212 19.4097H35.6004L33.745 16.2503V19.4097H31.8004V11.1951H34.8265C35.2432 11.1951 35.607 11.2641 35.9179 11.4021C36.2287 11.5328 36.4834 11.7144 36.6818 11.9468C36.8869 12.1792 37.039 12.448 37.1382 12.753C37.244 13.0581 37.2969 13.3849 37.2969 13.7336C37.2969 14.3582 37.158 14.8666 36.8802 15.2588C36.6091 15.6438 36.2056 15.9053 35.6698 16.0433L38.0212 19.4097Z" fill="#8697FF"/>
<path d="M39.6212 16.5989C39.6212 16.7805 39.651 16.9512 39.7105 17.1109C39.77 17.2635 39.8494 17.3978 39.9486 17.5141C40.0545 17.6303 40.1768 17.7211 40.3157 17.7864C40.4612 17.8518 40.6167 17.8845 40.782 17.8845C40.9408 17.8845 41.0896 17.8518 41.2285 17.7864C41.374 17.7211 41.4964 17.6303 41.5956 17.5141C41.7014 17.3978 41.7841 17.2635 41.8436 17.1109C41.9098 16.9584 41.9429 16.795 41.9429 16.6207C41.9429 16.4464 41.9098 16.2829 41.8436 16.1304C41.7841 15.9706 41.7014 15.8326 41.5956 15.7164C41.4964 15.6002 41.374 15.5094 41.2285 15.444C41.0896 15.3787 40.9408 15.346 40.782 15.346C40.6167 15.346 40.4612 15.3787 40.3157 15.444C40.1768 15.5094 40.0545 15.6002 39.9486 15.7164C39.8494 15.8326 39.77 15.967 39.7105 16.1195C39.651 16.2648 39.6212 16.4246 39.6212 16.5989ZM41.8833 13.8207H43.689V19.4097H41.8833V18.7887C41.4997 19.319 40.9805 19.5841 40.3256 19.5841C39.9552 19.5841 39.6146 19.5114 39.3037 19.3662C38.9929 19.2136 38.7217 19.003 38.4902 18.7343C38.2587 18.4655 38.0768 18.1496 37.9445 17.7864C37.8188 17.4233 37.756 17.0274 37.756 16.5989C37.756 16.1994 37.8188 15.8217 37.9445 15.4658C38.0702 15.1027 38.2454 14.7867 38.4703 14.518C38.6952 14.2492 38.9631 14.0386 39.274 13.8861C39.5848 13.7263 39.9288 13.6464 40.3058 13.6464C40.9408 13.6464 41.4666 13.8897 41.8833 14.3764V13.8207Z" fill="#8697FF"/>
<path d="M48.3737 16.6316C48.3737 16.4573 48.344 16.2938 48.2844 16.1413C48.2249 15.9815 48.1422 15.8435 48.0364 15.7273C47.9306 15.6111 47.8082 15.5203 47.6693 15.4549C47.5304 15.3823 47.3783 15.346 47.2129 15.346C47.0542 15.346 46.9053 15.3787 46.7664 15.444C46.6275 15.5094 46.5052 15.6002 46.3993 15.7164C46.3001 15.8326 46.2174 15.9706 46.1513 16.1304C46.0918 16.2829 46.062 16.4464 46.062 16.6207C46.062 16.795 46.0918 16.9584 46.1513 17.1109C46.2108 17.2635 46.2935 17.3978 46.3993 17.5141C46.5052 17.623 46.6275 17.7138 46.7664 17.7864C46.9119 17.8518 47.0641 17.8845 47.2228 17.8845C47.3816 17.8845 47.5304 17.8518 47.6693 17.7864C47.8082 17.7211 47.9273 17.6303 48.0265 17.5141C48.1323 17.3978 48.215 17.2635 48.2745 17.1109C48.3406 16.9584 48.3737 16.7986 48.3737 16.6316ZM46.1116 10.3671V14.3764C46.5349 13.8897 47.0641 13.6464 47.6991 13.6464C48.0761 13.6464 48.42 13.7263 48.7309 13.8861C49.0484 14.0386 49.3163 14.2492 49.5345 14.518C49.7594 14.7795 49.9347 15.0918 50.0604 15.4549C50.1861 15.8108 50.2489 16.1922 50.2489 16.5989C50.2489 17.0129 50.1827 17.4015 50.0505 17.7646C49.9248 18.1278 49.7462 18.4437 49.5147 18.7125C49.2832 18.9812 49.0087 19.1955 48.6912 19.3553C48.3803 19.5078 48.043 19.5841 47.6792 19.5841C47.0178 19.5841 46.4952 19.319 46.1116 18.7887V19.4097H44.3158V10.3671H46.1116Z" fill="#8697FF"/>
<path d="M54.7351 16.6316C54.7351 16.4573 54.7054 16.2938 54.6458 16.1413C54.5863 15.9815 54.5036 15.8435 54.3978 15.7273C54.292 15.6111 54.1696 15.5203 54.0307 15.4549C53.8918 15.3823 53.7397 15.346 53.5743 15.346C53.4156 15.346 53.2667 15.3787 53.1278 15.444C52.9889 15.5094 52.8666 15.6002 52.7607 15.7164C52.6615 15.8326 52.5788 15.9706 52.5127 16.1304C52.4532 16.2829 52.4234 16.4464 52.4234 16.6207C52.4234 16.795 52.4532 16.9584 52.5127 17.1109C52.5722 17.2635 52.6549 17.3978 52.7607 17.5141C52.8666 17.623 52.9889 17.7138 53.1278 17.7864C53.2734 17.8518 53.4255 17.8845 53.5842 17.8845C53.743 17.8845 53.8918 17.8518 54.0307 17.7864C54.1696 17.7211 54.2887 17.6303 54.3879 17.5141C54.4937 17.3978 54.5764 17.2635 54.6359 17.1109C54.7021 16.9584 54.7351 16.7986 54.7351 16.6316ZM52.473 10.3671V14.3764C52.8963 13.8897 53.4255 13.6464 54.0605 13.6464C54.4375 13.6464 54.7814 13.7263 55.0923 13.8861C55.4098 14.0386 55.6777 14.2492 55.8959 14.518C56.1208 14.7795 56.2961 15.0918 56.4218 15.4549C56.5475 15.8108 56.6103 16.1922 56.6103 16.5989C56.6103 17.0129 56.5442 17.4015 56.4119 17.7646C56.2862 18.1278 56.1076 18.4437 55.8761 18.7125C55.6446 18.9812 55.3701 19.1955 55.0526 19.3553C54.7417 19.5078 54.4044 19.5841 54.0406 19.5841C53.3792 19.5841 52.8567 19.319 52.473 18.7887V19.4097H50.6772V10.3671H52.473Z" fill="#8697FF"/>
<path d="M58.6127 18.6471L56.1522 13.8207H58.2357L59.595 16.686L60.9145 13.8207H62.9782L58.8905 22.1988H56.8765L58.6127 18.6471Z" fill="#8697FF"/>
<path d="M67.198 11.1951L68.4878 16.5008L70.0753 11.1951H71.6231L73.2105 16.5008L74.5003 11.1951H76.5342L74.3019 19.4097H72.3176L70.8492 14.6487L69.3808 19.4097H67.3965L65.1641 11.1951H67.198Z" fill="#8697FF"/>
<path d="M77.8866 16.5989C77.8866 16.7805 77.9163 16.9512 77.9759 17.1109C78.0354 17.2635 78.1148 17.3978 78.214 17.5141C78.3198 17.6303 78.4422 17.7211 78.5811 17.7864C78.7266 17.8518 78.882 17.8845 79.0474 17.8845C79.2061 17.8845 79.3549 17.8518 79.4939 17.7864C79.6394 17.7211 79.7617 17.6303 79.8609 17.5141C79.9668 17.3978 80.0495 17.2635 80.109 17.1109C80.1751 16.9584 80.2082 16.795 80.2082 16.6207C80.2082 16.4464 80.1751 16.2829 80.109 16.1304C80.0495 15.9706 79.9668 15.8326 79.8609 15.7164C79.7617 15.6002 79.6394 15.5094 79.4939 15.444C79.3549 15.3787 79.2061 15.346 79.0474 15.346C78.882 15.346 78.7266 15.3787 78.5811 15.444C78.4422 15.5094 78.3198 15.6002 78.214 15.7164C78.1148 15.8326 78.0354 15.967 77.9759 16.1195C77.9163 16.2648 77.8866 16.4246 77.8866 16.5989ZM80.1487 13.8207H81.9544V19.4097H80.1487V18.7887C79.765 19.319 79.2458 19.5841 78.591 19.5841C78.2206 19.5841 77.88 19.5114 77.5691 19.3662C77.2582 19.2136 76.987 19.003 76.7555 18.7343C76.524 18.4655 76.3421 18.1496 76.2098 17.7864C76.0842 17.4233 76.0213 17.0274 76.0213 16.5989C76.0213 16.1994 76.0842 15.8217 76.2098 15.4658C76.3355 15.1027 76.5108 14.7867 76.7357 14.518C76.9606 14.2492 77.2284 14.0386 77.5393 13.8861C77.8502 13.7263 78.1941 13.6464 78.5712 13.6464C79.2061 13.6464 79.732 13.8897 80.1487 14.3764V13.8207Z" fill="#8697FF"/>
<path d="M84.377 10.3671V19.4097H82.5812V10.3671H84.377Z" fill="#8697FF"/>
<path d="M86.8046 10.3671V19.4097H85.0088V10.3671H86.8046Z" fill="#8697FF"/>
<path d="M91.1571 15.8036C91.0976 15.5276 90.9752 15.306 90.79 15.139C90.6048 14.9719 90.3799 14.8884 90.1153 14.8884C89.8375 14.8884 89.6093 14.9683 89.4307 15.1281C89.2588 15.2879 89.1496 15.513 89.1033 15.8036H91.1571ZM89.0537 16.9475C89.0537 17.7973 89.4175 18.2222 90.1451 18.2222C90.5353 18.2222 90.8297 18.0479 91.0281 17.6993H92.7644C92.4138 18.9776 91.5374 19.6168 90.1352 19.6168C89.7052 19.6168 89.3117 19.5478 88.9545 19.4097C88.5973 19.2645 88.2898 19.0611 88.0318 18.7996C87.7805 18.5382 87.5853 18.2258 87.4464 17.8627C87.3075 17.4995 87.2381 17.0928 87.2381 16.6425C87.2381 16.1776 87.3042 15.76 87.4365 15.3896C87.5688 15.0119 87.7573 14.6923 88.002 14.4308C88.2468 14.1694 88.5411 13.9696 88.8851 13.8316C89.2356 13.6863 89.6292 13.6137 90.0657 13.6137C90.4956 13.6137 90.8826 13.6863 91.2265 13.8316C91.5705 13.9696 91.8615 14.173 92.0996 14.4417C92.3377 14.7105 92.5196 15.0409 92.6453 15.4331C92.771 15.8181 92.8338 16.2539 92.8338 16.7405V16.9475H89.0537Z" fill="#8697FF"/>
<path d="M95.337 15.4658V19.4097H93.5412V15.4658H92.9459V13.8207H93.5412V12.1429H95.337V13.8207H96.3589V15.4658H95.337Z" fill="#8697FF"/>
</g>
<defs>
<linearGradient id="paint0_linear_421_23925" x1="11.4411" y1="14.2997" x2="26.6489" y2="18.5978" gradientUnits="userSpaceOnUse">
<stop stop-color="#8697FF"/>
<stop offset="1" stop-color="#ABB7FF"/>
</linearGradient>
<linearGradient id="paint1_linear_421_23925" x1="24.0819" y1="14.0096" x2="13.0772" y2="3.01506" gradientUnits="userSpaceOnUse">
<stop stop-color="#8697FF"/>
<stop offset="1" stop-color="#5156D8" stop-opacity="0"/>
</linearGradient>
<linearGradient id="paint2_linear_421_23925" x1="18.4182" y1="20.1802" x2="7.86501" y2="14.1333" gradientUnits="userSpaceOnUse">
<stop stop-color="#465EED"/>
<stop offset="1" stop-color="#8697FF" stop-opacity="0"/>
</linearGradient>
<linearGradient id="paint3_linear_421_23925" x1="12.3487" y1="14.1857" x2="19.4996" y2="23.2412" gradientUnits="userSpaceOnUse">
<stop stop-color="#8898FF"/>
<stop offset="0.983895" stop-color="#6277F1"/>
</linearGradient>
</defs>
</svg>
