<svg xmlns="http://www.w3.org/2000/svg" width="20" height="20" viewBox="0 0 20 20" fill="none">
  <path
    d="M18.432 10.0026C18.432 5.34488 14.6564 1.56927 9.9987 1.56927C5.34097 1.56927 1.56536 5.34488 1.56536 10.0026C1.56536 14.6603 5.34097 18.4359 9.9987 18.4359C14.6564 18.4359 18.432 14.6603 18.432 10.0026ZM16.4993 9.06927H13.404C13.2935 7.23978 12.8491 5.44635 12.093 3.77754C13.2256 4.15937 14.2342 4.84336 15.0086 5.75749C15.8071 6.70009 16.3234 7.84802 16.4993 9.06927ZM8.46375 9.06927C8.59244 7.20752 9.11579 5.39474 9.99868 3.75126C10.8595 5.35437 11.3998 7.15565 11.5336 9.06927H8.46375ZM7.90435 3.77754C7.14832 5.44635 6.70389 7.23978 6.59342 9.06927H3.49813C3.67403 7.84802 4.19027 6.70009 4.9888 5.75749C5.76322 4.84336 6.77176 4.15937 7.90435 3.77754ZM12.093 16.2277C12.8491 14.5589 13.2935 12.7654 13.404 10.9359H16.4993C16.3234 12.1572 15.8071 13.3051 15.0086 14.2477C14.2342 15.1619 13.2256 15.8458 12.093 16.2277ZM9.99871 16.254C9.11609 14.6104 8.59301 12.7976 8.46457 10.9359H11.5336C11.405 12.7977 10.8816 14.6105 9.99871 16.254ZM6.59342 10.9359C6.70389 12.7654 7.14832 14.5589 7.90435 16.2277C6.77176 15.8458 5.76322 15.1619 4.9888 14.2477C4.19027 13.3051 3.67403 12.1572 3.49813 10.9359H6.59342Z"
    fill="currentColor" stroke="currentColor" stroke-width="0.2" />
</svg>