<svg width="20" height="20" viewBox="0 0 20 20" fill="none" xmlns="http://www.w3.org/2000/svg">
<g clip-path="url(#clip0_55263_385555)">
<circle cx="10" cy="10" r="8" stroke="#4C65FF" stroke-width="2.5" stroke-linecap="round" stroke-linejoin="round"/>
<path d="M10.125 14.7344C7.60156 14.7344 6 13.0781 6 10.3672C6 7.6875 7.59375 6 10.1094 6C11.7891 6 13.1875 6.8125 13.6406 8C13.7188 8.19531 13.7656 8.39844 13.7656 8.5625C13.7656 9.125 13.3281 9.45312 12.7891 9.45312C12.3359 9.45312 12.0625 9.27344 11.8281 8.85938C11.4141 8.125 10.9062 7.78906 10.1797 7.78906C9.02344 7.78906 8.3125 8.74219 8.3125 10.3594C8.3125 12.0078 9.02344 12.9453 10.1641 12.9453C10.9609 12.9453 11.4531 12.5547 11.8047 11.9609C12.1094 11.4844 12.3594 11.2891 12.8438 11.2891C13.375 11.2891 13.8047 11.6406 13.8047 12.2031C13.8047 12.3828 13.7578 12.5703 13.6562 12.7969C13.1562 13.9375 11.7266 14.7344 10.125 14.7344Z" fill="#4C65FF"/>
</g>
<defs>
<clipPath id="clip0_55263_385555">
<rect width="20" height="20" fill="white" transform="matrix(-1 0 0 -1 20 20)"/>
</clipPath>
</defs>
</svg>
