<svg xmlns="http://www.w3.org/2000/svg" width="20" height="20" viewBox="0 0 20 20" fill="none">
  <g clip-path="url(#clip0_27529_13847)">
    <path
      d="M18 10C18 14.4182 14.4182 18 10 18C5.58172 18 2 14.4182 2 10C2 5.58172 5.58172 2 10 2C14.4182 2 18 5.58172 18 10Z"
      stroke="currentColor" stroke-width="2.2" stroke-linecap="round" stroke-linejoin="round" />
    <path fill-rule="evenodd" clip-rule="evenodd"
      d="M9.9987 4.58594C10.574 4.58594 11.0404 5.05231 11.0404 5.6276C11.0404 6.2029 10.574 6.66927 9.9987 6.66927C9.42341 6.66927 8.95703 6.2029 8.95703 5.6276C8.95703 5.05231 9.42341 4.58594 9.9987 4.58594Z"
      fill="currentColor" />
    <path d="M10.2083 13.1693V8.33594H9.79167H9.375" stroke="currentColor" stroke-width="2"
      stroke-linecap="round" stroke-linejoin="round" />
    <path d="M8.75 13.7031H11.6667" stroke="currentColor" stroke-width="2" stroke-linecap="round"
      stroke-linejoin="round" />
  </g>
  <defs>
    <clipPath id="clip0_27529_13847">
      <rect width="20" height="20" fill="white" />
    </clipPath>
  </defs>
</svg>