<svg viewBox="0 0 20 20" width="20" height="20" fill="none" xmlns="http://www.w3.org/2000/svg">
<path d="M9.44684 8.23889C11.1697 8.23889 12.5663 6.84227 12.5663 5.11944C12.5663 3.39662 11.1697 2 9.44684 2C7.72401 2 6.32739 3.39662 6.32739 5.11944C6.32739 6.84227 7.72401 8.23889 9.44684 8.23889Z" stroke="currentColor" stroke-width="1.25" stroke-linecap="round" stroke-linejoin="round"/>
<path fill-rule="evenodd" clip-rule="evenodd" d="M8.21511 11.1866H8.18747C7.21258 11.1866 6.44268 11.1866 5.82269 11.2373C5.18956 11.289 4.65793 11.3967 4.17383 11.6433L4.17381 11.6433C3.38539 12.045 2.74439 12.6861 2.34268 13.4745C2.09602 13.9586 1.98836 14.4902 1.93663 15.1234C1.88598 15.7433 1.88598 16.5132 1.88599 17.4881V17.5158V18.0505C1.88599 18.3957 2.16581 18.6755 2.51099 18.6755H12.1738C11.9149 18.2953 11.7104 17.8748 11.5719 17.4255H3.13599C3.13606 16.464 3.13786 15.7713 3.18248 15.2251C3.2279 14.6693 3.31453 14.3205 3.45644 14.042L3.45644 14.042C3.73831 13.4888 4.18808 13.039 4.74128 12.7571L4.7413 12.7571C5.01982 12.6152 5.36866 12.5285 5.92448 12.4831C6.48761 12.4371 7.20649 12.4366 8.21511 12.4366H10.1759C11.1845 12.4366 11.9034 12.4371 12.4665 12.4831C12.6455 12.4978 12.8029 12.5166 12.9435 12.5403C13.3453 12.1845 13.8087 11.8968 14.3157 11.6952C14.2832 11.6775 14.2503 11.6602 14.2172 11.6433L14.2172 11.6433C13.7331 11.3967 13.2015 11.289 12.5683 11.2373C11.9483 11.1866 11.1784 11.1866 10.2036 11.1866H10.1759H8.21511Z" fill="currentColor"/>
<path d="M8.18747 11.1866V11.2366V11.1866ZM5.82269 11.2373L5.81862 11.1875V11.1875L5.82269 11.2373ZM4.17383 11.6433L4.19652 11.6879L4.19653 11.6879L4.17383 11.6433ZM4.17381 11.6433L4.15111 11.5988L4.15111 11.5988L4.17381 11.6433ZM2.34268 13.4745L2.38723 13.4972L2.38723 13.4972L2.34268 13.4745ZM1.93663 15.1234L1.98647 15.1274L1.93663 15.1234ZM1.88599 17.4881H1.93599H1.88599ZM12.1738 18.6755V18.7255C12.1924 18.7255 12.2094 18.7153 12.218 18.6989C12.2267 18.6825 12.2256 18.6627 12.2152 18.6474L12.1738 18.6755ZM11.5719 17.4255L11.6197 17.4108C11.6132 17.3898 11.5938 17.3755 11.5719 17.3755V17.4255ZM3.13599 17.4255L3.08599 17.4255C3.08599 17.4388 3.09126 17.4515 3.10063 17.4609C3.11001 17.4703 3.12273 17.4755 3.13599 17.4755V17.4255ZM3.18248 15.2251L3.13265 15.2211L3.18248 15.2251ZM3.45644 14.042L3.50104 14.0647L3.50203 14.0625L3.45644 14.042ZM3.45644 14.042L3.41184 14.0192L3.41084 14.0214L3.45644 14.042ZM4.74128 12.7571L4.76398 12.8016L4.76409 12.8016L4.74128 12.7571ZM4.7413 12.7571L4.71861 12.7125L4.7185 12.7126L4.7413 12.7571ZM5.92448 12.4831L5.92855 12.533L5.92448 12.4831ZM12.4665 12.4831L12.4625 12.533L12.4665 12.4831ZM12.9435 12.5403L12.9352 12.5896C12.9501 12.5921 12.9653 12.5877 12.9766 12.5777L12.9435 12.5403ZM14.3157 11.6952L14.3342 11.7417C14.3523 11.7345 14.3645 11.7175 14.3657 11.6982C14.3668 11.6788 14.3567 11.6605 14.3396 11.6513L14.3157 11.6952ZM14.2172 11.6433L14.1943 11.6877L14.1945 11.6879L14.2172 11.6433ZM14.2172 11.6433L14.2401 11.5989L14.2399 11.5988L14.2172 11.6433ZM12.5683 11.2373L12.5724 11.1875V11.1875L12.5683 11.2373ZM10.2036 11.1866V11.2366V11.1866ZM4.76411 12.8016C4.78868 12.789 4.79839 12.7588 4.7858 12.7343C4.77321 12.7097 4.74307 12.7 4.7185 12.7126L4.76411 12.8016ZM4.71848 12.7126C4.6939 12.7252 4.68419 12.7553 4.69679 12.7799C4.70938 12.8045 4.73951 12.8142 4.76409 12.8016L4.71848 12.7126ZM8.18747 11.2366H8.21511V11.1366H8.18747V11.2366ZM5.82676 11.2871C6.44425 11.2367 7.2118 11.2366 8.18747 11.2366L8.18747 11.1366C7.21335 11.1366 6.44111 11.1366 5.81862 11.1875L5.82676 11.2871ZM4.19653 11.6879C4.67241 11.4454 5.19673 11.3386 5.82676 11.2871L5.81862 11.1875C5.18239 11.2394 4.64345 11.3479 4.15113 11.5988L4.19653 11.6879ZM4.1965 11.6879L4.19652 11.6879L4.15113 11.5988L4.15111 11.5988L4.1965 11.6879ZM2.38723 13.4972C2.78415 12.7182 3.4175 12.0848 4.19651 11.6879L4.15111 11.5988C3.35328 12.0053 2.70463 12.654 2.29813 13.4518L2.38723 13.4972ZM1.98647 15.1274C2.03794 14.4974 2.14476 13.9731 2.38723 13.4972L2.29813 13.4518C2.04728 13.9441 1.93878 14.483 1.8868 15.1193L1.98647 15.1274ZM1.93599 17.4881C1.93598 16.5125 1.93602 15.7449 1.98647 15.1274L1.8868 15.1193C1.83594 15.7418 1.83598 16.514 1.83599 17.4881L1.93599 17.4881ZM1.93599 17.5158V17.4881H1.83599V17.5158H1.93599ZM1.93599 18.0505V17.5158H1.83599V18.0505H1.93599ZM2.51099 18.6255C2.19342 18.6255 1.93599 18.3681 1.93599 18.0505H1.83599C1.83599 18.4233 2.13819 18.7255 2.51099 18.7255V18.6255ZM12.1738 18.6255H2.51099V18.7255H12.1738V18.6255ZM12.2152 18.6474C11.9589 18.2712 11.7567 17.8553 11.6197 17.4108L11.5241 17.4403C11.6642 17.8944 11.8708 18.3194 12.1325 18.7037L12.2152 18.6474ZM3.13599 17.4755H11.5719V17.3755H3.13599V17.4755ZM3.13265 15.2211C3.08782 15.7697 3.08606 16.4648 3.08599 17.4255L3.18599 17.4255C3.18606 16.4633 3.18789 15.7729 3.23232 15.2292L3.13265 15.2211ZM3.41189 14.0193C3.26578 14.306 3.17831 14.6622 3.13265 15.2211L3.23232 15.2292C3.27748 14.6765 3.36327 14.335 3.50099 14.0647L3.41189 14.0193ZM3.41084 14.0214L3.41084 14.0214L3.50203 14.0625L3.50203 14.0625L3.41084 14.0214ZM4.71858 12.7125C4.15598 12.9992 3.69855 13.4566 3.41189 14.0193L3.50099 14.0647C3.77807 13.5209 4.22019 13.0787 4.76398 12.8016L4.71858 12.7125ZM4.7185 12.7126L4.71848 12.7126L4.76409 12.8016L4.76411 12.8016L4.7185 12.7126ZM5.92041 12.4333C5.3615 12.479 5.00536 12.5664 4.71861 12.7125L4.764 12.8016C5.03429 12.6639 5.37581 12.5781 5.92855 12.533L5.92041 12.4333ZM8.21511 12.3866C7.20733 12.3866 6.48605 12.3871 5.92041 12.4333L5.92855 12.533C6.48917 12.4872 7.20565 12.4866 8.21511 12.4866V12.3866ZM10.1759 12.3866H8.21511V12.4866H10.1759V12.3866ZM12.4706 12.4333C11.905 12.3871 11.1837 12.3866 10.1759 12.3866V12.4866C11.1854 12.4866 11.9019 12.4872 12.4625 12.533L12.4706 12.4333ZM12.9518 12.491C12.8095 12.4671 12.6506 12.448 12.4706 12.4333L12.4625 12.533C12.6403 12.5475 12.7963 12.5662 12.9352 12.5896L12.9518 12.491ZM12.9766 12.5777C13.3742 12.2257 13.8327 11.9411 14.3342 11.7417L14.2973 11.6487C13.7848 11.8525 13.3164 12.1433 12.9104 12.5028L12.9766 12.5777ZM14.1945 11.6879C14.2272 11.7045 14.2597 11.7216 14.2919 11.7391L14.3396 11.6513C14.3067 11.6333 14.2734 11.6158 14.2399 11.5988L14.1945 11.6879ZM14.1942 11.6877L14.1943 11.6877L14.2402 11.5989L14.2401 11.5989L14.1942 11.6877ZM12.5643 11.2871C13.1943 11.3386 13.7186 11.4454 14.1945 11.6879L14.2399 11.5988C13.7476 11.3479 13.2086 11.2394 12.5724 11.1875L12.5643 11.2871ZM10.2036 11.2366C11.1792 11.2366 11.9468 11.2367 12.5643 11.2871L12.5724 11.1875C11.9499 11.1366 11.1777 11.1366 10.2036 11.1366V11.2366ZM10.1759 11.2366H10.2036V11.1366H10.1759V11.2366ZM8.21511 11.2366H10.1759V11.1366H8.21511V11.2366ZM4.7185 12.7126L4.71848 12.7126L4.76409 12.8016L4.76411 12.8016L4.7185 12.7126Z" fill="currentColor"/>
<path d="M16.7104 13.5605L17.4767 12.7941C17.5394 12.7315 17.6244 12.6963 17.713 12.6963C17.8017 12.6963 17.8867 12.7315 17.9493 12.7941L18.8137 13.6585C18.8763 13.7211 18.9115 13.8061 18.9115 13.8948C18.9115 13.9834 18.8763 14.0684 18.8137 14.1311L18.0473 14.8974M16.7104 13.5605L13.466 16.8049C13.4033 16.8675 13.3681 16.9525 13.3681 17.0412V17.9055C13.3681 17.9941 13.4033 18.0791 13.466 18.1418C13.5287 18.2045 13.6137 18.2397 13.7023 18.2397H14.5666C14.6553 18.2397 14.7403 18.2044 14.8029 18.1418L18.0473 14.8974M16.7104 13.5605L18.0473 14.8974" stroke="currentColor" stroke-linecap="round" stroke-linejoin="round"/>
</svg>
