<svg xmlns="http://www.w3.org/2000/svg" width="20" height="20" viewBox="0 0 20 20" fill="none">
  <path
    d="M11.5937 18.5306L11.5291 18.4542L11.5937 18.5306C10.6979 19.2875 9.36361 19.2901 8.46467 18.5367L2.7249 13.7265C2.46627 13.5098 2.25861 13.2416 2.1162 12.9399C1.97378 12.6383 1.9 12.3104 1.9 11.9785V5.39928C1.9 4.46436 2.48099 3.62352 3.36903 3.26548L8.60114 1.15596C9.43804 0.818533 10.3786 0.814581 11.2185 1.14495L11.1821 1.23746L11.2185 1.14495L16.6118 3.26641C17.51 3.61972 18.1 4.4656 18.1 5.40786V11.9819C18.1 12.3122 18.0269 12.6385 17.8858 12.939C17.7447 13.2394 17.5389 13.5069 17.2824 13.7237L11.5937 18.5306ZM15.8763 5.02822L15.9129 4.93516L15.8763 5.02822L10.4831 2.90676C10.1203 2.76406 9.71377 2.76577 9.35231 2.91151L4.1202 5.02103L4.08335 4.92964L4.12019 5.02103C3.96005 5.08559 3.85824 5.23563 3.85824 5.39928V11.9785C3.85824 12.0368 3.8712 12.0946 3.89635 12.1479C3.92151 12.2011 3.95835 12.2488 4.00458 12.2876L9.74436 17.0978C9.90594 17.2332 10.147 17.2327 10.308 17.0967L15.9967 12.2898L16.0613 12.3662L15.9967 12.2898C16.0426 12.2511 16.0791 12.2035 16.104 12.1504C16.1289 12.0974 16.1418 12.0399 16.1418 11.9819V5.40786C16.1418 5.32702 16.1169 5.24771 16.0698 5.18008C16.0227 5.1124 15.9555 5.05935 15.8763 5.02822ZM9.97069 6.77286H10.0707V6.77572C10.9505 6.82582 11.6531 7.53268 11.6531 8.40374C11.6531 8.9514 11.3747 9.43488 10.9498 9.73011V12.5144C10.9498 13.058 10.4952 13.4932 9.9414 13.4932C9.3876 13.4932 8.93296 13.0581 8.93296 12.5144V9.68749C8.54126 9.38955 8.28828 8.92575 8.28828 8.40374C8.28828 7.49994 9.04466 6.77286 9.97069 6.77286Z"
    fill="currentColor" stroke="currentColor" stroke-width="0.2" stroke-linecap="round" />
</svg>