<svg xmlns="http://www.w3.org/2000/svg" viewBox="0 0 20 20" fill="none">
  <g clip-path="url(#clip0_55784_400034)">
    <path d="M4.61084 0.9021C5.10287 0.9021 5.50137 1.30073 5.50146 1.79272V14.5515H18.2593C18.7511 14.5515 19.1497 14.9492 19.1499 15.4412C19.1499 15.9333 18.7512 16.3318 18.2593 16.3318H4.61084C4.11881 16.3317 3.72021 15.9332 3.72021 15.4412V1.79272C3.72031 1.30077 4.11885 0.902204 4.61084 0.9021Z" fill="currentColor" stroke="currentColor" stroke-width="0.3"/>
    <path d="M15.3887 14.7991C15.8806 14.7991 16.279 15.1968 16.2793 15.6887V18.2073C16.2792 18.6993 15.8807 19.0969 15.3887 19.0969H15.2393V19.0833C14.8188 19.012 14.4992 18.6481 14.499 18.2073V15.6897C14.499 15.1977 14.8967 14.7993 15.3887 14.7991ZM15.3887 3.66821C15.8807 3.66821 16.2792 4.0668 16.2793 4.55884V13.0969C16.2793 13.589 15.8808 13.9875 15.3887 13.9875C14.8967 13.9873 14.499 13.5889 14.499 13.0969V5.44946H7.01758C6.52543 5.44946 6.12695 5.05092 6.12695 4.55884C6.12708 4.0668 6.52555 3.66821 7.01758 3.66821H15.3887ZM4.24121 3.66821C4.73303 3.66845 5.13076 4.06693 5.13086 4.55884C5.13086 5.05081 4.7331 5.44922 4.24121 5.44946H1.74023C1.24824 5.44937 0.849609 5.05086 0.849609 4.55884C0.849732 4.06684 1.24831 3.66831 1.74023 3.66821H4.24121Z" fill="currentColor" stroke="currentColor" stroke-width="0.3"/>
  </g>
  <defs>
    <clipPath id="clip0_55784_400034">
      <rect width="20" height="20" fill="white"/>
    </clipPath>
  </defs>
</svg>
