<svg xmlns="http://www.w3.org/2000/svg" width="20" height="20" viewBox="0 0 20 20" fill="none">
  <path
    d="M9 17.5H4.5C3.39543 17.5 2.5 16.6046 2.5 15.5V4.5C2.5 3.39543 3.39543 2.5 4.5 2.5H14.5C15.6046 2.5 16.5 3.39543 16.5 4.5V10.5"
    stroke="currentColor" stroke-width="2" stroke-linecap="round" />
  <path d="M6 6.80469H12.5" stroke="currentColor" stroke-width="2" stroke-linecap="round" />
  <path d="M6 11H9.20209" stroke="currentColor" stroke-width="2" stroke-linecap="round" />
  <path
    d="M12.7889 12.875C12.5171 12.8698 12.2548 12.9755 12.0626 13.1677C11.8703 13.36 11.7646 13.6222 11.7699 13.8941L11.8179 16.3916C11.8256 16.7925 12.072 17.15 12.4439 17.2999C12.8159 17.4498 13.2413 17.363 13.5248 17.0795L15.9743 14.63C16.2579 14.3465 16.3446 13.921 16.1947 13.5491C16.0449 13.1772 15.6873 12.9308 15.2865 12.9231L12.7889 12.875Z"
    stroke="currentColor" stroke-width="2" stroke-linecap="round" stroke-linejoin="round" />
</svg>