<svg viewBox="0 0 47 87" fill="none" xmlns="http://www.w3.org/2000/svg">
<path opacity="0.4" d="M80.258 20.236C93.1073 40.5321 87.0689 67.4087 66.7727 80.258C46.4765 93.1073 19.6 87.0689 6.75068 66.7727C-6.09863 46.4765 -0.0602154 19.6 20.2359 6.75072C40.532 -6.09855 67.4087 -0.0603125 80.258 20.236ZM48.3135 69.7989C37.4772 72.1483 25.827 67.6743 19.5593 57.7742C13.2916 47.874 14.2347 35.4355 20.9898 26.6396C21.4126 26.0941 21.4292 25.152 21.0598 24.5686L19.7043 22.4276C19.154 21.5583 18.167 21.4967 17.5048 22.2837C8.63829 32.882 7.18021 48.3925 14.9658 60.6903C22.7515 72.9883 37.3951 78.3049 50.7638 74.8182C51.7585 74.5562 52.125 73.6377 51.5747 72.7685L50.2192 70.6274C49.8462 70.0382 48.9912 69.656 48.3135 69.7989ZM34.3044 11.6563C33.3098 11.9182 32.9432 12.8367 33.4936 13.706L34.849 15.847C35.2183 16.4304 36.077 16.8185 36.7509 16.6696C47.5872 14.3203 59.2375 18.7944 65.5051 28.6945C71.7728 38.5946 70.8297 51.0332 64.0747 59.8289C63.6141 60.431 63.6021 61.264 64.0047 61.9L65.3602 64.041C65.9105 64.9103 66.8975 64.9719 67.5597 64.1849C76.4299 53.5924 77.8879 38.082 70.1022 25.7841C62.3166 13.4862 47.6672 8.17317 34.3044 11.6563ZM56.0649 42.3225C52.667 36.9553 48.255 37.2151 41.3961 40.348C36.3123 42.6185 34.7173 42.1001 33.3396 39.924C32.0322 37.8588 32.6803 35.3973 35.7256 33.4693C38.4792 31.726 40.6696 31.6877 42.7229 33.4851C43.1826 33.8887 43.8476 33.958 44.361 33.633L46.7762 32.1039C47.4471 31.6791 47.5806 30.7284 47.0233 30.1578C44.043 27.1413 40.3565 26.5332 36.2405 28.2156L33.9247 24.5577C33.8293 24.4066 33.7051 24.2758 33.559 24.1728C33.413 24.0698 33.2481 23.9966 33.0738 23.9574C32.8994 23.9183 32.7191 23.9139 32.543 23.9445C32.367 23.9752 32.1987 24.0402 32.0478 24.136L29.7493 25.5912C29.5982 25.6866 29.4674 25.8109 29.3644 25.9569C29.2614 26.1029 29.1882 26.2678 29.149 26.4422C29.1098 26.6165 29.1054 26.7969 29.1361 26.9729C29.1667 27.149 29.2318 27.3172 29.3276 27.4681L31.5805 31.0268C27.4342 34.5589 26.4108 39.4482 28.8743 43.3393C32.0617 48.374 36.3348 48.3983 43.3046 45.1953C48.1131 43.1481 49.9444 43.3044 51.5141 45.7838C53.0838 48.2632 52.0231 51.2475 49.0594 53.1237C45.0515 55.6611 42.6155 54.7436 40.6945 52.7806C40.2381 52.3179 39.526 52.2129 38.9776 52.5601L36.3582 54.2184C35.699 54.6358 35.5565 55.5596 36.0831 56.1332C39.1674 59.5334 43.4 60.7846 48.8435 58.2945L51.1408 61.9232C51.2362 62.0743 51.3604 62.2051 51.5064 62.3081C51.6525 62.4111 51.8174 62.4843 51.9917 62.5235C52.1661 62.5626 52.3464 62.567 52.5225 62.5364C52.6985 62.5057 52.8668 62.4407 53.0176 62.3449L55.3162 60.8897C55.4673 60.7943 55.5981 60.67 55.7011 60.524C55.8041 60.378 55.8773 60.2131 55.9165 60.0387C55.9557 59.8644 55.96 59.684 55.9294 59.508C55.8987 59.3319 55.8337 59.1637 55.7379 59.0128L53.4406 55.3841C57.7072 51.6288 58.6503 46.4063 56.0649 42.3225Z" fill="#4C65FF" fill-opacity="0.12"/>
</svg>
