<svg xmlns="http://www.w3.org/2000/svg" viewBox="0 0 20 20" fill="none">
  <path d="M5.734 9.50922C5.62525 10.3142 5.62525 11.3042 5.62525 12.383V14.2455C5.62525 14.493 5.62525 14.6155 5.54525 14.6905C5.46525 14.7642 5.34525 14.7555 5.10525 14.738C4.9072 14.7239 4.7096 14.7039 4.51275 14.678C3.71275 14.5705 3.049 14.3542 2.489 13.8942C2.28863 13.7301 2.10483 13.5467 1.94025 13.3467C1.45525 12.7555 1.24275 12.048 1.14025 11.1892C1.0415 10.3517 1.0415 9.29422 1.0415 7.95922V7.87797C1.0415 6.54297 1.0415 5.48422 1.1415 4.64797C1.2415 3.78797 1.45525 3.08172 1.9415 2.49047C2.104 2.29047 2.289 2.10672 2.489 1.94172C3.08025 1.45672 3.78775 1.24422 4.6465 1.14172C5.484 1.04297 6.5415 1.04297 7.87525 1.04297H7.9565C9.2915 1.04297 10.349 1.04297 11.1865 1.14297C12.0453 1.24297 12.7528 1.45672 13.344 1.94297C13.544 2.10547 13.7278 2.29047 13.8915 2.49047C14.3515 3.05047 14.5665 3.71547 14.6753 4.51547C14.7003 4.70047 14.7203 4.89797 14.7353 5.10672C14.7528 5.34672 14.7615 5.46672 14.6878 5.54672C14.6128 5.62672 14.4903 5.62672 14.2428 5.62672H12.3803C11.3015 5.62672 10.3128 5.62672 9.50525 5.73547C8.61775 5.85422 7.67775 6.13547 6.90525 6.90797C6.13275 7.68047 5.8515 8.62047 5.73275 9.50797L5.734 9.50922Z" fill="currentColor" fill-opacity="0.4"/>
  <path d="M13.3787 6.875H12.4537C11.315 6.875 10.3962 6.875 9.67375 6.9725C8.92375 7.0725 8.2925 7.28875 7.79 7.79C7.28875 8.2925 7.0725 8.92375 6.9725 9.67375C6.875 10.3962 6.875 11.315 6.875 12.4537V13.3787C6.875 14.5187 6.875 15.4375 6.9725 16.16C7.0725 16.91 7.28875 17.5412 7.79 18.0425C8.2925 18.545 8.92375 18.76 9.67375 18.8612C10.3962 18.9587 11.315 18.9587 12.4537 18.9587H13.3787C14.5187 18.9587 15.4375 18.9587 16.16 18.8612C16.91 18.7612 17.5412 18.545 18.0425 18.0425C18.545 17.5425 18.76 16.91 18.8612 16.16C18.9587 15.4375 18.9587 14.5187 18.9587 13.3787V12.4537C18.9587 11.315 18.9587 10.3962 18.8612 9.67375C18.7612 8.92375 18.545 8.2925 18.0425 7.79C17.5425 7.28875 16.91 7.0725 16.16 6.9725C15.4375 6.875 14.5187 6.875 13.3787 6.875Z" fill="currentColor"/>
</svg>
