<svg viewBox="0 0 105 74" fill="none" xmlns="http://www.w3.org/2000/svg">
<mask id="mask0_63303_58336" style="mask-type:alpha" maskUnits="userSpaceOnUse" x="13" y="20" width="93" height="54">
<rect width="39.7334" height="65.3466" transform="matrix(0.866025 0.5 -0.866025 0.5 70.5903 20.9805)" fill="#D9D9D9"/>
</mask>
<g mask="url(#mask0_63303_58336)">
<rect width="39.7334" height="8.53775" transform="matrix(0.866025 0.5 0 1 70.5903 20.9805)" fill="#EDF0FF"/>
<rect width="65.3466" height="8.53775" transform="matrix(0.866025 -0.5 0 1 13.9951 53.6562)" fill="#EDF0FF"/>
<rect width="39.7334" height="65.3466" transform="matrix(0.866025 0.5 -0.866025 0.5 70.5903 29.5156)" fill="black"/>
</g>
<path fill-rule="evenodd" clip-rule="evenodd" d="M43.2321 62.9745C43.2174 62.9667 43.2029 62.9587 43.1885 62.9506L38.8154 60.4258C38.8298 60.4339 38.8444 60.4419 38.859 60.4497L43.2321 62.9745Z" fill="#6580E1"/>
<path fill-rule="evenodd" clip-rule="evenodd" d="M43.1879 62.9506C42.8422 62.7548 42.5678 62.4577 42.3649 62.0594C42.1536 61.6445 42.0479 61.1278 42.0479 60.5096V36.1521C42.0479 34.9155 42.4213 33.6504 43.1681 32.3569C43.9149 31.0633 44.8238 30.1074 45.8947 29.4891L76.5849 11.7702C77.6558 11.1519 78.5647 11.0583 79.3115 11.4895L74.9384 8.9647C74.1916 8.53352 73.2827 8.62708 72.2118 9.24537L41.5216 26.9643C40.4507 27.5826 39.5419 28.5386 38.795 29.8321C38.0482 31.1256 37.6748 32.3907 37.6748 33.6273V57.9848C37.6748 58.6031 37.7805 59.1197 37.9919 59.5346C38.1948 59.9329 38.4691 60.23 38.8149 60.4259L43.1879 62.9506Z" fill="white" stroke="black" stroke-width="0.136138" stroke-linejoin="round"/>
<path fill-rule="evenodd" clip-rule="evenodd" d="M68.0684 35.4097C68.2177 35.5001 68.3862 35.5731 68.5739 35.6288C69.0953 35.7834 69.8492 35.5759 70.8355 35.0064L80.4315 29.4662L76.0584 26.9414L66.4625 32.4816C65.4761 33.0511 64.7222 33.2586 64.2009 33.104C64.0132 33.0484 63.8447 32.9753 63.6953 32.8849L68.0684 35.4097Z" fill="white" stroke="black" stroke-width="0.136138" stroke-linejoin="round"/>
<path fill-rule="evenodd" clip-rule="evenodd" d="M55.4907 21.7015C57.0126 19.9117 58.4498 18.2032 59.8026 16.5762C60.9862 15.1769 62.1558 13.7857 63.3112 12.4027C64.4667 11.0197 65.3685 9.94578 66.0167 9.18105C67.0031 7.99327 67.8838 7.20007 68.6588 6.80143C69.4338 6.4028 70.089 6.17907 70.6245 6.13026C71.1453 6.13026 71.6064 6.24507 72.0079 6.47468L67.6348 3.94989C67.2333 3.72028 66.7722 3.60547 66.2514 3.60547C65.7159 3.65428 65.0607 3.87801 64.2857 4.27664C63.5107 4.67528 62.63 5.46848 61.6436 6.65626C60.9955 7.42099 60.0936 8.49487 58.9382 9.87789C57.7827 11.2609 56.6132 12.6521 55.4295 14.0514C54.0768 15.6785 52.6395 17.3869 51.1177 19.1767L55.4907 21.7015Z" fill="white" stroke="black" stroke-width="0.136138" stroke-linejoin="round"/>
<path fill-rule="evenodd" clip-rule="evenodd" d="M72.189 28.2201C72.5553 28.4317 72.7385 28.8465 72.7385 29.4648C72.7385 30.0831 72.5553 30.7177 72.189 31.3685C71.8226 32.0194 71.3717 32.4993 70.8362 32.8085C70.3222 33.1053 69.8861 33.1546 69.5279 32.9566L65.1548 30.4318C65.513 30.6298 65.9491 30.5805 66.4632 30.2837C66.9986 29.9746 67.4495 29.4946 67.8159 28.8437C68.1823 28.1929 68.3654 27.5583 68.3654 26.94C68.3654 26.3217 68.1823 25.9069 67.8159 25.6953L72.189 28.2201Z" fill="#6580E1"/>
<path fill-rule="evenodd" clip-rule="evenodd" d="M69.5278 32.9571C69.5129 32.9488 69.4981 32.9402 69.4834 32.931L65.1104 30.4062C65.125 30.4154 65.1398 30.424 65.1547 30.4323L69.5278 32.9571Z" fill="#6580E1"/>
<path fill-rule="evenodd" clip-rule="evenodd" d="M69.4832 32.9305C69.1168 32.7027 68.9336 32.2797 68.9336 31.6614C68.9336 31.0431 69.1168 30.4167 69.4832 29.7821C69.8495 29.1476 70.3004 28.6757 70.8359 28.3665C71.3714 28.0574 71.8223 28.0086 72.1886 28.2201L67.8156 25.6953C67.4492 25.4838 66.9983 25.5326 66.4628 25.8417C65.9274 26.1509 65.4765 26.6228 65.1101 27.2573C64.7437 27.8919 64.5605 28.5183 64.5605 29.1366C64.5605 29.7549 64.7437 30.1779 65.1101 30.4057L69.4832 32.9305Z" fill="white" stroke="black" stroke-width="0.136138" stroke-linejoin="round"/>
<path d="M80.4317 38.3469C80.4317 38.9652 80.3401 39.5957 80.1569 40.2384C79.9737 40.8811 79.7131 41.5034 79.3749 42.1055C79.0367 42.7075 78.6421 43.2526 78.1912 43.7407C77.7403 44.2288 77.2471 44.6274 76.7117 44.9366L46.0215 62.6556C45.4861 62.9647 44.9788 63.1437 44.4997 63.1925C44.0206 63.2413 43.5979 63.1681 43.2315 62.9729C42.8651 62.7776 42.5763 62.4725 42.3649 62.0576C42.1535 61.6427 42.0479 61.1261 42.0479 60.5078V36.1503C42.0479 34.9137 42.4213 33.6487 43.1681 32.3551C43.9149 31.0616 44.8238 30.1057 45.8947 29.4874L76.5849 11.7684C77.6558 11.1501 78.5646 11.0566 79.3115 11.4878C80.0583 11.9189 80.4317 12.7528 80.4317 13.9894V20.6279L70.8357 26.1681C69.7648 26.7864 68.856 27.7342 68.1091 29.0115C67.3623 30.2887 66.9889 31.5457 66.9889 32.7823C67.0171 33.6121 67.1721 34.271 67.4539 34.7592C67.6794 35.1822 68.0528 35.471 68.5741 35.6256C69.0955 35.7802 69.8494 35.5727 70.8357 35.0032L80.4317 29.463V38.3469ZM74.6826 10.6213L55.4907 21.7018C57.0125 19.912 58.4498 18.2036 59.8025 16.5765C60.9861 15.1772 62.1557 13.786 63.3112 12.403C64.4666 11.02 65.3684 9.94609 66.0166 9.18136C67.003 7.99358 67.8837 7.20038 68.6587 6.80174C69.4337 6.40311 70.0889 6.17938 70.6244 6.13057C71.2444 6.13057 71.7798 6.29328 72.2307 6.6187L74.6826 10.6213Z" fill="#8294FF" stroke="black" stroke-width="0.136138" stroke-linejoin="round"/>
<path d="M69.4827 29.7821C69.1163 30.4167 68.9331 31.0431 68.9331 31.6614C68.9331 32.2797 69.1163 32.7027 69.4827 32.9305C69.849 33.1583 70.2999 33.1176 70.8354 32.8085C71.3708 32.4994 71.8218 32.0194 72.1881 31.3685C72.5545 30.7177 72.7377 30.0831 72.7377 29.4648C72.7377 28.8465 72.5545 28.4316 72.1881 28.2201C71.8218 28.0086 71.3708 28.0574 70.8354 28.3666C70.2999 28.6757 69.849 29.1476 69.4827 29.7821Z" fill="#FFAC13" stroke="black" stroke-width="0.136138" stroke-linejoin="round"/>
<circle cx="10.3865" cy="10.3865" r="10.3865" transform="matrix(0.989156 -0.146866 0.621768 0.783202 -3.43994 30.5469)" fill="#FFE4B1" stroke="black" stroke-width="0.212558"/>
<g filter="url(#filter0_i_63303_58336)">
<circle cx="8.58213" cy="8.58213" r="8.58213" transform="matrix(0.989156 -0.146866 0.621768 0.783202 -0.532715 31.6952)" fill="#FFAC13"/>
</g>
<path d="M1.46201 32.4835C2.2071 30.5972 4.20592 29.4127 6.83523 29.0223L8.0436 25.9632C5.41428 26.3536 3.41547 27.5382 2.67037 29.4245L1.46201 32.4835Z" fill="#FFE4B1" stroke="black" stroke-width="0.212558"/>
<path d="M23.5659 35.6356C19.9993 31.1429 12.5081 28.1838 6.83404 29.0263L8.0424 25.9672C13.7165 25.1248 21.2076 28.0838 24.7743 32.5765L23.5659 35.6356Z" fill="#FFAC13" stroke="black" stroke-width="0.212558"/>
<path d="M25.1237 41.8332C25.8688 39.9469 25.2191 37.7161 23.5664 35.6343L24.7747 32.5752C26.4275 34.6571 27.0772 36.8879 26.3321 38.7741L25.1237 41.8332Z" fill="black"/>
<path d="M19.1145 39.5501C18.9607 39.6491 18.7741 39.655 18.594 39.5624L17.9085 39.21C16.269 40.199 14.6523 40.3792 13.6396 40.1703C13.4224 40.1286 13.2555 40.0746 13.1277 40.0089C12.6397 39.758 12.6158 39.3832 13.1649 39.0294C13.5657 38.7711 14.0442 38.7118 14.6027 38.7827C15.1389 38.8611 15.725 38.7999 16.3922 38.4305L14.6146 37.5166L13.9325 37.8148C12.1181 38.5867 10.597 38.7525 9.28412 38.0775C7.80273 37.316 8.05317 36.0645 9.64757 34.9632L8.93301 34.5958C8.75292 34.5033 8.74202 34.3959 8.89577 34.2968C9.04952 34.1978 9.24163 34.1884 9.42172 34.281L10.1421 34.6513C11.6569 33.7763 13.2542 33.5479 14.3715 33.8106C14.5432 33.848 14.7101 33.902 14.8495 33.9737C15.291 34.2006 15.2514 34.5492 14.7517 34.8711C14.3618 35.1223 13.9072 35.2066 13.3045 35.1575C12.735 35.0938 12.1893 35.1694 11.6583 35.4308L13.3953 36.3237L14.0887 36.025C15.9974 35.2125 17.4278 35.0447 18.7291 35.7136C20.2337 36.4871 20.022 37.7204 18.3914 38.8921L19.0827 39.2475C19.2628 39.3401 19.2682 39.451 19.1145 39.5501ZM10.9374 36.7903C11.3557 37.0053 11.9182 36.9255 12.7904 36.5789L11.158 35.7397C10.5514 36.1911 10.5133 36.5723 10.9374 36.7903ZM17.1216 37.0117C16.6743 36.7818 16.1802 36.8713 15.2195 37.2615L16.8751 38.1126C17.4924 37.6476 17.5864 37.2507 17.1216 37.0117Z" fill="white"/>
<ellipse cx="7.30427" cy="7.30427" rx="7.30427" ry="7.30427" transform="matrix(0.628343 0.777936 -0.359541 0.933129 28.458 1.66016)" fill="#FFE4B1" stroke="black" stroke-width="0.149481"/>
<g filter="url(#filter1_i_63303_58336)">
<ellipse cx="6.03535" cy="6.03535" rx="6.03535" ry="6.03535" transform="matrix(0.628343 0.777936 -0.359541 0.933129 28.7993 3.83203)" fill="#FFAC13"/>
</g>
<path d="M29.0328 5.31994C30.4418 5.0986 31.8727 5.88738 33.0473 7.3416L35.3323 6.98264C34.1577 5.52842 32.7268 4.73964 31.3178 4.96098L29.0328 5.31994Z" fill="#FFE4B1" stroke="black" stroke-width="0.149481"/>
<path d="M35.0111 19.843C36.4615 16.0787 35.5824 10.4831 33.0477 7.34492L35.3327 6.98596C37.8674 10.1242 38.7465 15.7198 37.2961 19.484L35.0111 19.843Z" fill="#FFAC13" stroke="black" stroke-width="0.149481"/>
<path d="M31.8105 22.9982C33.2195 22.7768 34.3397 21.5873 35.0118 19.843L37.2968 19.484C36.6247 21.2283 35.5045 22.4179 34.0955 22.6392L31.8105 22.9982Z" fill="black"/>
<path d="M31.3355 18.546C31.2206 18.4882 31.1505 18.3772 31.1423 18.235L31.1114 17.6938C29.9271 17.0531 29.2411 16.1376 29.0065 15.4493C28.9542 15.3028 28.9274 15.1824 28.9217 15.0815C28.8996 14.6962 29.1183 14.548 29.5286 14.7546C29.8281 14.9054 30.0347 15.1742 30.191 15.538C30.3347 15.8909 30.581 16.2242 31.0428 16.4969L30.9625 15.0935L30.5385 14.7865C29.4234 13.9623 28.7803 13.0996 28.721 12.0631C28.6541 10.8936 29.5019 10.5989 30.7381 11.1724L30.7058 10.6083C30.6977 10.4661 30.7589 10.4212 30.8737 10.479C30.9886 10.5369 31.0628 10.6499 31.071 10.7921L31.1035 11.3608C32.1742 11.9667 32.8825 12.8533 33.1218 13.6241C33.1604 13.7415 33.1872 13.8619 33.1935 13.972C33.2135 14.3205 32.9881 14.4208 32.6147 14.2328C32.3234 14.0862 32.1102 13.8407 31.9249 13.4579C31.7604 13.09 31.5198 12.7863 31.172 12.5578L31.2505 13.929L31.6789 14.2427C32.8522 15.1096 33.4642 15.9166 33.523 16.9439C33.591 18.1317 32.7681 18.4433 31.4763 17.8731L31.5075 18.4189C31.5156 18.561 31.4503 18.6039 31.3355 18.546ZM30.0909 12.6058C30.1098 12.9361 30.3588 13.2485 30.8801 13.6535L30.8063 12.3648C30.3164 12.1581 30.0718 12.2711 30.0909 12.6058ZM32.1629 16.4328C32.1427 16.0796 31.9122 15.8121 31.3329 15.3691L31.4078 16.6761C31.9098 16.8844 32.1839 16.7997 32.1629 16.4328Z" fill="white"/>
<defs>
<filter id="filter0_i_63303_58336" x="3.26428" y="30.3164" width="20.0563" height="13.6798" filterUnits="userSpaceOnUse" color-interpolation-filters="sRGB">
<feFlood flood-opacity="0" result="BackgroundImageFix"/>
<feBlend mode="normal" in="SourceGraphic" in2="BackgroundImageFix" result="shape"/>
<feColorMatrix in="SourceAlpha" type="matrix" values="0 0 0 0 0 0 0 0 0 0 0 0 0 0 0 0 0 0 127 0" result="hardAlpha"/>
<feOffset dx="1.91303"/>
<feComposite in2="hardAlpha" operator="arithmetic" k2="-1" k3="1"/>
<feColorMatrix type="matrix" values="0 0 0 0 0 0 0 0 0 0 0 0 0 0 0 0 0 0 1 0"/>
<feBlend mode="normal" in2="shape" result="effect1_innerShadow_63303_58336"/>
</filter>
<filter id="filter1_i_63303_58336" x="26.0517" y="6.82654" width="8.73987" height="14.6647" filterUnits="userSpaceOnUse" color-interpolation-filters="sRGB">
<feFlood flood-opacity="0" result="BackgroundImageFix"/>
<feBlend mode="normal" in="SourceGraphic" in2="BackgroundImageFix" result="shape"/>
<feColorMatrix in="SourceAlpha" type="matrix" values="0 0 0 0 0 0 0 0 0 0 0 0 0 0 0 0 0 0 127 0" result="hardAlpha"/>
<feOffset dx="1.34533"/>
<feComposite in2="hardAlpha" operator="arithmetic" k2="-1" k3="1"/>
<feColorMatrix type="matrix" values="0 0 0 0 0 0 0 0 0 0 0 0 0 0 0 0 0 0 1 0"/>
<feBlend mode="normal" in2="shape" result="effect1_innerShadow_63303_58336"/>
</filter>
</defs>
</svg>
