<svg width="125" height="70" viewBox="0 0 125 70" fill="none" xmlns="http://www.w3.org/2000/svg">
<g opacity="0.5">
<path opacity="0.5" d="M50.2722 59.1704C56.094 58.2254 60.0473 52.7393 59.1028 46.9173C58.1575 41.0955 52.6714 37.1421 46.8497 38.0867C41.0277 39.032 37.0743 44.5174 38.0189 50.3398C38.9641 56.1618 44.4502 60.1152 50.2722 59.1704ZM78.1855 59.1704C84.0072 58.2254 87.9606 52.7393 87.0156 46.9173C86.0708 41.0955 80.5847 37.1421 74.7629 38.0867C68.9411 39.032 64.9871 44.5174 65.9323 50.3398C66.8776 56.1618 72.363 60.1152 78.1855 59.1704Z" fill="#9391F7" fill-opacity="0.3"/>
<path opacity="0.5" d="M62.4997 4.54297C33.5022 4.54297 9.99173 28.5007 10 58.0447H23.412C23.412 35.904 40.7733 17.9524 62.4997 17.9524C84.226 17.9524 101.588 35.904 101.588 58.0447H115C115.005 28.5007 91.495 4.54297 62.4997 4.54297Z" fill="#9391F7" fill-opacity="0.3"/>
</g>
</svg>
