<svg width="125" height="70" viewBox="0 0 125 70" fill="none" xmlns="http://www.w3.org/2000/svg">
<path opacity="0.5" d="M94.9972 36.1966C95.0702 43.1425 93.6957 49.7796 90.9958 56.121C87.1403 65.1506 77.8968 72.5341 69.4559 64.6748C62.572 58.2691 61.2949 50.5147 50.9813 48.611C37.3349 46.8617 37.0065 58.3462 28.0914 60.2371C18.1547 62.3724 14.8587 44.6988 15.0046 36.6724C15.1506 28.646 17.1695 17.3653 25.8049 17.3653C35.7416 17.3653 36.4105 28.0267 49.0231 27.1649C61.514 26.2646 61.7328 14.96 69.8938 7.87255C76.9358 1.74984 85.2186 6.23897 89.3659 13.6094C93.2093 20.4267 94.8999 28.4273 94.9849 36.1966H94.9972Z" fill="#8EE6CD" fill-opacity="0.3"/>
</svg>
