<svg xmlns="http://www.w3.org/2000/svg" viewBox="0 0 20 20" fill="none">
  <path d="M8.33026 2.05159C9.17001 1.7841 9.78928 2.61007 9.56962 3.30229C9.25323 4.29413 9.21586 5.3539 9.46161 6.36556C9.70736 7.37722 10.2268 8.30175 10.9629 9.0379C11.6991 9.77405 12.6236 10.2934 13.6352 10.5392C14.6469 10.7849 15.7067 10.7476 16.6985 10.4312C17.3899 10.2107 18.2159 10.83 17.9484 11.6697C16.9652 14.7596 14.0723 17 10.6533 17C8.62347 16.9998 6.67682 16.1933 5.24156 14.7579C3.80631 13.3225 3 11.3757 3 9.34585C3 5.9277 5.2404 3.03561 8.33026 2.05159Z" stroke="currentColor" stroke-width="2.5" stroke-linecap="round" stroke-linejoin="round"/>
</svg>
