<svg xmlns="http://www.w3.org/2000/svg" viewBox="0 0 20 20" fill="none">
  <path d="M8.65831 1.90648L3.66031 4.79348C3.25297 5.02854 2.91469 5.36669 2.67947 5.77394C2.44425 6.18119 2.32038 6.64318 2.32031 7.11348V12.8855C2.32031 13.8425 2.83131 14.7275 3.66031 15.2055L8.66031 18.0925C9.48831 18.5705 10.5103 18.5705 11.3383 18.0925L16.3383 15.2055C16.7457 14.9704 17.0839 14.6323 17.3192 14.225C17.5544 13.8178 17.6782 13.3558 17.6783 12.8855V7.11348C17.6783 6.15648 17.1673 5.27148 16.3383 4.79348L11.3383 1.90648C10.9312 1.67154 10.4694 1.54785 9.99931 1.54785C9.52925 1.54785 9.06745 1.67154 8.66031 1.90648H8.65831Z" stroke="currentColor" stroke-width="2.5" stroke-linecap="round" stroke-linejoin="round"/>
  <path d="M10 7.25C9.63886 7.25 9.28127 7.32113 8.94762 7.45933C8.61397 7.59753 8.31082 7.80009 8.05546 8.05546C7.80009 8.31082 7.59753 8.61397 7.45933 8.94762C7.32113 9.28127 7.25 9.63886 7.25 10C7.25 10.3611 7.32113 10.7187 7.45933 11.0524C7.59753 11.386 7.80009 11.6892 8.05546 11.9445C8.31082 12.1999 8.61397 12.4025 8.94762 12.5407C9.28127 12.6789 9.63886 12.75 10 12.75C10.7293 12.75 11.4288 12.4603 11.9445 11.9445C12.4603 11.4288 12.75 10.7293 12.75 10C12.75 9.27065 12.4603 8.57118 11.9445 8.05546C11.4288 7.53973 10.7293 7.25 10 7.25Z" stroke="currentColor" stroke-width="2.5" stroke-linecap="round" stroke-linejoin="round"/>
</svg>
