<svg width="40" height="26" viewBox="0 0 40 26" fill="none" xmlns="http://www.w3.org/2000/svg">
<g filter="url(#filter0_d_20661_125851)">
<rect x="34" y="11.5" width="24" height="24" rx="8" fill="url(#paint0_linear_20661_125851)"/>
<rect x="33.4" y="10.9" width="25.2" height="25.2" rx="8.6" stroke="white" stroke-width="1.2"/>
<path d="M51.804 18.8526L51.804 18.8526L51.0453 19.6113L52.2207 20.7873C52.2207 20.7873 52.2207 20.7873 52.2207 20.7873C52.3509 20.9176 52.4241 21.0943 52.4241 21.2786C52.4241 21.4628 52.3509 21.6395 52.2207 21.7699L52.2207 21.7699L50.1374 23.8532L50.1373 23.8532L50.0627 23.7786C50.008 23.8334 49.943 23.8769 49.8714 23.9065C49.7999 23.9362 49.7232 23.9514 49.6457 23.9514C49.5683 23.9514 49.4916 23.9362 49.42 23.9065C49.3485 23.8769 49.2835 23.8334 49.2288 23.7786L51.804 18.8526ZM51.804 18.8526C51.9343 18.7223 52.0075 18.5456 52.0075 18.3613C52.0075 18.1922 51.9458 18.0294 51.8349 17.903V17.9003L51.804 17.8694C51.6737 17.7391 51.497 17.666 51.3127 17.666C51.1285 17.666 50.9517 17.7391 50.8214 17.8694L50.8214 17.8694L48.4463 20.2445L48.4463 20.2445L47.0708 21.6206L51.804 18.8526ZM41.7197 25.0015C41.836 24.7273 42.0056 24.4789 42.2186 24.2707C42.6425 23.8563 43.2127 23.6257 43.8056 23.6291C44.3985 23.6324 44.9661 23.8695 45.3853 24.2887C45.8044 24.708 46.0414 25.2756 46.0446 25.8685C46.0479 26.4614 45.8172 27.0316 45.4027 27.4554C45.1944 27.6684 44.946 27.8379 44.6718 27.9541C44.3976 28.0704 44.103 28.1311 43.8052 28.1327C43.5074 28.1344 43.2122 28.0769 42.9367 27.9637C42.6612 27.8505 42.4109 27.6837 42.2004 27.4731C41.9898 27.2624 41.8231 27.0121 41.7099 26.7366C41.5967 26.4611 41.5393 26.1659 41.541 25.8681C41.5427 25.5703 41.6034 25.2757 41.7197 25.0015ZM50.7474 21.278L49.646 22.3788L48.9611 21.6949L50.0632 20.5939L50.7474 21.278Z" fill="white" stroke="white" stroke-width="0.211053"/>
</g>
<g filter="url(#filter1_d_20661_125851)">
<rect x="26" y="11.5" width="24" height="24" rx="8" fill="url(#paint1_linear_20661_125851)"/>
<rect x="25.4" y="10.9" width="25.2" height="25.2" rx="8.6" stroke="white" stroke-width="1.2"/>
<g clip-path="url(#clip0_20661_125851)">
<path d="M30.6375 27.8758C30.6375 29.531 31.9803 30.8774 33.6316 30.8774H37.7362C38.1066 30.8774 38.4069 30.5772 38.4069 30.2068C38.4069 29.8364 38.1066 29.5361 37.7362 29.5361H33.6316C32.7189 29.5361 31.9758 28.7916 31.9758 27.8757V19.5043C31.9758 18.5884 32.7189 17.8438 33.6316 17.8438L41.2902 17.844C42.2032 17.844 42.9463 18.5885 42.9463 19.5044V21.2261C42.9463 21.5956 43.2458 21.8952 43.6153 21.8952C43.9848 21.8952 44.2844 21.5956 44.2844 21.2261V19.5044C44.2844 17.8492 42.9416 16.5028 41.2901 16.5028H33.6314C31.9803 16.5028 30.6375 17.8492 30.6375 19.5044V27.8758Z" fill="white" stroke="white" stroke-width="0.181958"/>
<path d="M34.5517 20.5067C34.2 20.5067 33.9149 20.7918 33.9149 21.1435C33.9149 21.4953 34.2 21.7804 34.5517 21.7804H36.7352C37.087 21.7804 37.3721 21.4953 37.3721 21.1435C37.3721 20.7918 37.087 20.5067 36.7352 20.5067H34.5517Z" fill="white" stroke="white" stroke-width="0.181958"/>
<path d="M34.5517 23.7821C34.2 23.7821 33.9149 24.0672 33.9149 24.4189C33.9149 24.7706 34.2 25.0558 34.5517 25.0558H36.7352C37.087 25.0558 37.3721 24.7706 37.3721 24.4189C37.3721 24.0672 37.087 23.7821 36.7352 23.7821H34.5517Z" fill="white" stroke="white" stroke-width="0.181958"/>
<path d="M43.0676 31.2953C41.4791 31.2953 40.4609 30.661 40.1517 29.8187C40.0984 29.6801 40.0664 29.5309 40.0664 29.3869C40.0664 28.9605 40.3596 28.6779 40.7754 28.6779C41.1059 28.6779 41.3245 28.8059 41.5164 29.147C41.7669 29.7334 42.3693 30 43.105 30C43.9685 30 44.5549 29.5842 44.5549 29.0191C44.5549 28.5127 44.1924 28.2248 43.2276 28.0276L42.412 27.8676C40.8767 27.5638 40.125 26.8281 40.125 25.682C40.125 24.2747 41.3511 23.3418 43.0623 23.3418C44.4696 23.3418 45.5305 23.9335 45.8716 24.9357C45.909 25.0423 45.9303 25.1543 45.9303 25.2929C45.9303 25.6767 45.6531 25.9379 45.2426 25.9379C44.8801 25.9379 44.6562 25.794 44.475 25.4635C44.2191 24.8824 43.7233 24.6425 43.0623 24.6425C42.268 24.6425 41.7403 25.0157 41.7403 25.5807C41.7403 26.0552 42.1081 26.3484 43.0197 26.5296L43.8299 26.6949C45.4612 27.02 46.1648 27.6757 46.1648 28.8432C46.1648 30.3465 44.9867 31.2953 43.0676 31.2953Z" fill="white"/>
</g>
</g>
<g filter="url(#filter2_d_20661_125851)">
<rect x="18" y="11.5" width="24" height="24" rx="8" fill="url(#paint2_linear_20661_125851)"/>
<rect x="17.4" y="10.9" width="25.2" height="25.2" rx="8.6" stroke="white" stroke-width="1.2"/>
<g clip-path="url(#clip1_20661_125851)">
<path d="M22.6375 27.8758C22.6375 29.531 23.9803 30.8774 25.6316 30.8774H29.7362C30.1066 30.8774 30.4069 30.5772 30.4069 30.2068C30.4069 29.8364 30.1066 29.5361 29.7362 29.5361H25.6316C24.7189 29.5361 23.9758 28.7916 23.9758 27.8757V19.5043C23.9758 18.5884 24.7189 17.8438 25.6316 17.8438L33.2902 17.844C34.2032 17.844 34.9463 18.5885 34.9463 19.5044V21.2261C34.9463 21.5956 35.2458 21.8952 35.6153 21.8952C35.9848 21.8952 36.2844 21.5956 36.2844 21.2261V19.5044C36.2844 17.8492 34.9416 16.5028 33.2901 16.5028H25.6314C23.9803 16.5028 22.6375 17.8492 22.6375 19.5044V27.8758Z" fill="white" stroke="white" stroke-width="0.181958"/>
<path d="M26.5517 20.5047C26.2 20.5047 25.9149 20.7899 25.9149 21.1416C25.9149 21.4933 26.2 21.7784 26.5517 21.7784H28.7352C29.087 21.7784 29.3721 21.4933 29.3721 21.1416C29.3721 20.7899 29.087 20.5047 28.7352 20.5047H26.5517Z" fill="white" stroke="white" stroke-width="0.181958"/>
<path d="M26.5517 23.7821C26.2 23.7821 25.9149 24.0672 25.9149 24.4189C25.9149 24.7706 26.2 25.0558 26.5517 25.0558H28.7352C29.087 25.0558 29.3721 24.7706 29.3721 24.4189C29.3721 24.0672 29.087 23.7821 28.7352 23.7821H26.5517Z" fill="white" stroke="white" stroke-width="0.181958"/>
<path d="M35.0676 31.2953C33.4791 31.2953 32.4609 30.661 32.1517 29.8187C32.0984 29.6801 32.0664 29.5309 32.0664 29.3869C32.0664 28.9605 32.3596 28.6779 32.7754 28.6779C33.1059 28.6779 33.3245 28.8059 33.5164 29.147C33.7669 29.7334 34.3693 30 35.105 30C35.9685 30 36.5549 29.5842 36.5549 29.0191C36.5549 28.5127 36.1924 28.2248 35.2276 28.0276L34.412 27.8676C32.8767 27.5638 32.125 26.8281 32.125 25.682C32.125 24.2747 33.3511 23.3418 35.0623 23.3418C36.4696 23.3418 37.5305 23.9335 37.8716 24.9357C37.909 25.0423 37.9303 25.1543 37.9303 25.2929C37.9303 25.6767 37.6531 25.9379 37.2426 25.9379C36.8801 25.9379 36.6562 25.794 36.475 25.4635C36.2191 24.8824 35.7233 24.6425 35.0623 24.6425C34.268 24.6425 33.7403 25.0157 33.7403 25.5807C33.7403 26.0552 34.1081 26.3484 35.0197 26.5296L35.8299 26.6949C37.4612 27.02 38.1648 27.6757 38.1648 28.8432C38.1648 30.3465 36.9867 31.2953 35.0676 31.2953Z" fill="white"/>
</g>
</g>
<defs>
<filter id="filter0_d_20661_125851" x="22.8381" y="4.08296" width="46.3238" height="46.3238" filterUnits="userSpaceOnUse" color-interpolation-filters="sRGB">
<feFlood flood-opacity="0" result="BackgroundImageFix"/>
<feColorMatrix in="SourceAlpha" type="matrix" values="0 0 0 0 0 0 0 0 0 0 0 0 0 0 0 0 0 0 127 0" result="hardAlpha"/>
<feOffset dy="3.74487"/>
<feGaussianBlur stdDeviation="4.98086"/>
<feColorMatrix type="matrix" values="0 0 0 0 1 0 0 0 0 0.647059 0 0 0 0 0.101961 0 0 0 0.08 0"/>
<feBlend mode="normal" in2="BackgroundImageFix" result="effect1_dropShadow_20661_125851"/>
<feBlend mode="normal" in="SourceGraphic" in2="effect1_dropShadow_20661_125851" result="shape"/>
</filter>
<filter id="filter1_d_20661_125851" x="8.5449" y="0.140489" width="58.9102" height="58.9102" filterUnits="userSpaceOnUse" color-interpolation-filters="sRGB">
<feFlood flood-opacity="0" result="BackgroundImageFix"/>
<feColorMatrix in="SourceAlpha" type="matrix" values="0 0 0 0 0 0 0 0 0 0 0 0 0 0 0 0 0 0 127 0" result="hardAlpha"/>
<feOffset dy="6.09559"/>
<feGaussianBlur stdDeviation="8.12745"/>
<feColorMatrix type="matrix" values="0 0 0 0 0.168627 0 0 0 0 0.176471 0 0 0 0 0.2 0 0 0 0.08 0"/>
<feBlend mode="normal" in2="BackgroundImageFix" result="effect1_dropShadow_20661_125851"/>
<feBlend mode="normal" in="SourceGraphic" in2="effect1_dropShadow_20661_125851" result="shape"/>
</filter>
<filter id="filter2_d_20661_125851" x="0.544899" y="0.140488" width="58.9102" height="58.9102" filterUnits="userSpaceOnUse" color-interpolation-filters="sRGB">
<feFlood flood-opacity="0" result="BackgroundImageFix"/>
<feColorMatrix in="SourceAlpha" type="matrix" values="0 0 0 0 0 0 0 0 0 0 0 0 0 0 0 0 0 0 127 0" result="hardAlpha"/>
<feOffset dy="6.09559"/>
<feGaussianBlur stdDeviation="8.12745"/>
<feColorMatrix type="matrix" values="0 0 0 0 0.168627 0 0 0 0 0.176471 0 0 0 0 0.2 0 0 0 0.08 0"/>
<feBlend mode="normal" in2="BackgroundImageFix" result="effect1_dropShadow_20661_125851"/>
<feBlend mode="normal" in="SourceGraphic" in2="effect1_dropShadow_20661_125851" result="shape"/>
</filter>
<linearGradient id="paint0_linear_20661_125851" x1="35.6364" y1="12.0455" x2="62.2" y2="37.6" gradientUnits="userSpaceOnUse">
<stop stop-color="#FF9F0A"/>
<stop offset="1" stop-color="#FFC874"/>
</linearGradient>
<linearGradient id="paint1_linear_20661_125851" x1="52" y1="35.5" x2="25.8182" y2="11.5" gradientUnits="userSpaceOnUse">
<stop stop-color="#9BA9FF"/>
<stop offset="1" stop-color="#7084FF"/>
</linearGradient>
<linearGradient id="paint2_linear_20661_125851" x1="44" y1="35.5" x2="17.8182" y2="11.5" gradientUnits="userSpaceOnUse">
<stop stop-color="#9BA9FF"/>
<stop offset="1" stop-color="#7084FF"/>
</linearGradient>
<clipPath id="clip0_20661_125851">
<rect width="16.7401" height="16.7401" fill="white" transform="translate(29.6387 15.1387)"/>
</clipPath>
<clipPath id="clip1_20661_125851">
<rect width="16.7401" height="16.7401" fill="white" transform="translate(21.6387 15.1387)"/>
</clipPath>
</defs>
</svg>
