<svg width="20" height="20" viewBox="0 0 20 20" fill="none" xmlns="http://www.w3.org/2000/svg">
<circle cx="10" cy="10.0004" r="9.1" fill="#3F485F"/>
<path fill-rule="evenodd" clip-rule="evenodd" d="M9.94619 2.87695L9.95798 4.47691C9.74904 4.47845 9.5419 4.49153 9.33709 4.51595L9.14771 2.92719C9.40977 2.89595 9.67619 2.87894 9.94619 2.87695ZM11.1962 4.60633L11.5408 3.04387C11.2826 2.98692 11.0191 2.94399 10.7511 2.9159L10.5843 4.50719C10.7909 4.52884 10.9951 4.56197 11.1962 4.60633ZM13.0373 3.55494L12.3542 5.00181C12.1675 4.91368 11.9759 4.83611 11.7803 4.76953L12.2956 3.25481C12.5496 3.34122 12.7971 3.44156 13.0373 3.55494ZM13.4155 5.6591L14.4059 4.40252C14.1967 4.23761 13.978 4.08417 13.7508 3.94317L12.9071 5.30266C13.083 5.41183 13.2528 5.53085 13.4155 5.6591ZM15.5467 5.53042L14.3015 6.53512C14.1714 6.37385 14.0323 6.21991 13.885 6.07411L15.0104 4.93686C15.2 5.12446 15.3791 5.32263 15.5467 5.53042ZM14.9661 7.57897L16.4037 6.87642C16.2861 6.63595 16.1555 6.40309 16.0126 6.17875L14.6631 7.03827C14.7742 7.21272 14.8754 7.39322 14.9661 7.57897ZM16.9392 8.3838L15.3806 8.74543C15.3338 8.54383 15.2757 8.34553 15.2067 8.15124L16.7145 7.61579C16.8032 7.86567 16.8784 8.12196 16.9392 8.3838ZM15.5233 9.97923L17.1233 9.9733C17.1223 9.70341 17.1063 9.43706 17.0761 9.17504L15.4866 9.3584C15.5102 9.56322 15.5225 9.77034 15.5233 9.97923ZM16.9504 11.5676L15.3892 11.2171C15.4344 11.0161 15.4683 10.8121 15.4907 10.6056L17.0813 10.7784C17.0523 11.0462 17.0083 11.3096 16.9504 11.5676ZM14.9893 12.3736L16.4336 13.0622C16.5479 12.8224 16.6492 12.5753 16.7365 12.3217L15.2238 11.8005C15.1565 11.996 15.0782 12.1872 14.9893 12.3736ZM16.0428 13.774C15.9009 14.0007 15.7467 14.2188 15.581 14.4274L14.3281 13.4323C14.457 13.27 14.5766 13.1007 14.6865 12.9252L16.0428 13.774ZM13.4488 14.315L14.4489 15.564C14.6573 15.3971 14.8561 15.2188 15.0444 15.0299L13.9114 13.9002C13.765 14.047 13.6106 14.1855 13.4488 14.315ZM13.0994 16.416L12.4023 14.9758C12.5884 14.8857 12.7693 14.7852 12.9442 14.6748L13.7986 16.0275C13.5737 16.1696 13.3403 16.2993 13.0994 16.416ZM11.2344 15.3857L11.59 16.9457C11.852 16.8859 12.1085 16.8118 12.3586 16.724L11.8289 15.2142C11.6345 15.2825 11.4361 15.3397 11.2344 15.3857ZM9.99981 15.5238V17.1238C10.2698 17.1238 10.5363 17.1088 10.7986 17.0796L10.6211 15.4894C10.4161 15.5123 10.2088 15.5238 9.99981 15.5238ZM8.72465 4.62431L8.35709 3.0671C8.09558 3.12882 7.83964 3.20496 7.59015 3.29462L8.1313 4.80033C8.32528 4.73062 8.5233 4.67183 8.72465 4.62431ZM6.8517 3.60835L7.55972 5.04318C7.37432 5.13466 7.19419 5.23656 7.02016 5.34833L6.15554 4.00206C6.37934 3.85833 6.6117 3.72678 6.8517 3.60835ZM6.5185 5.71165L5.50916 4.47019C5.30202 4.63859 5.10453 4.81841 4.91763 5.00867L6.05906 6.12989C6.20431 5.98202 6.35772 5.84237 6.5185 5.71165ZM4.3851 5.61573L5.64547 6.60136C5.51787 6.76453 5.39952 6.93468 5.29105 7.11098L3.92834 6.27251C4.06846 6.04479 4.22103 5.82554 4.3851 5.61573ZM4.99242 7.66484L3.54296 6.98731C3.43052 7.22784 3.33113 7.4757 3.2457 7.72996L4.76237 8.23957C4.8282 8.04366 4.90502 7.85182 4.99242 7.66484ZM3.03762 8.48568L4.60138 8.82428C4.55779 9.0256 4.52543 9.22991 4.50455 9.43661L2.91265 9.27581C2.93973 9.00777 2.98166 8.74411 3.03762 8.48568ZM4.47661 10.0629L2.87671 10.0805C2.87969 10.3504 2.89767 10.6166 2.92986 10.8785L4.51791 10.6833C4.49275 10.4786 4.47892 10.2717 4.47661 10.0629ZM3.07284 11.6692L4.62864 11.2957C4.67691 11.4968 4.73643 11.6946 4.80686 11.8882L3.30321 12.435C3.21262 12.186 3.13554 11.9304 3.07284 11.6692ZM3.61985 13.1726C3.73925 13.4122 3.87176 13.6442 4.01643 13.8676L5.35936 12.9978C5.24686 12.8241 5.14422 12.6443 5.05197 12.4591L3.61985 13.1726ZM4.48702 14.5122L5.72461 13.4981C5.85598 13.6584 5.99627 13.8113 6.14473 13.956L5.02792 15.1018C4.83688 14.9156 4.65626 14.7187 4.48702 14.5122ZM6.61725 14.3674L5.63634 15.6314C5.84674 15.7947 6.06653 15.9464 6.29477 16.0857L7.12813 14.7199C6.95145 14.6121 6.78088 14.4944 6.61725 14.3674ZM7.01133 16.4686L7.68333 15.0165C7.87067 15.1032 8.06282 15.1793 8.25902 15.2444L7.75524 16.763C7.50059 16.6785 7.25232 16.5801 7.01133 16.4686ZM9.45701 15.4976C9.25019 15.4775 9.04573 15.4459 8.84423 15.4031L8.51159 16.9682C8.77023 17.0231 9.03405 17.0641 9.30223 17.0901L9.45701 15.4976Z" fill="#BBC4D5"/>
</svg>
