<svg width="100" height="100" viewBox="0 0 100 100" fill="none" xmlns="http://www.w3.org/2000/svg">
<g opacity="0.4">
<path d="M80.2552 66.359C75.7537 66.2214 71.2522 66.074 66.7605 65.9364C66.6229 54.4075 66.4755 42.8785 66.3379 31.3496C70.8394 36.6964 75.3409 42.0333 79.8325 47.38C79.9701 53.6998 80.1077 60.0294 80.2552 66.359Z" fill="#697ADF"/>
<path d="M67.172 61.2974C52.5471 61.435 37.9221 61.5824 23.2972 61.72C22.8746 53.8473 22.4519 45.9746 22.0293 38.0921C36.7918 35.8413 51.5544 33.5906 66.3267 31.3398C66.6118 41.3257 66.887 51.3115 67.172 61.2974Z" fill="#4D5EC9"/>
<path d="M33.4219 56.2267C33.7069 65.2296 33.9821 74.2228 34.2671 83.2258C49.5899 79.8546 64.9225 76.4735 80.2453 73.1023V47.3711C64.6473 50.3295 49.0395 53.2781 33.4219 56.2267Z" fill="#8697FF"/>
<path d="M34.2661 83.2247C29.7646 77.7404 25.2631 72.256 20.7715 66.7717L22.0394 38.082C25.9806 44.2347 29.9121 50.3874 33.8533 56.5499C33.9909 65.4448 34.1285 74.3397 34.2661 83.2247Z" fill="#A4B0F7"/>
<path d="M33.4217 56.225C26.8169 54.6819 20.2023 53.129 13.5975 51.5859C11.0617 46.1015 8.53577 40.6172 6 35.1328C11.4843 36.2533 16.9687 37.3836 22.453 38.504C26.1191 44.4208 29.7753 50.3278 33.4217 56.225Z" fill="#ACB8FF"/>
<path d="M65.906 31.3399C51.2811 33.7283 36.6562 36.1166 22.0312 38.5148C20.2031 33.5907 18.375 28.6764 16.5469 23.7522C30.4642 21.5015 44.3913 19.2507 58.3085 17C60.8443 21.7767 63.3801 26.5632 65.906 31.3399ZM78.9879 46.5251C74.7714 41.4633 70.5549 36.4016 66.3286 31.3399C70.6925 27.5461 75.0466 23.7424 79.4105 19.9486C84.3346 24.4501 89.2489 28.9516 94.173 33.4432C89.1113 37.8071 84.0496 42.171 78.9879 46.5251Z" fill="#ACB8FF"/>
<path d="M33.4219 56.2263L40.1741 59.1748C57.8951 55.096 75.6062 51.0171 93.3271 46.9383C88.5504 46.8007 83.7639 46.6532 78.9872 46.5156C63.802 49.7591 48.6169 52.9927 33.4219 56.2263Z" fill="#ACB8FF"/>
</g>
</svg>
