<svg width="28" height="28" viewBox="0 0 28 28" fill="none" xmlns="http://www.w3.org/2000/svg">
<path fill-rule="evenodd" clip-rule="evenodd" d="M13.6669 1.46094C17.3048 1.46094 20.2539 4.41004 20.2539 8.04794C20.2539 10.3103 19.1134 12.3062 17.3759 13.4922C21.218 14.7842 24.2016 18.0356 25.0522 22.1428C25.0938 22.3438 25.1292 22.6151 25.1604 22.9642L25.196 23.421C25.2005 23.4865 25.2027 23.5522 25.2027 23.6179C25.2027 25.2146 23.9083 26.5089 22.3117 26.5089L4.92423 26.5072L4.82465 26.502C3.23179 26.3919 2.02975 25.0115 2.13981 23.4186C2.18096 22.823 2.22919 22.3911 2.29018 22.1019C3.15241 18.0129 6.12946 14.7794 9.95825 13.4906C8.22044 12.3062 7.07991 10.3103 7.07991 8.04794C7.07991 4.41004 10.029 1.46094 13.6669 1.46094ZM13.6669 14.6349C8.97563 14.6349 4.95811 17.9313 4.00252 22.463C3.9739 22.5987 3.94488 22.8241 3.91753 23.1315L3.88564 23.5392C3.84221 24.1679 4.31662 24.7127 4.94528 24.7562C4.97146 24.758 4.99769 24.7589 5.02393 24.7589H22.3117C22.9419 24.7589 23.4527 24.2481 23.4527 23.6179L23.4521 23.579L23.4196 23.1453C23.3935 22.8476 23.3658 22.6292 23.3385 22.4977C22.3966 17.9494 18.3712 14.6349 13.6669 14.6349ZM13.6669 3.21094C10.9955 3.21094 8.82991 5.37654 8.82991 8.04794C8.82991 10.7193 10.9955 12.8849 13.6669 12.8849C16.3383 12.8849 18.5039 10.7193 18.5039 8.04794C18.5039 5.37654 16.3383 3.21094 13.6669 3.21094Z" fill="#6A7587"/>
</svg>
