<svg xmlns="http://www.w3.org/2000/svg" width="16" height="16" viewBox="0 0 16 16" fill="none">
  <path fill-rule="evenodd" clip-rule="evenodd" d="M12.9497 12.9497C11.683 14.2165 9.93298 15 8 15C6.06702 15 4.31702 14.2165 3.05025 12.9497C1.7835 11.683 1 9.93298 1 8C1 6.06702 1.7835 4.31702 3.05025 3.05025C4.31702 1.7835 6.06702 1 8 1C9.93298 1 11.683 1.7835 12.9497 3.05025C14.2165 4.31702 15 6.06702 15 8C15 9.93298 14.2165 11.683 12.9497 12.9497ZM9.33068 4.62334C9.33068 4.11298 8.91694 3.69923 8.40657 3.69923C7.8962 3.69923 7.48246 4.11298 7.48246 4.62334C7.48246 5.13371 7.8962 5.54745 8.40657 5.54745C8.91694 5.54745 9.33068 5.13371 9.33068 4.62334ZM7.8552 6.47267C7.54898 6.47267 7.30074 6.72091 7.30074 7.02713C7.30074 7.33335 7.54898 7.5816 7.8552 7.5816H8.04003V11.6445H7.3005C6.99427 11.6445 6.74603 11.8928 6.74603 12.199C6.74603 12.5052 6.99427 12.7534 7.3005 12.7534H8.53503C8.55456 12.7555 8.5744 12.7566 8.59449 12.7566C8.61458 12.7566 8.63442 12.7555 8.65395 12.7534H9.888C10.1942 12.7534 10.4425 12.5052 10.4425 12.199C10.4425 11.8928 10.1942 11.6445 9.888 11.6445H9.14895V7.02713C9.14895 6.72091 8.90071 6.47267 8.59449 6.47267H7.8552Z" fill="currentColor"/>
</svg>