<svg xmlns="http://www.w3.org/2000/svg" width="16" height="17" viewBox="0 0 16 17" fill="none">
  <path fill-rule="evenodd" clip-rule="evenodd"
    d="M2.89623 7.51828C3.78469 5.70207 5.77123 4.5 8.00004 4.5C10.2289 4.5 12.2154 5.70207 13.1039 7.51828C13.2559 7.8291 13.3334 8.16371 13.3334 8.5C13.3334 8.83629 13.2559 9.1709 13.1039 9.48172C12.2154 11.2979 10.2289 12.5 8.00004 12.5C5.77123 12.5 3.78469 11.2979 2.89623 9.48172L2.89563 9.48049C2.74553 9.17524 2.66723 8.83971 2.66671 8.49957C2.66677 8.16342 2.74425 7.82896 2.89623 7.51828ZM1.33337 8.5H2.00004L1.33337 8.50088C1.33409 9.04437 1.4591 9.58049 1.69883 10.0682C2.83051 12.381 5.30777 13.8333 8.00004 13.8333C10.6926 13.8333 13.17 12.3807 14.3016 10.0676C14.5415 9.5771 14.6667 9.04238 14.6667 8.5C14.6667 7.95762 14.5415 7.4229 14.3016 6.93238C13.17 4.61926 10.6926 3.16666 8.00004 3.16666C5.30752 3.16666 2.83006 4.61926 1.69852 6.93238C1.45857 7.4229 1.33337 7.95762 1.33337 8.5ZM6.66669 8.5C6.66669 7.76362 7.26364 7.16666 8.00002 7.16666C8.7364 7.16666 9.33335 7.76362 9.33335 8.5C9.33335 9.23638 8.7364 9.83333 8.00002 9.83333C7.26364 9.83333 6.66669 9.23638 6.66669 8.5ZM8.00002 5.83333C6.52726 5.83333 5.33335 7.02724 5.33335 8.5C5.33335 9.97276 6.52726 11.1667 8.00002 11.1667C9.47278 11.1667 10.6667 9.97276 10.6667 8.5C10.6667 7.02724 9.47278 5.83333 8.00002 5.83333Z"
    fill="currentColor" />
</svg>