<svg xmlns="http://www.w3.org/2000/svg" width="20" height="20" viewBox="0 0 20 20" fill="none">
  <path
    d="M3.0443 7.01169C2.79334 7.24766 2.76081 7.67292 2.97615 7.94554C2.99968 7.98024 3.04933 8.04236 3.11451 8.11912C3.1906 8.20872 3.2963 8.32804 3.42861 8.46873C3.66767 8.72292 3.99463 9.04792 4.39201 9.39402L3.2963 10.6187C3.05008 10.8849 3.07384 11.3033 3.30756 11.5457C3.39908 11.7057 3.58151 11.7652 3.728 11.7652C3.89631 11.7652 4.05815 11.6924 4.18224 11.5589L4.18226 11.5589L4.18422 11.5567L5.38838 10.2146C5.95253 10.6213 6.60829 11.0037 7.32375 11.2909L6.86533 12.9578L6.8653 12.9578L6.86447 12.9611C6.77453 13.316 6.95226 13.6946 7.31126 13.7999L7.33424 13.8066H7.35819H7.50049C7.79507 13.8066 8.04872 13.5969 8.11339 13.2966L8.56959 11.6381C8.91244 11.6999 9.27332 11.7398 9.63606 11.7398C9.99887 11.7398 10.36 11.7 10.7031 11.638L11.1587 13.2715C11.2248 13.5766 11.5057 13.7813 11.7714 13.7813L11.7751 13.7813C11.7962 13.7813 11.8313 13.7813 11.865 13.7761C11.89 13.7723 11.9296 13.7635 11.9684 13.7389C12.3065 13.6212 12.4711 13.2545 12.3839 12.9101L12.3839 12.9101L12.3828 12.9063L11.9251 11.2653C12.6403 10.9781 13.2959 10.5958 13.8599 10.1892L15.0404 11.5058L15.0404 11.5058L15.0424 11.508C15.1664 11.6414 15.3283 11.7143 15.4966 11.7143C15.6649 11.7143 15.8268 11.6415 15.9509 11.508C16.1993 11.2408 16.1986 10.8413 15.9818 10.5748L15.9819 10.5747L15.9767 10.5688L14.884 9.34765C15.3133 8.99763 15.657 8.66009 15.8998 8.40194C16.0341 8.2592 16.1376 8.14051 16.208 8.05711C16.2431 8.0154 16.27 7.9825 16.2883 7.95981L16.3091 7.9336L16.3146 7.92655L16.3162 7.92461L16.3166 7.92403L16.3167 7.92385L16.3168 7.92378L16.1848 7.82208L16.3168 7.92373L16.3514 7.87879V7.86605C16.5053 7.57336 16.4381 7.20634 16.204 6.98601L16.2042 6.9858L16.1967 6.97953C15.9009 6.7321 15.508 6.81314 15.2919 7.10978C15.2906 7.11145 15.2891 7.11325 15.2875 7.11519C15.1793 7.24658 14.5521 8.00833 13.5925 8.77287C12.55 9.60344 11.1456 10.4111 9.63606 10.4111C8.17479 10.4111 6.76467 9.59798 5.70277 8.75966C4.71206 7.97755 4.05082 7.19558 3.95634 7.08385C3.95479 7.08201 3.95339 7.08035 3.95214 7.07888L3.9522 7.07883C3.72748 6.80273 3.30743 6.76395 3.0443 7.01169ZM3.0443 7.01169C3.04428 7.0117 3.04426 7.01172 3.04425 7.01174L3.15851 7.13307L3.04435 7.01164C3.04433 7.01165 3.04432 7.01167 3.0443 7.01169Z"
    fill="currentColor" stroke="currentColor" stroke-width="0.333333" />
</svg>