<svg width="24" height="24" viewBox="0 0 24 24" fill="none" xmlns="http://www.w3.org/2000/svg">
<g opacity="0.8" clip-path="url(#clip0_3644_8486)">
<path d="M23.4059 13.4479C24.311 11.4189 19.8361 5.75029 15.561 3.38863C12.8662 1.55908 10.0583 1.81043 9.48961 2.61374C8.24156 4.37668 13.6222 5.8705 17.2207 7.61369C16.4472 7.95079 15.7183 8.55573 15.2896 9.32937C13.948 7.85981 11.0035 6.59431 7.54844 7.61369C5.22014 8.30063 3.28514 9.92011 2.53727 12.3662C2.35555 12.2851 2.15436 12.2401 1.94268 12.2401C1.13324 12.2401 0.477051 12.8985 0.477051 13.7107C0.477051 14.5229 1.13324 15.1813 1.94268 15.1813C2.09272 15.1813 2.56183 15.0803 2.56183 15.0803L10.0583 15.1348C7.0603 19.9068 4.69103 20.6044 4.69103 21.4312C4.69103 22.2579 6.958 22.0339 7.8092 21.7257C11.884 20.2505 16.2605 15.6528 17.0115 14.3293C20.1652 14.7241 22.8157 14.7708 23.4059 13.4479Z" fill="url(#paint0_linear_3644_8486)"/>
<path fill-rule="evenodd" clip-rule="evenodd" d="M17.1186 7.56548C17.1531 7.58035 17.1873 7.59523 17.2213 7.61012C17.3881 7.54419 17.3611 7.29702 17.3153 7.10291C17.21 6.65677 15.3937 4.85718 13.6881 4.05113C11.3599 2.95084 9.64653 3.00962 9.39844 3.51835C9.8695 4.49278 12.0659 5.40752 14.3599 6.36292C15.3005 6.75463 16.2574 7.15318 17.1186 7.56548Z" fill="url(#paint1_linear_3644_8486)"/>
<path fill-rule="evenodd" clip-rule="evenodd" d="M14.2682 17.4149C13.7992 17.2353 13.2697 17.0705 12.6679 16.9209C13.3115 15.7654 13.4465 14.0548 12.8387 12.9732C11.9856 11.4554 10.9148 10.6475 8.42647 10.6475C7.05788 10.6475 3.37303 11.11 3.30761 14.1964C3.30082 14.5169 3.3073 14.8109 3.33008 15.0815L10.0627 15.1304C9.15278 16.5788 8.30076 17.6519 7.55533 18.4671C8.45006 18.6971 9.18814 18.8902 9.86568 19.0674C10.5055 19.2347 11.0913 19.388 11.704 19.5449C12.6323 18.867 13.5052 18.1274 14.2682 17.4149Z" fill="url(#paint2_linear_3644_8486)"/>
<path d="M2.4487 14.7647C2.72358 17.1093 4.05158 18.0281 6.76523 18.3001C9.47888 18.572 11.0355 18.3896 13.1078 18.5787C14.8386 18.7368 16.384 19.6217 16.9573 19.3159C17.4733 19.0407 17.1847 18.0463 16.4942 17.4083C15.5993 16.5814 14.3607 16.0064 12.1813 15.8024C12.6156 14.6091 12.4939 12.9361 11.8194 12.0259C10.844 10.7098 9.04374 10.1147 6.76524 10.3747C4.38472 10.6463 2.10372 11.8223 2.4487 14.7647Z" fill="url(#paint3_linear_3644_8486)"/>
<g clip-path="url(#clip1_3644_8486)">
<path d="M18.7838 23.4792C20.0804 23.4792 21.2544 22.9536 22.1041 22.1039C22.9539 21.2541 23.4794 20.0802 23.4794 18.7835C23.4794 17.4869 22.9539 16.313 22.1041 15.4632C21.2544 14.6135 20.0804 14.0879 18.7838 14.0879C17.4871 14.0879 16.3132 14.6135 15.4635 15.4632C14.6137 16.313 14.0881 17.4869 14.0881 18.7835C14.0881 20.0802 14.6137 21.2541 15.4635 22.1039C16.3132 22.9536 17.4871 23.4792 18.7838 23.4792Z" fill="#7084FF" stroke="white" stroke-width="1.04348" stroke-linejoin="round"/>
<path d="M16.6102 18.7837L18.2044 20.3779L21.3928 17.1895" stroke="white" stroke-width="1.04348" stroke-linecap="round" stroke-linejoin="round"/>
</g>
</g>
<defs>
<linearGradient id="paint0_linear_3644_8486" x1="7.27734" y1="11.6511" x2="23.2189" y2="16.1567" gradientUnits="userSpaceOnUse">
<stop stop-color="white"/>
<stop offset="1" stop-color="white"/>
</linearGradient>
<linearGradient id="paint1_linear_3644_8486" x1="20.5286" y1="11.3431" x2="8.99296" y2="-0.18361" gradientUnits="userSpaceOnUse">
<stop stop-color="#8697FF"/>
<stop offset="1" stop-color="#8697FF" stop-opacity="0"/>
</linearGradient>
<linearGradient id="paint2_linear_3644_8486" x1="14.5879" y1="17.8181" x2="3.52869" y2="11.4825" gradientUnits="userSpaceOnUse">
<stop stop-color="#8697FF"/>
<stop offset="1" stop-color="#8697FF" stop-opacity="0"/>
</linearGradient>
<linearGradient id="paint3_linear_3644_8486" x1="8.2298" y1="11.5278" x2="15.7258" y2="21.0202" gradientUnits="userSpaceOnUse">
<stop stop-color="white"/>
<stop offset="0.983895" stop-color="#D1D8FF"/>
</linearGradient>
<clipPath id="clip0_3644_8486">
<rect width="24" height="24" fill="white"/>
</clipPath>
<clipPath id="clip1_3644_8486">
<rect width="10.4348" height="10.4348" fill="white" transform="translate(13.5664 13.5664)"/>
</clipPath>
</defs>
</svg>
