<svg width="16" height="16" viewBox="0 0 16 16" fill="none" xmlns="http://www.w3.org/2000/svg">
<g clip-path="url(#clip0_20601_105793)">
<path d="M4.58603 7.60747C4.49903 8.25147 4.49903 9.04347 4.49903 9.90647V11.3965C4.49903 11.5945 4.49903 11.6925 4.43503 11.7525C4.37103 11.8115 4.27503 11.8045 4.08303 11.7905C3.92458 11.7792 3.76651 11.7632 3.60903 11.7425C2.96903 11.6565 2.43803 11.4835 1.99003 11.1155C1.82973 10.9842 1.68269 10.8375 1.55103 10.6775C1.16303 10.2045 0.993031 9.63847 0.911031 8.95147C0.832031 8.28147 0.832031 7.43547 0.832031 6.36747V6.30247C0.832031 5.23447 0.832031 4.38747 0.912031 3.71847C0.992031 3.03047 1.16303 2.46547 1.55203 1.99247C1.68203 1.83247 1.83003 1.68547 1.99003 1.55347C2.46303 1.16547 3.02903 0.995473 3.71603 0.913473C4.38603 0.834473 5.23203 0.834473 6.29903 0.834473H6.36403C7.43203 0.834473 8.27803 0.834473 8.94803 0.914473C9.63503 0.994473 10.201 1.16547 10.674 1.55447C10.834 1.68447 10.981 1.83247 11.112 1.99247C11.48 2.44047 11.652 2.97247 11.739 3.61247C11.759 3.76047 11.775 3.91847 11.787 4.08547C11.801 4.27747 11.808 4.37347 11.749 4.43747C11.689 4.50147 11.591 4.50147 11.393 4.50147H9.90303C9.04003 4.50147 8.24903 4.50147 7.60303 4.58847C6.89303 4.68347 6.14103 4.90847 5.52303 5.52647C4.90503 6.14447 4.68003 6.89647 4.58503 7.60647L4.58603 7.60747Z" fill="#3E495E"/>
<path d="M10.703 5.50049H9.963C9.052 5.50049 8.317 5.50049 7.739 5.57849C7.139 5.65849 6.634 5.83149 6.232 6.23249C5.831 6.63449 5.658 7.13949 5.578 7.73949C5.5 8.31749 5.5 9.05249 5.5 9.96349V10.7035C5.5 11.6155 5.5 12.3505 5.578 12.9285C5.658 13.5285 5.831 14.0335 6.232 14.4345C6.634 14.8365 7.139 15.0085 7.739 15.0895C8.317 15.1675 9.052 15.1675 9.963 15.1675H10.703C11.615 15.1675 12.35 15.1675 12.928 15.0895C13.528 15.0095 14.033 14.8365 14.434 14.4345C14.836 14.0345 15.008 13.5285 15.089 12.9285C15.167 12.3505 15.167 11.6155 15.167 10.7035V9.96349C15.167 9.05249 15.167 8.31749 15.089 7.73949C15.009 7.13949 14.836 6.63449 14.434 6.23249C14.034 5.83149 13.528 5.65849 12.928 5.57849C12.35 5.50049 11.615 5.50049 10.703 5.50049Z" fill="#3E495E"/>
</g>
<defs>
<clipPath id="clip0_20601_105793">
<rect width="16" height="16" fill="white" transform="translate(0 0.000488281)"/>
</clipPath>
</defs>
</svg>
