<svg width="63" height="63" viewBox="0 0 63 63" fill="none" xmlns="http://www.w3.org/2000/svg">
  <circle cx="30.6918" cy="30.6918" r="30.6918" fill="#FF736B" fill-opacity="0.1" />
  <path
    d="M24.0776 37.1914C22.7711 37.1914 20.4891 36.72 19.7086 36.0797C19.4294 35.8513 19.1733 35.596 18.9439 35.3176C18.268 34.4946 17.9719 33.5098 17.829 32.3145C17.6914 31.1487 17.6914 29.6767 17.6914 27.8185V27.7054C17.6914 25.8471 17.6914 24.3734 17.8308 23.2094C17.9701 22.0123 18.268 21.0292 18.9456 20.2063C19.1721 19.9279 19.4299 19.6721 19.7086 19.4424C20.5326 18.7673 21.5186 18.4715 22.7153 18.3289C23.8825 18.1914 25.3562 18.1914 27.2149 18.1914H27.3282C29.1886 18.1914 30.6623 18.1914 31.8295 18.3306C33.0262 18.4698 34.0122 18.7673 34.8362 19.4442C35.1149 19.6704 35.371 19.9279 35.5992 20.2063C36.2402 20.9857 36.6914 22.4019 36.6914 23.8949"
    stroke="#FF453A" stroke-width="3" />
  <path
    d="M35.6172 27.6914H37.0977C38.9607 27.6914 40.3136 27.6946 41.3467 27.834H41.3496C42.3828 27.9718 43.0233 28.2399 43.4971 28.7148L43.499 28.7158C43.9781 29.1949 44.2453 29.836 44.3828 30.8672V30.8701C44.5222 31.9032 44.5254 33.2561 44.5254 35.1172V36.5977C44.5254 38.4607 44.5222 39.8136 44.3828 40.8467C44.2428 41.884 43.9761 42.5234 43.501 42.9961L43.4971 43C43.0206 43.4776 42.3812 43.7452 41.3496 43.8828H41.3467C40.3136 44.0222 38.9607 44.0254 37.0977 44.0254H35.6172C33.7561 44.0254 32.4032 44.0222 31.3701 43.8828C30.3347 43.743 29.6942 43.4774 29.2158 42.999C28.739 42.5222 28.4716 41.8815 28.334 40.8496V40.8467L28.2881 40.4443C28.1941 39.4678 28.1914 38.2281 28.1914 36.5977V35.1172C28.1914 33.2561 28.1946 31.9032 28.334 30.8701V30.8672C28.4713 29.8378 28.7383 29.1969 29.2148 28.7178C29.6943 28.2395 30.3358 27.9715 31.3672 27.834H31.3701C32.4032 27.6946 33.7561 27.6914 35.6172 27.6914Z"
    stroke="#FF453A" stroke-width="3" />
  <rect x="38.1719" y="38.1719" width="23.0189" height="23.0189" rx="11.5094" fill="#FF453A" />
  <rect x="38.1719" y="38.1719" width="23.0189" height="23.0189" rx="11.5094" stroke="white" stroke-width="1.6442" />
  <path d="M45.5703 45.5703L53.7913 53.7913" stroke="white" stroke-width="1.6442" stroke-linecap="round"
    stroke-linejoin="round" />
  <path d="M45.5703 53.7913L53.7913 45.5703" stroke="white" stroke-width="1.6442" stroke-linecap="round"
    stroke-linejoin="round" />
</svg>