<svg xmlns="http://www.w3.org/2000/svg" width="24" height="23" viewBox="0 0 24 23" fill="none">
  <path
    d="M19.4297 2.24844H9.36719C8.88262 2.24844 8.41789 2.44093 8.07524 2.78358C7.7326 3.12622 7.5401 3.59095 7.5401 4.07552V14.138C7.5401 14.6226 7.7326 15.0873 8.07524 15.43C8.41789 15.7726 8.88262 15.9651 9.36719 15.9651H19.4297C19.9143 15.9651 20.379 15.7726 20.7216 15.43C21.0643 15.0873 21.2568 14.6226 21.2568 14.138V4.07552C21.2568 3.59095 21.0643 3.12622 20.7216 2.78358C20.379 2.44093 19.9143 2.24844 19.4297 2.24844ZM9.30384 4.01218C9.32064 3.99538 9.34343 3.98594 9.36719 3.98594H19.4297C19.4534 3.98594 19.4762 3.99538 19.493 4.01218C19.5098 4.02897 19.5193 4.05176 19.5193 4.07552V14.138C19.5193 14.1618 19.5098 14.1846 19.493 14.2014C19.4762 14.2182 19.4534 14.2276 19.4297 14.2276H9.36719C9.35542 14.2276 9.34378 14.2253 9.33291 14.2208C9.32204 14.2163 9.31216 14.2097 9.30384 14.2014C9.29552 14.193 9.28893 14.1832 9.28442 14.1723C9.27992 14.1614 9.27761 14.1498 9.27761 14.138V4.07552C9.27761 4.05176 9.28704 4.02898 9.30384 4.01218ZM14.9821 16.6383C14.8191 16.8012 14.7276 17.0222 14.7276 17.2526V18.9297C14.7276 18.9534 14.7182 18.9762 14.7014 18.993C14.6846 19.0098 14.6618 19.0193 14.638 19.0193H4.57552C4.55176 19.0193 4.52897 19.0098 4.51218 18.993C4.49538 18.9762 4.48594 18.9534 4.48594 18.9297V8.86719C4.48594 8.84343 4.49538 8.82064 4.51218 8.80384C4.52898 8.78704 4.55176 8.77761 4.57552 8.77761H6.2526C6.48301 8.77761 6.70398 8.68608 6.8669 8.52315C7.02983 8.36023 7.12136 8.13926 7.12136 7.90885C7.12136 7.67845 7.02983 7.45748 6.8669 7.29456C6.70398 7.13163 6.48301 7.0401 6.2526 7.0401H4.57552C4.09095 7.0401 3.62622 7.2326 3.28358 7.57524C2.94093 7.91789 2.74844 8.38262 2.74844 8.86719V18.9297C2.74844 19.4143 2.94093 19.879 3.28358 20.2216C3.62622 20.5643 4.09095 20.7568 4.57552 20.7568H14.638C15.1226 20.7568 15.5873 20.5643 15.93 20.2216C16.2726 19.879 16.4651 19.4143 16.4651 18.9297V17.2526C16.4651 17.0222 16.3736 16.8012 16.2107 16.6383C16.0477 16.4754 15.8268 16.3839 15.5964 16.3839C15.3659 16.3839 15.145 16.4754 14.9821 16.6383Z"
    fill="currentColor" stroke="currentColor" stroke-width="0.3" />
</svg>