<svg width="17" height="17" viewBox="0 0 17 17" fill="none" xmlns="http://www.w3.org/2000/svg">
<path d="M6.55469 1.77148H13.9922C14.3209 1.77148 14.6362 1.90208 14.8687 2.13455C15.1012 2.36702 15.2318 2.68231 15.2318 3.01107V10.4486C15.2318 10.7773 15.1012 11.0926 14.8687 11.3251C14.6362 11.5576 14.3209 11.6882 13.9922 11.6882H6.55469C6.22593 11.6882 5.91064 11.5576 5.67817 11.3251C5.4457 11.0926 5.3151 10.7773 5.3151 10.4486V3.01107C5.3151 2.68231 5.4457 2.36702 5.67817 2.13455C5.91064 1.90208 6.22593 1.77148 6.55469 1.77148ZM6.55469 2.83398C6.50772 2.83398 6.46268 2.85264 6.42947 2.88585C6.39626 2.91906 6.3776 2.9641 6.3776 3.01107V10.4486C6.3776 10.4718 6.38219 10.4949 6.39108 10.5163C6.39998 10.5378 6.41303 10.5573 6.42947 10.5738C6.44592 10.5902 6.46544 10.6033 6.48692 10.6122C6.50841 10.6211 6.53143 10.6257 6.55469 10.6257H13.9922C14.0392 10.6257 14.0842 10.607 14.1174 10.5738C14.1506 10.5406 14.1693 10.4955 14.1693 10.4486V3.01107C14.1693 2.9641 14.1506 2.91906 14.1174 2.88585C14.0842 2.85264 14.0392 2.83398 13.9922 2.83398H6.55469ZM10.6276 12.7507C10.6276 12.6098 10.6836 12.4746 10.7832 12.375C10.8828 12.2754 11.018 12.2194 11.1589 12.2194C11.2998 12.2194 11.4349 12.2754 11.5345 12.375C11.6341 12.4746 11.6901 12.6098 11.6901 12.7507V13.9902C11.6901 14.319 11.5595 14.6343 11.327 14.8668C11.0946 15.0992 10.7793 15.2298 10.4505 15.2298H3.01302C2.68426 15.2298 2.36897 15.0992 2.1365 14.8668C1.90404 14.6343 1.77344 14.319 1.77344 13.9902V6.55273C1.77344 6.22398 1.90404 5.90868 2.1365 5.67622C2.36897 5.44375 2.68426 5.31315 3.01302 5.31315H4.2526C4.3935 5.31315 4.52863 5.36912 4.62826 5.46875C4.72788 5.56838 4.78385 5.70351 4.78385 5.8444C4.78385 5.9853 4.72788 6.12042 4.62826 6.22005C4.52863 6.31968 4.3935 6.37565 4.2526 6.37565H3.01302C2.96606 6.37565 2.92101 6.39431 2.8878 6.42752C2.85459 6.46073 2.83594 6.50577 2.83594 6.55273V13.9902C2.83594 14.0372 2.85459 14.0822 2.8878 14.1155C2.92101 14.1487 2.96606 14.1673 3.01302 14.1673H10.4505C10.4975 14.1673 10.5425 14.1487 10.5757 14.1155C10.6089 14.0822 10.6276 14.0372 10.6276 13.9902V12.7507Z" fill="#BABEC5"/>
</svg>
