<svg xmlns="http://www.w3.org/2000/svg" width="159" height="117" viewBox="0 0 159 117" fill="none">
  <path
    d="M74.8342 116.928C107.123 116.928 133.298 90.7528 133.298 58.464C133.298 26.1752 107.123 0 74.8342 0C42.5454 0 16.3701 26.1752 16.3701 58.464C16.3701 90.7528 42.5454 116.928 74.8342 116.928Z"
    fill="url(#paint0_linear_30720_120374)" fill-opacity="0.24" />
  <rect y="51.3145" width="113.03" height="33.5194" rx="12.4723" fill="#131416" />
  <rect x="0.5" y="51.8145" width="112.03" height="32.5194" rx="11.9723" stroke="#7084FF" stroke-opacity="0.12" />
  <path
    d="M56.1256 60.6697H35.8581C34.5665 60.6697 33.5195 61.7167 33.5195 63.0082C33.5195 64.2998 34.5665 65.3468 35.8581 65.3468H56.1256C57.4172 65.3468 58.4642 64.2998 58.4642 63.0082C58.4642 61.7167 57.4172 60.6697 56.1256 60.6697Z"
    fill="#7084FF" fill-opacity="0.25" />
  <path
    d="M70.157 70.8035H35.8581C34.5665 70.8035 33.5195 71.8505 33.5195 73.142C33.5195 74.4336 34.5665 75.4806 35.8581 75.4806H70.157C71.4486 75.4806 72.4956 74.4336 72.4956 73.142C72.4956 71.8505 71.4486 70.8035 70.157 70.8035Z"
    fill="#7084FF" fill-opacity="0.12" />
  <path
    d="M28.8424 68.074C28.8424 61.8315 23.7819 56.771 17.5394 56.771C11.2969 56.771 6.23633 61.8315 6.23633 68.074C6.23633 74.3165 11.2969 79.3771 17.5394 79.3771C23.7819 79.3771 28.8424 74.3165 28.8424 68.074Z"
    fill="#7084FF" fill-opacity="0.4" />
  <path
    d="M64.9929 31.0466H26.9912C24.5696 31.0466 22.6064 32.9661 22.6064 35.334C22.6064 37.7018 24.5696 39.6214 26.9912 39.6214H64.9929C67.4145 39.6214 69.3777 37.7018 69.3777 35.334C69.3777 32.9661 67.4145 31.0466 64.9929 31.0466Z"
    fill="#7084FF" fill-opacity="0.12" />
  <path
    d="M0 35.3341C0 29.5221 4.71154 24.8105 10.5235 24.8105H102.507C108.319 24.8105 113.03 29.5221 113.03 35.3341C113.03 41.1461 108.319 45.8576 102.507 45.8576H10.5235C4.71154 45.8576 0 41.1461 0 35.3341Z"
    fill="#131416" />
  <path
    d="M0.5 35.3341C0.5 29.7982 4.98769 25.3105 10.5235 25.3105H102.507C108.043 25.3105 112.53 29.7982 112.53 35.3341C112.53 40.8699 108.043 45.3576 102.507 45.3576H10.5235C4.98768 45.3576 0.5 40.8699 0.5 35.3341Z"
    stroke="#7084FF" stroke-opacity="0.12" />
  <path fill-rule="evenodd" clip-rule="evenodd"
    d="M12.2124 29.4871C9.34232 29.4871 7.01562 31.8138 7.01562 34.6839C7.01562 37.554 9.34232 39.8807 12.2124 39.8807C13.3645 39.8807 14.429 39.5058 15.2906 38.8713L17.0422 40.6229C17.3467 40.9274 17.8402 40.9274 18.1446 40.6229C18.4491 40.3185 18.4491 39.8249 18.1446 39.5205L16.3941 37.77C17.0321 36.907 17.4092 35.8395 17.4092 34.6839C17.4092 31.8138 15.0825 29.4871 12.2124 29.4871ZM8.57467 34.6839C8.57467 32.6748 10.2034 31.0461 12.2124 31.0461C14.2215 31.0461 15.8502 32.6748 15.8502 34.6839C15.8502 36.6929 14.2215 38.3216 12.2124 38.3216C10.2034 38.3216 8.57467 36.6929 8.57467 34.6839Z"
    fill="#7084FF" fill-opacity="0.12" />
  <path
    d="M135.568 89.2296L133.806 90.8725L128.577 85.2661L126.721 83.2747L128.482 81.6318L130.339 83.6232L135.568 89.2296Z"
    fill="#B7C2FF" />
  <path
    d="M130.339 83.6248C130.058 83.9091 129.769 84.1885 129.475 84.4631C129.181 84.7377 128.881 85.0075 128.577 85.2661L126.721 83.2747L128.487 81.6318L130.339 83.6248ZM135.851 89.4946C135.569 89.7788 135.28 90.0583 134.987 90.3329C134.693 90.6075 134.392 90.8773 134.089 91.1359L132.232 89.1445L133.999 87.5016L135.851 89.4946Z"
    fill="#7084FF" fill-opacity="0.7" />
  <path fill-rule="evenodd" clip-rule="evenodd"
    d="M132.183 79.0503C135.543 74.3851 137.445 68.8289 137.65 63.0833C137.793 59.2656 137.178 55.4575 135.84 51.8792C134.501 48.301 132.467 45.0238 129.853 42.2373C118.917 30.5112 100.478 29.8705 88.7553 40.8065C83.1163 46.0673 79.7977 53.3525 79.5293 61.0598C79.261 68.7672 82.065 76.2655 87.3245 81.9058C91.2491 86.1072 96.3307 89.0513 101.928 90.3663C107.524 91.6813 113.385 91.3082 118.77 89.2941C124.155 87.2801 128.823 83.7154 132.183 79.0503ZM125.026 79.0803C129.429 74.8236 132.009 69.0241 132.221 62.9032C132.293 60.8847 132.108 58.8653 131.669 56.8937C131.06 54.1638 129.966 51.5654 128.439 49.2221C127.683 48.0613 126.828 46.9683 125.883 45.9556C121.594 41.4185 115.685 38.7619 109.445 38.5656C103.205 38.3692 97.14 40.649 92.5745 44.9074C88.009 49.1659 85.3132 55.0573 85.0754 61.296C84.8375 67.5347 87.077 73.6142 91.305 78.2079C92.6238 79.6238 94.1101 80.8738 95.731 81.9305C98.0763 83.456 100.676 84.5482 103.407 85.1553C104.842 85.4733 106.302 85.6588 107.771 85.7093C108.053 85.7189 108.334 85.7238 108.614 85.7238C114.738 85.7187 120.622 83.337 125.026 79.0803Z"
    fill="#7084FF" fill-opacity="0.25" />
  <path
    d="M132.221 62.9036C132.008 69.0244 129.429 74.824 125.025 79.0807C120.622 83.3374 114.738 85.7191 108.613 85.7241C108.334 85.7241 108.053 85.7193 107.77 85.7097C106.302 85.6591 104.841 85.4737 103.407 85.1556C100.676 84.5485 98.0757 83.4563 95.7304 81.9309C94.1095 80.8742 92.6233 79.6241 91.3044 78.2083C87.0764 73.6146 84.837 67.535 85.0748 61.2963C85.3126 55.0576 88.0084 49.1662 92.5739 44.9078C97.1394 40.6493 103.204 38.3695 109.444 38.5659C115.684 38.7623 121.593 41.4189 125.882 45.956C126.827 46.9687 127.683 48.0616 128.439 49.2225C129.966 51.5658 131.06 54.1642 131.668 56.8941C132.107 58.8656 132.293 60.8851 132.221 62.9036Z"
    fill="#131416" />
  <path
    d="M100.06 47.8651C103.881 45.6964 108.407 45.1339 112.642 46.3011C116.878 47.4684 120.477 50.2699 122.647 54.0897"
    stroke="#7084FF" stroke-width="3.8976" stroke-linecap="round" stroke-linejoin="round" />
  <path
    d="M157.292 113.57C156.298 114.501 154.986 115.018 153.624 115.015H153.433C152.728 114.993 152.035 114.831 151.392 114.54C150.75 114.248 150.172 113.832 149.691 113.316L129.909 92.8643L137.778 85.5203L157.557 105.961C158.529 107.006 159.046 108.394 158.997 109.82C158.947 111.246 158.334 112.595 157.292 113.57Z"
    fill="#7084FF" fill-opacity="0.4" />
  <path
    d="M157.992 112.772C157.495 113.466 156.84 114.033 156.08 114.424C155.32 114.815 154.479 115.019 153.624 115.02H153.433C152.728 114.997 152.034 114.835 151.392 114.542C150.749 114.249 150.171 113.832 149.691 113.315L129.909 92.8629L131.184 91.6729L150.925 112.078C151.405 112.595 151.983 113.011 152.625 113.303C153.268 113.595 153.961 113.756 154.667 113.779H154.858C155.983 113.781 157.08 113.429 157.992 112.772Z"
    fill="white" fill-opacity="0.2" />
  <path d="M137.666 87.9426L156.293 106.57" stroke="#7084FF" stroke-width="1.57179" stroke-linecap="round"
    stroke-linejoin="round" />
  <defs>
    <linearGradient id="paint0_linear_30720_120374" x1="74.8342" y1="0" x2="74.8342" y2="116.928"
      gradientUnits="userSpaceOnUse">
      <stop stop-color="#7084FF" />
      <stop offset="1" stop-color="#7084FF" stop-opacity="0.2" />
    </linearGradient>
  </defs>
</svg>