<svg width="13" height="12" viewBox="0 0 13 12" fill="none" xmlns="http://www.w3.org/2000/svg">
<path d="M6.75426 0.441868C6.9983 0.197831 7.39397 0.197812 7.63802 0.441836L12.0578 4.86111C12.302 5.10522 12.3019 5.50111 12.0578 5.74524C11.8136 5.9894 11.4176 5.98934 11.1736 5.745L8.52238 8.39687L8.13595 10.3296C8.0998 10.5104 8.0109 10.6764 7.88047 10.8068L7.52616 11.1608C7.34388 11.343 7.04846 11.3429 6.86627 11.1607L4.54488 8.83875L1.89301 11.4906C1.64897 11.7347 1.2533 11.7347 1.00926 11.4906C0.765217 11.2466 0.765217 10.8509 1.00926 10.6069L3.66113 7.955L1.33924 5.63311C1.157 5.45086 1.157 5.15539 1.33924 4.97314L1.69317 4.61922C1.82347 4.48891 1.98944 4.40009 2.17014 4.36396L4.10301 3.9775L6.75426 1.32563C6.51022 1.08158 6.51022 0.685909 6.75426 0.441868Z" fill="currentColor"/>
</svg>
