<svg width="16" height="17" viewBox="0 0 16 17" fill="none" xmlns="http://www.w3.org/2000/svg">
<path d="M11.125 11.5483H13.375V9.29834H15.625V12.6733H13.375V13.7983H11.125V12.6733H8.875V9.29834H11.125V11.5483ZM1 10.5841C1 9.87397 1.57563 9.29834 2.28571 9.29834H6.46429C7.17437 9.29834 7.75 9.87397 7.75 10.5841V14.7626C7.75 15.4727 7.17437 16.0483 6.46429 16.0483H2.28571C1.57563 16.0483 1 15.4727 1 14.7626V10.5841ZM3.25 11.5483V13.7983H5.5V11.5483H3.25ZM1 2.70905C1 1.99897 1.57563 1.42334 2.28571 1.42334H6.46429C7.17437 1.42334 7.75 1.99897 7.75 2.70905V6.88763C7.75 7.59771 7.17437 8.17334 6.46429 8.17334H2.28571C1.57563 8.17334 1 7.59771 1 6.88763V2.70905ZM3.25 3.67334V5.92334H5.5V3.67334H3.25ZM8.875 2.70905C8.875 1.99897 9.45063 1.42334 10.1607 1.42334H14.3393C15.0494 1.42334 15.625 1.99897 15.625 2.70905V6.88763C15.625 7.59771 15.0494 8.17334 14.3393 8.17334H10.1607C9.45063 8.17334 8.875 7.59771 8.875 6.88763V2.70905ZM11.125 3.67334V5.92334H13.375V3.67334H11.125ZM13.375 13.7983H15.625V16.0483H13.375V13.7983ZM8.875 13.7983H11.125V16.0483H8.875V13.7983Z" fill="currentColor"/>
</svg>
