<svg width="63" height="63" viewBox="0 0 63 63" fill="none" xmlns="http://www.w3.org/2000/svg">
  <circle cx="30.6918" cy="30.6918" r="30.6918" fill="#FF736B" fill-opacity="0.1" />
  <path
    d="M15.7361 33.3456C16.674 33.3456 16.674 33.3456 16.674 32.551C16.674 31.7022 16.674 31.7022 15.6736 31.7022C14.7773 31.7022 14.7773 31.7022 14.7773 32.4607V32.5329C14.7982 33.3456 14.7982 33.3456 15.7361 33.3456ZM15.7569 30.131C16.674 30.131 16.674 30.131 16.674 29.3544C16.674 28.4876 16.674 28.4876 15.6736 28.4876C14.7982 28.4876 14.7982 28.4876 14.7982 29.228V29.8601C14.7773 30.0587 14.8816 30.131 15.1108 30.131C15.3192 30.1129 15.5485 30.131 15.7569 30.131ZM15.7361 26.9164C16.674 26.9164 16.674 26.9164 16.674 26.1218C16.674 25.273 16.674 25.273 15.6736 25.273C14.7773 25.273 14.7773 25.273 14.7773 26.0315V26.1037C14.7982 26.9164 14.7982 26.9164 15.7361 26.9164ZM15.7361 23.7018C16.674 23.7018 16.674 23.7018 16.674 22.9072C16.674 22.0584 16.674 22.0584 15.6736 22.0584C14.7773 22.0584 14.7773 22.0584 14.7773 22.8169V22.8891C14.7982 23.7018 14.7982 23.7018 15.7361 23.7018ZM46.0827 35.2482C45.1448 35.2482 45.1448 35.2482 45.1448 36.0608C45.1448 36.8555 45.1448 36.8555 46.0827 36.8555C47.0415 36.8555 47.0415 36.8555 47.0415 36.0247C47.0415 35.2482 47.0415 35.2482 46.1244 35.2482H46.0827ZM46.0827 32.0336C45.1448 32.0336 45.1448 32.0336 45.1448 32.8462C45.1448 33.6409 45.1448 33.6409 46.0619 33.6409C47.0207 33.6409 47.0207 33.6409 47.0207 32.8101C47.0207 32.0336 47.0207 32.0336 46.0827 32.0336ZM46.0827 30.4263C47.0207 30.4263 47.0207 30.4263 47.0207 29.6136C47.0207 28.819 47.0207 28.819 46.1036 28.819C45.1448 28.819 45.1448 28.819 45.1448 29.6497C45.1448 30.4263 45.1448 30.4263 46.0827 30.4263ZM46.1244 27.2297C47.0207 27.2297 47.0207 27.2297 47.0207 26.4532C47.0207 25.6224 47.0207 25.6224 46.0619 25.6224C45.1448 25.6224 45.1448 25.6224 45.1448 26.417C45.1448 27.2297 45.1448 27.2297 46.0827 27.2297H46.1244ZM46.0827 22.4078C45.1448 22.4078 45.1448 22.4078 45.1448 23.2205C45.1448 24.0151 45.1448 24.0151 46.0619 24.0151C47.0207 24.0151 47.0207 24.0151 47.0207 23.1844C47.0207 22.4078 47.0207 22.4078 46.0827 22.4078ZM46.1036 20.8005C47.0207 20.8005 47.0207 20.8005 47.0207 20.0059C47.0207 19.2113 47.0207 19.2113 46.0619 19.2113C45.124 19.2113 45.124 19.2113 45.124 20.024C45.124 20.8186 45.124 20.8186 46.0202 20.8186C46.0619 20.8005 46.0827 20.8005 46.1036 20.8005ZM25.4273 17.0441C24.4894 17.0441 24.4894 17.0441 24.4894 17.8568C24.4894 18.6514 24.4894 18.6514 25.3856 18.6514C26.386 18.6514 26.386 18.6514 26.386 17.8026C26.386 17.0441 26.386 17.0441 25.5315 17.0441H25.4273ZM29.1372 17.0441C28.1993 17.0441 28.1993 17.0441 28.1993 17.8568C28.1993 18.6514 28.1993 18.6514 29.0956 18.6514C30.096 18.6514 30.096 18.6514 30.096 17.8026C30.096 17.0441 30.096 17.0441 29.2415 17.0441H29.1372ZM36.5572 17.0441C35.5984 17.0441 35.5984 17.0441 35.5984 17.8749C35.5984 18.6514 35.5984 18.6514 36.4946 18.6514C37.4951 18.6514 37.4951 18.6514 37.4951 17.7846C37.4951 17.0441 37.4951 17.0441 36.5572 17.0441ZM32.868 17.0441C31.9301 17.0441 31.9301 17.0441 31.9301 17.8749C31.9301 18.6514 31.9301 18.6514 32.8055 18.6514C33.806 18.6514 33.806 18.6514 33.806 17.7846C33.806 17.0441 33.806 17.0441 32.868 17.0441ZM40.2046 17.0441C39.3084 17.0441 39.3084 17.0441 39.3084 17.8207C39.3084 18.6514 39.3084 18.6514 40.2671 18.6514C41.1634 18.6514 41.1634 18.6514 41.1634 17.8749C41.1634 17.0441 41.1634 17.0441 40.2046 17.0441ZM18.0699 17.0441C17.132 17.0441 17.132 17.0441 17.132 17.8568C17.132 18.6514 17.132 18.6514 18.0699 18.6514C19.0078 18.6514 19.0078 18.6514 19.0078 17.8388C18.987 17.0441 18.987 17.0441 18.0699 17.0441ZM21.8007 18.6514C22.7178 18.6514 22.7178 18.6514 22.7178 17.8749C22.7178 17.0441 22.7178 17.0441 21.759 17.0441C20.8419 17.0441 20.8419 17.0441 20.8419 17.8207C20.8419 18.6514 20.8419 18.6514 21.8007 18.6514Z"
    fill="#FF736B" fill-opacity="0.85" />
  <path
    d="M44.6042 17.8388C44.6042 18.6334 44.6042 18.6334 43.6872 18.6334C43.6663 18.6334 43.6455 18.6334 43.6038 18.6514C42.7076 18.6514 42.7076 18.6514 42.7076 17.8568C42.7076 17.0441 42.7076 17.0441 43.6455 17.0441C44.6042 17.0441 44.6042 17.0442 44.6042 17.8388Z"
    fill="#FF736B" fill-opacity="0.85" />
  <path
    d="M16.674 20.1398C16.674 20.9344 16.674 20.9344 15.7361 20.9344C14.7982 20.9344 14.7982 20.9344 14.7773 20.1217V20.0495C14.7773 19.291 14.7773 19.291 15.6736 19.291C16.674 19.291 16.674 19.291 16.674 20.1398Z"
    fill="#FF736B" fill-opacity="0.85" />
  <path
    d="M16.674 35.7596C16.674 36.5542 16.674 36.5542 15.7361 36.5542C14.7982 36.5542 14.7982 36.5542 14.7773 35.7415V35.6693C14.7773 34.9108 14.7773 34.9108 15.6736 34.9108C16.674 34.9108 16.674 34.9108 16.674 35.7596Z"
    fill="#FF736B" fill-opacity="0.85" />
  <path
    d="M23.2806 25.5273L31.0458 33.2644L38.7876 25.5506L40.5781 27.3346L32.8324 35.0484L35.0062 37.2124C36.1816 36.4796 37.5866 36.2035 38.9532 36.4368C40.3198 36.6701 41.5524 37.3964 42.4159 38.4773C43.2794 39.5582 43.7133 40.918 43.6349 42.2973C43.5565 43.6766 42.9713 44.9789 41.9909 45.9558C41.0105 46.9326 39.7034 47.5157 38.3191 47.5938C36.9348 47.6719 35.5701 47.2396 34.4853 46.3792C33.4005 45.5188 32.6714 44.2907 32.4373 42.929C32.2031 41.5674 32.4802 40.1675 33.2158 38.9964L31.0477 36.8285L29.051 38.8199C29.83 39.9627 30.1595 41.3513 29.9767 42.7207C29.794 44.0902 29.1117 45.3446 28.06 46.2449C27.0083 47.1451 25.6608 47.6281 24.2745 47.6018C22.8883 47.5755 21.5603 47.0416 20.5438 46.1021C19.5273 45.1625 18.8935 43.883 18.7632 42.5076C18.633 41.1323 19.0154 39.7572 19.8376 38.6448C20.6598 37.5325 21.8641 36.7605 23.221 36.4763C24.5778 36.1921 25.9922 36.4154 27.1943 37.1038L29.2573 35.0484L21.4921 27.3113L23.2826 25.5273H23.2806ZM24.3802 38.8781C23.5544 38.8781 22.7623 39.205 22.1784 39.7868C21.5944 40.3687 21.2664 41.1578 21.2664 41.9807C21.2664 42.8035 21.5944 43.5927 22.1784 44.1745C22.7623 44.7564 23.5544 45.0832 24.3802 45.0832C25.206 45.0832 25.9981 44.7564 26.582 44.1745C27.166 43.5927 27.4941 42.8035 27.4941 41.9807C27.4941 41.1578 27.166 40.3687 26.582 39.7868C25.9981 39.205 25.206 38.8781 24.3802 38.8781ZM38.0033 38.8781C37.1775 38.8781 36.3854 39.205 35.8015 39.7868C35.2175 40.3687 34.8894 41.1578 34.8894 41.9807C34.8894 42.8035 35.2175 43.5927 35.8015 44.1745C36.3854 44.7564 37.1775 45.0832 38.0033 45.0832C38.8291 45.0832 39.6212 44.7564 40.2051 44.1745C40.7891 43.5927 41.1171 42.8035 41.1171 41.9807C41.1171 41.1578 40.7891 40.3687 40.2051 39.7868C39.6212 39.205 38.8291 38.8781 38.0033 38.8781Z"
    fill="#FF453A" />
  <rect x="38.1719" y="38.1719" width="23.0189" height="23.0189" rx="11.5094" fill="#FF453A" />
  <rect x="38.1719" y="38.1719" width="23.0189" height="23.0189" rx="11.5094" stroke="white" stroke-width="1.6442" />
  <path d="M45.5703 45.5703L53.7913 53.7913" stroke="white" stroke-width="1.6442" stroke-linecap="round"
    stroke-linejoin="round" />
  <path d="M45.5703 53.7913L53.7913 45.5703" stroke="white" stroke-width="1.6442" stroke-linecap="round"
    stroke-linejoin="round" />
</svg>