<svg xmlns="http://www.w3.org/2000/svg" width="24" height="24" viewBox="0 0 24 24" fill="none">
  <path
    d="M21.2 12.0C21.2 17.08 17.08 21.2 12.0 21.2C6.92 21.2 2.8 17.08 2.8 12.0C2.8 6.92 6.92 2.8 12.0 2.8C12.33 2.8 12.64 2.93 12.85 3.15C13.06 3.36 13.18 3.67 13.18 4.0C13.18 4.33 13.06 4.64 12.85 4.85C12.64 5.07 12.33 5.2 12.0 5.2C8.47 5.2 5.4 8.27 5.4 12.0C5.4 15.73 8.47 18.8 12.0 18.8C15.53 18.8 18.6 15.73 18.6 12.0C18.6 11.67 18.73 11.36 18.95 11.15C19.16 10.93 19.47 10.8 19.8 10.8C20.13 10.8 20.44 10.93 20.65 11.15C20.87 11.36 21.0 11.67 21.0 12.0Z"
    fill="currentColor" stroke="currentColor" stroke-width="0.33" />
</svg>
