<svg xmlns="http://www.w3.org/2000/svg" viewBox="0 0 31 30" fill="none">
  <path d="M5.47004 18.5031C6.91553 22.2886 10.672 25 15.0804 25C20.7336 25 25.3333 20.5496 25.3333 15.0795C25.3333 9.60944 20.7337 5.15893 15.0804 5.15893C13.7163 5.15893 12.4163 5.42339 11.2247 5.89338L10.3933 4.35093C10.282 4.14384 10.0647 4.01057 9.82433 4.00042C9.58452 3.99214 9.35535 4.10552 9.22627 4.30179L5.60668 9.80824C5.4776 10.0051 5.46642 10.2536 5.57769 10.4601C5.68896 10.6672 5.90633 10.8004 6.14672 10.8105L12.8847 11.0904C12.8945 11.0909 12.9038 11.0909 12.9137 11.0909H12.9275C13.239 11.0845 13.6151 10.8029 13.6151 10.4384C13.6151 10.267 13.5466 10.1109 13.4353 9.99494L12.4845 8.23091C13.2961 7.94133 14.1661 7.76898 15.0804 7.76898C19.2466 7.76898 22.6357 11.0482 22.6357 15.0794C22.6357 19.1106 19.2466 22.3899 15.0804 22.3899C11.7992 22.3899 9.00812 20.3523 7.96686 17.5188L7.94795 17.5263C7.77207 17.0034 7.28125 16.619 6.6821 16.619C5.93714 16.619 5.33331 17.2033 5.33331 17.9241C5.33331 18.1326 5.39486 18.3225 5.48469 18.4973L5.47004 18.5031Z" fill="currentColor"/>
</svg>
