<svg viewBox="0 0 30 32" fill="none" xmlns="http://www.w3.org/2000/svg">
<path d="M22.7871 18.4023C21.5566 18.4023 20.5859 17.418 20.5859 16.2012C20.5859 14.9707 21.5566 14 22.7871 14C24.0039 14 24.9883 14.9707 24.9883 16.2012C24.9883 17.418 24.0039 18.4023 22.7871 18.4023Z" fill="currentColor"/>
<path d="M14.9941 18.4023C13.7637 18.4023 12.793 17.418 12.793 16.2012C12.793 14.9707 13.7637 14 14.9941 14C16.2109 14 17.1953 14.9707 17.1953 16.2012C17.1953 17.418 16.2109 18.4023 14.9941 18.4023Z" fill="currentColor"/>
<path d="M7.20117 18.4023C5.9707 18.4023 5 17.418 5 16.2012C5 14.9707 5.9707 14 7.20117 14C8.41797 14 9.40234 14.9707 9.40234 16.2012C9.40234 17.418 8.41797 18.4023 7.20117 18.4023Z" fill="currentColor"/>
</svg>
