<svg width="53" height="22" viewBox="0 0 53 22" fill="none" xmlns="http://www.w3.org/2000/svg">
<g clip-path="url(#clip0_29288_23438)">
<path d="M9.6403 5.5229C9.02208 6.17693 8.03293 6.69133 7.04378 6.61785C6.92014 5.73601 7.40647 4.79539 7.97523 4.22219C8.59345 3.55347 9.67327 3.07581 10.5553 3.03906C10.6542 3.95029 10.2503 4.85418 9.6403 5.5229ZM10.5388 6.78687C9.10451 6.71338 7.87632 7.51438 7.2004 7.51438C6.508 7.51438 5.46939 6.82361 4.33187 6.84565C2.85639 6.8677 1.48806 7.60991 0.737958 8.79304C-0.81171 11.1667 0.334055 14.6719 1.83426 16.6046C2.56788 17.56 3.44163 18.6108 4.59564 18.5741C5.69195 18.5373 6.12058 17.9421 7.43944 17.9421C8.76655 17.9421 9.15397 18.5741 10.308 18.5594C11.5032 18.5373 12.2533 17.6041 12.9869 16.6487C13.8195 15.5611 14.1657 14.5103 14.1821 14.4515C14.1574 14.4294 11.8741 13.6505 11.8494 11.2989C11.8247 9.32949 13.6546 8.39622 13.737 8.33743C12.7067 6.97058 11.0993 6.82361 10.5388 6.78687ZM18.8147 4.12666V18.4491H21.3123V13.555H24.766C27.9231 13.555 30.1322 11.6223 30.1322 8.82979C30.1322 6.0373 27.9561 4.12666 24.8485 4.12666H18.8147ZM21.3123 6.00056H24.189C26.3569 6.00056 27.5934 7.02937 27.5934 8.83713C27.5934 10.6449 26.3569 11.6884 24.1808 11.6884H21.3123V6.00056ZM34.6823 18.5594C36.2484 18.5594 37.6992 17.8539 38.3586 16.7296H38.4081V18.4491H40.7161V11.321C40.7161 9.25601 38.8614 7.91856 36.0094 7.91856C33.3634 7.91856 31.4016 9.2707 31.3274 11.1226H33.5777C33.7673 10.2407 34.6823 9.66018 35.9352 9.66018C37.4601 9.66018 38.3174 10.2922 38.3174 11.4606V12.2542L35.2016 12.4233C32.3083 12.5776 30.7422 13.6358 30.7422 15.4729C30.7504 17.3248 32.366 18.5594 34.6823 18.5594ZM35.3582 16.8618C34.0311 16.8618 33.1821 16.2886 33.1821 15.4215C33.1821 14.5176 33.9981 13.9959 35.556 13.915L38.3256 13.7607V14.5691C38.3256 15.9065 37.048 16.8618 35.3582 16.8618ZM43.8072 22.3439C46.2388 22.3439 47.3846 21.5135 48.382 19.0076L52.759 8.05818H50.2201L47.2857 16.5165H47.2362L44.3017 8.05818H41.697L45.9174 18.4859L45.6866 19.1179C45.3074 20.1908 44.6892 20.6096 43.5846 20.6096C43.3868 20.6096 43.0076 20.5876 42.851 20.5729V22.2925C42.9994 22.3219 43.6176 22.3439 43.8072 22.3439Z" fill="white"/>
</g>
<defs>
<clipPath id="clip0_29288_23438">
<rect width="53" height="21" fill="white" transform="translate(0 0.5)"/>
</clipPath>
</defs>
</svg>
