<svg xmlns="http://www.w3.org/2000/svg" width="20" height="20" viewBox="0 0 20 20" fill="none">
  <path
    d="M0 4C0 1.79086 1.79086 0 4 0H16C18.2091 0 20 1.79086 20 4V16C20 18.2091 18.2091 20 16 20H4C1.79086 20 0 18.2091 0 16V4Z"
    fill="#7084FF" fill-opacity="0.12" />
  <path
    d="M10 1C14.9706 1 19 5.02944 19 10C19 11.3811 18.6877 12.6889 18.1318 13.8584C17.2653 12.5755 16.375 11.5 16.375 11.5C16.375 11.5 13.0004 15.5688 13 17.3232C13 17.7053 13.0718 18.0718 13.2031 18.4111C12.2078 18.7904 11.1285 19 10 19C5.02944 19 1 14.9706 1 10C1 5.02944 5.02944 1 10 1ZM9.86426 4.68359C9.6665 4.68359 9.53418 4.80884 9.53418 5.02637V5.85059C7.69507 5.94287 6.37695 6.97095 6.37695 8.55957C6.37695 9.9834 7.31982 10.7546 9.04688 11.1436L9.53418 11.2559V13.6553C8.70361 13.5828 8.28809 13.2065 8.07715 12.6924C7.89258 12.3102 7.61562 12.0996 7.20703 12.0996C6.66665 12.0997 6.34375 12.4229 6.34375 12.8975C6.34382 13.0226 6.37019 13.1611 6.42285 13.3125C6.74594 14.2748 7.84022 15.0596 9.53418 15.1387V15.9424C9.53418 16.1599 9.6665 16.2852 9.86426 16.2852C10.0617 16.285 10.1934 16.1597 10.1934 15.9424V15.1387C12.0918 15.0266 13.4561 14.0173 13.4561 12.3496C13.4559 10.9063 12.5138 10.1811 10.708 9.77246L10.1934 9.66016V7.33984C10.8262 7.42554 11.2419 7.74854 11.499 8.28906C11.7099 8.6713 11.9928 8.8632 12.4014 8.86328C12.9023 8.86328 13.2323 8.57945 13.2324 8.14453C13.2324 8.0061 13.2056 7.87402 13.166 7.74219C12.8496 6.72709 11.7622 5.95606 10.1934 5.85059V5.02637C10.1934 4.80902 10.0617 4.6838 9.86426 4.68359ZM10.1934 11.4072C11.248 11.6709 11.6172 11.968 11.6172 12.5547C11.6169 13.1609 11.1423 13.5828 10.1934 13.6553V11.4072ZM9.53418 9.50879C8.61161 9.27156 8.22289 8.92233 8.22266 8.38867C8.22266 7.85475 8.67068 7.4131 9.53418 7.33398V9.50879Z"
    fill="white" />
  <path
    d="M18.25 17.1471C18.25 18.1704 17.4105 19 16.375 19C15.3395 19 14.5 18.1704 14.5 17.1471C14.5 16.1237 16.375 13.75 16.375 13.75C16.375 13.75 18.25 16.1237 18.25 17.1471Z"
    fill="white" />
</svg>
