<svg width="50" height="50" viewBox="0 0 50 50" fill="none" xmlns="http://www.w3.org/2000/svg">
<path fill-rule="evenodd" clip-rule="evenodd" d="M50 25C50 28.8355 49.1363 32.4692 47.5927 35.7173C45.1851 32.1526 42.708 29.166 42.708 29.166C42.708 29.166 33.333 40.4693 33.333 45.3424C33.333 46.4059 33.5329 47.4255 33.8993 48.3696C31.1345 49.4231 28.1346 50 25 50C11.1929 50 0 38.8071 0 25C0 11.1929 11.1929 0 25 0C38.8071 0 50 11.1929 50 25ZM23.7061 41.5068C23.7061 42.1111 24.0723 42.459 24.6216 42.459C25.1709 42.459 25.5371 42.1111 25.5371 41.5068V39.2729C30.8105 38.9617 34.6008 36.1602 34.6008 31.5276C34.6008 27.5176 31.9824 25.5034 26.9653 24.3682L25.5371 24.0569V17.6116C27.2949 17.8496 28.4485 18.7468 29.1626 20.2483C29.7485 21.3103 30.5359 21.8413 31.6711 21.8413C33.0627 21.8413 33.9783 21.054 33.9783 19.8455C33.9783 19.4609 33.905 19.0947 33.7952 18.7285C32.9163 15.9087 29.895 13.7664 25.5371 13.4734V11.1846C25.5371 10.5803 25.1709 10.2324 24.6216 10.2324C24.0723 10.2324 23.7061 10.5803 23.7061 11.1846V13.4734C18.5974 13.7297 14.9353 16.5862 14.9353 20.999C14.9353 24.9541 17.5537 27.0964 22.3511 28.1768L23.7061 28.488V35.1531C21.3989 34.9517 20.2454 33.908 19.6594 32.4797C19.1467 31.4177 18.3777 30.8318 17.2424 30.8318C15.741 30.8318 14.8438 31.729 14.8438 33.0474C14.8438 33.3953 14.917 33.7798 15.0635 34.2009C15.9607 36.8743 19.0002 39.0532 23.7061 39.2729V41.5068ZM23.7061 23.6357C21.1426 22.9766 20.0623 22.0061 20.0623 20.5229C20.0623 19.0398 21.3074 17.813 23.7061 17.5933V23.6357ZM25.5371 28.9092C28.4668 29.6416 29.4922 30.4656 29.4922 32.0952C29.4922 33.7798 28.1738 34.9517 25.5371 35.1531V28.9092Z" fill="#7084FF"/>
<path d="M47.9167 44.8523C47.9167 47.6949 45.5848 49.9993 42.7083 49.9993C39.8319 49.9993 37.5 47.6949 37.5 44.8523C37.5 42.0096 42.7083 35.416 42.7083 35.416C42.7083 35.416 47.9167 42.0096 47.9167 44.8523Z" fill="#7084FF"/>
</svg>
