<svg xmlns="http://www.w3.org/2000/svg" width="21" height="20" viewBox="0 0 21 20" fill="none">
  <path
    d="M4.46875 17.2075V4.09273C4.46875 3.7449 4.60692 3.41132 4.85287 3.16537C5.09882 2.91942 5.4324 2.78125 5.78023 2.78125H12.3376C12.6854 2.78125 13.019 2.91942 13.265 3.16537C13.5109 3.41132 13.6491 3.7449 13.6491 4.09273V17.2075"
    fill="white" />
  <path
    d="M4.46875 17.2075V4.09273C4.46875 3.7449 4.60692 3.41132 4.85287 3.16537C5.09882 2.91942 5.4324 2.78125 5.78023 2.78125H12.3376C12.6854 2.78125 13.019 2.91942 13.265 3.16537C13.5109 3.41132 13.6491 3.7449 13.6491 4.09273V17.2075"
    stroke="white" stroke-width="1.25" stroke-linecap="round" stroke-linejoin="round" />
  <path d="M2.5 17.2188H15.6148" stroke="white" stroke-width="1.25" stroke-linecap="round" stroke-linejoin="round" />
  <path
    d="M14.0391 8.94621C14.3869 8.94621 15.2451 8.82209 15.491 9.06804C15.737 9.31399 15.8751 9.64756 15.8751 9.99539V13.2741C15.8751 13.6219 16.0133 13.9555 16.2593 14.2014C16.5052 14.4474 16.8388 14.5856 17.1866 14.5856C17.5344 14.5856 17.868 14.4474 18.114 14.2014C18.3599 13.9555 18.4981 13.6219 18.4981 13.2741V6.60441C18.4981 6.43207 18.4642 6.26142 18.3982 6.10221C18.3322 5.943 18.2356 5.79835 18.1137 5.67654L16.5309 4.09375"
    stroke="white" stroke-width="1.25" stroke-linecap="round" stroke-linejoin="round" />
  <path d="M11.0243 7.6875H7.08984" stroke="#7084FF" stroke-width="1.25" stroke-linecap="round"
    stroke-linejoin="round" />
</svg>
