<svg width="51" height="22" viewBox="0 0 51 22" fill="none" xmlns="http://www.w3.org/2000/svg">
<g clip-path="url(#clip0_29288_23819)">
<path d="M27.1972 2.44124C25.4444 2.29974 23.6841 2.41074 21.9276 2.38636C21.858 2.38636 21.7849 2.38514 21.769 2.43271V16.6437H23.5109V10.8679C23.7036 10.8679 23.8427 10.8703 23.9805 10.8679C25.0613 10.8386 26.1433 10.913 27.2241 10.8215C29.0575 10.6629 31.1214 8.96981 31.0421 6.47281C30.969 4.27346 29.0453 2.59128 27.1972 2.44124ZM27.1314 9.12105C26.946 9.15398 26.7581 9.16985 26.5703 9.16985H23.5292V4.16607C23.6243 4.06603 23.739 4.09043 23.8451 4.09288C24.8271 4.1014 25.8091 4.10385 26.791 4.12581C28.0023 4.15387 29.1185 5.20535 29.2002 6.38006C29.2953 7.73407 28.4159 8.89535 27.1314 9.12103L27.1314 9.12105ZM37.9952 7.2913C37.0218 6.67283 35.9337 6.55086 34.8188 6.62038C33.9453 6.67405 33.1232 6.92291 32.4035 7.45108C32.0205 7.73409 31.685 8.06222 31.4166 8.48308L32.9646 9.45039C34.1027 7.93903 35.7922 7.9866 36.7192 8.49648C37.6524 9.01127 38.1513 9.96882 37.9513 10.8996C37.9183 10.902 37.9086 10.9044 37.9 10.902C37.8634 10.8898 37.8269 10.8776 37.7903 10.8617C36.3695 10.2263 34.7596 10.1582 33.2903 10.6715C31.0092 11.4399 30.6225 13.6796 31.4471 15.1848C32.562 17.2219 36.0362 17.755 37.6353 15.6008C37.7134 15.4971 37.7671 15.3568 37.9671 15.3117V16.6291H39.6517C39.6615 16.562 39.6712 16.523 39.6712 16.4827C39.6688 14.3785 39.7042 12.2719 39.6468 10.1664C39.6127 8.9527 39.0479 7.96098 37.9952 7.2913ZM35.7092 15.3092C34.942 15.4983 34.2137 15.4324 33.5599 14.9482C32.7731 14.3651 32.6779 13.3173 33.3501 12.6037C33.7307 12.1999 34.21 11.9755 34.7468 11.8693C35.6265 11.6892 36.5399 11.7767 37.3694 12.1206C37.5792 12.206 37.7781 12.3182 37.9549 12.4865C38.0184 13.7064 36.9913 14.9921 35.7105 15.308L35.7092 15.3092ZM47.827 6.96194L44.9921 13.965L44.897 13.9528L41.9987 6.95462H40.064L44.0858 16.0838L41.8194 20.99H43.6528L49.7763 6.91315C49.081 6.92291 48.4589 6.89608 47.8258 6.95951L47.827 6.96194Z" fill="white"/>
<path d="M3.99726 10.65C3.99726 10.1133 4.07533 9.59369 4.22292 9.10576L1.45147 6.91858C0.873911 8.06708 0.57431 9.33522 0.576828 10.6208C0.576828 11.9504 0.889121 13.2214 1.44659 14.3535L4.21925 12.1736C4.0712 11.6789 3.99641 11.1652 3.99726 10.6488V10.65V10.65Z" fill="#FFB900"/>
<path d="M8.97904 5.6675C10.119 5.6857 11.2105 6.13152 12.0372 6.91659L14.3219 4.53425C12.9423 3.18512 11.0588 2.36787 8.88876 2.36787C7.34884 2.36153 5.83751 2.78375 4.52384 3.58729C3.21016 4.39083 2.14595 5.54401 1.45023 6.91783L4.22169 9.10375C4.82916 7.09104 6.61256 5.6126 8.97904 5.66627V5.6675Z" fill="#FE2727"/>
<path d="M8.97904 15.6327C6.60646 15.6327 4.8194 14.1811 4.21924 12.1744L1.44534 14.3531C2.80911 17.1245 5.62939 19.0494 8.88876 18.9336C11.182 18.8518 13.0301 18.1407 14.3597 16.9184L11.6773 14.8837C10.9417 15.3875 10.022 15.6327 8.97904 15.6327Z" fill="#00AC47"/>
<path d="M8.79851 9.14905V12.3304H13.3339C13.0448 13.4965 12.4678 14.3394 11.6773 14.881L14.3585 16.9157C15.9333 15.4678 16.7811 13.305 16.7811 10.619C16.7811 10.1176 16.7421 9.626 16.6652 9.14905" fill="#2485FC"/>
</g>
<defs>
<clipPath id="clip0_29288_23819">
<rect width="50" height="20.7371" fill="white" transform="translate(0.5 0.63147)"/>
</clipPath>
</defs>
</svg>
