<svg width="21" height="20" viewBox="0 0 21 20" fill="none" xmlns="http://www.w3.org/2000/svg">
<path d="M10.5 2C12.7091 2.00001 14.7095 2.89508 16.1572 4.34277C17.6049 5.7905 18.5 7.79092 18.5 10C18.5 12.2091 17.6049 14.2095 16.1572 15.6572C14.7095 17.1049 12.7091 18 10.5 18C8.29092 18 6.2905 17.1049 4.84277 15.6572C3.39508 14.2095 2.50001 12.2091 2.5 10C2.5 7.79089 3.39507 5.7905 4.84277 4.34277C6.2905 2.89507 8.29089 2 10.5 2ZM10.5 13.5938C9.92471 13.5938 9.45801 14.0605 9.45801 14.6357C9.45818 15.2109 9.92482 15.6768 10.5 15.6768C11.075 15.6766 11.5408 15.2108 11.541 14.6357C11.541 14.0606 11.0751 13.5939 10.5 13.5938ZM10.5 4.63574C8.77411 4.63574 7.375 6.03486 7.375 7.76074C7.3752 8.10575 7.65494 8.38574 8 8.38574C8.34506 8.38574 8.6248 8.10575 8.625 7.76074C8.625 6.72521 9.46447 5.88574 10.5 5.88574C11.5355 5.88574 12.375 6.72521 12.375 7.76074C12.3748 8.7961 11.5354 9.63574 10.5 9.63574C10.1548 9.63574 9.875 9.91556 9.875 10.2607V11.9277C9.87537 12.2726 10.1551 12.5527 10.5 12.5527C10.8449 12.5527 11.1246 12.2726 11.125 11.9277V10.8223C12.5512 10.5327 13.6248 9.27236 13.625 7.76074C13.625 6.03486 12.2259 4.63574 10.5 4.63574Z" fill="#C5C5CF"/>
</svg>
