<svg width="20" height="16" viewBox="0 0 20 16" fill="none" xmlns="http://www.w3.org/2000/svg">
<path d="M12.1222 5.8801C12.6846 6.44333 13.0004 7.2067 13.0004 8.0026C13.0004 8.79851 12.6846 9.56188 12.1222 10.1251C11.559 10.6875 10.7956 11.0033 9.99973 11.0033C9.20382 11.0033 8.44045 10.6875 7.87723 10.1251C7.31488 9.56188 6.99902 8.79851 6.99902 8.0026C6.99902 7.2067 7.31488 6.44333 7.87723 5.8801C8.15585 5.60117 8.48671 5.3799 8.85091 5.22892C9.2151 5.07795 9.60548 5.00024 9.99973 5.00024C10.394 5.00024 10.7844 5.07795 11.1485 5.22892C11.5127 5.3799 11.8436 5.60117 12.1222 5.8801" stroke="currentColor" stroke-width="1.5" stroke-linecap="round" stroke-linejoin="round"/>
<path d="M1 8C1 7.341 1.152 6.689 1.446 6.088C2.961 2.991 6.309 1 10 1C13.691 1 17.039 2.991 18.554 6.088C18.848 6.689 19 7.341 19 8C19 8.659 18.848 9.311 18.554 9.912C17.039 13.009 13.691 15 10 15C6.309 15 2.961 13.009 1.446 9.912C1.15344 9.31703 1.00088 8.66301 1 8V8Z" stroke="currentColor" stroke-width="1.5" stroke-linecap="round" stroke-linejoin="round"/>
</svg>
