<svg width="20" height="20" viewBox="0 0 20 20" fill="none" xmlns="http://www.w3.org/2000/svg">
<path d="M10 2C12.2091 2.00001 14.2095 2.89508 15.6572 4.34277C17.1049 5.7905 18 7.79092 18 10C18 12.2091 17.1049 14.2095 15.6572 15.6572C14.2095 17.1049 12.2091 18 10 18C7.79092 18 5.7905 17.1049 4.34277 15.6572C2.89508 14.2095 2.00001 12.2091 2 10C2 7.79089 2.89507 5.7905 4.34277 4.34277C5.7905 2.89507 7.79089 2 10 2ZM9.2002 8.00098C8.86885 8.00103 8.60059 8.27021 8.60059 8.60156C8.6007 8.93281 8.86893 9.20112 9.2002 9.20117H9.40039V13.5986H8.59961C8.26842 13.5989 8 13.867 8 14.1982C8.00004 14.5295 8.26844 14.7976 8.59961 14.7979H9.96289C9.97522 14.7986 9.98748 14.8018 10 14.8018C10.0124 14.8018 10.0249 14.7986 10.0371 14.7979H11.4004C11.7316 14.7977 12 14.5295 12 14.1982C12 13.8669 11.7317 13.5988 11.4004 13.5986H10.6006V8.60156C10.6006 8.27018 10.3314 8.00098 10 8.00098H9.2002ZM9.79688 5C9.24459 5 8.7969 5.44772 8.79688 6C8.79688 6.5523 9.24457 7 9.79688 7C10.3492 7 10.7969 6.5523 10.7969 6C10.7969 5.44772 10.3492 5 9.79688 5Z" fill="currentColor"/>
</svg>
