<svg width="14" height="14" viewBox="0 0 14 14" fill="none" xmlns="http://www.w3.org/2000/svg">
<path d="M7.00033 12.8346C8.61114 12.8346 10.0695 12.1817 11.1251 11.1261C12.1807 10.0705 12.8337 8.61212 12.8337 7.0013C12.8337 5.39049 12.1807 3.93215 11.1251 2.87651C10.0695 1.82089 8.61114 1.16797 7.00033 1.16797C5.38951 1.16797 3.93118 1.82089 2.87553 2.87651C1.81991 3.93215 1.16699 5.39049 1.16699 7.0013C1.16699 8.61212 1.81991 10.0705 2.87553 11.1261C3.93118 12.1817 5.38951 12.8346 7.00033 12.8346Z" fill="#F63D3D"/>
<path d="M7.58301 10.0612C7.58301 10.3834 7.32184 10.6445 6.99967 10.6445C6.67751 10.6445 6.41634 10.3834 6.41634 10.0612C6.41634 9.73904 6.67751 9.47786 6.99967 9.47786C7.32184 9.47786 7.58301 9.73904 7.58301 10.0612Z" fill="white" stroke="white" stroke-width="0.291667"/>
<path d="M7 3.5V8.16667V3.5Z" fill="white"/>
<path d="M7 3.5V8.16667" stroke="white" stroke-width="0.875" stroke-linecap="round" stroke-linejoin="round"/>
</svg>
