<svg width="160" height="148" viewBox="0 0 160 148" fill="none" xmlns="http://www.w3.org/2000/svg">
<g id="logo" filter="url(#filter0_d_3908_65282)">
<path id="body" d="M127.166 75.498C130.922 67.0768 112.349 43.5493 94.6055 33.7473C83.421 26.1538 71.7668 27.197 69.4064 30.5311C64.2264 37.8482 86.5588 44.0482 101.494 51.2833C98.2838 52.6824 95.2583 55.1932 93.4791 58.4042C87.911 52.3048 75.6899 47.0524 61.3497 51.2833C51.6861 54.1344 43.6549 60.8561 40.5509 71.0083C39.7967 70.672 38.9616 70.4851 38.0831 70.4851C34.7235 70.4851 32 73.2178 32 76.5887C32 79.9597 34.7235 82.6923 38.0831 82.6923C38.7058 82.6923 40.6528 82.2732 40.6528 82.2732L71.7668 82.4994C59.3236 102.306 49.49 105.201 49.49 108.632C49.49 112.064 58.899 111.134 62.4319 109.855C79.3442 103.732 97.5087 84.6497 100.626 79.1564C113.715 80.7951 124.716 80.9889 127.166 75.498Z" fill="url(#paint0_linear_3908_65282)"/>
<path id="shadow ear" fill-rule="evenodd" clip-rule="evenodd" d="M101.429 51.2433C101.451 51.2532 101.474 51.2631 101.497 51.273C102.189 50.9994 102.077 49.9735 101.887 49.1678C101.45 47.3161 93.9115 39.847 86.8324 36.5015C77.1811 31.9405 70.0756 32.1781 69.032 34.2823C70.9964 38.3232 80.106 42.1171 89.6201 46.0795C93.6549 47.7599 97.7625 49.4706 101.429 51.2433Z" fill="url(#paint1_linear_3908_65282)"/>
<path id="shadow leg" fill-rule="evenodd" clip-rule="evenodd" d="M89.2565 91.9584C87.3057 91.2103 85.102 90.524 82.5966 89.9012C85.2679 85.1053 85.8284 78.0053 83.3056 73.5163C79.765 67.2165 75.3206 63.8633 64.9928 63.8633C59.3125 63.8633 44.0186 65.783 43.7471 78.5931C43.7185 79.9389 43.7464 81.1722 43.8437 82.3062L71.7668 82.5093C68.0033 88.4997 64.4786 92.9432 61.3924 96.3224C65.0991 97.2754 68.1579 98.0755 70.9662 98.8101C73.6312 99.5071 76.0704 100.145 78.6235 100.799C82.474 97.9836 86.0937 94.9141 89.2565 91.9584Z" fill="url(#paint2_linear_3908_65282)"/>
<path id="leg" d="M40.1796 80.9773C41.3205 90.7085 46.8324 94.5221 58.0953 95.6507C69.3583 96.7794 75.8189 96.0222 84.4201 96.8074C91.6038 97.4632 98.018 101.136 100.398 99.867C102.539 98.7246 101.341 94.5974 98.4754 91.9496C94.761 88.5173 89.6201 86.1309 80.5746 85.2841C82.3772 80.3316 81.8721 73.3878 79.0724 69.6099C75.0243 64.1474 67.5522 61.6777 58.0954 62.7568C48.2151 63.8841 38.7478 68.7648 40.1796 80.9773Z" fill="url(#paint3_linear_3908_65282)"/>
</g>
<defs>
<filter id="filter0_d_3908_65282" x="0" y="0" width="159.654" height="147.012" filterUnits="userSpaceOnUse" color-interpolation-filters="sRGB">
<feFlood flood-opacity="0" result="BackgroundImageFix"/>
<feColorMatrix in="SourceAlpha" type="matrix" values="0 0 0 0 0 0 0 0 0 0 0 0 0 0 0 0 0 0 127 0" result="hardAlpha"/>
<feOffset dy="4"/>
<feGaussianBlur stdDeviation="16"/>
<feComposite in2="hardAlpha" operator="out"/>
<feColorMatrix type="matrix" values="0 0 0 0 0.159801 0 0 0 0 0.256237 0 0 0 0 0.533493 0 0 0 0.32 0"/>
<feBlend mode="normal" in2="BackgroundImageFix" result="effect1_dropShadow_3908_65282"/>
<feBlend mode="normal" in="SourceGraphic" in2="effect1_dropShadow_3908_65282" result="shape"/>
</filter>
<linearGradient id="paint0_linear_3908_65282" x1="60.2245" y1="68.0406" x2="126.39" y2="86.7407" gradientUnits="userSpaceOnUse">
<stop stop-color="white"/>
<stop offset="1" stop-color="white"/>
</linearGradient>
<linearGradient id="paint1_linear_3908_65282" x1="115.223" y1="66.7667" x2="67.3443" y2="18.9302" gradientUnits="userSpaceOnUse">
<stop stop-color="#8697FF"/>
<stop offset="1" stop-color="#8697FF" stop-opacity="0"/>
</linearGradient>
<linearGradient id="paint2_linear_3908_65282" x1="90.5842" y1="93.6304" x2="44.6696" y2="67.3216" gradientUnits="userSpaceOnUse">
<stop stop-color="#8697FF"/>
<stop offset="1" stop-color="#8697FF" stop-opacity="0"/>
</linearGradient>
<linearGradient id="paint3_linear_3908_65282" x1="64.174" y1="67.5427" x2="95.2858" y2="106.941" gradientUnits="userSpaceOnUse">
<stop stop-color="white"/>
<stop offset="0.983895" stop-color="#D1D8FF"/>
</linearGradient>
</defs>
</svg>
