<svg xmlns="http://www.w3.org/2000/svg" viewBox="0 0 67 67" fill="none">
  <path d="M63.012 37.4534C65.3417 32.2314 53.8245 17.6421 42.8216 11.5639C35.8861 6.85515 28.6593 7.50205 27.1957 9.56953C23.9836 14.1068 37.8319 17.9515 47.0933 22.4379C45.1025 23.3055 43.2264 24.8625 42.1231 26.8536C38.6704 23.0714 31.092 19.8144 22.1997 22.4379C16.2073 24.2059 11.2272 28.374 9.30241 34.6694C8.83471 34.4609 8.3169 34.345 7.7721 34.345C5.68883 34.345 4 36.0395 4 38.1298C4 40.2201 5.68883 41.9146 7.7721 41.9146C8.15825 41.9146 9.36561 41.6547 9.36561 41.6547L28.6593 41.795C20.9433 54.0769 14.8455 55.8723 14.8455 58.0001C14.8455 60.1278 20.6801 59.5513 22.8708 58.7581C33.358 54.9614 44.6219 43.1284 46.5547 39.722C54.6716 40.7381 61.493 40.8583 63.012 37.4534Z" fill="url(#paint0_linear_46792_95510)"/>
  <path d="M26.9648 11.8996C27.6194 10.5988 32.022 10.4544 38 13.2794C42.3895 15.3539 47.0646 19.9854 47.3359 21.1339C47.4538 21.6335 47.523 22.2699 47.0938 22.4396L47.0918 22.4386H47.0938C39.4565 18.739 28.7014 15.4747 26.9648 11.8996Z" fill="url(#paint1_linear_46792_95510)"/>
  <path d="M24.4594 30.2373C30.8634 30.2374 33.6195 32.3162 35.8149 36.2227C37.3793 39.0062 37.0318 43.4088 35.3755 46.3828C36.9279 46.7687 38.2934 47.1947 39.5024 47.6582C37.5405 49.4913 35.294 51.393 32.9057 53.1387C29.6552 52.3064 26.7005 51.5171 22.2202 50.3652C24.1352 48.269 26.3256 45.5142 28.6616 41.7959L11.3452 41.6689C11.2852 40.967 11.267 40.2038 11.2846 39.3711C11.453 31.4276 20.9371 30.2373 24.4594 30.2373Z" fill="url(#paint2_linear_46792_95510)"/>
  <path d="M9.07268 40.8535C9.78014 46.8878 13.198 49.2526 20.1822 49.9525C27.1663 50.6523 31.1725 50.1828 36.5061 50.6697C40.9607 51.0764 44.9381 53.354 46.4137 52.5669C47.7416 51.8586 46.9987 49.2993 45.2218 47.6574C42.9185 45.529 39.7307 44.0492 34.1215 43.5241C35.2393 40.4531 34.9261 36.1472 33.19 33.8045C30.6798 30.4173 26.0464 28.8858 20.1822 29.5549C14.0554 30.254 8.18482 33.2805 9.07268 40.8535Z" fill="url(#paint3_linear_46792_95510)"/>
  <defs>
    <linearGradient id="paint0_linear_46792_95510" x1="21.5019" y1="32.8291" x2="62.5308" y2="44.425" gradientUnits="userSpaceOnUse">
      <stop stop-color="#8697FF"/>
      <stop offset="1" stop-color="#ABB7FF"/>
    </linearGradient>
    <linearGradient id="paint1_linear_46792_95510" x1="55.6044" y1="32.0472" x2="25.9152" y2="2.38719" gradientUnits="userSpaceOnUse">
      <stop stop-color="#8697FF"/>
      <stop offset="1" stop-color="#5156D8" stop-opacity="0"/>
    </linearGradient>
    <linearGradient id="paint2_linear_46792_95510" x1="40.3256" y1="48.694" x2="11.8568" y2="32.3815" gradientUnits="userSpaceOnUse">
      <stop stop-color="#465EED"/>
      <stop offset="1" stop-color="#8697FF" stop-opacity="0"/>
    </linearGradient>
    <linearGradient id="paint3_linear_46792_95510" x1="23.9516" y1="32.5227" x2="43.2439" y2="56.9533" gradientUnits="userSpaceOnUse">
      <stop stop-color="#8898FF"/>
      <stop offset="0.983895" stop-color="#6277F1"/>
    </linearGradient>
  </defs>
</svg>
