<svg viewBox="0 0 86 76" fill="none" xmlns="http://www.w3.org/2000/svg">
<g id="Group 1">
<g id="logo">
<path id="body" d="M85.5296 43.3855C88.9049 35.8167 72.2184 14.6707 56.277 5.86084C46.2287 -0.964051 35.7584 -0.0264254 33.6378 2.97021C28.984 9.54665 49.0478 15.1191 62.4661 21.6219C59.5817 22.8794 56.8636 25.136 55.2651 28.022C50.2627 22.54 39.283 17.8192 26.3995 21.6219C17.7176 24.1844 10.5022 30.2257 7.71353 39.3503C7.03592 39.048 6.28569 38.8801 5.49638 38.8801C2.47807 38.8801 0.03125 41.3362 0.03125 44.3659C0.03125 47.3956 2.47807 49.8517 5.49638 49.8517C6.05585 49.8517 7.8051 49.475 7.8051 49.475L35.7584 49.6783C24.5793 67.4798 15.7446 70.0821 15.7446 73.1661C15.7446 76.2501 24.1978 75.4145 27.3718 74.2649C42.566 68.7618 58.8854 51.6109 61.6858 46.6737C73.4457 48.1464 83.3288 48.3206 85.5296 43.3855Z" fill="url(#paint0_linear_9874_3992)"/>
<path id="shadow ear" fill-rule="evenodd" clip-rule="evenodd" d="M62.4643 21.6243C62.4652 21.6247 62.4661 21.6251 62.467 21.6255C63.0889 21.3796 62.9884 20.4575 62.8176 19.7335C62.4251 18.0692 55.6523 11.3561 49.2924 8.34922C40.6264 4.25215 34.2449 4.46321 33.3018 6.35144C35.0673 9.98309 43.251 13.3928 51.7981 16.9538C55.4447 18.4732 59.1575 20.02 62.4662 21.6235C62.4655 21.6238 62.4649 21.624 62.4643 21.6243Z" fill="url(#paint1_linear_9874_3992)"/>
<path id="shadow leg" fill-rule="evenodd" clip-rule="evenodd" d="M51.4672 58.1732C49.7146 57.5008 47.7347 56.884 45.4839 56.3243C47.8838 52.0137 48.3874 45.6324 46.1208 41.5978C42.94 35.9356 38.947 32.9219 29.6683 32.9219C24.5651 32.9219 10.8248 34.6473 10.5808 46.1607C10.5552 47.3688 10.5802 48.476 10.6673 49.4942L35.7581 49.6767C32.3755 55.0631 29.2076 59.0579 26.4341 62.0956C29.764 62.9521 32.512 63.6711 35.0348 64.3313C37.4288 64.9577 39.6201 65.5311 41.9134 66.1185C45.373 63.5885 48.6253 60.8297 51.4672 58.1732Z" fill="url(#paint2_linear_9874_3992)"/>
<path id="leg" d="M7.37873 48.3102C8.40372 57.0564 13.3557 60.484 23.4745 61.4984C33.5933 62.5127 39.3976 61.8323 47.1251 62.538C53.579 63.1274 59.3416 66.4287 61.4794 65.2878C63.4034 64.2611 62.327 60.5517 59.7526 58.1718C56.4155 55.087 51.7969 52.9421 43.6702 52.181C45.2897 47.7299 44.8359 41.4889 42.3206 38.0933C38.6837 33.1838 31.9707 30.9641 23.4745 31.9339C14.5979 32.9471 6.09237 37.3338 7.37873 48.3102Z" fill="url(#paint3_linear_9874_3992)"/>
</g>
</g>
<defs>
<linearGradient id="paint0_linear_9874_3992" x1="25.3886" y1="36.683" x2="84.836" y2="53.4777" gradientUnits="userSpaceOnUse">
<stop stop-color="#8697FF"/>
<stop offset="1" stop-color="#ABB7FF"/>
</linearGradient>
<linearGradient id="paint1_linear_9874_3992" x1="74.7981" y1="35.551" x2="31.7661" y2="-7.424" gradientUnits="userSpaceOnUse">
<stop stop-color="#8697FF"/>
<stop offset="1" stop-color="#5156D8" stop-opacity="0"/>
</linearGradient>
<linearGradient id="paint2_linear_9874_3992" x1="52.6599" y1="59.6757" x2="11.4015" y2="36.0444" gradientUnits="userSpaceOnUse">
<stop stop-color="#465EED"/>
<stop offset="1" stop-color="#8697FF" stop-opacity="0"/>
</linearGradient>
<linearGradient id="paint3_linear_9874_3992" x1="28.9357" y1="36.2355" x2="56.901" y2="71.6345" gradientUnits="userSpaceOnUse">
<stop stop-color="#8898FF"/>
<stop offset="0.983895" stop-color="#6277F1"/>
</linearGradient>
</defs>
</svg>
