<svg viewBox="0 0 32 32" fill="none" xmlns="http://www.w3.org/2000/svg">
<path d="M25.9961 17.875V4.75C25.9961 4.05964 25.4365 3.5 24.7461 3.5H7.24609C6.55574 3.5 5.99609 4.05964 5.99609 4.75V27.25C5.99609 27.9404 6.55574 28.5 7.24609 28.5H14.1211" stroke="currentColor" stroke-width="1.5" stroke-linecap="round" stroke-linejoin="round"/>
<path d="M11.6211 8.5H20.3711" stroke="currentColor" stroke-width="1.5" stroke-linecap="round" stroke-linejoin="round"/>
<path d="M11.6211 13.5H20.3711" stroke="currentColor" stroke-width="1.5" stroke-linecap="round" stroke-linejoin="round"/>
<path d="M11.6211 18.5H15.3711" stroke="currentColor" stroke-width="1.5" stroke-linecap="round" stroke-linejoin="round"/>
<path d="M25.375 28.5L23.2097 26.3347M23.2097 26.3347C23.7752 25.7692 24.125 24.9879 24.125 24.125C24.125 22.3991 22.7259 21 21 21C19.2741 21 17.875 22.3991 17.875 24.125C17.875 25.8509 19.2741 27.25 21 27.25C21.8629 27.25 22.6442 26.9002 23.2097 26.3347Z" stroke="currentColor" stroke-width="1.5" stroke-linecap="round" stroke-linejoin="round"/>
</svg>
