<svg width="16" height="16" viewBox="0 0 16 16" fill="none" xmlns="http://www.w3.org/2000/svg">
<path d="M5.66699 2.66797H4.00033C3.26395 2.66797 2.66699 3.26492 2.66699 4.0013V13.3346C2.66699 14.071 3.26395 14.668 4.00033 14.668H12.0003C12.7367 14.668 13.3337 14.071 13.3337 13.3346V4.0013C13.3337 3.26492 12.7367 2.66797 12.0003 2.66797H10.3337" stroke="currentColor" stroke-linecap="round"/>
<path d="M6 8H10" stroke="currentColor" stroke-linecap="round" stroke-linejoin="round"/>
<path d="M6 10.668H10" stroke="currentColor" stroke-linecap="round" stroke-linejoin="round"/>
<path d="M5.33301 4.26797V3.0013C5.33301 2.81721 5.48225 2.66797 5.66634 2.66797C5.85043 2.66797 6.00249 2.51866 6.03402 2.33729C6.13279 1.76911 6.51567 0.667969 7.99967 0.667969C9.48367 0.667969 9.86654 1.76911 9.96534 2.33729C9.99687 2.51866 10.1489 2.66797 10.333 2.66797C10.5171 2.66797 10.6663 2.81721 10.6663 3.0013V4.26797C10.6663 4.48888 10.4873 4.66797 10.2663 4.66797H5.73301C5.51209 4.66797 5.33301 4.48888 5.33301 4.26797Z" stroke="currentColor" stroke-linecap="round"/>
</svg>
