<svg width="16" height="16" viewBox="0 0 16 16" fill="none" xmlns="http://www.w3.org/2000/svg">
<path d="M5.75222 1.82031H2.80256C2.25954 1.82031 1.81934 2.26052 1.81934 2.80353V5.7532C1.81934 6.29621 2.25954 6.73642 2.80256 6.73642H5.75222C6.29524 6.73642 6.73544 6.29621 6.73544 5.7532V2.80353C6.73544 2.26052 6.29524 1.82031 5.75222 1.82031Z" stroke="currentColor" stroke-linecap="round" stroke-linejoin="round"/>
<path d="M13.1262 1.82031H10.1766C9.63356 1.82031 9.19336 2.26052 9.19336 2.80353V5.7532C9.19336 6.29621 9.63356 6.73642 10.1766 6.73642H13.1262C13.6693 6.73642 14.1095 6.29621 14.1095 5.7532V2.80353C14.1095 2.26052 13.6693 1.82031 13.1262 1.82031Z" stroke="currentColor" stroke-linecap="round" stroke-linejoin="round"/>
<path d="M5.75222 9.1875H2.80256C2.25954 9.1875 1.81934 9.6277 1.81934 10.1707V13.1204C1.81934 13.6634 2.25954 14.1036 2.80256 14.1036H5.75222C6.29524 14.1036 6.73544 13.6634 6.73544 13.1204V10.1707C6.73544 9.6277 6.29524 9.1875 5.75222 9.1875Z" stroke="currentColor" stroke-linecap="round" stroke-linejoin="round"/>
<path d="M5.01487 3.53906H3.54004V5.01389H5.01487V3.53906Z" fill="currentColor"/>
<path d="M12.3889 3.53906H10.9141V5.01389H12.3889V3.53906Z" fill="currentColor"/>
<path d="M5.01487 10.9141H3.54004V12.3889H5.01487V10.9141Z" fill="currentColor"/>
<path d="M14.8469 13.377H13.3721V14.8518H14.8469V13.377Z" fill="currentColor"/>
<path d="M13.3723 11.8945H11.8975V13.3694H13.3723V11.8945Z" fill="currentColor"/>
<path d="M14.8469 10.4199H13.3721V11.8948H14.8469V10.4199Z" fill="currentColor"/>
<path d="M11.8981 13.377H9.93164V14.8518H11.8981V13.377Z" fill="currentColor"/>
<path d="M9.93089 10.4199H8.45605V13.3696H9.93089V10.4199Z" fill="currentColor"/>
<path d="M13.3729 8.94336H9.93164V10.4182H13.3729V8.94336Z" fill="currentColor"/>
</svg>
