<svg width="123" height="35" viewBox="0 0 123 35" fill="none" xmlns="http://www.w3.org/2000/svg">
<g opacity="0.7">
<path d="M41.14 17.7744H41.5789C42.0376 17.7744 42.3895 17.6702 42.6347 17.4618C42.8799 17.2533 43.0024 16.9537 43.0024 16.5629C43.0024 16.1722 42.8799 15.8726 42.6347 15.6641C42.3895 15.4557 42.0376 15.3515 41.5789 15.3515H41.14V17.7744ZM46.2528 23.2064H43.3583L41.14 19.4287V23.2064H38.8149V13.3845H42.433C42.9313 13.3845 43.3662 13.467 43.7379 13.632C44.1096 13.7883 44.4141 14.0055 44.6514 14.2833C44.8965 14.5612 45.0784 14.8826 45.197 15.2473C45.3236 15.612 45.3868 16.0028 45.3868 16.4197C45.3868 17.1665 45.2208 17.7744 44.8886 18.2433C44.5644 18.7036 44.0819 19.0162 43.4414 19.1812L46.2528 23.2064Z" fill="white"/>
<path d="M48.1658 19.8456C48.1658 20.0627 48.2014 20.2668 48.2726 20.4578C48.3438 20.6402 48.4387 20.8008 48.5573 20.9398C48.6838 21.0787 48.8301 21.1873 48.9962 21.2654C49.1702 21.3436 49.3561 21.3827 49.5538 21.3827C49.7436 21.3827 49.9215 21.3436 50.0876 21.2654C50.2616 21.1873 50.4079 21.0787 50.5265 20.9398C50.653 20.8008 50.7519 20.6402 50.8231 20.4578C50.9021 20.2754 50.9417 20.08 50.9417 19.8716C50.9417 19.6632 50.9021 19.4678 50.8231 19.2854C50.7519 19.0944 50.653 18.9294 50.5265 18.7904C50.4079 18.6515 50.2616 18.5429 50.0876 18.4648C49.9215 18.3866 49.7436 18.3475 49.5538 18.3475C49.3561 18.3475 49.1702 18.3866 48.9962 18.4648C48.8301 18.5429 48.6838 18.6515 48.5573 18.7904C48.4387 18.9294 48.3438 19.09 48.2726 19.2724C48.2014 19.4461 48.1658 19.6372 48.1658 19.8456ZM50.8705 16.5239H53.0295V23.2064H50.8705V22.4639C50.4118 23.0978 49.791 23.4148 49.0081 23.4148C48.5652 23.4148 48.1579 23.3279 47.7862 23.1543C47.4145 22.9719 47.0903 22.72 46.8135 22.3987C46.5367 22.0774 46.3192 21.6997 46.1611 21.2654C46.0108 20.8312 45.9357 20.3579 45.9357 19.8456C45.9357 19.3679 46.0108 18.9164 46.1611 18.4908C46.3113 18.0566 46.5209 17.6789 46.7898 17.3576C47.0587 17.0362 47.3789 16.7844 47.7506 16.602C48.1223 16.411 48.5336 16.3154 48.9844 16.3154C49.7436 16.3154 50.3723 16.6064 50.8705 17.1882V16.5239Z" fill="white"/>
<path d="M58.6307 19.8847C58.6307 19.6762 58.5951 19.4808 58.5239 19.2985C58.4528 19.1074 58.3539 18.9424 58.2274 18.8035C58.1008 18.6645 57.9545 18.556 57.7885 18.4778C57.6224 18.391 57.4405 18.3475 57.2428 18.3475C57.053 18.3475 56.875 18.3866 56.709 18.4648C56.5429 18.5429 56.3966 18.6515 56.27 18.7904C56.1514 18.9294 56.0526 19.0944 55.9735 19.2854C55.9023 19.4678 55.8667 19.6632 55.8667 19.8716C55.8667 20.08 55.9023 20.2754 55.9735 20.4578C56.0447 20.6402 56.1435 20.8008 56.27 20.9398C56.3966 21.07 56.5429 21.1786 56.709 21.2654C56.8829 21.3436 57.0648 21.3827 57.2546 21.3827C57.4444 21.3827 57.6224 21.3436 57.7885 21.2654C57.9545 21.1873 58.0969 21.0787 58.2155 20.9398C58.3421 20.8008 58.4409 20.6402 58.5121 20.4578C58.5912 20.2754 58.6307 20.0844 58.6307 19.8847ZM55.926 12.3945V17.1882C56.4322 16.6064 57.0648 16.3154 57.824 16.3154C58.2748 16.3154 58.6861 16.411 59.0578 16.602C59.4374 16.7844 59.7577 17.0362 60.0186 17.3576C60.2875 17.6702 60.4971 18.0436 60.6474 18.4778C60.7976 18.9033 60.8727 19.3593 60.8727 19.8456C60.8727 20.3406 60.7937 20.8052 60.6355 21.2394C60.4852 21.6736 60.2717 22.0514 59.9949 22.3727C59.7181 22.694 59.3899 22.9502 59.0103 23.1412C58.6386 23.3236 58.2353 23.4148 57.8003 23.4148C57.0095 23.4148 56.3847 23.0978 55.926 22.4639V23.2064H53.7789V12.3945H55.926Z" fill="white"/>
<path d="M66.2367 19.8847C66.2367 19.6762 66.2011 19.4808 66.1299 19.2985C66.0587 19.1074 65.9599 18.9424 65.8334 18.8035C65.7068 18.6645 65.5605 18.556 65.3944 18.4778C65.2284 18.391 65.0465 18.3475 64.8488 18.3475C64.659 18.3475 64.481 18.3866 64.3149 18.4648C64.1489 18.5429 64.0026 18.6515 63.876 18.7904C63.7574 18.9294 63.6585 19.0944 63.5795 19.2854C63.5083 19.4678 63.4727 19.6632 63.4727 19.8716C63.4727 20.08 63.5083 20.2754 63.5795 20.4578C63.6506 20.6402 63.7495 20.8008 63.876 20.9398C64.0026 21.07 64.1489 21.1786 64.3149 21.2654C64.4889 21.3436 64.6708 21.3827 64.8606 21.3827C65.0504 21.3827 65.2284 21.3436 65.3944 21.2654C65.5605 21.1873 65.7029 21.0787 65.8215 20.9398C65.948 20.8008 66.0469 20.6402 66.1181 20.4578C66.1971 20.2754 66.2367 20.0844 66.2367 19.8847ZM63.532 12.3945V17.1882C64.0381 16.6064 64.6708 16.3154 65.43 16.3154C65.8808 16.3154 66.292 16.411 66.6637 16.602C67.0433 16.7844 67.3636 17.0362 67.6246 17.3576C67.8935 17.6702 68.1031 18.0436 68.2533 18.4778C68.4036 18.9033 68.4787 19.3593 68.4787 19.8456C68.4787 20.3406 68.3996 20.8052 68.2415 21.2394C68.0912 21.6736 67.8777 22.0514 67.6009 22.3727C67.3241 22.694 66.9959 22.9502 66.6163 23.1412C66.2446 23.3236 65.8413 23.4148 65.4063 23.4148C64.6155 23.4148 63.9907 23.0978 63.532 22.4639V23.2064H61.3849V12.3945H63.532Z" fill="white"/>
<path d="M70.8729 22.2945L67.931 16.5239H70.4221L72.0473 19.9498L73.6251 16.5239H76.0925L71.2051 26.5411H68.797L70.8729 22.2945Z" fill="white"/>
<path d="M81.1379 13.3845L82.68 19.7283L84.578 13.3845H86.4286L88.3266 19.7283L89.8688 13.3845H92.3006L89.6315 23.2064H87.259L85.5033 17.5139L83.7477 23.2064H81.3751L78.7061 13.3845H81.1379Z" fill="white"/>
<path d="M93.9175 19.8456C93.9175 20.0627 93.9531 20.2668 94.0243 20.4578C94.0955 20.6402 94.1904 20.8008 94.309 20.9398C94.4356 21.0787 94.5819 21.1873 94.7479 21.2654C94.9219 21.3436 95.1078 21.3827 95.3055 21.3827C95.4953 21.3827 95.6732 21.3436 95.8393 21.2654C96.0133 21.1873 96.1596 21.0787 96.2782 20.9398C96.4047 20.8008 96.5036 20.6402 96.5748 20.4578C96.6539 20.2754 96.6934 20.08 96.6934 19.8716C96.6934 19.6632 96.6539 19.4678 96.5748 19.2854C96.5036 19.0944 96.4047 18.9294 96.2782 18.7904C96.1596 18.6515 96.0133 18.5429 95.8393 18.4648C95.6732 18.3866 95.4953 18.3475 95.3055 18.3475C95.1078 18.3475 94.9219 18.3866 94.7479 18.4648C94.5819 18.5429 94.4356 18.6515 94.309 18.7904C94.1904 18.9294 94.0955 19.09 94.0243 19.2724C93.9531 19.4461 93.9175 19.6372 93.9175 19.8456ZM96.6222 16.5239H98.7812V23.2064H96.6222V22.4639C96.1635 23.0978 95.5427 23.4148 94.7598 23.4148C94.3169 23.4148 93.9096 23.3279 93.5379 23.1543C93.1663 22.9719 92.842 22.72 92.5652 22.3987C92.2884 22.0774 92.0709 21.6997 91.9128 21.2654C91.7625 20.8312 91.6874 20.3579 91.6874 19.8456C91.6874 19.3679 91.7625 18.9164 91.9128 18.4908C92.063 18.0566 92.2726 17.6789 92.5415 17.3576C92.8104 17.0362 93.1307 16.7844 93.5024 16.602C93.8741 16.411 94.2853 16.3154 94.7361 16.3154C95.4953 16.3154 96.124 16.6064 96.6222 17.1882V16.5239Z" fill="white"/>
<path d="M101.678 12.3945V23.2064H99.5306V12.3945H101.678Z" fill="white"/>
<path d="M104.58 12.3945V23.2064H102.433V12.3945H104.58Z" fill="white"/>
<path d="M109.784 18.8947C109.713 18.5647 109.567 18.2998 109.345 18.1C109.124 17.9003 108.855 17.8004 108.539 17.8004C108.207 17.8004 107.934 17.896 107.72 18.087C107.515 18.2781 107.384 18.5473 107.329 18.8947H109.784ZM107.269 20.2624C107.269 21.2785 107.704 21.7865 108.574 21.7865C109.041 21.7865 109.393 21.5781 109.63 21.1612H111.706C111.287 22.6896 110.239 23.4539 108.563 23.4539C108.048 23.4539 107.578 23.3714 107.151 23.2064C106.724 23.0327 106.356 22.7895 106.048 22.4769C105.747 22.1643 105.514 21.7908 105.348 21.3566C105.182 20.9224 105.099 20.4361 105.099 19.8977C105.099 19.3419 105.178 18.8425 105.336 18.3997C105.494 17.9481 105.719 17.566 106.012 17.2533C106.305 16.9407 106.657 16.7019 107.068 16.5369C107.487 16.3632 107.958 16.2764 108.479 16.2764C108.994 16.2764 109.456 16.3632 109.867 16.5369C110.279 16.7019 110.627 16.9451 110.911 17.2664C111.196 17.5877 111.413 17.9828 111.564 18.4518C111.714 18.912 111.789 19.4331 111.789 20.0149V20.2624H107.269Z" fill="white"/>
<path d="M114.782 18.4908V23.2064H112.635V18.4908H111.923V16.5239H112.635V14.5178H114.782V16.5239H116.004V18.4908H114.782Z" fill="white"/>
<path d="M32.8446 19.1465C33.8763 16.8323 28.776 10.3668 23.9034 7.67314C20.8321 5.58639 17.6318 5.87307 16.9837 6.78931C15.5612 8.80009 21.6938 10.5039 25.7951 12.4922C24.9135 12.8766 24.0827 13.5666 23.5941 14.449C22.0651 12.7729 18.7091 11.3295 14.7712 12.4922C12.1176 13.2757 9.91216 15.1228 9.05979 17.9127C8.85268 17.8203 8.62337 17.7689 8.38211 17.7689C7.45955 17.7689 6.71167 18.5199 6.71167 19.4463C6.71167 20.3726 7.45955 21.1236 8.38211 21.1236C8.55311 21.1236 9.08778 21.0084 9.08778 21.0084L17.6318 21.0706C14.2149 26.5135 11.5145 27.3091 11.5145 28.2521C11.5145 29.195 14.0983 28.9395 15.0684 28.588C19.7126 26.9054 24.7007 21.6614 25.5566 20.1519C29.1511 20.6022 32.1719 20.6554 32.8446 19.1465Z" fill="url(#paint0_linear_4349_43019)"/>
<path fill-rule="evenodd" clip-rule="evenodd" d="M25.795 12.4921C25.7952 12.4922 25.7954 12.4923 25.7956 12.4924C25.9857 12.4172 25.9549 12.1353 25.9027 11.9139C25.7828 11.405 23.7126 9.35246 21.7687 8.4331C19.1199 7.18041 17.1694 7.24493 16.8811 7.82225C17.4206 8.93271 19.9221 9.97529 22.5347 11.0642C23.6493 11.5287 24.7841 12.0017 25.7954 12.4919C25.7953 12.492 25.7951 12.4921 25.795 12.4921Z" fill="url(#paint1_linear_4349_43019)"/>
<path fill-rule="evenodd" clip-rule="evenodd" d="M22.4333 23.666C21.8977 23.4604 21.2926 23.2718 20.6047 23.1007C21.3382 21.7828 21.4921 19.8316 20.7993 18.598C19.8271 16.8668 18.6066 15.9453 15.7706 15.9453C14.2107 15.9453 10.0109 16.4729 9.93639 19.9932C9.92857 20.3625 9.93619 20.701 9.96281 21.0122L17.6319 21.068C16.598 22.715 15.6296 23.9365 14.7819 24.8653C15.7997 25.1272 16.6397 25.3471 17.4109 25.5489C18.1425 25.7404 18.8122 25.9157 19.5132 26.0953C20.5706 25.3218 21.5647 24.4782 22.4333 23.666Z" fill="url(#paint2_linear_4349_43019)"/>
<path d="M8.95745 20.6526C9.27074 23.3268 10.7843 24.3748 13.8772 24.6849C16.97 24.9951 18.7441 24.787 21.1061 25.0028C23.0788 25.183 24.8401 26.1924 25.4936 25.8436C26.0816 25.5297 25.7526 24.3955 24.9657 23.6678C23.9457 22.7246 22.534 22.0688 20.0501 21.8361C20.5451 20.4752 20.4064 18.5669 19.6376 17.5287C18.5259 16.0276 16.4741 15.3489 13.8772 15.6455C11.164 15.9553 8.56427 17.2965 8.95745 20.6526Z" fill="url(#paint3_linear_4349_43019)"/>
</g>
<defs>
<linearGradient id="paint0_linear_4349_43019" x1="14.4622" y1="17.0972" x2="32.6335" y2="22.2291" gradientUnits="userSpaceOnUse">
<stop stop-color="white"/>
<stop offset="1" stop-color="white"/>
</linearGradient>
<linearGradient id="paint1_linear_4349_43019" x1="29.5646" y1="16.7502" x2="16.4073" y2="3.61479" gradientUnits="userSpaceOnUse">
<stop stop-color="#8697FF"/>
<stop offset="1" stop-color="#8697FF" stop-opacity="0"/>
</linearGradient>
<linearGradient id="paint2_linear_4349_43019" x1="22.798" y1="24.1254" x2="10.1852" y2="16.9037" gradientUnits="userSpaceOnUse">
<stop stop-color="#8697FF"/>
<stop offset="1" stop-color="#8697FF" stop-opacity="0"/>
</linearGradient>
<linearGradient id="paint3_linear_4349_43019" x1="15.5464" y1="16.9607" x2="24.0976" y2="27.7814" gradientUnits="userSpaceOnUse">
<stop stop-color="white"/>
<stop offset="0.983895" stop-color="#D1D8FF"/>
</linearGradient>
</defs>
</svg>
