<svg width="14" height="14" viewBox="0 0 14 14" fill="none" xmlns="http://www.w3.org/2000/svg">
<path d="M14 0H0V14H14V0Z" fill="white" fill-opacity="0.01"/>
<path d="M6.99544 12.8346C8.60626 12.8346 10.0646 12.1817 11.1202 11.1261C12.1759 10.0705 12.8288 8.61212 12.8288 7.0013C12.8288 5.39049 12.1759 3.93215 11.1202 2.87651C10.0646 1.82089 8.60626 1.16797 6.99544 1.16797C5.38463 1.16797 3.92629 1.82089 2.87065 2.87651C1.81503 3.93215 1.16211 5.39049 1.16211 7.0013C1.16211 8.61212 1.81503 10.0705 2.87065 11.1261C3.92629 12.1817 5.38463 12.8346 6.99544 12.8346Z" fill="#27C193"/>
<path d="M4.66211 7L6.41211 8.75L9.91211 5.25" stroke="white" stroke-width="0.875" stroke-linecap="round" stroke-linejoin="round"/>
</svg>
