<svg width="20" height="20" viewBox="0 0 20 20" fill="none" xmlns="http://www.w3.org/2000/svg">
  <g clip-path="url(#clip0_496_440)">
    <path fill-rule="evenodd" clip-rule="evenodd"
      d="M17.5 1.42578C17.5 1.0806 17.2202 0.800781 16.875 0.800781C16.5298 0.800781 16.25 1.0806 16.25 1.42578L16.25 2.67188H15C14.6548 2.67188 14.375 2.9517 14.375 3.29688C14.375 3.64205 14.6548 3.92188 15 3.92188H16.25L16.25 5.17578C16.25 5.52096 16.5298 5.80078 16.875 5.80078C17.2202 5.80078 17.5 5.52096 17.5 5.17578V3.92188H18.75C19.0952 3.92188 19.375 3.64205 19.375 3.29688C19.375 2.9517 19.0952 2.67188 18.75 2.67188H17.5V1.42578Z"
      fill="currentColor" />
    <path fill-rule="evenodd" clip-rule="evenodd"
      d="M2.28516 15.0039C2.28516 14.7278 2.0613 14.5039 1.78516 14.5039C1.50901 14.5039 1.28516 14.7278 1.28516 15.0039V15.5742H0.712891C0.436748 15.5742 0.212891 15.7981 0.212891 16.0742C0.212891 16.3504 0.436748 16.5742 0.712891 16.5742H1.28516V17.1468C1.28516 17.4229 1.50901 17.6468 1.78516 17.6468C2.0613 17.6468 2.28516 17.4229 2.28516 17.1468V16.5742H2.85575C3.13189 16.5742 3.35575 16.3504 3.35575 16.0742C3.35575 15.7981 3.13189 15.5742 2.85575 15.5742H2.28516V15.0039Z"
      fill="currentColor" />
    <path
      d="M7.99871 6.76331L9.99944 1.95297L12.0002 6.76332C12.1946 7.23073 12.6342 7.5501 13.1388 7.59056L18.332 8.00689L14.3753 11.3962C13.9908 11.7255 13.8229 12.2423 13.9404 12.7347L15.1492 17.8023L10.7031 15.0867C10.2711 14.8228 9.72777 14.8228 9.29575 15.0867L4.84967 17.8023L6.05849 12.7347C6.17595 12.2423 6.00805 11.7255 5.62358 11.3962L1.66693 8.00689L6.86011 7.59056C7.36472 7.5501 7.8043 7.23073 7.99871 6.76331Z"
      stroke="currentColor" stroke-width="1.5" />
  </g>
  <defs>
    <clipPath id="clip0_496_440">
      <rect width="20" height="20" fill="white" />
    </clipPath>
  </defs>
</svg>
