<svg width="24" height="24" viewBox="0 0 24 24" fill="none" xmlns="http://www.w3.org/2000/svg">
  <path
    d="M8.60538 2.02734H3.03579C2.42059 2.02734 1.92188 2.52606 1.92188 3.14126V8.71084C1.92188 9.32606 2.42059 9.82476 3.03579 9.82476H8.60538C9.22059 9.82476 9.71929 9.32606 9.71929 8.71084V3.14126C9.71929 2.52606 9.22059 2.02734 8.60538 2.02734Z"
    stroke="currentColor" stroke-width="1.8" stroke-linejoin="round" />
  <path
    d="M8.60538 14.2861H3.03579C2.42059 14.2861 1.92188 14.7848 1.92188 15.4V20.9696C1.92188 21.5848 2.42059 22.0836 3.03579 22.0836H8.60538C9.22059 22.0836 9.71929 21.5848 9.71929 20.9696V15.4C9.71929 14.7848 9.22059 14.2861 8.60538 14.2861Z"
    stroke="currentColor" stroke-width="1.8" stroke-linejoin="round" />
  <path
    d="M17.3701 1.70505L13.8472 5.22802C13.458 5.61717 13.458 6.24807 13.8472 6.63721L17.3701 10.1602C17.7593 10.5493 18.3902 10.5493 18.7793 10.1602L22.3023 6.63721C22.6915 6.24806 22.6915 5.61717 22.3023 5.22802L18.7793 1.70505C18.3902 1.31591 17.7593 1.3159 17.3701 1.70505Z"
    stroke="currentColor" stroke-width="1.8" stroke-linejoin="round" />
  <path
    d="M20.8603 14.2861H15.2907C14.6755 14.2861 14.1768 14.7848 14.1768 15.4V20.9696C14.1768 21.5848 14.6755 22.0836 15.2907 22.0836H20.8603C21.4755 22.0836 21.9742 21.5848 21.9742 20.9696V15.4C21.9742 14.7848 21.4755 14.2861 20.8603 14.2861Z"
    stroke="currentColor" stroke-width="1.8" stroke-linejoin="round" />
</svg>
