<svg xmlns="http://www.w3.org/2000/svg" width="20" height="20" viewBox="0 0 20 20" fill="none">
  <g clip-path="url(#clip0_13249_118939)">
    <path
      d="M7.42771 19C5.91971 18.5329 4.57741 17.6657 3.51454 16.5167C3.91105 16.0278 4.15 15.3961 4.15 14.7064C4.15 13.155 2.94117 11.8974 1.45 11.8974C1.3598 11.8974 1.27063 11.902 1.1827 11.911C1.06291 11.3017 1 10.6709 1 10.0248C1 9.04601 1.14435 8.10234 1.41211 7.2155C1.42471 7.21569 1.43735 7.21578 1.45 7.21578C2.94117 7.21578 4.15 5.95815 4.15 4.4068C4.15 3.96144 4.05037 3.54033 3.87307 3.16618C4.91387 2.15934 6.18422 1.40584 7.59344 1C8.03998 1.9106 8.95001 2.53417 10 2.53417C11.05 2.53417 11.96 1.9106 12.4066 1C13.8158 1.40584 15.0861 2.15934 16.1269 3.16618C15.9496 3.54033 15.85 3.96144 15.85 4.4068C15.85 5.95815 17.0588 7.21578 18.55 7.21578C18.5626 7.21578 18.5753 7.21569 18.5879 7.2155C18.8556 8.10234 19 9.04601 19 10.0248C19 10.6709 18.9371 11.3017 18.8173 11.911C18.7294 11.902 18.6402 11.8974 18.55 11.8974C17.0588 11.8974 15.85 13.155 15.85 14.7064C15.85 15.3961 16.089 16.0278 16.4854 16.5167C15.4226 17.6657 14.0803 18.5329 12.5723 19C12.2243 17.8674 11.2042 17.0472 10 17.0472C8.7958 17.0472 7.77574 17.8674 7.42771 19Z"
      fill="#7084FF" stroke="#7084FF" stroke-width="1.5" stroke-linejoin="round" />
    <path
      d="M10 13C11.6569 13 13 11.6569 13 10C13 8.34314 11.6569 7 10 7C8.34314 7 7 8.34314 7 10C7 11.6569 8.34314 13 10 13Z"
      fill="white" stroke="white" stroke-width="1.5" stroke-linejoin="round" />
  </g>
  <defs>
    <clipPath id="clip0_13249_118939">
      <rect width="20" height="20" fill="white" />
    </clipPath>
  </defs>
</svg>
